<?xml version="1.0" encoding="UTF-8" standalone="no"?>
<!DOCTYPE svg PUBLIC "-//W3C//DTD SVG 1.1//EN"
 "http://www.w3.org/Graphics/SVG/1.1/DTD/svg11.dtd">
<!-- Generated by graphviz version 2.43.0 (0)
 -->
<!-- Title: Server::Server Pages: 1 -->
<svg width="450pt" height="175pt"
 viewBox="0.00 0.00 450.00 175.00" xmlns="http://www.w3.org/2000/svg" xmlns:xlink="http://www.w3.org/1999/xlink">
<g id="graph0" class="graph" transform="scale(1 1) rotate(0) translate(4 171)">
<title>Server::Server</title>
<!-- Node1 -->
<g id="Node000001" class="node">
<title>Node1</title>
<g id="a_Node000001"><a xlink:title=" ">
<polygon fill="#999999" stroke="#666666" points="86,-93 0,-93 0,-74 86,-74 86,-93"/>
<text text-anchor="middle" x="43" y="-81" font-family="Helvetica,sans-Serif" font-size="10.00">Server::Server</text>
</a>
</g>
</g>
<!-- Node2 -->
<g id="Node000002" class="node">
<title>Node2</title>
<g id="a_Node000002"><a xlink:href="namespaceFactory.html#a46cd969803b3a2d51624f7d1a880e90c" target="_top" xlink:title=" ">
<polygon fill="white" stroke="#666666" points="280,-167 122,-167 122,-148 280,-148 280,-167"/>
<text text-anchor="middle" x="201" y="-155" font-family="Helvetica,sans-Serif" font-size="10.00">Factory::createScreenBorders</text>
</a>
</g>
</g>
<!-- Node1&#45;&gt;Node2 -->
<g id="edge1_Node000001_Node000002" class="edge">
<title>Node1&#45;&gt;Node2</title>
<g id="a_edge1_Node000001_Node000002"><a xlink:title=" ">
<path fill="none" stroke="#63b8ff" d="M54.75,-93.38C69.03,-105.97 95.57,-127.55 122,-139.5 126.44,-141.51 131.12,-143.3 135.9,-144.9"/>
<polygon fill="#63b8ff" stroke="#63b8ff" points="135.21,-148.35 145.79,-147.93 137.25,-141.66 135.21,-148.35"/>
</a>
</g>
</g>
<!-- Node3 -->
<g id="Node000003" class="node">
<title>Node3</title>
<g id="a_Node000003"><a xlink:href="namespaceFactory.html#a7e8cefb2f1094bf3a3b56575b315301b" target="_top" xlink:title=" ">
<polygon fill="white" stroke="#666666" points="264,-130 138,-130 138,-111 264,-111 264,-130"/>
<text text-anchor="middle" x="201" y="-118" font-family="Helvetica,sans-Serif" font-size="10.00">Factory::createTileGrid</text>
</a>
</g>
</g>
<!-- Node1&#45;&gt;Node3 -->
<g id="edge2_Node000001_Node000003" class="edge">
<title>Node1&#45;&gt;Node3</title>
<g id="a_edge2_Node000001_Node000003"><a xlink:title=" ">
<path fill="none" stroke="#63b8ff" d="M82.86,-93.06C95.35,-96.11 109.25,-99.48 122,-102.5 130.55,-104.53 139.63,-106.65 148.46,-108.7"/>
<polygon fill="#63b8ff" stroke="#63b8ff" points="147.75,-112.13 158.28,-110.97 149.33,-105.31 147.75,-112.13"/>
</a>
</g>
</g>
<!-- Node4 -->
<g id="Node000004" class="node">
<title>Node4</title>
<g id="a_Node000004"><a xlink:href="engine_2ecs_2ecs_8hpp.html#a5a868f82168f3b251aa7ca758686125c" target="_top" xlink:title="Retrieves the unique ID for a given component type.">
<polygon fill="white" stroke="#666666" points="250.5,-93 151.5,-93 151.5,-74 250.5,-74 250.5,-93"/>
<text text-anchor="middle" x="201" y="-81" font-family="Helvetica,sans-Serif" font-size="10.00">getComponentID</text>
</a>
</g>
</g>
<!-- Node1&#45;&gt;Node4 -->
<g id="edge3_Node000001_Node000004" class="edge">
<title>Node1&#45;&gt;Node4</title>
<g id="a_edge3_Node000001_Node000004"><a xlink:title=" ">
<path fill="none" stroke="#63b8ff" d="M86.22,-83.5C103.19,-83.5 123.06,-83.5 141.4,-83.5"/>
<polygon fill="#63b8ff" stroke="#63b8ff" points="141.4,-87 151.4,-83.5 141.4,-80 141.4,-87"/>
</a>
</g>
</g>
<!-- Node6 -->
<g id="Node000006" class="node">
<title>Node6</title>
<g id="a_Node000006"><a xlink:href="classWaveSystem.html#afe7beb27d93fec01da74e11f0ca91960" target="_top" xlink:title=" ">
<polygon fill="white" stroke="#666666" points="268,-56 134,-56 134,-37 268,-37 268,-56"/>
<text text-anchor="middle" x="201" y="-44" font-family="Helvetica,sans-Serif" font-size="10.00">WaveSystem::loadLevel</text>
</a>
</g>
</g>
<!-- Node1&#45;&gt;Node6 -->
<g id="edge5_Node000001_Node000006" class="edge">
<title>Node1&#45;&gt;Node6</title>
<g id="a_edge5_Node000001_Node000006"><a xlink:title=" ">
<path fill="none" stroke="#63b8ff" d="M84.17,-73.97C104.2,-69.22 128.62,-63.43 149.87,-58.39"/>
<polygon fill="#63b8ff" stroke="#63b8ff" points="150.77,-61.77 159.69,-56.06 149.15,-54.96 150.77,-61.77"/>
</a>
</g>
</g>
<!-- Node7 -->
<g id="Node000007" class="node">
<title>Node7</title>
<g id="a_Node000007"><a xlink:href="classUdpServer.html#a2e6eba1c68cc214f6df97a5c7724697f" target="_top" xlink:title=" ">
<polygon fill="white" stroke="#666666" points="249,-19 153,-19 153,0 249,0 249,-19"/>
<text text-anchor="middle" x="201" y="-7" font-family="Helvetica,sans-Serif" font-size="10.00">UdpServer::start</text>
</a>
</g>
</g>
<!-- Node1&#45;&gt;Node7 -->
<g id="edge6_Node000001_Node000007" class="edge">
<title>Node1&#45;&gt;Node7</title>
<g id="a_edge6_Node000001_Node000007"><a xlink:title=" ">
<path fill="none" stroke="#63b8ff" d="M54.8,-73.86C69.15,-61.55 95.75,-40.43 122,-28.5 128.63,-25.49 135.8,-22.91 143.02,-20.72"/>
<polygon fill="#63b8ff" stroke="#63b8ff" points="144.16,-24.04 152.84,-17.97 142.27,-17.3 144.16,-24.04"/>
</a>
</g>
</g>
<!-- Node5 -->
<g id="Node000005" class="node">
<title>Node5</title>
<g id="a_Node000005"><a xlink:href="engine_2ecs_2ecs_8hpp.html#afdb02fc115de82c93e814ac1d3a64c06" target="_top" xlink:title="Generates a new unique ComponentTypeID.">
<polygon fill="white" stroke="#666666" points="442,-93 316,-93 316,-74 442,-74 442,-93"/>
<text text-anchor="middle" x="379" y="-81" font-family="Helvetica,sans-Serif" font-size="10.00">newComponentTypeID</text>
</a>
</g>
</g>
<!-- Node4&#45;&gt;Node5 -->
<g id="edge4_Node000004_Node000005" class="edge">
<title>Node4&#45;&gt;Node5</title>
<g id="a_edge4_Node000004_Node000005"><a xlink:title=" ">
<path fill="none" stroke="#63b8ff" d="M250.56,-83.5C267.56,-83.5 287.03,-83.5 305.55,-83.5"/>
<polygon fill="#63b8ff" stroke="#63b8ff" points="305.73,-87 315.73,-83.5 305.73,-80 305.73,-87"/>
</a>
</g>
</g>
</g>
</svg>
