<?xml version="1.0" encoding="UTF-8" standalone="no"?>
<!DOCTYPE svg PUBLIC "-//W3C//DTD SVG 1.1//EN"
 "http://www.w3.org/Graphics/SVG/1.1/DTD/svg11.dtd">
<!-- Generated by graphviz version 2.43.0 (0)
 -->
<!-- Title: CollisionSystem Pages: 1 -->
<!--zoomable 914 -->

<svg id="main" version="1.1" xmlns="http://www.w3.org/2000/svg" xmlns:xlink="http://www.w3.org/1999/xlink" xml:space="preserve" onload="init(evt)">
<style type="text/css"><![CDATA[
.node, .edge {opacity: 0.7;}
.node.selected, .edge.selected {opacity: 1;}
.edge:hover path { stroke: red; }
.edge:hover polygon { stroke: red; fill: red; }
]]></style>

<defs>
  <circle id="rim" cx="0" cy="0" r="7"/>
  <circle id="rim2" cx="0" cy="0" r="3.5"/>
  <g id="zoomPlus">
    <use xlink:href="#rim" fill="#404040"><set attributeName="fill" to="#808080" begin="zoomplus.mouseover" end="zoomplus.mouseout"/></use>
    <path d="M-4,0h8M0,-4v8" fill="none" stroke="white" stroke-width="1.5" pointer-events="none"/>
  </g>
  <g id="zoomMin">
    <use xlink:href="#rim" fill="#404040"><set attributeName="fill" to="#808080" begin="zoomminus.mouseover" end="zoomminus.mouseout"/></use>
    <path d="M-4,0h8" fill="none" stroke="white" stroke-width="1.5" pointer-events="none"/>
  </g>
  <g id="arrowUp" transform="translate(30 24)">
    <use xlink:href="#rim"/>
    <path pointer-events="none" fill="none" stroke="white" stroke-width="1.5" d="M0,-3.0v7 M-2.5,-0.5L0,-3.0L2.5,-0.5"/>
  </g>
  <g id="arrowRight" transform="rotate(90) translate(36 -43)">
    <use xlink:href="#rim"/>
    <path pointer-events="none" fill="none" stroke="white" stroke-width="1.5" d="M0,-3.0v7 M-2.5,-0.5L0,-3.0L2.5,-0.5"/>
  </g>
  <g id="arrowDown" transform="rotate(180) translate(-30 -48)">
    <use xlink:href="#rim"/>
    <path pointer-events="none" fill="none" stroke="white" stroke-width="1.5" d="M0,-3.0v7 M-2.5,-0.5L0,-3.0L2.5,-0.5"/>
  </g>
  <g id="arrowLeft" transform="rotate(270) translate(-36 17)">
    <use xlink:href="#rim"/>
    <path pointer-events="none" fill="none" stroke="white" stroke-width="1.5" d="M0,-3.0v7 M-2.5,-0.5L0,-3.0L2.5,-0.5"/>
  </g>
  <g id="resetDef">
    <use xlink:href="#rim2" fill="#404040"><set attributeName="fill" to="#808080" begin="reset.mouseover" end="reset.mouseout"/></use>
  </g>
</defs>
<script type="application/ecmascript">
var viewWidth = 256;
var viewHeight = 914;
var sectionId = 'dynsection-1';
</script>
<script type="application/ecmascript" xlink:href="svg.min.js"/>
<svg id="graph" class="graph">
<g id="viewport">
<title>CollisionSystem</title>
<!-- Node1 -->
<g id="Node000001" class="node">
<title>Node1</title>
<g id="a_Node000001"><a xlink:title=" ">
<polygon fill="#999999" stroke="transparent" points="248,-237 0,-237 0,0 248,0 248,-237"/>
<text text-anchor="start" x="84.5" y="-224.5" font-family="Helvetica,sans-Serif" font-size="10.00">CollisionSystem</text>
<text text-anchor="start" x="122" y="-209.5" font-family="Helvetica,sans-Serif" font-size="10.00"> </text>
<text text-anchor="start" x="4" y="-194.5" font-family="Helvetica,sans-Serif" font-size="10.00">+</text>
<text text-anchor="start" x="17" y="-194.5" font-family="Helvetica,sans-Serif" font-size="10.00">CollisionSystem(ECS</text>
<text text-anchor="start" x="17" y="-183.5" font-family="Helvetica,sans-Serif" font-size="10.00"> &amp;ecs)</text>
<text text-anchor="start" x="4" y="-168.5" font-family="Helvetica,sans-Serif" font-size="10.00">+</text>
<text text-anchor="start" x="17" y="-168.5" font-family="Helvetica,sans-Serif" font-size="10.00">void update(double</text>
<text text-anchor="start" x="17" y="-157.5" font-family="Helvetica,sans-Serif" font-size="10.00"> dt) override</text>
<text text-anchor="start" x="6.5" y="-142.5" font-family="Helvetica,sans-Serif" font-size="10.00">&#45;</text>
<text text-anchor="start" x="17" y="-142.5" font-family="Helvetica,sans-Serif" font-size="10.00">bool checkAABB(const</text>
<text text-anchor="start" x="17" y="-131.5" font-family="Helvetica,sans-Serif" font-size="10.00"> Components::Position</text>
<text text-anchor="start" x="17" y="-120.5" font-family="Helvetica,sans-Serif" font-size="10.00"> &amp;pos1, const Components</text>
<text text-anchor="start" x="17" y="-109.5" font-family="Helvetica,sans-Serif" font-size="10.00">::Collider &amp;coll1, const</text>
<text text-anchor="start" x="17" y="-98.5" font-family="Helvetica,sans-Serif" font-size="10.00"> Components::Position &amp;pos2,</text>
<text text-anchor="start" x="17" y="-87.5" font-family="Helvetica,sans-Serif" font-size="10.00"> const Components::Collider</text>
<text text-anchor="start" x="17" y="-76.5" font-family="Helvetica,sans-Serif" font-size="10.00"> &amp;coll2) const</text>
<text text-anchor="start" x="6.5" y="-61.5" font-family="Helvetica,sans-Serif" font-size="10.00">&#45;</text>
<text text-anchor="start" x="17" y="-61.5" font-family="Helvetica,sans-Serif" font-size="10.00">void resolveCollision</text>
<text text-anchor="start" x="17" y="-50.5" font-family="Helvetica,sans-Serif" font-size="10.00">(Components::Position</text>
<text text-anchor="start" x="17" y="-39.5" font-family="Helvetica,sans-Serif" font-size="10.00"> &amp;mobilePos, const Components</text>
<text text-anchor="start" x="17" y="-28.5" font-family="Helvetica,sans-Serif" font-size="10.00">::Collider &amp;mobileColl, const</text>
<text text-anchor="start" x="17" y="-17.5" font-family="Helvetica,sans-Serif" font-size="10.00"> Components::Position &amp;staticPos,</text>
<text text-anchor="start" x="17" y="-6.5" font-family="Helvetica,sans-Serif" font-size="10.00"> const Components::Collider &amp;staticColl) const</text>
<polygon fill="#666666" stroke="#666666" points="0,-219.5 0,-219.5 248,-219.5 248,-219.5 0,-219.5"/>
<polygon fill="#666666" stroke="#666666" points="0,-204.5 0,-204.5 248,-204.5 248,-204.5 0,-204.5"/>
<polygon fill="none" stroke="#666666" points="0,0 0,-237 248,-237 248,0 0,0"/>
</a>
</g>
</g>
<!-- Node2 -->
<g id="Node000002" class="node">
<title>Node2</title>
<g id="a_Node000002"><a xlink:href="classISystem.html" target="_top" xlink:title="Interface for systems in the ECS.">
<polygon fill="white" stroke="transparent" points="181.5,-375 66.5,-375 66.5,-274 181.5,-274 181.5,-375"/>
<text text-anchor="start" x="104.5" y="-362.5" font-family="Helvetica,sans-Serif" font-size="10.00">ISystem</text>
<text text-anchor="start" x="122.5" y="-347.5" font-family="Helvetica,sans-Serif" font-size="10.00"> </text>
<text text-anchor="start" x="71" y="-332.5" font-family="Helvetica,sans-Serif" font-size="10.00">+</text>
<text text-anchor="start" x="84" y="-332.5" font-family="Helvetica,sans-Serif" font-size="10.00">ISystem(ECS &amp;ecs)</text>
<text text-anchor="start" x="71" y="-317.5" font-family="Helvetica,sans-Serif" font-size="10.00">+</text>
<text text-anchor="start" x="84" y="-317.5" font-family="Helvetica,sans-Serif" font-size="10.00">virtual ~ISystem()</text>
<text text-anchor="start" x="84" y="-306.5" font-family="Helvetica,sans-Serif" font-size="10.00">=default</text>
<text text-anchor="start" x="71" y="-291.5" font-family="Helvetica,sans-Serif" font-size="10.00">+</text>
<text text-anchor="start" x="84" y="-291.5" font-family="Helvetica,sans-Serif" font-size="10.00">virtual void update</text>
<text text-anchor="start" x="84" y="-280.5" font-family="Helvetica,sans-Serif" font-size="10.00">(double dt)=0</text>
<polygon fill="#666666" stroke="#666666" points="67,-357.5 67,-357.5 182,-357.5 182,-357.5 67,-357.5"/>
<polygon fill="#666666" stroke="#666666" points="67,-342.5 67,-342.5 182,-342.5 182,-342.5 67,-342.5"/>
<polygon fill="none" stroke="#666666" points="66.5,-274 66.5,-375 181.5,-375 181.5,-274 66.5,-274"/>
</a>
</g>
</g>
<!-- Node2&#45;&gt;Node1 -->
<g id="edge1_Node000001_Node000002" class="edge">
<title>Node2&#45;&gt;Node1</title>
<g id="a_edge1_Node000001_Node000002"><a xlink:title=" ">
<path fill="none" stroke="#63b8ff" d="M124,-263.76C124,-255.28 124,-246.32 124,-237.19"/>
<polygon fill="none" stroke="#63b8ff" points="120.5,-263.86 124,-273.86 127.5,-263.86 120.5,-263.86"/>
</a>
</g>
</g>
<!-- Node3 -->
<g id="Node000003" class="node">
<title>Node3</title>
<g id="a_Node000003"><a xlink:href="classECS.html" target="_top" xlink:title="Entity Component System manager.">
<polygon fill="white" stroke="transparent" points="216,-906 32,-906 32,-422 216,-422 216,-906"/>
<text text-anchor="start" x="114.5" y="-894" font-family="Helvetica,sans-Serif" font-size="10.00">ECS</text>
<text text-anchor="start" x="38.5" y="-879" font-family="Helvetica,sans-Serif" font-size="10.00">&#45;</text>
<text text-anchor="start" x="49" y="-879" font-family="Helvetica,sans-Serif" font-size="10.00">double _time</text>
<text text-anchor="start" x="38.5" y="-864" font-family="Helvetica,sans-Serif" font-size="10.00">&#45;</text>
<text text-anchor="start" x="49" y="-864" font-family="Helvetica,sans-Serif" font-size="10.00">std::size_t __livingEntities</text>
<text text-anchor="start" x="38.5" y="-849" font-family="Helvetica,sans-Serif" font-size="10.00">&#45;</text>
<text text-anchor="start" x="49" y="-849" font-family="Helvetica,sans-Serif" font-size="10.00">std::queue&lt; Entity</text>
<text text-anchor="start" x="49" y="-838" font-family="Helvetica,sans-Serif" font-size="10.00"> &gt; __freeEntities</text>
<text text-anchor="start" x="38.5" y="-823" font-family="Helvetica,sans-Serif" font-size="10.00">&#45;</text>
<text text-anchor="start" x="49" y="-823" font-family="Helvetica,sans-Serif" font-size="10.00">std::unordered_map</text>
<text text-anchor="start" x="49" y="-812" font-family="Helvetica,sans-Serif" font-size="10.00">&lt; Entity, Signature</text>
<text text-anchor="start" x="49" y="-801" font-family="Helvetica,sans-Serif" font-size="10.00"> &gt; __signatures</text>
<text text-anchor="start" x="38.5" y="-786" font-family="Helvetica,sans-Serif" font-size="10.00">&#45;</text>
<text text-anchor="start" x="49" y="-786" font-family="Helvetica,sans-Serif" font-size="10.00">std::vector&lt; void *</text>
<text text-anchor="start" x="49" y="-775" font-family="Helvetica,sans-Serif" font-size="10.00"> &gt; _componentStorages</text>
<text text-anchor="start" x="36" y="-760" font-family="Helvetica,sans-Serif" font-size="10.00">+</text>
<text text-anchor="start" x="49" y="-760" font-family="Helvetica,sans-Serif" font-size="10.00">ECS()</text>
<text text-anchor="start" x="36" y="-745" font-family="Helvetica,sans-Serif" font-size="10.00">+</text>
<text text-anchor="start" x="49" y="-745" font-family="Helvetica,sans-Serif" font-size="10.00">~ECS()=default</text>
<text text-anchor="start" x="36" y="-730" font-family="Helvetica,sans-Serif" font-size="10.00">+</text>
<text text-anchor="start" x="49" y="-730" font-family="Helvetica,sans-Serif" font-size="10.00">Entity createEntity()</text>
<text text-anchor="start" x="36" y="-715" font-family="Helvetica,sans-Serif" font-size="10.00">+</text>
<text text-anchor="start" x="49" y="-715" font-family="Helvetica,sans-Serif" font-size="10.00">void killEntity(Entity e)</text>
<text text-anchor="start" x="36" y="-700" font-family="Helvetica,sans-Serif" font-size="10.00">+</text>
<text text-anchor="start" x="49" y="-700" font-family="Helvetica,sans-Serif" font-size="10.00">Signature getSignature</text>
<text text-anchor="start" x="49" y="-689" font-family="Helvetica,sans-Serif" font-size="10.00">(Entity e) const</text>
<text text-anchor="start" x="36" y="-674" font-family="Helvetica,sans-Serif" font-size="10.00">+</text>
<text text-anchor="start" x="49" y="-674" font-family="Helvetica,sans-Serif" font-size="10.00">void setSignature(Entity</text>
<text text-anchor="start" x="49" y="-663" font-family="Helvetica,sans-Serif" font-size="10.00"> e, Signature sig)</text>
<text text-anchor="start" x="36" y="-648" font-family="Helvetica,sans-Serif" font-size="10.00">+</text>
<text text-anchor="start" x="49" y="-648" font-family="Helvetica,sans-Serif" font-size="10.00">Entity addComponent</text>
<text text-anchor="start" x="49" y="-637" font-family="Helvetica,sans-Serif" font-size="10.00">(Entity e, const Component</text>
<text text-anchor="start" x="49" y="-626" font-family="Helvetica,sans-Serif" font-size="10.00">Type &amp;component)</text>
<text text-anchor="start" x="36" y="-611" font-family="Helvetica,sans-Serif" font-size="10.00">+</text>
<text text-anchor="start" x="49" y="-611" font-family="Helvetica,sans-Serif" font-size="10.00">bool hasComponent(Entity</text>
<text text-anchor="start" x="49" y="-600" font-family="Helvetica,sans-Serif" font-size="10.00"> e) const</text>
<text text-anchor="start" x="36" y="-585" font-family="Helvetica,sans-Serif" font-size="10.00">+</text>
<text text-anchor="start" x="49" y="-585" font-family="Helvetica,sans-Serif" font-size="10.00">const ComponentType</text>
<text text-anchor="start" x="49" y="-574" font-family="Helvetica,sans-Serif" font-size="10.00"> * getConstComponent</text>
<text text-anchor="start" x="49" y="-563" font-family="Helvetica,sans-Serif" font-size="10.00">(Entity e) const</text>
<text text-anchor="start" x="36" y="-548" font-family="Helvetica,sans-Serif" font-size="10.00">+</text>
<text text-anchor="start" x="49" y="-548" font-family="Helvetica,sans-Serif" font-size="10.00">ComponentType * getComponent</text>
<text text-anchor="start" x="49" y="-537" font-family="Helvetica,sans-Serif" font-size="10.00">(Entity e)</text>
<text text-anchor="start" x="36" y="-522" font-family="Helvetica,sans-Serif" font-size="10.00">+</text>
<text text-anchor="start" x="49" y="-522" font-family="Helvetica,sans-Serif" font-size="10.00">std::vector&lt; Entity</text>
<text text-anchor="start" x="49" y="-511" font-family="Helvetica,sans-Serif" font-size="10.00"> &gt; getEntitiesByComponents()</text>
<text text-anchor="start" x="36" y="-496" font-family="Helvetica,sans-Serif" font-size="10.00">+</text>
<text text-anchor="start" x="49" y="-496" font-family="Helvetica,sans-Serif" font-size="10.00">void killComponent</text>
<text text-anchor="start" x="49" y="-485" font-family="Helvetica,sans-Serif" font-size="10.00">(Entity e)</text>
<text text-anchor="start" x="36" y="-470" font-family="Helvetica,sans-Serif" font-size="10.00">+</text>
<text text-anchor="start" x="49" y="-470" font-family="Helvetica,sans-Serif" font-size="10.00">double getTime() const</text>
<text text-anchor="start" x="36" y="-455" font-family="Helvetica,sans-Serif" font-size="10.00">+</text>
<text text-anchor="start" x="49" y="-455" font-family="Helvetica,sans-Serif" font-size="10.00">void addTime(double dt)</text>
<text text-anchor="start" x="38.5" y="-440" font-family="Helvetica,sans-Serif" font-size="10.00">&#45;</text>
<text text-anchor="start" x="49" y="-440" font-family="Helvetica,sans-Serif" font-size="10.00">void verifyComponentStorage</text>
<text text-anchor="start" x="49" y="-429" font-family="Helvetica,sans-Serif" font-size="10.00">(ComponentTypeID TypeID)</text>
<polygon fill="#666666" stroke="#666666" points="32,-889 32,-889 216,-889 216,-889 32,-889"/>
<polygon fill="#666666" stroke="#666666" points="32,-770 32,-770 47,-770 47,-770 32,-770"/>
<polygon fill="#666666" stroke="#666666" points="47,-770 47,-770 216,-770 216,-770 47,-770"/>
<polygon fill="none" stroke="#666666" points="32,-422 32,-906 216,-906 216,-422 32,-422"/>
</a>
</g>
</g>
<!-- Node3&#45;&gt;Node2 -->
<g id="edge2_Node000002_Node000003" class="edge">
<title>Node3&#45;&gt;Node2</title>
<g id="a_edge2_Node000002_Node000003"><a xlink:title=" ">
<path fill="none" stroke="#63b8ff" d="M124,-421.76C124,-409.49 124,-397.84 124,-387.17"/>
<polygon fill="none" stroke="#63b8ff" points="124,-387.11 120,-381.11 124,-375.11 128,-381.11 124,-387.11"/>
</a>
</g>
<text text-anchor="middle" x="141" y="-396" font-family="Helvetica,sans-Serif" font-size="10.00" fill="grey"> #_ecs</text>
</g>
</g>
</svg>

<g id="navigator" transform="translate(0 0)" fill="#404254">
  <rect fill="#f2f5e9" fill-opacity="0.5" stroke="#606060" stroke-width=".5" x="0" y="0" width="60" height="60"/>
  <use id="zoomplus" xlink:href="#zoomPlus" x="17" y="9" onmousedown="handleZoom(evt,'in')"/>
  <use id="zoomminus" xlink:href="#zoomMin" x="42" y="9" onmousedown="handleZoom(evt,'out')"/>
  <use id="reset" xlink:href="#resetDef" x="30" y="36" onmousedown="handleReset()"/>
   <use id="arrowup" xlink:href="#arrowUp" x="0" y="0" onmousedown="handlePan(0,-1)"/>
  <use id="arrowright" xlink:href="#arrowRight" x="0" y="0" onmousedown="handlePan(1,0)"/>
  <use id="arrowdown" xlink:href="#arrowDown" x="0" y="0" onmousedown="handlePan(0,1)"/>
  <use id="arrowleft" xlink:href="#arrowLeft" x="0" y="0" onmousedown="handlePan(-1,0)"/>
</g>
<svg viewBox="0 0 15 15" width="100%" height="30px" preserveAspectRatio="xMaxYMin meet">
 <g id="arrow_out" transform="scale(0.3 0.3)">
  <a xlink:href="classCollisionSystem__coll__graph_org.svg" target="_base">
   <rect id="button" ry="5" rx="5" y="6" x="6" height="38" width="38"
        fill="#f2f5e9" fill-opacity="0.5" stroke="#606060" stroke-width="1.0"/>
   <path id="arrow"
     d="M 11.500037,31.436501 C 11.940474,20.09759 22.043105,11.32322 32.158766,21.979434 L 37.068811,17.246167 C 37.068811,17.246167 37.088388,32 37.088388,32 L 22.160133,31.978069 C 22.160133,31.978069 26.997745,27.140456 26.997745,27.140456 C 18.528582,18.264221 13.291696,25.230495 11.500037,31.436501 z"
     style="fill:#404040;"/>
  </a>
 </g>
</svg>

<style type='text/css'>
<![CDATA[
[data-mouse-over-selected='false'] { opacity: 0.7; }
[data-mouse-over-selected='true']  { opacity: 1.0; }
]]>
</style>
<script type="application/ecmascript"><![CDATA[
document.addEventListener('DOMContentLoaded', (event) => {
  highlightEdges();
  highlightAdjacentNodes();
});
]]></script>
</svg>
