<?xml version="1.0" encoding="UTF-8" standalone="no"?>
<!DOCTYPE svg PUBLIC "-//W3C//DTD SVG 1.1//EN"
 "http://www.w3.org/Graphics/SVG/1.1/DTD/svg11.dtd">
<!-- Generated by graphviz version 2.43.0 (0)
 -->
<!-- Title: UdpServer Pages: 1 -->
<svg width="336pt" height="896pt"
 viewBox="0.00 0.00 336.00 896.00" xmlns="http://www.w3.org/2000/svg" xmlns:xlink="http://www.w3.org/1999/xlink">
<g id="graph0" class="graph" transform="scale(1 1) rotate(0) translate(4 892)">
<title>UdpServer</title>
<!-- Node1 -->
<g id="Node000001" class="node">
<title>Node1</title>
<g id="a_Node000001"><a xlink:title=" ">
<polygon fill="#999999" stroke="transparent" points="243,-540 81,-540 81,0 243,0 243,-540"/>
<text text-anchor="start" x="136" y="-528" font-family="Helvetica,sans-Serif" font-size="10.00">UdpServer</text>
<text text-anchor="start" x="87.5" y="-513" font-family="Helvetica,sans-Serif" font-size="10.00">&#45;</text>
<text text-anchor="start" x="98" y="-513" font-family="Helvetica,sans-Serif" font-size="10.00">sf::UdpSocket m_socket</text>
<text text-anchor="start" x="87.5" y="-498" font-family="Helvetica,sans-Serif" font-size="10.00">&#45;</text>
<text text-anchor="start" x="98" y="-498" font-family="Helvetica,sans-Serif" font-size="10.00">unsigned short m_port</text>
<text text-anchor="start" x="87.5" y="-483" font-family="Helvetica,sans-Serif" font-size="10.00">&#45;</text>
<text text-anchor="start" x="98" y="-483" font-family="Helvetica,sans-Serif" font-size="10.00">std::vector&lt; std::unique</text>
<text text-anchor="start" x="98" y="-472" font-family="Helvetica,sans-Serif" font-size="10.00">_ptr&lt; ClientInfo &gt; &gt; m</text>
<text text-anchor="start" x="98" y="-461" font-family="Helvetica,sans-Serif" font-size="10.00">_clients</text>
<text text-anchor="start" x="87.5" y="-446" font-family="Helvetica,sans-Serif" font-size="10.00">&#45;</text>
<text text-anchor="start" x="98" y="-446" font-family="Helvetica,sans-Serif" font-size="10.00">std::mutex m_clientsMutex</text>
<text text-anchor="start" x="87.5" y="-431" font-family="Helvetica,sans-Serif" font-size="10.00">&#45;</text>
<text text-anchor="start" x="98" y="-431" font-family="Helvetica,sans-Serif" font-size="10.00">std::size_t m_clientCount</text>
<text text-anchor="start" x="87.5" y="-416" font-family="Helvetica,sans-Serif" font-size="10.00">&#45;</text>
<text text-anchor="start" x="98" y="-416" font-family="Helvetica,sans-Serif" font-size="10.00">std::atomic&lt; bool &gt;</text>
<text text-anchor="start" x="98" y="-405" font-family="Helvetica,sans-Serif" font-size="10.00"> m_running</text>
<text text-anchor="start" x="87.5" y="-390" font-family="Helvetica,sans-Serif" font-size="10.00">&#45;</text>
<text text-anchor="start" x="98" y="-390" font-family="Helvetica,sans-Serif" font-size="10.00">std::thread m_recvThread</text>
<text text-anchor="start" x="87.5" y="-375" font-family="Helvetica,sans-Serif" font-size="10.00">&#45;</text>
<text text-anchor="start" x="98" y="-375" font-family="Helvetica,sans-Serif" font-size="10.00">std::thread m_sendThread</text>
<text text-anchor="start" x="85" y="-360" font-family="Helvetica,sans-Serif" font-size="10.00">+</text>
<text text-anchor="start" x="98" y="-360" font-family="Helvetica,sans-Serif" font-size="10.00">UdpServer(unsigned</text>
<text text-anchor="start" x="98" y="-349" font-family="Helvetica,sans-Serif" font-size="10.00"> short port)</text>
<text text-anchor="start" x="85" y="-334" font-family="Helvetica,sans-Serif" font-size="10.00">+</text>
<text text-anchor="start" x="98" y="-334" font-family="Helvetica,sans-Serif" font-size="10.00">~UdpServer()</text>
<text text-anchor="start" x="85" y="-319" font-family="Helvetica,sans-Serif" font-size="10.00">+</text>
<text text-anchor="start" x="98" y="-319" font-family="Helvetica,sans-Serif" font-size="10.00">bool start()</text>
<text text-anchor="start" x="85" y="-304" font-family="Helvetica,sans-Serif" font-size="10.00">+</text>
<text text-anchor="start" x="98" y="-304" font-family="Helvetica,sans-Serif" font-size="10.00">void stop()</text>
<text text-anchor="start" x="85" y="-289" font-family="Helvetica,sans-Serif" font-size="10.00">+</text>
<text text-anchor="start" x="98" y="-289" font-family="Helvetica,sans-Serif" font-size="10.00">void join()</text>
<text text-anchor="start" x="85" y="-274" font-family="Helvetica,sans-Serif" font-size="10.00">+</text>
<text text-anchor="start" x="98" y="-274" font-family="Helvetica,sans-Serif" font-size="10.00">bool addClient(sf::</text>
<text text-anchor="start" x="98" y="-263" font-family="Helvetica,sans-Serif" font-size="10.00">IpAddress ip, unsigned</text>
<text text-anchor="start" x="98" y="-252" font-family="Helvetica,sans-Serif" font-size="10.00"> short port, int playerId=&#45;1)</text>
<text text-anchor="start" x="85" y="-237" font-family="Helvetica,sans-Serif" font-size="10.00">+</text>
<text text-anchor="start" x="98" y="-237" font-family="Helvetica,sans-Serif" font-size="10.00">void removeClient(int</text>
<text text-anchor="start" x="98" y="-226" font-family="Helvetica,sans-Serif" font-size="10.00"> playerId)</text>
<text text-anchor="start" x="85" y="-211" font-family="Helvetica,sans-Serif" font-size="10.00">+</text>
<text text-anchor="start" x="98" y="-211" font-family="Helvetica,sans-Serif" font-size="10.00">std::size_t getClientCount</text>
<text text-anchor="start" x="98" y="-200" font-family="Helvetica,sans-Serif" font-size="10.00">() const</text>
<text text-anchor="start" x="85" y="-185" font-family="Helvetica,sans-Serif" font-size="10.00">+</text>
<text text-anchor="start" x="98" y="-185" font-family="Helvetica,sans-Serif" font-size="10.00">const ClientInfo getClient</text>
<text text-anchor="start" x="98" y="-174" font-family="Helvetica,sans-Serif" font-size="10.00">(std::size_t id) const</text>
<text text-anchor="start" x="85" y="-159" font-family="Helvetica,sans-Serif" font-size="10.00">+</text>
<text text-anchor="start" x="98" y="-159" font-family="Helvetica,sans-Serif" font-size="10.00">std::vector&lt; ClientInfo</text>
<text text-anchor="start" x="98" y="-148" font-family="Helvetica,sans-Serif" font-size="10.00"> &gt; getClients() const</text>
<text text-anchor="start" x="85" y="-133" font-family="Helvetica,sans-Serif" font-size="10.00">+</text>
<text text-anchor="start" x="98" y="-133" font-family="Helvetica,sans-Serif" font-size="10.00">PacketToSend createPacket</text>
<text text-anchor="start" x="98" y="-122" font-family="Helvetica,sans-Serif" font-size="10.00">(std::size_t clientID,</text>
<text text-anchor="start" x="98" y="-111" font-family="Helvetica,sans-Serif" font-size="10.00"> std::vector&lt; uint8_t &gt; data)</text>
<text text-anchor="start" x="85" y="-96" font-family="Helvetica,sans-Serif" font-size="10.00">+</text>
<text text-anchor="start" x="98" y="-96" font-family="Helvetica,sans-Serif" font-size="10.00">std::queue&lt; PacketToSend</text>
<text text-anchor="start" x="98" y="-85" font-family="Helvetica,sans-Serif" font-size="10.00"> &gt; createEveryonePacket</text>
<text text-anchor="start" x="98" y="-74" font-family="Helvetica,sans-Serif" font-size="10.00">(std::vector&lt; uint8_t &gt; data)</text>
<text text-anchor="start" x="87.5" y="-59" font-family="Helvetica,sans-Serif" font-size="10.00">&#45;</text>
<text text-anchor="start" x="98" y="-59" font-family="Helvetica,sans-Serif" font-size="10.00">void receiveThread()</text>
<text text-anchor="start" x="87.5" y="-44" font-family="Helvetica,sans-Serif" font-size="10.00">&#45;</text>
<text text-anchor="start" x="98" y="-44" font-family="Helvetica,sans-Serif" font-size="10.00">void sendThread()</text>
<text text-anchor="start" x="87.5" y="-29" font-family="Helvetica,sans-Serif" font-size="10.00">&#45;</text>
<text text-anchor="start" x="98" y="-29" font-family="Helvetica,sans-Serif" font-size="10.00">ClientInfo * findClient</text>
<text text-anchor="start" x="98" y="-18" font-family="Helvetica,sans-Serif" font-size="10.00">(const sf::IpAddress &amp;ip,</text>
<text text-anchor="start" x="98" y="-7" font-family="Helvetica,sans-Serif" font-size="10.00"> unsigned short port)</text>
<polygon fill="#666666" stroke="#666666" points="81,-523 81,-523 243,-523 243,-523 81,-523"/>
<polygon fill="#666666" stroke="#666666" points="81,-370 81,-370 96,-370 96,-370 81,-370"/>
<polygon fill="#666666" stroke="#666666" points="96,-370 96,-370 243,-370 243,-370 96,-370"/>
<polygon fill="none" stroke="#666666" points="81,0 81,-540 243,-540 243,0 81,0"/>
</a>
</g>
</g>
<!-- Node2 -->
<g id="Node000002" class="node">
<title>Node2</title>
<g id="a_Node000002"><a xlink:href="classSafeQueue.html" target="_top" xlink:title=" ">
<polygon fill="white" stroke="transparent" points="154,-747 0,-747 0,-587 154,-587 154,-747"/>
<text text-anchor="start" x="24.5" y="-735" font-family="Helvetica,sans-Serif" font-size="10.00">SafeQueue&lt; std::pair</text>
<text text-anchor="start" x="25.5" y="-724" font-family="Helvetica,sans-Serif" font-size="10.00">&lt; int, InputState &gt; &gt;</text>
<text text-anchor="start" x="6.5" y="-709" font-family="Helvetica,sans-Serif" font-size="10.00">&#45;</text>
<text text-anchor="start" x="17" y="-709" font-family="Helvetica,sans-Serif" font-size="10.00">std::queue&lt; std::pair</text>
<text text-anchor="start" x="17" y="-698" font-family="Helvetica,sans-Serif" font-size="10.00">&lt; int, InputState &gt; &gt;</text>
<text text-anchor="start" x="17" y="-687" font-family="Helvetica,sans-Serif" font-size="10.00"> queue_</text>
<text text-anchor="start" x="6.5" y="-672" font-family="Helvetica,sans-Serif" font-size="10.00">&#45;</text>
<text text-anchor="start" x="17" y="-672" font-family="Helvetica,sans-Serif" font-size="10.00">std::mutex mutex_</text>
<text text-anchor="start" x="4" y="-657" font-family="Helvetica,sans-Serif" font-size="10.00">+</text>
<text text-anchor="start" x="17" y="-657" font-family="Helvetica,sans-Serif" font-size="10.00">SafeQueue()=default</text>
<text text-anchor="start" x="4" y="-642" font-family="Helvetica,sans-Serif" font-size="10.00">+</text>
<text text-anchor="start" x="17" y="-642" font-family="Helvetica,sans-Serif" font-size="10.00">void push(const std</text>
<text text-anchor="start" x="17" y="-631" font-family="Helvetica,sans-Serif" font-size="10.00">::pair&lt; int, InputState</text>
<text text-anchor="start" x="17" y="-620" font-family="Helvetica,sans-Serif" font-size="10.00"> &gt; &amp;value)</text>
<text text-anchor="start" x="4" y="-605" font-family="Helvetica,sans-Serif" font-size="10.00">+</text>
<text text-anchor="start" x="17" y="-605" font-family="Helvetica,sans-Serif" font-size="10.00">bool tryPop(std::pair</text>
<text text-anchor="start" x="17" y="-594" font-family="Helvetica,sans-Serif" font-size="10.00">&lt; int, InputState &gt; &amp;value)</text>
<polygon fill="#666666" stroke="#666666" points="0,-719 0,-719 154,-719 154,-719 0,-719"/>
<polygon fill="#666666" stroke="#666666" points="0,-667 0,-667 15,-667 15,-667 0,-667"/>
<polygon fill="#666666" stroke="#666666" points="15,-667 15,-667 154,-667 154,-667 15,-667"/>
<polygon fill="none" stroke="#666666" points="0,-587 0,-747 154,-747 154,-587 0,-587"/>
</a>
</g>
</g>
<!-- Node2&#45;&gt;Node1 -->
<g id="edge1_Node000001_Node000002" class="edge">
<title>Node2&#45;&gt;Node1</title>
<g id="a_edge1_Node000001_Node000002"><a xlink:title=" ">
<path fill="none" stroke="#63b8ff" d="M94.1,-586.54C96.43,-575.7 98.93,-564.11 101.53,-552.01"/>
<polygon fill="none" stroke="#63b8ff" points="101.54,-551.98 98.89,-545.28 104.06,-540.25 106.71,-546.96 101.54,-551.98"/>
</a>
</g>
<text text-anchor="middle" x="142" y="-561" font-family="Helvetica,sans-Serif" font-size="10.00" fill="grey"> +receivedInputs</text>
</g>
<!-- Node3 -->
<g id="Node000003" class="node">
<title>Node3</title>
<g id="a_Node000003"><a xlink:href="classSafeQueue.html" target="_top" xlink:title=" ">
<polygon fill="white" stroke="transparent" points="237.5,-888 88.5,-888 88.5,-794 237.5,-794 237.5,-888"/>
<text text-anchor="start" x="122.5" y="-876" font-family="Helvetica,sans-Serif" font-size="10.00">SafeQueue&lt; T &gt;</text>
<text text-anchor="start" x="95.5" y="-861" font-family="Helvetica,sans-Serif" font-size="10.00">&#45;</text>
<text text-anchor="start" x="106" y="-861" font-family="Helvetica,sans-Serif" font-size="10.00">std::queue&lt; T &gt; queue_</text>
<text text-anchor="start" x="95.5" y="-846" font-family="Helvetica,sans-Serif" font-size="10.00">&#45;</text>
<text text-anchor="start" x="106" y="-846" font-family="Helvetica,sans-Serif" font-size="10.00">std::mutex mutex_</text>
<text text-anchor="start" x="93" y="-831" font-family="Helvetica,sans-Serif" font-size="10.00">+</text>
<text text-anchor="start" x="106" y="-831" font-family="Helvetica,sans-Serif" font-size="10.00">SafeQueue()=default</text>
<text text-anchor="start" x="93" y="-816" font-family="Helvetica,sans-Serif" font-size="10.00">+</text>
<text text-anchor="start" x="106" y="-816" font-family="Helvetica,sans-Serif" font-size="10.00">void push(const T &amp;value)</text>
<text text-anchor="start" x="93" y="-801" font-family="Helvetica,sans-Serif" font-size="10.00">+</text>
<text text-anchor="start" x="106" y="-801" font-family="Helvetica,sans-Serif" font-size="10.00">bool tryPop(T &amp;value)</text>
<polygon fill="#666666" stroke="#666666" points="89,-871 89,-871 238,-871 238,-871 89,-871"/>
<polygon fill="#666666" stroke="#666666" points="89,-841 89,-841 104,-841 104,-841 89,-841"/>
<polygon fill="#666666" stroke="#666666" points="104,-841 104,-841 238,-841 238,-841 104,-841"/>
<polygon fill="none" stroke="#666666" points="88.5,-794 88.5,-888 237.5,-888 237.5,-794 88.5,-794"/>
</a>
</g>
</g>
<!-- Node3&#45;&gt;Node2 -->
<g id="edge2_Node000002_Node000003" class="edge">
<title>Node3&#45;&gt;Node2</title>
<g id="a_edge2_Node000002_Node000003"><a xlink:title=" ">
<path fill="none" stroke="orange" d="M81.87,-788.3C78.88,-784.42 76.22,-780.32 74,-776 69.42,-767.07 66.89,-757.16 65.75,-747.06"/>
<polygon fill="orange" stroke="orange" points="79.27,-790.64 88.44,-795.93 84.57,-786.07 79.27,-790.64"/>
</a>
</g>
<text text-anchor="middle" x="152.5" y="-768" font-family="Helvetica,sans-Serif" font-size="10.00" fill="grey"> &lt; std::pair&lt; int, InputState &gt; &gt;</text>
</g>
<!-- Node4 -->
<g id="Node000004" class="node">
<title>Node4</title>
<g id="a_Node000004"><a xlink:href="classSafeQueue.html" target="_top" xlink:title=" ">
<polygon fill="white" stroke="transparent" points="326,-730.5 174,-730.5 174,-603.5 326,-603.5 326,-730.5"/>
<text text-anchor="start" x="179" y="-718" font-family="Helvetica,sans-Serif" font-size="10.00">SafeQueue&lt; PacketToSend &gt;</text>
<text text-anchor="start" x="181" y="-703" font-family="Helvetica,sans-Serif" font-size="10.00">&#45;</text>
<text text-anchor="start" x="192" y="-703" font-family="Helvetica,sans-Serif" font-size="10.00">std::queue&lt; PacketToSend</text>
<text text-anchor="start" x="192" y="-692" font-family="Helvetica,sans-Serif" font-size="10.00"> &gt; queue_</text>
<text text-anchor="start" x="181" y="-677" font-family="Helvetica,sans-Serif" font-size="10.00">&#45;</text>
<text text-anchor="start" x="192" y="-677" font-family="Helvetica,sans-Serif" font-size="10.00">std::mutex mutex_</text>
<text text-anchor="start" x="178.5" y="-662" font-family="Helvetica,sans-Serif" font-size="10.00">+</text>
<text text-anchor="start" x="192" y="-662" font-family="Helvetica,sans-Serif" font-size="10.00">SafeQueue()=default</text>
<text text-anchor="start" x="178.5" y="-647" font-family="Helvetica,sans-Serif" font-size="10.00">+</text>
<text text-anchor="start" x="192" y="-647" font-family="Helvetica,sans-Serif" font-size="10.00">void push(const PacketTo</text>
<text text-anchor="start" x="192" y="-636" font-family="Helvetica,sans-Serif" font-size="10.00">Send &amp;value)</text>
<text text-anchor="start" x="178.5" y="-621" font-family="Helvetica,sans-Serif" font-size="10.00">+</text>
<text text-anchor="start" x="192" y="-621" font-family="Helvetica,sans-Serif" font-size="10.00">bool tryPop(PacketToSend</text>
<text text-anchor="start" x="192" y="-610" font-family="Helvetica,sans-Serif" font-size="10.00"> &amp;value)</text>
<polygon fill="#666666" stroke="#666666" points="174,-713 174,-713 326,-713 326,-713 174,-713"/>
<polygon fill="#666666" stroke="#666666" points="174,-672 174,-672 190,-672 190,-672 174,-672"/>
<polygon fill="#666666" stroke="#666666" points="190,-672 190,-672 326,-672 326,-672 190,-672"/>
<polygon fill="none" stroke="#666666" points="174,-603.5 174,-730.5 326,-730.5 326,-603.5 174,-603.5"/>
</a>
</g>
</g>
<!-- Node3&#45;&gt;Node4 -->
<g id="edge4_Node000004_Node000003" class="edge">
<title>Node3&#45;&gt;Node4</title>
<g id="a_edge4_Node000004_Node000003"><a xlink:title=" ">
<path fill="none" stroke="orange" d="M224.94,-785.76C227.16,-782.59 229.2,-779.33 231,-776 238.46,-762.18 243.08,-746.05 245.93,-730.53"/>
<polygon fill="orange" stroke="orange" points="221.99,-783.87 218.69,-793.94 227.55,-788.12 221.99,-783.87"/>
</a>
</g>
<text text-anchor="middle" x="282" y="-768" font-family="Helvetica,sans-Serif" font-size="10.00" fill="grey"> &lt; PacketToSend &gt;</text>
</g>
<!-- Node4&#45;&gt;Node1 -->
<g id="edge3_Node000001_Node000004" class="edge">
<title>Node4&#45;&gt;Node1</title>
<g id="a_edge3_Node000001_Node000004"><a xlink:title=" ">
<path fill="none" stroke="#63b8ff" d="M236.06,-603.41C232.64,-588.1 228.77,-570.71 224.63,-552.11"/>
<polygon fill="none" stroke="#63b8ff" points="224.62,-552.1 219.42,-547.11 222.02,-540.39 227.22,-545.37 224.62,-552.1"/>
</a>
</g>
<text text-anchor="middle" x="268" y="-561" font-family="Helvetica,sans-Serif" font-size="10.00" fill="grey"> +packetsToSend</text>
</g>
</g>
</svg>
