<?xml version="1.0" encoding="UTF-8" standalone="no"?>
<!DOCTYPE svg PUBLIC "-//W3C//DTD SVG 1.1//EN"
 "http://www.w3.org/Graphics/SVG/1.1/DTD/svg11.dtd">
<!-- Generated by graphviz version 2.43.0 (0)
 -->
<!-- Title: GameLoop Pages: 1 -->
<svg width="128pt" height="173pt"
 viewBox="0.00 0.00 128.00 173.00" xmlns="http://www.w3.org/2000/svg" xmlns:xlink="http://www.w3.org/1999/xlink">
<g id="graph0" class="graph" transform="scale(1 1) rotate(0) translate(4 169)">
<title>GameLoop</title>
<!-- Node1 -->
<g id="Node000001" class="node">
<title>Node1</title>
<g id="a_Node000001"><a xlink:title=" ">
<polygon fill="#999999" stroke="transparent" points="120,-165 0,-165 0,0 120,0 120,-165"/>
<text text-anchor="start" x="33.5" y="-152.5" font-family="Helvetica,sans-Serif" font-size="10.00">GameLoop</text>
<text text-anchor="start" x="6.5" y="-137.5" font-family="Helvetica,sans-Serif" font-size="10.00">&#45;</text>
<text text-anchor="start" x="17" y="-137.5" font-family="Helvetica,sans-Serif" font-size="10.00">sf::Clock _clock</text>
<text text-anchor="start" x="6.5" y="-122.5" font-family="Helvetica,sans-Serif" font-size="10.00">&#45;</text>
<text text-anchor="start" x="17" y="-122.5" font-family="Helvetica,sans-Serif" font-size="10.00">std::thread _thread</text>
<text text-anchor="start" x="6.5" y="-107.5" font-family="Helvetica,sans-Serif" font-size="10.00">&#45;</text>
<text text-anchor="start" x="17" y="-107.5" font-family="Helvetica,sans-Serif" font-size="10.00">std::atomic&lt; bool &gt;</text>
<text text-anchor="start" x="17" y="-96.5" font-family="Helvetica,sans-Serif" font-size="10.00"> _running</text>
<text text-anchor="start" x="4" y="-81.5" font-family="Helvetica,sans-Serif" font-size="10.00">+</text>
<text text-anchor="start" x="17" y="-81.5" font-family="Helvetica,sans-Serif" font-size="10.00">GameLoop()</text>
<text text-anchor="start" x="4" y="-66.5" font-family="Helvetica,sans-Serif" font-size="10.00">+</text>
<text text-anchor="start" x="17" y="-66.5" font-family="Helvetica,sans-Serif" font-size="10.00">~GameLoop()</text>
<text text-anchor="start" x="4" y="-51.5" font-family="Helvetica,sans-Serif" font-size="10.00">+</text>
<text text-anchor="start" x="17" y="-51.5" font-family="Helvetica,sans-Serif" font-size="10.00">void start()</text>
<text text-anchor="start" x="4" y="-36.5" font-family="Helvetica,sans-Serif" font-size="10.00">+</text>
<text text-anchor="start" x="17" y="-36.5" font-family="Helvetica,sans-Serif" font-size="10.00">void stop()</text>
<text text-anchor="start" x="4" y="-21.5" font-family="Helvetica,sans-Serif" font-size="10.00">+</text>
<text text-anchor="start" x="17" y="-21.5" font-family="Helvetica,sans-Serif" font-size="10.00">void join()</text>
<text text-anchor="start" x="6.5" y="-6.5" font-family="Helvetica,sans-Serif" font-size="10.00">&#45;</text>
<text text-anchor="start" x="17" y="-6.5" font-family="Helvetica,sans-Serif" font-size="10.00">void gameLoop()</text>
<polygon fill="#666666" stroke="#666666" points="0,-147.5 0,-147.5 120,-147.5 120,-147.5 0,-147.5"/>
<polygon fill="#666666" stroke="#666666" points="0,-91.5 0,-91.5 15,-91.5 15,-91.5 0,-91.5"/>
<polygon fill="#666666" stroke="#666666" points="15,-91.5 15,-91.5 120,-91.5 120,-91.5 15,-91.5"/>
<polygon fill="none" stroke="#666666" points="0,0 0,-165 120,-165 120,0 0,0"/>
</a>
</g>
</g>
</g>
</svg>
