<?xml version="1.0" encoding="UTF-8" standalone="no"?>
<!DOCTYPE svg PUBLIC "-//W3C//DTD SVG 1.1//EN"
 "http://www.w3.org/Graphics/SVG/1.1/DTD/svg11.dtd">
<!-- Generated by graphviz version 2.43.0 (0)
 -->
<!-- Title: ECS::hasComponent Pages: 1 -->
<svg width="396pt" height="82pt"
 viewBox="0.00 0.00 396.00 82.00" xmlns="http://www.w3.org/2000/svg" xmlns:xlink="http://www.w3.org/1999/xlink">
<g id="graph0" class="graph" transform="scale(1 1) rotate(0) translate(4 78)">
<title>ECS::hasComponent</title>
<!-- Node1 -->
<g id="Node000001" class="node">
<title>Node1</title>
<g id="a_Node000001"><a xlink:title="Checks if an entity has a specific component.">
<polygon fill="#999999" stroke="#666666" points="388,-37 273,-37 273,-18 388,-18 388,-37"/>
<text text-anchor="middle" x="330.5" y="-25" font-family="Helvetica,sans-Serif" font-size="10.00">ECS::hasComponent</text>
</a>
</g>
</g>
<!-- Node2 -->
<g id="Node000002" class="node">
<title>Node2</title>
<g id="a_Node000002"><a xlink:href="classClient.html#a6e7a5e19c40bef39ae1c0f5996b8c471" target="_top" xlink:title=" ">
<polygon fill="white" stroke="#666666" points="235.5,-56 150.5,-56 150.5,-37 235.5,-37 235.5,-56"/>
<text text-anchor="middle" x="193" y="-44" font-family="Helvetica,sans-Serif" font-size="10.00">Client::update</text>
</a>
</g>
</g>
<!-- Node1&#45;&gt;Node2 -->
<g id="edge1_Node000001_Node000002" class="edge">
<title>Node1&#45;&gt;Node2</title>
<g id="a_edge1_Node000001_Node000002"><a xlink:title=" ">
<path fill="none" stroke="#63b8ff" d="M262.81,-36.85C253.53,-38.15 244.24,-39.46 235.61,-40.67"/>
<polygon fill="#63b8ff" stroke="#63b8ff" points="263.4,-40.3 272.82,-35.45 262.43,-33.37 263.4,-40.3"/>
</a>
</g>
</g>
<!-- Node4 -->
<g id="Node000004" class="node">
<title>Node4</title>
<g id="a_Node000004"><a xlink:href="classServer.html#af7b0a4370ac2c1e573f292870adfa81c" target="_top" xlink:title=" ">
<polygon fill="white" stroke="#666666" points="237,-19 149,-19 149,0 237,0 237,-19"/>
<text text-anchor="middle" x="193" y="-7" font-family="Helvetica,sans-Serif" font-size="10.00">Server::update</text>
</a>
</g>
</g>
<!-- Node1&#45;&gt;Node4 -->
<g id="edge5_Node000001_Node000004" class="edge">
<title>Node1&#45;&gt;Node4</title>
<g id="a_edge5_Node000001_Node000004"><a xlink:title=" ">
<path fill="none" stroke="#63b8ff" d="M262.71,-18.63C254.06,-17.48 245.39,-16.33 237.26,-15.25"/>
<polygon fill="#63b8ff" stroke="#63b8ff" points="262.45,-22.12 272.82,-19.97 263.37,-15.18 262.45,-22.12"/>
</a>
</g>
</g>
<!-- Node2&#45;&gt;Node2 -->
<g id="edge4_Node000002_Node000002" class="edge">
<title>Node2&#45;&gt;Node2</title>
<g id="a_edge4_Node000002_Node000002"><a xlink:title=" ">
<path fill="none" stroke="#63b8ff" d="M218.3,-65.19C216.92,-70.2 208.49,-74 193,-74 168.83,-74 161.84,-64.73 172.04,-56.08"/>
<polygon fill="#63b8ff" stroke="#63b8ff" points="221.42,-63.61 213.96,-56.08 215.1,-66.62 221.42,-63.61"/>
</a>
</g>
</g>
<!-- Node3 -->
<g id="Node000003" class="node">
<title>Node3</title>
<g id="a_Node000003"><a xlink:href="classClient.html#ad361032d607e05a51b215e1300029bbc" target="_top" xlink:title=" ">
<polygon fill="white" stroke="#666666" points="113,-56 0,-56 0,-37 113,-37 113,-56"/>
<text text-anchor="middle" x="56.5" y="-44" font-family="Helvetica,sans-Serif" font-size="10.00">Client::applyUpdate</text>
</a>
</g>
</g>
<!-- Node2&#45;&gt;Node3 -->
<g id="edge2_Node000002_Node000003" class="edge">
<title>Node2&#45;&gt;Node3</title>
<g id="a_edge2_Node000002_Node000003"><a xlink:title=" ">
<path fill="none" stroke="#63b8ff" d="M140.04,-39.91C131.23,-39.72 122.04,-39.7 113.14,-39.84"/>
<polygon fill="#63b8ff" stroke="#63b8ff" points="140.08,-43.41 150.18,-40.2 140.29,-36.41 140.08,-43.41"/>
</a>
</g>
</g>
<!-- Node3&#45;&gt;Node2 -->
<g id="edge3_Node000003_Node000002" class="edge">
<title>Node3&#45;&gt;Node2</title>
<g id="a_edge3_Node000003_Node000002"><a xlink:title=" ">
<path fill="none" stroke="#63b8ff" d="M123.39,-53.25C132.51,-53.27 141.66,-53.12 150.18,-52.8"/>
<polygon fill="#63b8ff" stroke="#63b8ff" points="123.17,-49.75 113.14,-53.16 123.11,-56.75 123.17,-49.75"/>
</a>
</g>
</g>
</g>
</svg>
