<?xml version="1.0" encoding="UTF-8" standalone="no"?>
<!DOCTYPE svg PUBLIC "-//W3C//DTD SVG 1.1//EN"
 "http://www.w3.org/Graphics/SVG/1.1/DTD/svg11.dtd">
<!-- Generated by graphviz version 2.43.0 (0)
 -->
<!-- Title: Server::broadcast Pages: 1 -->
<svg width="652pt" height="240pt"
 viewBox="0.00 0.00 652.00 240.43" xmlns="http://www.w3.org/2000/svg" xmlns:xlink="http://www.w3.org/1999/xlink">
<g id="graph0" class="graph" transform="scale(1 1) rotate(0) translate(4 236.43)">
<title>Server::broadcast</title>
<!-- Node1 -->
<g id="Node000001" class="node">
<title>Node1</title>
<g id="a_Node000001"><a xlink:title=" ">
<polygon fill="#999999" stroke="#666666" points="102,-121.43 0,-121.43 0,-102.43 102,-102.43 102,-121.43"/>
<text text-anchor="middle" x="51" y="-109.43" font-family="Helvetica,sans-Serif" font-size="10.00">Server::broadcast</text>
</a>
</g>
</g>
<!-- Node2 -->
<g id="Node000002" class="node">
<title>Node2</title>
<g id="a_Node000002"><a xlink:href="classUdpServer.html#a52f6bd3ca7b3f20cddee608ee96f68bb" target="_top" xlink:title=" ">
<polygon fill="white" stroke="#666666" points="283.5,-232.43 160.5,-232.43 160.5,-213.43 283.5,-213.43 283.5,-232.43"/>
<text text-anchor="middle" x="222" y="-220.43" font-family="Helvetica,sans-Serif" font-size="10.00">UdpServer::getClients</text>
</a>
</g>
</g>
<!-- Node1&#45;&gt;Node2 -->
<g id="edge1_Node000001_Node000002" class="edge">
<title>Node1&#45;&gt;Node2</title>
<g id="a_edge1_Node000001_Node000002"><a xlink:title=" ">
<path fill="none" stroke="#63b8ff" d="M57.98,-121.63C70.36,-140.83 100.76,-183.66 138,-204.93 142,-207.22 146.25,-209.21 150.65,-210.95"/>
<polygon fill="#63b8ff" stroke="#63b8ff" points="149.84,-214.38 160.43,-214.37 152.15,-207.77 149.84,-214.38"/>
</a>
</g>
</g>
<!-- Node3 -->
<g id="Node000003" class="node">
<title>Node3</title>
<g id="a_Node000003"><a xlink:href="engine_2ecs_2ecs_8hpp.html#a5a868f82168f3b251aa7ca758686125c" target="_top" xlink:title="Retrieves the unique ID for a given component type.">
<polygon fill="white" stroke="#666666" points="457.5,-84.43 358.5,-84.43 358.5,-65.43 457.5,-65.43 457.5,-84.43"/>
<text text-anchor="middle" x="408" y="-72.43" font-family="Helvetica,sans-Serif" font-size="10.00">getComponentID</text>
</a>
</g>
</g>
<!-- Node1&#45;&gt;Node3 -->
<g id="edge2_Node000001_Node000003" class="edge">
<title>Node1&#45;&gt;Node3</title>
<g id="a_edge2_Node000001_Node000003"><a xlink:title=" ">
<path fill="none" stroke="#63b8ff" d="M57.27,-102.16C68.78,-82.01 98.31,-36.29 138,-18.93 206.41,10.98 233.71,-0.23 306,-18.93 336.13,-26.73 366.86,-45.66 386.38,-59.35"/>
<polygon fill="#63b8ff" stroke="#63b8ff" points="384.36,-62.21 394.51,-65.22 388.45,-56.53 384.36,-62.21"/>
</a>
</g>
</g>
<!-- Node5 -->
<g id="Node000005" class="node">
<title>Node5</title>
<g id="a_Node000005"><a xlink:href="classECS.html#a358206e15202fccfa73017c47af07079" target="_top" xlink:title="Retrieves a read&#45;only pointer to a component.">
<polygon fill="white" stroke="#666666" points="292.5,-195.43 151.5,-195.43 151.5,-176.43 292.5,-176.43 292.5,-195.43"/>
<text text-anchor="middle" x="222" y="-183.43" font-family="Helvetica,sans-Serif" font-size="10.00">ECS::getConstComponent</text>
</a>
</g>
</g>
<!-- Node1&#45;&gt;Node5 -->
<g id="edge4_Node000001_Node000005" class="edge">
<title>Node1&#45;&gt;Node5</title>
<g id="a_edge4_Node000001_Node000005"><a xlink:title=" ">
<path fill="none" stroke="#63b8ff" d="M63.74,-121.6C79.6,-134.16 109.23,-155.92 138,-167.93 143.1,-170.06 148.49,-171.95 153.97,-173.63"/>
<polygon fill="#63b8ff" stroke="#63b8ff" points="153.32,-177.08 163.9,-176.43 155.22,-170.35 153.32,-177.08"/>
</a>
</g>
</g>
<!-- Node9 -->
<g id="Node000009" class="node">
<title>Node9</title>
<g id="a_Node000009"><a xlink:href="classTimer.html#a8748fdae906f806c6071d2a985cdb359" target="_top" xlink:title=" ">
<polygon fill="white" stroke="#666666" points="289,-121.43 155,-121.43 155,-102.43 289,-102.43 289,-121.43"/>
<text text-anchor="middle" x="222" y="-109.43" font-family="Helvetica,sans-Serif" font-size="10.00">Timer::getCurrentFrame</text>
</a>
</g>
</g>
<!-- Node1&#45;&gt;Node9 -->
<g id="edge10_Node000001_Node000009" class="edge">
<title>Node1&#45;&gt;Node9</title>
<g id="a_edge10_Node000001_Node000009"><a xlink:title=" ">
<path fill="none" stroke="#63b8ff" d="M102.25,-111.93C115.56,-111.93 130.23,-111.93 144.59,-111.93"/>
<polygon fill="#63b8ff" stroke="#63b8ff" points="144.97,-115.43 154.97,-111.93 144.97,-108.43 144.97,-115.43"/>
</a>
</g>
</g>
<!-- Node10 -->
<g id="Node000010" class="node">
<title>Node10</title>
<g id="a_Node000010"><a xlink:href="classECS.html#a8d931ce389d47888768e1a5092bde26b" target="_top" xlink:title="Retrieves entities that have all specified components.">
<polygon fill="white" stroke="#666666" points="306,-158.43 138,-158.43 138,-139.43 306,-139.43 306,-158.43"/>
<text text-anchor="middle" x="222" y="-146.43" font-family="Helvetica,sans-Serif" font-size="10.00">ECS::getEntitiesByComponents</text>
</a>
</g>
</g>
<!-- Node1&#45;&gt;Node10 -->
<g id="edge11_Node000001_Node000010" class="edge">
<title>Node1&#45;&gt;Node10</title>
<g id="a_edge11_Node000001_Node000010"><a xlink:title=" ">
<path fill="none" stroke="#63b8ff" d="M94.86,-121.44C108.63,-124.48 123.96,-127.86 138,-130.93 147.3,-132.97 157.19,-135.12 166.78,-137.2"/>
<polygon fill="#63b8ff" stroke="#63b8ff" points="166.11,-140.64 176.63,-139.34 167.6,-133.8 166.11,-140.64"/>
</a>
</g>
</g>
<!-- Node11 -->
<g id="Node000011" class="node">
<title>Node11</title>
<g id="a_Node000011"><a xlink:href="classECS.html#a77bab58f7b7d5e53443078f60957b2d2" target="_top" xlink:title="Destroys an entity.">
<polygon fill="white" stroke="#666666" points="264.5,-47.43 179.5,-47.43 179.5,-28.43 264.5,-28.43 264.5,-47.43"/>
<text text-anchor="middle" x="222" y="-35.43" font-family="Helvetica,sans-Serif" font-size="10.00">ECS::killEntity</text>
</a>
</g>
</g>
<!-- Node1&#45;&gt;Node11 -->
<g id="edge13_Node000001_Node000011" class="edge">
<title>Node1&#45;&gt;Node11</title>
<g id="a_edge13_Node000001_Node000011"><a xlink:title=" ">
<path fill="none" stroke="#63b8ff" d="M63.74,-102.27C79.6,-89.7 109.23,-67.94 138,-55.93 147.8,-51.84 158.65,-48.63 169.18,-46.13"/>
<polygon fill="#63b8ff" stroke="#63b8ff" points="170.13,-49.5 179.15,-43.93 168.63,-42.66 170.13,-49.5"/>
</a>
</g>
</g>
<!-- Node12 -->
<g id="Node000012" class="node">
<title>Node12</title>
<g id="a_Node000012"><a xlink:href="classSafeQueue.html#ae51181f65378234bf3a0f66a86d4b33a" target="_top" xlink:title=" ">
<polygon fill="white" stroke="#666666" points="271.5,-84.43 172.5,-84.43 172.5,-65.43 271.5,-65.43 271.5,-84.43"/>
<text text-anchor="middle" x="222" y="-72.43" font-family="Helvetica,sans-Serif" font-size="10.00">SafeQueue::push</text>
</a>
</g>
</g>
<!-- Node1&#45;&gt;Node12 -->
<g id="edge14_Node000001_Node000012" class="edge">
<title>Node1&#45;&gt;Node12</title>
<g id="a_edge14_Node000001_Node000012"><a xlink:title=" ">
<path fill="none" stroke="#63b8ff" d="M94.86,-102.43C108.63,-99.38 123.96,-96.01 138,-92.93 147.3,-90.9 157.19,-88.74 166.78,-86.66"/>
<polygon fill="#63b8ff" stroke="#63b8ff" points="167.6,-90.06 176.63,-84.52 166.11,-83.22 167.6,-90.06"/>
</a>
</g>
</g>
<!-- Node4 -->
<g id="Node000004" class="node">
<title>Node4</title>
<g id="a_Node000004"><a xlink:href="engine_2ecs_2ecs_8hpp.html#afdb02fc115de82c93e814ac1d3a64c06" target="_top" xlink:title="Generates a new unique ComponentTypeID.">
<polygon fill="white" stroke="#666666" points="640,-121.43 514,-121.43 514,-102.43 640,-102.43 640,-121.43"/>
<text text-anchor="middle" x="577" y="-109.43" font-family="Helvetica,sans-Serif" font-size="10.00">newComponentTypeID</text>
</a>
</g>
</g>
<!-- Node3&#45;&gt;Node4 -->
<g id="edge3_Node000003_Node000004" class="edge">
<title>Node3&#45;&gt;Node4</title>
<g id="a_edge3_Node000003_Node000004"><a xlink:title=" ">
<path fill="none" stroke="#63b8ff" d="M452.01,-84.46C473.64,-89.25 500.06,-95.11 522.95,-100.18"/>
<polygon fill="#63b8ff" stroke="#63b8ff" points="522.33,-103.63 532.85,-102.37 523.84,-96.79 522.33,-103.63"/>
</a>
</g>
</g>
<!-- Node6 -->
<g id="Node000006" class="node">
<title>Node6</title>
<g id="a_Node000006"><a xlink:href="classStorageComponent.html#a4e0239d1d216347282d49c0bcdf0079d" target="_top" xlink:title="Retrieves a read&#45;only pointer to the component for the entity.">
<polygon fill="white" stroke="#666666" points="474,-204.43 342,-204.43 342,-185.43 474,-185.43 474,-204.43"/>
<text text-anchor="middle" x="408" y="-192.43" font-family="Helvetica,sans-Serif" font-size="10.00">StorageComponent::get</text>
</a>
</g>
</g>
<!-- Node5&#45;&gt;Node6 -->
<g id="edge5_Node000005_Node000006" class="edge">
<title>Node5&#45;&gt;Node6</title>
<g id="a_edge5_Node000005_Node000006"><a xlink:title=" ">
<path fill="none" stroke="#63b8ff" d="M292.56,-189.33C305.33,-189.96 318.71,-190.61 331.64,-191.25"/>
<polygon fill="#63b8ff" stroke="#63b8ff" points="331.73,-194.75 341.89,-191.75 332.07,-187.76 331.73,-194.75"/>
</a>
</g>
</g>
<!-- Node8 -->
<g id="Node000008" class="node">
<title>Node8</title>
<g id="a_Node000008"><a xlink:href="server_2ecs_8hpp.html#a5a868f82168f3b251aa7ca758686125c" target="_top" xlink:title=" ">
<polygon fill="white" stroke="#666666" points="457.5,-149.43 358.5,-149.43 358.5,-130.43 457.5,-130.43 457.5,-149.43"/>
<text text-anchor="middle" x="408" y="-137.43" font-family="Helvetica,sans-Serif" font-size="10.00">getComponentID</text>
</a>
</g>
</g>
<!-- Node5&#45;&gt;Node8 -->
<g id="edge7_Node000005_Node000008" class="edge">
<title>Node5&#45;&gt;Node8</title>
<g id="a_edge7_Node000005_Node000008"><a xlink:title=" ">
<path fill="none" stroke="#63b8ff" d="M269.21,-176.4C281.22,-173.79 294.12,-170.86 306,-167.93 325.38,-163.15 346.69,-157.32 364.73,-152.23"/>
<polygon fill="#63b8ff" stroke="#63b8ff" points="365.71,-155.59 374.37,-149.48 363.8,-148.85 365.71,-155.59"/>
</a>
</g>
</g>
<!-- Node7 -->
<g id="Node000007" class="node">
<title>Node7</title>
<g id="a_Node000007"><a xlink:href="classStorageComponent.html#a6de145a1ea5570363f566ab9fce66578" target="_top" xlink:title="Checks if the entity has this component type.">
<polygon fill="white" stroke="#666666" points="644,-204.43 510,-204.43 510,-185.43 644,-185.43 644,-204.43"/>
<text text-anchor="middle" x="577" y="-192.43" font-family="Helvetica,sans-Serif" font-size="10.00">StorageComponent::has</text>
</a>
</g>
</g>
<!-- Node6&#45;&gt;Node7 -->
<g id="edge6_Node000006_Node000007" class="edge">
<title>Node6&#45;&gt;Node7</title>
<g id="a_edge6_Node000006_Node000007"><a xlink:title=" ">
<path fill="none" stroke="#63b8ff" d="M474.04,-194.93C482.47,-194.93 491.16,-194.93 499.75,-194.93"/>
<polygon fill="#63b8ff" stroke="#63b8ff" points="499.76,-198.43 509.76,-194.93 499.76,-191.43 499.76,-198.43"/>
</a>
</g>
</g>
<!-- Node8&#45;&gt;Node4 -->
<g id="edge9_Node000008_Node000004" class="edge">
<title>Node8&#45;&gt;Node4</title>
<g id="a_edge9_Node000008_Node000004"><a xlink:title=" ">
<path fill="none" stroke="#63b8ff" d="M457.75,-131.76C473.85,-129.06 492.04,-126.01 509.24,-123.12"/>
<polygon fill="#63b8ff" stroke="#63b8ff" points="509.95,-126.55 519.24,-121.45 508.79,-119.65 509.95,-126.55"/>
</a>
</g>
</g>
<!-- Node8&#45;&gt;Node8 -->
<g id="edge8_Node000008_Node000008" class="edge">
<title>Node8&#45;&gt;Node8</title>
<g id="a_edge8_Node000008_Node000008"><a xlink:title=" ">
<path fill="none" stroke="#63b8ff" d="M382.11,-149.51C369.51,-158.17 378.14,-167.43 408,-167.43 428.06,-167.43 438.54,-163.25 439.44,-157.88"/>
<polygon fill="#63b8ff" stroke="#63b8ff" points="442.34,-155.92 433.89,-149.51 436.5,-159.78 442.34,-155.92"/>
</a>
</g>
</g>
<!-- Node10&#45;&gt;Node8 -->
<g id="edge12_Node000010_Node000008" class="edge">
<title>Node10&#45;&gt;Node8</title>
<g id="a_edge12_Node000010_Node000008"><a xlink:title=" ">
<path fill="none" stroke="#63b8ff" d="M306.12,-144.87C320.39,-144.17 334.94,-143.46 348.39,-142.8"/>
<polygon fill="#63b8ff" stroke="#63b8ff" points="348.63,-146.29 358.44,-142.31 348.28,-139.3 348.63,-146.29"/>
</a>
</g>
</g>
<!-- Node12&#45;&gt;Node3 -->
<g id="edge15_Node000012_Node000003" class="edge">
<title>Node12&#45;&gt;Node3</title>
<g id="a_edge15_Node000012_Node000003"><a xlink:title=" ">
<path fill="none" stroke="#63b8ff" d="M271.83,-74.93C295.21,-74.93 323.4,-74.93 347.98,-74.93"/>
<polygon fill="#63b8ff" stroke="#63b8ff" points="348.27,-78.43 358.27,-74.93 348.27,-71.43 348.27,-78.43"/>
</a>
</g>
</g>
</g>
</svg>
