<?xml version="1.0" encoding="UTF-8" standalone="no"?>
<!DOCTYPE svg PUBLIC "-//W3C//DTD SVG 1.1//EN"
 "http://www.w3.org/Graphics/SVG/1.1/DTD/svg11.dtd">
<!-- Generated by graphviz version 2.43.0 (0)
 -->
<!-- Title: Client::applyUpdate Pages: 1 -->
<!--zoomable 251 -->

<svg id="main" version="1.1" xmlns="http://www.w3.org/2000/svg" xmlns:xlink="http://www.w3.org/1999/xlink" xml:space="preserve" onload="init(evt)">
<style type="text/css"><![CDATA[
.node, .edge {opacity: 0.7;}
.node.selected, .edge.selected {opacity: 1;}
.edge:hover path { stroke: red; }
.edge:hover polygon { stroke: red; fill: red; }
]]></style>

<defs>
  <circle id="rim" cx="0" cy="0" r="7"/>
  <circle id="rim2" cx="0" cy="0" r="3.5"/>
  <g id="zoomPlus">
    <use xlink:href="#rim" fill="#404040"><set attributeName="fill" to="#808080" begin="zoomplus.mouseover" end="zoomplus.mouseout"/></use>
    <path d="M-4,0h8M0,-4v8" fill="none" stroke="white" stroke-width="1.5" pointer-events="none"/>
  </g>
  <g id="zoomMin">
    <use xlink:href="#rim" fill="#404040"><set attributeName="fill" to="#808080" begin="zoomminus.mouseover" end="zoomminus.mouseout"/></use>
    <path d="M-4,0h8" fill="none" stroke="white" stroke-width="1.5" pointer-events="none"/>
  </g>
  <g id="arrowUp" transform="translate(30 24)">
    <use xlink:href="#rim"/>
    <path pointer-events="none" fill="none" stroke="white" stroke-width="1.5" d="M0,-3.0v7 M-2.5,-0.5L0,-3.0L2.5,-0.5"/>
  </g>
  <g id="arrowRight" transform="rotate(90) translate(36 -43)">
    <use xlink:href="#rim"/>
    <path pointer-events="none" fill="none" stroke="white" stroke-width="1.5" d="M0,-3.0v7 M-2.5,-0.5L0,-3.0L2.5,-0.5"/>
  </g>
  <g id="arrowDown" transform="rotate(180) translate(-30 -48)">
    <use xlink:href="#rim"/>
    <path pointer-events="none" fill="none" stroke="white" stroke-width="1.5" d="M0,-3.0v7 M-2.5,-0.5L0,-3.0L2.5,-0.5"/>
  </g>
  <g id="arrowLeft" transform="rotate(270) translate(-36 17)">
    <use xlink:href="#rim"/>
    <path pointer-events="none" fill="none" stroke="white" stroke-width="1.5" d="M0,-3.0v7 M-2.5,-0.5L0,-3.0L2.5,-0.5"/>
  </g>
  <g id="resetDef">
    <use xlink:href="#rim2" fill="#404040"><set attributeName="fill" to="#808080" begin="reset.mouseover" end="reset.mouseout"/></use>
  </g>
</defs>
<script type="application/ecmascript">
var viewWidth = 820;
var viewHeight = 251;
var sectionId = 'dynsection-2';
</script>
<script type="application/ecmascript" xlink:href="svg.min.js"/>
<svg id="graph" class="graph">
<g id="viewport">
<title>Client::applyUpdate</title>
<!-- Node1 -->
<g id="Node000001" class="node">
<title>Node1</title>
<g id="a_Node000001"><a xlink:title=" ">
<polygon fill="#999999" stroke="#666666" points="113,-130 0,-130 0,-111 113,-111 113,-130"/>
<text text-anchor="middle" x="56.5" y="-118" font-family="Helvetica,sans-Serif" font-size="10.00">Client::applyUpdate</text>
</a>
</g>
</g>
<!-- Node2 -->
<g id="Node000002" class="node">
<title>Node2</title>
<g id="a_Node000002"><a xlink:href="classECS.html#a729237fc4138af4f48df163dec088efb" target="_top" xlink:title=" ">
<polygon fill="white" stroke="#666666" points="270,-195 149,-195 149,-176 270,-176 270,-195"/>
<text text-anchor="middle" x="209.5" y="-183" font-family="Helvetica,sans-Serif" font-size="10.00">ECS::addComponents</text>
</a>
</g>
</g>
<!-- Node1&#45;&gt;Node2 -->
<g id="edge1_Node000001_Node000002" class="edge">
<title>Node1&#45;&gt;Node2</title>
<g id="a_edge1_Node000001_Node000002"><a xlink:title=" ">
<path fill="none" stroke="#63b8ff" d="M79.78,-130.09C105.43,-141.13 147.75,-159.35 176.82,-171.86"/>
<polygon fill="#63b8ff" stroke="#63b8ff" points="175.56,-175.13 186.13,-175.87 178.33,-168.7 175.56,-175.13"/>
</a>
</g>
</g>
<!-- Node5 -->
<g id="Node000005" class="node">
<title>Node5</title>
<g id="a_Node000005"><a xlink:href="classECS.html#a41b876f3725cbb04aac3f2edd95522c6" target="_top" xlink:title="Creates a new entity.">
<polygon fill="white" stroke="#666666" points="260,-54 159,-54 159,-35 260,-35 260,-54"/>
<text text-anchor="middle" x="209.5" y="-42" font-family="Helvetica,sans-Serif" font-size="10.00">ECS::createEntity</text>
</a>
</g>
</g>
<!-- Node1&#45;&gt;Node5 -->
<g id="edge5_Node000001_Node000005" class="edge">
<title>Node1&#45;&gt;Node5</title>
<g id="a_edge5_Node000001_Node000005"><a xlink:title=" ">
<path fill="none" stroke="#63b8ff" d="M73.03,-110.83C90.96,-99.86 121.53,-81.77 149,-68.5 156.7,-64.78 165.13,-61.13 173.17,-57.85"/>
<polygon fill="#63b8ff" stroke="#63b8ff" points="174.71,-61 182.69,-54.04 172.11,-54.5 174.71,-61"/>
</a>
</g>
</g>
<!-- Node6 -->
<g id="Node000006" class="node">
<title>Node6</title>
<g id="a_Node000006"><a xlink:href="classECS.html#aaae60c88af59dd7af9d86200eb522bbc" target="_top" xlink:title="Retrieves a mutable pointer to a component.">
<polygon fill="white" stroke="#666666" points="446.5,-243 333.5,-243 333.5,-224 446.5,-224 446.5,-243"/>
<text text-anchor="middle" x="390" y="-231" font-family="Helvetica,sans-Serif" font-size="10.00">ECS::getComponent</text>
</a>
</g>
</g>
<!-- Node1&#45;&gt;Node6 -->
<g id="edge6_Node000001_Node000006" class="edge">
<title>Node1&#45;&gt;Node6</title>
<g id="a_edge6_Node000001_Node000006"><a xlink:title=" ">
<path fill="none" stroke="#63b8ff" d="M64.53,-130.1C78.39,-148.19 111.2,-187.09 149,-204.5 203.93,-229.79 273.04,-235.8 322.98,-236.22"/>
<polygon fill="#63b8ff" stroke="#63b8ff" points="323.02,-239.72 333.02,-236.23 323.02,-232.72 323.02,-239.72"/>
</a>
</g>
</g>
<!-- Node9 -->
<g id="Node000009" class="node">
<title>Node9</title>
<g id="a_Node000009"><a xlink:href="classECS.html#a77bab58f7b7d5e53443078f60957b2d2" target="_top" xlink:title="Destroys an entity.">
<polygon fill="white" stroke="#666666" points="432.5,-19 347.5,-19 347.5,0 432.5,0 432.5,-19"/>
<text text-anchor="middle" x="390" y="-7" font-family="Helvetica,sans-Serif" font-size="10.00">ECS::killEntity</text>
</a>
</g>
</g>
<!-- Node1&#45;&gt;Node9 -->
<g id="edge10_Node000001_Node000009" class="edge">
<title>Node1&#45;&gt;Node9</title>
<g id="a_edge10_Node000001_Node000009"><a xlink:title=" ">
<path fill="none" stroke="#63b8ff" d="M102.83,-110.93C156.33,-99.15 241.61,-78.71 270,-62.5 289.38,-51.43 286.34,-38.05 306,-27.5 315.65,-22.32 326.68,-18.63 337.49,-16.01"/>
<polygon fill="#63b8ff" stroke="#63b8ff" points="338.27,-19.42 347.3,-13.88 336.79,-12.58 338.27,-19.42"/>
</a>
</g>
</g>
<!-- Node10 -->
<g id="Node000010" class="node">
<title>Node10</title>
<g id="a_Node000010"><a xlink:href="classClient.html#a6e7a5e19c40bef39ae1c0f5996b8c471" target="_top" xlink:title=" ">
<polygon fill="white" stroke="#666666" points="252,-130 167,-130 167,-111 252,-111 252,-130"/>
<text text-anchor="middle" x="209.5" y="-118" font-family="Helvetica,sans-Serif" font-size="10.00">Client::update</text>
</a>
</g>
</g>
<!-- Node1&#45;&gt;Node10 -->
<g id="edge11_Node000001_Node000010" class="edge">
<title>Node1&#45;&gt;Node10</title>
<g id="a_edge11_Node000001_Node000010"><a xlink:title=" ">
<path fill="none" stroke="#63b8ff" d="M113.3,-113.96C127.36,-113.65 142.4,-113.68 156.27,-114.04"/>
<polygon fill="#63b8ff" stroke="#63b8ff" points="156.51,-117.55 166.62,-114.38 156.74,-110.56 156.51,-117.55"/>
</a>
</g>
</g>
<!-- Node3 -->
<g id="Node000003" class="node">
<title>Node3</title>
<g id="a_Node000003"><a xlink:href="server_2ecs_8hpp.html#a5a868f82168f3b251aa7ca758686125c" target="_top" xlink:title=" ">
<polygon fill="white" stroke="#666666" points="625.5,-168 526.5,-168 526.5,-149 625.5,-149 625.5,-168"/>
<text text-anchor="middle" x="576" y="-156" font-family="Helvetica,sans-Serif" font-size="10.00">getComponentID</text>
</a>
</g>
</g>
<!-- Node2&#45;&gt;Node3 -->
<g id="edge2_Node000002_Node000003" class="edge">
<title>Node2&#45;&gt;Node3</title>
<g id="a_edge2_Node000002_Node000003"><a xlink:title=" ">
<path fill="none" stroke="#63b8ff" d="M270.06,-185.88C323.57,-185.64 404.24,-183.87 474,-176.5 488.82,-174.93 504.75,-172.47 519.47,-169.86"/>
<polygon fill="#63b8ff" stroke="#63b8ff" points="520.23,-173.28 529.44,-168.04 518.98,-166.39 520.23,-173.28"/>
</a>
</g>
</g>
<!-- Node3&#45;&gt;Node3 -->
<g id="edge3_Node000003_Node000003" class="edge">
<title>Node3&#45;&gt;Node3</title>
<g id="a_edge3_Node000003_Node000003"><a xlink:title=" ">
<path fill="none" stroke="#63b8ff" d="M550.11,-168.08C537.51,-176.73 546.14,-186 576,-186 596.06,-186 606.54,-181.82 607.44,-176.45"/>
<polygon fill="#63b8ff" stroke="#63b8ff" points="610.34,-174.49 601.89,-168.08 604.5,-178.35 610.34,-174.49"/>
</a>
</g>
</g>
<!-- Node4 -->
<g id="Node000004" class="node">
<title>Node4</title>
<g id="a_Node000004"><a xlink:href="engine_2ecs_2ecs_8hpp.html#afdb02fc115de82c93e814ac1d3a64c06" target="_top" xlink:title="Generates a new unique ComponentTypeID.">
<polygon fill="white" stroke="#666666" points="808,-130 682,-130 682,-111 808,-111 808,-130"/>
<text text-anchor="middle" x="745" y="-118" font-family="Helvetica,sans-Serif" font-size="10.00">newComponentTypeID</text>
</a>
</g>
</g>
<!-- Node3&#45;&gt;Node4 -->
<g id="edge4_Node000003_Node000004" class="edge">
<title>Node3&#45;&gt;Node4</title>
<g id="a_edge4_Node000003_Node000004"><a xlink:title=" ">
<path fill="none" stroke="#63b8ff" d="M619.14,-148.91C641.38,-143.85 668.85,-137.6 692.36,-132.25"/>
<polygon fill="#63b8ff" stroke="#63b8ff" points="693.19,-135.65 702.16,-130.02 691.63,-128.83 693.19,-135.65"/>
</a>
</g>
</g>
<!-- Node6&#45;&gt;Node3 -->
<g id="edge9_Node000006_Node000003" class="edge">
<title>Node6&#45;&gt;Node3</title>
<g id="a_edge9_Node000006_Node000003"><a xlink:title=" ">
<path fill="none" stroke="#63b8ff" d="M429.51,-223.97C443.69,-220.04 459.76,-215.1 474,-209.5 500.51,-199.08 529.4,-184.1 549.47,-173.07"/>
<polygon fill="#63b8ff" stroke="#63b8ff" points="551.25,-176.08 558.29,-168.16 547.85,-169.96 551.25,-176.08"/>
</a>
</g>
</g>
<!-- Node7 -->
<g id="Node000007" class="node">
<title>Node7</title>
<g id="a_Node000007"><a xlink:href="classStorageComponent.html#a4e0239d1d216347282d49c0bcdf0079d" target="_top" xlink:title="Retrieves a read&#45;only pointer to the component for the entity.">
<polygon fill="white" stroke="#666666" points="642,-233 510,-233 510,-214 642,-214 642,-233"/>
<text text-anchor="middle" x="576" y="-221" font-family="Helvetica,sans-Serif" font-size="10.00">StorageComponent::get</text>
</a>
</g>
</g>
<!-- Node6&#45;&gt;Node7 -->
<g id="edge7_Node000006_Node000007" class="edge">
<title>Node6&#45;&gt;Node7</title>
<g id="a_edge7_Node000006_Node000007"><a xlink:title=" ">
<path fill="none" stroke="#63b8ff" d="M446.71,-230.47C463.33,-229.57 481.83,-228.56 499.5,-227.6"/>
<polygon fill="#63b8ff" stroke="#63b8ff" points="499.99,-231.08 509.78,-227.04 499.61,-224.09 499.99,-231.08"/>
</a>
</g>
</g>
<!-- Node8 -->
<g id="Node000008" class="node">
<title>Node8</title>
<g id="a_Node000008"><a xlink:href="classStorageComponent.html#a6de145a1ea5570363f566ab9fce66578" target="_top" xlink:title="Checks if the entity has this component type.">
<polygon fill="white" stroke="#666666" points="812,-167 678,-167 678,-148 812,-148 812,-167"/>
<text text-anchor="middle" x="745" y="-155" font-family="Helvetica,sans-Serif" font-size="10.00">StorageComponent::has</text>
</a>
</g>
</g>
<!-- Node7&#45;&gt;Node8 -->
<g id="edge8_Node000007_Node000008" class="edge">
<title>Node7&#45;&gt;Node8</title>
<g id="a_edge8_Node000007_Node000008"><a xlink:title=" ">
<path fill="none" stroke="#63b8ff" d="M601.28,-213.9C630.06,-202.53 678.17,-183.52 710.48,-170.75"/>
<polygon fill="#63b8ff" stroke="#63b8ff" points="711.94,-173.93 719.96,-167 709.37,-167.42 711.94,-173.93"/>
</a>
</g>
</g>
<!-- Node10&#45;&gt;Node1 -->
<g id="edge12_Node000010_Node000001" class="edge">
<title>Node10&#45;&gt;Node1</title>
<g id="a_edge12_Node000010_Node000001"><a xlink:title=" ">
<path fill="none" stroke="#63b8ff" d="M166.62,-126.62C153.22,-127.16 138.04,-127.35 123.36,-127.2"/>
<polygon fill="#63b8ff" stroke="#63b8ff" points="123.35,-123.7 113.3,-127.04 123.24,-130.7 123.35,-123.7"/>
</a>
</g>
</g>
<!-- Node10&#45;&gt;Node6 -->
<g id="edge13_Node000010_Node000006" class="edge">
<title>Node10&#45;&gt;Node6</title>
<g id="a_edge13_Node000010_Node000006"><a xlink:title=" ">
<path fill="none" stroke="#63b8ff" d="M225.72,-130.13C256.81,-149.82 327.81,-194.76 365.11,-218.38"/>
<polygon fill="#63b8ff" stroke="#63b8ff" points="363.5,-221.5 373.82,-223.89 367.24,-215.58 363.5,-221.5"/>
</a>
</g>
</g>
<!-- Node10&#45;&gt;Node9 -->
<g id="edge19_Node000010_Node000009" class="edge">
<title>Node10&#45;&gt;Node9</title>
<g id="a_edge19_Node000010_Node000009"><a xlink:title=" ">
<path fill="none" stroke="#63b8ff" d="M245.91,-110.94C254.49,-107.42 263.15,-102.71 270,-96.5 295.62,-73.26 278.5,-48.48 306,-27.5 314.98,-20.65 326.01,-16.29 337.06,-13.54"/>
<polygon fill="#63b8ff" stroke="#63b8ff" points="338.08,-16.9 347.16,-11.44 336.66,-10.05 338.08,-16.9"/>
</a>
</g>
</g>
<!-- Node10&#45;&gt;Node10 -->
<g id="edge23_Node000010_Node000010" class="edge">
<title>Node10&#45;&gt;Node10</title>
<g id="a_edge23_Node000010_Node000010"><a xlink:title=" ">
<path fill="none" stroke="#63b8ff" d="M186.07,-130.08C174.68,-138.73 182.48,-148 209.5,-148 227.23,-148 236.69,-144.01 237.87,-138.82"/>
<polygon fill="#63b8ff" stroke="#63b8ff" points="240.9,-137.06 232.93,-130.08 234.81,-140.51 240.9,-137.06"/>
</a>
</g>
</g>
<!-- Node11 -->
<g id="Node000011" class="node">
<title>Node11</title>
<g id="a_Node000011"><a xlink:href="classECS.html#a8d931ce389d47888768e1a5092bde26b" target="_top" xlink:title="Retrieves entities that have all specified components.">
<polygon fill="white" stroke="#666666" points="474,-167 306,-167 306,-148 474,-148 474,-167"/>
<text text-anchor="middle" x="390" y="-155" font-family="Helvetica,sans-Serif" font-size="10.00">ECS::getEntitiesByComponents</text>
</a>
</g>
</g>
<!-- Node10&#45;&gt;Node11 -->
<g id="edge14_Node000010_Node000011" class="edge">
<title>Node10&#45;&gt;Node11</title>
<g id="a_edge14_Node000010_Node000011"><a xlink:title=" ">
<path fill="none" stroke="#63b8ff" d="M252.35,-129.17C276.37,-134.15 306.83,-140.47 332.9,-145.87"/>
<polygon fill="#63b8ff" stroke="#63b8ff" points="332.52,-149.37 343.02,-147.97 333.94,-142.51 332.52,-149.37"/>
</a>
</g>
</g>
<!-- Node12 -->
<g id="Node000012" class="node">
<title>Node12</title>
<g id="a_Node000012"><a xlink:href="classECS.html#a33c16853296e9784dfb558f35dffbd72" target="_top" xlink:title="Checks if an entity has a specific component.">
<polygon fill="white" stroke="#666666" points="447.5,-130 332.5,-130 332.5,-111 447.5,-111 447.5,-130"/>
<text text-anchor="middle" x="390" y="-118" font-family="Helvetica,sans-Serif" font-size="10.00">ECS::hasComponent</text>
</a>
</g>
</g>
<!-- Node10&#45;&gt;Node12 -->
<g id="edge16_Node000010_Node000012" class="edge">
<title>Node10&#45;&gt;Node12</title>
<g id="a_edge16_Node000010_Node000012"><a xlink:title=" ">
<path fill="none" stroke="#63b8ff" d="M252.35,-120.5C273.09,-120.5 298.63,-120.5 322,-120.5"/>
<polygon fill="#63b8ff" stroke="#63b8ff" points="322.21,-124 332.21,-120.5 322.21,-117 322.21,-124"/>
</a>
</g>
</g>
<!-- Node13 -->
<g id="Node000013" class="node">
<title>Node13</title>
<g id="a_Node000013"><a xlink:href="classSafeQueue.html#ab2f40bad1a39f332c1a8c7b4e858b190" target="_top" xlink:title=" ">
<polygon fill="white" stroke="#666666" points="443.5,-56 336.5,-56 336.5,-37 443.5,-37 443.5,-56"/>
<text text-anchor="middle" x="390" y="-44" font-family="Helvetica,sans-Serif" font-size="10.00">SafeQueue::tryPop</text>
</a>
</g>
</g>
<!-- Node10&#45;&gt;Node13 -->
<g id="edge20_Node000010_Node000013" class="edge">
<title>Node10&#45;&gt;Node13</title>
<g id="a_edge20_Node000010_Node000013"><a xlink:title=" ">
<path fill="none" stroke="#63b8ff" d="M239.92,-110.93C249.83,-107.12 260.72,-102.25 270,-96.5 288.19,-85.22 286.91,-74.2 306,-64.5 312.42,-61.24 319.4,-58.57 326.51,-56.38"/>
<polygon fill="#63b8ff" stroke="#63b8ff" points="327.53,-59.73 336.23,-53.68 325.66,-52.98 327.53,-59.73"/>
</a>
</g>
</g>
<!-- Node15 -->
<g id="Node000015" class="node">
<title>Node15</title>
<g id="a_Node000015"><a xlink:href="classTimer.html#a5dfc60401871aa32cfe0ca0a775f31fa" target="_top" xlink:title=" ">
<polygon fill="white" stroke="#666666" points="446,-93 334,-93 334,-74 446,-74 446,-93"/>
<text text-anchor="middle" x="390" y="-81" font-family="Helvetica,sans-Serif" font-size="10.00">Timer::updateClock</text>
</a>
</g>
</g>
<!-- Node10&#45;&gt;Node15 -->
<g id="edge24_Node000010_Node000015" class="edge">
<title>Node10&#45;&gt;Node15</title>
<g id="a_edge24_Node000010_Node000015"><a xlink:title=" ">
<path fill="none" stroke="#63b8ff" d="M252.35,-111.83C276.37,-106.85 306.83,-100.53 332.9,-95.13"/>
<polygon fill="#63b8ff" stroke="#63b8ff" points="333.94,-98.49 343.02,-93.03 332.52,-91.63 333.94,-98.49"/>
</a>
</g>
</g>
<!-- Node11&#45;&gt;Node3 -->
<g id="edge15_Node000011_Node000003" class="edge">
<title>Node11&#45;&gt;Node3</title>
<g id="a_edge15_Node000011_Node000003"><a xlink:title=" ">
<path fill="none" stroke="#63b8ff" d="M474.12,-157.95C488.39,-158.03 502.94,-158.11 516.39,-158.18"/>
<polygon fill="#63b8ff" stroke="#63b8ff" points="516.42,-161.68 526.44,-158.24 516.46,-154.68 516.42,-161.68"/>
</a>
</g>
</g>
<!-- Node12&#45;&gt;Node3 -->
<g id="edge17_Node000012_Node000003" class="edge">
<title>Node12&#45;&gt;Node3</title>
<g id="a_edge17_Node000012_Node000003"><a xlink:title=" ">
<path fill="none" stroke="#63b8ff" d="M437.43,-130.09C462.15,-135.19 492.74,-141.51 518.79,-146.89"/>
<polygon fill="#63b8ff" stroke="#63b8ff" points="518.4,-150.39 528.9,-148.98 519.82,-143.53 518.4,-150.39"/>
</a>
</g>
</g>
<!-- Node12&#45;&gt;Node8 -->
<g id="edge18_Node000012_Node000008" class="edge">
<title>Node12&#45;&gt;Node8</title>
<g id="a_edge18_Node000012_Node000008"><a xlink:title=" ">
<path fill="none" stroke="#63b8ff" d="M447.98,-123.2C498.96,-126 575.66,-131.16 642,-139.5 656.14,-141.28 671.3,-143.68 685.5,-146.15"/>
<polygon fill="#63b8ff" stroke="#63b8ff" points="685.18,-149.65 695.64,-147.95 686.4,-142.76 685.18,-149.65"/>
</a>
</g>
</g>
<!-- Node14 -->
<g id="Node000014" class="node">
<title>Node14</title>
<g id="a_Node000014"><a xlink:href="engine_2ecs_2ecs_8hpp.html#a5a868f82168f3b251aa7ca758686125c" target="_top" xlink:title="Retrieves the unique ID for a given component type.">
<polygon fill="white" stroke="#666666" points="625.5,-92 526.5,-92 526.5,-73 625.5,-73 625.5,-92"/>
<text text-anchor="middle" x="576" y="-80" font-family="Helvetica,sans-Serif" font-size="10.00">getComponentID</text>
</a>
</g>
</g>
<!-- Node13&#45;&gt;Node14 -->
<g id="edge21_Node000013_Node000014" class="edge">
<title>Node13&#45;&gt;Node14</title>
<g id="a_edge21_Node000013_Node000014"><a xlink:title=" ">
<path fill="none" stroke="#63b8ff" d="M439.83,-56.05C463.31,-60.65 491.65,-66.19 516.31,-71.02"/>
<polygon fill="#63b8ff" stroke="#63b8ff" points="515.78,-74.48 526.27,-72.97 517.12,-67.61 515.78,-74.48"/>
</a>
</g>
</g>
<!-- Node14&#45;&gt;Node4 -->
<g id="edge22_Node000014_Node000004" class="edge">
<title>Node14&#45;&gt;Node4</title>
<g id="a_edge22_Node000014_Node000004"><a xlink:title=" ">
<path fill="none" stroke="#63b8ff" d="M619.14,-92.09C641.38,-97.15 668.85,-103.4 692.36,-108.75"/>
<polygon fill="#63b8ff" stroke="#63b8ff" points="691.63,-112.17 702.16,-110.98 693.19,-105.35 691.63,-112.17"/>
</a>
</g>
</g>
<!-- Node15&#45;&gt;Node14 -->
<g id="edge25_Node000015_Node000014" class="edge">
<title>Node15&#45;&gt;Node14</title>
<g id="a_edge25_Node000015_Node000014"><a xlink:title=" ">
<path fill="none" stroke="#63b8ff" d="M446.21,-83.2C468.33,-83.08 493.85,-82.94 516.31,-82.82"/>
<polygon fill="#63b8ff" stroke="#63b8ff" points="516.41,-86.32 526.39,-82.76 516.37,-79.32 516.41,-86.32"/>
</a>
</g>
</g>
</g>
</svg>

<g id="navigator" transform="translate(0 0)" fill="#404254">
  <rect fill="#f2f5e9" fill-opacity="0.5" stroke="#606060" stroke-width=".5" x="0" y="0" width="60" height="60"/>
  <use id="zoomplus" xlink:href="#zoomPlus" x="17" y="9" onmousedown="handleZoom(evt,'in')"/>
  <use id="zoomminus" xlink:href="#zoomMin" x="42" y="9" onmousedown="handleZoom(evt,'out')"/>
  <use id="reset" xlink:href="#resetDef" x="30" y="36" onmousedown="handleReset()"/>
   <use id="arrowup" xlink:href="#arrowUp" x="0" y="0" onmousedown="handlePan(0,-1)"/>
  <use id="arrowright" xlink:href="#arrowRight" x="0" y="0" onmousedown="handlePan(1,0)"/>
  <use id="arrowdown" xlink:href="#arrowDown" x="0" y="0" onmousedown="handlePan(0,1)"/>
  <use id="arrowleft" xlink:href="#arrowLeft" x="0" y="0" onmousedown="handlePan(-1,0)"/>
</g>
<svg viewBox="0 0 15 15" width="100%" height="30px" preserveAspectRatio="xMaxYMin meet">
 <g id="arrow_out" transform="scale(0.3 0.3)">
  <a xlink:href="classClient_ad361032d607e05a51b215e1300029bbc_cgraph_org.svg" target="_base">
   <rect id="button" ry="5" rx="5" y="6" x="6" height="38" width="38"
        fill="#f2f5e9" fill-opacity="0.5" stroke="#606060" stroke-width="1.0"/>
   <path id="arrow"
     d="M 11.500037,31.436501 C 11.940474,20.09759 22.043105,11.32322 32.158766,21.979434 L 37.068811,17.246167 C 37.068811,17.246167 37.088388,32 37.088388,32 L 22.160133,31.978069 C 22.160133,31.978069 26.997745,27.140456 26.997745,27.140456 C 18.528582,18.264221 13.291696,25.230495 11.500037,31.436501 z"
     style="fill:#404040;"/>
  </a>
 </g>
</svg>

<style type='text/css'>
<![CDATA[
[data-mouse-over-selected='false'] { opacity: 0.7; }
[data-mouse-over-selected='true']  { opacity: 1.0; }
]]>
</style>
<script type="application/ecmascript"><![CDATA[
document.addEventListener('DOMContentLoaded', (event) => {
  highlightEdges();
  highlightAdjacentNodes();
});
]]></script>
</svg>
