<?xml version="1.0" encoding="UTF-8" standalone="no"?>
<!DOCTYPE svg PUBLIC "-//W3C//DTD SVG 1.1//EN"
 "http://www.w3.org/Graphics/SVG/1.1/DTD/svg11.dtd">
<!-- Generated by graphviz version 2.43.0 (0)
 -->
<!-- Title: Ntw::PacketInterpreter Pages: 1 -->
<svg width="181pt" height="541pt"
 viewBox="0.00 0.00 181.00 541.00" xmlns="http://www.w3.org/2000/svg" xmlns:xlink="http://www.w3.org/1999/xlink">
<g id="graph0" class="graph" transform="scale(1 1) rotate(0) translate(4 537)">
<title>Ntw::PacketInterpreter</title>
<!-- Node1 -->
<g id="Node000001" class="node">
<title>Node1</title>
<g id="a_Node000001"><a xlink:title=" ">
<polygon fill="#999999" stroke="transparent" points="166.5,-202 6.5,-202 6.5,0 166.5,0 166.5,-202"/>
<text text-anchor="start" x="32" y="-190" font-family="Helvetica,sans-Serif" font-size="10.00">Ntw::PacketInterpreter</text>
<text text-anchor="start" x="13" y="-175" font-family="Helvetica,sans-Serif" font-size="10.00">&#45;</text>
<text text-anchor="start" x="23.5" y="-175" font-family="Helvetica,sans-Serif" font-size="10.00">std::queue&lt; ReceivedPacket</text>
<text text-anchor="start" x="23.5" y="-164" font-family="Helvetica,sans-Serif" font-size="10.00"> &gt; _packetBuffer</text>
<text text-anchor="start" x="13" y="-149" font-family="Helvetica,sans-Serif" font-size="10.00">&#45;</text>
<text text-anchor="start" x="23.5" y="-149" font-family="Helvetica,sans-Serif" font-size="10.00">std::mutex _mutex</text>
<text text-anchor="start" x="13" y="-134" font-family="Helvetica,sans-Serif" font-size="10.00">&#45;</text>
<text text-anchor="start" x="23.5" y="-134" font-family="Helvetica,sans-Serif" font-size="10.00">std::thread _thread</text>
<text text-anchor="start" x="13" y="-119" font-family="Helvetica,sans-Serif" font-size="10.00">&#45;</text>
<text text-anchor="start" x="23.5" y="-119" font-family="Helvetica,sans-Serif" font-size="10.00">std::atomic&lt; bool &gt;</text>
<text text-anchor="start" x="23.5" y="-108" font-family="Helvetica,sans-Serif" font-size="10.00"> _running</text>
<text text-anchor="start" x="10.5" y="-93" font-family="Helvetica,sans-Serif" font-size="10.00">+</text>
<text text-anchor="start" x="23.5" y="-93" font-family="Helvetica,sans-Serif" font-size="10.00">PacketInterpreter</text>
<text text-anchor="start" x="23.5" y="-82" font-family="Helvetica,sans-Serif" font-size="10.00">(UdpReceiver &amp;receiver)</text>
<text text-anchor="start" x="10.5" y="-67" font-family="Helvetica,sans-Serif" font-size="10.00">+</text>
<text text-anchor="start" x="23.5" y="-67" font-family="Helvetica,sans-Serif" font-size="10.00">~PacketInterpreter()</text>
<text text-anchor="start" x="10.5" y="-52" font-family="Helvetica,sans-Serif" font-size="10.00">+</text>
<text text-anchor="start" x="23.5" y="-52" font-family="Helvetica,sans-Serif" font-size="10.00">void start()</text>
<text text-anchor="start" x="10.5" y="-37" font-family="Helvetica,sans-Serif" font-size="10.00">+</text>
<text text-anchor="start" x="23.5" y="-37" font-family="Helvetica,sans-Serif" font-size="10.00">void stop()</text>
<text text-anchor="start" x="10.5" y="-22" font-family="Helvetica,sans-Serif" font-size="10.00">+</text>
<text text-anchor="start" x="23.5" y="-22" font-family="Helvetica,sans-Serif" font-size="10.00">void join()</text>
<text text-anchor="start" x="13" y="-7" font-family="Helvetica,sans-Serif" font-size="10.00">&#45;</text>
<text text-anchor="start" x="23.5" y="-7" font-family="Helvetica,sans-Serif" font-size="10.00">void interpreterLoop()</text>
<polygon fill="#666666" stroke="#666666" points="6.5,-185 6.5,-185 166.5,-185 166.5,-185 6.5,-185"/>
<polygon fill="#666666" stroke="#666666" points="6.5,-103 6.5,-103 21.5,-103 21.5,-103 6.5,-103"/>
<polygon fill="#666666" stroke="#666666" points="21.5,-103 21.5,-103 166.5,-103 166.5,-103 21.5,-103"/>
<polygon fill="none" stroke="#666666" points="6.5,0 6.5,-202 166.5,-202 166.5,0 6.5,0"/>
</a>
</g>
</g>
<!-- Node2 -->
<g id="Node000002" class="node">
<title>Node2</title>
<g id="a_Node000002"><a xlink:href="classNtw_1_1UdpReceiver.html" target="_top" xlink:title=" ">
<polygon fill="white" stroke="transparent" points="173,-533 0,-533 0,-249 173,-249 173,-533"/>
<text text-anchor="start" x="43" y="-521" font-family="Helvetica,sans-Serif" font-size="10.00">Ntw::UdpReceiver</text>
<text text-anchor="start" x="7" y="-506" font-family="Helvetica,sans-Serif" font-size="10.00">&#45;</text>
<text text-anchor="start" x="17.5" y="-506" font-family="Helvetica,sans-Serif" font-size="10.00">sf::UdpSocket _socket</text>
<text text-anchor="start" x="7" y="-491" font-family="Helvetica,sans-Serif" font-size="10.00">&#45;</text>
<text text-anchor="start" x="17.5" y="-491" font-family="Helvetica,sans-Serif" font-size="10.00">unsigned short _port</text>
<text text-anchor="start" x="7" y="-476" font-family="Helvetica,sans-Serif" font-size="10.00">&#45;</text>
<text text-anchor="start" x="17.5" y="-476" font-family="Helvetica,sans-Serif" font-size="10.00">std::queue&lt; std::unique</text>
<text text-anchor="start" x="17.5" y="-465" font-family="Helvetica,sans-Serif" font-size="10.00">_ptr&lt; ReceivedPacket &gt;</text>
<text text-anchor="start" x="17.5" y="-454" font-family="Helvetica,sans-Serif" font-size="10.00"> &gt; _packetQueue</text>
<text text-anchor="start" x="7" y="-439" font-family="Helvetica,sans-Serif" font-size="10.00">&#45;</text>
<text text-anchor="start" x="17.5" y="-439" font-family="Helvetica,sans-Serif" font-size="10.00">std::mutex _mutex</text>
<text text-anchor="start" x="7" y="-424" font-family="Helvetica,sans-Serif" font-size="10.00">&#45;</text>
<text text-anchor="start" x="17.5" y="-424" font-family="Helvetica,sans-Serif" font-size="10.00">std::thread _thread</text>
<text text-anchor="start" x="7" y="-409" font-family="Helvetica,sans-Serif" font-size="10.00">&#45;</text>
<text text-anchor="start" x="17.5" y="-409" font-family="Helvetica,sans-Serif" font-size="10.00">bool _running</text>
<text text-anchor="start" x="4.5" y="-394" font-family="Helvetica,sans-Serif" font-size="10.00">+</text>
<text text-anchor="start" x="17.5" y="-394" font-family="Helvetica,sans-Serif" font-size="10.00">UdpReceiver(unsigned</text>
<text text-anchor="start" x="17.5" y="-383" font-family="Helvetica,sans-Serif" font-size="10.00"> short port)</text>
<text text-anchor="start" x="4.5" y="-368" font-family="Helvetica,sans-Serif" font-size="10.00">+</text>
<text text-anchor="start" x="17.5" y="-368" font-family="Helvetica,sans-Serif" font-size="10.00">~UdpReceiver()</text>
<text text-anchor="start" x="4.5" y="-353" font-family="Helvetica,sans-Serif" font-size="10.00">+</text>
<text text-anchor="start" x="17.5" y="-353" font-family="Helvetica,sans-Serif" font-size="10.00">void start()</text>
<text text-anchor="start" x="4.5" y="-338" font-family="Helvetica,sans-Serif" font-size="10.00">+</text>
<text text-anchor="start" x="17.5" y="-338" font-family="Helvetica,sans-Serif" font-size="10.00">void stop()</text>
<text text-anchor="start" x="4.5" y="-323" font-family="Helvetica,sans-Serif" font-size="10.00">+</text>
<text text-anchor="start" x="17.5" y="-323" font-family="Helvetica,sans-Serif" font-size="10.00">void join()</text>
<text text-anchor="start" x="4.5" y="-308" font-family="Helvetica,sans-Serif" font-size="10.00">+</text>
<text text-anchor="start" x="17.5" y="-308" font-family="Helvetica,sans-Serif" font-size="10.00">bool getPacket(ReceivedPacket</text>
<text text-anchor="start" x="17.5" y="-297" font-family="Helvetica,sans-Serif" font-size="10.00"> &amp;packet)</text>
<text text-anchor="start" x="4.5" y="-282" font-family="Helvetica,sans-Serif" font-size="10.00">+</text>
<text text-anchor="start" x="17.5" y="-282" font-family="Helvetica,sans-Serif" font-size="10.00">unsigned short getPort</text>
<text text-anchor="start" x="17.5" y="-271" font-family="Helvetica,sans-Serif" font-size="10.00">() const</text>
<text text-anchor="start" x="7" y="-256" font-family="Helvetica,sans-Serif" font-size="10.00">&#45;</text>
<text text-anchor="start" x="17.5" y="-256" font-family="Helvetica,sans-Serif" font-size="10.00">void receiveLoop()</text>
<polygon fill="#666666" stroke="#666666" points="0.5,-516 0.5,-516 173.5,-516 173.5,-516 0.5,-516"/>
<polygon fill="#666666" stroke="#666666" points="0.5,-404 0.5,-404 15.5,-404 15.5,-404 0.5,-404"/>
<polygon fill="#666666" stroke="#666666" points="15.5,-404 15.5,-404 173.5,-404 173.5,-404 15.5,-404"/>
<polygon fill="none" stroke="#666666" points="0,-249 0,-533 173,-533 173,-249 0,-249"/>
</a>
</g>
</g>
<!-- Node2&#45;&gt;Node1 -->
<g id="edge1_Node000001_Node000002" class="edge">
<title>Node2&#45;&gt;Node1</title>
<g id="a_edge1_Node000001_Node000002"><a xlink:title=" ">
<path fill="none" stroke="#63b8ff" d="M86.5,-248.95C86.5,-237.34 86.5,-225.69 86.5,-214.33"/>
<polygon fill="none" stroke="#63b8ff" points="86.5,-214.11 82.5,-208.12 86.5,-202.11 90.5,-208.11 86.5,-214.11"/>
</a>
</g>
<text text-anchor="middle" x="112.5" y="-223" font-family="Helvetica,sans-Serif" font-size="10.00" fill="grey"> &#45;_receiver</text>
</g>
</g>
</svg>
