<?xml version="1.0" encoding="UTF-8" standalone="no"?>
<!DOCTYPE svg PUBLIC "-//W3C//DTD SVG 1.1//EN"
 "http://www.w3.org/Graphics/SVG/1.1/DTD/svg11.dtd">
<!-- Generated by graphviz version 2.43.0 (0)
 -->
<!-- Title: WaveSystem Pages: 1 -->
<svg width="192pt" height="830pt"
 viewBox="0.00 0.00 192.00 830.00" xmlns="http://www.w3.org/2000/svg" xmlns:xlink="http://www.w3.org/1999/xlink">
<g id="graph0" class="graph" transform="scale(1 1) rotate(0) translate(4 826)">
<title>WaveSystem</title>
<!-- Node1 -->
<g id="Node000001" class="node">
<title>Node1</title>
<g id="a_Node000001"><a xlink:title=" ">
<polygon fill="#999999" stroke="transparent" points="166.5,-153 17.5,-153 17.5,0 166.5,0 166.5,-153"/>
<text text-anchor="start" x="60.5" y="-140.5" font-family="Helvetica,sans-Serif" font-size="10.00">WaveSystem</text>
<text text-anchor="start" x="24.5" y="-125.5" font-family="Helvetica,sans-Serif" font-size="10.00">&#45;</text>
<text text-anchor="start" x="35" y="-125.5" font-family="Helvetica,sans-Serif" font-size="10.00">std::vector&lt; Components</text>
<text text-anchor="start" x="35" y="-114.5" font-family="Helvetica,sans-Serif" font-size="10.00">::WaveData &gt; _waves</text>
<text text-anchor="start" x="24.5" y="-99.5" font-family="Helvetica,sans-Serif" font-size="10.00">&#45;</text>
<text text-anchor="start" x="35" y="-99.5" font-family="Helvetica,sans-Serif" font-size="10.00">size_t _currentWave</text>
<text text-anchor="start" x="24.5" y="-84.5" font-family="Helvetica,sans-Serif" font-size="10.00">&#45;</text>
<text text-anchor="start" x="35" y="-84.5" font-family="Helvetica,sans-Serif" font-size="10.00">float _timer</text>
<text text-anchor="start" x="22" y="-69.5" font-family="Helvetica,sans-Serif" font-size="10.00">+</text>
<text text-anchor="start" x="35" y="-69.5" font-family="Helvetica,sans-Serif" font-size="10.00">WaveSystem(ECS &amp;ecs)</text>
<text text-anchor="start" x="22" y="-54.5" font-family="Helvetica,sans-Serif" font-size="10.00">+</text>
<text text-anchor="start" x="35" y="-54.5" font-family="Helvetica,sans-Serif" font-size="10.00">void loadLevel(const</text>
<text text-anchor="start" x="35" y="-43.5" font-family="Helvetica,sans-Serif" font-size="10.00"> std::vector&lt; Components</text>
<text text-anchor="start" x="35" y="-32.5" font-family="Helvetica,sans-Serif" font-size="10.00">::WaveData &gt; &amp;waves)</text>
<text text-anchor="start" x="22" y="-17.5" font-family="Helvetica,sans-Serif" font-size="10.00">+</text>
<text text-anchor="start" x="35" y="-17.5" font-family="Helvetica,sans-Serif" font-size="10.00">void update(double</text>
<text text-anchor="start" x="35" y="-6.5" font-family="Helvetica,sans-Serif" font-size="10.00"> dt) override</text>
<polygon fill="#666666" stroke="#666666" points="18,-135.5 18,-135.5 167,-135.5 167,-135.5 18,-135.5"/>
<polygon fill="#666666" stroke="#666666" points="18,-79.5 18,-79.5 33,-79.5 33,-79.5 18,-79.5"/>
<polygon fill="#666666" stroke="#666666" points="33,-79.5 33,-79.5 167,-79.5 167,-79.5 33,-79.5"/>
<polygon fill="none" stroke="#666666" points="17.5,0 17.5,-153 166.5,-153 166.5,0 17.5,0"/>
</a>
</g>
</g>
<!-- Node2 -->
<g id="Node000002" class="node">
<title>Node2</title>
<g id="a_Node000002"><a xlink:href="classISystem.html" target="_top" xlink:title="Interface for systems in the ECS.">
<polygon fill="white" stroke="transparent" points="149.5,-291 34.5,-291 34.5,-190 149.5,-190 149.5,-291"/>
<text text-anchor="start" x="72.5" y="-278.5" font-family="Helvetica,sans-Serif" font-size="10.00">ISystem</text>
<text text-anchor="start" x="90.5" y="-263.5" font-family="Helvetica,sans-Serif" font-size="10.00"> </text>
<text text-anchor="start" x="39" y="-248.5" font-family="Helvetica,sans-Serif" font-size="10.00">+</text>
<text text-anchor="start" x="52" y="-248.5" font-family="Helvetica,sans-Serif" font-size="10.00">ISystem(ECS &amp;ecs)</text>
<text text-anchor="start" x="39" y="-233.5" font-family="Helvetica,sans-Serif" font-size="10.00">+</text>
<text text-anchor="start" x="52" y="-233.5" font-family="Helvetica,sans-Serif" font-size="10.00">virtual ~ISystem()</text>
<text text-anchor="start" x="52" y="-222.5" font-family="Helvetica,sans-Serif" font-size="10.00">=default</text>
<text text-anchor="start" x="39" y="-207.5" font-family="Helvetica,sans-Serif" font-size="10.00">+</text>
<text text-anchor="start" x="52" y="-207.5" font-family="Helvetica,sans-Serif" font-size="10.00">virtual void update</text>
<text text-anchor="start" x="52" y="-196.5" font-family="Helvetica,sans-Serif" font-size="10.00">(double dt)=0</text>
<polygon fill="#666666" stroke="#666666" points="35,-273.5 35,-273.5 150,-273.5 150,-273.5 35,-273.5"/>
<polygon fill="#666666" stroke="#666666" points="35,-258.5 35,-258.5 150,-258.5 150,-258.5 35,-258.5"/>
<polygon fill="none" stroke="#666666" points="34.5,-190 34.5,-291 149.5,-291 149.5,-190 34.5,-190"/>
</a>
</g>
</g>
<!-- Node2&#45;&gt;Node1 -->
<g id="edge1_Node000001_Node000002" class="edge">
<title>Node2&#45;&gt;Node1</title>
<g id="a_edge1_Node000001_Node000002"><a xlink:title=" ">
<path fill="none" stroke="#63b8ff" d="M92,-179.36C92,-170.82 92,-161.96 92,-153.18"/>
<polygon fill="none" stroke="#63b8ff" points="88.5,-179.57 92,-189.57 95.5,-179.57 88.5,-179.57"/>
</a>
</g>
</g>
<!-- Node3 -->
<g id="Node000003" class="node">
<title>Node3</title>
<g id="a_Node000003"><a xlink:href="classECS.html" target="_top" xlink:title="Entity Component System manager.">
<polygon fill="white" stroke="transparent" points="184,-822 0,-822 0,-338 184,-338 184,-822"/>
<text text-anchor="start" x="82.5" y="-810" font-family="Helvetica,sans-Serif" font-size="10.00">ECS</text>
<text text-anchor="start" x="6.5" y="-795" font-family="Helvetica,sans-Serif" font-size="10.00">&#45;</text>
<text text-anchor="start" x="17" y="-795" font-family="Helvetica,sans-Serif" font-size="10.00">double _time</text>
<text text-anchor="start" x="6.5" y="-780" font-family="Helvetica,sans-Serif" font-size="10.00">&#45;</text>
<text text-anchor="start" x="17" y="-780" font-family="Helvetica,sans-Serif" font-size="10.00">std::size_t __livingEntities</text>
<text text-anchor="start" x="6.5" y="-765" font-family="Helvetica,sans-Serif" font-size="10.00">&#45;</text>
<text text-anchor="start" x="17" y="-765" font-family="Helvetica,sans-Serif" font-size="10.00">std::queue&lt; Entity</text>
<text text-anchor="start" x="17" y="-754" font-family="Helvetica,sans-Serif" font-size="10.00"> &gt; __freeEntities</text>
<text text-anchor="start" x="6.5" y="-739" font-family="Helvetica,sans-Serif" font-size="10.00">&#45;</text>
<text text-anchor="start" x="17" y="-739" font-family="Helvetica,sans-Serif" font-size="10.00">std::unordered_map</text>
<text text-anchor="start" x="17" y="-728" font-family="Helvetica,sans-Serif" font-size="10.00">&lt; Entity, Signature</text>
<text text-anchor="start" x="17" y="-717" font-family="Helvetica,sans-Serif" font-size="10.00"> &gt; __signatures</text>
<text text-anchor="start" x="6.5" y="-702" font-family="Helvetica,sans-Serif" font-size="10.00">&#45;</text>
<text text-anchor="start" x="17" y="-702" font-family="Helvetica,sans-Serif" font-size="10.00">std::vector&lt; void *</text>
<text text-anchor="start" x="17" y="-691" font-family="Helvetica,sans-Serif" font-size="10.00"> &gt; _componentStorages</text>
<text text-anchor="start" x="4" y="-676" font-family="Helvetica,sans-Serif" font-size="10.00">+</text>
<text text-anchor="start" x="17" y="-676" font-family="Helvetica,sans-Serif" font-size="10.00">ECS()</text>
<text text-anchor="start" x="4" y="-661" font-family="Helvetica,sans-Serif" font-size="10.00">+</text>
<text text-anchor="start" x="17" y="-661" font-family="Helvetica,sans-Serif" font-size="10.00">~ECS()=default</text>
<text text-anchor="start" x="4" y="-646" font-family="Helvetica,sans-Serif" font-size="10.00">+</text>
<text text-anchor="start" x="17" y="-646" font-family="Helvetica,sans-Serif" font-size="10.00">Entity createEntity()</text>
<text text-anchor="start" x="4" y="-631" font-family="Helvetica,sans-Serif" font-size="10.00">+</text>
<text text-anchor="start" x="17" y="-631" font-family="Helvetica,sans-Serif" font-size="10.00">void killEntity(Entity e)</text>
<text text-anchor="start" x="4" y="-616" font-family="Helvetica,sans-Serif" font-size="10.00">+</text>
<text text-anchor="start" x="17" y="-616" font-family="Helvetica,sans-Serif" font-size="10.00">Signature getSignature</text>
<text text-anchor="start" x="17" y="-605" font-family="Helvetica,sans-Serif" font-size="10.00">(Entity e) const</text>
<text text-anchor="start" x="4" y="-590" font-family="Helvetica,sans-Serif" font-size="10.00">+</text>
<text text-anchor="start" x="17" y="-590" font-family="Helvetica,sans-Serif" font-size="10.00">void setSignature(Entity</text>
<text text-anchor="start" x="17" y="-579" font-family="Helvetica,sans-Serif" font-size="10.00"> e, Signature sig)</text>
<text text-anchor="start" x="4" y="-564" font-family="Helvetica,sans-Serif" font-size="10.00">+</text>
<text text-anchor="start" x="17" y="-564" font-family="Helvetica,sans-Serif" font-size="10.00">Entity addComponent</text>
<text text-anchor="start" x="17" y="-553" font-family="Helvetica,sans-Serif" font-size="10.00">(Entity e, const Component</text>
<text text-anchor="start" x="17" y="-542" font-family="Helvetica,sans-Serif" font-size="10.00">Type &amp;component)</text>
<text text-anchor="start" x="4" y="-527" font-family="Helvetica,sans-Serif" font-size="10.00">+</text>
<text text-anchor="start" x="17" y="-527" font-family="Helvetica,sans-Serif" font-size="10.00">bool hasComponent(Entity</text>
<text text-anchor="start" x="17" y="-516" font-family="Helvetica,sans-Serif" font-size="10.00"> e) const</text>
<text text-anchor="start" x="4" y="-501" font-family="Helvetica,sans-Serif" font-size="10.00">+</text>
<text text-anchor="start" x="17" y="-501" font-family="Helvetica,sans-Serif" font-size="10.00">const ComponentType</text>
<text text-anchor="start" x="17" y="-490" font-family="Helvetica,sans-Serif" font-size="10.00"> * getConstComponent</text>
<text text-anchor="start" x="17" y="-479" font-family="Helvetica,sans-Serif" font-size="10.00">(Entity e) const</text>
<text text-anchor="start" x="4" y="-464" font-family="Helvetica,sans-Serif" font-size="10.00">+</text>
<text text-anchor="start" x="17" y="-464" font-family="Helvetica,sans-Serif" font-size="10.00">ComponentType * getComponent</text>
<text text-anchor="start" x="17" y="-453" font-family="Helvetica,sans-Serif" font-size="10.00">(Entity e)</text>
<text text-anchor="start" x="4" y="-438" font-family="Helvetica,sans-Serif" font-size="10.00">+</text>
<text text-anchor="start" x="17" y="-438" font-family="Helvetica,sans-Serif" font-size="10.00">std::vector&lt; Entity</text>
<text text-anchor="start" x="17" y="-427" font-family="Helvetica,sans-Serif" font-size="10.00"> &gt; getEntitiesByComponents()</text>
<text text-anchor="start" x="4" y="-412" font-family="Helvetica,sans-Serif" font-size="10.00">+</text>
<text text-anchor="start" x="17" y="-412" font-family="Helvetica,sans-Serif" font-size="10.00">void killComponent</text>
<text text-anchor="start" x="17" y="-401" font-family="Helvetica,sans-Serif" font-size="10.00">(Entity e)</text>
<text text-anchor="start" x="4" y="-386" font-family="Helvetica,sans-Serif" font-size="10.00">+</text>
<text text-anchor="start" x="17" y="-386" font-family="Helvetica,sans-Serif" font-size="10.00">double getTime() const</text>
<text text-anchor="start" x="4" y="-371" font-family="Helvetica,sans-Serif" font-size="10.00">+</text>
<text text-anchor="start" x="17" y="-371" font-family="Helvetica,sans-Serif" font-size="10.00">void addTime(double dt)</text>
<text text-anchor="start" x="6.5" y="-356" font-family="Helvetica,sans-Serif" font-size="10.00">&#45;</text>
<text text-anchor="start" x="17" y="-356" font-family="Helvetica,sans-Serif" font-size="10.00">void verifyComponentStorage</text>
<text text-anchor="start" x="17" y="-345" font-family="Helvetica,sans-Serif" font-size="10.00">(ComponentTypeID TypeID)</text>
<polygon fill="#666666" stroke="#666666" points="0,-805 0,-805 184,-805 184,-805 0,-805"/>
<polygon fill="#666666" stroke="#666666" points="0,-686 0,-686 15,-686 15,-686 0,-686"/>
<polygon fill="#666666" stroke="#666666" points="15,-686 15,-686 184,-686 184,-686 15,-686"/>
<polygon fill="none" stroke="#666666" points="0,-338 0,-822 184,-822 184,-338 0,-338"/>
</a>
</g>
</g>
<!-- Node3&#45;&gt;Node2 -->
<g id="edge2_Node000002_Node000003" class="edge">
<title>Node3&#45;&gt;Node2</title>
<g id="a_edge2_Node000002_Node000003"><a xlink:title=" ">
<path fill="none" stroke="#63b8ff" d="M92,-337.76C92,-325.49 92,-313.84 92,-303.17"/>
<polygon fill="none" stroke="#63b8ff" points="92,-303.11 88,-297.11 92,-291.11 96,-297.11 92,-303.11"/>
</a>
</g>
<text text-anchor="middle" x="109" y="-312" font-family="Helvetica,sans-Serif" font-size="10.00" fill="grey"> #_ecs</text>
</g>
</g>
</svg>
