<?xml version="1.0" encoding="UTF-8" standalone="no"?>
<!DOCTYPE svg PUBLIC "-//W3C//DTD SVG 1.1//EN"
 "http://www.w3.org/Graphics/SVG/1.1/DTD/svg11.dtd">
<!-- Generated by graphviz version 2.43.0 (0)
 -->
<!-- Title: StorageComponent&lt; ComponentType &gt; Pages: 1 -->
<svg width="180pt" height="173pt"
 viewBox="0.00 0.00 180.00 173.00" xmlns="http://www.w3.org/2000/svg" xmlns:xlink="http://www.w3.org/1999/xlink">
<g id="graph0" class="graph" transform="scale(1 1) rotate(0) translate(4 169)">
<title>StorageComponent&lt; ComponentType &gt;</title>
<!-- Node1 -->
<g id="Node000001" class="node">
<title>Node1</title>
<g id="a_Node000001"><a xlink:title=" ">
<polygon fill="#999999" stroke="transparent" points="172,-165 0,-165 0,0 172,0 172,-165"/>
<text text-anchor="start" x="5" y="-152.5" font-family="Helvetica,sans-Serif" font-size="10.00">StorageComponent&lt; Component</text>
<text text-anchor="start" x="69" y="-141.5" font-family="Helvetica,sans-Serif" font-size="10.00">Type &gt;</text>
<text text-anchor="start" x="16.5" y="-126.5" font-family="Helvetica,sans-Serif" font-size="10.00">&#45;</text>
<text text-anchor="start" x="37" y="-126.5" font-family="Helvetica,sans-Serif" font-size="10.00">__Storage</text>
<text text-anchor="start" x="16.5" y="-111.5" font-family="Helvetica,sans-Serif" font-size="10.00">&#45;</text>
<text text-anchor="start" x="37" y="-111.5" font-family="Helvetica,sans-Serif" font-size="10.00">__checker</text>
<text text-anchor="start" x="14" y="-96.5" font-family="Helvetica,sans-Serif" font-size="10.00">+</text>
<text text-anchor="start" x="37" y="-96.5" font-family="Helvetica,sans-Serif" font-size="10.00">StorageComponent()</text>
<text text-anchor="start" x="14" y="-81.5" font-family="Helvetica,sans-Serif" font-size="10.00">+</text>
<text text-anchor="start" x="37" y="-81.5" font-family="Helvetica,sans-Serif" font-size="10.00">~StorageComponent()</text>
<text text-anchor="start" x="14" y="-66.5" font-family="Helvetica,sans-Serif" font-size="10.00">+</text>
<text text-anchor="start" x="37" y="-66.5" font-family="Helvetica,sans-Serif" font-size="10.00">add()</text>
<text text-anchor="start" x="14" y="-51.5" font-family="Helvetica,sans-Serif" font-size="10.00">+</text>
<text text-anchor="start" x="37" y="-51.5" font-family="Helvetica,sans-Serif" font-size="10.00">has()</text>
<text text-anchor="start" x="14" y="-36.5" font-family="Helvetica,sans-Serif" font-size="10.00">+</text>
<text text-anchor="start" x="37" y="-36.5" font-family="Helvetica,sans-Serif" font-size="10.00">get()</text>
<text text-anchor="start" x="14" y="-21.5" font-family="Helvetica,sans-Serif" font-size="10.00">+</text>
<text text-anchor="start" x="37" y="-21.5" font-family="Helvetica,sans-Serif" font-size="10.00">get()</text>
<text text-anchor="start" x="14" y="-6.5" font-family="Helvetica,sans-Serif" font-size="10.00">+</text>
<text text-anchor="start" x="37" y="-6.5" font-family="Helvetica,sans-Serif" font-size="10.00">kill()</text>
<polygon fill="#666666" stroke="#666666" points="0,-136.5 0,-136.5 172,-136.5 172,-136.5 0,-136.5"/>
<polygon fill="#666666" stroke="#666666" points="0,-106.5 0,-106.5 35,-106.5 35,-106.5 0,-106.5"/>
<polygon fill="#666666" stroke="#666666" points="35,-106.5 35,-106.5 172,-106.5 172,-106.5 35,-106.5"/>
<polygon fill="none" stroke="#666666" points="0,0 0,-165 172,-165 172,0 0,0"/>
</a>
</g>
</g>
</g>
</svg>
