<?xml version="1.0" encoding="UTF-8" standalone="no"?>
<!DOCTYPE svg PUBLIC "-//W3C//DTD SVG 1.1//EN"
 "http://www.w3.org/Graphics/SVG/1.1/DTD/svg11.dtd">
<!-- Generated by graphviz version 2.43.0 (0)
 -->
<!-- Title: SafeQueue&lt; T &gt; Pages: 1 -->
<svg width="700pt" height="309pt"
 viewBox="0.00 0.00 700.00 309.00" xmlns="http://www.w3.org/2000/svg" xmlns:xlink="http://www.w3.org/1999/xlink">
<g id="graph0" class="graph" transform="scale(1 1) rotate(0) translate(4 305)">
<title>SafeQueue&lt; T &gt;</title>
<!-- Node1 -->
<g id="Node000001" class="node">
<title>Node1</title>
<g id="a_Node000001"><a xlink:title=" ">
<polygon fill="#999999" stroke="transparent" points="416.5,-301 267.5,-301 267.5,-207 416.5,-207 416.5,-301"/>
<text text-anchor="start" x="301.5" y="-289" font-family="Helvetica,sans-Serif" font-size="10.00">SafeQueue&lt; T &gt;</text>
<text text-anchor="start" x="274.5" y="-274" font-family="Helvetica,sans-Serif" font-size="10.00">&#45;</text>
<text text-anchor="start" x="285" y="-274" font-family="Helvetica,sans-Serif" font-size="10.00">std::queue&lt; T &gt; queue_</text>
<text text-anchor="start" x="274.5" y="-259" font-family="Helvetica,sans-Serif" font-size="10.00">&#45;</text>
<text text-anchor="start" x="285" y="-259" font-family="Helvetica,sans-Serif" font-size="10.00">std::mutex mutex_</text>
<text text-anchor="start" x="272" y="-244" font-family="Helvetica,sans-Serif" font-size="10.00">+</text>
<text text-anchor="start" x="285" y="-244" font-family="Helvetica,sans-Serif" font-size="10.00">SafeQueue()=default</text>
<text text-anchor="start" x="272" y="-229" font-family="Helvetica,sans-Serif" font-size="10.00">+</text>
<text text-anchor="start" x="285" y="-229" font-family="Helvetica,sans-Serif" font-size="10.00">void push(const T &amp;value)</text>
<text text-anchor="start" x="272" y="-214" font-family="Helvetica,sans-Serif" font-size="10.00">+</text>
<text text-anchor="start" x="285" y="-214" font-family="Helvetica,sans-Serif" font-size="10.00">bool tryPop(T &amp;value)</text>
<polygon fill="#666666" stroke="#666666" points="268,-284 268,-284 417,-284 417,-284 268,-284"/>
<polygon fill="#666666" stroke="#666666" points="268,-254 268,-254 283,-254 283,-254 268,-254"/>
<polygon fill="#666666" stroke="#666666" points="283,-254 283,-254 417,-254 417,-254 283,-254"/>
<polygon fill="none" stroke="#666666" points="267.5,-207 267.5,-301 416.5,-301 416.5,-207 267.5,-207"/>
</a>
</g>
</g>
<!-- Node2 -->
<g id="Node000002" class="node">
<title>Node2</title>
<g id="a_Node000002"><a xlink:href="classSafeQueue.html" target="_top" xlink:title=" ">
<polygon fill="white" stroke="transparent" points="152,-143.5 0,-143.5 0,-16.5 152,-16.5 152,-143.5"/>
<text text-anchor="start" x="12.5" y="-131" font-family="Helvetica,sans-Serif" font-size="10.00">SafeQueue&lt; InputState &gt;</text>
<text text-anchor="start" x="6.5" y="-116" font-family="Helvetica,sans-Serif" font-size="10.00">&#45;</text>
<text text-anchor="start" x="17" y="-116" font-family="Helvetica,sans-Serif" font-size="10.00">std::queue&lt; InputState</text>
<text text-anchor="start" x="17" y="-105" font-family="Helvetica,sans-Serif" font-size="10.00"> &gt; queue_</text>
<text text-anchor="start" x="6.5" y="-90" font-family="Helvetica,sans-Serif" font-size="10.00">&#45;</text>
<text text-anchor="start" x="17" y="-90" font-family="Helvetica,sans-Serif" font-size="10.00">std::mutex mutex_</text>
<text text-anchor="start" x="4" y="-75" font-family="Helvetica,sans-Serif" font-size="10.00">+</text>
<text text-anchor="start" x="17" y="-75" font-family="Helvetica,sans-Serif" font-size="10.00">SafeQueue()=default</text>
<text text-anchor="start" x="4" y="-60" font-family="Helvetica,sans-Serif" font-size="10.00">+</text>
<text text-anchor="start" x="17" y="-60" font-family="Helvetica,sans-Serif" font-size="10.00">void push(const InputState</text>
<text text-anchor="start" x="17" y="-49" font-family="Helvetica,sans-Serif" font-size="10.00"> &amp;value)</text>
<text text-anchor="start" x="4" y="-34" font-family="Helvetica,sans-Serif" font-size="10.00">+</text>
<text text-anchor="start" x="17" y="-34" font-family="Helvetica,sans-Serif" font-size="10.00">bool tryPop(InputState</text>
<text text-anchor="start" x="17" y="-23" font-family="Helvetica,sans-Serif" font-size="10.00"> &amp;value)</text>
<polygon fill="#666666" stroke="#666666" points="0,-126 0,-126 152,-126 152,-126 0,-126"/>
<polygon fill="#666666" stroke="#666666" points="0,-85 0,-85 15,-85 15,-85 0,-85"/>
<polygon fill="#666666" stroke="#666666" points="15,-85 15,-85 152,-85 152,-85 15,-85"/>
<polygon fill="none" stroke="#666666" points="0,-16.5 0,-143.5 152,-143.5 152,-16.5 0,-16.5"/>
</a>
</g>
</g>
<!-- Node1&#45;&gt;Node2 -->
<g id="edge1_Node000001_Node000002" class="edge">
<title>Node1&#45;&gt;Node2</title>
<g id="a_edge1_Node000001_Node000002"><a xlink:title=" ">
<path fill="none" stroke="orange" d="M257.39,-232.2C226.86,-222.21 193.25,-208.14 166,-189 148.43,-176.65 132.3,-160.03 118.7,-143.54"/>
<polygon fill="orange" stroke="orange" points="256.59,-235.62 267.18,-235.3 258.7,-228.95 256.59,-235.62"/>
</a>
</g>
<text text-anchor="middle" x="204" y="-181" font-family="Helvetica,sans-Serif" font-size="10.00" fill="grey"> &lt; InputState &gt;</text>
</g>
<!-- Node3 -->
<g id="Node000003" class="node">
<title>Node3</title>
<g id="a_Node000003"><a xlink:href="classSafeQueue.html" target="_top" xlink:title=" ">
<polygon fill="white" stroke="transparent" points="327.5,-154.5 170.5,-154.5 170.5,-5.5 327.5,-5.5 327.5,-154.5"/>
<text text-anchor="start" x="191" y="-142" font-family="Helvetica,sans-Serif" font-size="10.00">SafeQueue&lt; std::vector</text>
<text text-anchor="start" x="200.5" y="-131" font-family="Helvetica,sans-Serif" font-size="10.00">&lt; EntityUpdate &gt; &gt;</text>
<text text-anchor="start" x="177.5" y="-116" font-family="Helvetica,sans-Serif" font-size="10.00">&#45;</text>
<text text-anchor="start" x="188" y="-116" font-family="Helvetica,sans-Serif" font-size="10.00">std::queue&lt; std::vector</text>
<text text-anchor="start" x="188" y="-105" font-family="Helvetica,sans-Serif" font-size="10.00">&lt; EntityUpdate &gt; &gt; queue_</text>
<text text-anchor="start" x="177.5" y="-90" font-family="Helvetica,sans-Serif" font-size="10.00">&#45;</text>
<text text-anchor="start" x="188" y="-90" font-family="Helvetica,sans-Serif" font-size="10.00">std::mutex mutex_</text>
<text text-anchor="start" x="175" y="-75" font-family="Helvetica,sans-Serif" font-size="10.00">+</text>
<text text-anchor="start" x="188" y="-75" font-family="Helvetica,sans-Serif" font-size="10.00">SafeQueue()=default</text>
<text text-anchor="start" x="175" y="-60" font-family="Helvetica,sans-Serif" font-size="10.00">+</text>
<text text-anchor="start" x="188" y="-60" font-family="Helvetica,sans-Serif" font-size="10.00">void push(const std</text>
<text text-anchor="start" x="188" y="-49" font-family="Helvetica,sans-Serif" font-size="10.00">::vector&lt; EntityUpdate</text>
<text text-anchor="start" x="188" y="-38" font-family="Helvetica,sans-Serif" font-size="10.00"> &gt; &amp;value)</text>
<text text-anchor="start" x="175" y="-23" font-family="Helvetica,sans-Serif" font-size="10.00">+</text>
<text text-anchor="start" x="188" y="-23" font-family="Helvetica,sans-Serif" font-size="10.00">bool tryPop(std::vector</text>
<text text-anchor="start" x="188" y="-12" font-family="Helvetica,sans-Serif" font-size="10.00">&lt; EntityUpdate &gt; &amp;value)</text>
<polygon fill="#666666" stroke="#666666" points="171,-126 171,-126 328,-126 328,-126 171,-126"/>
<polygon fill="#666666" stroke="#666666" points="171,-85 171,-85 186,-85 186,-85 171,-85"/>
<polygon fill="#666666" stroke="#666666" points="186,-85 186,-85 328,-85 328,-85 186,-85"/>
<polygon fill="none" stroke="#666666" points="170.5,-5.5 170.5,-154.5 327.5,-154.5 327.5,-5.5 170.5,-5.5"/>
</a>
</g>
</g>
<!-- Node1&#45;&gt;Node3 -->
<g id="edge2_Node000001_Node000003" class="edge">
<title>Node1&#45;&gt;Node3</title>
<g id="a_edge2_Node000001_Node000003"><a xlink:title=" ">
<path fill="none" stroke="orange" d="M260.16,-203.83C256.25,-199.23 252.8,-194.29 250,-189 244.44,-178.47 241.57,-166.52 240.41,-154.5"/>
<polygon fill="orange" stroke="orange" points="257.73,-206.37 267.13,-211.26 262.84,-201.58 257.73,-206.37"/>
</a>
</g>
<text text-anchor="middle" x="332" y="-181" font-family="Helvetica,sans-Serif" font-size="10.00" fill="grey"> &lt; std::vector&lt; EntityUpdate &gt; &gt;</text>
</g>
<!-- Node4 -->
<g id="Node000004" class="node">
<title>Node4</title>
<g id="a_Node000004"><a xlink:href="classSafeQueue.html" target="_top" xlink:title=" ">
<polygon fill="white" stroke="transparent" points="513,-160 359,-160 359,0 513,0 513,-160"/>
<text text-anchor="start" x="383.5" y="-148" font-family="Helvetica,sans-Serif" font-size="10.00">SafeQueue&lt; std::pair</text>
<text text-anchor="start" x="384.5" y="-137" font-family="Helvetica,sans-Serif" font-size="10.00">&lt; int, InputState &gt; &gt;</text>
<text text-anchor="start" x="365.5" y="-122" font-family="Helvetica,sans-Serif" font-size="10.00">&#45;</text>
<text text-anchor="start" x="376" y="-122" font-family="Helvetica,sans-Serif" font-size="10.00">std::queue&lt; std::pair</text>
<text text-anchor="start" x="376" y="-111" font-family="Helvetica,sans-Serif" font-size="10.00">&lt; int, InputState &gt; &gt;</text>
<text text-anchor="start" x="376" y="-100" font-family="Helvetica,sans-Serif" font-size="10.00"> queue_</text>
<text text-anchor="start" x="365.5" y="-85" font-family="Helvetica,sans-Serif" font-size="10.00">&#45;</text>
<text text-anchor="start" x="376" y="-85" font-family="Helvetica,sans-Serif" font-size="10.00">std::mutex mutex_</text>
<text text-anchor="start" x="363" y="-70" font-family="Helvetica,sans-Serif" font-size="10.00">+</text>
<text text-anchor="start" x="376" y="-70" font-family="Helvetica,sans-Serif" font-size="10.00">SafeQueue()=default</text>
<text text-anchor="start" x="363" y="-55" font-family="Helvetica,sans-Serif" font-size="10.00">+</text>
<text text-anchor="start" x="376" y="-55" font-family="Helvetica,sans-Serif" font-size="10.00">void push(const std</text>
<text text-anchor="start" x="376" y="-44" font-family="Helvetica,sans-Serif" font-size="10.00">::pair&lt; int, InputState</text>
<text text-anchor="start" x="376" y="-33" font-family="Helvetica,sans-Serif" font-size="10.00"> &gt; &amp;value)</text>
<text text-anchor="start" x="363" y="-18" font-family="Helvetica,sans-Serif" font-size="10.00">+</text>
<text text-anchor="start" x="376" y="-18" font-family="Helvetica,sans-Serif" font-size="10.00">bool tryPop(std::pair</text>
<text text-anchor="start" x="376" y="-7" font-family="Helvetica,sans-Serif" font-size="10.00">&lt; int, InputState &gt; &amp;value)</text>
<polygon fill="#666666" stroke="#666666" points="359,-132 359,-132 513,-132 513,-132 359,-132"/>
<polygon fill="#666666" stroke="#666666" points="359,-80 359,-80 374,-80 374,-80 359,-80"/>
<polygon fill="#666666" stroke="#666666" points="374,-80 374,-80 513,-80 513,-80 374,-80"/>
<polygon fill="none" stroke="#666666" points="359,0 359,-160 513,-160 513,0 359,0"/>
</a>
</g>
</g>
<!-- Node1&#45;&gt;Node4 -->
<g id="edge3_Node000001_Node000004" class="edge">
<title>Node1&#45;&gt;Node4</title>
<g id="a_edge3_Node000001_Node000004"><a xlink:title=" ">
<path fill="none" stroke="orange" d="M407.43,-198.95C409.83,-195.73 412.04,-192.41 414,-189 419.11,-180.13 423.04,-170.25 426.07,-160.17"/>
<polygon fill="orange" stroke="orange" points="404.69,-196.77 401.13,-206.75 410.14,-201.17 404.69,-196.77"/>
</a>
</g>
<text text-anchor="middle" x="498.5" y="-181" font-family="Helvetica,sans-Serif" font-size="10.00" fill="grey"> &lt; std::pair&lt; int, InputState &gt; &gt;</text>
</g>
<!-- Node5 -->
<g id="Node000005" class="node">
<title>Node5</title>
<g id="a_Node000005"><a xlink:href="classSafeQueue.html" target="_top" xlink:title=" ">
<polygon fill="white" stroke="transparent" points="692,-143.5 540,-143.5 540,-16.5 692,-16.5 692,-143.5"/>
<text text-anchor="start" x="545" y="-131" font-family="Helvetica,sans-Serif" font-size="10.00">SafeQueue&lt; PacketToSend &gt;</text>
<text text-anchor="start" x="547" y="-116" font-family="Helvetica,sans-Serif" font-size="10.00">&#45;</text>
<text text-anchor="start" x="558" y="-116" font-family="Helvetica,sans-Serif" font-size="10.00">std::queue&lt; PacketToSend</text>
<text text-anchor="start" x="558" y="-105" font-family="Helvetica,sans-Serif" font-size="10.00"> &gt; queue_</text>
<text text-anchor="start" x="547" y="-90" font-family="Helvetica,sans-Serif" font-size="10.00">&#45;</text>
<text text-anchor="start" x="558" y="-90" font-family="Helvetica,sans-Serif" font-size="10.00">std::mutex mutex_</text>
<text text-anchor="start" x="544.5" y="-75" font-family="Helvetica,sans-Serif" font-size="10.00">+</text>
<text text-anchor="start" x="558" y="-75" font-family="Helvetica,sans-Serif" font-size="10.00">SafeQueue()=default</text>
<text text-anchor="start" x="544.5" y="-60" font-family="Helvetica,sans-Serif" font-size="10.00">+</text>
<text text-anchor="start" x="558" y="-60" font-family="Helvetica,sans-Serif" font-size="10.00">void push(const PacketTo</text>
<text text-anchor="start" x="558" y="-49" font-family="Helvetica,sans-Serif" font-size="10.00">Send &amp;value)</text>
<text text-anchor="start" x="544.5" y="-34" font-family="Helvetica,sans-Serif" font-size="10.00">+</text>
<text text-anchor="start" x="558" y="-34" font-family="Helvetica,sans-Serif" font-size="10.00">bool tryPop(PacketToSend</text>
<text text-anchor="start" x="558" y="-23" font-family="Helvetica,sans-Serif" font-size="10.00"> &amp;value)</text>
<polygon fill="#666666" stroke="#666666" points="540,-126 540,-126 692,-126 692,-126 540,-126"/>
<polygon fill="#666666" stroke="#666666" points="540,-85 540,-85 556,-85 556,-85 540,-85"/>
<polygon fill="#666666" stroke="#666666" points="556,-85 556,-85 692,-85 692,-85 556,-85"/>
<polygon fill="none" stroke="#666666" points="540,-16.5 540,-143.5 692,-143.5 692,-16.5 540,-16.5"/>
</a>
</g>
</g>
<!-- Node1&#45;&gt;Node5 -->
<g id="edge4_Node000001_Node000005" class="edge">
<title>Node1&#45;&gt;Node5</title>
<g id="a_edge4_Node000001_Node000005"><a xlink:title=" ">
<path fill="none" stroke="orange" d="M426.74,-250.01C477.45,-243.88 539.82,-228.1 581,-189 593.65,-176.99 601.74,-160.38 606.9,-143.78"/>
<polygon fill="orange" stroke="orange" points="426.32,-246.53 416.77,-251.11 427.09,-253.49 426.32,-246.53"/>
</a>
</g>
<text text-anchor="middle" x="635" y="-181" font-family="Helvetica,sans-Serif" font-size="10.00" fill="grey"> &lt; PacketToSend &gt;</text>
</g>
</g>
</svg>
