<?xml version="1.0" encoding="UTF-8" standalone="no"?>
<!DOCTYPE svg PUBLIC "-//W3C//DTD SVG 1.1//EN"
 "http://www.w3.org/Graphics/SVG/1.1/DTD/svg11.dtd">
<!-- Generated by graphviz version 2.43.0 (0)
 -->
<!-- Title: GameEngine Pages: 1 -->
<!--zoomable 1384 -->

<svg id="main" version="1.1" xmlns="http://www.w3.org/2000/svg" xmlns:xlink="http://www.w3.org/1999/xlink" xml:space="preserve" onload="init(evt)">
<style type="text/css"><![CDATA[
.node, .edge {opacity: 0.7;}
.node.selected, .edge.selected {opacity: 1;}
.edge:hover path { stroke: red; }
.edge:hover polygon { stroke: red; fill: red; }
]]></style>

<defs>
  <circle id="rim" cx="0" cy="0" r="7"/>
  <circle id="rim2" cx="0" cy="0" r="3.5"/>
  <g id="zoomPlus">
    <use xlink:href="#rim" fill="#404040"><set attributeName="fill" to="#808080" begin="zoomplus.mouseover" end="zoomplus.mouseout"/></use>
    <path d="M-4,0h8M0,-4v8" fill="none" stroke="white" stroke-width="1.5" pointer-events="none"/>
  </g>
  <g id="zoomMin">
    <use xlink:href="#rim" fill="#404040"><set attributeName="fill" to="#808080" begin="zoomminus.mouseover" end="zoomminus.mouseout"/></use>
    <path d="M-4,0h8" fill="none" stroke="white" stroke-width="1.5" pointer-events="none"/>
  </g>
  <g id="arrowUp" transform="translate(30 24)">
    <use xlink:href="#rim"/>
    <path pointer-events="none" fill="none" stroke="white" stroke-width="1.5" d="M0,-3.0v7 M-2.5,-0.5L0,-3.0L2.5,-0.5"/>
  </g>
  <g id="arrowRight" transform="rotate(90) translate(36 -43)">
    <use xlink:href="#rim"/>
    <path pointer-events="none" fill="none" stroke="white" stroke-width="1.5" d="M0,-3.0v7 M-2.5,-0.5L0,-3.0L2.5,-0.5"/>
  </g>
  <g id="arrowDown" transform="rotate(180) translate(-30 -48)">
    <use xlink:href="#rim"/>
    <path pointer-events="none" fill="none" stroke="white" stroke-width="1.5" d="M0,-3.0v7 M-2.5,-0.5L0,-3.0L2.5,-0.5"/>
  </g>
  <g id="arrowLeft" transform="rotate(270) translate(-36 17)">
    <use xlink:href="#rim"/>
    <path pointer-events="none" fill="none" stroke="white" stroke-width="1.5" d="M0,-3.0v7 M-2.5,-0.5L0,-3.0L2.5,-0.5"/>
  </g>
  <g id="resetDef">
    <use xlink:href="#rim2" fill="#404040"><set attributeName="fill" to="#808080" begin="reset.mouseover" end="reset.mouseout"/></use>
  </g>
</defs>
<script type="application/ecmascript">
var viewWidth = 194;
var viewHeight = 1384;
var sectionId = 'dynsection-0';
</script>
<script type="application/ecmascript" xlink:href="svg.min.js"/>
<svg id="graph" class="graph">
<g id="viewport">
<title>GameEngine</title>
<!-- Node1 -->
<g id="Node000001" class="node">
<title>Node1</title>
<g id="a_Node000001"><a xlink:title=" ">
<polygon fill="#999999" stroke="transparent" points="168,-139 18,-139 18,0 168,0 168,-139"/>
<text text-anchor="start" x="61.5" y="-126.5" font-family="Helvetica,sans-Serif" font-size="10.00">GameEngine</text>
<text text-anchor="start" x="24.5" y="-111.5" font-family="Helvetica,sans-Serif" font-size="10.00">&#45;</text>
<text text-anchor="start" x="35" y="-111.5" font-family="Helvetica,sans-Serif" font-size="10.00">sf::RenderWindow window</text>
<text text-anchor="start" x="24.5" y="-96.5" font-family="Helvetica,sans-Serif" font-size="10.00">&#45;</text>
<text text-anchor="start" x="35" y="-96.5" font-family="Helvetica,sans-Serif" font-size="10.00">bool isRunning</text>
<text text-anchor="start" x="22" y="-81.5" font-family="Helvetica,sans-Serif" font-size="10.00">+</text>
<text text-anchor="start" x="35" y="-81.5" font-family="Helvetica,sans-Serif" font-size="10.00">GameEngine()</text>
<text text-anchor="start" x="22" y="-66.5" font-family="Helvetica,sans-Serif" font-size="10.00">+</text>
<text text-anchor="start" x="35" y="-66.5" font-family="Helvetica,sans-Serif" font-size="10.00">~GameEngine()</text>
<text text-anchor="start" x="22" y="-51.5" font-family="Helvetica,sans-Serif" font-size="10.00">+</text>
<text text-anchor="start" x="35" y="-51.5" font-family="Helvetica,sans-Serif" font-size="10.00">void run()</text>
<text text-anchor="start" x="24.5" y="-36.5" font-family="Helvetica,sans-Serif" font-size="10.00">&#45;</text>
<text text-anchor="start" x="35" y="-36.5" font-family="Helvetica,sans-Serif" font-size="10.00">void processInputs()</text>
<text text-anchor="start" x="24.5" y="-21.5" font-family="Helvetica,sans-Serif" font-size="10.00">&#45;</text>
<text text-anchor="start" x="35" y="-21.5" font-family="Helvetica,sans-Serif" font-size="10.00">void update()</text>
<text text-anchor="start" x="24.5" y="-6.5" font-family="Helvetica,sans-Serif" font-size="10.00">&#45;</text>
<text text-anchor="start" x="35" y="-6.5" font-family="Helvetica,sans-Serif" font-size="10.00">void render()</text>
<polygon fill="#666666" stroke="#666666" points="18,-121.5 18,-121.5 168,-121.5 168,-121.5 18,-121.5"/>
<polygon fill="#666666" stroke="#666666" points="18,-91.5 18,-91.5 33,-91.5 33,-91.5 18,-91.5"/>
<polygon fill="#666666" stroke="#666666" points="33,-91.5 33,-91.5 168,-91.5 168,-91.5 33,-91.5"/>
<polygon fill="none" stroke="#666666" points="18,0 18,-139 168,-139 168,0 18,0"/>
</a>
</g>
</g>
<!-- Node2 -->
<g id="Node000002" class="node">
<title>Node2</title>
<g id="a_Node000002"><a xlink:href="classInputSystem.html" target="_top" xlink:title=" ">
<polygon fill="white" stroke="transparent" points="186,-655 0,-655 0,-186 186,-186 186,-655"/>
<text text-anchor="start" x="62" y="-642.5" font-family="Helvetica,sans-Serif" font-size="10.00">InputSystem</text>
<text text-anchor="start" x="6.5" y="-627.5" font-family="Helvetica,sans-Serif" font-size="10.00">&#45;</text>
<text text-anchor="start" x="17" y="-627.5" font-family="Helvetica,sans-Serif" font-size="10.00">std::map&lt; sf::Keyboard</text>
<text text-anchor="start" x="17" y="-616.5" font-family="Helvetica,sans-Serif" font-size="10.00">::Key, GameAction &gt; m</text>
<text text-anchor="start" x="17" y="-605.5" font-family="Helvetica,sans-Serif" font-size="10.00">_keyMappings</text>
<text text-anchor="start" x="6.5" y="-590.5" font-family="Helvetica,sans-Serif" font-size="10.00">&#45;</text>
<text text-anchor="start" x="17" y="-590.5" font-family="Helvetica,sans-Serif" font-size="10.00">std::map&lt; unsigned</text>
<text text-anchor="start" x="17" y="-579.5" font-family="Helvetica,sans-Serif" font-size="10.00"> int, GameAction &gt; m</text>
<text text-anchor="start" x="17" y="-568.5" font-family="Helvetica,sans-Serif" font-size="10.00">_joystickButtonMappings</text>
<text text-anchor="start" x="6.5" y="-553.5" font-family="Helvetica,sans-Serif" font-size="10.00">&#45;</text>
<text text-anchor="start" x="17" y="-553.5" font-family="Helvetica,sans-Serif" font-size="10.00">std::map&lt; GameAction,</text>
<text text-anchor="start" x="17" y="-542.5" font-family="Helvetica,sans-Serif" font-size="10.00"> bool &gt; m_currentActionStates</text>
<text text-anchor="start" x="6.5" y="-527.5" font-family="Helvetica,sans-Serif" font-size="10.00">&#45;</text>
<text text-anchor="start" x="17" y="-527.5" font-family="Helvetica,sans-Serif" font-size="10.00">std::map&lt; GameAction,</text>
<text text-anchor="start" x="17" y="-516.5" font-family="Helvetica,sans-Serif" font-size="10.00"> bool &gt; m_previousActionStates</text>
<text text-anchor="start" x="6.5" y="-501.5" font-family="Helvetica,sans-Serif" font-size="10.00">&#45;</text>
<text text-anchor="start" x="17" y="-501.5" font-family="Helvetica,sans-Serif" font-size="10.00">unsigned int m_joystickId</text>
<text text-anchor="start" x="6.5" y="-486.5" font-family="Helvetica,sans-Serif" font-size="10.00">&#45;</text>
<text text-anchor="start" x="17" y="-486.5" font-family="Helvetica,sans-Serif" font-size="10.00">float m_deadzone</text>
<text text-anchor="start" x="6.5" y="-471.5" font-family="Helvetica,sans-Serif" font-size="10.00">&#45;</text>
<text text-anchor="start" x="17" y="-471.5" font-family="Helvetica,sans-Serif" font-size="10.00">float m_playerSpeed</text>
<text text-anchor="start" x="4" y="-456.5" font-family="Helvetica,sans-Serif" font-size="10.00">+</text>
<text text-anchor="start" x="17" y="-456.5" font-family="Helvetica,sans-Serif" font-size="10.00">InputSystem(ECS &amp;ecs)</text>
<text text-anchor="start" x="4" y="-441.5" font-family="Helvetica,sans-Serif" font-size="10.00">+</text>
<text text-anchor="start" x="17" y="-441.5" font-family="Helvetica,sans-Serif" font-size="10.00">~InputSystem()=default</text>
<text text-anchor="start" x="4" y="-426.5" font-family="Helvetica,sans-Serif" font-size="10.00">+</text>
<text text-anchor="start" x="17" y="-426.5" font-family="Helvetica,sans-Serif" font-size="10.00">void update(double</text>
<text text-anchor="start" x="17" y="-415.5" font-family="Helvetica,sans-Serif" font-size="10.00"> dt) override</text>
<text text-anchor="start" x="4" y="-400.5" font-family="Helvetica,sans-Serif" font-size="10.00">+</text>
<text text-anchor="start" x="17" y="-400.5" font-family="Helvetica,sans-Serif" font-size="10.00">bool isActionActive</text>
<text text-anchor="start" x="17" y="-389.5" font-family="Helvetica,sans-Serif" font-size="10.00">(GameAction action) const</text>
<text text-anchor="start" x="4" y="-374.5" font-family="Helvetica,sans-Serif" font-size="10.00">+</text>
<text text-anchor="start" x="17" y="-374.5" font-family="Helvetica,sans-Serif" font-size="10.00">bool wasActionPressed</text>
<text text-anchor="start" x="17" y="-363.5" font-family="Helvetica,sans-Serif" font-size="10.00">(GameAction action) const</text>
<text text-anchor="start" x="4" y="-348.5" font-family="Helvetica,sans-Serif" font-size="10.00">+</text>
<text text-anchor="start" x="17" y="-348.5" font-family="Helvetica,sans-Serif" font-size="10.00">bool wasActionReleased</text>
<text text-anchor="start" x="17" y="-337.5" font-family="Helvetica,sans-Serif" font-size="10.00">(GameAction action) const</text>
<text text-anchor="start" x="4" y="-322.5" font-family="Helvetica,sans-Serif" font-size="10.00">+</text>
<text text-anchor="start" x="17" y="-322.5" font-family="Helvetica,sans-Serif" font-size="10.00">void setKeyMapping</text>
<text text-anchor="start" x="17" y="-311.5" font-family="Helvetica,sans-Serif" font-size="10.00">(sf::Keyboard::Key key,</text>
<text text-anchor="start" x="17" y="-300.5" font-family="Helvetica,sans-Serif" font-size="10.00"> GameAction action)</text>
<text text-anchor="start" x="4" y="-285.5" font-family="Helvetica,sans-Serif" font-size="10.00">+</text>
<text text-anchor="start" x="17" y="-285.5" font-family="Helvetica,sans-Serif" font-size="10.00">void setJoystickButtonMapping</text>
<text text-anchor="start" x="17" y="-274.5" font-family="Helvetica,sans-Serif" font-size="10.00">(unsigned int button, GameAction</text>
<text text-anchor="start" x="17" y="-263.5" font-family="Helvetica,sans-Serif" font-size="10.00"> action)</text>
<text text-anchor="start" x="4" y="-248.5" font-family="Helvetica,sans-Serif" font-size="10.00">+</text>
<text text-anchor="start" x="17" y="-248.5" font-family="Helvetica,sans-Serif" font-size="10.00">void setDeadzone(float</text>
<text text-anchor="start" x="17" y="-237.5" font-family="Helvetica,sans-Serif" font-size="10.00"> deadzone)</text>
<text text-anchor="start" x="6.5" y="-222.5" font-family="Helvetica,sans-Serif" font-size="10.00">&#45;</text>
<text text-anchor="start" x="17" y="-222.5" font-family="Helvetica,sans-Serif" font-size="10.00">void setDefaultMappings()</text>
<text text-anchor="start" x="6.5" y="-207.5" font-family="Helvetica,sans-Serif" font-size="10.00">&#45;</text>
<text text-anchor="start" x="17" y="-207.5" font-family="Helvetica,sans-Serif" font-size="10.00">void updateJoystickInput()</text>
<text text-anchor="start" x="6.5" y="-192.5" font-family="Helvetica,sans-Serif" font-size="10.00">&#45;</text>
<text text-anchor="start" x="17" y="-192.5" font-family="Helvetica,sans-Serif" font-size="10.00">void applyInputToPlayers()</text>
<polygon fill="#666666" stroke="#666666" points="0,-637.5 0,-637.5 186,-637.5 186,-637.5 0,-637.5"/>
<polygon fill="#666666" stroke="#666666" points="0,-466.5 0,-466.5 15,-466.5 15,-466.5 0,-466.5"/>
<polygon fill="#666666" stroke="#666666" points="15,-466.5 15,-466.5 186,-466.5 186,-466.5 15,-466.5"/>
<polygon fill="none" stroke="#666666" points="0,-186 0,-655 186,-655 186,-186 0,-186"/>
</a>
</g>
</g>
<!-- Node2&#45;&gt;Node1 -->
<g id="edge1_Node000001_Node000002" class="edge">
<title>Node2&#45;&gt;Node1</title>
<g id="a_edge1_Node000001_Node000002"><a xlink:title=" ">
<path fill="none" stroke="#63b8ff" d="M93,-185.74C93,-173.87 93,-162.42 93,-151.64"/>
<polygon fill="none" stroke="#63b8ff" points="93,-151.31 89,-145.31 93,-139.31 97,-145.31 93,-151.31"/>
</a>
</g>
<text text-anchor="middle" x="127.5" y="-160" font-family="Helvetica,sans-Serif" font-size="10.00" fill="grey"> &#45;inputSystem</text>
</g>
<!-- Node3 -->
<g id="Node000003" class="node">
<title>Node3</title>
<g id="a_Node000003"><a xlink:href="classISystem.html" target="_top" xlink:title="Interface for systems in the ECS.">
<polygon fill="white" stroke="transparent" points="150.5,-860 35.5,-860 35.5,-692 150.5,-692 150.5,-860"/>
<text text-anchor="start" x="73.5" y="-848" font-family="Helvetica,sans-Serif" font-size="10.00">ISystem</text>
<text text-anchor="start" x="91.5" y="-833" font-family="Helvetica,sans-Serif" font-size="10.00"> </text>
<text text-anchor="start" x="40" y="-818" font-family="Helvetica,sans-Serif" font-size="10.00">+</text>
<text text-anchor="start" x="53" y="-818" font-family="Helvetica,sans-Serif" font-size="10.00">ISystem(ECS &amp;ecs)</text>
<text text-anchor="start" x="40" y="-803" font-family="Helvetica,sans-Serif" font-size="10.00">+</text>
<text text-anchor="start" x="53" y="-803" font-family="Helvetica,sans-Serif" font-size="10.00">virtual ~ISystem()</text>
<text text-anchor="start" x="53" y="-792" font-family="Helvetica,sans-Serif" font-size="10.00">=default</text>
<text text-anchor="start" x="40" y="-777" font-family="Helvetica,sans-Serif" font-size="10.00">+</text>
<text text-anchor="start" x="53" y="-777" font-family="Helvetica,sans-Serif" font-size="10.00">virtual void update</text>
<text text-anchor="start" x="53" y="-766" font-family="Helvetica,sans-Serif" font-size="10.00">(double dt)=0</text>
<text text-anchor="start" x="40" y="-751" font-family="Helvetica,sans-Serif" font-size="10.00">+</text>
<text text-anchor="start" x="53" y="-751" font-family="Helvetica,sans-Serif" font-size="10.00">ISystem(ECS &amp;ecs)</text>
<text text-anchor="start" x="40" y="-736" font-family="Helvetica,sans-Serif" font-size="10.00">+</text>
<text text-anchor="start" x="53" y="-736" font-family="Helvetica,sans-Serif" font-size="10.00">virtual ~ISystem()</text>
<text text-anchor="start" x="53" y="-725" font-family="Helvetica,sans-Serif" font-size="10.00">=default</text>
<text text-anchor="start" x="40" y="-710" font-family="Helvetica,sans-Serif" font-size="10.00">+</text>
<text text-anchor="start" x="53" y="-710" font-family="Helvetica,sans-Serif" font-size="10.00">virtual void update</text>
<text text-anchor="start" x="53" y="-699" font-family="Helvetica,sans-Serif" font-size="10.00">(double dt)=0</text>
<polygon fill="#666666" stroke="#666666" points="36,-843 36,-843 151,-843 151,-843 36,-843"/>
<polygon fill="#666666" stroke="#666666" points="36,-828 36,-828 151,-828 151,-828 36,-828"/>
<polygon fill="none" stroke="#666666" points="35.5,-692 35.5,-860 150.5,-860 150.5,-692 35.5,-692"/>
</a>
</g>
</g>
<!-- Node3&#45;&gt;Node2 -->
<g id="edge2_Node000002_Node000003" class="edge">
<title>Node3&#45;&gt;Node2</title>
<g id="a_edge2_Node000002_Node000003"><a xlink:title=" ">
<path fill="none" stroke="#63b8ff" d="M93,-681.49C93,-673.01 93,-664.19 93,-655.15"/>
<polygon fill="none" stroke="#63b8ff" points="89.5,-681.67 93,-691.67 96.5,-681.67 89.5,-681.67"/>
</a>
</g>
</g>
<!-- Node4 -->
<g id="Node000004" class="node">
<title>Node4</title>
<g id="a_Node000004"><a xlink:href="classECS.html" target="_top" xlink:title="Entity Component System manager.">
<polygon fill="white" stroke="transparent" points="185,-1376 1,-1376 1,-907 185,-907 185,-1376"/>
<text text-anchor="start" x="83.5" y="-1363.5" font-family="Helvetica,sans-Serif" font-size="10.00">ECS</text>
<text text-anchor="start" x="7.5" y="-1348.5" font-family="Helvetica,sans-Serif" font-size="10.00">&#45;</text>
<text text-anchor="start" x="18" y="-1348.5" font-family="Helvetica,sans-Serif" font-size="10.00">double _time</text>
<text text-anchor="start" x="7.5" y="-1333.5" font-family="Helvetica,sans-Serif" font-size="10.00">&#45;</text>
<text text-anchor="start" x="18" y="-1333.5" font-family="Helvetica,sans-Serif" font-size="10.00">std::size_t __livingEntities</text>
<text text-anchor="start" x="7.5" y="-1318.5" font-family="Helvetica,sans-Serif" font-size="10.00">&#45;</text>
<text text-anchor="start" x="18" y="-1318.5" font-family="Helvetica,sans-Serif" font-size="10.00">std::queue&lt; Entity</text>
<text text-anchor="start" x="18" y="-1307.5" font-family="Helvetica,sans-Serif" font-size="10.00"> &gt; __freeEntities</text>
<text text-anchor="start" x="7.5" y="-1292.5" font-family="Helvetica,sans-Serif" font-size="10.00">&#45;</text>
<text text-anchor="start" x="18" y="-1292.5" font-family="Helvetica,sans-Serif" font-size="10.00">std::unordered_map</text>
<text text-anchor="start" x="18" y="-1281.5" font-family="Helvetica,sans-Serif" font-size="10.00">&lt; Entity, Signature</text>
<text text-anchor="start" x="18" y="-1270.5" font-family="Helvetica,sans-Serif" font-size="10.00"> &gt; __signatures</text>
<text text-anchor="start" x="7.5" y="-1255.5" font-family="Helvetica,sans-Serif" font-size="10.00">&#45;</text>
<text text-anchor="start" x="18" y="-1255.5" font-family="Helvetica,sans-Serif" font-size="10.00">std::vector&lt; void *</text>
<text text-anchor="start" x="18" y="-1244.5" font-family="Helvetica,sans-Serif" font-size="10.00"> &gt; _componentStorages</text>
<text text-anchor="start" x="7.5" y="-1229.5" font-family="Helvetica,sans-Serif" font-size="10.00">&#45;</text>
<text text-anchor="start" x="18" y="-1229.5" font-family="Helvetica,sans-Serif" font-size="10.00">std::vector&lt; void *</text>
<text text-anchor="start" x="18" y="-1218.5" font-family="Helvetica,sans-Serif" font-size="10.00"> &gt; __componentStorage</text>
<text text-anchor="start" x="5" y="-1203.5" font-family="Helvetica,sans-Serif" font-size="10.00">+</text>
<text text-anchor="start" x="18" y="-1203.5" font-family="Helvetica,sans-Serif" font-size="10.00">ECS()</text>
<text text-anchor="start" x="5" y="-1188.5" font-family="Helvetica,sans-Serif" font-size="10.00">+</text>
<text text-anchor="start" x="18" y="-1188.5" font-family="Helvetica,sans-Serif" font-size="10.00">~ECS()=default</text>
<text text-anchor="start" x="5" y="-1173.5" font-family="Helvetica,sans-Serif" font-size="10.00">+</text>
<text text-anchor="start" x="18" y="-1173.5" font-family="Helvetica,sans-Serif" font-size="10.00">Entity createEntity()</text>
<text text-anchor="start" x="5" y="-1158.5" font-family="Helvetica,sans-Serif" font-size="10.00">+</text>
<text text-anchor="start" x="18" y="-1158.5" font-family="Helvetica,sans-Serif" font-size="10.00">void killEntity(Entity e)</text>
<text text-anchor="start" x="5" y="-1143.5" font-family="Helvetica,sans-Serif" font-size="10.00">+</text>
<text text-anchor="start" x="18" y="-1143.5" font-family="Helvetica,sans-Serif" font-size="10.00">Signature getSignature</text>
<text text-anchor="start" x="18" y="-1132.5" font-family="Helvetica,sans-Serif" font-size="10.00">(Entity e) const</text>
<text text-anchor="start" x="5" y="-1117.5" font-family="Helvetica,sans-Serif" font-size="10.00">+</text>
<text text-anchor="start" x="18" y="-1117.5" font-family="Helvetica,sans-Serif" font-size="10.00">void setSignature(Entity</text>
<text text-anchor="start" x="18" y="-1106.5" font-family="Helvetica,sans-Serif" font-size="10.00"> e, Signature sig)</text>
<text text-anchor="start" x="5" y="-1091.5" font-family="Helvetica,sans-Serif" font-size="10.00">+</text>
<text text-anchor="start" x="18" y="-1091.5" font-family="Helvetica,sans-Serif" font-size="10.00">Entity addComponent</text>
<text text-anchor="start" x="18" y="-1080.5" font-family="Helvetica,sans-Serif" font-size="10.00">(Entity e, const Component</text>
<text text-anchor="start" x="18" y="-1069.5" font-family="Helvetica,sans-Serif" font-size="10.00">Type &amp;component)</text>
<text text-anchor="start" x="5" y="-1054.5" font-family="Helvetica,sans-Serif" font-size="10.00">+</text>
<text text-anchor="start" x="18" y="-1054.5" font-family="Helvetica,sans-Serif" font-size="10.00">bool hasComponent(Entity</text>
<text text-anchor="start" x="18" y="-1043.5" font-family="Helvetica,sans-Serif" font-size="10.00"> e) const</text>
<text text-anchor="start" x="5" y="-1028.5" font-family="Helvetica,sans-Serif" font-size="10.00">+</text>
<text text-anchor="start" x="18" y="-1028.5" font-family="Helvetica,sans-Serif" font-size="10.00">const ComponentType</text>
<text text-anchor="start" x="18" y="-1017.5" font-family="Helvetica,sans-Serif" font-size="10.00"> * getConstComponent</text>
<text text-anchor="start" x="18" y="-1006.5" font-family="Helvetica,sans-Serif" font-size="10.00">(Entity e) const</text>
<text text-anchor="start" x="5" y="-991.5" font-family="Helvetica,sans-Serif" font-size="10.00">+</text>
<text text-anchor="start" x="18" y="-991.5" font-family="Helvetica,sans-Serif" font-size="10.00">ComponentType * getComponent</text>
<text text-anchor="start" x="18" y="-980.5" font-family="Helvetica,sans-Serif" font-size="10.00">(Entity e)</text>
<text text-anchor="start" x="18" y="-965.5" font-family="Helvetica,sans-Serif" font-size="10.00">and 17 more...</text>
<text text-anchor="start" x="7.5" y="-950.5" font-family="Helvetica,sans-Serif" font-size="10.00">&#45;</text>
<text text-anchor="start" x="18" y="-950.5" font-family="Helvetica,sans-Serif" font-size="10.00">void verifyComponentStorage</text>
<text text-anchor="start" x="18" y="-939.5" font-family="Helvetica,sans-Serif" font-size="10.00">(ComponentTypeID TypeID)</text>
<text text-anchor="start" x="7.5" y="-924.5" font-family="Helvetica,sans-Serif" font-size="10.00">&#45;</text>
<text text-anchor="start" x="18" y="-924.5" font-family="Helvetica,sans-Serif" font-size="10.00">void verifyComponentStorage</text>
<text text-anchor="start" x="18" y="-913.5" font-family="Helvetica,sans-Serif" font-size="10.00">(ComponentTypeID TypeID)</text>
<polygon fill="#666666" stroke="#666666" points="1,-1358.5 1,-1358.5 185,-1358.5 185,-1358.5 1,-1358.5"/>
<polygon fill="#666666" stroke="#666666" points="1,-1213.5 1,-1213.5 16,-1213.5 16,-1213.5 1,-1213.5"/>
<polygon fill="#666666" stroke="#666666" points="16,-1213.5 16,-1213.5 185,-1213.5 185,-1213.5 16,-1213.5"/>
<polygon fill="none" stroke="#666666" points="1,-907 1,-1376 185,-1376 185,-907 1,-907"/>
</a>
</g>
</g>
<!-- Node4&#45;&gt;Node3 -->
<g id="edge3_Node000003_Node000004" class="edge">
<title>Node4&#45;&gt;Node3</title>
<g id="a_edge3_Node000003_Node000004"><a xlink:title=" ">
<path fill="none" stroke="#63b8ff" d="M93,-906.95C93,-895.01 93,-883.4 93,-872.35"/>
<polygon fill="none" stroke="#63b8ff" points="93,-872.12 89,-866.12 93,-860.12 97,-866.12 93,-872.12"/>
</a>
</g>
<text text-anchor="middle" x="110" y="-881" font-family="Helvetica,sans-Serif" font-size="10.00" fill="grey"> #_ecs</text>
</g>
</g>
</svg>

<g id="navigator" transform="translate(0 0)" fill="#404254">
  <rect fill="#f2f5e9" fill-opacity="0.5" stroke="#606060" stroke-width=".5" x="0" y="0" width="60" height="60"/>
  <use id="zoomplus" xlink:href="#zoomPlus" x="17" y="9" onmousedown="handleZoom(evt,'in')"/>
  <use id="zoomminus" xlink:href="#zoomMin" x="42" y="9" onmousedown="handleZoom(evt,'out')"/>
  <use id="reset" xlink:href="#resetDef" x="30" y="36" onmousedown="handleReset()"/>
   <use id="arrowup" xlink:href="#arrowUp" x="0" y="0" onmousedown="handlePan(0,-1)"/>
  <use id="arrowright" xlink:href="#arrowRight" x="0" y="0" onmousedown="handlePan(1,0)"/>
  <use id="arrowdown" xlink:href="#arrowDown" x="0" y="0" onmousedown="handlePan(0,1)"/>
  <use id="arrowleft" xlink:href="#arrowLeft" x="0" y="0" onmousedown="handlePan(-1,0)"/>
</g>
<svg viewBox="0 0 15 15" width="100%" height="30px" preserveAspectRatio="xMaxYMin meet">
 <g id="arrow_out" transform="scale(0.3 0.3)">
  <a xlink:href="classGameEngine__coll__graph_org.svg" target="_base">
   <rect id="button" ry="5" rx="5" y="6" x="6" height="38" width="38"
        fill="#f2f5e9" fill-opacity="0.5" stroke="#606060" stroke-width="1.0"/>
   <path id="arrow"
     d="M 11.500037,31.436501 C 11.940474,20.09759 22.043105,11.32322 32.158766,21.979434 L 37.068811,17.246167 C 37.068811,17.246167 37.088388,32 37.088388,32 L 22.160133,31.978069 C 22.160133,31.978069 26.997745,27.140456 26.997745,27.140456 C 18.528582,18.264221 13.291696,25.230495 11.500037,31.436501 z"
     style="fill:#404040;"/>
  </a>
 </g>
</svg>

<style type='text/css'>
<![CDATA[
[data-mouse-over-selected='false'] { opacity: 0.7; }
[data-mouse-over-selected='true']  { opacity: 1.0; }
]]>
</style>
<script type="application/ecmascript"><![CDATA[
document.addEventListener('DOMContentLoaded', (event) => {
  highlightEdges();
  highlightAdjacentNodes();
});
]]></script>
</svg>
