<?xml version="1.0" encoding="UTF-8" standalone="no"?>
<!DOCTYPE svg PUBLIC "-//W3C//DTD SVG 1.1//EN"
 "http://www.w3.org/Graphics/SVG/1.1/DTD/svg11.dtd">
<!-- Generated by graphviz version 2.43.0 (0)
 -->
<!-- Title: UdpClient Pages: 1 -->
<!--zoomable 614 -->

<svg id="main" version="1.1" xmlns="http://www.w3.org/2000/svg" xmlns:xlink="http://www.w3.org/1999/xlink" xml:space="preserve" onload="init(evt)">
<style type="text/css"><![CDATA[
.node, .edge {opacity: 0.7;}
.node.selected, .edge.selected {opacity: 1;}
.edge:hover path { stroke: red; }
.edge:hover polygon { stroke: red; fill: red; }
]]></style>

<defs>
  <circle id="rim" cx="0" cy="0" r="7"/>
  <circle id="rim2" cx="0" cy="0" r="3.5"/>
  <g id="zoomPlus">
    <use xlink:href="#rim" fill="#404040"><set attributeName="fill" to="#808080" begin="zoomplus.mouseover" end="zoomplus.mouseout"/></use>
    <path d="M-4,0h8M0,-4v8" fill="none" stroke="white" stroke-width="1.5" pointer-events="none"/>
  </g>
  <g id="zoomMin">
    <use xlink:href="#rim" fill="#404040"><set attributeName="fill" to="#808080" begin="zoomminus.mouseover" end="zoomminus.mouseout"/></use>
    <path d="M-4,0h8" fill="none" stroke="white" stroke-width="1.5" pointer-events="none"/>
  </g>
  <g id="arrowUp" transform="translate(30 24)">
    <use xlink:href="#rim"/>
    <path pointer-events="none" fill="none" stroke="white" stroke-width="1.5" d="M0,-3.0v7 M-2.5,-0.5L0,-3.0L2.5,-0.5"/>
  </g>
  <g id="arrowRight" transform="rotate(90) translate(36 -43)">
    <use xlink:href="#rim"/>
    <path pointer-events="none" fill="none" stroke="white" stroke-width="1.5" d="M0,-3.0v7 M-2.5,-0.5L0,-3.0L2.5,-0.5"/>
  </g>
  <g id="arrowDown" transform="rotate(180) translate(-30 -48)">
    <use xlink:href="#rim"/>
    <path pointer-events="none" fill="none" stroke="white" stroke-width="1.5" d="M0,-3.0v7 M-2.5,-0.5L0,-3.0L2.5,-0.5"/>
  </g>
  <g id="arrowLeft" transform="rotate(270) translate(-36 17)">
    <use xlink:href="#rim"/>
    <path pointer-events="none" fill="none" stroke="white" stroke-width="1.5" d="M0,-3.0v7 M-2.5,-0.5L0,-3.0L2.5,-0.5"/>
  </g>
  <g id="resetDef">
    <use xlink:href="#rim2" fill="#404040"><set attributeName="fill" to="#808080" begin="reset.mouseover" end="reset.mouseout"/></use>
  </g>
</defs>
<script type="application/ecmascript">
var viewWidth = 508;
var viewHeight = 614;
var sectionId = 'dynsection-0';
</script>
<script type="application/ecmascript" xlink:href="svg.min.js"/>
<svg id="graph" class="graph">
<g id="viewport">
<title>UdpClient</title>
<!-- Node1 -->
<g id="Node000001" class="node">
<title>Node1</title>
<g id="a_Node000001"><a xlink:title=" ">
<polygon fill="#999999" stroke="transparent" points="330,-269 168,-269 168,0 330,0 330,-269"/>
<text text-anchor="start" x="224.5" y="-256.5" font-family="Helvetica,sans-Serif" font-size="10.00">UdpClient</text>
<text text-anchor="start" x="174.5" y="-241.5" font-family="Helvetica,sans-Serif" font-size="10.00">&#45;</text>
<text text-anchor="start" x="185" y="-241.5" font-family="Helvetica,sans-Serif" font-size="10.00">sf::UdpSocket m_socket</text>
<text text-anchor="start" x="174.5" y="-226.5" font-family="Helvetica,sans-Serif" font-size="10.00">&#45;</text>
<text text-anchor="start" x="185" y="-226.5" font-family="Helvetica,sans-Serif" font-size="10.00">sf::IpAddress m_serverIp</text>
<text text-anchor="start" x="174.5" y="-211.5" font-family="Helvetica,sans-Serif" font-size="10.00">&#45;</text>
<text text-anchor="start" x="185" y="-211.5" font-family="Helvetica,sans-Serif" font-size="10.00">unsigned short m_serverPort</text>
<text text-anchor="start" x="174.5" y="-196.5" font-family="Helvetica,sans-Serif" font-size="10.00">&#45;</text>
<text text-anchor="start" x="185" y="-196.5" font-family="Helvetica,sans-Serif" font-size="10.00">std::atomic&lt; bool &gt;</text>
<text text-anchor="start" x="185" y="-185.5" font-family="Helvetica,sans-Serif" font-size="10.00"> m_running</text>
<text text-anchor="start" x="174.5" y="-170.5" font-family="Helvetica,sans-Serif" font-size="10.00">&#45;</text>
<text text-anchor="start" x="185" y="-170.5" font-family="Helvetica,sans-Serif" font-size="10.00">std::thread m_sendThread</text>
<text text-anchor="start" x="174.5" y="-155.5" font-family="Helvetica,sans-Serif" font-size="10.00">&#45;</text>
<text text-anchor="start" x="185" y="-155.5" font-family="Helvetica,sans-Serif" font-size="10.00">std::thread m_recvThread</text>
<text text-anchor="start" x="172" y="-140.5" font-family="Helvetica,sans-Serif" font-size="10.00">+</text>
<text text-anchor="start" x="185" y="-140.5" font-family="Helvetica,sans-Serif" font-size="10.00">UdpClient(sf::IpAddress</text>
<text text-anchor="start" x="185" y="-129.5" font-family="Helvetica,sans-Serif" font-size="10.00"> serverIp=&quot;127.0.0.1&quot;,</text>
<text text-anchor="start" x="185" y="-118.5" font-family="Helvetica,sans-Serif" font-size="10.00"> unsigned short serverPort</text>
<text text-anchor="start" x="185" y="-107.5" font-family="Helvetica,sans-Serif" font-size="10.00">=SERVER_PORT)</text>
<text text-anchor="start" x="172" y="-92.5" font-family="Helvetica,sans-Serif" font-size="10.00">+</text>
<text text-anchor="start" x="185" y="-92.5" font-family="Helvetica,sans-Serif" font-size="10.00">~UdpClient()</text>
<text text-anchor="start" x="172" y="-77.5" font-family="Helvetica,sans-Serif" font-size="10.00">+</text>
<text text-anchor="start" x="185" y="-77.5" font-family="Helvetica,sans-Serif" font-size="10.00">bool start(unsigned</text>
<text text-anchor="start" x="185" y="-66.5" font-family="Helvetica,sans-Serif" font-size="10.00"> short localPort=0)</text>
<text text-anchor="start" x="172" y="-51.5" font-family="Helvetica,sans-Serif" font-size="10.00">+</text>
<text text-anchor="start" x="185" y="-51.5" font-family="Helvetica,sans-Serif" font-size="10.00">void stop()</text>
<text text-anchor="start" x="172" y="-36.5" font-family="Helvetica,sans-Serif" font-size="10.00">+</text>
<text text-anchor="start" x="185" y="-36.5" font-family="Helvetica,sans-Serif" font-size="10.00">void join()</text>
<text text-anchor="start" x="174.5" y="-21.5" font-family="Helvetica,sans-Serif" font-size="10.00">&#45;</text>
<text text-anchor="start" x="185" y="-21.5" font-family="Helvetica,sans-Serif" font-size="10.00">void sendThread()</text>
<text text-anchor="start" x="174.5" y="-6.5" font-family="Helvetica,sans-Serif" font-size="10.00">&#45;</text>
<text text-anchor="start" x="185" y="-6.5" font-family="Helvetica,sans-Serif" font-size="10.00">void receiveThread()</text>
<polygon fill="#666666" stroke="#666666" points="168,-251.5 168,-251.5 330,-251.5 330,-251.5 168,-251.5"/>
<polygon fill="#666666" stroke="#666666" points="168,-150.5 168,-150.5 183,-150.5 183,-150.5 168,-150.5"/>
<polygon fill="#666666" stroke="#666666" points="183,-150.5 183,-150.5 330,-150.5 330,-150.5 183,-150.5"/>
<polygon fill="none" stroke="#666666" points="168,0 168,-269 330,-269 330,0 168,0"/>
</a>
</g>
</g>
<!-- Node2 -->
<g id="Node000002" class="node">
<title>Node2</title>
<g id="a_Node000002"><a xlink:href="classSafeQueue.html" target="_top" xlink:title=" ">
<polygon fill="white" stroke="transparent" points="152,-454 0,-454 0,-327 152,-327 152,-454"/>
<text text-anchor="start" x="12.5" y="-441.5" font-family="Helvetica,sans-Serif" font-size="10.00">SafeQueue&lt; InputState &gt;</text>
<text text-anchor="start" x="6.5" y="-426.5" font-family="Helvetica,sans-Serif" font-size="10.00">&#45;</text>
<text text-anchor="start" x="17" y="-426.5" font-family="Helvetica,sans-Serif" font-size="10.00">std::queue&lt; InputState</text>
<text text-anchor="start" x="17" y="-415.5" font-family="Helvetica,sans-Serif" font-size="10.00"> &gt; queue_</text>
<text text-anchor="start" x="6.5" y="-400.5" font-family="Helvetica,sans-Serif" font-size="10.00">&#45;</text>
<text text-anchor="start" x="17" y="-400.5" font-family="Helvetica,sans-Serif" font-size="10.00">std::mutex mutex_</text>
<text text-anchor="start" x="4" y="-385.5" font-family="Helvetica,sans-Serif" font-size="10.00">+</text>
<text text-anchor="start" x="17" y="-385.5" font-family="Helvetica,sans-Serif" font-size="10.00">SafeQueue()=default</text>
<text text-anchor="start" x="4" y="-370.5" font-family="Helvetica,sans-Serif" font-size="10.00">+</text>
<text text-anchor="start" x="17" y="-370.5" font-family="Helvetica,sans-Serif" font-size="10.00">void push(const InputState</text>
<text text-anchor="start" x="17" y="-359.5" font-family="Helvetica,sans-Serif" font-size="10.00"> &amp;value)</text>
<text text-anchor="start" x="4" y="-344.5" font-family="Helvetica,sans-Serif" font-size="10.00">+</text>
<text text-anchor="start" x="17" y="-344.5" font-family="Helvetica,sans-Serif" font-size="10.00">bool tryPop(InputState</text>
<text text-anchor="start" x="17" y="-333.5" font-family="Helvetica,sans-Serif" font-size="10.00"> &amp;value)</text>
<polygon fill="#666666" stroke="#666666" points="0,-436.5 0,-436.5 152,-436.5 152,-436.5 0,-436.5"/>
<polygon fill="#666666" stroke="#666666" points="0,-395.5 0,-395.5 15,-395.5 15,-395.5 0,-395.5"/>
<polygon fill="#666666" stroke="#666666" points="15,-395.5 15,-395.5 152,-395.5 152,-395.5 15,-395.5"/>
<polygon fill="none" stroke="#666666" points="0,-327 0,-454 152,-454 152,-327 0,-327"/>
</a>
</g>
</g>
<!-- Node2&#45;&gt;Node1 -->
<g id="edge1_Node000001_Node000002" class="edge">
<title>Node2&#45;&gt;Node1</title>
<g id="a_edge1_Node000001_Node000002"><a xlink:title=" ">
<path fill="none" stroke="#63b8ff" d="M118.76,-326.71C131.69,-307.73 146.39,-286.15 161.14,-264.5"/>
<polygon fill="none" stroke="#63b8ff" points="161.16,-264.47 161.23,-257.26 167.92,-254.55 167.84,-261.76 161.16,-264.47"/>
</a>
</g>
<text text-anchor="middle" x="180" y="-290" font-family="Helvetica,sans-Serif" font-size="10.00" fill="grey"> +inputsToSend</text>
</g>
<!-- Node3 -->
<g id="Node000003" class="node">
<title>Node3</title>
<g id="a_Node000003"><a xlink:href="classSafeQueue.html" target="_top" xlink:title=" ">
<polygon fill="white" stroke="transparent" points="236.5,-606 87.5,-606 87.5,-512 236.5,-512 236.5,-606"/>
<text text-anchor="start" x="121.5" y="-594" font-family="Helvetica,sans-Serif" font-size="10.00">SafeQueue&lt; T &gt;</text>
<text text-anchor="start" x="94.5" y="-579" font-family="Helvetica,sans-Serif" font-size="10.00">&#45;</text>
<text text-anchor="start" x="105" y="-579" font-family="Helvetica,sans-Serif" font-size="10.00">std::queue&lt; T &gt; queue_</text>
<text text-anchor="start" x="94.5" y="-564" font-family="Helvetica,sans-Serif" font-size="10.00">&#45;</text>
<text text-anchor="start" x="105" y="-564" font-family="Helvetica,sans-Serif" font-size="10.00">std::mutex mutex_</text>
<text text-anchor="start" x="92" y="-549" font-family="Helvetica,sans-Serif" font-size="10.00">+</text>
<text text-anchor="start" x="105" y="-549" font-family="Helvetica,sans-Serif" font-size="10.00">SafeQueue()=default</text>
<text text-anchor="start" x="92" y="-534" font-family="Helvetica,sans-Serif" font-size="10.00">+</text>
<text text-anchor="start" x="105" y="-534" font-family="Helvetica,sans-Serif" font-size="10.00">void push(const T &amp;value)</text>
<text text-anchor="start" x="92" y="-519" font-family="Helvetica,sans-Serif" font-size="10.00">+</text>
<text text-anchor="start" x="105" y="-519" font-family="Helvetica,sans-Serif" font-size="10.00">bool tryPop(T &amp;value)</text>
<polygon fill="#666666" stroke="#666666" points="88,-589 88,-589 237,-589 237,-589 88,-589"/>
<polygon fill="#666666" stroke="#666666" points="88,-559 88,-559 103,-559 103,-559 88,-559"/>
<polygon fill="#666666" stroke="#666666" points="103,-559 103,-559 237,-559 237,-559 103,-559"/>
<polygon fill="none" stroke="#666666" points="87.5,-512 87.5,-606 236.5,-606 236.5,-512 87.5,-512"/>
</a>
</g>
</g>
<!-- Node3&#45;&gt;Node2 -->
<g id="edge2_Node000002_Node000003" class="edge">
<title>Node3&#45;&gt;Node2</title>
<g id="a_edge2_Node000002_Node000003"><a xlink:title=" ">
<path fill="none" stroke="orange" d="M133.41,-502.65C125.38,-487.09 116.58,-470.07 108.35,-454.12"/>
<polygon fill="orange" stroke="orange" points="130.35,-504.34 138.04,-511.62 136.56,-501.13 130.35,-504.34"/>
</a>
</g>
<text text-anchor="middle" x="165" y="-486" font-family="Helvetica,sans-Serif" font-size="10.00" fill="grey"> &lt; InputState &gt;</text>
</g>
<!-- Node4 -->
<g id="Node000004" class="node">
<title>Node4</title>
<g id="a_Node000004"><a xlink:href="classSafeQueue.html" target="_top" xlink:title=" ">
<polygon fill="white" stroke="transparent" points="327.5,-465 170.5,-465 170.5,-316 327.5,-316 327.5,-465"/>
<text text-anchor="start" x="191" y="-452.5" font-family="Helvetica,sans-Serif" font-size="10.00">SafeQueue&lt; std::vector</text>
<text text-anchor="start" x="200.5" y="-441.5" font-family="Helvetica,sans-Serif" font-size="10.00">&lt; EntityUpdate &gt; &gt;</text>
<text text-anchor="start" x="177.5" y="-426.5" font-family="Helvetica,sans-Serif" font-size="10.00">&#45;</text>
<text text-anchor="start" x="188" y="-426.5" font-family="Helvetica,sans-Serif" font-size="10.00">std::queue&lt; std::vector</text>
<text text-anchor="start" x="188" y="-415.5" font-family="Helvetica,sans-Serif" font-size="10.00">&lt; EntityUpdate &gt; &gt; queue_</text>
<text text-anchor="start" x="177.5" y="-400.5" font-family="Helvetica,sans-Serif" font-size="10.00">&#45;</text>
<text text-anchor="start" x="188" y="-400.5" font-family="Helvetica,sans-Serif" font-size="10.00">std::mutex mutex_</text>
<text text-anchor="start" x="175" y="-385.5" font-family="Helvetica,sans-Serif" font-size="10.00">+</text>
<text text-anchor="start" x="188" y="-385.5" font-family="Helvetica,sans-Serif" font-size="10.00">SafeQueue()=default</text>
<text text-anchor="start" x="175" y="-370.5" font-family="Helvetica,sans-Serif" font-size="10.00">+</text>
<text text-anchor="start" x="188" y="-370.5" font-family="Helvetica,sans-Serif" font-size="10.00">void push(const std</text>
<text text-anchor="start" x="188" y="-359.5" font-family="Helvetica,sans-Serif" font-size="10.00">::vector&lt; EntityUpdate</text>
<text text-anchor="start" x="188" y="-348.5" font-family="Helvetica,sans-Serif" font-size="10.00"> &gt; &amp;value)</text>
<text text-anchor="start" x="175" y="-333.5" font-family="Helvetica,sans-Serif" font-size="10.00">+</text>
<text text-anchor="start" x="188" y="-333.5" font-family="Helvetica,sans-Serif" font-size="10.00">bool tryPop(std::vector</text>
<text text-anchor="start" x="188" y="-322.5" font-family="Helvetica,sans-Serif" font-size="10.00">&lt; EntityUpdate &gt; &amp;value)</text>
<polygon fill="#666666" stroke="#666666" points="171,-436.5 171,-436.5 328,-436.5 328,-436.5 171,-436.5"/>
<polygon fill="#666666" stroke="#666666" points="171,-395.5 171,-395.5 186,-395.5 186,-395.5 171,-395.5"/>
<polygon fill="#666666" stroke="#666666" points="186,-395.5 186,-395.5 328,-395.5 328,-395.5 186,-395.5"/>
<polygon fill="none" stroke="#666666" points="170.5,-316 170.5,-465 327.5,-465 327.5,-316 170.5,-316"/>
</a>
</g>
</g>
<!-- Node3&#45;&gt;Node4 -->
<g id="edge4_Node000004_Node000003" class="edge">
<title>Node3&#45;&gt;Node4</title>
<g id="a_edge4_Node000004_Node000003"><a xlink:title=" ">
<path fill="none" stroke="orange" d="M201.64,-503.27C203.52,-500.17 205.32,-497.07 207,-494 211.99,-484.89 216.74,-475.06 221.13,-465.23"/>
<polygon fill="orange" stroke="orange" points="198.55,-501.61 196.19,-511.94 204.47,-505.34 198.55,-501.61"/>
</a>
</g>
<text text-anchor="middle" x="294" y="-486" font-family="Helvetica,sans-Serif" font-size="10.00" fill="grey"> &lt; std::vector&lt; EntityUpdate &gt; &gt;</text>
</g>
<!-- Node4&#45;&gt;Node1 -->
<g id="edge3_Node000001_Node000004" class="edge">
<title>Node4&#45;&gt;Node1</title>
<g id="a_edge3_Node000001_Node000004"><a xlink:title=" ">
<path fill="none" stroke="#63b8ff" d="M249,-315.69C249,-304.82 249,-293.31 249,-281.59"/>
<polygon fill="none" stroke="#63b8ff" points="249,-281.3 245,-275.3 249,-269.3 253,-275.3 249,-281.3"/>
</a>
</g>
<text text-anchor="middle" x="296" y="-290" font-family="Helvetica,sans-Serif" font-size="10.00" fill="grey"> +receivedUpdates</text>
</g>
<!-- Node5 -->
<g id="Node000005" class="node">
<title>Node5</title>
<g id="a_Node000005"><a xlink:href="classTimer.html" target="_top" xlink:title=" ">
<polygon fill="white" stroke="transparent" points="500,-460 346,-460 346,-321 500,-321 500,-460"/>
<text text-anchor="start" x="408.5" y="-447.5" font-family="Helvetica,sans-Serif" font-size="10.00">Timer</text>
<text text-anchor="start" x="352.5" y="-432.5" font-family="Helvetica,sans-Serif" font-size="10.00">&#45;</text>
<text text-anchor="start" x="363" y="-432.5" font-family="Helvetica,sans-Serif" font-size="10.00">sf::Clock _clock</text>
<text text-anchor="start" x="352.5" y="-417.5" font-family="Helvetica,sans-Serif" font-size="10.00">&#45;</text>
<text text-anchor="start" x="363" y="-417.5" font-family="Helvetica,sans-Serif" font-size="10.00">sf::Time _lastTick</text>
<text text-anchor="start" x="352.5" y="-402.5" font-family="Helvetica,sans-Serif" font-size="10.00">&#45;</text>
<text text-anchor="start" x="363" y="-402.5" font-family="Helvetica,sans-Serif" font-size="10.00">uint16_t _frameNumber</text>
<text text-anchor="start" x="350" y="-387.5" font-family="Helvetica,sans-Serif" font-size="10.00">+</text>
<text text-anchor="start" x="363" y="-387.5" font-family="Helvetica,sans-Serif" font-size="10.00">Timer()</text>
<text text-anchor="start" x="350" y="-372.5" font-family="Helvetica,sans-Serif" font-size="10.00">+</text>
<text text-anchor="start" x="363" y="-372.5" font-family="Helvetica,sans-Serif" font-size="10.00">~Timer()</text>
<text text-anchor="start" x="350" y="-357.5" font-family="Helvetica,sans-Serif" font-size="10.00">+</text>
<text text-anchor="start" x="363" y="-357.5" font-family="Helvetica,sans-Serif" font-size="10.00">sf::Int64 getLastTick()</text>
<text text-anchor="start" x="350" y="-342.5" font-family="Helvetica,sans-Serif" font-size="10.00">+</text>
<text text-anchor="start" x="363" y="-342.5" font-family="Helvetica,sans-Serif" font-size="10.00">uint16_t getCurrentFrame()</text>
<text text-anchor="start" x="350" y="-327.5" font-family="Helvetica,sans-Serif" font-size="10.00">+</text>
<text text-anchor="start" x="363" y="-327.5" font-family="Helvetica,sans-Serif" font-size="10.00">void updateClock()</text>
<polygon fill="#666666" stroke="#666666" points="346,-442.5 346,-442.5 500,-442.5 500,-442.5 346,-442.5"/>
<polygon fill="#666666" stroke="#666666" points="346,-397.5 346,-397.5 361,-397.5 361,-397.5 346,-397.5"/>
<polygon fill="#666666" stroke="#666666" points="361,-397.5 361,-397.5 500,-397.5 500,-397.5 361,-397.5"/>
<polygon fill="none" stroke="#666666" points="346,-321 346,-460 500,-460 500,-321 346,-321"/>
</a>
</g>
</g>
<!-- Node5&#45;&gt;Node1 -->
<g id="edge5_Node000001_Node000005" class="edge">
<title>Node5&#45;&gt;Node1</title>
<g id="a_edge5_Node000001_Node000005"><a xlink:title=" ">
<path fill="none" stroke="#63b8ff" d="M375.91,-320.76C363.86,-303.17 350.5,-283.67 337.11,-264.11"/>
<polygon fill="none" stroke="#63b8ff" points="337.1,-264.11 330.41,-261.42 330.32,-254.21 337.01,-256.9 337.1,-264.11"/>
</a>
</g>
<text text-anchor="middle" x="377.5" y="-290" font-family="Helvetica,sans-Serif" font-size="10.00" fill="grey"> +_timer</text>
</g>
</g>
</svg>

<g id="navigator" transform="translate(0 0)" fill="#404254">
  <rect fill="#f2f5e9" fill-opacity="0.5" stroke="#606060" stroke-width=".5" x="0" y="0" width="60" height="60"/>
  <use id="zoomplus" xlink:href="#zoomPlus" x="17" y="9" onmousedown="handleZoom(evt,'in')"/>
  <use id="zoomminus" xlink:href="#zoomMin" x="42" y="9" onmousedown="handleZoom(evt,'out')"/>
  <use id="reset" xlink:href="#resetDef" x="30" y="36" onmousedown="handleReset()"/>
   <use id="arrowup" xlink:href="#arrowUp" x="0" y="0" onmousedown="handlePan(0,-1)"/>
  <use id="arrowright" xlink:href="#arrowRight" x="0" y="0" onmousedown="handlePan(1,0)"/>
  <use id="arrowdown" xlink:href="#arrowDown" x="0" y="0" onmousedown="handlePan(0,1)"/>
  <use id="arrowleft" xlink:href="#arrowLeft" x="0" y="0" onmousedown="handlePan(-1,0)"/>
</g>
<svg viewBox="0 0 15 15" width="100%" height="30px" preserveAspectRatio="xMaxYMin meet">
 <g id="arrow_out" transform="scale(0.3 0.3)">
  <a xlink:href="classUdpClient__coll__graph_org.svg" target="_base">
   <rect id="button" ry="5" rx="5" y="6" x="6" height="38" width="38"
        fill="#f2f5e9" fill-opacity="0.5" stroke="#606060" stroke-width="1.0"/>
   <path id="arrow"
     d="M 11.500037,31.436501 C 11.940474,20.09759 22.043105,11.32322 32.158766,21.979434 L 37.068811,17.246167 C 37.068811,17.246167 37.088388,32 37.088388,32 L 22.160133,31.978069 C 22.160133,31.978069 26.997745,27.140456 26.997745,27.140456 C 18.528582,18.264221 13.291696,25.230495 11.500037,31.436501 z"
     style="fill:#404040;"/>
  </a>
 </g>
</svg>

<style type='text/css'>
<![CDATA[
[data-mouse-over-selected='false'] { opacity: 0.7; }
[data-mouse-over-selected='true']  { opacity: 1.0; }
]]>
</style>
<script type="application/ecmascript"><![CDATA[
document.addEventListener('DOMContentLoaded', (event) => {
  highlightEdges();
  highlightAdjacentNodes();
});
]]></script>
</svg>
