<?xml version="1.0" encoding="UTF-8" standalone="no"?>
<!DOCTYPE svg PUBLIC "-//W3C//DTD SVG 1.1//EN"
 "http://www.w3.org/Graphics/SVG/1.1/DTD/svg11.dtd">
<!-- Generated by graphviz version 2.43.0 (0)
 -->
<!-- Title: StorageComponent::has Pages: 1 -->
<svg width="487pt" height="101pt"
 viewBox="0.00 0.00 487.00 101.00" xmlns="http://www.w3.org/2000/svg" xmlns:xlink="http://www.w3.org/1999/xlink">

<svg id="main" version="1.1" xmlns="http://www.w3.org/2000/svg" xmlns:xlink="http://www.w3.org/1999/xlink" xml:space="preserve" onload="init(evt)">
<style type="text/css"><![CDATA[
.node, .edge {opacity: 0.7;}
.node.selected, .edge.selected {opacity: 1;}
.edge:hover path { stroke: red; }
.edge:hover polygon { stroke: red; fill: red; }
]]></style>
<script type="application/ecmascript" xlink:href="svg.min.js"/>
<svg id="graph" class="graph">
<g id="graph0" class="graph" transform="scale(1 1) rotate(0) translate(4 97)">
<title>StorageComponent::has</title>
<!-- Node1 -->
<g id="Node000001" class="node">
<title>Node1</title>
<g id="a_Node000001"><a xlink:title="Checks if the entity has this component type.">
<polygon fill="#999999" stroke="#666666" points="479,-56 345,-56 345,-37 479,-37 479,-56"/>
<text text-anchor="middle" x="412" y="-44" font-family="Helvetica,sans-Serif" font-size="10.00">StorageComponent::has</text>
</a>
</g>
</g>
<!-- Node2 -->
<g id="Node000002" class="node">
<title>Node2</title>
<g id="a_Node000002"><a xlink:href="classStorageComponent.html#a9ab952a02c2b870d2b4d8c183a404a39" target="_top" xlink:title="Retrieves a mutable pointer to the component for the entity.">
<polygon fill="white" stroke="#666666" points="309,-93 177,-93 177,-74 309,-74 309,-93"/>
<text text-anchor="middle" x="243" y="-81" font-family="Helvetica,sans-Serif" font-size="10.00">StorageComponent::get</text>
</a>
</g>
</g>
<!-- Node1&#45;&gt;Node2 -->
<g id="edge1_Node000001_Node000002" class="edge">
<title>Node1&#45;&gt;Node2</title>
<g id="a_edge1_Node000001_Node000002"><a xlink:title=" ">
<path fill="none" stroke="#63b8ff" d="M358.1,-58.22C335.23,-63.29 308.81,-69.14 287.15,-73.94"/>
<polygon fill="#63b8ff" stroke="#63b8ff" points="358.99,-61.61 367.99,-56.03 357.47,-54.77 358.99,-61.61"/>
</a>
</g>
</g>
<!-- Node3 -->
<g id="Node000003" class="node">
<title>Node3</title>
<g id="a_Node000003"><a xlink:href="classStorageComponent.html#a4e0239d1d216347282d49c0bcdf0079d" target="_top" xlink:title="Retrieves a read&#45;only pointer to the component for the entity.">
<polygon fill="white" stroke="#666666" points="309,-56 177,-56 177,-37 309,-37 309,-56"/>
<text text-anchor="middle" x="243" y="-44" font-family="Helvetica,sans-Serif" font-size="10.00">StorageComponent::get</text>
</a>
</g>
</g>
<!-- Node1&#45;&gt;Node3 -->
<g id="edge2_Node000001_Node000003" class="edge">
<title>Node1&#45;&gt;Node3</title>
<g id="a_edge2_Node000001_Node000003"><a xlink:title=" ">
<path fill="none" stroke="#63b8ff" d="M334.98,-46.5C326.39,-46.5 317.69,-46.5 309.25,-46.5"/>
<polygon fill="#63b8ff" stroke="#63b8ff" points="335,-50 345,-46.5 335,-43 335,-50"/>
</a>
</g>
</g>
<!-- Node6 -->
<g id="Node000006" class="node">
<title>Node6</title>
<g id="a_Node000006"><a xlink:href="classECS.html#a33c16853296e9784dfb558f35dffbd72" target="_top" xlink:title="Checks if an entity has a specific component.">
<polygon fill="white" stroke="#666666" points="300.5,-19 185.5,-19 185.5,0 300.5,0 300.5,-19"/>
<text text-anchor="middle" x="243" y="-7" font-family="Helvetica,sans-Serif" font-size="10.00">ECS::hasComponent</text>
</a>
</g>
</g>
<!-- Node1&#45;&gt;Node6 -->
<g id="edge5_Node000001_Node000006" class="edge">
<title>Node1&#45;&gt;Node6</title>
<g id="a_edge5_Node000001_Node000006"><a xlink:title=" ">
<path fill="none" stroke="#63b8ff" d="M358.1,-34.78C335.23,-29.71 308.81,-23.86 287.15,-19.06"/>
<polygon fill="#63b8ff" stroke="#63b8ff" points="357.47,-38.23 367.99,-36.97 358.99,-31.39 357.47,-38.23"/>
</a>
</g>
</g>
<!-- Node4 -->
<g id="Node000004" class="node">
<title>Node4</title>
<g id="a_Node000004"><a xlink:href="classECS.html#aaae60c88af59dd7af9d86200eb522bbc" target="_top" xlink:title="Retrieves a mutable pointer to a component.">
<polygon fill="white" stroke="#666666" points="127,-74 14,-74 14,-55 127,-55 127,-74"/>
<text text-anchor="middle" x="70.5" y="-62" font-family="Helvetica,sans-Serif" font-size="10.00">ECS::getComponent</text>
</a>
</g>
</g>
<!-- Node3&#45;&gt;Node4 -->
<g id="edge3_Node000003_Node000004" class="edge">
<title>Node3&#45;&gt;Node4</title>
<g id="a_edge3_Node000003_Node000004"><a xlink:title=" ">
<path fill="none" stroke="#63b8ff" d="M166.5,-54.47C153.24,-55.87 139.65,-57.31 127.05,-58.64"/>
<polygon fill="#63b8ff" stroke="#63b8ff" points="166.99,-57.94 176.57,-53.41 166.26,-50.98 166.99,-57.94"/>
</a>
</g>
</g>
<!-- Node5 -->
<g id="Node000005" class="node">
<title>Node5</title>
<g id="a_Node000005"><a xlink:href="classECS.html#a358206e15202fccfa73017c47af07079" target="_top" xlink:title="Retrieves a read&#45;only pointer to a component.">
<polygon fill="white" stroke="#666666" points="141,-37 0,-37 0,-18 141,-18 141,-37"/>
<text text-anchor="middle" x="70.5" y="-25" font-family="Helvetica,sans-Serif" font-size="10.00">ECS::getConstComponent</text>
</a>
</g>
</g>
<!-- Node3&#45;&gt;Node5 -->
<g id="edge4_Node000003_Node000005" class="edge">
<title>Node3&#45;&gt;Node5</title>
<g id="a_edge4_Node000003_Node000005"><a xlink:title=" ">
<path fill="none" stroke="#63b8ff" d="M166.36,-38.07C157.92,-37.13 149.36,-36.18 141,-35.25"/>
<polygon fill="#63b8ff" stroke="#63b8ff" points="166.24,-41.58 176.57,-39.21 167.02,-34.62 166.24,-41.58"/>
</a>
</g>
</g>
</g>
</svg>
</svg>

<style type='text/css'>
<![CDATA[
[data-mouse-over-selected='false'] { opacity: 0.7; }
[data-mouse-over-selected='true']  { opacity: 1.0; }
]]>
</style>
<script type="application/ecmascript"><![CDATA[
document.addEventListener('DOMContentLoaded', (event) => {
  highlightEdges();
  highlightAdjacentNodes();
});
]]></script>
</svg>
