<?xml version="1.0" encoding="UTF-8" standalone="no"?>
<!DOCTYPE svg PUBLIC "-//W3C//DTD SVG 1.1//EN"
 "http://www.w3.org/Graphics/SVG/1.1/DTD/svg11.dtd">
<!-- Generated by graphviz version 2.43.0 (0)
 -->
<!-- Title: ECS::killEntity Pages: 1 -->
<svg width="363pt" height="158pt"
 viewBox="0.00 0.00 363.00 158.00" xmlns="http://www.w3.org/2000/svg" xmlns:xlink="http://www.w3.org/1999/xlink">
<g id="graph0" class="graph" transform="scale(1 1) rotate(0) translate(4 154)">
<title>ECS::killEntity</title>
<!-- Node1 -->
<g id="Node000001" class="node">
<title>Node1</title>
<g id="a_Node000001"><a xlink:title="Destroys an entity.">
<polygon fill="#999999" stroke="#666666" points="355,-75 270,-75 270,-56 355,-56 355,-75"/>
<text text-anchor="middle" x="312.5" y="-63" font-family="Helvetica,sans-Serif" font-size="10.00">ECS::killEntity</text>
</a>
</g>
</g>
<!-- Node2 -->
<g id="Node000002" class="node">
<title>Node2</title>
<g id="a_Node000002"><a xlink:href="classClient.html#ad361032d607e05a51b215e1300029bbc" target="_top" xlink:title=" ">
<polygon fill="white" stroke="#666666" points="234,-132 121,-132 121,-113 234,-113 234,-132"/>
<text text-anchor="middle" x="177.5" y="-120" font-family="Helvetica,sans-Serif" font-size="10.00">Client::applyUpdate</text>
</a>
</g>
</g>
<!-- Node1&#45;&gt;Node2 -->
<g id="edge1_Node000001_Node000002" class="edge">
<title>Node1&#45;&gt;Node2</title>
<g id="a_edge1_Node000001_Node000002"><a xlink:title=" ">
<path fill="none" stroke="#63b8ff" d="M279.72,-79.12C255.39,-89.55 222.44,-103.67 200.83,-112.93"/>
<polygon fill="#63b8ff" stroke="#63b8ff" points="281.43,-82.2 289.24,-75.04 278.67,-75.76 281.43,-82.2"/>
</a>
</g>
</g>
<!-- Node3 -->
<g id="Node000003" class="node">
<title>Node3</title>
<g id="a_Node000003"><a xlink:href="classClient.html#a6e7a5e19c40bef39ae1c0f5996b8c471" target="_top" xlink:title=" ">
<polygon fill="white" stroke="#666666" points="85,-132 0,-132 0,-113 85,-113 85,-132"/>
<text text-anchor="middle" x="42.5" y="-120" font-family="Helvetica,sans-Serif" font-size="10.00">Client::update</text>
</a>
</g>
</g>
<!-- Node1&#45;&gt;Node3 -->
<g id="edge6_Node000001_Node000003" class="edge">
<title>Node1&#45;&gt;Node3</title>
<g id="a_edge6_Node000001_Node000003"><a xlink:title=" ">
<path fill="none" stroke="#63b8ff" d="M259.91,-75.68C221.54,-83.35 167.93,-94.25 121,-104.5 108.85,-107.15 95.67,-110.17 83.68,-112.96"/>
<polygon fill="#63b8ff" stroke="#63b8ff" points="260.69,-79.09 269.81,-73.71 259.32,-72.23 260.69,-79.09"/>
</a>
</g>
</g>
<!-- Node4 -->
<g id="Node000004" class="node">
<title>Node4</title>
<g id="a_Node000004"><a xlink:href="classServer.html#af36f3a832531844b5f18d40c6db22cc9" target="_top" xlink:title=" ">
<polygon fill="white" stroke="#666666" points="228.5,-56 126.5,-56 126.5,-37 228.5,-37 228.5,-56"/>
<text text-anchor="middle" x="177.5" y="-44" font-family="Helvetica,sans-Serif" font-size="10.00">Server::broadcast</text>
</a>
</g>
</g>
<!-- Node1&#45;&gt;Node4 -->
<g id="edge5_Node000001_Node000004" class="edge">
<title>Node1&#45;&gt;Node4</title>
<g id="a_edge5_Node000001_Node000004"><a xlink:title=" ">
<path fill="none" stroke="#63b8ff" d="M259.83,-58.12C249.68,-56.67 239.05,-55.15 228.94,-53.71"/>
<polygon fill="#63b8ff" stroke="#63b8ff" points="259.39,-61.59 269.78,-59.54 260.38,-54.66 259.39,-61.59"/>
</a>
</g>
</g>
<!-- Node5 -->
<g id="Node000005" class="node">
<title>Node5</title>
<g id="a_Node000005"><a xlink:href="classServer.html#af7b0a4370ac2c1e573f292870adfa81c" target="_top" xlink:title=" ">
<polygon fill="white" stroke="#666666" points="221.5,-19 133.5,-19 133.5,0 221.5,0 221.5,-19"/>
<text text-anchor="middle" x="177.5" y="-7" font-family="Helvetica,sans-Serif" font-size="10.00">Server::update</text>
</a>
</g>
</g>
<!-- Node1&#45;&gt;Node5 -->
<g id="edge7_Node000001_Node000005" class="edge">
<title>Node1&#45;&gt;Node5</title>
<g id="a_edge7_Node000001_Node000005"><a xlink:title=" ">
<path fill="none" stroke="#63b8ff" d="M283.95,-51.39C269.3,-44.13 250.87,-35.39 234,-28.5 225.8,-25.15 216.76,-21.88 208.4,-19.03"/>
<polygon fill="#63b8ff" stroke="#63b8ff" points="282.47,-54.57 292.98,-55.91 285.6,-48.31 282.47,-54.57"/>
</a>
</g>
</g>
<!-- Node2&#45;&gt;Node3 -->
<g id="edge2_Node000002_Node000003" class="edge">
<title>Node2&#45;&gt;Node3</title>
<g id="a_edge2_Node000002_Node000003"><a xlink:title=" ">
<path fill="none" stroke="#63b8ff" d="M110.7,-115.75C102,-115.74 93.28,-115.89 85.15,-116.19"/>
<polygon fill="#63b8ff" stroke="#63b8ff" points="110.84,-119.25 120.87,-115.83 110.89,-112.25 110.84,-119.25"/>
</a>
</g>
</g>
<!-- Node3&#45;&gt;Node2 -->
<g id="edge3_Node000003_Node000002" class="edge">
<title>Node3&#45;&gt;Node2</title>
<g id="a_edge3_Node000003_Node000002"><a xlink:title=" ">
<path fill="none" stroke="#63b8ff" d="M95.21,-129.1C103.62,-129.27 112.36,-129.3 120.87,-129.17"/>
<polygon fill="#63b8ff" stroke="#63b8ff" points="95.24,-125.6 85.15,-128.81 95.04,-132.6 95.24,-125.6"/>
</a>
</g>
</g>
<!-- Node3&#45;&gt;Node3 -->
<g id="edge4_Node000003_Node000003" class="edge">
<title>Node3&#45;&gt;Node3</title>
<g id="a_edge4_Node000003_Node000003"><a xlink:title=" ">
<path fill="none" stroke="#63b8ff" d="M67.43,-141.19C66.07,-146.2 57.76,-150 42.5,-150 18.68,-150 11.8,-140.73 21.85,-132.08"/>
<polygon fill="#63b8ff" stroke="#63b8ff" points="70.57,-139.65 63.15,-132.08 64.23,-142.62 70.57,-139.65"/>
</a>
</g>
</g>
</g>
</svg>
