<?xml version="1.0" encoding="UTF-8" standalone="no"?>
<!DOCTYPE svg PUBLIC "-//W3C//DTD SVG 1.1//EN"
 "http://www.w3.org/Graphics/SVG/1.1/DTD/svg11.dtd">
<!-- Generated by graphviz version 2.43.0 (0)
 -->
<!-- Title: Ntw::NetworkManager Pages: 1 -->
<svg width="623pt" height="775pt"
 viewBox="0.00 0.00 622.50 775.00" xmlns="http://www.w3.org/2000/svg" xmlns:xlink="http://www.w3.org/1999/xlink">
<g id="graph0" class="graph" transform="scale(1 1) rotate(0) translate(4 771)">
<title>Ntw::NetworkManager</title>
<!-- Node1 -->
<g id="Node000001" class="node">
<title>Node1</title>
<g id="a_Node000001"><a xlink:title=" ">
<polygon fill="#999999" stroke="transparent" points="439,-187 266,-187 266,0 439,0 439,-187"/>
<text text-anchor="start" x="298.5" y="-174.5" font-family="Helvetica,sans-Serif" font-size="10.00">Ntw::NetworkManager</text>
<text text-anchor="start" x="351" y="-159.5" font-family="Helvetica,sans-Serif" font-size="10.00"> </text>
<text text-anchor="start" x="270.5" y="-144.5" font-family="Helvetica,sans-Serif" font-size="10.00">+</text>
<text text-anchor="start" x="283.5" y="-144.5" font-family="Helvetica,sans-Serif" font-size="10.00">NetworkManager(unsigned</text>
<text text-anchor="start" x="283.5" y="-133.5" font-family="Helvetica,sans-Serif" font-size="10.00"> short listenPort=55002)</text>
<text text-anchor="start" x="270.5" y="-118.5" font-family="Helvetica,sans-Serif" font-size="10.00">+</text>
<text text-anchor="start" x="283.5" y="-118.5" font-family="Helvetica,sans-Serif" font-size="10.00">~NetworkManager()</text>
<text text-anchor="start" x="270.5" y="-103.5" font-family="Helvetica,sans-Serif" font-size="10.00">+</text>
<text text-anchor="start" x="283.5" y="-103.5" font-family="Helvetica,sans-Serif" font-size="10.00">void start()</text>
<text text-anchor="start" x="270.5" y="-88.5" font-family="Helvetica,sans-Serif" font-size="10.00">+</text>
<text text-anchor="start" x="283.5" y="-88.5" font-family="Helvetica,sans-Serif" font-size="10.00">void stop()</text>
<text text-anchor="start" x="270.5" y="-73.5" font-family="Helvetica,sans-Serif" font-size="10.00">+</text>
<text text-anchor="start" x="283.5" y="-73.5" font-family="Helvetica,sans-Serif" font-size="10.00">void join()</text>
<text text-anchor="start" x="270.5" y="-58.5" font-family="Helvetica,sans-Serif" font-size="10.00">+</text>
<text text-anchor="start" x="283.5" y="-58.5" font-family="Helvetica,sans-Serif" font-size="10.00">void printServerInfo</text>
<text text-anchor="start" x="283.5" y="-47.5" font-family="Helvetica,sans-Serif" font-size="10.00">() const</text>
<text text-anchor="start" x="270.5" y="-32.5" font-family="Helvetica,sans-Serif" font-size="10.00">+</text>
<text text-anchor="start" x="283.5" y="-32.5" font-family="Helvetica,sans-Serif" font-size="10.00">std::vector&lt; sf::IpAddress</text>
<text text-anchor="start" x="283.5" y="-21.5" font-family="Helvetica,sans-Serif" font-size="10.00"> &gt; getLocalIpAddresses() const</text>
<text text-anchor="start" x="270.5" y="-6.5" font-family="Helvetica,sans-Serif" font-size="10.00">+</text>
<text text-anchor="start" x="283.5" y="-6.5" font-family="Helvetica,sans-Serif" font-size="10.00">UdpSender &amp; getSender()</text>
<polygon fill="#666666" stroke="#666666" points="266.5,-169.5 266.5,-169.5 439.5,-169.5 439.5,-169.5 266.5,-169.5"/>
<polygon fill="#666666" stroke="#666666" points="266.5,-154.5 266.5,-154.5 439.5,-154.5 439.5,-154.5 266.5,-154.5"/>
<polygon fill="none" stroke="#666666" points="266,0 266,-187 439,-187 439,0 266,0"/>
</a>
</g>
</g>
<!-- Node2 -->
<g id="Node000002" class="node">
<title>Node2</title>
<g id="a_Node000002"><a xlink:href="classNtw_1_1UdpReceiver.html" target="_top" xlink:title=" ">
<polygon fill="white" stroke="transparent" points="173,-767 0,-767 0,-483 173,-483 173,-767"/>
<text text-anchor="start" x="43" y="-755" font-family="Helvetica,sans-Serif" font-size="10.00">Ntw::UdpReceiver</text>
<text text-anchor="start" x="7" y="-740" font-family="Helvetica,sans-Serif" font-size="10.00">&#45;</text>
<text text-anchor="start" x="17.5" y="-740" font-family="Helvetica,sans-Serif" font-size="10.00">sf::UdpSocket _socket</text>
<text text-anchor="start" x="7" y="-725" font-family="Helvetica,sans-Serif" font-size="10.00">&#45;</text>
<text text-anchor="start" x="17.5" y="-725" font-family="Helvetica,sans-Serif" font-size="10.00">unsigned short _port</text>
<text text-anchor="start" x="7" y="-710" font-family="Helvetica,sans-Serif" font-size="10.00">&#45;</text>
<text text-anchor="start" x="17.5" y="-710" font-family="Helvetica,sans-Serif" font-size="10.00">std::queue&lt; std::unique</text>
<text text-anchor="start" x="17.5" y="-699" font-family="Helvetica,sans-Serif" font-size="10.00">_ptr&lt; ReceivedPacket &gt;</text>
<text text-anchor="start" x="17.5" y="-688" font-family="Helvetica,sans-Serif" font-size="10.00"> &gt; _packetQueue</text>
<text text-anchor="start" x="7" y="-673" font-family="Helvetica,sans-Serif" font-size="10.00">&#45;</text>
<text text-anchor="start" x="17.5" y="-673" font-family="Helvetica,sans-Serif" font-size="10.00">std::mutex _mutex</text>
<text text-anchor="start" x="7" y="-658" font-family="Helvetica,sans-Serif" font-size="10.00">&#45;</text>
<text text-anchor="start" x="17.5" y="-658" font-family="Helvetica,sans-Serif" font-size="10.00">std::thread _thread</text>
<text text-anchor="start" x="7" y="-643" font-family="Helvetica,sans-Serif" font-size="10.00">&#45;</text>
<text text-anchor="start" x="17.5" y="-643" font-family="Helvetica,sans-Serif" font-size="10.00">bool _running</text>
<text text-anchor="start" x="4.5" y="-628" font-family="Helvetica,sans-Serif" font-size="10.00">+</text>
<text text-anchor="start" x="17.5" y="-628" font-family="Helvetica,sans-Serif" font-size="10.00">UdpReceiver(unsigned</text>
<text text-anchor="start" x="17.5" y="-617" font-family="Helvetica,sans-Serif" font-size="10.00"> short port)</text>
<text text-anchor="start" x="4.5" y="-602" font-family="Helvetica,sans-Serif" font-size="10.00">+</text>
<text text-anchor="start" x="17.5" y="-602" font-family="Helvetica,sans-Serif" font-size="10.00">~UdpReceiver()</text>
<text text-anchor="start" x="4.5" y="-587" font-family="Helvetica,sans-Serif" font-size="10.00">+</text>
<text text-anchor="start" x="17.5" y="-587" font-family="Helvetica,sans-Serif" font-size="10.00">void start()</text>
<text text-anchor="start" x="4.5" y="-572" font-family="Helvetica,sans-Serif" font-size="10.00">+</text>
<text text-anchor="start" x="17.5" y="-572" font-family="Helvetica,sans-Serif" font-size="10.00">void stop()</text>
<text text-anchor="start" x="4.5" y="-557" font-family="Helvetica,sans-Serif" font-size="10.00">+</text>
<text text-anchor="start" x="17.5" y="-557" font-family="Helvetica,sans-Serif" font-size="10.00">void join()</text>
<text text-anchor="start" x="4.5" y="-542" font-family="Helvetica,sans-Serif" font-size="10.00">+</text>
<text text-anchor="start" x="17.5" y="-542" font-family="Helvetica,sans-Serif" font-size="10.00">bool getPacket(ReceivedPacket</text>
<text text-anchor="start" x="17.5" y="-531" font-family="Helvetica,sans-Serif" font-size="10.00"> &amp;packet)</text>
<text text-anchor="start" x="4.5" y="-516" font-family="Helvetica,sans-Serif" font-size="10.00">+</text>
<text text-anchor="start" x="17.5" y="-516" font-family="Helvetica,sans-Serif" font-size="10.00">unsigned short getPort</text>
<text text-anchor="start" x="17.5" y="-505" font-family="Helvetica,sans-Serif" font-size="10.00">() const</text>
<text text-anchor="start" x="7" y="-490" font-family="Helvetica,sans-Serif" font-size="10.00">&#45;</text>
<text text-anchor="start" x="17.5" y="-490" font-family="Helvetica,sans-Serif" font-size="10.00">void receiveLoop()</text>
<polygon fill="#666666" stroke="#666666" points="0.5,-750 0.5,-750 173.5,-750 173.5,-750 0.5,-750"/>
<polygon fill="#666666" stroke="#666666" points="0.5,-638 0.5,-638 15.5,-638 15.5,-638 0.5,-638"/>
<polygon fill="#666666" stroke="#666666" points="15.5,-638 15.5,-638 173.5,-638 173.5,-638 15.5,-638"/>
<polygon fill="none" stroke="#666666" points="0,-483 0,-767 173,-767 173,-483 0,-483"/>
</a>
</g>
</g>
<!-- Node2&#45;&gt;Node1 -->
<g id="edge1_Node000001_Node000002" class="edge">
<title>Node2&#45;&gt;Node1</title>
<g id="a_edge1_Node000001_Node000002"><a xlink:title=" ">
<path fill="none" stroke="#63b8ff" d="M48.76,-482.59C35.98,-403.91 34.61,-307.36 79.5,-234 117.35,-172.16 192.21,-136.63 253.99,-116.92"/>
<polygon fill="none" stroke="#63b8ff" points="254.28,-116.83 258.85,-111.25 265.76,-113.31 261.2,-118.89 254.28,-116.83"/>
</a>
</g>
<text text-anchor="middle" x="105.5" y="-332.5" font-family="Helvetica,sans-Serif" font-size="10.00" fill="grey"> &#45;_receiver</text>
</g>
<!-- Node4 -->
<g id="Node000004" class="node">
<title>Node4</title>
<g id="a_Node000004"><a xlink:href="classNtw_1_1PacketInterpreter.html" target="_top" xlink:title=" ">
<polygon fill="white" stroke="transparent" points="300.5,-436 140.5,-436 140.5,-234 300.5,-234 300.5,-436"/>
<text text-anchor="start" x="166" y="-424" font-family="Helvetica,sans-Serif" font-size="10.00">Ntw::PacketInterpreter</text>
<text text-anchor="start" x="147" y="-409" font-family="Helvetica,sans-Serif" font-size="10.00">&#45;</text>
<text text-anchor="start" x="157.5" y="-409" font-family="Helvetica,sans-Serif" font-size="10.00">std::queue&lt; ReceivedPacket</text>
<text text-anchor="start" x="157.5" y="-398" font-family="Helvetica,sans-Serif" font-size="10.00"> &gt; _packetBuffer</text>
<text text-anchor="start" x="147" y="-383" font-family="Helvetica,sans-Serif" font-size="10.00">&#45;</text>
<text text-anchor="start" x="157.5" y="-383" font-family="Helvetica,sans-Serif" font-size="10.00">std::mutex _mutex</text>
<text text-anchor="start" x="147" y="-368" font-family="Helvetica,sans-Serif" font-size="10.00">&#45;</text>
<text text-anchor="start" x="157.5" y="-368" font-family="Helvetica,sans-Serif" font-size="10.00">std::thread _thread</text>
<text text-anchor="start" x="147" y="-353" font-family="Helvetica,sans-Serif" font-size="10.00">&#45;</text>
<text text-anchor="start" x="157.5" y="-353" font-family="Helvetica,sans-Serif" font-size="10.00">std::atomic&lt; bool &gt;</text>
<text text-anchor="start" x="157.5" y="-342" font-family="Helvetica,sans-Serif" font-size="10.00"> _running</text>
<text text-anchor="start" x="144.5" y="-327" font-family="Helvetica,sans-Serif" font-size="10.00">+</text>
<text text-anchor="start" x="157.5" y="-327" font-family="Helvetica,sans-Serif" font-size="10.00">PacketInterpreter</text>
<text text-anchor="start" x="157.5" y="-316" font-family="Helvetica,sans-Serif" font-size="10.00">(UdpReceiver &amp;receiver)</text>
<text text-anchor="start" x="144.5" y="-301" font-family="Helvetica,sans-Serif" font-size="10.00">+</text>
<text text-anchor="start" x="157.5" y="-301" font-family="Helvetica,sans-Serif" font-size="10.00">~PacketInterpreter()</text>
<text text-anchor="start" x="144.5" y="-286" font-family="Helvetica,sans-Serif" font-size="10.00">+</text>
<text text-anchor="start" x="157.5" y="-286" font-family="Helvetica,sans-Serif" font-size="10.00">void start()</text>
<text text-anchor="start" x="144.5" y="-271" font-family="Helvetica,sans-Serif" font-size="10.00">+</text>
<text text-anchor="start" x="157.5" y="-271" font-family="Helvetica,sans-Serif" font-size="10.00">void stop()</text>
<text text-anchor="start" x="144.5" y="-256" font-family="Helvetica,sans-Serif" font-size="10.00">+</text>
<text text-anchor="start" x="157.5" y="-256" font-family="Helvetica,sans-Serif" font-size="10.00">void join()</text>
<text text-anchor="start" x="147" y="-241" font-family="Helvetica,sans-Serif" font-size="10.00">&#45;</text>
<text text-anchor="start" x="157.5" y="-241" font-family="Helvetica,sans-Serif" font-size="10.00">void interpreterLoop()</text>
<polygon fill="#666666" stroke="#666666" points="140.5,-419 140.5,-419 300.5,-419 300.5,-419 140.5,-419"/>
<polygon fill="#666666" stroke="#666666" points="140.5,-337 140.5,-337 155.5,-337 155.5,-337 140.5,-337"/>
<polygon fill="#666666" stroke="#666666" points="155.5,-337 155.5,-337 300.5,-337 300.5,-337 155.5,-337"/>
<polygon fill="none" stroke="#666666" points="140.5,-234 140.5,-436 300.5,-436 300.5,-234 140.5,-234"/>
</a>
</g>
</g>
<!-- Node2&#45;&gt;Node4 -->
<g id="edge4_Node000004_Node000002" class="edge">
<title>Node2&#45;&gt;Node4</title>
<g id="a_edge4_Node000004_Node000002"><a xlink:title=" ">
<path fill="none" stroke="#63b8ff" d="M152.13,-482.95C157.7,-470.96 163.29,-458.95 168.74,-447.24"/>
<polygon fill="none" stroke="#63b8ff" points="168.86,-446.99 167.76,-439.87 173.92,-436.11 175.01,-443.24 168.86,-446.99"/>
</a>
</g>
<text text-anchor="middle" x="192.5" y="-457" font-family="Helvetica,sans-Serif" font-size="10.00" fill="grey"> &#45;_receiver</text>
</g>
<!-- Node3 -->
<g id="Node000003" class="node">
<title>Node3</title>
<g id="a_Node000003"><a xlink:href="classNtw_1_1UdpSender.html" target="_top" xlink:title=" ">
<polygon fill="white" stroke="transparent" points="476.5,-402 318.5,-402 318.5,-268 476.5,-268 476.5,-402"/>
<text text-anchor="start" x="358" y="-390" font-family="Helvetica,sans-Serif" font-size="10.00">Ntw::UdpSender</text>
<text text-anchor="start" x="325" y="-375" font-family="Helvetica,sans-Serif" font-size="10.00">&#45;</text>
<text text-anchor="start" x="335.5" y="-375" font-family="Helvetica,sans-Serif" font-size="10.00">sf::UdpSocket _socket</text>
<text text-anchor="start" x="322.5" y="-360" font-family="Helvetica,sans-Serif" font-size="10.00">+</text>
<text text-anchor="start" x="335.5" y="-360" font-family="Helvetica,sans-Serif" font-size="10.00">UdpSender()</text>
<text text-anchor="start" x="322.5" y="-345" font-family="Helvetica,sans-Serif" font-size="10.00">+</text>
<text text-anchor="start" x="335.5" y="-345" font-family="Helvetica,sans-Serif" font-size="10.00">bool sendTo(const std</text>
<text text-anchor="start" x="335.5" y="-334" font-family="Helvetica,sans-Serif" font-size="10.00">::vector&lt; char &gt; &amp;data,</text>
<text text-anchor="start" x="335.5" y="-323" font-family="Helvetica,sans-Serif" font-size="10.00"> const sf::IpAddress &amp;ip,</text>
<text text-anchor="start" x="335.5" y="-312" font-family="Helvetica,sans-Serif" font-size="10.00"> unsigned short port)</text>
<text text-anchor="start" x="322.5" y="-297" font-family="Helvetica,sans-Serif" font-size="10.00">+</text>
<text text-anchor="start" x="335.5" y="-297" font-family="Helvetica,sans-Serif" font-size="10.00">bool broadcast(const</text>
<text text-anchor="start" x="335.5" y="-286" font-family="Helvetica,sans-Serif" font-size="10.00"> std::vector&lt; char &gt;</text>
<text text-anchor="start" x="335.5" y="-275" font-family="Helvetica,sans-Serif" font-size="10.00"> &amp;data, unsigned short port)</text>
<polygon fill="#666666" stroke="#666666" points="318.5,-385 318.5,-385 476.5,-385 476.5,-385 318.5,-385"/>
<polygon fill="#666666" stroke="#666666" points="318.5,-370 318.5,-370 333.5,-370 333.5,-370 318.5,-370"/>
<polygon fill="#666666" stroke="#666666" points="333.5,-370 333.5,-370 476.5,-370 476.5,-370 333.5,-370"/>
<polygon fill="none" stroke="#666666" points="318.5,-268 318.5,-402 476.5,-402 476.5,-268 318.5,-268"/>
</a>
</g>
</g>
<!-- Node3&#45;&gt;Node1 -->
<g id="edge2_Node000001_Node000003" class="edge">
<title>Node3&#45;&gt;Node1</title>
<g id="a_edge2_Node000001_Node000003"><a xlink:title=" ">
<path fill="none" stroke="#63b8ff" d="M385.08,-267.92C381.1,-246.7 376.58,-222.64 372.2,-199.35"/>
<polygon fill="none" stroke="#63b8ff" points="372.14,-199.05 367.1,-193.89 369.93,-187.25 374.97,-192.41 372.14,-199.05"/>
</a>
</g>
<text text-anchor="middle" x="397.5" y="-208" font-family="Helvetica,sans-Serif" font-size="10.00" fill="grey"> &#45;_sender</text>
</g>
<!-- Node4&#45;&gt;Node1 -->
<g id="edge3_Node000001_Node000004" class="edge">
<title>Node4&#45;&gt;Node1</title>
<g id="a_edge3_Node000001_Node000004"><a xlink:title=" ">
<path fill="none" stroke="#63b8ff" d="M275.72,-233.82C282.26,-221.94 288.95,-209.8 295.52,-197.89"/>
<polygon fill="none" stroke="#63b8ff" points="295.72,-197.53 295.11,-190.34 301.51,-187.02 302.12,-194.2 295.72,-197.53"/>
</a>
</g>
<text text-anchor="middle" x="322.5" y="-208" font-family="Helvetica,sans-Serif" font-size="10.00" fill="grey"> &#45;_interpreter</text>
</g>
<!-- Node5 -->
<g id="Node000005" class="node">
<title>Node5</title>
<g id="a_Node000005"><a xlink:href="classGameLoop.html" target="_top" xlink:title=" ">
<polygon fill="white" stroke="transparent" points="614.5,-417.5 494.5,-417.5 494.5,-252.5 614.5,-252.5 614.5,-417.5"/>
<text text-anchor="start" x="528" y="-405" font-family="Helvetica,sans-Serif" font-size="10.00">GameLoop</text>
<text text-anchor="start" x="501" y="-390" font-family="Helvetica,sans-Serif" font-size="10.00">&#45;</text>
<text text-anchor="start" x="511.5" y="-390" font-family="Helvetica,sans-Serif" font-size="10.00">sf::Clock _clock</text>
<text text-anchor="start" x="501" y="-375" font-family="Helvetica,sans-Serif" font-size="10.00">&#45;</text>
<text text-anchor="start" x="511.5" y="-375" font-family="Helvetica,sans-Serif" font-size="10.00">std::thread _thread</text>
<text text-anchor="start" x="501" y="-360" font-family="Helvetica,sans-Serif" font-size="10.00">&#45;</text>
<text text-anchor="start" x="511.5" y="-360" font-family="Helvetica,sans-Serif" font-size="10.00">std::atomic&lt; bool &gt;</text>
<text text-anchor="start" x="511.5" y="-349" font-family="Helvetica,sans-Serif" font-size="10.00"> _running</text>
<text text-anchor="start" x="498.5" y="-334" font-family="Helvetica,sans-Serif" font-size="10.00">+</text>
<text text-anchor="start" x="511.5" y="-334" font-family="Helvetica,sans-Serif" font-size="10.00">GameLoop()</text>
<text text-anchor="start" x="498.5" y="-319" font-family="Helvetica,sans-Serif" font-size="10.00">+</text>
<text text-anchor="start" x="511.5" y="-319" font-family="Helvetica,sans-Serif" font-size="10.00">~GameLoop()</text>
<text text-anchor="start" x="498.5" y="-304" font-family="Helvetica,sans-Serif" font-size="10.00">+</text>
<text text-anchor="start" x="511.5" y="-304" font-family="Helvetica,sans-Serif" font-size="10.00">void start()</text>
<text text-anchor="start" x="498.5" y="-289" font-family="Helvetica,sans-Serif" font-size="10.00">+</text>
<text text-anchor="start" x="511.5" y="-289" font-family="Helvetica,sans-Serif" font-size="10.00">void stop()</text>
<text text-anchor="start" x="498.5" y="-274" font-family="Helvetica,sans-Serif" font-size="10.00">+</text>
<text text-anchor="start" x="511.5" y="-274" font-family="Helvetica,sans-Serif" font-size="10.00">void join()</text>
<text text-anchor="start" x="501" y="-259" font-family="Helvetica,sans-Serif" font-size="10.00">&#45;</text>
<text text-anchor="start" x="511.5" y="-259" font-family="Helvetica,sans-Serif" font-size="10.00">void gameLoop()</text>
<polygon fill="#666666" stroke="#666666" points="494.5,-400 494.5,-400 614.5,-400 614.5,-400 494.5,-400"/>
<polygon fill="#666666" stroke="#666666" points="494.5,-344 494.5,-344 509.5,-344 509.5,-344 494.5,-344"/>
<polygon fill="#666666" stroke="#666666" points="509.5,-344 509.5,-344 614.5,-344 614.5,-344 509.5,-344"/>
<polygon fill="none" stroke="#666666" points="494.5,-252.5 494.5,-417.5 614.5,-417.5 614.5,-252.5 494.5,-252.5"/>
</a>
</g>
</g>
<!-- Node5&#45;&gt;Node1 -->
<g id="edge5_Node000001_Node000005" class="edge">
<title>Node5&#45;&gt;Node1</title>
<g id="a_edge5_Node000001_Node000005"><a xlink:title=" ">
<path fill="none" stroke="#63b8ff" d="M499.82,-252.43C495.1,-246.1 490.29,-239.89 485.5,-234 473.61,-219.38 460.52,-204.44 447.32,-190.03"/>
<polygon fill="none" stroke="#63b8ff" points="447.25,-189.95 440.24,-188.26 439.11,-181.14 446.12,-182.83 447.25,-189.95"/>
</a>
</g>
<text text-anchor="middle" x="500.5" y="-208" font-family="Helvetica,sans-Serif" font-size="10.00" fill="grey"> &#45;_gameLoop</text>
</g>
</g>
</svg>
