<?xml version="1.0" encoding="UTF-8" standalone="no"?>
<!DOCTYPE svg PUBLIC "-//W3C//DTD SVG 1.1//EN"
 "http://www.w3.org/Graphics/SVG/1.1/DTD/svg11.dtd">
<!-- Generated by graphviz version 2.43.0 (0)
 -->
<!-- Title: Server::update Pages: 1 -->
<svg width="638pt" height="288pt"
 viewBox="0.00 0.00 638.00 288.00" xmlns="http://www.w3.org/2000/svg" xmlns:xlink="http://www.w3.org/1999/xlink">
<g id="graph0" class="graph" transform="scale(1 1) rotate(0) translate(4 284)">
<title>Server::update</title>
<!-- Node1 -->
<g id="Node000001" class="node">
<title>Node1</title>
<g id="a_Node000001"><a xlink:title=" ">
<polygon fill="#999999" stroke="#666666" points="88,-150 0,-150 0,-131 88,-131 88,-150"/>
<text text-anchor="middle" x="44" y="-138" font-family="Helvetica,sans-Serif" font-size="10.00">Server::update</text>
</a>
</g>
</g>
<!-- Node2 -->
<g id="Node000002" class="node">
<title>Node2</title>
<g id="a_Node000002"><a xlink:href="namespaceFactory.html#acb4f080b19f667e0bcc6fe95c0ab1b76" target="_top" xlink:title=" ">
<polygon fill="white" stroke="#666666" points="275,-280 141,-280 141,-261 275,-261 275,-280"/>
<text text-anchor="middle" x="208" y="-268" font-family="Helvetica,sans-Serif" font-size="10.00">Factory::createProjectile</text>
</a>
</g>
</g>
<!-- Node1&#45;&gt;Node2 -->
<g id="edge1_Node000001_Node000002" class="edge">
<title>Node1&#45;&gt;Node2</title>
<g id="a_edge1_Node000001_Node000002"><a xlink:title=" ">
<path fill="none" stroke="#63b8ff" d="M48.85,-150.13C58.17,-172.11 84.13,-226.09 124,-252.5 126.42,-254.1 128.96,-255.57 131.58,-256.9"/>
<polygon fill="#63b8ff" stroke="#63b8ff" points="130.23,-260.13 140.79,-260.96 133.06,-253.72 130.23,-260.13"/>
</a>
</g>
</g>
<!-- Node3 -->
<g id="Node000003" class="node">
<title>Node3</title>
<g id="a_Node000003"><a xlink:href="classECS.html#aaae60c88af59dd7af9d86200eb522bbc" target="_top" xlink:title="Retrieves a mutable pointer to a component.">
<polygon fill="white" stroke="#666666" points="264.5,-243 151.5,-243 151.5,-224 264.5,-224 264.5,-243"/>
<text text-anchor="middle" x="208" y="-231" font-family="Helvetica,sans-Serif" font-size="10.00">ECS::getComponent</text>
</a>
</g>
</g>
<!-- Node1&#45;&gt;Node3 -->
<g id="edge2_Node000001_Node000003" class="edge">
<title>Node1&#45;&gt;Node3</title>
<g id="a_edge2_Node000001_Node000003"><a xlink:title=" ">
<path fill="none" stroke="#63b8ff" d="M52.11,-150.05C64.7,-166.22 92.57,-198.88 124,-215.5 129.56,-218.44 135.57,-220.9 141.73,-222.96"/>
<polygon fill="#63b8ff" stroke="#63b8ff" points="140.9,-226.36 151.48,-225.87 142.9,-219.66 140.9,-226.36"/>
</a>
</g>
</g>
<!-- Node8 -->
<g id="Node000008" class="node">
<title>Node8</title>
<g id="a_Node000008"><a xlink:href="engine_2ecs_2ecs_8hpp.html#a5a868f82168f3b251aa7ca758686125c" target="_top" xlink:title="Retrieves the unique ID for a given component type.">
<polygon fill="white" stroke="#666666" points="443.5,-131 344.5,-131 344.5,-112 443.5,-112 443.5,-131"/>
<text text-anchor="middle" x="394" y="-119" font-family="Helvetica,sans-Serif" font-size="10.00">getComponentID</text>
</a>
</g>
</g>
<!-- Node1&#45;&gt;Node8 -->
<g id="edge8_Node000001_Node000008" class="edge">
<title>Node1&#45;&gt;Node8</title>
<g id="a_edge8_Node000001_Node000008"><a xlink:title=" ">
<path fill="none" stroke="#63b8ff" d="M88.02,-138.15C149.94,-134.77 264.4,-128.52 334.12,-124.71"/>
<polygon fill="#63b8ff" stroke="#63b8ff" points="334.7,-128.19 344.49,-124.15 334.32,-121.2 334.7,-128.19"/>
</a>
</g>
</g>
<!-- Node9 -->
<g id="Node000009" class="node">
<title>Node9</title>
<g id="a_Node000009"><a xlink:href="classECS.html#a8d931ce389d47888768e1a5092bde26b" target="_top" xlink:title="Retrieves entities that have all specified components.">
<polygon fill="white" stroke="#666666" points="292,-169 124,-169 124,-150 292,-150 292,-169"/>
<text text-anchor="middle" x="208" y="-157" font-family="Helvetica,sans-Serif" font-size="10.00">ECS::getEntitiesByComponents</text>
</a>
</g>
</g>
<!-- Node1&#45;&gt;Node9 -->
<g id="edge10_Node000001_Node000009" class="edge">
<title>Node1&#45;&gt;Node9</title>
<g id="a_edge10_Node000001_Node000009"><a xlink:title=" ">
<path fill="none" stroke="#63b8ff" d="M88.41,-145.59C97.04,-146.6 106.39,-147.7 115.94,-148.82"/>
<polygon fill="#63b8ff" stroke="#63b8ff" points="115.59,-152.3 125.93,-149.99 116.41,-145.35 115.59,-152.3"/>
</a>
</g>
</g>
<!-- Node10 -->
<g id="Node000010" class="node">
<title>Node10</title>
<g id="a_Node000010"><a xlink:href="classECS.html#a33c16853296e9784dfb558f35dffbd72" target="_top" xlink:title="Checks if an entity has a specific component.">
<polygon fill="white" stroke="#666666" points="265.5,-206 150.5,-206 150.5,-187 265.5,-187 265.5,-206"/>
<text text-anchor="middle" x="208" y="-194" font-family="Helvetica,sans-Serif" font-size="10.00">ECS::hasComponent</text>
</a>
</g>
</g>
<!-- Node1&#45;&gt;Node10 -->
<g id="edge12_Node000001_Node000010" class="edge">
<title>Node1&#45;&gt;Node10</title>
<g id="a_edge12_Node000001_Node000010"><a xlink:title=" ">
<path fill="none" stroke="#63b8ff" d="M62.07,-150.16C77.75,-158.68 101.83,-170.88 124,-178.5 130.37,-180.69 137.11,-182.67 143.89,-184.45"/>
<polygon fill="#63b8ff" stroke="#63b8ff" points="143.25,-187.9 153.8,-186.91 144.94,-181.1 143.25,-187.9"/>
</a>
</g>
</g>
<!-- Node11 -->
<g id="Node000011" class="node">
<title>Node11</title>
<g id="a_Node000011"><a xlink:href="classECS.html#a77bab58f7b7d5e53443078f60957b2d2" target="_top" xlink:title="Destroys an entity.">
<polygon fill="white" stroke="#666666" points="250.5,-93 165.5,-93 165.5,-74 250.5,-74 250.5,-93"/>
<text text-anchor="middle" x="208" y="-81" font-family="Helvetica,sans-Serif" font-size="10.00">ECS::killEntity</text>
</a>
</g>
</g>
<!-- Node1&#45;&gt;Node11 -->
<g id="edge15_Node000001_Node000011" class="edge">
<title>Node1&#45;&gt;Node11</title>
<g id="a_edge15_Node000001_Node000011"><a xlink:title=" ">
<path fill="none" stroke="#63b8ff" d="M66.2,-130.87C81.96,-123.9 104.09,-114.51 124,-107.5 135.83,-103.34 148.78,-99.33 160.86,-95.83"/>
<polygon fill="#63b8ff" stroke="#63b8ff" points="162.1,-99.11 170.76,-93.01 160.19,-92.38 162.1,-99.11"/>
</a>
</g>
</g>
<!-- Node12 -->
<g id="Node000012" class="node">
<title>Node12</title>
<g id="a_Node000012"><a xlink:href="classMovementSystem.html#afd53a085ce047480cbd2a004cb557003" target="_top" xlink:title="Pure virtual function to update the system.">
<polygon fill="white" stroke="#666666" points="281,-56 135,-56 135,-37 281,-37 281,-56"/>
<text text-anchor="middle" x="208" y="-44" font-family="Helvetica,sans-Serif" font-size="10.00">MovementSystem::update</text>
</a>
</g>
</g>
<!-- Node1&#45;&gt;Node12 -->
<g id="edge16_Node000001_Node000012" class="edge">
<title>Node1&#45;&gt;Node12</title>
<g id="a_edge16_Node000001_Node000012"><a xlink:title=" ">
<path fill="none" stroke="#63b8ff" d="M52.08,-130.82C64.62,-114.43 92.43,-81.33 124,-64.5 127.49,-62.64 131.15,-60.97 134.92,-59.48"/>
<polygon fill="#63b8ff" stroke="#63b8ff" points="136.2,-62.74 144.46,-56.11 133.87,-56.14 136.2,-62.74"/>
</a>
</g>
</g>
<!-- Node13 -->
<g id="Node000013" class="node">
<title>Node13</title>
<g id="a_Node000013"><a xlink:href="classWaveSystem.html#a9a5c16c210763a371d4b535e76b2208c" target="_top" xlink:title="Pure virtual function to update the system.">
<polygon fill="white" stroke="#666666" points="268,-19 148,-19 148,0 268,0 268,-19"/>
<text text-anchor="middle" x="208" y="-7" font-family="Helvetica,sans-Serif" font-size="10.00">WaveSystem::update</text>
</a>
</g>
</g>
<!-- Node1&#45;&gt;Node13 -->
<g id="edge17_Node000001_Node000013" class="edge">
<title>Node1&#45;&gt;Node13</title>
<g id="a_edge17_Node000001_Node000013"><a xlink:title=" ">
<path fill="none" stroke="#63b8ff" d="M48.83,-130.78C58.09,-108.61 83.94,-54.15 124,-27.5 128.34,-24.61 133.06,-22.18 137.98,-20.13"/>
<polygon fill="#63b8ff" stroke="#63b8ff" points="139.41,-23.33 147.63,-16.64 137.03,-16.75 139.41,-23.33"/>
</a>
</g>
</g>
<!-- Node4 -->
<g id="Node000004" class="node">
<title>Node4</title>
<g id="a_Node000004"><a xlink:href="classStorageComponent.html#a4e0239d1d216347282d49c0bcdf0079d" target="_top" xlink:title="Retrieves a read&#45;only pointer to the component for the entity.">
<polygon fill="white" stroke="#666666" points="460,-262 328,-262 328,-243 460,-243 460,-262"/>
<text text-anchor="middle" x="394" y="-250" font-family="Helvetica,sans-Serif" font-size="10.00">StorageComponent::get</text>
</a>
</g>
</g>
<!-- Node3&#45;&gt;Node4 -->
<g id="edge3_Node000003_Node000004" class="edge">
<title>Node3&#45;&gt;Node4</title>
<g id="a_edge3_Node000003_Node000004"><a xlink:title=" ">
<path fill="none" stroke="#63b8ff" d="M264.71,-239.25C281.33,-240.97 299.83,-242.88 317.5,-244.7"/>
<polygon fill="#63b8ff" stroke="#63b8ff" points="317.48,-248.22 327.78,-245.77 318.2,-241.26 317.48,-248.22"/>
</a>
</g>
</g>
<!-- Node6 -->
<g id="Node000006" class="node">
<title>Node6</title>
<g id="a_Node000006"><a xlink:href="server_2ecs_8hpp.html#a5a868f82168f3b251aa7ca758686125c" target="_top" xlink:title=" ">
<polygon fill="white" stroke="#666666" points="443.5,-168 344.5,-168 344.5,-149 443.5,-149 443.5,-168"/>
<text text-anchor="middle" x="394" y="-156" font-family="Helvetica,sans-Serif" font-size="10.00">getComponentID</text>
</a>
</g>
</g>
<!-- Node3&#45;&gt;Node6 -->
<g id="edge5_Node000003_Node000006" class="edge">
<title>Node3&#45;&gt;Node6</title>
<g id="a_edge5_Node000003_Node000006"><a xlink:title=" ">
<path fill="none" stroke="#63b8ff" d="M264.15,-223.98C273.58,-221.66 283.18,-218.86 292,-215.5 320.59,-204.62 350.82,-186.57 370.67,-173.7"/>
<polygon fill="#63b8ff" stroke="#63b8ff" points="372.86,-176.46 379.28,-168.03 369,-170.61 372.86,-176.46"/>
</a>
</g>
</g>
<!-- Node5 -->
<g id="Node000005" class="node">
<title>Node5</title>
<g id="a_Node000005"><a xlink:href="classStorageComponent.html#a6de145a1ea5570363f566ab9fce66578" target="_top" xlink:title="Checks if the entity has this component type.">
<polygon fill="white" stroke="#666666" points="630,-243 496,-243 496,-224 630,-224 630,-243"/>
<text text-anchor="middle" x="563" y="-231" font-family="Helvetica,sans-Serif" font-size="10.00">StorageComponent::has</text>
</a>
</g>
</g>
<!-- Node4&#45;&gt;Node5 -->
<g id="edge4_Node000004_Node000005" class="edge">
<title>Node4&#45;&gt;Node5</title>
<g id="a_edge4_Node000004_Node000005"><a xlink:title=" ">
<path fill="none" stroke="#63b8ff" d="M460.04,-245.1C468.47,-244.14 477.16,-243.15 485.75,-242.18"/>
<polygon fill="#63b8ff" stroke="#63b8ff" points="486.22,-245.64 495.76,-241.04 485.43,-238.69 486.22,-245.64"/>
</a>
</g>
</g>
<!-- Node6&#45;&gt;Node6 -->
<g id="edge6_Node000006_Node000006" class="edge">
<title>Node6&#45;&gt;Node6</title>
<g id="a_edge6_Node000006_Node000006"><a xlink:title=" ">
<path fill="none" stroke="#63b8ff" d="M368.11,-168.08C355.51,-176.73 364.14,-186 394,-186 414.06,-186 424.54,-181.82 425.44,-176.45"/>
<polygon fill="#63b8ff" stroke="#63b8ff" points="428.34,-174.49 419.89,-168.08 422.5,-178.35 428.34,-174.49"/>
</a>
</g>
</g>
<!-- Node7 -->
<g id="Node000007" class="node">
<title>Node7</title>
<g id="a_Node000007"><a xlink:href="engine_2ecs_2ecs_8hpp.html#afdb02fc115de82c93e814ac1d3a64c06" target="_top" xlink:title="Generates a new unique ComponentTypeID.">
<polygon fill="white" stroke="#666666" points="626,-150 500,-150 500,-131 626,-131 626,-150"/>
<text text-anchor="middle" x="563" y="-138" font-family="Helvetica,sans-Serif" font-size="10.00">newComponentTypeID</text>
</a>
</g>
</g>
<!-- Node6&#45;&gt;Node7 -->
<g id="edge7_Node000006_Node000007" class="edge">
<title>Node6&#45;&gt;Node7</title>
<g id="a_edge7_Node000006_Node000007"><a xlink:title=" ">
<path fill="none" stroke="#63b8ff" d="M443.75,-153.25C458.13,-151.7 474.17,-149.97 489.69,-148.29"/>
<polygon fill="#63b8ff" stroke="#63b8ff" points="490.22,-151.76 499.79,-147.21 489.47,-144.8 490.22,-151.76"/>
</a>
</g>
</g>
<!-- Node8&#45;&gt;Node7 -->
<g id="edge9_Node000008_Node000007" class="edge">
<title>Node8&#45;&gt;Node7</title>
<g id="a_edge9_Node000008_Node000007"><a xlink:title=" ">
<path fill="none" stroke="#63b8ff" d="M443.75,-127.05C458.13,-128.68 474.17,-130.51 489.69,-132.27"/>
<polygon fill="#63b8ff" stroke="#63b8ff" points="489.46,-135.77 499.79,-133.42 490.25,-128.81 489.46,-135.77"/>
</a>
</g>
</g>
<!-- Node9&#45;&gt;Node6 -->
<g id="edge11_Node000009_Node000006" class="edge">
<title>Node9&#45;&gt;Node6</title>
<g id="a_edge11_Node000009_Node000006"><a xlink:title=" ">
<path fill="none" stroke="#63b8ff" d="M292.12,-159.05C306.39,-158.97 320.94,-158.89 334.39,-158.82"/>
<polygon fill="#63b8ff" stroke="#63b8ff" points="334.46,-162.32 344.44,-158.76 334.42,-155.32 334.46,-162.32"/>
</a>
</g>
</g>
<!-- Node10&#45;&gt;Node5 -->
<g id="edge14_Node000010_Node000005" class="edge">
<title>Node10&#45;&gt;Node5</title>
<g id="a_edge14_Node000010_Node000005"><a xlink:title=" ">
<path fill="none" stroke="#63b8ff" d="M265.72,-202.44C325.41,-208.7 419.71,-218.59 485.85,-225.52"/>
<polygon fill="#63b8ff" stroke="#63b8ff" points="485.49,-229 495.8,-226.56 486.22,-222.04 485.49,-229"/>
</a>
</g>
</g>
<!-- Node10&#45;&gt;Node6 -->
<g id="edge13_Node000010_Node000006" class="edge">
<title>Node10&#45;&gt;Node6</title>
<g id="a_edge13_Node000010_Node000006"><a xlink:title=" ">
<path fill="none" stroke="#63b8ff" d="M255.43,-186.91C280.15,-181.81 310.74,-175.49 336.79,-170.11"/>
<polygon fill="#63b8ff" stroke="#63b8ff" points="337.82,-173.47 346.9,-168.02 336.4,-166.61 337.82,-173.47"/>
</a>
</g>
</g>
</g>
</svg>
