<?xml version="1.0" encoding="UTF-8" standalone="no"?>
<!DOCTYPE svg PUBLIC "-//W3C//DTD SVG 1.1//EN"
 "http://www.w3.org/Graphics/SVG/1.1/DTD/svg11.dtd">
<!-- Generated by graphviz version 2.43.0 (0)
 -->
<!-- Title: CollisionSystem Pages: 1 -->
<svg width="256pt" height="382pt"
 viewBox="0.00 0.00 256.00 382.00" xmlns="http://www.w3.org/2000/svg" xmlns:xlink="http://www.w3.org/1999/xlink">
<g id="graph0" class="graph" transform="scale(1 1) rotate(0) translate(4 378)">
<title>CollisionSystem</title>
<!-- Node1 -->
<g id="Node000001" class="node">
<title>Node1</title>
<g id="a_Node000001"><a xlink:title=" ">
<polygon fill="#999999" stroke="transparent" points="248,-237 0,-237 0,0 248,0 248,-237"/>
<text text-anchor="start" x="84.5" y="-224.5" font-family="Helvetica,sans-Serif" font-size="10.00">CollisionSystem</text>
<text text-anchor="start" x="122" y="-209.5" font-family="Helvetica,sans-Serif" font-size="10.00"> </text>
<text text-anchor="start" x="4" y="-194.5" font-family="Helvetica,sans-Serif" font-size="10.00">+</text>
<text text-anchor="start" x="17" y="-194.5" font-family="Helvetica,sans-Serif" font-size="10.00">CollisionSystem(ECS</text>
<text text-anchor="start" x="17" y="-183.5" font-family="Helvetica,sans-Serif" font-size="10.00"> &amp;ecs)</text>
<text text-anchor="start" x="4" y="-168.5" font-family="Helvetica,sans-Serif" font-size="10.00">+</text>
<text text-anchor="start" x="17" y="-168.5" font-family="Helvetica,sans-Serif" font-size="10.00">void update(double</text>
<text text-anchor="start" x="17" y="-157.5" font-family="Helvetica,sans-Serif" font-size="10.00"> dt) override</text>
<text text-anchor="start" x="6.5" y="-142.5" font-family="Helvetica,sans-Serif" font-size="10.00">&#45;</text>
<text text-anchor="start" x="17" y="-142.5" font-family="Helvetica,sans-Serif" font-size="10.00">bool checkAABB(const</text>
<text text-anchor="start" x="17" y="-131.5" font-family="Helvetica,sans-Serif" font-size="10.00"> Components::Position</text>
<text text-anchor="start" x="17" y="-120.5" font-family="Helvetica,sans-Serif" font-size="10.00"> &amp;pos1, const Components</text>
<text text-anchor="start" x="17" y="-109.5" font-family="Helvetica,sans-Serif" font-size="10.00">::Collider &amp;coll1, const</text>
<text text-anchor="start" x="17" y="-98.5" font-family="Helvetica,sans-Serif" font-size="10.00"> Components::Position &amp;pos2,</text>
<text text-anchor="start" x="17" y="-87.5" font-family="Helvetica,sans-Serif" font-size="10.00"> const Components::Collider</text>
<text text-anchor="start" x="17" y="-76.5" font-family="Helvetica,sans-Serif" font-size="10.00"> &amp;coll2) const</text>
<text text-anchor="start" x="6.5" y="-61.5" font-family="Helvetica,sans-Serif" font-size="10.00">&#45;</text>
<text text-anchor="start" x="17" y="-61.5" font-family="Helvetica,sans-Serif" font-size="10.00">void resolveCollision</text>
<text text-anchor="start" x="17" y="-50.5" font-family="Helvetica,sans-Serif" font-size="10.00">(Components::Position</text>
<text text-anchor="start" x="17" y="-39.5" font-family="Helvetica,sans-Serif" font-size="10.00"> &amp;mobilePos, const Components</text>
<text text-anchor="start" x="17" y="-28.5" font-family="Helvetica,sans-Serif" font-size="10.00">::Collider &amp;mobileColl, const</text>
<text text-anchor="start" x="17" y="-17.5" font-family="Helvetica,sans-Serif" font-size="10.00"> Components::Position &amp;staticPos,</text>
<text text-anchor="start" x="17" y="-6.5" font-family="Helvetica,sans-Serif" font-size="10.00"> const Components::Collider &amp;staticColl) const</text>
<polygon fill="#666666" stroke="#666666" points="0,-219.5 0,-219.5 248,-219.5 248,-219.5 0,-219.5"/>
<polygon fill="#666666" stroke="#666666" points="0,-204.5 0,-204.5 248,-204.5 248,-204.5 0,-204.5"/>
<polygon fill="none" stroke="#666666" points="0,0 0,-237 248,-237 248,0 0,0"/>
</a>
</g>
</g>
<!-- Node2 -->
<g id="Node000002" class="node">
<title>Node2</title>
<g id="a_Node000002"><a xlink:href="classISystem.html" target="_top" xlink:title="Interface for systems in the ECS.">
<polygon fill="white" stroke="transparent" points="181.5,-374 66.5,-374 66.5,-273 181.5,-273 181.5,-374"/>
<text text-anchor="start" x="104.5" y="-361.5" font-family="Helvetica,sans-Serif" font-size="10.00">ISystem</text>
<text text-anchor="start" x="71" y="-346.5" font-family="Helvetica,sans-Serif" font-size="10.00">#</text>
<text text-anchor="start" x="84" y="-346.5" font-family="Helvetica,sans-Serif" font-size="10.00">ECS &amp; _ecs</text>
<text text-anchor="start" x="71" y="-331.5" font-family="Helvetica,sans-Serif" font-size="10.00">+</text>
<text text-anchor="start" x="84" y="-331.5" font-family="Helvetica,sans-Serif" font-size="10.00">ISystem(ECS &amp;ecs)</text>
<text text-anchor="start" x="71" y="-316.5" font-family="Helvetica,sans-Serif" font-size="10.00">+</text>
<text text-anchor="start" x="84" y="-316.5" font-family="Helvetica,sans-Serif" font-size="10.00">virtual ~ISystem()</text>
<text text-anchor="start" x="84" y="-305.5" font-family="Helvetica,sans-Serif" font-size="10.00">=default</text>
<text text-anchor="start" x="71" y="-290.5" font-family="Helvetica,sans-Serif" font-size="10.00">+</text>
<text text-anchor="start" x="84" y="-290.5" font-family="Helvetica,sans-Serif" font-size="10.00">virtual void update</text>
<text text-anchor="start" x="84" y="-279.5" font-family="Helvetica,sans-Serif" font-size="10.00">(double dt)=0</text>
<polygon fill="#666666" stroke="#666666" points="67,-356.5 67,-356.5 182,-356.5 182,-356.5 67,-356.5"/>
<polygon fill="#666666" stroke="#666666" points="67,-341.5 67,-341.5 82,-341.5 82,-341.5 67,-341.5"/>
<polygon fill="#666666" stroke="#666666" points="82,-341.5 82,-341.5 182,-341.5 182,-341.5 82,-341.5"/>
<polygon fill="none" stroke="#666666" points="66.5,-273 66.5,-374 181.5,-374 181.5,-273 66.5,-273"/>
</a>
</g>
</g>
<!-- Node2&#45;&gt;Node1 -->
<g id="edge1_Node000001_Node000002" class="edge">
<title>Node2&#45;&gt;Node1</title>
<g id="a_edge1_Node000001_Node000002"><a xlink:title=" ">
<path fill="none" stroke="#63b8ff" d="M124,-262.74C124,-254.56 124,-245.95 124,-237.17"/>
<polygon fill="none" stroke="#63b8ff" points="120.5,-262.84 124,-272.84 127.5,-262.84 120.5,-262.84"/>
</a>
</g>
</g>
</g>
</svg>
