<?xml version="1.0" encoding="UTF-8" standalone="no"?>
<!DOCTYPE svg PUBLIC "-//W3C//DTD SVG 1.1//EN"
 "http://www.w3.org/Graphics/SVG/1.1/DTD/svg11.dtd">
<!-- Generated by graphviz version 2.43.0 (0)
 -->
<!-- Title: StorageComponent::has Pages: 1 -->
<!--zoomable 270 -->

<svg id="main" version="1.1" xmlns="http://www.w3.org/2000/svg" xmlns:xlink="http://www.w3.org/1999/xlink" xml:space="preserve" onload="init(evt)">
<style type="text/css"><![CDATA[
.node, .edge {opacity: 0.7;}
.node.selected, .edge.selected {opacity: 1;}
.edge:hover path { stroke: red; }
.edge:hover polygon { stroke: red; fill: red; }
]]></style>

<defs>
  <circle id="rim" cx="0" cy="0" r="7"/>
  <circle id="rim2" cx="0" cy="0" r="3.5"/>
  <g id="zoomPlus">
    <use xlink:href="#rim" fill="#404040"><set attributeName="fill" to="#808080" begin="zoomplus.mouseover" end="zoomplus.mouseout"/></use>
    <path d="M-4,0h8M0,-4v8" fill="none" stroke="white" stroke-width="1.5" pointer-events="none"/>
  </g>
  <g id="zoomMin">
    <use xlink:href="#rim" fill="#404040"><set attributeName="fill" to="#808080" begin="zoomminus.mouseover" end="zoomminus.mouseout"/></use>
    <path d="M-4,0h8" fill="none" stroke="white" stroke-width="1.5" pointer-events="none"/>
  </g>
  <g id="arrowUp" transform="translate(30 24)">
    <use xlink:href="#rim"/>
    <path pointer-events="none" fill="none" stroke="white" stroke-width="1.5" d="M0,-3.0v7 M-2.5,-0.5L0,-3.0L2.5,-0.5"/>
  </g>
  <g id="arrowRight" transform="rotate(90) translate(36 -43)">
    <use xlink:href="#rim"/>
    <path pointer-events="none" fill="none" stroke="white" stroke-width="1.5" d="M0,-3.0v7 M-2.5,-0.5L0,-3.0L2.5,-0.5"/>
  </g>
  <g id="arrowDown" transform="rotate(180) translate(-30 -48)">
    <use xlink:href="#rim"/>
    <path pointer-events="none" fill="none" stroke="white" stroke-width="1.5" d="M0,-3.0v7 M-2.5,-0.5L0,-3.0L2.5,-0.5"/>
  </g>
  <g id="arrowLeft" transform="rotate(270) translate(-36 17)">
    <use xlink:href="#rim"/>
    <path pointer-events="none" fill="none" stroke="white" stroke-width="1.5" d="M0,-3.0v7 M-2.5,-0.5L0,-3.0L2.5,-0.5"/>
  </g>
  <g id="resetDef">
    <use xlink:href="#rim2" fill="#404040"><set attributeName="fill" to="#808080" begin="reset.mouseover" end="reset.mouseout"/></use>
  </g>
</defs>
<script type="application/ecmascript">
var viewWidth = 794;
var viewHeight = 270;
var sectionId = 'dynsection-8';
</script>
<script type="application/ecmascript" xlink:href="svg.min.js"/>
<svg id="graph" class="graph">
<g id="viewport">
<title>StorageComponent::has</title>
<!-- Node1 -->
<g id="Node000001" class="node">
<title>Node1</title>
<g id="a_Node000001"><a xlink:title="Checks if the entity has this component type.">
<polygon fill="#999999" stroke="#666666" points="786,-130.77 652,-130.77 652,-111.77 786,-111.77 786,-130.77"/>
<text text-anchor="middle" x="719" y="-118.77" font-family="Helvetica,sans-Serif" font-size="10.00">StorageComponent::has</text>
</a>
</g>
</g>
<!-- Node2 -->
<g id="Node000002" class="node">
<title>Node2</title>
<g id="a_Node000002"><a xlink:href="classStorageComponent.html#a9ab952a02c2b870d2b4d8c183a404a39" target="_top" xlink:title="Retrieves a mutable pointer to the component for the entity.">
<polygon fill="white" stroke="#666666" points="616,-167.77 484,-167.77 484,-148.77 616,-148.77 616,-167.77"/>
<text text-anchor="middle" x="550" y="-155.77" font-family="Helvetica,sans-Serif" font-size="10.00">StorageComponent::get</text>
</a>
</g>
</g>
<!-- Node1&#45;&gt;Node2 -->
<g id="edge1_Node000001_Node000002" class="edge">
<title>Node1&#45;&gt;Node2</title>
<g id="a_edge1_Node000001_Node000002"><a xlink:title=" ">
<path fill="none" stroke="#63b8ff" d="M665.1,-132.99C642.23,-138.06 615.81,-143.91 594.15,-148.71"/>
<polygon fill="#63b8ff" stroke="#63b8ff" points="665.99,-136.38 674.99,-130.8 664.47,-129.54 665.99,-136.38"/>
</a>
</g>
</g>
<!-- Node3 -->
<g id="Node000003" class="node">
<title>Node3</title>
<g id="a_Node000003"><a xlink:href="classStorageComponent.html#a4e0239d1d216347282d49c0bcdf0079d" target="_top" xlink:title="Retrieves a read&#45;only pointer to the component for the entity.">
<polygon fill="white" stroke="#666666" points="616,-130.77 484,-130.77 484,-111.77 616,-111.77 616,-130.77"/>
<text text-anchor="middle" x="550" y="-118.77" font-family="Helvetica,sans-Serif" font-size="10.00">StorageComponent::get</text>
</a>
</g>
</g>
<!-- Node1&#45;&gt;Node3 -->
<g id="edge2_Node000001_Node000003" class="edge">
<title>Node1&#45;&gt;Node3</title>
<g id="a_edge2_Node000001_Node000003"><a xlink:title=" ">
<path fill="none" stroke="#63b8ff" d="M641.98,-121.27C633.39,-121.27 624.69,-121.27 616.25,-121.27"/>
<polygon fill="#63b8ff" stroke="#63b8ff" points="642,-124.77 652,-121.27 642,-117.77 642,-124.77"/>
</a>
</g>
</g>
<!-- Node13 -->
<g id="Node000013" class="node">
<title>Node13</title>
<g id="a_Node000013"><a xlink:href="classECS.html#a33c16853296e9784dfb558f35dffbd72" target="_top" xlink:title="Checks if an entity has a specific component.">
<polygon fill="white" stroke="#666666" points="435,-36.77 320,-36.77 320,-17.77 435,-17.77 435,-36.77"/>
<text text-anchor="middle" x="377.5" y="-24.77" font-family="Helvetica,sans-Serif" font-size="10.00">ECS::hasComponent</text>
</a>
</g>
</g>
<!-- Node1&#45;&gt;Node13 -->
<g id="edge16_Node000001_Node000013" class="edge">
<title>Node1&#45;&gt;Node13</title>
<g id="a_edge16_Node000001_Node000013"><a xlink:title=" ">
<path fill="none" stroke="#63b8ff" d="M673.53,-108.96C604.98,-89.98 474.97,-53.98 413.01,-36.82"/>
<polygon fill="#63b8ff" stroke="#63b8ff" points="673.01,-112.44 683.58,-111.74 674.88,-105.7 673.01,-112.44"/>
</a>
</g>
</g>
<!-- Node4 -->
<g id="Node000004" class="node">
<title>Node4</title>
<g id="a_Node000004"><a xlink:href="classECS.html#aaae60c88af59dd7af9d86200eb522bbc" target="_top" xlink:title="Retrieves a mutable pointer to a component.">
<polygon fill="white" stroke="#666666" points="434,-130.77 321,-130.77 321,-111.77 434,-111.77 434,-130.77"/>
<text text-anchor="middle" x="377.5" y="-118.77" font-family="Helvetica,sans-Serif" font-size="10.00">ECS::getComponent</text>
</a>
</g>
</g>
<!-- Node3&#45;&gt;Node4 -->
<g id="edge3_Node000003_Node000004" class="edge">
<title>Node3&#45;&gt;Node4</title>
<g id="a_edge3_Node000003_Node000004"><a xlink:title=" ">
<path fill="none" stroke="#63b8ff" d="M473.5,-121.27C460.24,-121.27 446.65,-121.27 434.05,-121.27"/>
<polygon fill="#63b8ff" stroke="#63b8ff" points="473.57,-124.77 483.57,-121.27 473.57,-117.77 473.57,-124.77"/>
</a>
</g>
</g>
<!-- Node11 -->
<g id="Node000011" class="node">
<title>Node11</title>
<g id="a_Node000011"><a xlink:href="classECS.html#a358206e15202fccfa73017c47af07079" target="_top" xlink:title="Retrieves a read&#45;only pointer to a component.">
<polygon fill="white" stroke="#666666" points="448,-223.77 307,-223.77 307,-204.77 448,-204.77 448,-223.77"/>
<text text-anchor="middle" x="377.5" y="-211.77" font-family="Helvetica,sans-Serif" font-size="10.00">ECS::getConstComponent</text>
</a>
</g>
</g>
<!-- Node3&#45;&gt;Node11 -->
<g id="edge14_Node000003_Node000011" class="edge">
<title>Node3&#45;&gt;Node11</title>
<g id="a_edge14_Node000003_Node000011"><a xlink:title=" ">
<path fill="none" stroke="#63b8ff" d="M498.86,-134.11C493.75,-135.95 488.71,-138 484,-140.27 446.49,-158.3 407.8,-189.19 389.44,-204.74"/>
<polygon fill="#63b8ff" stroke="#63b8ff" points="500.33,-137.31 508.7,-130.82 498.11,-130.67 500.33,-137.31"/>
</a>
</g>
</g>
<!-- Node5 -->
<g id="Node000005" class="node">
<title>Node5</title>
<g id="a_Node000005"><a xlink:href="classServer.html#aac4110712ec347909be9bd4a5140ac4f" target="_top" xlink:title=" ">
<polygon fill="white" stroke="#666666" points="267.5,-224.77 161.5,-224.77 161.5,-205.77 267.5,-205.77 267.5,-224.77"/>
<text text-anchor="middle" x="214.5" y="-212.77" font-family="Helvetica,sans-Serif" font-size="10.00">Server::applyInput</text>
</a>
</g>
</g>
<!-- Node4&#45;&gt;Node5 -->
<g id="edge4_Node000004_Node000005" class="edge">
<title>Node4&#45;&gt;Node5</title>
<g id="a_edge4_Node000004_Node000005"><a xlink:title=" ">
<path fill="none" stroke="#63b8ff" d="M357.75,-137.57C337.51,-154.46 303.77,-180.67 271,-197.27 264.58,-200.52 257.46,-203.35 250.51,-205.75"/>
<polygon fill="#63b8ff" stroke="#63b8ff" points="360.19,-140.09 365.55,-130.95 355.66,-134.75 360.19,-140.09"/>
</a>
</g>
</g>
<!-- Node6 -->
<g id="Node000006" class="node">
<title>Node6</title>
<g id="a_Node000006"><a xlink:href="classServer.html#aeee363eaf9f494aa542f2e0ad1d7813b" target="_top" xlink:title=" ">
<polygon fill="white" stroke="#666666" points="122,-186.77 0,-186.77 0,-167.77 122,-167.77 122,-186.77"/>
<text text-anchor="middle" x="61" y="-174.77" font-family="Helvetica,sans-Serif" font-size="10.00">Server::processInputs</text>
</a>
</g>
</g>
<!-- Node4&#45;&gt;Node6 -->
<g id="edge11_Node000004_Node000006" class="edge">
<title>Node4&#45;&gt;Node6</title>
<g id="a_edge11_Node000004_Node000006"><a xlink:title=" ">
<path fill="none" stroke="#63b8ff" d="M312.64,-132.64C254.63,-142.97 170.02,-158.04 115.49,-167.75"/>
<polygon fill="#63b8ff" stroke="#63b8ff" points="313.56,-136.03 322.79,-130.83 312.33,-129.14 313.56,-136.03"/>
</a>
</g>
</g>
<!-- Node7 -->
<g id="Node000007" class="node">
<title>Node7</title>
<g id="a_Node000007"><a xlink:href="classClient.html#ad361032d607e05a51b215e1300029bbc" target="_top" xlink:title=" ">
<polygon fill="white" stroke="#666666" points="271,-73.77 158,-73.77 158,-54.77 271,-54.77 271,-73.77"/>
<text text-anchor="middle" x="214.5" y="-61.77" font-family="Helvetica,sans-Serif" font-size="10.00">Client::applyUpdate</text>
</a>
</g>
</g>
<!-- Node4&#45;&gt;Node7 -->
<g id="edge6_Node000004_Node000007" class="edge">
<title>Node4&#45;&gt;Node7</title>
<g id="a_edge6_Node000004_Node000007"><a xlink:title=" ">
<path fill="none" stroke="#63b8ff" d="M339.98,-108.34C310.36,-97.85 269.27,-83.31 242.54,-73.84"/>
<polygon fill="#63b8ff" stroke="#63b8ff" points="338.96,-111.69 349.55,-111.73 341.29,-105.09 338.96,-111.69"/>
</a>
</g>
</g>
<!-- Node8 -->
<g id="Node000008" class="node">
<title>Node8</title>
<g id="a_Node000008"><a xlink:href="classClient.html#a6e7a5e19c40bef39ae1c0f5996b8c471" target="_top" xlink:title=" ">
<polygon fill="white" stroke="#666666" points="103.5,-73.77 18.5,-73.77 18.5,-54.77 103.5,-54.77 103.5,-73.77"/>
<text text-anchor="middle" x="61" y="-61.77" font-family="Helvetica,sans-Serif" font-size="10.00">Client::update</text>
</a>
</g>
</g>
<!-- Node4&#45;&gt;Node8 -->
<g id="edge12_Node000004_Node000008" class="edge">
<title>Node4&#45;&gt;Node8</title>
<g id="a_edge12_Node000004_Node000008"><a xlink:title=" ">
<path fill="none" stroke="#63b8ff" d="M312.26,-109.96C268.72,-102.25 209.87,-91.76 158,-82.27 140.15,-79 120.45,-75.32 103.57,-72.14"/>
<polygon fill="#63b8ff" stroke="#63b8ff" points="311.69,-113.41 322.15,-111.7 312.91,-106.52 311.69,-113.41"/>
</a>
</g>
</g>
<!-- Node9 -->
<g id="Node000009" class="node">
<title>Node9</title>
<g id="a_Node000009"><a xlink:href="classClient.html#a643ed09341f07f8c81696741f2d2ca07" target="_top" xlink:title=" ">
<polygon fill="white" stroke="#666666" points="271,-187.77 158,-187.77 158,-168.77 271,-168.77 271,-187.77"/>
<text text-anchor="middle" x="214.5" y="-175.77" font-family="Helvetica,sans-Serif" font-size="10.00">Client::processInput</text>
</a>
</g>
</g>
<!-- Node4&#45;&gt;Node9 -->
<g id="edge10_Node000004_Node000009" class="edge">
<title>Node4&#45;&gt;Node9</title>
<g id="a_edge10_Node000004_Node000009"><a xlink:title=" ">
<path fill="none" stroke="#63b8ff" d="M339.98,-134.2C310.36,-144.69 269.27,-159.23 242.54,-168.7"/>
<polygon fill="#63b8ff" stroke="#63b8ff" points="341.29,-137.45 349.55,-130.81 338.96,-130.85 341.29,-137.45"/>
</a>
</g>
</g>
<!-- Node10 -->
<g id="Node000010" class="node">
<title>Node10</title>
<g id="a_Node000010"><a xlink:href="classServer.html#af7b0a4370ac2c1e573f292870adfa81c" target="_top" xlink:title=" ">
<polygon fill="white" stroke="#666666" points="258.5,-36.77 170.5,-36.77 170.5,-17.77 258.5,-17.77 258.5,-36.77"/>
<text text-anchor="middle" x="214.5" y="-24.77" font-family="Helvetica,sans-Serif" font-size="10.00">Server::update</text>
</a>
</g>
</g>
<!-- Node4&#45;&gt;Node10 -->
<g id="edge13_Node000004_Node000010" class="edge">
<title>Node4&#45;&gt;Node10</title>
<g id="a_edge13_Node000004_Node000010"><a xlink:title=" ">
<path fill="none" stroke="#63b8ff" d="M357.75,-104.97C337.51,-88.08 303.77,-61.87 271,-45.27 264.58,-42.02 257.46,-39.19 250.51,-36.79"/>
<polygon fill="#63b8ff" stroke="#63b8ff" points="355.66,-107.79 365.55,-111.59 360.19,-102.45 355.66,-107.79"/>
</a>
</g>
</g>
<!-- Node5&#45;&gt;Node6 -->
<g id="edge5_Node000005_Node000006" class="edge">
<title>Node5&#45;&gt;Node6</title>
<g id="a_edge5_Node000005_Node000006"><a xlink:title=" ">
<path fill="none" stroke="#63b8ff" d="M165.5,-203.23C144.33,-197.92 119.81,-191.77 99.95,-186.79"/>
<polygon fill="#63b8ff" stroke="#63b8ff" points="164.72,-206.64 175.27,-205.68 166.42,-199.85 164.72,-206.64"/>
</a>
</g>
</g>
<!-- Node7&#45;&gt;Node8 -->
<g id="edge7_Node000007_Node000008" class="edge">
<title>Node7&#45;&gt;Node8</title>
<g id="a_edge7_Node000007_Node000008"><a xlink:title=" ">
<path fill="none" stroke="#63b8ff" d="M147.73,-57.57C132.82,-57.41 117.38,-57.61 103.78,-58.16"/>
<polygon fill="#63b8ff" stroke="#63b8ff" points="147.89,-61.07 157.95,-57.74 148.01,-54.08 147.89,-61.07"/>
</a>
</g>
</g>
<!-- Node8&#45;&gt;Node7 -->
<g id="edge8_Node000008_Node000007" class="edge">
<title>Node8&#45;&gt;Node7</title>
<g id="a_edge8_Node000008_Node000007"><a xlink:title=" ">
<path fill="none" stroke="#63b8ff" d="M113.87,-70.71C128.08,-71.09 143.54,-71.12 157.95,-70.8"/>
<polygon fill="#63b8ff" stroke="#63b8ff" points="113.89,-67.21 103.78,-70.38 113.66,-74.21 113.89,-67.21"/>
</a>
</g>
</g>
<!-- Node8&#45;&gt;Node8 -->
<g id="edge9_Node000008_Node000008" class="edge">
<title>Node8&#45;&gt;Node8</title>
<g id="a_edge9_Node000008_Node000008"><a xlink:title=" ">
<path fill="none" stroke="#63b8ff" d="M89.37,-82.59C88.19,-87.78 78.73,-91.77 61,-91.77 33.98,-91.77 26.18,-82.5 37.57,-73.85"/>
<polygon fill="#63b8ff" stroke="#63b8ff" points="92.4,-80.83 84.43,-73.85 86.31,-84.28 92.4,-80.83"/>
</a>
</g>
</g>
<!-- Node12 -->
<g id="Node000012" class="node">
<title>Node12</title>
<g id="a_Node000012"><a xlink:href="classServer.html#af36f3a832531844b5f18d40c6db22cc9" target="_top" xlink:title=" ">
<polygon fill="white" stroke="#666666" points="265.5,-261.77 163.5,-261.77 163.5,-242.77 265.5,-242.77 265.5,-261.77"/>
<text text-anchor="middle" x="214.5" y="-249.77" font-family="Helvetica,sans-Serif" font-size="10.00">Server::broadcast</text>
</a>
</g>
</g>
<!-- Node11&#45;&gt;Node12 -->
<g id="edge15_Node000011_Node000012" class="edge">
<title>Node11&#45;&gt;Node12</title>
<g id="a_edge15_Node000011_Node000012"><a xlink:title=" ">
<path fill="none" stroke="#63b8ff" d="M326.1,-226.17C303.47,-231.51 277.13,-237.72 255.83,-242.75"/>
<polygon fill="#63b8ff" stroke="#63b8ff" points="326.94,-229.56 335.87,-223.86 325.34,-222.75 326.94,-229.56"/>
</a>
</g>
</g>
<!-- Node13&#45;&gt;Node8 -->
<g id="edge17_Node000013_Node000008" class="edge">
<title>Node13&#45;&gt;Node8</title>
<g id="a_edge17_Node000013_Node000008"><a xlink:title=" ">
<path fill="none" stroke="#63b8ff" d="M334.89,-15.21C290.36,-4.25 218.02,7.96 158,-8.27 124.66,-17.28 91.01,-41.07 73.78,-54.56"/>
<polygon fill="#63b8ff" stroke="#63b8ff" points="334.22,-18.65 344.78,-17.74 335.95,-11.87 334.22,-18.65"/>
</a>
</g>
</g>
<!-- Node13&#45;&gt;Node10 -->
<g id="edge18_Node000013_Node000010" class="edge">
<title>Node13&#45;&gt;Node10</title>
<g id="a_edge18_Node000013_Node000010"><a xlink:title=" ">
<path fill="none" stroke="#63b8ff" d="M309.7,-27.27C292.43,-27.27 274.29,-27.27 258.6,-27.27"/>
<polygon fill="#63b8ff" stroke="#63b8ff" points="309.74,-30.77 319.74,-27.27 309.74,-23.77 309.74,-30.77"/>
</a>
</g>
</g>
</g>
</svg>

<g id="navigator" transform="translate(0 0)" fill="#404254">
  <rect fill="#f2f5e9" fill-opacity="0.5" stroke="#606060" stroke-width=".5" x="0" y="0" width="60" height="60"/>
  <use id="zoomplus" xlink:href="#zoomPlus" x="17" y="9" onmousedown="handleZoom(evt,'in')"/>
  <use id="zoomminus" xlink:href="#zoomMin" x="42" y="9" onmousedown="handleZoom(evt,'out')"/>
  <use id="reset" xlink:href="#resetDef" x="30" y="36" onmousedown="handleReset()"/>
   <use id="arrowup" xlink:href="#arrowUp" x="0" y="0" onmousedown="handlePan(0,-1)"/>
  <use id="arrowright" xlink:href="#arrowRight" x="0" y="0" onmousedown="handlePan(1,0)"/>
  <use id="arrowdown" xlink:href="#arrowDown" x="0" y="0" onmousedown="handlePan(0,1)"/>
  <use id="arrowleft" xlink:href="#arrowLeft" x="0" y="0" onmousedown="handlePan(-1,0)"/>
</g>
<svg viewBox="0 0 15 15" width="100%" height="30px" preserveAspectRatio="xMaxYMin meet">
 <g id="arrow_out" transform="scale(0.3 0.3)">
  <a xlink:href="classStorageComponent_a6de145a1ea5570363f566ab9fce66578_icgraph_org.svg" target="_base">
   <rect id="button" ry="5" rx="5" y="6" x="6" height="38" width="38"
        fill="#f2f5e9" fill-opacity="0.5" stroke="#606060" stroke-width="1.0"/>
   <path id="arrow"
     d="M 11.500037,31.436501 C 11.940474,20.09759 22.043105,11.32322 32.158766,21.979434 L 37.068811,17.246167 C 37.068811,17.246167 37.088388,32 37.088388,32 L 22.160133,31.978069 C 22.160133,31.978069 26.997745,27.140456 26.997745,27.140456 C 18.528582,18.264221 13.291696,25.230495 11.500037,31.436501 z"
     style="fill:#404040;"/>
  </a>
 </g>
</svg>

<style type='text/css'>
<![CDATA[
[data-mouse-over-selected='false'] { opacity: 0.7; }
[data-mouse-over-selected='true']  { opacity: 1.0; }
]]>
</style>
<script type="application/ecmascript"><![CDATA[
document.addEventListener('DOMContentLoaded', (event) => {
  highlightEdges();
  highlightAdjacentNodes();
});
]]></script>
</svg>
