<?xml version="1.0" encoding="UTF-8" standalone="no"?>
<!DOCTYPE svg PUBLIC "-//W3C//DTD SVG 1.1//EN"
 "http://www.w3.org/Graphics/SVG/1.1/DTD/svg11.dtd">
<!-- Generated by graphviz version 2.43.0 (0)
 -->
<!-- Title: Nwk::UdpClient Pages: 1 -->
<svg width="324pt" height="374pt"
 viewBox="0.00 0.00 324.00 374.00" xmlns="http://www.w3.org/2000/svg" xmlns:xlink="http://www.w3.org/1999/xlink">
<g id="graph0" class="graph" transform="scale(1 1) rotate(0) translate(4 370)">
<title>Nwk::UdpClient</title>
<!-- Node1 -->
<g id="Node000001" class="node">
<title>Node1</title>
<g id="a_Node000001"><a xlink:title="Client UDP dédié au gameplay en temps réel.">
<polygon fill="#999999" stroke="transparent" points="195,-214 96,-214 96,0 195,0 195,-214"/>
<text text-anchor="start" x="108" y="-202" font-family="Helvetica,sans-Serif" font-size="10.00">Nwk::UdpClient</text>
<text text-anchor="start" x="103" y="-187" font-family="Helvetica,sans-Serif" font-size="10.00">&#45;</text>
<text text-anchor="start" x="113.5" y="-187" font-family="Helvetica,sans-Serif" font-size="10.00">m_socket</text>
<text text-anchor="start" x="103" y="-172" font-family="Helvetica,sans-Serif" font-size="10.00">&#45;</text>
<text text-anchor="start" x="113.5" y="-172" font-family="Helvetica,sans-Serif" font-size="10.00">m_serverIp</text>
<text text-anchor="start" x="103" y="-157" font-family="Helvetica,sans-Serif" font-size="10.00">&#45;</text>
<text text-anchor="start" x="113.5" y="-157" font-family="Helvetica,sans-Serif" font-size="10.00">m_serverPort</text>
<text text-anchor="start" x="103" y="-142" font-family="Helvetica,sans-Serif" font-size="10.00">&#45;</text>
<text text-anchor="start" x="113.5" y="-142" font-family="Helvetica,sans-Serif" font-size="10.00">m_running</text>
<text text-anchor="start" x="103" y="-127" font-family="Helvetica,sans-Serif" font-size="10.00">&#45;</text>
<text text-anchor="start" x="113.5" y="-127" font-family="Helvetica,sans-Serif" font-size="10.00">m_sendThread</text>
<text text-anchor="start" x="103" y="-112" font-family="Helvetica,sans-Serif" font-size="10.00">&#45;</text>
<text text-anchor="start" x="113.5" y="-112" font-family="Helvetica,sans-Serif" font-size="10.00">m_recvThread</text>
<text text-anchor="start" x="100.5" y="-97" font-family="Helvetica,sans-Serif" font-size="10.00">+</text>
<text text-anchor="start" x="113.5" y="-97" font-family="Helvetica,sans-Serif" font-size="10.00">UdpClient()</text>
<text text-anchor="start" x="100.5" y="-82" font-family="Helvetica,sans-Serif" font-size="10.00">+</text>
<text text-anchor="start" x="113.5" y="-82" font-family="Helvetica,sans-Serif" font-size="10.00">~UdpClient()</text>
<text text-anchor="start" x="100.5" y="-67" font-family="Helvetica,sans-Serif" font-size="10.00">+</text>
<text text-anchor="start" x="113.5" y="-67" font-family="Helvetica,sans-Serif" font-size="10.00">start()</text>
<text text-anchor="start" x="100.5" y="-52" font-family="Helvetica,sans-Serif" font-size="10.00">+</text>
<text text-anchor="start" x="113.5" y="-52" font-family="Helvetica,sans-Serif" font-size="10.00">stop()</text>
<text text-anchor="start" x="100.5" y="-37" font-family="Helvetica,sans-Serif" font-size="10.00">+</text>
<text text-anchor="start" x="113.5" y="-37" font-family="Helvetica,sans-Serif" font-size="10.00">join()</text>
<text text-anchor="start" x="103" y="-22" font-family="Helvetica,sans-Serif" font-size="10.00">&#45;</text>
<text text-anchor="start" x="113.5" y="-22" font-family="Helvetica,sans-Serif" font-size="10.00">sendThread()</text>
<text text-anchor="start" x="103" y="-7" font-family="Helvetica,sans-Serif" font-size="10.00">&#45;</text>
<text text-anchor="start" x="113.5" y="-7" font-family="Helvetica,sans-Serif" font-size="10.00">receiveThread()</text>
<polygon fill="#666666" stroke="#666666" points="96.5,-197 96.5,-197 195.5,-197 195.5,-197 96.5,-197"/>
<polygon fill="#666666" stroke="#666666" points="96.5,-107 96.5,-107 111.5,-107 111.5,-107 96.5,-107"/>
<polygon fill="#666666" stroke="#666666" points="111.5,-107 111.5,-107 195.5,-107 195.5,-107 111.5,-107"/>
<polygon fill="none" stroke="#666666" points="96,0 96,-214 195,-214 195,0 96,0"/>
</a>
</g>
</g>
<!-- Node2 -->
<g id="Node000002" class="node">
<title>Node2</title>
<g id="a_Node000002"><a xlink:href="classNwk_1_1SafeQueue.html" target="_top" xlink:title=" ">
<polygon fill="white" stroke="transparent" points="125,-366 0,-366 0,-261 125,-261 125,-366"/>
<text text-anchor="start" x="5.5" y="-353.5" font-family="Helvetica,sans-Serif" font-size="10.00">Nwk::SafeQueue&lt; Nwk</text>
<text text-anchor="start" x="29" y="-342.5" font-family="Helvetica,sans-Serif" font-size="10.00">::InputState &gt;</text>
<text text-anchor="start" x="17.5" y="-327.5" font-family="Helvetica,sans-Serif" font-size="10.00">&#45;</text>
<text text-anchor="start" x="38.5" y="-327.5" font-family="Helvetica,sans-Serif" font-size="10.00">queue_</text>
<text text-anchor="start" x="17.5" y="-312.5" font-family="Helvetica,sans-Serif" font-size="10.00">&#45;</text>
<text text-anchor="start" x="38.5" y="-312.5" font-family="Helvetica,sans-Serif" font-size="10.00">mutex_</text>
<text text-anchor="start" x="15" y="-297.5" font-family="Helvetica,sans-Serif" font-size="10.00">+</text>
<text text-anchor="start" x="38.5" y="-297.5" font-family="Helvetica,sans-Serif" font-size="10.00">SafeQueue()</text>
<text text-anchor="start" x="15" y="-282.5" font-family="Helvetica,sans-Serif" font-size="10.00">+</text>
<text text-anchor="start" x="38.5" y="-282.5" font-family="Helvetica,sans-Serif" font-size="10.00">push()</text>
<text text-anchor="start" x="15" y="-267.5" font-family="Helvetica,sans-Serif" font-size="10.00">+</text>
<text text-anchor="start" x="38.5" y="-267.5" font-family="Helvetica,sans-Serif" font-size="10.00">pop()</text>
<polygon fill="#666666" stroke="#666666" points="0.5,-337.5 0.5,-337.5 125.5,-337.5 125.5,-337.5 0.5,-337.5"/>
<polygon fill="#666666" stroke="#666666" points="0.5,-307.5 0.5,-307.5 36.5,-307.5 36.5,-307.5 0.5,-307.5"/>
<polygon fill="#666666" stroke="#666666" points="36.5,-307.5 36.5,-307.5 125.5,-307.5 125.5,-307.5 36.5,-307.5"/>
<polygon fill="none" stroke="#666666" points="0,-261 0,-366 125,-366 125,-261 0,-261"/>
</a>
</g>
</g>
<!-- Node2&#45;&gt;Node1 -->
<g id="edge1_Node000001_Node000002" class="edge">
<title>Node2&#45;&gt;Node1</title>
<g id="a_edge1_Node000001_Node000002"><a xlink:title=" ">
<path fill="none" stroke="#63b8ff" d="M83.44,-260.9C87.89,-249.93 92.76,-237.93 97.76,-225.63"/>
<polygon fill="none" stroke="#63b8ff" points="97.86,-225.38 96.41,-218.32 102.37,-214.27 103.82,-221.33 97.86,-225.38"/>
</a>
</g>
<text text-anchor="middle" x="132.5" y="-235" font-family="Helvetica,sans-Serif" font-size="10.00" fill="grey"> +inputsToSend</text>
</g>
<!-- Node3 -->
<g id="Node000003" class="node">
<title>Node3</title>
<g id="a_Node000003"><a xlink:href="classNwk_1_1SafeQueue.html" target="_top" xlink:title=" ">
<polygon fill="white" stroke="transparent" points="316,-366 143,-366 143,-261 316,-261 316,-366"/>
<text text-anchor="start" x="148.5" y="-353.5" font-family="Helvetica,sans-Serif" font-size="10.00">Nwk::SafeQueue&lt; std</text>
<text text-anchor="start" x="148.5" y="-342.5" font-family="Helvetica,sans-Serif" font-size="10.00">::vector&lt; Nwk::EntityUpdate &gt; &gt;</text>
<text text-anchor="start" x="172.5" y="-327.5" font-family="Helvetica,sans-Serif" font-size="10.00">&#45;</text>
<text text-anchor="start" x="205.5" y="-327.5" font-family="Helvetica,sans-Serif" font-size="10.00">queue_</text>
<text text-anchor="start" x="172.5" y="-312.5" font-family="Helvetica,sans-Serif" font-size="10.00">&#45;</text>
<text text-anchor="start" x="205.5" y="-312.5" font-family="Helvetica,sans-Serif" font-size="10.00">mutex_</text>
<text text-anchor="start" x="170" y="-297.5" font-family="Helvetica,sans-Serif" font-size="10.00">+</text>
<text text-anchor="start" x="205.5" y="-297.5" font-family="Helvetica,sans-Serif" font-size="10.00">SafeQueue()</text>
<text text-anchor="start" x="170" y="-282.5" font-family="Helvetica,sans-Serif" font-size="10.00">+</text>
<text text-anchor="start" x="205.5" y="-282.5" font-family="Helvetica,sans-Serif" font-size="10.00">push()</text>
<text text-anchor="start" x="170" y="-267.5" font-family="Helvetica,sans-Serif" font-size="10.00">+</text>
<text text-anchor="start" x="205.5" y="-267.5" font-family="Helvetica,sans-Serif" font-size="10.00">pop()</text>
<polygon fill="#666666" stroke="#666666" points="143.5,-337.5 143.5,-337.5 316.5,-337.5 316.5,-337.5 143.5,-337.5"/>
<polygon fill="#666666" stroke="#666666" points="143.5,-307.5 143.5,-307.5 203.5,-307.5 203.5,-307.5 143.5,-307.5"/>
<polygon fill="#666666" stroke="#666666" points="203.5,-307.5 203.5,-307.5 316.5,-307.5 316.5,-307.5 203.5,-307.5"/>
<polygon fill="none" stroke="#666666" points="143,-261 143,-366 316,-366 316,-261 143,-261"/>
</a>
</g>
</g>
<!-- Node3&#45;&gt;Node1 -->
<g id="edge2_Node000001_Node000003" class="edge">
<title>Node3&#45;&gt;Node1</title>
<g id="a_edge2_Node000001_Node000003"><a xlink:title=" ">
<path fill="none" stroke="#63b8ff" d="M208.3,-260.9C203.8,-249.93 198.87,-237.93 193.82,-225.63"/>
<polygon fill="none" stroke="#63b8ff" points="193.71,-225.37 187.73,-221.33 189.15,-214.27 195.13,-218.3 193.71,-225.37"/>
</a>
</g>
<text text-anchor="middle" x="246.5" y="-235" font-family="Helvetica,sans-Serif" font-size="10.00" fill="grey"> +receivedUpdates</text>
</g>
</g>
</svg>
