<?xml version="1.0" encoding="UTF-8" standalone="no"?>
<!DOCTYPE svg PUBLIC "-//W3C//DTD SVG 1.1//EN"
 "http://www.w3.org/Graphics/SVG/1.1/DTD/svg11.dtd">
<!-- Generated by graphviz version 2.43.0 (0)
 -->
<!-- Title: Client::processInput Pages: 1 -->
<!--zoomable 212 -->

<svg id="main" version="1.1" xmlns="http://www.w3.org/2000/svg" xmlns:xlink="http://www.w3.org/1999/xlink" xml:space="preserve" onload="init(evt)">
<style type="text/css"><![CDATA[
.node, .edge {opacity: 0.7;}
.node.selected, .edge.selected {opacity: 1;}
.edge:hover path { stroke: red; }
.edge:hover polygon { stroke: red; fill: red; }
]]></style>

<defs>
  <circle id="rim" cx="0" cy="0" r="7"/>
  <circle id="rim2" cx="0" cy="0" r="3.5"/>
  <g id="zoomPlus">
    <use xlink:href="#rim" fill="#404040"><set attributeName="fill" to="#808080" begin="zoomplus.mouseover" end="zoomplus.mouseout"/></use>
    <path d="M-4,0h8M0,-4v8" fill="none" stroke="white" stroke-width="1.5" pointer-events="none"/>
  </g>
  <g id="zoomMin">
    <use xlink:href="#rim" fill="#404040"><set attributeName="fill" to="#808080" begin="zoomminus.mouseover" end="zoomminus.mouseout"/></use>
    <path d="M-4,0h8" fill="none" stroke="white" stroke-width="1.5" pointer-events="none"/>
  </g>
  <g id="arrowUp" transform="translate(30 24)">
    <use xlink:href="#rim"/>
    <path pointer-events="none" fill="none" stroke="white" stroke-width="1.5" d="M0,-3.0v7 M-2.5,-0.5L0,-3.0L2.5,-0.5"/>
  </g>
  <g id="arrowRight" transform="rotate(90) translate(36 -43)">
    <use xlink:href="#rim"/>
    <path pointer-events="none" fill="none" stroke="white" stroke-width="1.5" d="M0,-3.0v7 M-2.5,-0.5L0,-3.0L2.5,-0.5"/>
  </g>
  <g id="arrowDown" transform="rotate(180) translate(-30 -48)">
    <use xlink:href="#rim"/>
    <path pointer-events="none" fill="none" stroke="white" stroke-width="1.5" d="M0,-3.0v7 M-2.5,-0.5L0,-3.0L2.5,-0.5"/>
  </g>
  <g id="arrowLeft" transform="rotate(270) translate(-36 17)">
    <use xlink:href="#rim"/>
    <path pointer-events="none" fill="none" stroke="white" stroke-width="1.5" d="M0,-3.0v7 M-2.5,-0.5L0,-3.0L2.5,-0.5"/>
  </g>
  <g id="resetDef">
    <use xlink:href="#rim2" fill="#404040"><set attributeName="fill" to="#808080" begin="reset.mouseover" end="reset.mouseout"/></use>
  </g>
</defs>
<script type="application/ecmascript">
var viewWidth = 649;
var viewHeight = 212;
var sectionId = 'dynsection-4';
</script>
<script type="application/ecmascript" xlink:href="svg.min.js"/>
<svg id="graph" class="graph">
<g id="viewport">
<title>Client::processInput</title>
<!-- Node1 -->
<g id="Node000001" class="node">
<title>Node1</title>
<g id="a_Node000001"><a xlink:title=" ">
<polygon fill="#999999" stroke="#666666" points="113,-111 0,-111 0,-92 113,-92 113,-111"/>
<text text-anchor="middle" x="56.5" y="-99" font-family="Helvetica,sans-Serif" font-size="10.00">Client::processInput</text>
</a>
</g>
</g>
<!-- Node2 -->
<g id="Node000002" class="node">
<title>Node2</title>
<g id="a_Node000002"><a xlink:href="namespaceFactory.html#acb4f080b19f667e0bcc6fe95c0ab1b76" target="_top" xlink:title=" ">
<polygon fill="white" stroke="#666666" points="293,-204 159,-204 159,-185 293,-185 293,-204"/>
<text text-anchor="middle" x="226" y="-192" font-family="Helvetica,sans-Serif" font-size="10.00">Factory::createProjectile</text>
</a>
</g>
</g>
<!-- Node1&#45;&gt;Node2 -->
<g id="edge1_Node000001_Node000002" class="edge">
<title>Node1&#45;&gt;Node2</title>
<g id="a_edge1_Node000001_Node000002"><a xlink:title=" ">
<path fill="none" stroke="#63b8ff" d="M66.36,-111.2C81.62,-127.3 114.58,-159.46 149,-176.5 153,-178.48 157.24,-180.25 161.57,-181.83"/>
<polygon fill="#63b8ff" stroke="#63b8ff" points="160.59,-185.19 171.18,-184.99 162.78,-178.54 160.59,-185.19"/>
</a>
</g>
</g>
<!-- Node3 -->
<g id="Node000003" class="node">
<title>Node3</title>
<g id="a_Node000003"><a xlink:href="classECS.html#aaae60c88af59dd7af9d86200eb522bbc" target="_top" xlink:title="Retrieves a mutable pointer to a component.">
<polygon fill="white" stroke="#666666" points="282.5,-167 169.5,-167 169.5,-148 282.5,-148 282.5,-167"/>
<text text-anchor="middle" x="226" y="-155" font-family="Helvetica,sans-Serif" font-size="10.00">ECS::getComponent</text>
</a>
</g>
</g>
<!-- Node1&#45;&gt;Node3 -->
<g id="edge2_Node000001_Node000003" class="edge">
<title>Node1&#45;&gt;Node3</title>
<g id="a_edge2_Node000001_Node000003"><a xlink:title=" ">
<path fill="none" stroke="#63b8ff" d="M77.86,-111.07C96.17,-119.4 123.96,-131.39 149,-139.5 155.5,-141.6 162.39,-143.58 169.25,-145.39"/>
<polygon fill="#63b8ff" stroke="#63b8ff" points="168.7,-148.86 179.26,-147.93 170.42,-142.08 168.7,-148.86"/>
</a>
</g>
</g>
<!-- Node8 -->
<g id="Node000008" class="node">
<title>Node8</title>
<g id="a_Node000008"><a xlink:href="classTimer.html#a8748fdae906f806c6071d2a985cdb359" target="_top" xlink:title=" ">
<polygon fill="white" stroke="#666666" points="293,-130 159,-130 159,-111 293,-111 293,-130"/>
<text text-anchor="middle" x="226" y="-118" font-family="Helvetica,sans-Serif" font-size="10.00">Timer::getCurrentFrame</text>
</a>
</g>
</g>
<!-- Node1&#45;&gt;Node8 -->
<g id="edge8_Node000001_Node000008" class="edge">
<title>Node1&#45;&gt;Node8</title>
<g id="a_edge8_Node000001_Node000008"><a xlink:title=" ">
<path fill="none" stroke="#63b8ff" d="M113.28,-107.83C124.65,-109.12 136.8,-110.5 148.75,-111.85"/>
<polygon fill="#63b8ff" stroke="#63b8ff" points="148.39,-115.33 158.72,-112.98 149.18,-108.38 148.39,-115.33"/>
</a>
</g>
</g>
<!-- Node9 -->
<g id="Node000009" class="node">
<title>Node9</title>
<g id="a_Node000009"><a xlink:href="classInputSystem.html#a853a52f3d59165b69bc7303913369395" target="_top" xlink:title=" ">
<polygon fill="white" stroke="#666666" points="303,-93 149,-93 149,-74 303,-74 303,-93"/>
<text text-anchor="middle" x="226" y="-81" font-family="Helvetica,sans-Serif" font-size="10.00">InputSystem::isActionActive</text>
</a>
</g>
</g>
<!-- Node1&#45;&gt;Node9 -->
<g id="edge9_Node000001_Node000009" class="edge">
<title>Node1&#45;&gt;Node9</title>
<g id="a_edge9_Node000001_Node000009"><a xlink:title=" ">
<path fill="none" stroke="#63b8ff" d="M113.28,-95.51C121.48,-94.62 130.1,-93.7 138.75,-92.77"/>
<polygon fill="#63b8ff" stroke="#63b8ff" points="139.32,-96.23 148.89,-91.68 138.58,-89.27 139.32,-96.23"/>
</a>
</g>
</g>
<!-- Node10 -->
<g id="Node000010" class="node">
<title>Node10</title>
<g id="a_Node000010"><a xlink:href="classSafeQueue.html#ae51181f65378234bf3a0f66a86d4b33a" target="_top" xlink:title=" ">
<polygon fill="white" stroke="#666666" points="275.5,-56 176.5,-56 176.5,-37 275.5,-37 275.5,-56"/>
<text text-anchor="middle" x="226" y="-44" font-family="Helvetica,sans-Serif" font-size="10.00">SafeQueue::push</text>
</a>
</g>
</g>
<!-- Node1&#45;&gt;Node10 -->
<g id="edge10_Node000001_Node000010" class="edge">
<title>Node1&#45;&gt;Node10</title>
<g id="a_edge10_Node000001_Node000010"><a xlink:title=" ">
<path fill="none" stroke="#63b8ff" d="M79.4,-91.96C97.75,-84.18 124.78,-73.26 149,-65.5 156.64,-63.05 164.8,-60.72 172.83,-58.59"/>
<polygon fill="#63b8ff" stroke="#63b8ff" points="173.71,-61.98 182.52,-56.09 171.96,-55.2 173.71,-61.98"/>
</a>
</g>
</g>
<!-- Node12 -->
<g id="Node000012" class="node">
<title>Node12</title>
<g id="a_Node000012"><a xlink:href="classInputSystem.html#ad0abae812dfe6bf0e58c48e5d0382f51" target="_top" xlink:title="Pure virtual function to update the system.">
<polygon fill="white" stroke="#666666" points="285,-19 167,-19 167,0 285,0 285,-19"/>
<text text-anchor="middle" x="226" y="-7" font-family="Helvetica,sans-Serif" font-size="10.00">InputSystem::update</text>
</a>
</g>
</g>
<!-- Node1&#45;&gt;Node12 -->
<g id="edge13_Node000001_Node000012" class="edge">
<title>Node1&#45;&gt;Node12</title>
<g id="a_edge13_Node000001_Node000012"><a xlink:title=" ">
<path fill="none" stroke="#63b8ff" d="M66.68,-91.87C82.17,-76.2 115.12,-45.25 149,-28.5 153.88,-26.09 159.08,-23.97 164.4,-22.1"/>
<polygon fill="#63b8ff" stroke="#63b8ff" points="165.58,-25.4 174.04,-19.02 163.45,-18.73 165.58,-25.4"/>
</a>
</g>
</g>
<!-- Node4 -->
<g id="Node000004" class="node">
<title>Node4</title>
<g id="a_Node000004"><a xlink:href="classStorageComponent.html#a4e0239d1d216347282d49c0bcdf0079d" target="_top" xlink:title="Retrieves a read&#45;only pointer to the component for the entity.">
<polygon fill="white" stroke="#666666" points="471,-167 339,-167 339,-148 471,-148 471,-167"/>
<text text-anchor="middle" x="405" y="-155" font-family="Helvetica,sans-Serif" font-size="10.00">StorageComponent::get</text>
</a>
</g>
</g>
<!-- Node3&#45;&gt;Node4 -->
<g id="edge3_Node000003_Node000004" class="edge">
<title>Node3&#45;&gt;Node4</title>
<g id="a_edge3_Node000003_Node000004"><a xlink:title=" ">
<path fill="none" stroke="#63b8ff" d="M282.52,-157.5C297.16,-157.5 313.2,-157.5 328.69,-157.5"/>
<polygon fill="#63b8ff" stroke="#63b8ff" points="328.77,-161 338.77,-157.5 328.77,-154 328.77,-161"/>
</a>
</g>
</g>
<!-- Node6 -->
<g id="Node000006" class="node">
<title>Node6</title>
<g id="a_Node000006"><a xlink:href="server_2ecs_8hpp.html#a5a868f82168f3b251aa7ca758686125c" target="_top" xlink:title=" ">
<polygon fill="white" stroke="#666666" points="454.5,-107 355.5,-107 355.5,-88 454.5,-88 454.5,-107"/>
<text text-anchor="middle" x="405" y="-95" font-family="Helvetica,sans-Serif" font-size="10.00">getComponentID</text>
</a>
</g>
</g>
<!-- Node3&#45;&gt;Node6 -->
<g id="edge5_Node000003_Node000006" class="edge">
<title>Node3&#45;&gt;Node6</title>
<g id="a_edge5_Node000003_Node000006"><a xlink:title=" ">
<path fill="none" stroke="#63b8ff" d="M272.74,-147.93C282.8,-145.48 293.33,-142.63 303,-139.5 327.69,-131.5 354.79,-120.08 374.7,-111.16"/>
<polygon fill="#63b8ff" stroke="#63b8ff" points="376.2,-114.33 383.86,-107.01 373.31,-107.95 376.2,-114.33"/>
</a>
</g>
</g>
<!-- Node5 -->
<g id="Node000005" class="node">
<title>Node5</title>
<g id="a_Node000005"><a xlink:href="classStorageComponent.html#a6de145a1ea5570363f566ab9fce66578" target="_top" xlink:title="Checks if the entity has this component type.">
<polygon fill="white" stroke="#666666" points="641,-167 507,-167 507,-148 641,-148 641,-167"/>
<text text-anchor="middle" x="574" y="-155" font-family="Helvetica,sans-Serif" font-size="10.00">StorageComponent::has</text>
</a>
</g>
</g>
<!-- Node4&#45;&gt;Node5 -->
<g id="edge4_Node000004_Node000005" class="edge">
<title>Node4&#45;&gt;Node5</title>
<g id="a_edge4_Node000004_Node000005"><a xlink:title=" ">
<path fill="none" stroke="#63b8ff" d="M471.04,-157.5C479.47,-157.5 488.16,-157.5 496.75,-157.5"/>
<polygon fill="#63b8ff" stroke="#63b8ff" points="496.76,-161 506.76,-157.5 496.76,-154 496.76,-161"/>
</a>
</g>
</g>
<!-- Node6&#45;&gt;Node6 -->
<g id="edge6_Node000006_Node000006" class="edge">
<title>Node6&#45;&gt;Node6</title>
<g id="a_edge6_Node000006_Node000006"><a xlink:title=" ">
<path fill="none" stroke="#63b8ff" d="M379.11,-107.08C366.51,-115.73 375.14,-125 405,-125 425.06,-125 435.54,-120.82 436.44,-115.45"/>
<polygon fill="#63b8ff" stroke="#63b8ff" points="439.34,-113.49 430.89,-107.08 433.5,-117.35 439.34,-113.49"/>
</a>
</g>
</g>
<!-- Node7 -->
<g id="Node000007" class="node">
<title>Node7</title>
<g id="a_Node000007"><a xlink:href="engine_2ecs_2ecs_8hpp.html#afdb02fc115de82c93e814ac1d3a64c06" target="_top" xlink:title="Generates a new unique ComponentTypeID.">
<polygon fill="white" stroke="#666666" points="637,-89 511,-89 511,-70 637,-70 637,-89"/>
<text text-anchor="middle" x="574" y="-77" font-family="Helvetica,sans-Serif" font-size="10.00">newComponentTypeID</text>
</a>
</g>
</g>
<!-- Node6&#45;&gt;Node7 -->
<g id="edge7_Node000006_Node000007" class="edge">
<title>Node6&#45;&gt;Node7</title>
<g id="a_edge7_Node000006_Node000007"><a xlink:title=" ">
<path fill="none" stroke="#63b8ff" d="M454.75,-92.25C469.13,-90.7 485.17,-88.97 500.69,-87.29"/>
<polygon fill="#63b8ff" stroke="#63b8ff" points="501.22,-90.76 510.79,-86.21 500.47,-83.8 501.22,-90.76"/>
</a>
</g>
</g>
<!-- Node11 -->
<g id="Node000011" class="node">
<title>Node11</title>
<g id="a_Node000011"><a xlink:href="engine_2ecs_2ecs_8hpp.html#a5a868f82168f3b251aa7ca758686125c" target="_top" xlink:title="Retrieves the unique ID for a given component type.">
<polygon fill="white" stroke="#666666" points="454.5,-61 355.5,-61 355.5,-42 454.5,-42 454.5,-61"/>
<text text-anchor="middle" x="405" y="-49" font-family="Helvetica,sans-Serif" font-size="10.00">getComponentID</text>
</a>
</g>
</g>
<!-- Node10&#45;&gt;Node11 -->
<g id="edge11_Node000010_Node000011" class="edge">
<title>Node10&#45;&gt;Node11</title>
<g id="a_edge11_Node000010_Node000011"><a xlink:title=" ">
<path fill="none" stroke="#63b8ff" d="M275.83,-47.88C297.31,-48.49 322.71,-49.2 345.21,-49.84"/>
<polygon fill="#63b8ff" stroke="#63b8ff" points="345.23,-53.34 355.32,-50.12 345.43,-46.34 345.23,-53.34"/>
</a>
</g>
</g>
<!-- Node11&#45;&gt;Node7 -->
<g id="edge12_Node000011_Node000007" class="edge">
<title>Node11&#45;&gt;Node7</title>
<g id="a_edge12_Node000011_Node000007"><a xlink:title=" ">
<path fill="none" stroke="#63b8ff" d="M454.75,-59.67C470.85,-62.37 489.04,-65.42 506.24,-68.31"/>
<polygon fill="#63b8ff" stroke="#63b8ff" points="505.79,-71.78 516.24,-69.98 506.95,-64.88 505.79,-71.78"/>
</a>
</g>
</g>
</g>
</svg>

<g id="navigator" transform="translate(0 0)" fill="#404254">
  <rect fill="#f2f5e9" fill-opacity="0.5" stroke="#606060" stroke-width=".5" x="0" y="0" width="60" height="60"/>
  <use id="zoomplus" xlink:href="#zoomPlus" x="17" y="9" onmousedown="handleZoom(evt,'in')"/>
  <use id="zoomminus" xlink:href="#zoomMin" x="42" y="9" onmousedown="handleZoom(evt,'out')"/>
  <use id="reset" xlink:href="#resetDef" x="30" y="36" onmousedown="handleReset()"/>
   <use id="arrowup" xlink:href="#arrowUp" x="0" y="0" onmousedown="handlePan(0,-1)"/>
  <use id="arrowright" xlink:href="#arrowRight" x="0" y="0" onmousedown="handlePan(1,0)"/>
  <use id="arrowdown" xlink:href="#arrowDown" x="0" y="0" onmousedown="handlePan(0,1)"/>
  <use id="arrowleft" xlink:href="#arrowLeft" x="0" y="0" onmousedown="handlePan(-1,0)"/>
</g>
<svg viewBox="0 0 15 15" width="100%" height="30px" preserveAspectRatio="xMaxYMin meet">
 <g id="arrow_out" transform="scale(0.3 0.3)">
  <a xlink:href="classClient_a643ed09341f07f8c81696741f2d2ca07_cgraph_org.svg" target="_base">
   <rect id="button" ry="5" rx="5" y="6" x="6" height="38" width="38"
        fill="#f2f5e9" fill-opacity="0.5" stroke="#606060" stroke-width="1.0"/>
   <path id="arrow"
     d="M 11.500037,31.436501 C 11.940474,20.09759 22.043105,11.32322 32.158766,21.979434 L 37.068811,17.246167 C 37.068811,17.246167 37.088388,32 37.088388,32 L 22.160133,31.978069 C 22.160133,31.978069 26.997745,27.140456 26.997745,27.140456 C 18.528582,18.264221 13.291696,25.230495 11.500037,31.436501 z"
     style="fill:#404040;"/>
  </a>
 </g>
</svg>

<style type='text/css'>
<![CDATA[
[data-mouse-over-selected='false'] { opacity: 0.7; }
[data-mouse-over-selected='true']  { opacity: 1.0; }
]]>
</style>
<script type="application/ecmascript"><![CDATA[
document.addEventListener('DOMContentLoaded', (event) => {
  highlightEdges();
  highlightAdjacentNodes();
});
]]></script>
</svg>
