<?xml version="1.0" encoding="UTF-8" standalone="no"?>
<!DOCTYPE svg PUBLIC "-//W3C//DTD SVG 1.1//EN"
 "http://www.w3.org/Graphics/SVG/1.1/DTD/svg11.dtd">
<!-- Generated by graphviz version 2.43.0 (0)
 -->
<!-- Title: include/server/client.hpp Pages: 1 -->
<svg width="2683pt" height="258pt"
 viewBox="0.00 0.00 2683.05 258.00" xmlns="http://www.w3.org/2000/svg" xmlns:xlink="http://www.w3.org/1999/xlink">
<g id="graph0" class="graph" transform="scale(1 1) rotate(0) translate(4 254)">
<title>include/server/client.hpp</title>
<!-- Node1 -->
<g id="Node000001" class="node">
<title>Node1</title>
<g id="a_Node000001"><a xlink:title=" ">
<polygon fill="#999999" stroke="#666666" points="1947.55,-250 1810.55,-250 1810.55,-231 1947.55,-231 1947.55,-250"/>
<text text-anchor="middle" x="1879.05" y="-238" font-family="Helvetica,sans-Serif" font-size="10.00">include/server/client.hpp</text>
</a>
</g>
</g>
<!-- Node2 -->
<g id="Node000002" class="node">
<title>Node2</title>
<g id="a_Node000002"><a xlink:href="server_2ecs_8hpp.html" target="_top" xlink:title=" ">
<polygon fill="white" stroke="#666666" points="228.05,-129 174.05,-129 174.05,-110 228.05,-110 228.05,-129"/>
<text text-anchor="middle" x="201.05" y="-117" font-family="Helvetica,sans-Serif" font-size="10.00">ecs.hpp</text>
</a>
</g>
</g>
<!-- Node1&#45;&gt;Node2 -->
<g id="edge1_Node000001_Node000002" class="edge">
<title>Node1&#45;&gt;Node2</title>
<g id="a_edge1_Node000001_Node000002"><a xlink:title=" ">
<path fill="none" stroke="#63b8ff" d="M1810.21,-238.96C1512.87,-236.47 350.58,-224.83 279.05,-195 250.5,-183.09 226.31,-155.53 212.75,-137.47"/>
<polygon fill="#63b8ff" stroke="#63b8ff" points="215.35,-135.09 206.66,-129.03 209.67,-139.19 215.35,-135.09"/>
</a>
</g>
</g>
<!-- Node12 -->
<g id="Node000012" class="node">
<title>Node12</title>
<g id="a_Node000012"><a xlink:href="UdpClient_8hpp.html" target="_top" xlink:title=" ">
<polygon fill="white" stroke="#666666" points="1922.05,-189.5 1836.05,-189.5 1836.05,-170.5 1922.05,-170.5 1922.05,-189.5"/>
<text text-anchor="middle" x="1879.05" y="-177.5" font-family="Helvetica,sans-Serif" font-size="10.00">UdpClient.hpp</text>
</a>
</g>
</g>
<!-- Node1&#45;&gt;Node12 -->
<g id="edge11_Node000001_Node000012" class="edge">
<title>Node1&#45;&gt;Node12</title>
<g id="a_edge11_Node000001_Node000012"><a xlink:title=" ">
<path fill="none" stroke="#63b8ff" d="M1879.05,-230.87C1879.05,-222.75 1879.05,-210.31 1879.05,-199.89"/>
<polygon fill="#63b8ff" stroke="#63b8ff" points="1882.55,-199.67 1879.05,-189.67 1875.55,-199.67 1882.55,-199.67"/>
</a>
</g>
</g>
<!-- Node17 -->
<g id="Node000017" class="node">
<title>Node17</title>
<g id="a_Node000017"><a xlink:href="Components_8hpp.html" target="_top" xlink:title=" ">
<polygon fill="white" stroke="#666666" points="1453.55,-74 1274.55,-74 1274.55,-55 1453.55,-55 1453.55,-74"/>
<text text-anchor="middle" x="1364.05" y="-62" font-family="Helvetica,sans-Serif" font-size="10.00">engine/systems/Components.hpp</text>
</a>
</g>
</g>
<!-- Node1&#45;&gt;Node17 -->
<g id="edge32_Node000001_Node000017" class="edge">
<title>Node1&#45;&gt;Node17</title>
<g id="a_edge32_Node000001_Node000017"><a xlink:title=" ">
<path fill="none" stroke="#63b8ff" d="M1907.16,-230.97C1953.93,-216.85 2050.7,-187.89 2133.05,-165 2196.27,-147.43 2315.29,-157.52 2270.05,-110 2242.61,-81.18 1693.74,-70.13 1463.91,-66.75"/>
<polygon fill="#63b8ff" stroke="#63b8ff" points="1463.92,-63.25 1453.87,-66.61 1463.82,-70.25 1463.92,-63.25"/>
</a>
</g>
</g>
<!-- Node20 -->
<g id="Node000020" class="node">
<title>Node20</title>
<g id="a_Node000020"><a xlink:href="Timer_8hpp.html" target="_top" xlink:title=" ">
<polygon fill="white" stroke="#666666" points="2382.55,-129 2317.55,-129 2317.55,-110 2382.55,-110 2382.55,-129"/>
<text text-anchor="middle" x="2350.05" y="-117" font-family="Helvetica,sans-Serif" font-size="10.00">Timer.hpp</text>
</a>
</g>
</g>
<!-- Node1&#45;&gt;Node20 -->
<g id="edge31_Node000001_Node000020" class="edge">
<title>Node1&#45;&gt;Node20</title>
<g id="a_edge31_Node000001_Node000020"><a xlink:title=" ">
<path fill="none" stroke="#63b8ff" d="M1947.6,-235.57C2000.03,-230.67 2073.25,-219.67 2133.05,-195 2154.59,-186.11 2154.87,-174.71 2176.05,-165 2199.26,-154.36 2263.96,-139.13 2307.59,-129.53"/>
<polygon fill="#63b8ff" stroke="#63b8ff" points="2308.34,-132.95 2317.37,-127.39 2306.85,-126.11 2308.34,-132.95"/>
</a>
</g>
</g>
<!-- Node28 -->
<g id="Node000028" class="node">
<title>Node28</title>
<g id="a_Node000028"><a xlink:href="InputSystem_8hpp.html" target="_top" xlink:title=" ">
<polygon fill="white" stroke="#666666" points="1101.55,-189.5 922.55,-189.5 922.55,-170.5 1101.55,-170.5 1101.55,-189.5"/>
<text text-anchor="middle" x="1012.05" y="-177.5" font-family="Helvetica,sans-Serif" font-size="10.00">engine/systems/InputSystem.hpp</text>
</a>
</g>
</g>
<!-- Node1&#45;&gt;Node28 -->
<g id="edge33_Node000001_Node000028" class="edge">
<title>Node1&#45;&gt;Node28</title>
<g id="a_edge33_Node000001_Node000028"><a xlink:title=" ">
<path fill="none" stroke="#63b8ff" d="M1810.29,-234.86C1657.66,-224.56 1289.99,-199.75 1111.97,-187.74"/>
<polygon fill="#63b8ff" stroke="#63b8ff" points="1112.03,-184.24 1101.82,-187.06 1111.56,-191.22 1112.03,-184.24"/>
</a>
</g>
</g>
<!-- Node35 -->
<g id="Node000035" class="node">
<title>Node35</title>
<g id="a_Node000035"><a xlink:href="RenderSystem_8hpp.html" target="_top" xlink:title=" ">
<polygon fill="white" stroke="#666666" points="477.55,-189.5 288.55,-189.5 288.55,-170.5 477.55,-170.5 477.55,-189.5"/>
<text text-anchor="middle" x="383.05" y="-177.5" font-family="Helvetica,sans-Serif" font-size="10.00">engine/systems/RenderSystem.hpp</text>
</a>
</g>
</g>
<!-- Node1&#45;&gt;Node35 -->
<g id="edge48_Node000001_Node000035" class="edge">
<title>Node1&#45;&gt;Node35</title>
<g id="a_edge48_Node000001_Node000035"><a xlink:title=" ">
<path fill="none" stroke="#63b8ff" d="M1810.29,-237.13C1627.68,-230.79 1115.34,-212.72 689.05,-195 622.12,-192.22 546.97,-188.78 487.89,-186.01"/>
<polygon fill="#63b8ff" stroke="#63b8ff" points="487.96,-182.51 477.81,-185.54 487.63,-189.5 487.96,-182.51"/>
</a>
</g>
</g>
<!-- Node37 -->
<g id="Node000037" class="node">
<title>Node37</title>
<g id="a_Node000037"><a xlink:title=" ">
<polygon fill="#e0e0e0" stroke="#999999" points="2367.05,-189.5 2185.05,-189.5 2185.05,-170.5 2367.05,-170.5 2367.05,-189.5"/>
<text text-anchor="middle" x="2276.05" y="-177.5" font-family="Helvetica,sans-Serif" font-size="10.00">engine/systems/MoveSystem.hpp</text>
</a>
</g>
</g>
<!-- Node1&#45;&gt;Node37 -->
<g id="edge53_Node000001_Node000037" class="edge">
<title>Node1&#45;&gt;Node37</title>
<g id="a_edge53_Node000001_Node000037"><a xlink:title=" ">
<path fill="none" stroke="#63b8ff" d="M1936.78,-230.99C2008.81,-220.38 2131.8,-202.26 2208.25,-190.99"/>
<polygon fill="#63b8ff" stroke="#63b8ff" points="2208.87,-194.44 2218.25,-189.52 2207.85,-187.51 2208.87,-194.44"/>
</a>
</g>
</g>
<!-- Node38 -->
<g id="Node000038" class="node">
<title>Node38</title>
<g id="a_Node000038"><a xlink:href="RessourceManager_8hpp.html" target="_top" xlink:title=" ">
<polygon fill="white" stroke="#666666" points="1580.55,-195 1433.55,-195 1433.55,-165 1580.55,-165 1580.55,-195"/>
<text text-anchor="start" x="1441.55" y="-183" font-family="Helvetica,sans-Serif" font-size="10.00">engine/systems/Ressource</text>
<text text-anchor="middle" x="1507.05" y="-172" font-family="Helvetica,sans-Serif" font-size="10.00">Manager.hpp</text>
</a>
</g>
</g>
<!-- Node1&#45;&gt;Node38 -->
<g id="edge54_Node000001_Node000038" class="edge">
<title>Node1&#45;&gt;Node38</title>
<g id="a_edge54_Node000001_Node000038"><a xlink:title=" ">
<path fill="none" stroke="#63b8ff" d="M1824.96,-230.99C1763.47,-221.32 1662.35,-205.42 1590.68,-194.15"/>
<polygon fill="#63b8ff" stroke="#63b8ff" points="1591.19,-190.69 1580.77,-192.59 1590.11,-197.6 1591.19,-190.69"/>
</a>
</g>
</g>
<!-- Node39 -->
<g id="Node000039" class="node">
<title>Node39</title>
<g id="a_Node000039"><a xlink:title=" ">
<polygon fill="#e0e0e0" stroke="#999999" points="2520.55,-189.5 2385.55,-189.5 2385.55,-170.5 2520.55,-170.5 2520.55,-189.5"/>
<text text-anchor="middle" x="2453.05" y="-177.5" font-family="Helvetica,sans-Serif" font-size="10.00">engine/StageFactory.hpp</text>
</a>
</g>
</g>
<!-- Node1&#45;&gt;Node39 -->
<g id="edge60_Node000001_Node000039" class="edge">
<title>Node1&#45;&gt;Node39</title>
<g id="a_edge60_Node000001_Node000039"><a xlink:title=" ">
<path fill="none" stroke="#63b8ff" d="M1947.6,-235.33C2043.67,-229.05 2223.67,-215.63 2376.05,-195 2383.81,-193.95 2391.98,-192.66 2399.99,-191.3"/>
<polygon fill="#63b8ff" stroke="#63b8ff" points="2400.75,-194.72 2409.99,-189.54 2399.54,-187.82 2400.75,-194.72"/>
</a>
</g>
</g>
<!-- Node40 -->
<g id="Node000040" class="node">
<title>Node40</title>
<g id="a_Node000040"><a xlink:title=" ">
<polygon fill="#e0e0e0" stroke="#999999" points="2675.05,-189.5 2539.05,-189.5 2539.05,-170.5 2675.05,-170.5 2675.05,-189.5"/>
<text text-anchor="middle" x="2607.05" y="-177.5" font-family="Helvetica,sans-Serif" font-size="10.00">engine/EntityFactory.hpp</text>
</a>
</g>
</g>
<!-- Node1&#45;&gt;Node40 -->
<g id="edge61_Node000001_Node000040" class="edge">
<title>Node1&#45;&gt;Node40</title>
<g id="a_edge61_Node000001_Node000040"><a xlink:title=" ">
<path fill="none" stroke="#63b8ff" d="M1947.71,-237.33C2066.69,-233 2318.71,-221.35 2530.05,-195 2538.1,-194 2546.59,-192.7 2554.87,-191.3"/>
<polygon fill="#63b8ff" stroke="#63b8ff" points="2555.57,-194.73 2564.82,-189.55 2554.36,-187.83 2555.57,-194.73"/>
</a>
</g>
</g>
<!-- Node41 -->
<g id="Node000041" class="node">
<title>Node41</title>
<g id="a_Node000041"><a xlink:href="serializer_8hpp.html" target="_top" xlink:title=" ">
<polygon fill="white" stroke="#666666" points="780.05,-189.5 698.05,-189.5 698.05,-170.5 780.05,-170.5 780.05,-189.5"/>
<text text-anchor="middle" x="739.05" y="-177.5" font-family="Helvetica,sans-Serif" font-size="10.00">serializer.hpp</text>
</a>
</g>
</g>
<!-- Node1&#45;&gt;Node41 -->
<g id="edge62_Node000001_Node000041" class="edge">
<title>Node1&#45;&gt;Node41</title>
<g id="a_edge62_Node000001_Node000041"><a xlink:title=" ">
<path fill="none" stroke="#63b8ff" d="M1810.49,-237.15C1652.27,-231.55 1249.41,-216.27 913.05,-195 871.8,-192.39 825.11,-188.59 790.49,-185.6"/>
<polygon fill="#63b8ff" stroke="#63b8ff" points="790.42,-182.08 780.15,-184.71 789.81,-189.06 790.42,-182.08"/>
</a>
</g>
</g>
<!-- Node3 -->
<g id="Node000003" class="node">
<title>Node3</title>
<g id="a_Node000003"><a xlink:title=" ">
<polygon fill="#e0e0e0" stroke="#999999" points="531.55,-74 484.55,-74 484.55,-55 531.55,-55 531.55,-74"/>
<text text-anchor="middle" x="508.05" y="-62" font-family="Helvetica,sans-Serif" font-size="10.00">queue</text>
</a>
</g>
</g>
<!-- Node2&#45;&gt;Node3 -->
<g id="edge2_Node000002_Node000003" class="edge">
<title>Node2&#45;&gt;Node3</title>
<g id="a_edge2_Node000002_Node000003"><a xlink:title=" ">
<path fill="none" stroke="#63b8ff" d="M228.13,-111.86C231.13,-111.19 234.15,-110.56 237.05,-110 339.01,-90.29 368.51,-95.06 474.51,-73.91"/>
<polygon fill="#63b8ff" stroke="#63b8ff" points="475.22,-77.34 484.32,-71.92 473.83,-70.47 475.22,-77.34"/>
</a>
</g>
</g>
<!-- Node4 -->
<g id="Node000004" class="node">
<title>Node4</title>
<g id="a_Node000004"><a xlink:title=" ">
<polygon fill="#e0e0e0" stroke="#999999" points="600.05,-74 550.05,-74 550.05,-55 600.05,-55 600.05,-74"/>
<text text-anchor="middle" x="575.05" y="-62" font-family="Helvetica,sans-Serif" font-size="10.00">cstdint</text>
</a>
</g>
</g>
<!-- Node2&#45;&gt;Node4 -->
<g id="edge3_Node000002_Node000004" class="edge">
<title>Node2&#45;&gt;Node4</title>
<g id="a_edge3_Node000002_Node000004"><a xlink:title=" ">
<path fill="none" stroke="#63b8ff" d="M228.11,-111.76C231.11,-111.12 234.14,-110.51 237.05,-110 370.59,-86.38 406.58,-98.05 540.05,-74 540.15,-73.98 540.25,-73.96 540.35,-73.95"/>
<polygon fill="#63b8ff" stroke="#63b8ff" points="540.8,-77.43 549.89,-71.99 539.39,-70.57 540.8,-77.43"/>
</a>
</g>
</g>
<!-- Node5 -->
<g id="Node000005" class="node">
<title>Node5</title>
<g id="a_Node000005"><a xlink:title=" ">
<polygon fill="#e0e0e0" stroke="#999999" points="355.05,-74 303.05,-74 303.05,-55 355.05,-55 355.05,-74"/>
<text text-anchor="middle" x="329.05" y="-62" font-family="Helvetica,sans-Serif" font-size="10.00">cassert</text>
</a>
</g>
</g>
<!-- Node2&#45;&gt;Node5 -->
<g id="edge4_Node000002_Node000005" class="edge">
<title>Node2&#45;&gt;Node5</title>
<g id="a_edge4_Node000002_Node000005"><a xlink:title=" ">
<path fill="none" stroke="#63b8ff" d="M221.62,-109.98C242.48,-101.34 275.02,-87.87 298.82,-78.02"/>
<polygon fill="#63b8ff" stroke="#63b8ff" points="300.21,-81.23 308.11,-74.17 297.53,-74.76 300.21,-81.23"/>
</a>
</g>
</g>
<!-- Node6 -->
<g id="Node000006" class="node">
<title>Node6</title>
<g id="a_Node000006"><a xlink:title=" ">
<polygon fill="#e0e0e0" stroke="#999999" points="665.55,-74 618.55,-74 618.55,-55 665.55,-55 665.55,-74"/>
<text text-anchor="middle" x="642.05" y="-62" font-family="Helvetica,sans-Serif" font-size="10.00">vector</text>
</a>
</g>
</g>
<!-- Node2&#45;&gt;Node6 -->
<g id="edge5_Node000002_Node000006" class="edge">
<title>Node2&#45;&gt;Node6</title>
<g id="a_edge5_Node000002_Node000006"><a xlink:title=" ">
<path fill="none" stroke="#63b8ff" d="M228.1,-111.7C231.11,-111.07 234.14,-110.48 237.05,-110 397.72,-83.38 443.67,-102.04 608.37,-73.82"/>
<polygon fill="#63b8ff" stroke="#63b8ff" points="609.1,-77.24 618.35,-72.07 607.9,-70.35 609.1,-77.24"/>
</a>
</g>
</g>
<!-- Node7 -->
<g id="Node000007" class="node">
<title>Node7</title>
<g id="a_Node000007"><a xlink:title=" ">
<polygon fill="#e0e0e0" stroke="#999999" points="223.05,-74 179.05,-74 179.05,-55 223.05,-55 223.05,-74"/>
<text text-anchor="middle" x="201.05" y="-62" font-family="Helvetica,sans-Serif" font-size="10.00">limits</text>
</a>
</g>
</g>
<!-- Node2&#45;&gt;Node7 -->
<g id="edge6_Node000002_Node000007" class="edge">
<title>Node2&#45;&gt;Node7</title>
<g id="a_edge6_Node000002_Node000007"><a xlink:title=" ">
<path fill="none" stroke="#63b8ff" d="M201.05,-109.75C201.05,-102.8 201.05,-92.85 201.05,-84.13"/>
<polygon fill="#63b8ff" stroke="#63b8ff" points="204.55,-84.09 201.05,-74.09 197.55,-84.09 204.55,-84.09"/>
</a>
</g>
</g>
<!-- Node8 -->
<g id="Node000008" class="node">
<title>Node8</title>
<g id="a_Node000008"><a xlink:title=" ">
<polygon fill="#e0e0e0" stroke="#999999" points="285.05,-74 241.05,-74 241.05,-55 285.05,-55 285.05,-74"/>
<text text-anchor="middle" x="263.05" y="-62" font-family="Helvetica,sans-Serif" font-size="10.00">bitset</text>
</a>
</g>
</g>
<!-- Node2&#45;&gt;Node8 -->
<g id="edge7_Node000002_Node000008" class="edge">
<title>Node2&#45;&gt;Node8</title>
<g id="a_edge7_Node000002_Node000008"><a xlink:title=" ">
<path fill="none" stroke="#63b8ff" d="M211.01,-109.98C220.18,-102.15 233.99,-90.34 245.08,-80.86"/>
<polygon fill="#63b8ff" stroke="#63b8ff" points="247.58,-83.33 252.91,-74.17 243.03,-78.01 247.58,-83.33"/>
</a>
</g>
</g>
<!-- Node9 -->
<g id="Node000009" class="node">
<title>Node9</title>
<g id="a_Node000009"><a xlink:title=" ">
<polygon fill="#e0e0e0" stroke="#999999" points="160.55,-74 91.55,-74 91.55,-55 160.55,-55 160.55,-74"/>
<text text-anchor="middle" x="126.05" y="-62" font-family="Helvetica,sans-Serif" font-size="10.00">type_traits</text>
</a>
</g>
</g>
<!-- Node2&#45;&gt;Node9 -->
<g id="edge8_Node000002_Node000009" class="edge">
<title>Node2&#45;&gt;Node9</title>
<g id="a_edge8_Node000002_Node000009"><a xlink:title=" ">
<path fill="none" stroke="#63b8ff" d="M189,-109.98C177.59,-101.92 160.22,-89.65 146.61,-80.03"/>
<polygon fill="#63b8ff" stroke="#63b8ff" points="148.51,-77.08 138.32,-74.17 144.47,-82.8 148.51,-77.08"/>
</a>
</g>
</g>
<!-- Node10 -->
<g id="Node000010" class="node">
<title>Node10</title>
<g id="a_Node000010"><a xlink:title=" ">
<polygon fill="#e0e0e0" stroke="#999999" points="73.55,-74 28.55,-74 28.55,-55 73.55,-55 73.55,-74"/>
<text text-anchor="middle" x="51.05" y="-62" font-family="Helvetica,sans-Serif" font-size="10.00">utility</text>
</a>
</g>
</g>
<!-- Node2&#45;&gt;Node10 -->
<g id="edge9_Node000002_Node000010" class="edge">
<title>Node2&#45;&gt;Node10</title>
<g id="a_edge9_Node000002_Node000010"><a xlink:title=" ">
<path fill="none" stroke="#63b8ff" d="M176.95,-109.98C151.58,-101.02 111.49,-86.86 83.38,-76.92"/>
<polygon fill="#63b8ff" stroke="#63b8ff" points="84.21,-73.51 73.62,-73.47 81.88,-80.11 84.21,-73.51"/>
</a>
</g>
</g>
<!-- Node11 -->
<g id="Node000011" class="node">
<title>Node11</title>
<g id="a_Node000011"><a xlink:title=" ">
<polygon fill="#e0e0e0" stroke="#999999" points="466.55,-74 373.55,-74 373.55,-55 466.55,-55 466.55,-74"/>
<text text-anchor="middle" x="420.05" y="-62" font-family="Helvetica,sans-Serif" font-size="10.00">unordered_map</text>
</a>
</g>
</g>
<!-- Node2&#45;&gt;Node11 -->
<g id="edge10_Node000002_Node000011" class="edge">
<title>Node2&#45;&gt;Node11</title>
<g id="a_edge10_Node000002_Node000011"><a xlink:title=" ">
<path fill="none" stroke="#63b8ff" d="M228.34,-111.89C265.04,-103.01 330.78,-87.11 374.9,-76.43"/>
<polygon fill="#63b8ff" stroke="#63b8ff" points="375.9,-79.79 384.79,-74.03 374.25,-72.98 375.9,-79.79"/>
</a>
</g>
</g>
<!-- Node12&#45;&gt;Node6 -->
<g id="edge24_Node000012_Node000006" class="edge">
<title>Node12&#45;&gt;Node6</title>
<g id="a_edge24_Node000012_Node000006"><a xlink:title=" ">
<path fill="none" stroke="#63b8ff" d="M1835.93,-170.48C1796.49,-162.05 1736.87,-147.71 1687.05,-129 1669.37,-122.36 1667.33,-114.74 1649.05,-110 1553.23,-85.13 840.03,-69.46 675.74,-66.15"/>
<polygon fill="#63b8ff" stroke="#63b8ff" points="675.79,-62.65 665.72,-65.95 675.65,-69.65 675.79,-62.65"/>
</a>
</g>
</g>
<!-- Node13 -->
<g id="Node000013" class="node">
<title>Node13</title>
<g id="a_Node000013"><a xlink:href="SafeQueue_8hpp.html" target="_top" xlink:title=" ">
<polygon fill="white" stroke="#666666" points="1924.55,-129 1833.55,-129 1833.55,-110 1924.55,-110 1924.55,-129"/>
<text text-anchor="middle" x="1879.05" y="-117" font-family="Helvetica,sans-Serif" font-size="10.00">SafeQueue.hpp</text>
</a>
</g>
</g>
<!-- Node12&#45;&gt;Node13 -->
<g id="edge12_Node000012_Node000013" class="edge">
<title>Node12&#45;&gt;Node13</title>
<g id="a_edge12_Node000012_Node000013"><a xlink:title=" ">
<path fill="none" stroke="#63b8ff" d="M1879.05,-170.37C1879.05,-162.25 1879.05,-149.81 1879.05,-139.39"/>
<polygon fill="#63b8ff" stroke="#63b8ff" points="1882.55,-139.17 1879.05,-129.17 1875.55,-139.17 1882.55,-139.17"/>
</a>
</g>
</g>
<!-- Node15 -->
<g id="Node000015" class="node">
<title>Node15</title>
<g id="a_Node000015"><a xlink:title=" ">
<polygon fill="#e0e0e0" stroke="#999999" points="2051.05,-129 1943.05,-129 1943.05,-110 2051.05,-110 2051.05,-129"/>
<text text-anchor="middle" x="1997.05" y="-117" font-family="Helvetica,sans-Serif" font-size="10.00">SFML/Network.hpp</text>
</a>
</g>
</g>
<!-- Node12&#45;&gt;Node15 -->
<g id="edge15_Node000012_Node000015" class="edge">
<title>Node12&#45;&gt;Node15</title>
<g id="a_edge15_Node000012_Node000015"><a xlink:title=" ">
<path fill="none" stroke="#63b8ff" d="M1896.21,-170.49C1915.78,-160.79 1948.02,-144.81 1970.77,-133.53"/>
<polygon fill="#63b8ff" stroke="#63b8ff" points="1972.47,-136.59 1979.87,-129.02 1969.36,-130.32 1972.47,-136.59"/>
</a>
</g>
</g>
<!-- Node16 -->
<g id="Node000016" class="node">
<title>Node16</title>
<g id="a_Node000016"><a xlink:href="NetworkProtocol_8hpp.html" target="_top" xlink:title=" ">
<polygon fill="white" stroke="#666666" points="1815.55,-129 1696.55,-129 1696.55,-110 1815.55,-110 1815.55,-129"/>
<text text-anchor="middle" x="1756.05" y="-117" font-family="Helvetica,sans-Serif" font-size="10.00">NetworkProtocol.hpp</text>
</a>
</g>
</g>
<!-- Node12&#45;&gt;Node16 -->
<g id="edge16_Node000012_Node000016" class="edge">
<title>Node12&#45;&gt;Node16</title>
<g id="a_edge16_Node000012_Node000016"><a xlink:title=" ">
<path fill="none" stroke="#63b8ff" d="M1861.16,-170.49C1840.67,-160.75 1806.86,-144.66 1783.13,-133.38"/>
<polygon fill="#63b8ff" stroke="#63b8ff" points="1784.49,-130.15 1773.96,-129.02 1781.48,-136.47 1784.49,-130.15"/>
</a>
</g>
</g>
<!-- Node12&#45;&gt;Node20 -->
<g id="edge22_Node000012_Node000020" class="edge">
<title>Node12&#45;&gt;Node20</title>
<g id="a_edge22_Node000012_Node000020"><a xlink:title=" ">
<path fill="none" stroke="#63b8ff" d="M1922.1,-173.65C2011.77,-162.52 2217.67,-136.94 2307.18,-125.82"/>
<polygon fill="#63b8ff" stroke="#63b8ff" points="2307.76,-129.28 2317.25,-124.57 2306.9,-122.33 2307.76,-129.28"/>
</a>
</g>
</g>
<!-- Node22 -->
<g id="Node000022" class="node">
<title>Node22</title>
<g id="a_Node000022"><a xlink:title=" ">
<polygon fill="#e0e0e0" stroke="#999999" points="2127.05,-129 2069.05,-129 2069.05,-110 2127.05,-110 2127.05,-129"/>
<text text-anchor="middle" x="2098.05" y="-117" font-family="Helvetica,sans-Serif" font-size="10.00">memory</text>
</a>
</g>
</g>
<!-- Node12&#45;&gt;Node22 -->
<g id="edge25_Node000012_Node000022" class="edge">
<title>Node12&#45;&gt;Node22</title>
<g id="a_edge25_Node000012_Node000022"><a xlink:title=" ">
<path fill="none" stroke="#63b8ff" d="M1910.89,-170.49C1950.21,-159.99 2017.05,-142.14 2059.3,-130.85"/>
<polygon fill="#63b8ff" stroke="#63b8ff" points="2060.21,-134.23 2068.97,-128.27 2058.4,-127.47 2060.21,-134.23"/>
</a>
</g>
</g>
<!-- Node23 -->
<g id="Node000023" class="node">
<title>Node23</title>
<g id="a_Node000023"><a xlink:title=" ">
<polygon fill="#e0e0e0" stroke="#999999" points="2193.05,-129 2145.05,-129 2145.05,-110 2193.05,-110 2193.05,-129"/>
<text text-anchor="middle" x="2169.05" y="-117" font-family="Helvetica,sans-Serif" font-size="10.00">thread</text>
</a>
</g>
</g>
<!-- Node12&#45;&gt;Node23 -->
<g id="edge26_Node000012_Node000023" class="edge">
<title>Node12&#45;&gt;Node23</title>
<g id="a_edge26_Node000012_Node000023"><a xlink:title=" ">
<path fill="none" stroke="#63b8ff" d="M1922.41,-171.38C1971.64,-162.55 2054.54,-147.14 2135.13,-129.1"/>
<polygon fill="#63b8ff" stroke="#63b8ff" points="2135.95,-132.5 2144.94,-126.89 2134.41,-125.67 2135.95,-132.5"/>
</a>
</g>
</g>
<!-- Node24 -->
<g id="Node000024" class="node">
<title>Node24</title>
<g id="a_Node000024"><a xlink:title=" ">
<polygon fill="#e0e0e0" stroke="#999999" points="2261.05,-129 2211.05,-129 2211.05,-110 2261.05,-110 2261.05,-129"/>
<text text-anchor="middle" x="2236.05" y="-117" font-family="Helvetica,sans-Serif" font-size="10.00">atomic</text>
</a>
</g>
</g>
<!-- Node12&#45;&gt;Node24 -->
<g id="edge27_Node000012_Node000024" class="edge">
<title>Node12&#45;&gt;Node24</title>
<g id="a_edge27_Node000012_Node000024"><a xlink:title=" ">
<path fill="none" stroke="#63b8ff" d="M1922.11,-173.61C1982.36,-165.79 2095.38,-150.09 2200.99,-129.06"/>
<polygon fill="#63b8ff" stroke="#63b8ff" points="2201.74,-132.47 2210.86,-127.07 2200.36,-125.61 2201.74,-132.47"/>
</a>
</g>
</g>
<!-- Node25 -->
<g id="Node000025" class="node">
<title>Node25</title>
<g id="a_Node000025"><a xlink:title=" ">
<polygon fill="#e0e0e0" stroke="#999999" points="1566.05,-129 1506.05,-129 1506.05,-110 1566.05,-110 1566.05,-129"/>
<text text-anchor="middle" x="1536.05" y="-117" font-family="Helvetica,sans-Serif" font-size="10.00">iostream</text>
</a>
</g>
</g>
<!-- Node12&#45;&gt;Node25 -->
<g id="edge28_Node000012_Node000025" class="edge">
<title>Node12&#45;&gt;Node25</title>
<g id="a_edge28_Node000012_Node000025"><a xlink:title=" ">
<path fill="none" stroke="#63b8ff" d="M1835.88,-172.62C1778.74,-164.01 1674.63,-147.78 1576.08,-129.12"/>
<polygon fill="#63b8ff" stroke="#63b8ff" points="1576.73,-125.68 1566.25,-127.24 1575.42,-132.55 1576.73,-125.68"/>
</a>
</g>
</g>
<!-- Node26 -->
<g id="Node000026" class="node">
<title>Node26</title>
<g id="a_Node000026"><a xlink:title=" ">
<polygon fill="#e0e0e0" stroke="#999999" points="1640.05,-129 1584.05,-129 1584.05,-110 1640.05,-110 1640.05,-129"/>
<text text-anchor="middle" x="1612.05" y="-117" font-family="Helvetica,sans-Serif" font-size="10.00">sstream</text>
</a>
</g>
</g>
<!-- Node12&#45;&gt;Node26 -->
<g id="edge29_Node000012_Node000026" class="edge">
<title>Node12&#45;&gt;Node26</title>
<g id="a_edge29_Node000012_Node000026"><a xlink:title=" ">
<path fill="none" stroke="#63b8ff" d="M1840.23,-170.49C1789.35,-159.35 1700.68,-139.92 1650.16,-128.85"/>
<polygon fill="#63b8ff" stroke="#63b8ff" points="1650.8,-125.41 1640.28,-126.69 1649.3,-132.25 1650.8,-125.41"/>
</a>
</g>
</g>
<!-- Node27 -->
<g id="Node000027" class="node">
<title>Node27</title>
<g id="a_Node000027"><a xlink:title=" ">
<polygon fill="#e0e0e0" stroke="#999999" points="842.05,-129 792.05,-129 792.05,-110 842.05,-110 842.05,-129"/>
<text text-anchor="middle" x="817.05" y="-117" font-family="Helvetica,sans-Serif" font-size="10.00">cstring</text>
</a>
</g>
</g>
<!-- Node12&#45;&gt;Node27 -->
<g id="edge30_Node000012_Node000027" class="edge">
<title>Node12&#45;&gt;Node27</title>
<g id="a_edge30_Node000012_Node000027"><a xlink:title=" ">
<path fill="none" stroke="#63b8ff" d="M1836,-176.92C1653.1,-168.08 945.85,-133.89 852.29,-128.11"/>
<polygon fill="#63b8ff" stroke="#63b8ff" points="852.42,-124.61 842.19,-127.37 851.91,-131.59 852.42,-124.61"/>
</a>
</g>
</g>
<!-- Node13&#45;&gt;Node3 -->
<g id="edge13_Node000013_Node000003" class="edge">
<title>Node13&#45;&gt;Node3</title>
<g id="a_edge13_Node000013_Node000003"><a xlink:title=" ">
<path fill="none" stroke="#63b8ff" d="M1833.49,-111.01C1830.3,-110.62 1827.13,-110.28 1824.05,-110 1259.28,-58.64 1107.68,-152.53 541.76,-73.68"/>
<polygon fill="#63b8ff" stroke="#63b8ff" points="542.1,-70.2 531.71,-72.27 541.13,-77.13 542.1,-70.2"/>
</a>
</g>
</g>
<!-- Node14 -->
<g id="Node000014" class="node">
<title>Node14</title>
<g id="a_Node000014"><a xlink:title=" ">
<polygon fill="#e0e0e0" stroke="#999999" points="1903.05,-74 1855.05,-74 1855.05,-55 1903.05,-55 1903.05,-74"/>
<text text-anchor="middle" x="1879.05" y="-62" font-family="Helvetica,sans-Serif" font-size="10.00">mutex</text>
</a>
</g>
</g>
<!-- Node13&#45;&gt;Node14 -->
<g id="edge14_Node000013_Node000014" class="edge">
<title>Node13&#45;&gt;Node14</title>
<g id="a_edge14_Node000013_Node000014"><a xlink:title=" ">
<path fill="none" stroke="#63b8ff" d="M1879.05,-109.75C1879.05,-102.8 1879.05,-92.85 1879.05,-84.13"/>
<polygon fill="#63b8ff" stroke="#63b8ff" points="1882.55,-84.09 1879.05,-74.09 1875.55,-84.09 1882.55,-84.09"/>
</a>
</g>
</g>
<!-- Node16&#45;&gt;Node4 -->
<g id="edge17_Node000016_Node000004" class="edge">
<title>Node16&#45;&gt;Node4</title>
<g id="a_edge17_Node000016_Node000004"><a xlink:title=" ">
<path fill="none" stroke="#63b8ff" d="M1696.38,-113.28C1680.97,-112.07 1664.4,-110.87 1649.05,-110 1190.68,-83.87 1068.82,-137.64 610.39,-73.84"/>
<polygon fill="#63b8ff" stroke="#63b8ff" points="610.57,-70.33 600.18,-72.41 609.6,-77.27 610.57,-70.33"/>
</a>
</g>
</g>
<!-- Node16&#45;&gt;Node6 -->
<g id="edge18_Node000016_Node000006" class="edge">
<title>Node16&#45;&gt;Node6</title>
<g id="a_edge18_Node000016_Node000006"><a xlink:title=" ">
<path fill="none" stroke="#63b8ff" d="M1696.31,-111.27C1691.49,-110.8 1686.69,-110.37 1682.05,-110 1287.33,-78.93 806.5,-68.45 676.06,-66.07"/>
<polygon fill="#63b8ff" stroke="#63b8ff" points="675.96,-62.57 665.9,-65.89 675.83,-69.57 675.96,-62.57"/>
</a>
</g>
</g>
<!-- Node16&#45;&gt;Node17 -->
<g id="edge19_Node000016_Node000017" class="edge">
<title>Node16&#45;&gt;Node17</title>
<g id="a_edge19_Node000016_Node000017"><a xlink:title=" ">
<path fill="none" stroke="#63b8ff" d="M1696.51,-110.45C1627.07,-101.06 1512.24,-85.54 1437.36,-75.41"/>
<polygon fill="#63b8ff" stroke="#63b8ff" points="1437.45,-71.89 1427.07,-74.02 1436.51,-78.83 1437.45,-71.89"/>
</a>
</g>
</g>
<!-- Node18 -->
<g id="Node000018" class="node">
<title>Node18</title>
<g id="a_Node000018"><a xlink:title=" ">
<polygon fill="#e0e0e0" stroke="#999999" points="1301.05,-19 1191.05,-19 1191.05,0 1301.05,0 1301.05,-19"/>
<text text-anchor="middle" x="1246.05" y="-7" font-family="Helvetica,sans-Serif" font-size="10.00">SFML/Graphics.hpp</text>
</a>
</g>
</g>
<!-- Node17&#45;&gt;Node18 -->
<g id="edge20_Node000017_Node000018" class="edge">
<title>Node17&#45;&gt;Node18</title>
<g id="a_edge20_Node000017_Node000018"><a xlink:title=" ">
<path fill="none" stroke="#63b8ff" d="M1345.09,-54.98C1326.02,-46.42 1296.39,-33.11 1274.5,-23.28"/>
<polygon fill="#63b8ff" stroke="#63b8ff" points="1275.91,-20.07 1265.35,-19.17 1273.04,-26.46 1275.91,-20.07"/>
</a>
</g>
</g>
<!-- Node19 -->
<g id="Node000019" class="node">
<title>Node19</title>
<g id="a_Node000019"><a xlink:title=" ">
<polygon fill="#e0e0e0" stroke="#999999" points="1445.05,-19 1401.05,-19 1401.05,0 1445.05,0 1445.05,-19"/>
<text text-anchor="middle" x="1423.05" y="-7" font-family="Helvetica,sans-Serif" font-size="10.00">string</text>
</a>
</g>
</g>
<!-- Node17&#45;&gt;Node19 -->
<g id="edge21_Node000017_Node000019" class="edge">
<title>Node17&#45;&gt;Node19</title>
<g id="a_edge21_Node000017_Node000019"><a xlink:title=" ">
<path fill="none" stroke="#63b8ff" d="M1373.53,-54.98C1382.25,-47.15 1395.39,-35.34 1405.95,-25.86"/>
<polygon fill="#63b8ff" stroke="#63b8ff" points="1408.3,-28.46 1413.4,-19.17 1403.62,-23.25 1408.3,-28.46"/>
</a>
</g>
</g>
<!-- Node21 -->
<g id="Node000021" class="node">
<title>Node21</title>
<g id="a_Node000021"><a xlink:title=" ">
<polygon fill="#e0e0e0" stroke="#999999" points="2402.05,-74 2298.05,-74 2298.05,-55 2402.05,-55 2402.05,-74"/>
<text text-anchor="middle" x="2350.05" y="-62" font-family="Helvetica,sans-Serif" font-size="10.00">SFML/System.hpp</text>
</a>
</g>
</g>
<!-- Node20&#45;&gt;Node21 -->
<g id="edge23_Node000020_Node000021" class="edge">
<title>Node20&#45;&gt;Node21</title>
<g id="a_edge23_Node000020_Node000021"><a xlink:title=" ">
<path fill="none" stroke="#63b8ff" d="M2350.05,-109.75C2350.05,-102.8 2350.05,-92.85 2350.05,-84.13"/>
<polygon fill="#63b8ff" stroke="#63b8ff" points="2353.55,-84.09 2350.05,-74.09 2346.55,-84.09 2353.55,-84.09"/>
</a>
</g>
</g>
<!-- Node28&#45;&gt;Node17 -->
<g id="edge42_Node000028_Node000017" class="edge">
<title>Node28&#45;&gt;Node17</title>
<g id="a_edge42_Node000028_Node000017"><a xlink:title=" ">
<path fill="none" stroke="#63b8ff" d="M1101.75,-175.99C1187.41,-171.3 1308.56,-159.36 1344.05,-129 1356.94,-117.97 1361.62,-98.72 1363.27,-84.3"/>
<polygon fill="#63b8ff" stroke="#63b8ff" points="1366.79,-84.25 1364.05,-74.01 1359.81,-83.72 1366.79,-84.25"/>
</a>
</g>
</g>
<!-- Node29 -->
<g id="Node000029" class="node">
<title>Node29</title>
<g id="a_Node000029"><a xlink:href="engine_2ecs_2ecs_8hpp.html" target="_top" xlink:title=" ">
<polygon fill="white" stroke="#666666" points="438.05,-129 328.05,-129 328.05,-110 438.05,-110 438.05,-129"/>
<text text-anchor="middle" x="383.05" y="-117" font-family="Helvetica,sans-Serif" font-size="10.00">engine/ecs/ecs.hpp</text>
</a>
</g>
</g>
<!-- Node28&#45;&gt;Node29 -->
<g id="edge34_Node000028_Node000029" class="edge">
<title>Node28&#45;&gt;Node29</title>
<g id="a_edge34_Node000028_Node000029"><a xlink:title=" ">
<path fill="none" stroke="#63b8ff" d="M922.26,-170.65C794.06,-158.73 561.56,-137.1 448.42,-126.58"/>
<polygon fill="#63b8ff" stroke="#63b8ff" points="448.46,-123.07 438.18,-125.63 447.81,-130.04 448.46,-123.07"/>
</a>
</g>
</g>
<!-- Node30 -->
<g id="Node000030" class="node">
<title>Node30</title>
<g id="a_Node000030"><a xlink:title=" ">
<polygon fill="#e0e0e0" stroke="#999999" points="1335.55,-129 1198.55,-129 1198.55,-110 1335.55,-110 1335.55,-129"/>
<text text-anchor="middle" x="1267.05" y="-117" font-family="Helvetica,sans-Serif" font-size="10.00">SFML/Window/Event.hpp</text>
</a>
</g>
</g>
<!-- Node28&#45;&gt;Node30 -->
<g id="edge43_Node000028_Node000030" class="edge">
<title>Node28&#45;&gt;Node30</title>
<g id="a_edge43_Node000028_Node000030"><a xlink:title=" ">
<path fill="none" stroke="#63b8ff" d="M1049.13,-170.49C1094.36,-160.12 1170.87,-142.57 1220.15,-131.26"/>
<polygon fill="#63b8ff" stroke="#63b8ff" points="1220.96,-134.66 1229.93,-129.02 1219.4,-127.84 1220.96,-134.66"/>
</a>
</g>
</g>
<!-- Node31 -->
<g id="Node000031" class="node">
<title>Node31</title>
<g id="a_Node000031"><a xlink:title=" ">
<polygon fill="#e0e0e0" stroke="#999999" points="1007.55,-129 860.55,-129 860.55,-110 1007.55,-110 1007.55,-129"/>
<text text-anchor="middle" x="934.05" y="-117" font-family="Helvetica,sans-Serif" font-size="10.00">SFML/Window/Window.hpp</text>
</a>
</g>
</g>
<!-- Node28&#45;&gt;Node31 -->
<g id="edge44_Node000028_Node000031" class="edge">
<title>Node28&#45;&gt;Node31</title>
<g id="a_edge44_Node000028_Node000031"><a xlink:title=" ">
<path fill="none" stroke="#63b8ff" d="M1000.54,-170.37C988.21,-161.12 968.43,-146.28 953.64,-135.19"/>
<polygon fill="#63b8ff" stroke="#63b8ff" points="955.71,-132.37 945.61,-129.17 951.51,-137.97 955.71,-132.37"/>
</a>
</g>
</g>
<!-- Node32 -->
<g id="Node000032" class="node">
<title>Node32</title>
<g id="a_Node000032"><a xlink:title=" ">
<polygon fill="#e0e0e0" stroke="#999999" points="1180.55,-129 1025.55,-129 1025.55,-110 1180.55,-110 1180.55,-129"/>
<text text-anchor="middle" x="1103.05" y="-117" font-family="Helvetica,sans-Serif" font-size="10.00">SFML/Window/Keyboard.hpp</text>
</a>
</g>
</g>
<!-- Node28&#45;&gt;Node32 -->
<g id="edge45_Node000028_Node000032" class="edge">
<title>Node28&#45;&gt;Node32</title>
<g id="a_edge45_Node000028_Node000032"><a xlink:title=" ">
<path fill="none" stroke="#63b8ff" d="M1025.48,-170.37C1040.13,-160.95 1063.81,-145.73 1081.15,-134.58"/>
<polygon fill="#63b8ff" stroke="#63b8ff" points="1083.05,-137.52 1089.57,-129.17 1079.26,-131.63 1083.05,-137.52"/>
</a>
</g>
</g>
<!-- Node33 -->
<g id="Node000033" class="node">
<title>Node33</title>
<g id="a_Node000033"><a xlink:title=" ">
<polygon fill="#e0e0e0" stroke="#999999" points="717.55,-129 570.55,-129 570.55,-110 717.55,-110 717.55,-129"/>
<text text-anchor="middle" x="644.05" y="-117" font-family="Helvetica,sans-Serif" font-size="10.00">SFML/Window/Joystick.hpp</text>
</a>
</g>
</g>
<!-- Node28&#45;&gt;Node33 -->
<g id="edge46_Node000028_Node000033" class="edge">
<title>Node28&#45;&gt;Node33</title>
<g id="a_edge46_Node000028_Node000033"><a xlink:title=" ">
<path fill="none" stroke="#63b8ff" d="M958.54,-170.49C892.04,-159.92 778.69,-141.9 707.77,-130.63"/>
<polygon fill="#63b8ff" stroke="#63b8ff" points="708.05,-127.13 697.62,-129.02 706.95,-134.04 708.05,-127.13"/>
</a>
</g>
</g>
<!-- Node34 -->
<g id="Node000034" class="node">
<title>Node34</title>
<g id="a_Node000034"><a xlink:title=" ">
<polygon fill="#e0e0e0" stroke="#999999" points="774.05,-129 736.05,-129 736.05,-110 774.05,-110 774.05,-129"/>
<text text-anchor="middle" x="755.05" y="-117" font-family="Helvetica,sans-Serif" font-size="10.00">map</text>
</a>
</g>
</g>
<!-- Node28&#45;&gt;Node34 -->
<g id="edge47_Node000028_Node000034" class="edge">
<title>Node28&#45;&gt;Node34</title>
<g id="a_edge47_Node000028_Node000034"><a xlink:title=" ">
<path fill="none" stroke="#63b8ff" d="M967.9,-170.45C923.68,-161.64 853.5,-147.01 784.06,-129.1"/>
<polygon fill="#63b8ff" stroke="#63b8ff" points="784.83,-125.69 774.27,-126.56 783.07,-132.46 784.83,-125.69"/>
</a>
</g>
</g>
<!-- Node29&#45;&gt;Node3 -->
<g id="edge35_Node000029_Node000003" class="edge">
<title>Node29&#45;&gt;Node3</title>
<g id="a_edge35_Node000029_Node000003"><a xlink:title=" ">
<path fill="none" stroke="#63b8ff" d="M403.13,-109.98C423.42,-101.38 455,-87.99 478.22,-78.15"/>
<polygon fill="#63b8ff" stroke="#63b8ff" points="479.76,-81.3 487.6,-74.17 477.03,-74.85 479.76,-81.3"/>
</a>
</g>
</g>
<!-- Node29&#45;&gt;Node4 -->
<g id="edge36_Node000029_Node000004" class="edge">
<title>Node29&#45;&gt;Node4</title>
<g id="a_edge36_Node000029_Node000004"><a xlink:title=" ">
<path fill="none" stroke="#63b8ff" d="M413.9,-109.98C448.24,-100.5 503.66,-85.21 539.72,-75.25"/>
<polygon fill="#63b8ff" stroke="#63b8ff" points="541.09,-78.51 549.79,-72.47 539.22,-71.76 541.09,-78.51"/>
</a>
</g>
</g>
<!-- Node29&#45;&gt;Node5 -->
<g id="edge37_Node000029_Node000005" class="edge">
<title>Node29&#45;&gt;Node5</title>
<g id="a_edge37_Node000029_Node000005"><a xlink:title=" ">
<path fill="none" stroke="#63b8ff" d="M374.13,-109.75C366.27,-102.03 354.62,-90.6 345.13,-81.28"/>
<polygon fill="#63b8ff" stroke="#63b8ff" points="347.39,-78.6 337.8,-74.09 342.49,-83.59 347.39,-78.6"/>
</a>
</g>
</g>
<!-- Node29&#45;&gt;Node6 -->
<g id="edge38_Node000029_Node000006" class="edge">
<title>Node29&#45;&gt;Node6</title>
<g id="a_edge38_Node000029_Node000006"><a xlink:title=" ">
<path fill="none" stroke="#63b8ff" d="M430.4,-110C474.09,-101.97 540.99,-89.21 608.36,-74.05"/>
<polygon fill="#63b8ff" stroke="#63b8ff" points="609.32,-77.42 618.3,-71.79 607.77,-70.59 609.32,-77.42"/>
</a>
</g>
</g>
<!-- Node29&#45;&gt;Node7 -->
<g id="edge39_Node000029_Node000007" class="edge">
<title>Node29&#45;&gt;Node7</title>
<g id="a_edge39_Node000029_Node000007"><a xlink:title=" ">
<path fill="none" stroke="#63b8ff" d="M353.81,-109.98C320.75,-100.36 267.11,-84.74 232.98,-74.8"/>
<polygon fill="#63b8ff" stroke="#63b8ff" points="233.64,-71.35 223.06,-71.91 231.69,-78.07 233.64,-71.35"/>
</a>
</g>
</g>
<!-- Node29&#45;&gt;Node8 -->
<g id="edge40_Node000029_Node000008" class="edge">
<title>Node29&#45;&gt;Node8</title>
<g id="a_edge40_Node000029_Node000008"><a xlink:title=" ">
<path fill="none" stroke="#63b8ff" d="M363.77,-109.98C344.38,-101.42 314.24,-88.11 291.98,-78.28"/>
<polygon fill="#63b8ff" stroke="#63b8ff" points="293.24,-75.01 282.68,-74.17 290.41,-81.41 293.24,-75.01"/>
</a>
</g>
</g>
<!-- Node29&#45;&gt;Node11 -->
<g id="edge41_Node000029_Node000011" class="edge">
<title>Node29&#45;&gt;Node11</title>
<g id="a_edge41_Node000029_Node000011"><a xlink:title=" ">
<path fill="none" stroke="#63b8ff" d="M389.16,-109.75C394.33,-102.34 401.9,-91.5 408.24,-82.41"/>
<polygon fill="#63b8ff" stroke="#63b8ff" points="411.2,-84.29 414.05,-74.09 405.46,-80.29 411.2,-84.29"/>
</a>
</g>
</g>
<!-- Node35&#45;&gt;Node17 -->
<g id="edge50_Node000035_Node000017" class="edge">
<title>Node35&#45;&gt;Node17</title>
<g id="a_edge50_Node000035_Node000017"><a xlink:title=" ">
<path fill="none" stroke="#63b8ff" d="M399.68,-170.5C430.54,-155.19 499.17,-123.36 561.05,-110 692.32,-81.67 1079.71,-70.79 1264.19,-67.13"/>
<polygon fill="#63b8ff" stroke="#63b8ff" points="1264.51,-70.62 1274.44,-66.93 1264.37,-63.63 1264.51,-70.62"/>
</a>
</g>
</g>
<!-- Node35&#45;&gt;Node18 -->
<g id="edge51_Node000035_Node000018" class="edge">
<title>Node35&#45;&gt;Node18</title>
<g id="a_edge51_Node000035_Node000018"><a xlink:title=" ">
<path fill="none" stroke="#63b8ff" d="M288.52,-175.85C154.57,-168.27 -65.35,-142.52 19.05,-55 59.64,-12.91 932.47,-10.28 1180.72,-10.39"/>
<polygon fill="#63b8ff" stroke="#63b8ff" points="1181.02,-13.89 1191.02,-10.39 1181.02,-6.89 1181.02,-13.89"/>
</a>
</g>
</g>
<!-- Node35&#45;&gt;Node29 -->
<g id="edge49_Node000035_Node000029" class="edge">
<title>Node35&#45;&gt;Node29</title>
<g id="a_edge49_Node000035_Node000029"><a xlink:title=" ">
<path fill="none" stroke="#63b8ff" d="M383.05,-170.37C383.05,-162.25 383.05,-149.81 383.05,-139.39"/>
<polygon fill="#63b8ff" stroke="#63b8ff" points="386.55,-139.17 383.05,-129.17 379.55,-139.17 386.55,-139.17"/>
</a>
</g>
</g>
<!-- Node36 -->
<g id="Node000036" class="node">
<title>Node36</title>
<g id="a_Node000036"><a xlink:title=" ">
<polygon fill="#e0e0e0" stroke="#999999" points="310.05,-129 246.05,-129 246.05,-110 310.05,-110 310.05,-129"/>
<text text-anchor="middle" x="278.05" y="-117" font-family="Helvetica,sans-Serif" font-size="10.00">algorithm</text>
</a>
</g>
</g>
<!-- Node35&#45;&gt;Node36 -->
<g id="edge52_Node000035_Node000036" class="edge">
<title>Node35&#45;&gt;Node36</title>
<g id="a_edge52_Node000035_Node000036"><a xlink:title=" ">
<path fill="none" stroke="#63b8ff" d="M367.56,-170.37C350.42,-160.82 322.58,-145.31 302.49,-134.12"/>
<polygon fill="#63b8ff" stroke="#63b8ff" points="304.05,-130.98 293.61,-129.17 300.64,-137.09 304.05,-130.98"/>
</a>
</g>
</g>
<!-- Node38&#45;&gt;Node11 -->
<g id="edge56_Node000038_Node000011" class="edge">
<title>Node38&#45;&gt;Node11</title>
<g id="a_edge56_Node000038_Node000011"><a xlink:title=" ">
<path fill="none" stroke="#63b8ff" d="M1481.76,-164.89C1450.5,-148.28 1395.17,-121.48 1344.05,-110 1158.6,-68.35 683.53,-91.97 477.04,-74.04"/>
<polygon fill="#63b8ff" stroke="#63b8ff" points="477.09,-70.53 466.81,-73.09 476.45,-77.5 477.09,-70.53"/>
</a>
</g>
</g>
<!-- Node38&#45;&gt;Node18 -->
<g id="edge55_Node000038_Node000018" class="edge">
<title>Node38&#45;&gt;Node18</title>
<g id="a_edge55_Node000038_Node000018"><a xlink:title=" ">
<path fill="none" stroke="#63b8ff" d="M1486.56,-164.9C1463.65,-149.65 1425.03,-125.46 1389.05,-110 1336.32,-87.34 1305.79,-114.41 1265.05,-74 1253.19,-62.23 1248.67,-43.39 1246.98,-29.28"/>
<polygon fill="#63b8ff" stroke="#63b8ff" points="1250.46,-28.88 1246.15,-19.21 1243.48,-29.46 1250.46,-28.88"/>
</a>
</g>
</g>
<!-- Node38&#45;&gt;Node19 -->
<g id="edge57_Node000038_Node000019" class="edge">
<title>Node38&#45;&gt;Node19</title>
<g id="a_edge57_Node000038_Node000019"><a xlink:title=" ">
<path fill="none" stroke="#63b8ff" d="M1503.75,-164.87C1497.81,-141.04 1483.84,-91.87 1462.05,-55 1455.93,-44.65 1447.26,-34.47 1439.65,-26.46"/>
<polygon fill="#63b8ff" stroke="#63b8ff" points="1442.04,-23.9 1432.52,-19.25 1437.06,-28.82 1442.04,-23.9"/>
</a>
</g>
</g>
<!-- Node38&#45;&gt;Node25 -->
<g id="edge58_Node000038_Node000025" class="edge">
<title>Node38&#45;&gt;Node25</title>
<g id="a_edge58_Node000038_Node000025"><a xlink:title=" ">
<path fill="none" stroke="#63b8ff" d="M1514.07,-164.84C1518.02,-156.87 1522.99,-146.84 1527.21,-138.33"/>
<polygon fill="#63b8ff" stroke="#63b8ff" points="1530.4,-139.78 1531.7,-129.27 1524.13,-136.67 1530.4,-139.78"/>
</a>
</g>
</g>
<!-- Node38&#45;&gt;Node26 -->
<g id="edge59_Node000038_Node000026" class="edge">
<title>Node38&#45;&gt;Node26</title>
<g id="a_edge59_Node000038_Node000026"><a xlink:title=" ">
<path fill="none" stroke="#63b8ff" d="M1532.2,-164.99C1548.94,-155.66 1570.82,-143.47 1587.44,-134.21"/>
<polygon fill="#63b8ff" stroke="#63b8ff" points="1589.51,-137.06 1596.54,-129.14 1586.1,-130.95 1589.51,-137.06"/>
</a>
</g>
</g>
<!-- Node41&#45;&gt;Node4 -->
<g id="edge65_Node000041_Node000004" class="edge">
<title>Node41&#45;&gt;Node4</title>
<g id="a_edge65_Node000041_Node000004"><a xlink:title=" ">
<path fill="none" stroke="#63b8ff" d="M697.77,-173.75C648.5,-166.55 570.55,-151.82 553.05,-129 542.45,-115.18 551.7,-95.88 561.25,-82.19"/>
<polygon fill="#63b8ff" stroke="#63b8ff" points="564.11,-84.21 567.36,-74.13 558.53,-79.98 564.11,-84.21"/>
</a>
</g>
</g>
<!-- Node41&#45;&gt;Node6 -->
<g id="edge63_Node000041_Node000006" class="edge">
<title>Node41&#45;&gt;Node6</title>
<g id="a_edge63_Node000041_Node000006"><a xlink:title=" ">
<path fill="none" stroke="#63b8ff" d="M697.86,-173.23C650.62,-165.66 577.53,-150.75 561.05,-129 543.84,-106.29 579.5,-87.23 608.85,-76.09"/>
<polygon fill="#63b8ff" stroke="#63b8ff" points="610.25,-79.3 618.47,-72.62 607.87,-72.72 610.25,-79.3"/>
</a>
</g>
</g>
<!-- Node41&#45;&gt;Node27 -->
<g id="edge64_Node000041_Node000027" class="edge">
<title>Node41&#45;&gt;Node27</title>
<g id="a_edge64_Node000041_Node000027"><a xlink:title=" ">
<path fill="none" stroke="#63b8ff" d="M750.56,-170.37C762.89,-161.12 782.67,-146.28 797.46,-135.19"/>
<polygon fill="#63b8ff" stroke="#63b8ff" points="799.59,-137.97 805.49,-129.17 795.39,-132.37 799.59,-137.97"/>
</a>
</g>
</g>
</g>
</svg>
