<?xml version="1.0" encoding="UTF-8" standalone="no"?>
<!DOCTYPE svg PUBLIC "-//W3C//DTD SVG 1.1//EN"
 "http://www.w3.org/Graphics/SVG/1.1/DTD/svg11.dtd">
<!-- Generated by graphviz version 2.43.0 (0)
 -->
<!-- Title: src/client/main.cpp Pages: 1 -->
<svg width="2176pt" height="203pt"
 viewBox="0.00 0.00 2175.50 203.00" xmlns="http://www.w3.org/2000/svg" xmlns:xlink="http://www.w3.org/1999/xlink">
<g id="graph0" class="graph" transform="scale(1 1) rotate(0) translate(4 199)">
<title>src/client/main.cpp</title>
<!-- Node1 -->
<g id="Node000001" class="node">
<title>Node1</title>
<g id="a_Node000001"><a xlink:title=" ">
<polygon fill="#999999" stroke="#666666" points="1256,-195 1147,-195 1147,-176 1256,-176 1256,-195"/>
<text text-anchor="middle" x="1201.5" y="-183" font-family="Helvetica,sans-Serif" font-size="10.00">src/client/main.cpp</text>
</a>
</g>
</g>
<!-- Node2 -->
<g id="Node000002" class="node">
<title>Node2</title>
<g id="a_Node000002"><a xlink:href="ecs_8hpp.html" target="_top" xlink:title=" ">
<polygon fill="white" stroke="#666666" points="1234.5,-74 1124.5,-74 1124.5,-55 1234.5,-55 1234.5,-74"/>
<text text-anchor="middle" x="1179.5" y="-62" font-family="Helvetica,sans-Serif" font-size="10.00">engine/ecs/ecs.hpp</text>
</a>
</g>
</g>
<!-- Node1&#45;&gt;Node2 -->
<g id="edge1_Node000001_Node000002" class="edge">
<title>Node1&#45;&gt;Node2</title>
<g id="a_edge1_Node000001_Node000002"><a xlink:title=" ">
<path fill="none" stroke="#63b8ff" d="M1256.06,-183.44C1334.54,-180 1465.02,-165.99 1418.5,-110 1412.88,-103.24 1313.41,-86.44 1244.58,-75.53"/>
<polygon fill="#63b8ff" stroke="#63b8ff" points="1245.09,-72.06 1234.66,-73.96 1243.99,-78.98 1245.09,-72.06"/>
</a>
</g>
</g>
<!-- Node10 -->
<g id="Node000010" class="node">
<title>Node10</title>
<g id="a_Node000010"><a xlink:href="Components_8hpp.html" target="_top" xlink:title=" ">
<polygon fill="white" stroke="#666666" points="1106,-74 927,-74 927,-55 1106,-55 1106,-74"/>
<text text-anchor="middle" x="1016.5" y="-62" font-family="Helvetica,sans-Serif" font-size="10.00">engine/systems/Components.hpp</text>
</a>
</g>
</g>
<!-- Node1&#45;&gt;Node10 -->
<g id="edge9_Node000001_Node000010" class="edge">
<title>Node1&#45;&gt;Node10</title>
<g id="a_edge9_Node000001_Node000010"><a xlink:title=" ">
<path fill="none" stroke="#63b8ff" d="M1201.92,-175.8C1202.16,-160.34 1200.32,-128.04 1182.5,-110 1164.73,-92.01 1140.53,-81.06 1116.11,-74.45"/>
<polygon fill="#63b8ff" stroke="#63b8ff" points="1116.93,-71.05 1106.39,-72.04 1115.25,-77.84 1116.93,-71.05"/>
</a>
</g>
</g>
<!-- Node13 -->
<g id="Node000013" class="node">
<title>Node13</title>
<g id="a_Node000013"><a xlink:href="RessourceManager_8hpp.html" target="_top" xlink:title=" ">
<polygon fill="white" stroke="#666666" points="147,-140 0,-140 0,-110 147,-110 147,-140"/>
<text text-anchor="start" x="8" y="-128" font-family="Helvetica,sans-Serif" font-size="10.00">engine/systems/Ressource</text>
<text text-anchor="middle" x="73.5" y="-117" font-family="Helvetica,sans-Serif" font-size="10.00">Manager.hpp</text>
</a>
</g>
</g>
<!-- Node1&#45;&gt;Node13 -->
<g id="edge12_Node000001_Node000013" class="edge">
<title>Node1&#45;&gt;Node13</title>
<g id="a_edge12_Node000001_Node000013"><a xlink:title=" ">
<path fill="none" stroke="#63b8ff" d="M1146.93,-184.37C992.13,-183.54 537.08,-177.78 161.5,-140 160.2,-139.87 158.89,-139.73 157.58,-139.59"/>
<polygon fill="#63b8ff" stroke="#63b8ff" points="157.7,-136.08 147.36,-138.38 156.88,-143.03 157.7,-136.08"/>
</a>
</g>
</g>
<!-- Node14 -->
<g id="Node000014" class="node">
<title>Node14</title>
<g id="a_Node000014"><a xlink:title=" ">
<polygon fill="#e0e0e0" stroke="#999999" points="382.5,-74 322.5,-74 322.5,-55 382.5,-55 382.5,-74"/>
<text text-anchor="middle" x="352.5" y="-62" font-family="Helvetica,sans-Serif" font-size="10.00">iostream</text>
</a>
</g>
</g>
<!-- Node1&#45;&gt;Node14 -->
<g id="edge62_Node000001_Node000014" class="edge">
<title>Node1&#45;&gt;Node14</title>
<g id="a_edge62_Node000001_Node000014"><a xlink:title=" ">
<path fill="none" stroke="#63b8ff" d="M1146.9,-184.15C941.84,-182.58 227.64,-174.63 194.5,-140 156.03,-99.79 253.87,-78.95 312.39,-70.37"/>
<polygon fill="#63b8ff" stroke="#63b8ff" points="313.05,-73.81 322.47,-68.95 312.08,-66.88 313.05,-73.81"/>
</a>
</g>
</g>
<!-- Node16 -->
<g id="Node000016" class="node">
<title>Node16</title>
<g id="a_Node000016"><a xlink:href="RenderSystem_8hpp.html" target="_top" xlink:title=" ">
<polygon fill="white" stroke="#666666" points="1016,-134.5 827,-134.5 827,-115.5 1016,-115.5 1016,-134.5"/>
<text text-anchor="middle" x="921.5" y="-122.5" font-family="Helvetica,sans-Serif" font-size="10.00">engine/systems/RenderSystem.hpp</text>
</a>
</g>
</g>
<!-- Node1&#45;&gt;Node16 -->
<g id="edge18_Node000001_Node000016" class="edge">
<title>Node1&#45;&gt;Node16</title>
<g id="a_edge18_Node000001_Node000016"><a xlink:title=" ">
<path fill="none" stroke="#63b8ff" d="M1160.79,-175.99C1110.91,-165.57 1026.41,-147.92 972.32,-136.62"/>
<polygon fill="#63b8ff" stroke="#63b8ff" points="972.77,-133.14 962.26,-134.52 971.34,-139.99 972.77,-133.14"/>
</a>
</g>
</g>
<!-- Node18 -->
<g id="Node000018" class="node">
<title>Node18</title>
<g id="a_Node000018"><a xlink:href="InputSystem_8hpp.html" target="_top" xlink:title=" ">
<polygon fill="white" stroke="#666666" points="1870,-134.5 1691,-134.5 1691,-115.5 1870,-115.5 1870,-134.5"/>
<text text-anchor="middle" x="1780.5" y="-122.5" font-family="Helvetica,sans-Serif" font-size="10.00">engine/systems/InputSystem.hpp</text>
</a>
</g>
</g>
<!-- Node1&#45;&gt;Node18 -->
<g id="edge23_Node000001_Node000018" class="edge">
<title>Node1&#45;&gt;Node18</title>
<g id="a_edge23_Node000001_Node000018"><a xlink:title=" ">
<path fill="none" stroke="#63b8ff" d="M1256.05,-180.34C1345.34,-173.33 1528.21,-158.15 1682.5,-140 1692.78,-138.79 1703.65,-137.37 1714.27,-135.92"/>
<polygon fill="#63b8ff" stroke="#63b8ff" points="1714.91,-139.36 1724.33,-134.51 1713.95,-132.43 1714.91,-139.36"/>
</a>
</g>
</g>
<!-- Node24 -->
<g id="Node000024" class="node">
<title>Node24</title>
<g id="a_Node000024"><a xlink:href="CollisionSystem_8hpp.html" target="_top" xlink:title=" ">
<polygon fill="white" stroke="#666666" points="1173,-140 1034,-140 1034,-110 1173,-110 1173,-140"/>
<text text-anchor="start" x="1042" y="-128" font-family="Helvetica,sans-Serif" font-size="10.00">engine/systems/Collision</text>
<text text-anchor="middle" x="1103.5" y="-117" font-family="Helvetica,sans-Serif" font-size="10.00">System.hpp</text>
</a>
</g>
</g>
<!-- Node1&#45;&gt;Node24 -->
<g id="edge31_Node000001_Node000024" class="edge">
<title>Node1&#45;&gt;Node24</title>
<g id="a_edge31_Node000001_Node000024"><a xlink:title=" ">
<path fill="none" stroke="#63b8ff" d="M1187.04,-175.87C1173.62,-167.86 1153.17,-155.65 1135.86,-145.31"/>
<polygon fill="#63b8ff" stroke="#63b8ff" points="1137.53,-142.23 1127.14,-140.11 1133.94,-148.25 1137.53,-142.23"/>
</a>
</g>
</g>
<!-- Node25 -->
<g id="Node000025" class="node">
<title>Node25</title>
<g id="a_Node000025"><a xlink:href="WaveSystem_8hpp.html" target="_top" xlink:title=" ">
<polygon fill="white" stroke="#666666" points="385.5,-134.5 203.5,-134.5 203.5,-115.5 385.5,-115.5 385.5,-134.5"/>
<text text-anchor="middle" x="294.5" y="-122.5" font-family="Helvetica,sans-Serif" font-size="10.00">engine/systems/WaveSystem.hpp</text>
</a>
</g>
</g>
<!-- Node1&#45;&gt;Node25 -->
<g id="edge35_Node000001_Node000025" class="edge">
<title>Node1&#45;&gt;Node25</title>
<g id="a_edge35_Node000001_Node000025"><a xlink:title=" ">
<path fill="none" stroke="#63b8ff" d="M1146.58,-183.06C1015.97,-179.3 676.61,-167.48 394.5,-140 383.16,-138.9 371.14,-137.45 359.51,-135.91"/>
<polygon fill="#63b8ff" stroke="#63b8ff" points="359.8,-132.42 349.42,-134.53 358.85,-139.35 359.8,-132.42"/>
</a>
</g>
</g>
<!-- Node26 -->
<g id="Node000026" class="node">
<title>Node26</title>
<g id="a_Node000026"><a xlink:href="MovementSystem_8hpp.html" target="_top" xlink:title=" ">
<polygon fill="white" stroke="#666666" points="1673,-134.5 1466,-134.5 1466,-115.5 1673,-115.5 1673,-134.5"/>
<text text-anchor="middle" x="1569.5" y="-122.5" font-family="Helvetica,sans-Serif" font-size="10.00">engine/systems/MovementSystem.hpp</text>
</a>
</g>
</g>
<!-- Node1&#45;&gt;Node26 -->
<g id="edge42_Node000001_Node000026" class="edge">
<title>Node1&#45;&gt;Node26</title>
<g id="a_edge42_Node000001_Node000026"><a xlink:title=" ">
<path fill="none" stroke="#63b8ff" d="M1255.01,-175.99C1321.51,-165.42 1434.86,-147.4 1505.78,-136.13"/>
<polygon fill="#63b8ff" stroke="#63b8ff" points="1506.6,-139.54 1515.93,-134.52 1505.5,-132.63 1506.6,-139.54"/>
</a>
</g>
</g>
<!-- Node28 -->
<g id="Node000028" class="node">
<title>Node28</title>
<g id="a_Node000028"><a xlink:href="MissileSystem_8hpp.html" target="_top" xlink:title=" ">
<polygon fill="white" stroke="#666666" points="809,-134.5 620,-134.5 620,-115.5 809,-115.5 809,-134.5"/>
<text text-anchor="middle" x="714.5" y="-122.5" font-family="Helvetica,sans-Serif" font-size="10.00">engine/systems/MissileSystem.hpp</text>
</a>
</g>
</g>
<!-- Node1&#45;&gt;Node28 -->
<g id="edge46_Node000001_Node000028" class="edge">
<title>Node1&#45;&gt;Node28</title>
<g id="a_edge46_Node000001_Node000028"><a xlink:title=" ">
<path fill="none" stroke="#63b8ff" d="M1146.77,-178.5C1072.25,-170.25 934.69,-154.75 817.5,-140 807.26,-138.71 796.45,-137.3 785.83,-135.88"/>
<polygon fill="#63b8ff" stroke="#63b8ff" points="786.12,-132.39 775.75,-134.53 785.19,-139.33 786.12,-132.39"/>
</a>
</g>
</g>
<!-- Node29 -->
<g id="Node000029" class="node">
<title>Node29</title>
<g id="a_Node000029"><a xlink:href="PowerUpSystem_8hpp.html" target="_top" xlink:title=" ">
<polygon fill="white" stroke="#666666" points="601.5,-134.5 403.5,-134.5 403.5,-115.5 601.5,-115.5 601.5,-134.5"/>
<text text-anchor="middle" x="502.5" y="-122.5" font-family="Helvetica,sans-Serif" font-size="10.00">engine/systems/PowerUpSystem.hpp</text>
</a>
</g>
</g>
<!-- Node1&#45;&gt;Node29 -->
<g id="edge50_Node000001_Node000029" class="edge">
<title>Node1&#45;&gt;Node29</title>
<g id="a_edge50_Node000001_Node000029"><a xlink:title=" ">
<path fill="none" stroke="#63b8ff" d="M1146.82,-181.37C1042.42,-175.17 807.54,-160.17 610.5,-140 598.67,-138.79 586.14,-137.33 573.96,-135.81"/>
<polygon fill="#63b8ff" stroke="#63b8ff" points="574.19,-132.31 563.83,-134.53 573.31,-139.26 574.19,-132.31"/>
</a>
</g>
</g>
<!-- Node30 -->
<g id="Node000030" class="node">
<title>Node30</title>
<g id="a_Node000030"><a xlink:href="systems_2StageFactory_8hpp.html" target="_top" xlink:title=" ">
<polygon fill="white" stroke="#666666" points="2067,-134.5 1888,-134.5 1888,-115.5 2067,-115.5 2067,-134.5"/>
<text text-anchor="middle" x="1977.5" y="-122.5" font-family="Helvetica,sans-Serif" font-size="10.00">engine/systems/StageFactory.hpp</text>
</a>
</g>
</g>
<!-- Node1&#45;&gt;Node30 -->
<g id="edge54_Node000001_Node000030" class="edge">
<title>Node1&#45;&gt;Node30</title>
<g id="a_edge54_Node000001_Node000030"><a xlink:title=" ">
<path fill="none" stroke="#63b8ff" d="M1256.11,-182.33C1371.46,-177.44 1648.36,-164.06 1879.5,-140 1890.36,-138.87 1901.87,-137.44 1913.04,-135.92"/>
<polygon fill="#63b8ff" stroke="#63b8ff" points="1913.74,-139.36 1923.16,-134.52 1912.78,-132.43 1913.74,-139.36"/>
</a>
</g>
</g>
<!-- Node31 -->
<g id="Node000031" class="node">
<title>Node31</title>
<g id="a_Node000031"><a xlink:title=" ">
<polygon fill="#e0e0e0" stroke="#999999" points="2120,-74 2071,-74 2071,-55 2120,-55 2120,-74"/>
<text text-anchor="middle" x="2095.5" y="-62" font-family="Helvetica,sans-Serif" font-size="10.00">cstdlib</text>
</a>
</g>
</g>
<!-- Node1&#45;&gt;Node31 -->
<g id="edge63_Node000001_Node000031" class="edge">
<title>Node1&#45;&gt;Node31</title>
<g id="a_edge63_Node000001_Node000031"><a xlink:title=" ">
<path fill="none" stroke="#63b8ff" d="M1256.26,-183.49C1442.95,-179.83 2044.7,-166.03 2076.5,-140 2092.77,-126.68 2096.21,-101.55 2096.45,-84.19"/>
<polygon fill="#63b8ff" stroke="#63b8ff" points="2099.95,-84.02 2096.25,-74.1 2092.95,-84.16 2099.95,-84.02"/>
</a>
</g>
</g>
<!-- Node32 -->
<g id="Node000032" class="node">
<title>Node32</title>
<g id="a_Node000032"><a xlink:href="systems_2EntityFactory_8hpp.html" target="_top" xlink:title=" ">
<polygon fill="white" stroke="#666666" points="1409.5,-134.5 1229.5,-134.5 1229.5,-115.5 1409.5,-115.5 1409.5,-134.5"/>
<text text-anchor="middle" x="1319.5" y="-122.5" font-family="Helvetica,sans-Serif" font-size="10.00">engine/systems/EntityFactory.hpp</text>
</a>
</g>
</g>
<!-- Node1&#45;&gt;Node32 -->
<g id="edge59_Node000001_Node000032" class="edge">
<title>Node1&#45;&gt;Node32</title>
<g id="a_edge59_Node000001_Node000032"><a xlink:title=" ">
<path fill="none" stroke="#63b8ff" d="M1218.66,-175.99C1238.23,-166.29 1270.47,-150.31 1293.22,-139.03"/>
<polygon fill="#63b8ff" stroke="#63b8ff" points="1294.92,-142.09 1302.32,-134.52 1291.81,-135.82 1294.92,-142.09"/>
</a>
</g>
</g>
<!-- Node33 -->
<g id="Node000033" class="node">
<title>Node33</title>
<g id="a_Node000033"><a xlink:title=" ">
<polygon fill="#e0e0e0" stroke="#999999" points="2167.5,-134.5 2123.5,-134.5 2123.5,-115.5 2167.5,-115.5 2167.5,-134.5"/>
<text text-anchor="middle" x="2145.5" y="-122.5" font-family="Helvetica,sans-Serif" font-size="10.00">ctime</text>
</a>
</g>
</g>
<!-- Node1&#45;&gt;Node33 -->
<g id="edge64_Node000001_Node000033" class="edge">
<title>Node1&#45;&gt;Node33</title>
<g id="a_edge64_Node000001_Node000033"><a xlink:title=" ">
<path fill="none" stroke="#63b8ff" d="M1256.13,-184.12C1426.3,-182.56 1945.2,-175.01 2109.5,-140 2112.03,-139.46 2114.6,-138.77 2117.17,-137.98"/>
<polygon fill="#63b8ff" stroke="#63b8ff" points="2118.53,-141.21 2126.79,-134.59 2116.2,-134.61 2118.53,-141.21"/>
</a>
</g>
</g>
<!-- Node3 -->
<g id="Node000003" class="node">
<title>Node3</title>
<g id="a_Node000003"><a xlink:title=" ">
<polygon fill="#e0e0e0" stroke="#999999" points="1067,-19 1020,-19 1020,0 1067,0 1067,-19"/>
<text text-anchor="middle" x="1043.5" y="-7" font-family="Helvetica,sans-Serif" font-size="10.00">queue</text>
</a>
</g>
</g>
<!-- Node2&#45;&gt;Node3 -->
<g id="edge2_Node000002_Node000003" class="edge">
<title>Node2&#45;&gt;Node3</title>
<g id="a_edge2_Node000002_Node000003"><a xlink:title=" ">
<path fill="none" stroke="#63b8ff" d="M1157.65,-54.98C1135.38,-46.3 1100.6,-32.75 1075.28,-22.88"/>
<polygon fill="#63b8ff" stroke="#63b8ff" points="1076.34,-19.54 1065.75,-19.17 1073.79,-26.06 1076.34,-19.54"/>
</a>
</g>
</g>
<!-- Node4 -->
<g id="Node000004" class="node">
<title>Node4</title>
<g id="a_Node000004"><a xlink:title=" ">
<polygon fill="#e0e0e0" stroke="#999999" points="1135.5,-19 1085.5,-19 1085.5,0 1135.5,0 1135.5,-19"/>
<text text-anchor="middle" x="1110.5" y="-7" font-family="Helvetica,sans-Serif" font-size="10.00">cstdint</text>
</a>
</g>
</g>
<!-- Node2&#45;&gt;Node4 -->
<g id="edge3_Node000002_Node000004" class="edge">
<title>Node2&#45;&gt;Node4</title>
<g id="a_edge3_Node000002_Node000004"><a xlink:title=" ">
<path fill="none" stroke="#63b8ff" d="M1168.41,-54.98C1158.01,-47 1142.24,-34.88 1129.78,-25.31"/>
<polygon fill="#63b8ff" stroke="#63b8ff" points="1131.85,-22.49 1121.79,-19.17 1127.59,-28.04 1131.85,-22.49"/>
</a>
</g>
</g>
<!-- Node5 -->
<g id="Node000005" class="node">
<title>Node5</title>
<g id="a_Node000005"><a xlink:title=" ">
<polygon fill="#e0e0e0" stroke="#999999" points="1205.5,-19 1153.5,-19 1153.5,0 1205.5,0 1205.5,-19"/>
<text text-anchor="middle" x="1179.5" y="-7" font-family="Helvetica,sans-Serif" font-size="10.00">cassert</text>
</a>
</g>
</g>
<!-- Node2&#45;&gt;Node5 -->
<g id="edge4_Node000002_Node000005" class="edge">
<title>Node2&#45;&gt;Node5</title>
<g id="a_edge4_Node000002_Node000005"><a xlink:title=" ">
<path fill="none" stroke="#63b8ff" d="M1179.5,-54.75C1179.5,-47.8 1179.5,-37.85 1179.5,-29.13"/>
<polygon fill="#63b8ff" stroke="#63b8ff" points="1183,-29.09 1179.5,-19.09 1176,-29.09 1183,-29.09"/>
</a>
</g>
</g>
<!-- Node6 -->
<g id="Node000006" class="node">
<title>Node6</title>
<g id="a_Node000006"><a xlink:title=" ">
<polygon fill="#e0e0e0" stroke="#999999" points="1395,-19 1348,-19 1348,0 1395,0 1395,-19"/>
<text text-anchor="middle" x="1371.5" y="-7" font-family="Helvetica,sans-Serif" font-size="10.00">vector</text>
</a>
</g>
</g>
<!-- Node2&#45;&gt;Node6 -->
<g id="edge5_Node000002_Node000006" class="edge">
<title>Node2&#45;&gt;Node6</title>
<g id="a_edge5_Node000002_Node000006"><a xlink:title=" ">
<path fill="none" stroke="#63b8ff" d="M1210.35,-54.98C1245.27,-45.34 1301.98,-29.69 1337.98,-19.75"/>
<polygon fill="#63b8ff" stroke="#63b8ff" points="1339.28,-23.02 1347.99,-16.99 1337.42,-16.28 1339.28,-23.02"/>
</a>
</g>
</g>
<!-- Node7 -->
<g id="Node000007" class="node">
<title>Node7</title>
<g id="a_Node000007"><a xlink:title=" ">
<polygon fill="#e0e0e0" stroke="#999999" points="1267.5,-19 1223.5,-19 1223.5,0 1267.5,0 1267.5,-19"/>
<text text-anchor="middle" x="1245.5" y="-7" font-family="Helvetica,sans-Serif" font-size="10.00">limits</text>
</a>
</g>
</g>
<!-- Node2&#45;&gt;Node7 -->
<g id="edge6_Node000002_Node000007" class="edge">
<title>Node2&#45;&gt;Node7</title>
<g id="a_edge6_Node000002_Node000007"><a xlink:title=" ">
<path fill="none" stroke="#63b8ff" d="M1190.1,-54.98C1199.96,-47.07 1214.85,-35.11 1226.72,-25.58"/>
<polygon fill="#63b8ff" stroke="#63b8ff" points="1229.1,-28.16 1234.7,-19.17 1224.71,-22.7 1229.1,-28.16"/>
</a>
</g>
</g>
<!-- Node8 -->
<g id="Node000008" class="node">
<title>Node8</title>
<g id="a_Node000008"><a xlink:title=" ">
<polygon fill="#e0e0e0" stroke="#999999" points="1329.5,-19 1285.5,-19 1285.5,0 1329.5,0 1329.5,-19"/>
<text text-anchor="middle" x="1307.5" y="-7" font-family="Helvetica,sans-Serif" font-size="10.00">bitset</text>
</a>
</g>
</g>
<!-- Node2&#45;&gt;Node8 -->
<g id="edge7_Node000002_Node000008" class="edge">
<title>Node2&#45;&gt;Node8</title>
<g id="a_edge7_Node000002_Node000008"><a xlink:title=" ">
<path fill="none" stroke="#63b8ff" d="M1200.07,-54.98C1220.93,-46.34 1253.47,-32.87 1277.27,-23.02"/>
<polygon fill="#63b8ff" stroke="#63b8ff" points="1278.66,-26.23 1286.56,-19.17 1275.98,-19.76 1278.66,-26.23"/>
</a>
</g>
</g>
<!-- Node9 -->
<g id="Node000009" class="node">
<title>Node9</title>
<g id="a_Node000009"><a xlink:title=" ">
<polygon fill="#e0e0e0" stroke="#999999" points="1002,-19 909,-19 909,0 1002,0 1002,-19"/>
<text text-anchor="middle" x="955.5" y="-7" font-family="Helvetica,sans-Serif" font-size="10.00">unordered_map</text>
</a>
</g>
</g>
<!-- Node2&#45;&gt;Node9 -->
<g id="edge8_Node000002_Node000009" class="edge">
<title>Node2&#45;&gt;Node9</title>
<g id="a_edge8_Node000002_Node000009"><a xlink:title=" ">
<path fill="none" stroke="#63b8ff" d="M1143.51,-54.98C1105.01,-45.87 1043.81,-31.4 1001.76,-21.45"/>
<polygon fill="#63b8ff" stroke="#63b8ff" points="1002.31,-17.98 991.77,-19.08 1000.7,-24.79 1002.31,-17.98"/>
</a>
</g>
</g>
<!-- Node11 -->
<g id="Node000011" class="node">
<title>Node11</title>
<g id="a_Node000011"><a xlink:title=" ">
<polygon fill="#e0e0e0" stroke="#999999" points="890.5,-19 780.5,-19 780.5,0 890.5,0 890.5,-19"/>
<text text-anchor="middle" x="835.5" y="-7" font-family="Helvetica,sans-Serif" font-size="10.00">SFML/Graphics.hpp</text>
</a>
</g>
</g>
<!-- Node10&#45;&gt;Node11 -->
<g id="edge10_Node000010_Node000011" class="edge">
<title>Node10&#45;&gt;Node11</title>
<g id="a_edge10_Node000010_Node000011"><a xlink:title=" ">
<path fill="none" stroke="#63b8ff" d="M987.42,-54.98C956.9,-46.05 908.74,-31.94 874.84,-22.02"/>
<polygon fill="#63b8ff" stroke="#63b8ff" points="875.39,-18.53 864.81,-19.08 873.42,-25.25 875.39,-18.53"/>
</a>
</g>
</g>
<!-- Node12 -->
<g id="Node000012" class="node">
<title>Node12</title>
<g id="a_Node000012"><a xlink:title=" ">
<polygon fill="#e0e0e0" stroke="#999999" points="430.5,-19 386.5,-19 386.5,0 430.5,0 430.5,-19"/>
<text text-anchor="middle" x="408.5" y="-7" font-family="Helvetica,sans-Serif" font-size="10.00">string</text>
</a>
</g>
</g>
<!-- Node10&#45;&gt;Node12 -->
<g id="edge11_Node000010_Node000012" class="edge">
<title>Node10&#45;&gt;Node12</title>
<g id="a_edge11_Node000010_Node000012"><a xlink:title=" ">
<path fill="none" stroke="#63b8ff" d="M926.79,-55.68C788.87,-43.66 531.22,-21.2 440.84,-13.32"/>
<polygon fill="#63b8ff" stroke="#63b8ff" points="440.93,-9.81 430.66,-12.43 440.32,-16.79 440.93,-9.81"/>
</a>
</g>
</g>
<!-- Node13&#45;&gt;Node9 -->
<g id="edge14_Node000013_Node000009" class="edge">
<title>Node13&#45;&gt;Node9</title>
<g id="a_edge14_Node000013_Node000009"><a xlink:title=" ">
<path fill="none" stroke="#63b8ff" d="M97.93,-109.85C131.44,-90.57 188.76,-58.04 199.5,-55 346.36,-13.37 728.81,-33.84 898.65,-18.9"/>
<polygon fill="#63b8ff" stroke="#63b8ff" points="899.17,-22.37 908.79,-17.94 898.51,-15.4 899.17,-22.37"/>
</a>
</g>
</g>
<!-- Node13&#45;&gt;Node11 -->
<g id="edge13_Node000013_Node000011" class="edge">
<title>Node13&#45;&gt;Node11</title>
<g id="a_edge13_Node000013_Node000011"><a xlink:title=" ">
<path fill="none" stroke="#63b8ff" d="M86.36,-109.86C102.38,-93.35 131.43,-66.79 162.5,-55 218.34,-33.81 612.62,-18.13 770.44,-12.64"/>
<polygon fill="#63b8ff" stroke="#63b8ff" points="770.61,-16.13 780.48,-12.29 770.37,-9.14 770.61,-16.13"/>
</a>
</g>
</g>
<!-- Node13&#45;&gt;Node12 -->
<g id="edge15_Node000013_Node000012" class="edge">
<title>Node13&#45;&gt;Node12</title>
<g id="a_edge15_Node000013_Node000012"><a xlink:title=" ">
<path fill="none" stroke="#63b8ff" d="M78.23,-109.77C84.37,-93.68 96.7,-68.04 116.5,-55 158.69,-27.21 308.91,-15.84 375.87,-12.07"/>
<polygon fill="#63b8ff" stroke="#63b8ff" points="376.45,-15.55 386.25,-11.51 376.08,-8.56 376.45,-15.55"/>
</a>
</g>
</g>
<!-- Node13&#45;&gt;Node14 -->
<g id="edge16_Node000013_Node000014" class="edge">
<title>Node13&#45;&gt;Node14</title>
<g id="a_edge16_Node000013_Node000014"><a xlink:title=" ">
<path fill="none" stroke="#63b8ff" d="M140.33,-109.99C194.02,-98.73 267.64,-83.29 312.54,-73.88"/>
<polygon fill="#63b8ff" stroke="#63b8ff" points="313.42,-77.27 322.49,-71.79 311.98,-70.42 313.42,-77.27"/>
</a>
</g>
</g>
<!-- Node15 -->
<g id="Node000015" class="node">
<title>Node15</title>
<g id="a_Node000015"><a xlink:title=" ">
<polygon fill="#e0e0e0" stroke="#999999" points="264.5,-74 208.5,-74 208.5,-55 264.5,-55 264.5,-74"/>
<text text-anchor="middle" x="236.5" y="-62" font-family="Helvetica,sans-Serif" font-size="10.00">sstream</text>
</a>
</g>
</g>
<!-- Node13&#45;&gt;Node15 -->
<g id="edge17_Node000013_Node000015" class="edge">
<title>Node13&#45;&gt;Node15</title>
<g id="a_edge17_Node000013_Node000015"><a xlink:title=" ">
<path fill="none" stroke="#63b8ff" d="M112.54,-109.99C140.1,-100.1 176.65,-86.98 202.91,-77.56"/>
<polygon fill="#63b8ff" stroke="#63b8ff" points="204.2,-80.81 212.43,-74.14 201.83,-74.22 204.2,-80.81"/>
</a>
</g>
</g>
<!-- Node16&#45;&gt;Node2 -->
<g id="edge19_Node000016_Node000002" class="edge">
<title>Node16&#45;&gt;Node2</title>
<g id="a_edge19_Node000016_Node000002"><a xlink:title=" ">
<path fill="none" stroke="#63b8ff" d="M959.02,-115.49C1004.78,-105.12 1082.19,-87.57 1132.05,-76.26"/>
<polygon fill="#63b8ff" stroke="#63b8ff" points="1132.96,-79.64 1141.94,-74.02 1131.41,-72.81 1132.96,-79.64"/>
</a>
</g>
</g>
<!-- Node16&#45;&gt;Node10 -->
<g id="edge20_Node000016_Node000010" class="edge">
<title>Node16&#45;&gt;Node10</title>
<g id="a_edge20_Node000016_Node000010"><a xlink:title=" ">
<path fill="none" stroke="#63b8ff" d="M935.52,-115.37C950.81,-105.95 975.53,-90.73 993.64,-79.58"/>
<polygon fill="#63b8ff" stroke="#63b8ff" points="995.75,-82.39 1002.42,-74.17 992.07,-76.43 995.75,-82.39"/>
</a>
</g>
</g>
<!-- Node16&#45;&gt;Node11 -->
<g id="edge21_Node000016_Node000011" class="edge">
<title>Node16&#45;&gt;Node11</title>
<g id="a_edge21_Node000016_Node000011"><a xlink:title=" ">
<path fill="none" stroke="#63b8ff" d="M916.94,-115.08C909.81,-101.5 895.21,-75.11 879.5,-55 871.49,-44.75 861.35,-34.35 852.82,-26.19"/>
<polygon fill="#63b8ff" stroke="#63b8ff" points="854.96,-23.4 845.26,-19.12 850.18,-28.51 854.96,-23.4"/>
</a>
</g>
</g>
<!-- Node17 -->
<g id="Node000017" class="node">
<title>Node17</title>
<g id="a_Node000017"><a xlink:title=" ">
<polygon fill="#e0e0e0" stroke="#999999" points="870.5,-74 806.5,-74 806.5,-55 870.5,-55 870.5,-74"/>
<text text-anchor="middle" x="838.5" y="-62" font-family="Helvetica,sans-Serif" font-size="10.00">algorithm</text>
</a>
</g>
</g>
<!-- Node16&#45;&gt;Node17 -->
<g id="edge22_Node000016_Node000017" class="edge">
<title>Node16&#45;&gt;Node17</title>
<g id="a_edge22_Node000016_Node000017"><a xlink:title=" ">
<path fill="none" stroke="#63b8ff" d="M909.25,-115.37C896.14,-106.12 875.08,-91.28 859.35,-80.19"/>
<polygon fill="#63b8ff" stroke="#63b8ff" points="860.99,-77.07 850.8,-74.17 856.95,-82.79 860.99,-77.07"/>
</a>
</g>
</g>
<!-- Node18&#45;&gt;Node2 -->
<g id="edge24_Node000018_Node000002" class="edge">
<title>Node18&#45;&gt;Node2</title>
<g id="a_edge24_Node000018_Node000002"><a xlink:title=" ">
<path fill="none" stroke="#63b8ff" d="M1725.12,-115.5C1711.22,-113.53 1696.33,-111.56 1682.5,-110 1491.62,-88.54 1440.42,-94.46 1244.83,-73.98"/>
<polygon fill="#63b8ff" stroke="#63b8ff" points="1245.11,-70.49 1234.8,-72.91 1244.37,-77.45 1245.11,-70.49"/>
</a>
</g>
</g>
<!-- Node18&#45;&gt;Node10 -->
<g id="edge25_Node000018_Node000010" class="edge">
<title>Node18&#45;&gt;Node10</title>
<g id="a_edge25_Node000018_Node000010"><a xlink:title=" ">
<path fill="none" stroke="#63b8ff" d="M1726.42,-115.5C1712.16,-113.47 1696.78,-111.47 1682.5,-110 1434.63,-84.47 1369.03,-92.58 1116.3,-74.04"/>
<polygon fill="#63b8ff" stroke="#63b8ff" points="1116.3,-70.53 1106.07,-73.28 1115.79,-77.51 1116.3,-70.53"/>
</a>
</g>
</g>
<!-- Node19 -->
<g id="Node000019" class="node">
<title>Node19</title>
<g id="a_Node000019"><a xlink:title=" ">
<polygon fill="#e0e0e0" stroke="#999999" points="1455,-74 1318,-74 1318,-55 1455,-55 1455,-74"/>
<text text-anchor="middle" x="1386.5" y="-62" font-family="Helvetica,sans-Serif" font-size="10.00">SFML/Window/Event.hpp</text>
</a>
</g>
</g>
<!-- Node18&#45;&gt;Node19 -->
<g id="edge26_Node000018_Node000019" class="edge">
<title>Node18&#45;&gt;Node19</title>
<g id="a_edge26_Node000018_Node000019"><a xlink:title=" ">
<path fill="none" stroke="#63b8ff" d="M1723.21,-115.49C1651.72,-104.88 1529.66,-86.76 1453.79,-75.49"/>
<polygon fill="#63b8ff" stroke="#63b8ff" points="1454.27,-72.02 1443.86,-74.02 1453.24,-78.95 1454.27,-72.02"/>
</a>
</g>
</g>
<!-- Node20 -->
<g id="Node000020" class="node">
<title>Node20</title>
<g id="a_Node000020"><a xlink:title=" ">
<polygon fill="#e0e0e0" stroke="#999999" points="1620,-74 1473,-74 1473,-55 1620,-55 1620,-74"/>
<text text-anchor="middle" x="1546.5" y="-62" font-family="Helvetica,sans-Serif" font-size="10.00">SFML/Window/Window.hpp</text>
</a>
</g>
</g>
<!-- Node18&#45;&gt;Node20 -->
<g id="edge27_Node000018_Node000020" class="edge">
<title>Node18&#45;&gt;Node20</title>
<g id="a_edge27_Node000018_Node000020"><a xlink:title=" ">
<path fill="none" stroke="#63b8ff" d="M1746.47,-115.49C1705.23,-105.18 1635.64,-87.78 1590.39,-76.47"/>
<polygon fill="#63b8ff" stroke="#63b8ff" points="1591.12,-73.05 1580.57,-74.02 1589.42,-79.84 1591.12,-73.05"/>
</a>
</g>
</g>
<!-- Node21 -->
<g id="Node000021" class="node">
<title>Node21</title>
<g id="a_Node000021"><a xlink:title=" ">
<polygon fill="#e0e0e0" stroke="#999999" points="1793,-74 1638,-74 1638,-55 1793,-55 1793,-74"/>
<text text-anchor="middle" x="1715.5" y="-62" font-family="Helvetica,sans-Serif" font-size="10.00">SFML/Window/Keyboard.hpp</text>
</a>
</g>
</g>
<!-- Node18&#45;&gt;Node21 -->
<g id="edge28_Node000018_Node000021" class="edge">
<title>Node18&#45;&gt;Node21</title>
<g id="a_edge28_Node000018_Node000021"><a xlink:title=" ">
<path fill="none" stroke="#63b8ff" d="M1770.91,-115.37C1760.92,-106.38 1745.07,-92.11 1732.87,-81.14"/>
<polygon fill="#63b8ff" stroke="#63b8ff" points="1734.9,-78.26 1725.13,-74.17 1730.22,-83.46 1734.9,-78.26"/>
</a>
</g>
</g>
<!-- Node22 -->
<g id="Node000022" class="node">
<title>Node22</title>
<g id="a_Node000022"><a xlink:title=" ">
<polygon fill="#e0e0e0" stroke="#999999" points="1958,-74 1811,-74 1811,-55 1958,-55 1958,-74"/>
<text text-anchor="middle" x="1884.5" y="-62" font-family="Helvetica,sans-Serif" font-size="10.00">SFML/Window/Joystick.hpp</text>
</a>
</g>
</g>
<!-- Node18&#45;&gt;Node22 -->
<g id="edge29_Node000018_Node000022" class="edge">
<title>Node18&#45;&gt;Node22</title>
<g id="a_edge29_Node000018_Node000022"><a xlink:title=" ">
<path fill="none" stroke="#63b8ff" d="M1795.85,-115.37C1812.82,-105.82 1840.4,-90.31 1860.29,-79.12"/>
<polygon fill="#63b8ff" stroke="#63b8ff" points="1862.09,-82.12 1869.09,-74.17 1858.66,-76.02 1862.09,-82.12"/>
</a>
</g>
</g>
<!-- Node23 -->
<g id="Node000023" class="node">
<title>Node23</title>
<g id="a_Node000023"><a xlink:title=" ">
<polygon fill="#e0e0e0" stroke="#999999" points="2014.5,-74 1976.5,-74 1976.5,-55 2014.5,-55 2014.5,-74"/>
<text text-anchor="middle" x="1995.5" y="-62" font-family="Helvetica,sans-Serif" font-size="10.00">map</text>
</a>
</g>
</g>
<!-- Node18&#45;&gt;Node23 -->
<g id="edge30_Node000018_Node000023" class="edge">
<title>Node18&#45;&gt;Node23</title>
<g id="a_edge30_Node000018_Node000023"><a xlink:title=" ">
<path fill="none" stroke="#63b8ff" d="M1813.7,-115.48C1849.18,-106.3 1907.31,-91.03 1966.38,-74.25"/>
<polygon fill="#63b8ff" stroke="#63b8ff" points="1967.59,-77.55 1976.25,-71.44 1965.67,-70.81 1967.59,-77.55"/>
</a>
</g>
</g>
<!-- Node24&#45;&gt;Node2 -->
<g id="edge32_Node000024_Node000002" class="edge">
<title>Node24&#45;&gt;Node2</title>
<g id="a_edge32_Node000024_Node000002"><a xlink:title=" ">
<path fill="none" stroke="#63b8ff" d="M1121.9,-109.84C1133.38,-101 1148.15,-89.63 1159.86,-80.62"/>
<polygon fill="#63b8ff" stroke="#63b8ff" points="1162.32,-83.14 1168.11,-74.27 1158.05,-77.59 1162.32,-83.14"/>
</a>
</g>
</g>
<!-- Node24&#45;&gt;Node10 -->
<g id="edge33_Node000024_Node000010" class="edge">
<title>Node24&#45;&gt;Node10</title>
<g id="a_edge33_Node000024_Node000010"><a xlink:title=" ">
<path fill="none" stroke="#63b8ff" d="M1082.44,-109.84C1068.96,-100.77 1051.51,-89.04 1037.95,-79.92"/>
<polygon fill="#63b8ff" stroke="#63b8ff" points="1039.53,-76.77 1029.28,-74.09 1035.63,-82.58 1039.53,-76.77"/>
</a>
</g>
</g>
<!-- Node24&#45;&gt;Node17 -->
<g id="edge34_Node000024_Node000017" class="edge">
<title>Node24&#45;&gt;Node17</title>
<g id="a_edge34_Node000024_Node000017"><a xlink:title=" ">
<path fill="none" stroke="#63b8ff" d="M1040.03,-109.99C990.55,-99.07 923.27,-84.21 880.35,-74.74"/>
<polygon fill="#63b8ff" stroke="#63b8ff" points="881.04,-71.31 870.52,-72.57 879.53,-78.14 881.04,-71.31"/>
</a>
</g>
</g>
<!-- Node25&#45;&gt;Node2 -->
<g id="edge36_Node000025_Node000002" class="edge">
<title>Node25&#45;&gt;Node2</title>
<g id="a_edge36_Node000025_Node000002"><a xlink:title=" ">
<path fill="none" stroke="#63b8ff" d="M348.89,-115.49C363.66,-113.42 379.67,-111.41 394.5,-110 710.2,-80.07 793.69,-102.33 1114.18,-73.93"/>
<polygon fill="#63b8ff" stroke="#63b8ff" points="1114.57,-77.41 1124.21,-73.04 1113.94,-70.44 1114.57,-77.41"/>
</a>
</g>
</g>
<!-- Node25&#45;&gt;Node6 -->
<g id="edge38_Node000025_Node000006" class="edge">
<title>Node25&#45;&gt;Node6</title>
<g id="a_edge38_Node000025_Node000006"><a xlink:title=" ">
<path fill="none" stroke="#63b8ff" d="M293.93,-115.05C293.52,-99.9 295.17,-69.48 313.5,-55 356.64,-20.92 1218.23,-26.68 1337.79,-18.23"/>
<polygon fill="#63b8ff" stroke="#63b8ff" points="1338.22,-21.71 1347.83,-17.25 1337.54,-14.74 1338.22,-21.71"/>
</a>
</g>
</g>
<!-- Node25&#45;&gt;Node10 -->
<g id="edge37_Node000025_Node000010" class="edge">
<title>Node25&#45;&gt;Node10</title>
<g id="a_edge37_Node000025_Node000010"><a xlink:title=" ">
<path fill="none" stroke="#63b8ff" d="M350.48,-115.48C364.81,-113.49 380.2,-111.51 394.5,-110 492.84,-99.61 767.56,-81.39 916.85,-71.8"/>
<polygon fill="#63b8ff" stroke="#63b8ff" points="917.19,-75.29 926.94,-71.16 916.74,-68.3 917.19,-75.29"/>
</a>
</g>
</g>
<!-- Node25&#45;&gt;Node14 -->
<g id="edge39_Node000025_Node000014" class="edge">
<title>Node25&#45;&gt;Node14</title>
<g id="a_edge39_Node000025_Node000014"><a xlink:title=" ">
<path fill="none" stroke="#63b8ff" d="M303.06,-115.37C311.88,-106.47 325.84,-92.39 336.68,-81.45"/>
<polygon fill="#63b8ff" stroke="#63b8ff" points="339.35,-83.73 343.91,-74.17 334.38,-78.8 339.35,-83.73"/>
</a>
</g>
</g>
<!-- Node25&#45;&gt;Node15 -->
<g id="edge40_Node000025_Node000015" class="edge">
<title>Node25&#45;&gt;Node15</title>
<g id="a_edge40_Node000025_Node000015"><a xlink:title=" ">
<path fill="none" stroke="#63b8ff" d="M285.94,-115.37C277.12,-106.47 263.16,-92.39 252.32,-81.45"/>
<polygon fill="#63b8ff" stroke="#63b8ff" points="254.62,-78.8 245.09,-74.17 249.65,-83.73 254.62,-78.8"/>
</a>
</g>
</g>
<!-- Node25&#45;&gt;Node17 -->
<g id="edge41_Node000025_Node000017" class="edge">
<title>Node25&#45;&gt;Node17</title>
<g id="a_edge41_Node000025_Node000017"><a xlink:title=" ">
<path fill="none" stroke="#63b8ff" d="M352.62,-115.47C366.34,-113.57 380.92,-111.63 394.5,-110 541.91,-92.3 717.44,-76.16 796.38,-69.17"/>
<polygon fill="#63b8ff" stroke="#63b8ff" points="796.76,-72.65 806.42,-68.28 796.15,-65.67 796.76,-72.65"/>
</a>
</g>
</g>
<!-- Node26&#45;&gt;Node2 -->
<g id="edge43_Node000026_Node000002" class="edge">
<title>Node26&#45;&gt;Node2</title>
<g id="a_edge43_Node000026_Node000002"><a xlink:title=" ">
<path fill="none" stroke="#63b8ff" d="M1512.79,-115.49C1441.67,-104.82 1319.97,-86.57 1244.96,-75.32"/>
<polygon fill="#63b8ff" stroke="#63b8ff" points="1245.11,-71.8 1234.7,-73.78 1244.07,-78.72 1245.11,-71.8"/>
</a>
</g>
</g>
<!-- Node26&#45;&gt;Node10 -->
<g id="edge44_Node000026_Node000010" class="edge">
<title>Node26&#45;&gt;Node10</title>
<g id="a_edge44_Node000026_Node000010"><a xlink:title=" ">
<path fill="none" stroke="#63b8ff" d="M1489.09,-115.49C1387.52,-104.75 1213.22,-86.31 1107.06,-75.08"/>
<polygon fill="#63b8ff" stroke="#63b8ff" points="1107.32,-71.59 1097.01,-74.02 1106.58,-78.55 1107.32,-71.59"/>
</a>
</g>
</g>
<!-- Node27 -->
<g id="Node000027" class="node">
<title>Node27</title>
<g id="a_Node000027"><a xlink:title=" ">
<polygon fill="#e0e0e0" stroke="#999999" points="1300,-74 1253,-74 1253,-55 1300,-55 1300,-74"/>
<text text-anchor="middle" x="1276.5" y="-62" font-family="Helvetica,sans-Serif" font-size="10.00">cmath</text>
</a>
</g>
</g>
<!-- Node26&#45;&gt;Node27 -->
<g id="edge45_Node000026_Node000027" class="edge">
<title>Node26&#45;&gt;Node27</title>
<g id="a_edge45_Node000026_Node000027"><a xlink:title=" ">
<path fill="none" stroke="#63b8ff" d="M1519.95,-115.42C1469.65,-106.49 1389.3,-91.66 1310.37,-74.08"/>
<polygon fill="#63b8ff" stroke="#63b8ff" points="1310.77,-70.58 1300.25,-71.81 1309.24,-77.41 1310.77,-70.58"/>
</a>
</g>
</g>
<!-- Node28&#45;&gt;Node2 -->
<g id="edge47_Node000028_Node000002" class="edge">
<title>Node28&#45;&gt;Node2</title>
<g id="a_edge47_Node000028_Node000002"><a xlink:title=" ">
<path fill="none" stroke="#63b8ff" d="M776.03,-115.49C789.68,-113.64 804.08,-111.73 817.5,-110 946.16,-93.46 980.9,-90.75 1114.01,-74.05"/>
<polygon fill="#63b8ff" stroke="#63b8ff" points="1114.7,-77.49 1124.19,-72.77 1113.83,-70.54 1114.7,-77.49"/>
</a>
</g>
</g>
<!-- Node28&#45;&gt;Node10 -->
<g id="edge48_Node000028_Node000010" class="edge">
<title>Node28&#45;&gt;Node10</title>
<g id="a_edge48_Node000028_Node000010"><a xlink:title=" ">
<path fill="none" stroke="#63b8ff" d="M758.41,-115.49C812.43,-105.03 904.11,-87.27 962.41,-75.98"/>
<polygon fill="#63b8ff" stroke="#63b8ff" points="963.38,-79.35 972.53,-74.02 962.05,-72.48 963.38,-79.35"/>
</a>
</g>
</g>
<!-- Node28&#45;&gt;Node14 -->
<g id="edge49_Node000028_Node000014" class="edge">
<title>Node28&#45;&gt;Node14</title>
<g id="a_edge49_Node000028_Node000014"><a xlink:title=" ">
<path fill="none" stroke="#63b8ff" d="M661.86,-115.49C588.9,-103.7 458.59,-82.64 392.83,-72.02"/>
<polygon fill="#63b8ff" stroke="#63b8ff" points="393.28,-68.54 382.85,-70.4 392.16,-75.45 393.28,-68.54"/>
</a>
</g>
</g>
<!-- Node29&#45;&gt;Node2 -->
<g id="edge51_Node000029_Node000002" class="edge">
<title>Node29&#45;&gt;Node2</title>
<g id="a_edge51_Node000029_Node000002"><a xlink:title=" ">
<path fill="none" stroke="#63b8ff" d="M563.26,-115.5C578.65,-113.52 595.17,-111.54 610.5,-110 830.67,-87.88 889.36,-96.31 1114.07,-73.97"/>
<polygon fill="#63b8ff" stroke="#63b8ff" points="1114.61,-77.44 1124.21,-72.96 1113.91,-70.47 1114.61,-77.44"/>
</a>
</g>
</g>
<!-- Node29&#45;&gt;Node10 -->
<g id="edge52_Node000029_Node000010" class="edge">
<title>Node29&#45;&gt;Node10</title>
<g id="a_edge52_Node000029_Node000010"><a xlink:title=" ">
<path fill="none" stroke="#63b8ff" d="M566.72,-115.46C581.12,-113.61 596.33,-111.7 610.5,-110 718.13,-97.13 842,-83.76 924.33,-75.08"/>
<polygon fill="#63b8ff" stroke="#63b8ff" points="924.83,-78.55 934.41,-74.02 924.1,-71.58 924.83,-78.55"/>
</a>
</g>
</g>
<!-- Node29&#45;&gt;Node14 -->
<g id="edge53_Node000029_Node000014" class="edge">
<title>Node29&#45;&gt;Node14</title>
<g id="a_edge53_Node000029_Node000014"><a xlink:title=" ">
<path fill="none" stroke="#63b8ff" d="M480.69,-115.49C455.25,-105.57 412.99,-89.09 383.99,-77.78"/>
<polygon fill="#63b8ff" stroke="#63b8ff" points="384.93,-74.39 374.34,-74.02 382.38,-80.91 384.93,-74.39"/>
</a>
</g>
</g>
<!-- Node30&#45;&gt;Node2 -->
<g id="edge55_Node000030_Node000002" class="edge">
<title>Node30&#45;&gt;Node2</title>
<g id="a_edge55_Node000030_Node000002"><a xlink:title=" ">
<path fill="none" stroke="#63b8ff" d="M1923.68,-115.47C1909.36,-113.43 1893.87,-111.43 1879.5,-110 1601.51,-82.31 1527.67,-99.92 1244.93,-73.95"/>
<polygon fill="#63b8ff" stroke="#63b8ff" points="1245.07,-70.45 1234.79,-73.01 1244.42,-77.42 1245.07,-70.45"/>
</a>
</g>
</g>
<!-- Node30&#45;&gt;Node6 -->
<g id="edge57_Node000030_Node000006" class="edge">
<title>Node30&#45;&gt;Node6</title>
<g id="a_edge57_Node000030_Node000006"><a xlink:title=" ">
<path fill="none" stroke="#63b8ff" d="M1990.66,-115.29C2009.91,-101.53 2041.58,-74.36 2023.5,-55 1981.08,-9.58 1533.63,-9.31 1405.57,-10.18"/>
<polygon fill="#63b8ff" stroke="#63b8ff" points="1405.17,-6.68 1395.2,-10.25 1405.23,-13.68 1405.17,-6.68"/>
</a>
</g>
</g>
<!-- Node30&#45;&gt;Node10 -->
<g id="edge56_Node000030_Node000010" class="edge">
<title>Node30&#45;&gt;Node10</title>
<g id="a_edge56_Node000030_Node000010"><a xlink:title=" ">
<path fill="none" stroke="#63b8ff" d="M1924.46,-115.49C1909.92,-113.41 1894.13,-111.39 1879.5,-110 1544.39,-78.24 1456.4,-96.18 1116.21,-74.01"/>
<polygon fill="#63b8ff" stroke="#63b8ff" points="1116.28,-70.51 1106.07,-73.35 1115.82,-77.5 1116.28,-70.51"/>
</a>
</g>
</g>
<!-- Node30&#45;&gt;Node31 -->
<g id="edge58_Node000030_Node000031" class="edge">
<title>Node30&#45;&gt;Node31</title>
<g id="a_edge58_Node000030_Node000031"><a xlink:title=" ">
<path fill="none" stroke="#63b8ff" d="M1994.66,-115.49C2014.23,-105.79 2046.47,-89.81 2069.22,-78.53"/>
<polygon fill="#63b8ff" stroke="#63b8ff" points="2070.92,-81.59 2078.32,-74.02 2067.81,-75.32 2070.92,-81.59"/>
</a>
</g>
</g>
<!-- Node32&#45;&gt;Node2 -->
<g id="edge60_Node000032_Node000002" class="edge">
<title>Node32&#45;&gt;Node2</title>
<g id="a_edge60_Node000032_Node000002"><a xlink:title=" ">
<path fill="none" stroke="#63b8ff" d="M1299.14,-115.49C1275.5,-105.62 1236.3,-89.23 1209.25,-77.93"/>
<polygon fill="#63b8ff" stroke="#63b8ff" points="1210.46,-74.64 1199.88,-74.02 1207.76,-81.1 1210.46,-74.64"/>
</a>
</g>
</g>
<!-- Node32&#45;&gt;Node10 -->
<g id="edge61_Node000032_Node000010" class="edge">
<title>Node32&#45;&gt;Node10</title>
<g id="a_edge61_Node000032_Node000010"><a xlink:title=" ">
<path fill="none" stroke="#63b8ff" d="M1275.44,-115.49C1221.25,-105.03 1129.27,-87.27 1070.77,-75.98"/>
<polygon fill="#63b8ff" stroke="#63b8ff" points="1071.09,-72.48 1060.61,-74.02 1069.77,-79.35 1071.09,-72.48"/>
</a>
</g>
</g>
</g>
</svg>
