<?xml version="1.0" encoding="UTF-8" standalone="no"?>
<!DOCTYPE svg PUBLIC "-//W3C//DTD SVG 1.1//EN"
 "http://www.w3.org/Graphics/SVG/1.1/DTD/svg11.dtd">
<!-- Generated by graphviz version 2.43.0 (0)
 -->
<!-- Title: include/engine/systems/Components.hpp Pages: 1 -->
<svg width="1340pt" height="170pt"
 viewBox="0.00 0.00 1340.00 170.00" xmlns="http://www.w3.org/2000/svg" xmlns:xlink="http://www.w3.org/1999/xlink">
<g id="graph0" class="graph" transform="scale(1 1) rotate(0) translate(4 166)">
<title>include/engine/systems/Components.hpp</title>
<!-- Node1 -->
<g id="Node000001" class="node">
<title>Node1</title>
<g id="a_Node000001"><a xlink:title=" ">
<polygon fill="#999999" stroke="#666666" points="732,-162 600,-162 600,-132 732,-132 732,-162"/>
<text text-anchor="start" x="608" y="-150" font-family="Helvetica,sans-Serif" font-size="10.00">include/engine/systems</text>
<text text-anchor="middle" x="666" y="-139" font-family="Helvetica,sans-Serif" font-size="10.00">/Components.hpp</text>
</a>
</g>
</g>
<!-- Node2 -->
<g id="Node000002" class="node">
<title>Node2</title>
<g id="a_Node000002"><a xlink:href="CollisionSystem_8hpp.html" target="_top" xlink:title=" ">
<polygon fill="white" stroke="#666666" points="132,-96 0,-96 0,-66 132,-66 132,-96"/>
<text text-anchor="start" x="8" y="-84" font-family="Helvetica,sans-Serif" font-size="10.00">include/engine/systems</text>
<text text-anchor="middle" x="66" y="-73" font-family="Helvetica,sans-Serif" font-size="10.00">/CollisionSystem.hpp</text>
</a>
</g>
</g>
<!-- Node1&#45;&gt;Node2 -->
<g id="edge1_Node000001_Node000002" class="edge">
<title>Node1&#45;&gt;Node2</title>
<g id="a_edge1_Node000001_Node000002"><a xlink:title=" ">
<path fill="none" stroke="#63b8ff" d="M589.64,-140.88C487.23,-133.53 299.88,-118.35 141,-96 138.11,-95.59 135.17,-95.15 132.2,-94.69"/>
<polygon fill="#63b8ff" stroke="#63b8ff" points="589.67,-144.39 599.89,-141.61 590.16,-137.41 589.67,-144.39"/>
</a>
</g>
</g>
<!-- Node3 -->
<g id="Node000003" class="node">
<title>Node3</title>
<g id="a_Node000003"><a xlink:href="systems_2EntityFactory_8hpp.html" target="_top" xlink:title=" ">
<polygon fill="white" stroke="#666666" points="282,-96 150,-96 150,-66 282,-66 282,-96"/>
<text text-anchor="start" x="158" y="-84" font-family="Helvetica,sans-Serif" font-size="10.00">include/engine/systems</text>
<text text-anchor="middle" x="216" y="-73" font-family="Helvetica,sans-Serif" font-size="10.00">/EntityFactory.hpp</text>
</a>
</g>
</g>
<!-- Node1&#45;&gt;Node3 -->
<g id="edge2_Node000001_Node000003" class="edge">
<title>Node1&#45;&gt;Node3</title>
<g id="a_edge2_Node000001_Node000003"><a xlink:title=" ">
<path fill="none" stroke="#63b8ff" d="M589.85,-137.02C513.97,-127.8 394.19,-112.5 291,-96 288.12,-95.54 285.19,-95.06 282.22,-94.55"/>
<polygon fill="#63b8ff" stroke="#63b8ff" points="589.45,-140.5 599.8,-138.23 590.3,-133.55 589.45,-140.5"/>
</a>
</g>
</g>
<!-- Node4 -->
<g id="Node000004" class="node">
<title>Node4</title>
<g id="a_Node000004"><a xlink:href="InputSystem_8hpp.html" target="_top" xlink:title=" ">
<polygon fill="white" stroke="#666666" points="432,-96 300,-96 300,-66 432,-66 432,-96"/>
<text text-anchor="start" x="308" y="-84" font-family="Helvetica,sans-Serif" font-size="10.00">include/engine/systems</text>
<text text-anchor="middle" x="366" y="-73" font-family="Helvetica,sans-Serif" font-size="10.00">/InputSystem.hpp</text>
</a>
</g>
</g>
<!-- Node1&#45;&gt;Node4 -->
<g id="edge3_Node000001_Node000004" class="edge">
<title>Node1&#45;&gt;Node4</title>
<g id="a_edge3_Node000001_Node000004"><a xlink:title=" ">
<path fill="none" stroke="#63b8ff" d="M590.27,-129.84C541.39,-119.42 478.44,-105.99 431.68,-96.01"/>
<polygon fill="#63b8ff" stroke="#63b8ff" points="589.65,-133.29 600.16,-131.95 591.11,-126.45 589.65,-133.29"/>
</a>
</g>
</g>
<!-- Node6 -->
<g id="Node000006" class="node">
<title>Node6</title>
<g id="a_Node000006"><a xlink:href="MissileSystem_8hpp.html" target="_top" xlink:title=" ">
<polygon fill="white" stroke="#666666" points="582,-96 450,-96 450,-66 582,-66 582,-96"/>
<text text-anchor="start" x="458" y="-84" font-family="Helvetica,sans-Serif" font-size="10.00">include/engine/systems</text>
<text text-anchor="middle" x="516" y="-73" font-family="Helvetica,sans-Serif" font-size="10.00">/MissileSystem.hpp</text>
</a>
</g>
</g>
<!-- Node1&#45;&gt;Node6 -->
<g id="edge5_Node000001_Node000006" class="edge">
<title>Node1&#45;&gt;Node6</title>
<g id="a_edge5_Node000001_Node000006"><a xlink:title=" ">
<path fill="none" stroke="#63b8ff" d="M623.62,-127.92C599.92,-117.8 570.81,-105.38 548.84,-96.01"/>
<polygon fill="#63b8ff" stroke="#63b8ff" points="622.51,-131.25 633.08,-131.95 625.26,-124.81 622.51,-131.25"/>
</a>
</g>
</g>
<!-- Node7 -->
<g id="Node000007" class="node">
<title>Node7</title>
<g id="a_Node000007"><a xlink:href="MovementSystem_8hpp.html" target="_top" xlink:title=" ">
<polygon fill="white" stroke="#666666" points="732,-96 600,-96 600,-66 732,-66 732,-96"/>
<text text-anchor="start" x="608" y="-84" font-family="Helvetica,sans-Serif" font-size="10.00">include/engine/systems</text>
<text text-anchor="middle" x="666" y="-73" font-family="Helvetica,sans-Serif" font-size="10.00">/MovementSystem.hpp</text>
</a>
</g>
</g>
<!-- Node1&#45;&gt;Node7 -->
<g id="edge6_Node000001_Node000007" class="edge">
<title>Node1&#45;&gt;Node7</title>
<g id="a_edge6_Node000001_Node000007"><a xlink:title=" ">
<path fill="none" stroke="#63b8ff" d="M666,-121.54C666,-112.96 666,-103.61 666,-96.16"/>
<polygon fill="#63b8ff" stroke="#63b8ff" points="662.5,-121.8 666,-131.8 669.5,-121.8 662.5,-121.8"/>
</a>
</g>
</g>
<!-- Node8 -->
<g id="Node000008" class="node">
<title>Node8</title>
<g id="a_Node000008"><a xlink:href="PowerUpSystem_8hpp.html" target="_top" xlink:title=" ">
<polygon fill="white" stroke="#666666" points="882,-96 750,-96 750,-66 882,-66 882,-96"/>
<text text-anchor="start" x="758" y="-84" font-family="Helvetica,sans-Serif" font-size="10.00">include/engine/systems</text>
<text text-anchor="middle" x="816" y="-73" font-family="Helvetica,sans-Serif" font-size="10.00">/PowerUpSystem.hpp</text>
</a>
</g>
</g>
<!-- Node1&#45;&gt;Node8 -->
<g id="edge7_Node000001_Node000008" class="edge">
<title>Node1&#45;&gt;Node8</title>
<g id="a_edge7_Node000001_Node000008"><a xlink:title=" ">
<path fill="none" stroke="#63b8ff" d="M708.38,-127.92C732.08,-117.8 761.19,-105.38 783.16,-96.01"/>
<polygon fill="#63b8ff" stroke="#63b8ff" points="706.74,-124.81 698.92,-131.95 709.49,-131.25 706.74,-124.81"/>
</a>
</g>
</g>
<!-- Node9 -->
<g id="Node000009" class="node">
<title>Node9</title>
<g id="a_Node000009"><a xlink:href="RenderSystem_8hpp.html" target="_top" xlink:title=" ">
<polygon fill="white" stroke="#666666" points="1032,-96 900,-96 900,-66 1032,-66 1032,-96"/>
<text text-anchor="start" x="908" y="-84" font-family="Helvetica,sans-Serif" font-size="10.00">include/engine/systems</text>
<text text-anchor="middle" x="966" y="-73" font-family="Helvetica,sans-Serif" font-size="10.00">/RenderSystem.hpp</text>
</a>
</g>
</g>
<!-- Node1&#45;&gt;Node9 -->
<g id="edge8_Node000001_Node000009" class="edge">
<title>Node1&#45;&gt;Node9</title>
<g id="a_edge8_Node000001_Node000009"><a xlink:title=" ">
<path fill="none" stroke="#63b8ff" d="M741.73,-129.84C790.61,-119.42 853.56,-105.99 900.32,-96.01"/>
<polygon fill="#63b8ff" stroke="#63b8ff" points="740.89,-126.45 731.84,-131.95 742.35,-133.29 740.89,-126.45"/>
</a>
</g>
</g>
<!-- Node10 -->
<g id="Node000010" class="node">
<title>Node10</title>
<g id="a_Node000010"><a xlink:href="systems_2StageFactory_8hpp.html" target="_top" xlink:title=" ">
<polygon fill="white" stroke="#666666" points="1182,-96 1050,-96 1050,-66 1182,-66 1182,-96"/>
<text text-anchor="start" x="1058" y="-84" font-family="Helvetica,sans-Serif" font-size="10.00">include/engine/systems</text>
<text text-anchor="middle" x="1116" y="-73" font-family="Helvetica,sans-Serif" font-size="10.00">/StageFactory.hpp</text>
</a>
</g>
</g>
<!-- Node1&#45;&gt;Node10 -->
<g id="edge9_Node000001_Node000010" class="edge">
<title>Node1&#45;&gt;Node10</title>
<g id="a_edge9_Node000001_Node000010"><a xlink:title=" ">
<path fill="none" stroke="#63b8ff" d="M742.15,-137.02C818.03,-127.8 937.81,-112.5 1041,-96 1043.88,-95.54 1046.81,-95.06 1049.78,-94.55"/>
<polygon fill="#63b8ff" stroke="#63b8ff" points="741.7,-133.55 732.2,-138.23 742.55,-140.5 741.7,-133.55"/>
</a>
</g>
</g>
<!-- Node11 -->
<g id="Node000011" class="node">
<title>Node11</title>
<g id="a_Node000011"><a xlink:href="WaveSystem_8hpp.html" target="_top" xlink:title=" ">
<polygon fill="white" stroke="#666666" points="1332,-96 1200,-96 1200,-66 1332,-66 1332,-96"/>
<text text-anchor="start" x="1208" y="-84" font-family="Helvetica,sans-Serif" font-size="10.00">include/engine/systems</text>
<text text-anchor="middle" x="1266" y="-73" font-family="Helvetica,sans-Serif" font-size="10.00">/WaveSystem.hpp</text>
</a>
</g>
</g>
<!-- Node1&#45;&gt;Node11 -->
<g id="edge10_Node000001_Node000011" class="edge">
<title>Node1&#45;&gt;Node11</title>
<g id="a_edge10_Node000001_Node000011"><a xlink:title=" ">
<path fill="none" stroke="#63b8ff" d="M742.36,-140.88C844.77,-133.53 1032.12,-118.35 1191,-96 1193.89,-95.59 1196.83,-95.15 1199.8,-94.69"/>
<polygon fill="#63b8ff" stroke="#63b8ff" points="741.84,-137.41 732.11,-141.61 742.33,-144.39 741.84,-137.41"/>
</a>
</g>
</g>
<!-- Node5 -->
<g id="Node000005" class="node">
<title>Node5</title>
<g id="a_Node000005"><a xlink:href="GameEngine_8hpp.html" target="_top" xlink:title=" ">
<polygon fill="white" stroke="#666666" points="422,-30 310,-30 310,0 422,0 422,-30"/>
<text text-anchor="start" x="318" y="-18" font-family="Helvetica,sans-Serif" font-size="10.00">include/engine/core</text>
<text text-anchor="middle" x="366" y="-7" font-family="Helvetica,sans-Serif" font-size="10.00">/GameEngine.hpp</text>
</a>
</g>
</g>
<!-- Node4&#45;&gt;Node5 -->
<g id="edge4_Node000004_Node000005" class="edge">
<title>Node4&#45;&gt;Node5</title>
<g id="a_edge4_Node000004_Node000005"><a xlink:title=" ">
<path fill="none" stroke="#63b8ff" d="M366,-55.54C366,-46.96 366,-37.61 366,-30.16"/>
<polygon fill="#63b8ff" stroke="#63b8ff" points="362.5,-55.8 366,-65.8 369.5,-55.8 362.5,-55.8"/>
</a>
</g>
</g>
</g>
</svg>
