<?xml version="1.0" encoding="UTF-8" standalone="no"?>
<!DOCTYPE svg PUBLIC "-//W3C//DTD SVG 1.1//EN"
 "http://www.w3.org/Graphics/SVG/1.1/DTD/svg11.dtd">
<!-- Generated by graphviz version 2.43.0 (0)
 -->
<!-- Title: include/engine Pages: 1 -->
<svg width="254pt" height="255pt"
 viewBox="0.00 0.00 254.00 255.00" xmlns="http://www.w3.org/2000/svg" xmlns:xlink="http://www.w3.org/1999/xlink">
<g id="graph0" class="graph" transform="scale(1 1) rotate(0) translate(4 251)">
<title>include/engine</title>
<g id="clust1" class="cluster">
<title>clusterdir_d44c64559bbebec7f509842c48db8b23</title>
<g id="a_clust1"><a xlink:href="dir_d44c64559bbebec7f509842c48db8b23.html" target="_top" xlink:title="include">
<polygon fill="#edf0f7" stroke="#404040" stroke-dasharray="5,2" points="8,-8 8,-239 238,-239 238,-8 8,-8"/>
<text text-anchor="middle" x="123" y="-227" font-family="Helvetica,sans-Serif" font-size="10.00">include</text>
</a>
</g>
</g>
<g id="clust2" class="cluster">
<title>clusterdir_a7f531b1c37460085cedd304cb8df01d</title>
<g id="a_clust2"><a xlink:href="dir_a7f531b1c37460085cedd304cb8df01d.html" target="_top">
<polygon fill="#edf0f7" stroke="#404040" stroke-width="2" points="16,-16 16,-212 230,-212 230,-16 16,-16"/>
</a>
</g>
</g>
<!-- dir_a7f531b1c37460085cedd304cb8df01d -->
<g id="node1" class="node">
<title>dir_a7f531b1c37460085cedd304cb8df01d</title>
<polygon fill="lightblue" stroke="transparent" points="222,-204 168,-204 168,-168 222,-168 222,-204"/>
<text text-anchor="middle" x="195" y="-183.5" font-family="Helvetica,sans-Serif" font-size="10.00">engine</text>
</g>
<!-- dir_7f643b58e2241519524527f42d96aecd -->
<g id="node2" class="node">
<title>dir_7f643b58e2241519524527f42d96aecd</title>
<g id="a_node2"><a xlink:href="dir_7f643b58e2241519524527f42d96aecd.html" target="_top" xlink:title="core">
<polygon fill="#a2b4d6" stroke="#404040" points="150,-204 96,-204 96,-168 150,-168 150,-204"/>
<text text-anchor="middle" x="123" y="-183.5" font-family="Helvetica,sans-Serif" font-size="10.00">core</text>
</a>
</g>
</g>
<!-- dir_5798507e9d2e7b8ffcab32c1ad4b7742 -->
<g id="node5" class="node">
<title>dir_5798507e9d2e7b8ffcab32c1ad4b7742</title>
<g id="a_node5"><a xlink:href="dir_5798507e9d2e7b8ffcab32c1ad4b7742.html" target="_top" xlink:title="systems">
<polygon fill="#a2b4d6" stroke="#404040" points="152,-132 94,-132 94,-96 152,-96 152,-132"/>
<text text-anchor="middle" x="123" y="-111.5" font-family="Helvetica,sans-Serif" font-size="10.00">systems</text>
</a>
</g>
</g>
<!-- dir_7f643b58e2241519524527f42d96aecd&#45;&gt;dir_5798507e9d2e7b8ffcab32c1ad4b7742 -->
<g id="edge1" class="edge">
<title>dir_7f643b58e2241519524527f42d96aecd&#45;&gt;dir_5798507e9d2e7b8ffcab32c1ad4b7742</title>
<g id="a_edge1"><a xlink:href="dir_000000_000005.html" target="_top">
<path fill="none" stroke="#63b8ff" d="M123,-167.7C123,-159.98 123,-150.71 123,-142.11"/>
<polygon fill="#63b8ff" stroke="#63b8ff" points="126.5,-142.1 123,-132.1 119.5,-142.1 126.5,-142.1"/>
</a>
</g>
<g id="a_edge1&#45;headlabel"><a xlink:href="dir_000000_000005.html" target="_top" xlink:title="1">
<text text-anchor="middle" x="129.34" y="-143.2" font-family="Helvetica,sans-Serif" font-size="10.00" fill="#63b8ff">1</text>
</a>
</g>
</g>
<!-- dir_8ab72e353a78ceede58b61c063873544 -->
<g id="node3" class="node">
<title>dir_8ab72e353a78ceede58b61c063873544</title>
<g id="a_node3"><a xlink:href="dir_8ab72e353a78ceede58b61c063873544.html" target="_top" xlink:title="ecs">
<polygon fill="#a2b4d6" stroke="#404040" points="150,-60 96,-60 96,-24 150,-24 150,-60"/>
<text text-anchor="middle" x="123" y="-39.5" font-family="Helvetica,sans-Serif" font-size="10.00">ecs</text>
</a>
</g>
</g>
<!-- dir_e195d152014184066cb01f2943ac7373 -->
<g id="node4" class="node">
<title>dir_e195d152014184066cb01f2943ac7373</title>
<g id="a_node4"><a xlink:href="dir_e195d152014184066cb01f2943ac7373.html" target="_top" xlink:title="factory">
<polygon fill="#a2b4d6" stroke="#404040" points="78,-204 24,-204 24,-168 78,-168 78,-204"/>
<text text-anchor="middle" x="51" y="-183.5" font-family="Helvetica,sans-Serif" font-size="10.00">factory</text>
</a>
</g>
</g>
<!-- dir_5798507e9d2e7b8ffcab32c1ad4b7742&#45;&gt;dir_8ab72e353a78ceede58b61c063873544 -->
<g id="edge2" class="edge">
<title>dir_5798507e9d2e7b8ffcab32c1ad4b7742&#45;&gt;dir_8ab72e353a78ceede58b61c063873544</title>
<g id="a_edge2"><a xlink:href="dir_000005_000001.html" target="_top">
<path fill="none" stroke="#63b8ff" d="M123,-95.7C123,-87.98 123,-78.71 123,-70.11"/>
<polygon fill="#63b8ff" stroke="#63b8ff" points="126.5,-70.1 123,-60.1 119.5,-70.1 126.5,-70.1"/>
</a>
</g>
<g id="a_edge2&#45;headlabel"><a xlink:href="dir_000005_000001.html" target="_top" xlink:title="9">
<text text-anchor="middle" x="129.34" y="-71.2" font-family="Helvetica,sans-Serif" font-size="10.00" fill="#63b8ff">9</text>
</a>
</g>
</g>
</g>
</svg>
