<?xml version="1.0" encoding="UTF-8" standalone="no"?>
<!DOCTYPE svg PUBLIC "-//W3C//DTD SVG 1.1//EN"
 "http://www.w3.org/Graphics/SVG/1.1/DTD/svg11.dtd">
<!-- Generated by graphviz version 2.43.0 (0)
 -->
<!-- Title: getComponentID Pages: 1 -->
<svg width="311pt" height="286pt"
 viewBox="0.00 0.00 311.00 286.00" xmlns="http://www.w3.org/2000/svg" xmlns:xlink="http://www.w3.org/1999/xlink">
<g id="graph0" class="graph" transform="scale(1 1) rotate(0) translate(4 282)">
<title>getComponentID</title>
<!-- Node1 -->
<g id="Node000001" class="node">
<title>Node1</title>
<g id="a_Node000001"><a xlink:title="Retrieves the unique ID for a given component type.">
<polygon fill="#999999" stroke="#666666" points="303,-148 204,-148 204,-129 303,-129 303,-148"/>
<text text-anchor="middle" x="253.5" y="-136" font-family="Helvetica,sans-Serif" font-size="10.00">getComponentID</text>
</a>
</g>
</g>
<!-- Node2 -->
<g id="Node000002" class="node">
<title>Node2</title>
<g id="a_Node000002"><a xlink:href="classECS.html#ab25f63dc0523958d986069505b703c12" target="_top" xlink:title="Adds a component to an entity.">
<polygon fill="white" stroke="#666666" points="142,-278 26,-278 26,-259 142,-259 142,-278"/>
<text text-anchor="middle" x="84" y="-266" font-family="Helvetica,sans-Serif" font-size="10.00">ECS::addComponent</text>
</a>
</g>
</g>
<!-- Node1&#45;&gt;Node2 -->
<g id="edge1_Node000001_Node000002" class="edge">
<title>Node1&#45;&gt;Node2</title>
<g id="a_edge1_Node000001_Node000002"><a xlink:title=" ">
<path fill="none" stroke="#63b8ff" d="M243.63,-157.42C230.71,-182.79 204.25,-227.32 168,-250.5 160.17,-255.5 151.17,-259.14 142.05,-261.77"/>
<polygon fill="#63b8ff" stroke="#63b8ff" points="246.92,-158.65 248.19,-148.13 240.64,-155.57 246.92,-158.65"/>
</a>
</g>
</g>
<!-- Node3 -->
<g id="Node000003" class="node">
<title>Node3</title>
<g id="a_Node000003"><a xlink:href="classECS.html#a9e8a8388bce60d993a5ef04fd42dc0f0" target="_top" xlink:title="Adds delta time to the ECS time.">
<polygon fill="white" stroke="#666666" points="126,-241 42,-241 42,-222 126,-222 126,-241"/>
<text text-anchor="middle" x="84" y="-229" font-family="Helvetica,sans-Serif" font-size="10.00">ECS::addTime</text>
</a>
</g>
</g>
<!-- Node1&#45;&gt;Node3 -->
<g id="edge2_Node000001_Node000003" class="edge">
<title>Node1&#45;&gt;Node3</title>
<g id="a_edge2_Node000001_Node000003"><a xlink:title=" ">
<path fill="none" stroke="#63b8ff" d="M238.02,-155.73C222.5,-173.04 196.26,-199.16 168,-213.5 155.12,-220.04 139.93,-224.21 126.1,-226.87"/>
<polygon fill="#63b8ff" stroke="#63b8ff" points="240.81,-157.87 244.74,-148.03 235.53,-153.27 240.81,-157.87"/>
</a>
</g>
</g>
<!-- Node4 -->
<g id="Node000004" class="node">
<title>Node4</title>
<g id="a_Node000004"><a xlink:href="classECS.html#aaae60c88af59dd7af9d86200eb522bbc" target="_top" xlink:title="Retrieves a mutable pointer to a component.">
<polygon fill="white" stroke="#666666" points="140.5,-204 27.5,-204 27.5,-185 140.5,-185 140.5,-204"/>
<text text-anchor="middle" x="84" y="-192" font-family="Helvetica,sans-Serif" font-size="10.00">ECS::getComponent</text>
</a>
</g>
</g>
<!-- Node1&#45;&gt;Node4 -->
<g id="edge3_Node000001_Node000004" class="edge">
<title>Node1&#45;&gt;Node4</title>
<g id="a_edge3_Node000001_Node000004"><a xlink:title=" ">
<path fill="none" stroke="#63b8ff" d="M224.74,-152.76C208.53,-160.63 187.48,-170.08 168,-176.5 158.2,-179.73 147.55,-182.54 137.25,-184.91"/>
<polygon fill="#63b8ff" stroke="#63b8ff" points="226.74,-155.67 234.15,-148.1 223.64,-149.4 226.74,-155.67"/>
</a>
</g>
</g>
<!-- Node5 -->
<g id="Node000005" class="node">
<title>Node5</title>
<g id="a_Node000005"><a xlink:href="classECS.html#a358206e15202fccfa73017c47af07079" target="_top" xlink:title="Retrieves a read&#45;only pointer to a component.">
<polygon fill="white" stroke="#666666" points="154.5,-167 13.5,-167 13.5,-148 154.5,-148 154.5,-167"/>
<text text-anchor="middle" x="84" y="-155" font-family="Helvetica,sans-Serif" font-size="10.00">ECS::getConstComponent</text>
</a>
</g>
</g>
<!-- Node1&#45;&gt;Node5 -->
<g id="edge4_Node000001_Node000005" class="edge">
<title>Node1&#45;&gt;Node5</title>
<g id="a_edge4_Node000001_Node000005"><a xlink:title=" ">
<path fill="none" stroke="#63b8ff" d="M193.35,-145.21C180.88,-146.62 167.62,-148.13 154.81,-149.58"/>
<polygon fill="#63b8ff" stroke="#63b8ff" points="194.06,-148.65 203.6,-144.05 193.27,-141.7 194.06,-148.65"/>
</a>
</g>
</g>
<!-- Node6 -->
<g id="Node000006" class="node">
<title>Node6</title>
<g id="a_Node000006"><a xlink:href="classECS.html#a8d931ce389d47888768e1a5092bde26b" target="_top" xlink:title="Retrieves entities that have all specified components.">
<polygon fill="white" stroke="#666666" points="168,-130 0,-130 0,-111 168,-111 168,-130"/>
<text text-anchor="middle" x="84" y="-118" font-family="Helvetica,sans-Serif" font-size="10.00">ECS::getEntitiesByComponents</text>
</a>
</g>
</g>
<!-- Node1&#45;&gt;Node6 -->
<g id="edge5_Node000001_Node000006" class="edge">
<title>Node1&#45;&gt;Node6</title>
<g id="a_edge5_Node000001_Node000006"><a xlink:title=" ">
<path fill="none" stroke="#63b8ff" d="M193.47,-132.16C185.31,-131.28 176.81,-130.37 168.31,-129.45"/>
<polygon fill="#63b8ff" stroke="#63b8ff" points="193.29,-135.66 203.6,-133.25 194.03,-128.7 193.29,-135.66"/>
</a>
</g>
</g>
<!-- Node7 -->
<g id="Node000007" class="node">
<title>Node7</title>
<g id="a_Node000007"><a xlink:href="classECS.html#a33c16853296e9784dfb558f35dffbd72" target="_top" xlink:title="Checks if an entity has a specific component.">
<polygon fill="white" stroke="#666666" points="141.5,-93 26.5,-93 26.5,-74 141.5,-74 141.5,-93"/>
<text text-anchor="middle" x="84" y="-81" font-family="Helvetica,sans-Serif" font-size="10.00">ECS::hasComponent</text>
</a>
</g>
</g>
<!-- Node1&#45;&gt;Node7 -->
<g id="edge6_Node000001_Node000007" class="edge">
<title>Node1&#45;&gt;Node7</title>
<g id="a_edge6_Node000001_Node000007"><a xlink:title=" ">
<path fill="none" stroke="#63b8ff" d="M223.36,-124.56C207.29,-117.27 186.84,-108.62 168,-102.5 156.89,-98.89 144.74,-95.7 133.24,-93.02"/>
<polygon fill="#63b8ff" stroke="#63b8ff" points="222.19,-127.88 232.74,-128.89 225.12,-121.53 222.19,-127.88"/>
</a>
</g>
</g>
<!-- Node8 -->
<g id="Node000008" class="node">
<title>Node8</title>
<g id="a_Node000008"><a xlink:href="classECS.html#aa790d7ea384b5aad8a2dbe0d2cee1661" target="_top" xlink:title="Removes a specific component from an entity.">
<polygon fill="white" stroke="#666666" points="140.5,-56 27.5,-56 27.5,-37 140.5,-37 140.5,-56"/>
<text text-anchor="middle" x="84" y="-44" font-family="Helvetica,sans-Serif" font-size="10.00">ECS::killComponent</text>
</a>
</g>
</g>
<!-- Node1&#45;&gt;Node8 -->
<g id="edge7_Node000001_Node000008" class="edge">
<title>Node1&#45;&gt;Node8</title>
<g id="a_edge7_Node000001_Node000008"><a xlink:title=" ">
<path fill="none" stroke="#63b8ff" d="M237.39,-121.27C221.71,-104.48 195.65,-79.5 168,-65.5 159.56,-61.23 150.15,-57.9 140.79,-55.32"/>
<polygon fill="#63b8ff" stroke="#63b8ff" points="234.9,-123.72 244.22,-128.76 240.07,-119.01 234.9,-123.72"/>
</a>
</g>
</g>
<!-- Node9 -->
<g id="Node000009" class="node">
<title>Node9</title>
<g id="a_Node000009"><a xlink:href="classECS.html#a0d360a43bc140d37953297708afb8b86" target="_top" xlink:title="Verifies and initializes storage for a component type if needed.">
<polygon fill="white" stroke="#666666" points="165.5,-19 2.5,-19 2.5,0 165.5,0 165.5,-19"/>
<text text-anchor="middle" x="84" y="-7" font-family="Helvetica,sans-Serif" font-size="10.00">ECS::verifyComponentStorage</text>
</a>
</g>
</g>
<!-- Node1&#45;&gt;Node9 -->
<g id="edge8_Node000001_Node000009" class="edge">
<title>Node1&#45;&gt;Node9</title>
<g id="a_edge8_Node000001_Node000009"><a xlink:title=" ">
<path fill="none" stroke="#63b8ff" d="M243.3,-119.6C230.17,-94.69 203.63,-51.36 168,-28.5 161.9,-24.59 155.1,-21.48 148.08,-19.01"/>
<polygon fill="#63b8ff" stroke="#63b8ff" points="240.3,-121.42 247.96,-128.75 246.54,-118.25 240.3,-121.42"/>
</a>
</g>
</g>
</g>
</svg>
