<?xml version="1.0" encoding="UTF-8" standalone="no"?>
<!DOCTYPE svg PUBLIC "-//W3C//DTD SVG 1.1//EN"
 "http://www.w3.org/Graphics/SVG/1.1/DTD/svg11.dtd">
<!-- Generated by graphviz version 2.43.0 (0)
 -->
<!-- Title: include/engine/ecs/ecs.hpp Pages: 1 -->
<!--zoomable 170 -->

<svg id="main" version="1.1" xmlns="http://www.w3.org/2000/svg" xmlns:xlink="http://www.w3.org/1999/xlink" xml:space="preserve" onload="init(evt)">
<style type="text/css"><![CDATA[
.node, .edge {opacity: 0.7;}
.node.selected, .edge.selected {opacity: 1;}
.edge:hover path { stroke: red; }
.edge:hover polygon { stroke: red; fill: red; }
]]></style>

<defs>
  <circle id="rim" cx="0" cy="0" r="7"/>
  <circle id="rim2" cx="0" cy="0" r="3.5"/>
  <g id="zoomPlus">
    <use xlink:href="#rim" fill="#404040"><set attributeName="fill" to="#808080" begin="zoomplus.mouseover" end="zoomplus.mouseout"/></use>
    <path d="M-4,0h8M0,-4v8" fill="none" stroke="white" stroke-width="1.5" pointer-events="none"/>
  </g>
  <g id="zoomMin">
    <use xlink:href="#rim" fill="#404040"><set attributeName="fill" to="#808080" begin="zoomminus.mouseover" end="zoomminus.mouseout"/></use>
    <path d="M-4,0h8" fill="none" stroke="white" stroke-width="1.5" pointer-events="none"/>
  </g>
  <g id="arrowUp" transform="translate(30 24)">
    <use xlink:href="#rim"/>
    <path pointer-events="none" fill="none" stroke="white" stroke-width="1.5" d="M0,-3.0v7 M-2.5,-0.5L0,-3.0L2.5,-0.5"/>
  </g>
  <g id="arrowRight" transform="rotate(90) translate(36 -43)">
    <use xlink:href="#rim"/>
    <path pointer-events="none" fill="none" stroke="white" stroke-width="1.5" d="M0,-3.0v7 M-2.5,-0.5L0,-3.0L2.5,-0.5"/>
  </g>
  <g id="arrowDown" transform="rotate(180) translate(-30 -48)">
    <use xlink:href="#rim"/>
    <path pointer-events="none" fill="none" stroke="white" stroke-width="1.5" d="M0,-3.0v7 M-2.5,-0.5L0,-3.0L2.5,-0.5"/>
  </g>
  <g id="arrowLeft" transform="rotate(270) translate(-36 17)">
    <use xlink:href="#rim"/>
    <path pointer-events="none" fill="none" stroke="white" stroke-width="1.5" d="M0,-3.0v7 M-2.5,-0.5L0,-3.0L2.5,-0.5"/>
  </g>
  <g id="resetDef">
    <use xlink:href="#rim2" fill="#404040"><set attributeName="fill" to="#808080" begin="reset.mouseover" end="reset.mouseout"/></use>
  </g>
</defs>
<script type="application/ecmascript">
var viewWidth = 1643;
var viewHeight = 170;
var sectionId = 'dynsection-1';
</script>
<script type="application/ecmascript" xlink:href="svg.min.js"/>
<svg id="graph" class="graph">
<g id="viewport">
<title>include/engine/ecs/ecs.hpp</title>
<!-- Node1 -->
<g id="Node000001" class="node">
<title>Node1</title>
<g id="a_Node000001"><a xlink:title=" ">
<polygon fill="#999999" stroke="#666666" points="975,-162 868,-162 868,-132 975,-132 975,-162"/>
<text text-anchor="start" x="876" y="-150" font-family="Helvetica,sans-Serif" font-size="10.00">include/engine/ecs</text>
<text text-anchor="middle" x="921.5" y="-139" font-family="Helvetica,sans-Serif" font-size="10.00">/ecs.hpp</text>
</a>
</g>
</g>
<!-- Node2 -->
<g id="Node000002" class="node">
<title>Node2</title>
<g id="a_Node000002"><a xlink:href="CollisionSystem_8hpp.html" target="_top" xlink:title=" ">
<polygon fill="white" stroke="#666666" points="1634.5,-96 1502.5,-96 1502.5,-66 1634.5,-66 1634.5,-96"/>
<text text-anchor="start" x="1510.5" y="-84" font-family="Helvetica,sans-Serif" font-size="10.00">include/engine/systems</text>
<text text-anchor="middle" x="1568.5" y="-73" font-family="Helvetica,sans-Serif" font-size="10.00">/CollisionSystem.hpp</text>
</a>
</g>
</g>
<!-- Node1&#45;&gt;Node2 -->
<g id="edge1_Node000001_Node000002" class="edge">
<title>Node1&#45;&gt;Node2</title>
<g id="a_edge1_Node000001_Node000002"><a xlink:title=" ">
<path fill="none" stroke="#63b8ff" d="M985.53,-142.44C1091.52,-136.1 1309.98,-121.09 1493.5,-96 1496.39,-95.61 1499.33,-95.18 1502.3,-94.72"/>
<polygon fill="#63b8ff" stroke="#63b8ff" points="985.09,-138.96 975.32,-143.05 985.51,-145.95 985.09,-138.96"/>
</a>
</g>
</g>
<!-- Node3 -->
<g id="Node000003" class="node">
<title>Node3</title>
<g id="a_Node000003"><a xlink:href="client_2main_8cpp.html" target="_top" xlink:title=" ">
<polygon fill="white" stroke="#666666" points="969,-24.5 860,-24.5 860,-5.5 969,-5.5 969,-24.5"/>
<text text-anchor="middle" x="914.5" y="-12.5" font-family="Helvetica,sans-Serif" font-size="10.00">src/client/main.cpp</text>
</a>
</g>
</g>
<!-- Node1&#45;&gt;Node3 -->
<g id="edge31_Node000001_Node000003" class="edge">
<title>Node1&#45;&gt;Node3</title>
<g id="a_edge31_Node000001_Node000003"><a xlink:title=" ">
<path fill="none" stroke="#63b8ff" d="M905.6,-123.36C900.72,-115.13 895.98,-105.51 893.5,-96 886.76,-70.16 900.9,-39.64 909.14,-24.88"/>
<polygon fill="#63b8ff" stroke="#63b8ff" points="902.75,-125.4 911.06,-131.97 908.66,-121.65 902.75,-125.4"/>
</a>
</g>
</g>
<!-- Node5 -->
<g id="Node000005" class="node">
<title>Node5</title>
<g id="a_Node000005"><a xlink:href="systems_2EntityFactory_8hpp.html" target="_top" xlink:title=" ">
<polygon fill="white" stroke="#666666" points="325.5,-96 193.5,-96 193.5,-66 325.5,-66 325.5,-96"/>
<text text-anchor="start" x="201.5" y="-84" font-family="Helvetica,sans-Serif" font-size="10.00">include/engine/systems</text>
<text text-anchor="middle" x="259.5" y="-73" font-family="Helvetica,sans-Serif" font-size="10.00">/EntityFactory.hpp</text>
</a>
</g>
</g>
<!-- Node1&#45;&gt;Node5 -->
<g id="edge4_Node000001_Node000005" class="edge">
<title>Node1&#45;&gt;Node5</title>
<g id="a_edge4_Node000001_Node000005"><a xlink:title=" ">
<path fill="none" stroke="#63b8ff" d="M857.65,-139.83C731.91,-127.67 453.35,-100.74 325.71,-88.4"/>
<polygon fill="#63b8ff" stroke="#63b8ff" points="857.6,-143.34 867.89,-140.82 858.27,-136.37 857.6,-143.34"/>
</a>
</g>
</g>
<!-- Node8 -->
<g id="Node000008" class="node">
<title>Node8</title>
<g id="a_Node000008"><a xlink:href="InputSystem_8hpp.html" target="_top" xlink:title=" ">
<polygon fill="white" stroke="#666666" points="696.5,-96 564.5,-96 564.5,-66 696.5,-66 696.5,-96"/>
<text text-anchor="start" x="572.5" y="-84" font-family="Helvetica,sans-Serif" font-size="10.00">include/engine/systems</text>
<text text-anchor="middle" x="630.5" y="-73" font-family="Helvetica,sans-Serif" font-size="10.00">/InputSystem.hpp</text>
</a>
</g>
</g>
<!-- Node1&#45;&gt;Node8 -->
<g id="edge8_Node000001_Node000008" class="edge">
<title>Node1&#45;&gt;Node8</title>
<g id="a_edge8_Node000001_Node000008"><a xlink:title=" ">
<path fill="none" stroke="#63b8ff" d="M857.72,-131.97C809.23,-121.31 742.8,-106.7 694.3,-96.03"/>
<polygon fill="#63b8ff" stroke="#63b8ff" points="857.27,-135.46 867.79,-134.19 858.77,-128.62 857.27,-135.46"/>
</a>
</g>
</g>
<!-- Node12 -->
<g id="Node000012" class="node">
<title>Node12</title>
<g id="a_Node000012"><a xlink:href="MissileSystem_8hpp.html" target="_top" xlink:title=" ">
<polygon fill="white" stroke="#666666" points="546.5,-96 414.5,-96 414.5,-66 546.5,-66 546.5,-96"/>
<text text-anchor="start" x="422.5" y="-84" font-family="Helvetica,sans-Serif" font-size="10.00">include/engine/systems</text>
<text text-anchor="middle" x="480.5" y="-73" font-family="Helvetica,sans-Serif" font-size="10.00">/MissileSystem.hpp</text>
</a>
</g>
</g>
<!-- Node1&#45;&gt;Node12 -->
<g id="edge13_Node000001_Node000012" class="edge">
<title>Node1&#45;&gt;Node12</title>
<g id="a_edge13_Node000001_Node000012"><a xlink:title=" ">
<path fill="none" stroke="#63b8ff" d="M857.75,-138.25C784.62,-129.13 661.17,-113.07 555.5,-96 552.62,-95.54 549.69,-95.05 546.72,-94.54"/>
<polygon fill="#63b8ff" stroke="#63b8ff" points="857.38,-141.73 867.73,-139.49 858.24,-134.78 857.38,-141.73"/>
</a>
</g>
</g>
<!-- Node13 -->
<g id="Node000013" class="node">
<title>Node13</title>
<g id="a_Node000013"><a xlink:href="MovementSystem_8hpp.html" target="_top" xlink:title=" ">
<polygon fill="white" stroke="#666666" points="846.5,-96 714.5,-96 714.5,-66 846.5,-66 846.5,-96"/>
<text text-anchor="start" x="722.5" y="-84" font-family="Helvetica,sans-Serif" font-size="10.00">include/engine/systems</text>
<text text-anchor="middle" x="780.5" y="-73" font-family="Helvetica,sans-Serif" font-size="10.00">/MovementSystem.hpp</text>
</a>
</g>
</g>
<!-- Node1&#45;&gt;Node13 -->
<g id="edge16_Node000001_Node000013" class="edge">
<title>Node1&#45;&gt;Node13</title>
<g id="a_edge16_Node000001_Node000013"><a xlink:title=" ">
<path fill="none" stroke="#63b8ff" d="M881.37,-127.78C859.14,-117.69 831.93,-105.34 811.37,-96.01"/>
<polygon fill="#63b8ff" stroke="#63b8ff" points="880,-131.01 890.56,-131.95 882.9,-124.63 880,-131.01"/>
</a>
</g>
</g>
<!-- Node15 -->
<g id="Node000015" class="node">
<title>Node15</title>
<g id="a_Node000015"><a xlink:href="PowerUpSystem_8hpp.html" target="_top" xlink:title=" ">
<polygon fill="white" stroke="#666666" points="1034.5,-96 902.5,-96 902.5,-66 1034.5,-66 1034.5,-96"/>
<text text-anchor="start" x="910.5" y="-84" font-family="Helvetica,sans-Serif" font-size="10.00">include/engine/systems</text>
<text text-anchor="middle" x="968.5" y="-73" font-family="Helvetica,sans-Serif" font-size="10.00">/PowerUpSystem.hpp</text>
</a>
</g>
</g>
<!-- Node1&#45;&gt;Node15 -->
<g id="edge19_Node000001_Node000015" class="edge">
<title>Node1&#45;&gt;Node15</title>
<g id="a_edge19_Node000001_Node000015"><a xlink:title=" ">
<path fill="none" stroke="#63b8ff" d="M938,-123.53C944.69,-114.43 952.2,-104.19 958.1,-96.16"/>
<polygon fill="#63b8ff" stroke="#63b8ff" points="935.03,-121.66 931.93,-131.8 940.67,-125.81 935.03,-121.66"/>
</a>
</g>
</g>
<!-- Node17 -->
<g id="Node000017" class="node">
<title>Node17</title>
<g id="a_Node000017"><a xlink:href="RenderSystem_8hpp.html" target="_top" xlink:title=" ">
<polygon fill="white" stroke="#666666" points="1184.5,-96 1052.5,-96 1052.5,-66 1184.5,-66 1184.5,-96"/>
<text text-anchor="start" x="1060.5" y="-84" font-family="Helvetica,sans-Serif" font-size="10.00">include/engine/systems</text>
<text text-anchor="middle" x="1118.5" y="-73" font-family="Helvetica,sans-Serif" font-size="10.00">/RenderSystem.hpp</text>
</a>
</g>
</g>
<!-- Node1&#45;&gt;Node17 -->
<g id="edge22_Node000001_Node000017" class="edge">
<title>Node1&#45;&gt;Node17</title>
<g id="a_edge22_Node000001_Node000017"><a xlink:title=" ">
<path fill="none" stroke="#63b8ff" d="M974.27,-128.86C1005.9,-118.58 1045.62,-105.68 1075.37,-96.01"/>
<polygon fill="#63b8ff" stroke="#63b8ff" points="973.16,-125.54 964.73,-131.95 975.32,-132.19 973.16,-125.54"/>
</a>
</g>
</g>
<!-- Node19 -->
<g id="Node000019" class="node">
<title>Node19</title>
<g id="a_Node000019"><a xlink:href="systems_2StageFactory_8hpp.html" target="_top" xlink:title=" ">
<polygon fill="white" stroke="#666666" points="1334.5,-96 1202.5,-96 1202.5,-66 1334.5,-66 1334.5,-96"/>
<text text-anchor="start" x="1210.5" y="-84" font-family="Helvetica,sans-Serif" font-size="10.00">include/engine/systems</text>
<text text-anchor="middle" x="1268.5" y="-73" font-family="Helvetica,sans-Serif" font-size="10.00">/StageFactory.hpp</text>
</a>
</g>
</g>
<!-- Node1&#45;&gt;Node19 -->
<g id="edge25_Node000001_Node000019" class="edge">
<title>Node1&#45;&gt;Node19</title>
<g id="a_edge25_Node000001_Node000019"><a xlink:title=" ">
<path fill="none" stroke="#63b8ff" d="M985.16,-134.35C1040.29,-124.25 1122.17,-109.21 1193.5,-96 1196.37,-95.47 1199.29,-94.93 1202.25,-94.38"/>
<polygon fill="#63b8ff" stroke="#63b8ff" points="984.39,-130.93 975.18,-136.18 985.65,-137.82 984.39,-130.93"/>
</a>
</g>
</g>
<!-- Node21 -->
<g id="Node000021" class="node">
<title>Node21</title>
<g id="a_Node000021"><a xlink:href="WaveSystem_8hpp.html" target="_top" xlink:title=" ">
<polygon fill="white" stroke="#666666" points="1484.5,-96 1352.5,-96 1352.5,-66 1484.5,-66 1484.5,-96"/>
<text text-anchor="start" x="1360.5" y="-84" font-family="Helvetica,sans-Serif" font-size="10.00">include/engine/systems</text>
<text text-anchor="middle" x="1418.5" y="-73" font-family="Helvetica,sans-Serif" font-size="10.00">/WaveSystem.hpp</text>
</a>
</g>
</g>
<!-- Node1&#45;&gt;Node21 -->
<g id="edge28_Node000001_Node000021" class="edge">
<title>Node1&#45;&gt;Node21</title>
<g id="a_edge28_Node000001_Node000021"><a xlink:title=" ">
<path fill="none" stroke="#63b8ff" d="M985.29,-139.78C1068.08,-131.4 1216.95,-115.29 1343.5,-96 1346.38,-95.56 1349.32,-95.09 1352.29,-94.61"/>
<polygon fill="#63b8ff" stroke="#63b8ff" points="984.88,-136.3 975.28,-140.79 985.58,-143.27 984.88,-136.3"/>
</a>
</g>
</g>
<!-- Node2&#45;&gt;Node3 -->
<g id="edge2_Node000002_Node000003" class="edge">
<title>Node2&#45;&gt;Node3</title>
<g id="a_edge2_Node000002_Node000003"><a xlink:title=" ">
<path fill="none" stroke="#63b8ff" d="M1492.37,-65.96C1264.16,-37.62 1202.4,-62.14 978.5,-30 968.93,-28.63 958.66,-26.62 949.21,-24.56"/>
<polygon fill="#63b8ff" stroke="#63b8ff" points="1491.95,-69.44 1502.31,-67.22 1492.83,-62.49 1491.95,-69.44"/>
</a>
</g>
</g>
<!-- Node4 -->
<g id="Node000004" class="node">
<title>Node4</title>
<g id="a_Node000004"><a xlink:href="CollisionSystem_8cpp.html" target="_top" xlink:title=" ">
<polygon fill="white" stroke="#666666" points="1632,-30 1513,-30 1513,0 1632,0 1632,-30"/>
<text text-anchor="start" x="1521" y="-18" font-family="Helvetica,sans-Serif" font-size="10.00">src/engine/systems</text>
<text text-anchor="middle" x="1572.5" y="-7" font-family="Helvetica,sans-Serif" font-size="10.00">/CollisionSystem.cpp</text>
</a>
</g>
</g>
<!-- Node2&#45;&gt;Node4 -->
<g id="edge3_Node000002_Node000004" class="edge">
<title>Node2&#45;&gt;Node4</title>
<g id="a_edge3_Node000002_Node000004"><a xlink:title=" ">
<path fill="none" stroke="#63b8ff" d="M1570.03,-55.54C1570.56,-46.96 1571.15,-37.61 1571.61,-30.16"/>
<polygon fill="#63b8ff" stroke="#63b8ff" points="1566.52,-55.6 1569.39,-65.8 1573.5,-56.03 1566.52,-55.6"/>
</a>
</g>
</g>
<!-- Node5&#45;&gt;Node3 -->
<g id="edge5_Node000005_Node000003" class="edge">
<title>Node5&#45;&gt;Node3</title>
<g id="a_edge5_Node000005_Node000003"><a xlink:title=" ">
<path fill="none" stroke="#63b8ff" d="M335.77,-72.47C358.22,-70.31 382.84,-68 405.5,-66 603.15,-48.53 654.25,-59.27 850.5,-30 859.95,-28.59 870.09,-26.6 879.45,-24.56"/>
<polygon fill="#63b8ff" stroke="#63b8ff" points="335.24,-69.01 325.62,-73.45 335.91,-75.97 335.24,-69.01"/>
</a>
</g>
</g>
<!-- Node6 -->
<g id="Node000006" class="node">
<title>Node6</title>
<g id="a_Node000006"><a xlink:href="systems_2EntityFactory_8cpp.html" target="_top" xlink:title=" ">
<polygon fill="white" stroke="#666666" points="111,-30 0,-30 0,0 111,0 111,-30"/>
<text text-anchor="start" x="8" y="-18" font-family="Helvetica,sans-Serif" font-size="10.00">src/engine/systems</text>
<text text-anchor="middle" x="55.5" y="-7" font-family="Helvetica,sans-Serif" font-size="10.00">/EntityFactory.cpp</text>
</a>
</g>
</g>
<!-- Node5&#45;&gt;Node6 -->
<g id="edge6_Node000005_Node000006" class="edge">
<title>Node5&#45;&gt;Node6</title>
<g id="a_edge6_Node000005_Node000006"><a xlink:title=" ">
<path fill="none" stroke="#63b8ff" d="M204.85,-62.86C172.1,-52.58 130.97,-39.68 100.16,-30.01"/>
<polygon fill="#63b8ff" stroke="#63b8ff" points="204.14,-66.3 214.73,-65.95 206.24,-59.62 204.14,-66.3"/>
</a>
</g>
</g>
<!-- Node7 -->
<g id="Node000007" class="node">
<title>Node7</title>
<g id="a_Node000007"><a xlink:href="MissileSystem_8cpp.html" target="_top" xlink:title=" ">
<polygon fill="white" stroke="#666666" points="240,-30 129,-30 129,0 240,0 240,-30"/>
<text text-anchor="start" x="137" y="-18" font-family="Helvetica,sans-Serif" font-size="10.00">src/engine/systems</text>
<text text-anchor="middle" x="184.5" y="-7" font-family="Helvetica,sans-Serif" font-size="10.00">/MissileSystem.cpp</text>
</a>
</g>
</g>
<!-- Node5&#45;&gt;Node7 -->
<g id="edge7_Node000005_Node000007" class="edge">
<title>Node5&#45;&gt;Node7</title>
<g id="a_edge7_Node000005_Node000007"><a xlink:title=" ">
<path fill="none" stroke="#63b8ff" d="M235.13,-59.2C223.99,-49.7 211.09,-38.69 201.1,-30.16"/>
<polygon fill="#63b8ff" stroke="#63b8ff" points="232.98,-61.97 242.86,-65.8 237.52,-56.64 232.98,-61.97"/>
</a>
</g>
</g>
<!-- Node8&#45;&gt;Node3 -->
<g id="edge10_Node000008_Node000003" class="edge">
<title>Node8&#45;&gt;Node3</title>
<g id="a_edge10_Node000008_Node000003"><a xlink:title=" ">
<path fill="none" stroke="#63b8ff" d="M702.6,-63.75C758.03,-51.26 832.41,-34.5 876.7,-24.52"/>
<polygon fill="#63b8ff" stroke="#63b8ff" points="701.81,-60.34 692.83,-65.95 703.35,-67.17 701.81,-60.34"/>
</a>
</g>
</g>
<!-- Node9 -->
<g id="Node000009" class="node">
<title>Node9</title>
<g id="a_Node000009"><a xlink:href="include_2engine_2core_2GameEngine_8hpp.html" target="_top" xlink:title=" ">
<polygon fill="white" stroke="#666666" points="370.5,-30 258.5,-30 258.5,0 370.5,0 370.5,-30"/>
<text text-anchor="start" x="266.5" y="-18" font-family="Helvetica,sans-Serif" font-size="10.00">include/engine/core</text>
<text text-anchor="middle" x="314.5" y="-7" font-family="Helvetica,sans-Serif" font-size="10.00">/GameEngine.hpp</text>
</a>
</g>
</g>
<!-- Node8&#45;&gt;Node9 -->
<g id="edge9_Node000008_Node000009" class="edge">
<title>Node8&#45;&gt;Node9</title>
<g id="a_edge9_Node000008_Node000009"><a xlink:title=" ">
<path fill="none" stroke="#63b8ff" d="M554.34,-65.15C504.55,-55.36 438.11,-42.15 379.5,-30 376.56,-29.39 373.55,-28.76 370.51,-28.12"/>
<polygon fill="#63b8ff" stroke="#63b8ff" points="553.9,-68.63 564.38,-67.12 555.25,-61.76 553.9,-68.63"/>
</a>
</g>
</g>
<!-- Node10 -->
<g id="Node000010" class="node">
<title>Node10</title>
<g id="a_Node000010"><a xlink:href="src_2engine_2core_2GameEngine_8hpp.html" target="_top" xlink:title=" ">
<polygon fill="white" stroke="#666666" points="566,-24.5 389,-24.5 389,-5.5 566,-5.5 566,-24.5"/>
<text text-anchor="middle" x="477.5" y="-12.5" font-family="Helvetica,sans-Serif" font-size="10.00">src/engine/core/GameEngine.hpp</text>
</a>
</g>
</g>
<!-- Node8&#45;&gt;Node10 -->
<g id="edge11_Node000008_Node000010" class="edge">
<title>Node8&#45;&gt;Node10</title>
<g id="a_edge11_Node000008_Node000010"><a xlink:title=" ">
<path fill="none" stroke="#63b8ff" d="M587.33,-61.94C558.01,-49.68 520.59,-34.02 497.86,-24.52"/>
<polygon fill="#63b8ff" stroke="#63b8ff" points="586.35,-65.32 596.92,-65.95 589.05,-58.87 586.35,-65.32"/>
</a>
</g>
</g>
<!-- Node11 -->
<g id="Node000011" class="node">
<title>Node11</title>
<g id="a_Node000011"><a xlink:href="InputSystem_8cpp.html" target="_top" xlink:title=" ">
<polygon fill="white" stroke="#666666" points="695,-30 584,-30 584,0 695,0 695,-30"/>
<text text-anchor="start" x="592" y="-18" font-family="Helvetica,sans-Serif" font-size="10.00">src/engine/systems</text>
<text text-anchor="middle" x="639.5" y="-7" font-family="Helvetica,sans-Serif" font-size="10.00">/InputSystem.cpp</text>
</a>
</g>
</g>
<!-- Node8&#45;&gt;Node11 -->
<g id="edge12_Node000008_Node000011" class="edge">
<title>Node8&#45;&gt;Node11</title>
<g id="a_edge12_Node000008_Node000011"><a xlink:title=" ">
<path fill="none" stroke="#63b8ff" d="M633.9,-55.83C635.12,-47.17 636.45,-37.7 637.51,-30.16"/>
<polygon fill="#63b8ff" stroke="#63b8ff" points="630.42,-55.41 632.5,-65.8 637.36,-56.38 630.42,-55.41"/>
</a>
</g>
</g>
<!-- Node12&#45;&gt;Node3 -->
<g id="edge14_Node000012_Node000003" class="edge">
<title>Node12&#45;&gt;Node3</title>
<g id="a_edge14_Node000012_Node000003"><a xlink:title=" ">
<path fill="none" stroke="#63b8ff" d="M556.73,-65.88C687.77,-46.16 723.46,-51.6 850.5,-30 859.58,-28.46 869.32,-26.49 878.4,-24.52"/>
<polygon fill="#63b8ff" stroke="#63b8ff" points="556.07,-62.44 546.71,-67.41 557.13,-69.36 556.07,-62.44"/>
</a>
</g>
</g>
<!-- Node12&#45;&gt;Node7 -->
<g id="edge15_Node000012_Node000007" class="edge">
<title>Node12&#45;&gt;Node7</title>
<g id="a_edge15_Node000012_Node000007"><a xlink:title=" ">
<path fill="none" stroke="#63b8ff" d="M405.48,-63.78C354.1,-52.67 287.05,-38.17 240.34,-28.07"/>
<polygon fill="#63b8ff" stroke="#63b8ff" points="405.03,-67.26 415.54,-65.95 406.51,-60.42 405.03,-67.26"/>
</a>
</g>
</g>
<!-- Node13&#45;&gt;Node3 -->
<g id="edge17_Node000013_Node000003" class="edge">
<title>Node13&#45;&gt;Node3</title>
<g id="a_edge17_Node000013_Node000003"><a xlink:title=" ">
<path fill="none" stroke="#63b8ff" d="M818.98,-61.62C844.55,-49.41 876.94,-33.94 896.67,-24.52"/>
<polygon fill="#63b8ff" stroke="#63b8ff" points="817.42,-58.49 809.91,-65.95 820.44,-64.8 817.42,-58.49"/>
</a>
</g>
</g>
<!-- Node14 -->
<g id="Node000014" class="node">
<title>Node14</title>
<g id="a_Node000014"><a xlink:href="MovementSystem_8cpp.html" target="_top" xlink:title=" ">
<polygon fill="white" stroke="#666666" points="842,-30 713,-30 713,0 842,0 842,-30"/>
<text text-anchor="start" x="721" y="-18" font-family="Helvetica,sans-Serif" font-size="10.00">src/engine/systems</text>
<text text-anchor="middle" x="777.5" y="-7" font-family="Helvetica,sans-Serif" font-size="10.00">/MovementSystem.cpp</text>
</a>
</g>
</g>
<!-- Node13&#45;&gt;Node14 -->
<g id="edge18_Node000013_Node000014" class="edge">
<title>Node13&#45;&gt;Node14</title>
<g id="a_edge18_Node000013_Node000014"><a xlink:title=" ">
<path fill="none" stroke="#63b8ff" d="M779.35,-55.54C778.95,-46.96 778.51,-37.61 778.16,-30.16"/>
<polygon fill="#63b8ff" stroke="#63b8ff" points="775.87,-55.97 779.83,-65.8 782.86,-55.64 775.87,-55.97"/>
</a>
</g>
</g>
<!-- Node15&#45;&gt;Node3 -->
<g id="edge20_Node000015_Node000003" class="edge">
<title>Node15&#45;&gt;Node3</title>
<g id="a_edge20_Node000015_Node000003"><a xlink:title=" ">
<path fill="none" stroke="#63b8ff" d="M949.89,-57.94C940.3,-46.58 929.15,-33.36 921.96,-24.84"/>
<polygon fill="#63b8ff" stroke="#63b8ff" points="947.39,-60.41 956.52,-65.8 952.74,-55.9 947.39,-60.41"/>
</a>
</g>
</g>
<!-- Node16 -->
<g id="Node000016" class="node">
<title>Node16</title>
<g id="a_Node000016"><a xlink:href="PowerUpSystem_8cpp.html" target="_top" xlink:title=" ">
<polygon fill="white" stroke="#666666" points="1107.5,-30 987.5,-30 987.5,0 1107.5,0 1107.5,-30"/>
<text text-anchor="start" x="995.5" y="-18" font-family="Helvetica,sans-Serif" font-size="10.00">src/engine/systems</text>
<text text-anchor="middle" x="1047.5" y="-7" font-family="Helvetica,sans-Serif" font-size="10.00">/PowerUpSystem.cpp</text>
</a>
</g>
</g>
<!-- Node15&#45;&gt;Node16 -->
<g id="edge21_Node000015_Node000016" class="edge">
<title>Node15&#45;&gt;Node16</title>
<g id="a_edge21_Node000015_Node000016"><a xlink:title=" ">
<path fill="none" stroke="#63b8ff" d="M993.83,-59.48C1005.64,-49.91 1019.39,-38.77 1030.02,-30.16"/>
<polygon fill="#63b8ff" stroke="#63b8ff" points="991.6,-56.78 986.03,-65.8 996.01,-62.22 991.6,-56.78"/>
</a>
</g>
</g>
<!-- Node17&#45;&gt;Node3 -->
<g id="edge23_Node000017_Node000003" class="edge">
<title>Node17&#45;&gt;Node3</title>
<g id="a_edge23_Node000017_Node000003"><a xlink:title=" ">
<path fill="none" stroke="#63b8ff" d="M1063.97,-62.89C1024.47,-50.5 972.74,-34.27 941.65,-24.52"/>
<polygon fill="#63b8ff" stroke="#63b8ff" points="1063.14,-66.3 1073.73,-65.95 1065.24,-59.62 1063.14,-66.3"/>
</a>
</g>
</g>
<!-- Node18 -->
<g id="Node000018" class="node">
<title>Node18</title>
<g id="a_Node000018"><a xlink:href="RenderSystem_8cpp.html" target="_top" xlink:title=" ">
<polygon fill="white" stroke="#666666" points="1237,-30 1126,-30 1126,0 1237,0 1237,-30"/>
<text text-anchor="start" x="1134" y="-18" font-family="Helvetica,sans-Serif" font-size="10.00">src/engine/systems</text>
<text text-anchor="middle" x="1181.5" y="-7" font-family="Helvetica,sans-Serif" font-size="10.00">/RenderSystem.cpp</text>
</a>
</g>
</g>
<!-- Node17&#45;&gt;Node18 -->
<g id="edge24_Node000017_Node000018" class="edge">
<title>Node17&#45;&gt;Node18</title>
<g id="a_edge24_Node000017_Node000018"><a xlink:title=" ">
<path fill="none" stroke="#63b8ff" d="M1139.52,-58.65C1148.75,-49.27 1159.33,-38.53 1167.56,-30.16"/>
<polygon fill="#63b8ff" stroke="#63b8ff" points="1137,-56.21 1132.48,-65.8 1141.99,-61.13 1137,-56.21"/>
</a>
</g>
</g>
<!-- Node19&#45;&gt;Node3 -->
<g id="edge26_Node000019_Node000003" class="edge">
<title>Node19&#45;&gt;Node3</title>
<g id="a_edge26_Node000019_Node000003"><a xlink:title=" ">
<path fill="none" stroke="#63b8ff" d="M1192.14,-65.78C1096.4,-49.04 1070.47,-47.75 978.5,-30 969.9,-28.34 960.68,-26.41 952,-24.53"/>
<polygon fill="#63b8ff" stroke="#63b8ff" points="1191.8,-69.28 1202.26,-67.57 1193.02,-62.38 1191.8,-69.28"/>
</a>
</g>
</g>
<!-- Node20 -->
<g id="Node000020" class="node">
<title>Node20</title>
<g id="a_Node000020"><a xlink:href="systems_2StageFactory_8cpp.html" target="_top" xlink:title=" ">
<polygon fill="white" stroke="#666666" points="1366,-30 1255,-30 1255,0 1366,0 1366,-30"/>
<text text-anchor="start" x="1263" y="-18" font-family="Helvetica,sans-Serif" font-size="10.00">src/engine/systems</text>
<text text-anchor="middle" x="1310.5" y="-7" font-family="Helvetica,sans-Serif" font-size="10.00">/StageFactory.cpp</text>
</a>
</g>
</g>
<!-- Node19&#45;&gt;Node20 -->
<g id="edge27_Node000019_Node000020" class="edge">
<title>Node19&#45;&gt;Node20</title>
<g id="a_edge27_Node000019_Node000020"><a xlink:title=" ">
<path fill="none" stroke="#63b8ff" d="M1283.43,-57.24C1289.36,-48.21 1295.99,-38.11 1301.2,-30.16"/>
<polygon fill="#63b8ff" stroke="#63b8ff" points="1280.38,-55.52 1277.82,-65.8 1286.23,-59.36 1280.38,-55.52"/>
</a>
</g>
</g>
<!-- Node21&#45;&gt;Node3 -->
<g id="edge29_Node000021_Node000003" class="edge">
<title>Node21&#45;&gt;Node3</title>
<g id="a_edge29_Node000021_Node000003"><a xlink:title=" ">
<path fill="none" stroke="#63b8ff" d="M1341.99,-65.87C1180.32,-43.52 1136.21,-54.94 978.5,-30 969.18,-28.53 959.17,-26.54 949.9,-24.52"/>
<polygon fill="#63b8ff" stroke="#63b8ff" points="1341.91,-69.4 1352.3,-67.32 1342.88,-62.46 1341.91,-69.4"/>
</a>
</g>
</g>
<!-- Node22 -->
<g id="Node000022" class="node">
<title>Node22</title>
<g id="a_Node000022"><a xlink:href="WaveSystem_8cpp.html" target="_top" xlink:title=" ">
<polygon fill="white" stroke="#666666" points="1495,-30 1384,-30 1384,0 1495,0 1495,-30"/>
<text text-anchor="start" x="1392" y="-18" font-family="Helvetica,sans-Serif" font-size="10.00">src/engine/systems</text>
<text text-anchor="middle" x="1439.5" y="-7" font-family="Helvetica,sans-Serif" font-size="10.00">/WaveSystem.cpp</text>
</a>
</g>
</g>
<!-- Node21&#45;&gt;Node22 -->
<g id="edge30_Node000021_Node000022" class="edge">
<title>Node21&#45;&gt;Node22</title>
<g id="a_edge30_Node000021_Node000022"><a xlink:title=" ">
<path fill="none" stroke="#63b8ff" d="M1426.34,-56.11C1429.2,-47.38 1432.35,-37.78 1434.85,-30.16"/>
<polygon fill="#63b8ff" stroke="#63b8ff" points="1422.95,-55.2 1423.16,-65.8 1429.6,-57.39 1422.95,-55.2"/>
</a>
</g>
</g>
</g>
</svg>

<g id="navigator" transform="translate(0 0)" fill="#404254">
  <rect fill="#f2f5e9" fill-opacity="0.5" stroke="#606060" stroke-width=".5" x="0" y="0" width="60" height="60"/>
  <use id="zoomplus" xlink:href="#zoomPlus" x="17" y="9" onmousedown="handleZoom(evt,'in')"/>
  <use id="zoomminus" xlink:href="#zoomMin" x="42" y="9" onmousedown="handleZoom(evt,'out')"/>
  <use id="reset" xlink:href="#resetDef" x="30" y="36" onmousedown="handleReset()"/>
   <use id="arrowup" xlink:href="#arrowUp" x="0" y="0" onmousedown="handlePan(0,-1)"/>
  <use id="arrowright" xlink:href="#arrowRight" x="0" y="0" onmousedown="handlePan(1,0)"/>
  <use id="arrowdown" xlink:href="#arrowDown" x="0" y="0" onmousedown="handlePan(0,1)"/>
  <use id="arrowleft" xlink:href="#arrowLeft" x="0" y="0" onmousedown="handlePan(-1,0)"/>
</g>
<svg viewBox="0 0 15 15" width="100%" height="30px" preserveAspectRatio="xMaxYMin meet">
 <g id="arrow_out" transform="scale(0.3 0.3)">
  <a xlink:href="ecs_8hpp__dep__incl_org.svg" target="_base">
   <rect id="button" ry="5" rx="5" y="6" x="6" height="38" width="38"
        fill="#f2f5e9" fill-opacity="0.5" stroke="#606060" stroke-width="1.0"/>
   <path id="arrow"
     d="M 11.500037,31.436501 C 11.940474,20.09759 22.043105,11.32322 32.158766,21.979434 L 37.068811,17.246167 C 37.068811,17.246167 37.088388,32 37.088388,32 L 22.160133,31.978069 C 22.160133,31.978069 26.997745,27.140456 26.997745,27.140456 C 18.528582,18.264221 13.291696,25.230495 11.500037,31.436501 z"
     style="fill:#404040;"/>
  </a>
 </g>
</svg>

<style type='text/css'>
<![CDATA[
[data-mouse-over-selected='false'] { opacity: 0.7; }
[data-mouse-over-selected='true']  { opacity: 1.0; }
]]>
</style>
<script type="application/ecmascript"><![CDATA[
document.addEventListener('DOMContentLoaded', (event) => {
  highlightEdges();
  highlightAdjacentNodes();
});
]]></script>
</svg>
