<?xml version="1.0" encoding="UTF-8" standalone="no"?>
<!DOCTYPE svg PUBLIC "-//W3C//DTD SVG 1.1//EN"
 "http://www.w3.org/Graphics/SVG/1.1/DTD/svg11.dtd">
<!-- Generated by graphviz version 2.43.0 (0)
 -->
<!-- Title: newComponentTypeID Pages: 1 -->
<svg width="743pt" height="389pt"
 viewBox="0.00 0.00 743.00 388.66" xmlns="http://www.w3.org/2000/svg" xmlns:xlink="http://www.w3.org/1999/xlink">
<g id="graph0" class="graph" transform="scale(1 1) rotate(0) translate(4 384.66)">
<title>newComponentTypeID</title>
<!-- Node1 -->
<g id="Node000001" class="node">
<title>Node1</title>
<g id="a_Node000001"><a xlink:title="Generates a new unique ComponentTypeID.">
<polygon fill="#999999" stroke="#666666" points="735,-205 609,-205 609,-186 735,-186 735,-205"/>
<text text-anchor="middle" x="672" y="-193" font-family="Helvetica,sans-Serif" font-size="10.00">newComponentTypeID</text>
</a>
</g>
</g>
<!-- Node2 -->
<g id="Node000002" class="node">
<title>Node2</title>
<g id="a_Node000002"><a xlink:href="engine_2ecs_2ecs_8hpp.html#a5a868f82168f3b251aa7ca758686125c" target="_top" xlink:title="Retrieves the unique ID for a given component type.">
<polygon fill="white" stroke="#666666" points="573,-205 474,-205 474,-186 573,-186 573,-205"/>
<text text-anchor="middle" x="523.5" y="-193" font-family="Helvetica,sans-Serif" font-size="10.00">getComponentID</text>
</a>
</g>
</g>
<!-- Node1&#45;&gt;Node2 -->
<g id="edge1_Node000001_Node000002" class="edge">
<title>Node1&#45;&gt;Node2</title>
<g id="a_edge1_Node000001_Node000002"><a xlink:title=" ">
<path fill="none" stroke="#63b8ff" d="M598.8,-195.5C590.2,-195.5 581.57,-195.5 573.4,-195.5"/>
<polygon fill="#63b8ff" stroke="#63b8ff" points="598.87,-199 608.87,-195.5 598.87,-192 598.87,-199"/>
</a>
</g>
</g>
<!-- Node3 -->
<g id="Node000003" class="node">
<title>Node3</title>
<g id="a_Node000003"><a xlink:href="classServer.html#aac4110712ec347909be9bd4a5140ac4f" target="_top" xlink:title=" ">
<polygon fill="white" stroke="#666666" points="425.5,-354 319.5,-354 319.5,-335 425.5,-335 425.5,-354"/>
<text text-anchor="middle" x="372.5" y="-342" font-family="Helvetica,sans-Serif" font-size="10.00">Server::applyInput</text>
</a>
</g>
</g>
<!-- Node2&#45;&gt;Node3 -->
<g id="edge2_Node000002_Node000003" class="edge">
<title>Node2&#45;&gt;Node3</title>
<g id="a_edge2_Node000002_Node000003"><a xlink:title=" ">
<path fill="none" stroke="#63b8ff" d="M515.3,-214.79C503.57,-243.53 477.61,-297.32 438,-326.5 433.32,-329.95 428.01,-332.74 422.49,-334.99"/>
<polygon fill="#63b8ff" stroke="#63b8ff" points="518.7,-215.69 519.09,-205.11 512.19,-213.14 518.7,-215.69"/>
</a>
</g>
</g>
<!-- Node4 -->
<g id="Node000004" class="node">
<title>Node4</title>
<g id="a_Node000004"><a xlink:href="classServer.html#aeee363eaf9f494aa542f2e0ad1d7813b" target="_top" xlink:title=" ">
<polygon fill="white" stroke="#666666" points="271,-335 149,-335 149,-316 271,-316 271,-335"/>
<text text-anchor="middle" x="210" y="-323" font-family="Helvetica,sans-Serif" font-size="10.00">Server::processInputs</text>
</a>
</g>
</g>
<!-- Node2&#45;&gt;Node4 -->
<g id="edge9_Node000002_Node000004" class="edge">
<title>Node2&#45;&gt;Node4</title>
<g id="a_edge9_Node000002_Node000004"><a xlink:title=" ">
<path fill="none" stroke="#63b8ff" d="M519.42,-214.99C512.44,-251.71 491.65,-330.43 438,-363.5 368.78,-406.17 266.17,-356.99 226.99,-335.02"/>
<polygon fill="#63b8ff" stroke="#63b8ff" points="522.88,-215.49 521.16,-205.04 515.99,-214.28 522.88,-215.49"/>
</a>
</g>
</g>
<!-- Node5 -->
<g id="Node000005" class="node">
<title>Node5</title>
<g id="a_Node000005"><a xlink:href="classServer.html#af36f3a832531844b5f18d40c6db22cc9" target="_top" xlink:title=" ">
<polygon fill="white" stroke="#666666" points="261,-205 159,-205 159,-186 261,-186 261,-205"/>
<text text-anchor="middle" x="210" y="-193" font-family="Helvetica,sans-Serif" font-size="10.00">Server::broadcast</text>
</a>
</g>
</g>
<!-- Node2&#45;&gt;Node5 -->
<g id="edge4_Node000002_Node000005" class="edge">
<title>Node2&#45;&gt;Node5</title>
<g id="a_edge4_Node000002_Node000005"><a xlink:title=" ">
<path fill="none" stroke="#63b8ff" d="M463.63,-195.5C405.13,-195.5 316.37,-195.5 261.13,-195.5"/>
<polygon fill="#63b8ff" stroke="#63b8ff" points="463.83,-199 473.83,-195.5 463.83,-192 463.83,-199"/>
</a>
</g>
</g>
<!-- Node6 -->
<g id="Node000006" class="node">
<title>Node6</title>
<g id="a_Node000006"><a xlink:href="classSerializer.html#aecc21abd02f735d072a7f5ac997e6d4e" target="_top" xlink:title=" ">
<polygon fill="white" stroke="#666666" points="433.5,-130 311.5,-130 311.5,-111 433.5,-111 433.5,-130"/>
<text text-anchor="middle" x="372.5" y="-118" font-family="Helvetica,sans-Serif" font-size="10.00">Serializer::deserialize</text>
</a>
</g>
</g>
<!-- Node2&#45;&gt;Node6 -->
<g id="edge5_Node000002_Node000006" class="edge">
<title>Node2&#45;&gt;Node6</title>
<g id="a_edge5_Node000002_Node000006"><a xlink:title=" ">
<path fill="none" stroke="#63b8ff" d="M502.65,-179.4C486.19,-166.74 461.72,-149.46 438,-138.5 430.82,-135.18 422.91,-132.36 415.15,-130"/>
<polygon fill="#63b8ff" stroke="#63b8ff" points="500.89,-182.47 510.92,-185.89 505.21,-176.96 500.89,-182.47"/>
</a>
</g>
</g>
<!-- Node7 -->
<g id="Node000007" class="node">
<title>Node7</title>
<g id="a_Node000007"><a xlink:href="classServer.html#a167f3f27856b0e3c707f4f98c0bb75be" target="_top" xlink:title=" ">
<polygon fill="white" stroke="#666666" points="438,-317 307,-317 307,-298 438,-298 438,-317"/>
<text text-anchor="middle" x="372.5" y="-305" font-family="Helvetica,sans-Serif" font-size="10.00">Server::entityForClients</text>
</a>
</g>
</g>
<!-- Node2&#45;&gt;Node7 -->
<g id="edge6_Node000002_Node000007" class="edge">
<title>Node2&#45;&gt;Node7</title>
<g id="a_edge6_Node000002_Node000007"><a xlink:title=" ">
<path fill="none" stroke="#63b8ff" d="M511,-213.59C496.52,-234.89 469.67,-269.85 438,-289.5 432.47,-292.93 426.27,-295.72 419.96,-297.99"/>
<polygon fill="#63b8ff" stroke="#63b8ff" points="514,-215.4 516.59,-205.12 508.15,-211.54 514,-215.4"/>
</a>
</g>
</g>
<!-- Node8 -->
<g id="Node000008" class="node">
<title>Node8</title>
<g id="a_Node000008"><a xlink:href="NetworkProtocol_8hpp.html#a31decf49dac3ae6a95dd28cb3607e37e" target="_top" xlink:title=" ">
<polygon fill="white" stroke="#666666" points="411,-93 334,-93 334,-74 411,-74 411,-93"/>
<text text-anchor="middle" x="372.5" y="-81" font-family="Helvetica,sans-Serif" font-size="10.00">IsTickNewer</text>
</a>
</g>
</g>
<!-- Node2&#45;&gt;Node8 -->
<g id="edge8_Node000002_Node000008" class="edge">
<title>Node2&#45;&gt;Node8</title>
<g id="a_edge8_Node000002_Node000008"><a xlink:title=" ">
<path fill="none" stroke="#63b8ff" d="M511,-177.41C496.52,-156.11 469.67,-121.15 438,-101.5 429.9,-96.47 420.37,-92.82 411.16,-90.18"/>
<polygon fill="#63b8ff" stroke="#63b8ff" points="508.15,-179.46 516.59,-185.88 514,-175.6 508.15,-179.46"/>
</a>
</g>
</g>
<!-- Node9 -->
<g id="Node000009" class="node">
<title>Node9</title>
<g id="a_Node000009"><a xlink:href="classSafeQueue.html#ae51181f65378234bf3a0f66a86d4b33a" target="_top" xlink:title=" ">
<polygon fill="white" stroke="#666666" points="422,-167 323,-167 323,-148 422,-148 422,-167"/>
<text text-anchor="middle" x="372.5" y="-155" font-family="Helvetica,sans-Serif" font-size="10.00">SafeQueue::push</text>
</a>
</g>
</g>
<!-- Node2&#45;&gt;Node9 -->
<g id="edge10_Node000002_Node000009" class="edge">
<title>Node2&#45;&gt;Node9</title>
<g id="a_edge10_Node000002_Node000009"><a xlink:title=" ">
<path fill="none" stroke="#63b8ff" d="M475.01,-183.39C454.26,-178.1 430.27,-171.98 410.83,-167.02"/>
<polygon fill="#63b8ff" stroke="#63b8ff" points="474.35,-186.83 484.9,-185.91 476.08,-180.05 474.35,-186.83"/>
</a>
</g>
</g>
<!-- Node11 -->
<g id="Node000011" class="node">
<title>Node11</title>
<g id="a_Node000011"><a xlink:href="classSerializer.html#a8a16d22eb8292ced21de7bef62576ccf" target="_top" xlink:title=" ">
<polygon fill="white" stroke="#666666" points="427.5,-56 317.5,-56 317.5,-37 427.5,-37 427.5,-56"/>
<text text-anchor="middle" x="372.5" y="-44" font-family="Helvetica,sans-Serif" font-size="10.00">Serializer::serialize</text>
</a>
</g>
</g>
<!-- Node2&#45;&gt;Node11 -->
<g id="edge13_Node000002_Node000011" class="edge">
<title>Node2&#45;&gt;Node11</title>
<g id="a_edge13_Node000002_Node000011"><a xlink:title=" ">
<path fill="none" stroke="#63b8ff" d="M515.3,-176.21C503.57,-147.47 477.61,-93.68 438,-64.5 433.32,-61.05 428.01,-58.26 422.49,-56.01"/>
<polygon fill="#63b8ff" stroke="#63b8ff" points="512.19,-177.86 519.09,-185.89 518.7,-175.31 512.19,-177.86"/>
</a>
</g>
</g>
<!-- Node12 -->
<g id="Node000012" class="node">
<title>Node12</title>
<g id="a_Node000012"><a xlink:href="classSafeQueue.html#ab2f40bad1a39f332c1a8c7b4e858b190" target="_top" xlink:title=" ">
<polygon fill="white" stroke="#666666" points="426,-280 319,-280 319,-261 426,-261 426,-280"/>
<text text-anchor="middle" x="372.5" y="-268" font-family="Helvetica,sans-Serif" font-size="10.00">SafeQueue::tryPop</text>
</a>
</g>
</g>
<!-- Node2&#45;&gt;Node12 -->
<g id="edge14_Node000002_Node000012" class="edge">
<title>Node2&#45;&gt;Node12</title>
<g id="a_edge14_Node000002_Node000012"><a xlink:title=" ">
<path fill="none" stroke="#63b8ff" d="M502.65,-211.6C486.19,-224.26 461.72,-241.54 438,-252.5 430.82,-255.82 422.91,-258.64 415.15,-261"/>
<polygon fill="#63b8ff" stroke="#63b8ff" points="505.21,-214.04 510.92,-205.11 500.89,-208.53 505.21,-214.04"/>
</a>
</g>
</g>
<!-- Node15 -->
<g id="Node000015" class="node">
<title>Node15</title>
<g id="a_Node000015"><a xlink:href="classServer.html#af7b0a4370ac2c1e573f292870adfa81c" target="_top" xlink:title=" ">
<polygon fill="white" stroke="#666666" points="416.5,-19 328.5,-19 328.5,0 416.5,0 416.5,-19"/>
<text text-anchor="middle" x="372.5" y="-7" font-family="Helvetica,sans-Serif" font-size="10.00">Server::update</text>
</a>
</g>
</g>
<!-- Node2&#45;&gt;Node15 -->
<g id="edge20_Node000002_Node000015" class="edge">
<title>Node2&#45;&gt;Node15</title>
<g id="a_edge20_Node000002_Node000015"><a xlink:title=" ">
<path fill="none" stroke="#63b8ff" d="M518.15,-175.84C509.34,-140.67 486,-66.99 438,-27.5 431.81,-22.4 424.26,-18.75 416.55,-16.12"/>
<polygon fill="#63b8ff" stroke="#63b8ff" points="514.8,-176.89 520.52,-185.81 521.62,-175.27 514.8,-176.89"/>
</a>
</g>
</g>
<!-- Node16 -->
<g id="Node000016" class="node">
<title>Node16</title>
<g id="a_Node000016"><a xlink:href="classTimer.html#a5dfc60401871aa32cfe0ca0a775f31fa" target="_top" xlink:title=" ">
<polygon fill="white" stroke="#666666" points="428.5,-243 316.5,-243 316.5,-224 428.5,-224 428.5,-243"/>
<text text-anchor="middle" x="372.5" y="-231" font-family="Helvetica,sans-Serif" font-size="10.00">Timer::updateClock</text>
</a>
</g>
</g>
<!-- Node2&#45;&gt;Node16 -->
<g id="edge21_Node000002_Node000016" class="edge">
<title>Node2&#45;&gt;Node16</title>
<g id="a_edge21_Node000002_Node000016"><a xlink:title=" ">
<path fill="none" stroke="#63b8ff" d="M475.01,-207.61C454.26,-212.9 430.27,-219.02 410.83,-223.98"/>
<polygon fill="#63b8ff" stroke="#63b8ff" points="476.08,-210.95 484.9,-205.09 474.35,-204.17 476.08,-210.95"/>
</a>
</g>
</g>
<!-- Node3&#45;&gt;Node4 -->
<g id="edge3_Node000003_Node000004" class="edge">
<title>Node3&#45;&gt;Node4</title>
<g id="a_edge3_Node000003_Node000004"><a xlink:title=" ">
<path fill="none" stroke="#63b8ff" d="M309.1,-337.11C296.65,-335.64 283.59,-334.09 271.21,-332.63"/>
<polygon fill="#63b8ff" stroke="#63b8ff" points="309.05,-340.63 319.39,-338.33 309.87,-333.68 309.05,-340.63"/>
</a>
</g>
</g>
<!-- Node7&#45;&gt;Node4 -->
<g id="edge7_Node000007_Node000004" class="edge">
<title>Node7&#45;&gt;Node4</title>
<g id="a_edge7_Node000007_Node000004"><a xlink:title=" ">
<path fill="none" stroke="#63b8ff" d="M296.69,-315.89C288.12,-316.85 279.47,-317.82 271.13,-318.76"/>
<polygon fill="#63b8ff" stroke="#63b8ff" points="297.13,-319.36 306.68,-314.77 296.35,-312.41 297.13,-319.36"/>
</a>
</g>
</g>
<!-- Node9&#45;&gt;Node5 -->
<g id="edge11_Node000009_Node000005" class="edge">
<title>Node9&#45;&gt;Node5</title>
<g id="a_edge11_Node000009_Node000005"><a xlink:title=" ">
<path fill="none" stroke="#63b8ff" d="M321.25,-169.4C298.69,-174.74 272.44,-180.95 251.21,-185.98"/>
<polygon fill="#63b8ff" stroke="#63b8ff" points="322.07,-172.8 331,-167.09 320.46,-165.99 322.07,-172.8"/>
</a>
</g>
</g>
<!-- Node10 -->
<g id="Node000010" class="node">
<title>Node10</title>
<g id="a_Node000010"><a xlink:href="classClient.html#a643ed09341f07f8c81696741f2d2ca07" target="_top" xlink:title=" ">
<polygon fill="white" stroke="#666666" points="266.5,-167 153.5,-167 153.5,-148 266.5,-148 266.5,-167"/>
<text text-anchor="middle" x="210" y="-155" font-family="Helvetica,sans-Serif" font-size="10.00">Client::processInput</text>
</a>
</g>
</g>
<!-- Node9&#45;&gt;Node10 -->
<g id="edge12_Node000009_Node000010" class="edge">
<title>Node9&#45;&gt;Node10</title>
<g id="a_edge12_Node000009_Node000010"><a xlink:title=" ">
<path fill="none" stroke="#63b8ff" d="M312.71,-157.5C297.7,-157.5 281.6,-157.5 266.74,-157.5"/>
<polygon fill="#63b8ff" stroke="#63b8ff" points="312.91,-161 322.91,-157.5 312.91,-154 312.91,-161"/>
</a>
</g>
</g>
<!-- Node12&#45;&gt;Node4 -->
<g id="edge15_Node000012_Node000004" class="edge">
<title>Node12&#45;&gt;Node4</title>
<g id="a_edge15_Node000012_Node000004"><a xlink:title=" ">
<path fill="none" stroke="#63b8ff" d="M327.58,-282.97C320.67,-285.07 313.62,-287.29 307,-289.5 282.18,-297.8 254.21,-308.43 234.89,-315.99"/>
<polygon fill="#63b8ff" stroke="#63b8ff" points="328.96,-286.21 337.55,-280 326.96,-279.51 328.96,-286.21"/>
</a>
</g>
</g>
<!-- Node13 -->
<g id="Node000013" class="node">
<title>Node13</title>
<g id="a_Node000013"><a xlink:href="classClient.html#a6e7a5e19c40bef39ae1c0f5996b8c471" target="_top" xlink:title=" ">
<polygon fill="white" stroke="#666666" points="252.5,-261 167.5,-261 167.5,-242 252.5,-242 252.5,-261"/>
<text text-anchor="middle" x="210" y="-249" font-family="Helvetica,sans-Serif" font-size="10.00">Client::update</text>
</a>
</g>
</g>
<!-- Node12&#45;&gt;Node13 -->
<g id="edge16_Node000012_Node000013" class="edge">
<title>Node12&#45;&gt;Node13</title>
<g id="a_edge16_Node000012_Node000013"><a xlink:title=" ">
<path fill="none" stroke="#63b8ff" d="M308.94,-263.09C290.1,-260.86 269.88,-258.47 252.73,-256.44"/>
<polygon fill="#63b8ff" stroke="#63b8ff" points="308.6,-266.58 318.95,-264.28 309.43,-259.63 308.6,-266.58"/>
</a>
</g>
</g>
<!-- Node13&#45;&gt;Node13 -->
<g id="edge19_Node000013_Node000013" class="edge">
<title>Node13&#45;&gt;Node13</title>
<g id="a_edge19_Node000013_Node000013"><a xlink:title=" ">
<path fill="none" stroke="#63b8ff" d="M238.37,-269.82C237.19,-275.01 227.73,-279 210,-279 182.98,-279 175.18,-269.73 186.57,-261.08"/>
<polygon fill="#63b8ff" stroke="#63b8ff" points="241.4,-268.06 233.43,-261.08 235.31,-271.51 241.4,-268.06"/>
</a>
</g>
</g>
<!-- Node14 -->
<g id="Node000014" class="node">
<title>Node14</title>
<g id="a_Node000014"><a xlink:href="classClient.html#ad361032d607e05a51b215e1300029bbc" target="_top" xlink:title=" ">
<polygon fill="white" stroke="#666666" points="113,-261 0,-261 0,-242 113,-242 113,-261"/>
<text text-anchor="middle" x="56.5" y="-249" font-family="Helvetica,sans-Serif" font-size="10.00">Client::applyUpdate</text>
</a>
</g>
</g>
<!-- Node13&#45;&gt;Node14 -->
<g id="edge17_Node000013_Node000014" class="edge">
<title>Node13&#45;&gt;Node14</title>
<g id="a_edge17_Node000013_Node000014"><a xlink:title=" ">
<path fill="none" stroke="#63b8ff" d="M157.11,-245.06C142.91,-244.68 127.46,-244.65 113.07,-244.97"/>
<polygon fill="#63b8ff" stroke="#63b8ff" points="157.09,-248.56 167.2,-245.39 157.32,-241.56 157.09,-248.56"/>
</a>
</g>
</g>
<!-- Node14&#45;&gt;Node13 -->
<g id="edge18_Node000014_Node000013" class="edge">
<title>Node14&#45;&gt;Node13</title>
<g id="a_edge18_Node000014_Node000013"><a xlink:title=" ">
<path fill="none" stroke="#63b8ff" d="M123.27,-258.2C138.18,-258.35 153.61,-258.16 167.2,-257.61"/>
<polygon fill="#63b8ff" stroke="#63b8ff" points="123.12,-254.69 113.07,-258.03 123.01,-261.69 123.12,-254.69"/>
</a>
</g>
</g>
<!-- Node16&#45;&gt;Node13 -->
<g id="edge22_Node000016_Node000013" class="edge">
<title>Node16&#45;&gt;Node13</title>
<g id="a_edge22_Node000016_Node000013"><a xlink:title=" ">
<path fill="none" stroke="#63b8ff" d="M306.08,-240.84C288.03,-242.86 268.94,-245 252.64,-246.83"/>
<polygon fill="#63b8ff" stroke="#63b8ff" points="306.72,-244.29 316.27,-239.69 305.94,-237.33 306.72,-244.29"/>
</a>
</g>
</g>
</g>
</svg>
