<?xml version="1.0" encoding="UTF-8" standalone="no"?>
<!DOCTYPE svg PUBLIC "-//W3C//DTD SVG 1.1//EN"
 "http://www.w3.org/Graphics/SVG/1.1/DTD/svg11.dtd">
<!-- Generated by graphviz version 2.43.0 (0)
 -->
<!-- Title: newComponentTypeID Pages: 1 -->
<!--zoomable 426 -->

<svg id="main" version="1.1" xmlns="http://www.w3.org/2000/svg" xmlns:xlink="http://www.w3.org/1999/xlink" xml:space="preserve" onload="init(evt)">
<style type="text/css"><![CDATA[
.node, .edge {opacity: 0.7;}
.node.selected, .edge.selected {opacity: 1;}
.edge:hover path { stroke: red; }
.edge:hover polygon { stroke: red; fill: red; }
]]></style>

<defs>
  <circle id="rim" cx="0" cy="0" r="7"/>
  <circle id="rim2" cx="0" cy="0" r="3.5"/>
  <g id="zoomPlus">
    <use xlink:href="#rim" fill="#404040"><set attributeName="fill" to="#808080" begin="zoomplus.mouseover" end="zoomplus.mouseout"/></use>
    <path d="M-4,0h8M0,-4v8" fill="none" stroke="white" stroke-width="1.5" pointer-events="none"/>
  </g>
  <g id="zoomMin">
    <use xlink:href="#rim" fill="#404040"><set attributeName="fill" to="#808080" begin="zoomminus.mouseover" end="zoomminus.mouseout"/></use>
    <path d="M-4,0h8" fill="none" stroke="white" stroke-width="1.5" pointer-events="none"/>
  </g>
  <g id="arrowUp" transform="translate(30 24)">
    <use xlink:href="#rim"/>
    <path pointer-events="none" fill="none" stroke="white" stroke-width="1.5" d="M0,-3.0v7 M-2.5,-0.5L0,-3.0L2.5,-0.5"/>
  </g>
  <g id="arrowRight" transform="rotate(90) translate(36 -43)">
    <use xlink:href="#rim"/>
    <path pointer-events="none" fill="none" stroke="white" stroke-width="1.5" d="M0,-3.0v7 M-2.5,-0.5L0,-3.0L2.5,-0.5"/>
  </g>
  <g id="arrowDown" transform="rotate(180) translate(-30 -48)">
    <use xlink:href="#rim"/>
    <path pointer-events="none" fill="none" stroke="white" stroke-width="1.5" d="M0,-3.0v7 M-2.5,-0.5L0,-3.0L2.5,-0.5"/>
  </g>
  <g id="arrowLeft" transform="rotate(270) translate(-36 17)">
    <use xlink:href="#rim"/>
    <path pointer-events="none" fill="none" stroke="white" stroke-width="1.5" d="M0,-3.0v7 M-2.5,-0.5L0,-3.0L2.5,-0.5"/>
  </g>
  <g id="resetDef">
    <use xlink:href="#rim2" fill="#404040"><set attributeName="fill" to="#808080" begin="reset.mouseover" end="reset.mouseout"/></use>
  </g>
</defs>
<script type="application/ecmascript">
var viewWidth = 743;
var viewHeight = 426;
var sectionId = 'dynsection-4';
</script>
<script type="application/ecmascript" xlink:href="svg.min.js"/>
<svg id="graph" class="graph">
<g id="viewport">
<title>newComponentTypeID</title>
<!-- Node1 -->
<g id="Node000001" class="node">
<title>Node1</title>
<g id="a_Node000001"><a xlink:title="Generates a new unique ComponentTypeID.">
<polygon fill="#999999" stroke="#666666" points="735,-223 609,-223 609,-204 735,-204 735,-223"/>
<text text-anchor="middle" x="672" y="-211" font-family="Helvetica,sans-Serif" font-size="10.00">newComponentTypeID</text>
</a>
</g>
</g>
<!-- Node2 -->
<g id="Node000002" class="node">
<title>Node2</title>
<g id="a_Node000002"><a xlink:href="engine_2ecs_2ecs_8hpp.html#a5a868f82168f3b251aa7ca758686125c" target="_top" xlink:title="Retrieves the unique ID for a given component type.">
<polygon fill="white" stroke="#666666" points="573,-223 474,-223 474,-204 573,-204 573,-223"/>
<text text-anchor="middle" x="523.5" y="-211" font-family="Helvetica,sans-Serif" font-size="10.00">getComponentID</text>
</a>
</g>
</g>
<!-- Node1&#45;&gt;Node2 -->
<g id="edge1_Node000001_Node000002" class="edge">
<title>Node1&#45;&gt;Node2</title>
<g id="a_edge1_Node000001_Node000002"><a xlink:title=" ">
<path fill="none" stroke="#63b8ff" d="M598.8,-213.5C590.2,-213.5 581.57,-213.5 573.4,-213.5"/>
<polygon fill="#63b8ff" stroke="#63b8ff" points="598.87,-217 608.87,-213.5 598.87,-210 598.87,-217"/>
</a>
</g>
</g>
<!-- Node3 -->
<g id="Node000003" class="node">
<title>Node3</title>
<g id="a_Node000003"><a xlink:href="classServer.html#aac4110712ec347909be9bd4a5140ac4f" target="_top" xlink:title=" ">
<polygon fill="white" stroke="#666666" points="425.5,-391 319.5,-391 319.5,-372 425.5,-372 425.5,-391"/>
<text text-anchor="middle" x="372.5" y="-379" font-family="Helvetica,sans-Serif" font-size="10.00">Server::applyInput</text>
</a>
</g>
</g>
<!-- Node2&#45;&gt;Node3 -->
<g id="edge2_Node000002_Node000003" class="edge">
<title>Node2&#45;&gt;Node3</title>
<g id="a_edge2_Node000002_Node000003"><a xlink:title=" ">
<path fill="none" stroke="#63b8ff" d="M516.82,-233.29C506.55,-265.51 481.76,-329.19 438,-363.5 433.61,-366.94 428.6,-369.73 423.35,-371.98"/>
<polygon fill="#63b8ff" stroke="#63b8ff" points="520.3,-233.88 519.86,-223.3 513.6,-231.85 520.3,-233.88"/>
</a>
</g>
</g>
<!-- Node4 -->
<g id="Node000004" class="node">
<title>Node4</title>
<g id="a_Node000004"><a xlink:href="classServer.html#aeee363eaf9f494aa542f2e0ad1d7813b" target="_top" xlink:title=" ">
<polygon fill="white" stroke="#666666" points="271,-372 149,-372 149,-353 271,-353 271,-372"/>
<text text-anchor="middle" x="210" y="-360" font-family="Helvetica,sans-Serif" font-size="10.00">Server::processInputs</text>
</a>
</g>
</g>
<!-- Node2&#45;&gt;Node4 -->
<g id="edge9_Node000002_Node000004" class="edge">
<title>Node2&#45;&gt;Node4</title>
<g id="a_edge9_Node000002_Node000004"><a xlink:title=" ">
<path fill="none" stroke="#63b8ff" d="M520.43,-233.2C515.05,-273.04 496.7,-362.61 438,-400.5 369.51,-444.71 266.03,-394.33 226.82,-372.04"/>
<polygon fill="#63b8ff" stroke="#63b8ff" points="523.92,-233.51 521.64,-223.16 516.97,-232.66 523.92,-233.51"/>
</a>
</g>
</g>
<!-- Node5 -->
<g id="Node000005" class="node">
<title>Node5</title>
<g id="a_Node000005"><a xlink:href="classServer.html#af36f3a832531844b5f18d40c6db22cc9" target="_top" xlink:title=" ">
<polygon fill="white" stroke="#666666" points="261,-242 159,-242 159,-223 261,-223 261,-242"/>
<text text-anchor="middle" x="210" y="-230" font-family="Helvetica,sans-Serif" font-size="10.00">Server::broadcast</text>
</a>
</g>
</g>
<!-- Node2&#45;&gt;Node5 -->
<g id="edge4_Node000002_Node000005" class="edge">
<title>Node2&#45;&gt;Node5</title>
<g id="a_edge4_Node000002_Node000005"><a xlink:title=" ">
<path fill="none" stroke="#63b8ff" d="M463.63,-217.09C405.13,-220.66 316.37,-226.07 261.13,-229.44"/>
<polygon fill="#63b8ff" stroke="#63b8ff" points="464.06,-220.57 473.83,-216.47 463.63,-213.58 464.06,-220.57"/>
</a>
</g>
</g>
<!-- Node6 -->
<g id="Node000006" class="node">
<title>Node6</title>
<g id="a_Node000006"><a xlink:href="classSerializer.html#aecc21abd02f735d072a7f5ac997e6d4e" target="_top" xlink:title=" ">
<polygon fill="white" stroke="#666666" points="433.5,-167 311.5,-167 311.5,-148 433.5,-148 433.5,-167"/>
<text text-anchor="middle" x="372.5" y="-155" font-family="Helvetica,sans-Serif" font-size="10.00">Serializer::deserialize</text>
</a>
</g>
</g>
<!-- Node2&#45;&gt;Node6 -->
<g id="edge5_Node000002_Node000006" class="edge">
<title>Node2&#45;&gt;Node6</title>
<g id="a_edge5_Node000002_Node000006"><a xlink:title=" ">
<path fill="none" stroke="#63b8ff" d="M493.95,-199.37C477.78,-191.69 457.04,-182.39 438,-175.5 429.47,-172.41 420.16,-169.54 411.32,-167.03"/>
<polygon fill="#63b8ff" stroke="#63b8ff" points="492.85,-202.72 503.38,-203.9 495.88,-196.41 492.85,-202.72"/>
</a>
</g>
</g>
<!-- Node7 -->
<g id="Node000007" class="node">
<title>Node7</title>
<g id="a_Node000007"><a xlink:href="classServer.html#a167f3f27856b0e3c707f4f98c0bb75be" target="_top" xlink:title=" ">
<polygon fill="white" stroke="#666666" points="438,-354 307,-354 307,-335 438,-335 438,-354"/>
<text text-anchor="middle" x="372.5" y="-342" font-family="Helvetica,sans-Serif" font-size="10.00">Server::entityForClients</text>
</a>
</g>
</g>
<!-- Node2&#45;&gt;Node7 -->
<g id="edge6_Node000002_Node000007" class="edge">
<title>Node2&#45;&gt;Node7</title>
<g id="a_edge6_Node000002_Node000007"><a xlink:title=" ">
<path fill="none" stroke="#63b8ff" d="M513.47,-232.29C500.37,-257.53 473.71,-302.05 438,-326.5 433.01,-329.92 427.39,-332.69 421.6,-334.93"/>
<polygon fill="#63b8ff" stroke="#63b8ff" points="516.75,-233.56 518.1,-223.05 510.49,-230.42 516.75,-233.56"/>
</a>
</g>
</g>
<!-- Node8 -->
<g id="Node000008" class="node">
<title>Node8</title>
<g id="a_Node000008"><a xlink:href="NetworkProtocol_8hpp.html#a31decf49dac3ae6a95dd28cb3607e37e" target="_top" xlink:title=" ">
<polygon fill="white" stroke="#666666" points="411,-130 334,-130 334,-111 411,-111 411,-130"/>
<text text-anchor="middle" x="372.5" y="-118" font-family="Helvetica,sans-Serif" font-size="10.00">IsTickNewer</text>
</a>
</g>
</g>
<!-- Node2&#45;&gt;Node8 -->
<g id="edge8_Node000002_Node000008" class="edge">
<title>Node2&#45;&gt;Node8</title>
<g id="a_edge8_Node000002_Node000008"><a xlink:title=" ">
<path fill="none" stroke="#63b8ff" d="M507.6,-196.33C491.91,-179.29 465.68,-153.59 438,-138.5 429.73,-133.99 420.24,-130.54 411.12,-127.92"/>
<polygon fill="#63b8ff" stroke="#63b8ff" points="505.13,-198.82 514.41,-203.92 510.33,-194.14 505.13,-198.82"/>
</a>
</g>
</g>
<!-- Node9 -->
<g id="Node000009" class="node">
<title>Node9</title>
<g id="a_Node000009"><a xlink:href="classSafeQueue.html#ae51181f65378234bf3a0f66a86d4b33a" target="_top" xlink:title=" ">
<polygon fill="white" stroke="#666666" points="422,-204 323,-204 323,-185 422,-185 422,-204"/>
<text text-anchor="middle" x="372.5" y="-192" font-family="Helvetica,sans-Serif" font-size="10.00">SafeQueue::push</text>
</a>
</g>
</g>
<!-- Node2&#45;&gt;Node9 -->
<g id="edge10_Node000002_Node000009" class="edge">
<title>Node2&#45;&gt;Node9</title>
<g id="a_edge10_Node000002_Node000009"><a xlink:title=" ">
<path fill="none" stroke="#63b8ff" d="M463.42,-205.97C449.73,-204.22 435.32,-202.38 422.14,-200.7"/>
<polygon fill="#63b8ff" stroke="#63b8ff" points="463.35,-209.49 473.71,-207.28 464.23,-202.54 463.35,-209.49"/>
</a>
</g>
</g>
<!-- Node11 -->
<g id="Node000011" class="node">
<title>Node11</title>
<g id="a_Node000011"><a xlink:href="classSerializer.html#a8a16d22eb8292ced21de7bef62576ccf" target="_top" xlink:title=" ">
<polygon fill="white" stroke="#666666" points="427.5,-93 317.5,-93 317.5,-74 427.5,-74 427.5,-93"/>
<text text-anchor="middle" x="372.5" y="-81" font-family="Helvetica,sans-Serif" font-size="10.00">Serializer::serialize</text>
</a>
</g>
</g>
<!-- Node2&#45;&gt;Node11 -->
<g id="edge13_Node000002_Node000011" class="edge">
<title>Node2&#45;&gt;Node11</title>
<g id="a_edge13_Node000002_Node000011"><a xlink:title=" ">
<path fill="none" stroke="#63b8ff" d="M513.23,-194.5C500.01,-169.42 473.38,-125.62 438,-101.5 433,-98.1 427.38,-95.33 421.58,-93.09"/>
<polygon fill="#63b8ff" stroke="#63b8ff" points="510.26,-196.38 517.92,-203.71 516.5,-193.21 510.26,-196.38"/>
</a>
</g>
</g>
<!-- Node12 -->
<g id="Node000012" class="node">
<title>Node12</title>
<g id="a_Node000012"><a xlink:href="classServer.html#afdc204b21eae699fb44042665c44bbd0" target="_top" xlink:title=" ">
<polygon fill="white" stroke="#666666" points="415.5,-56 329.5,-56 329.5,-37 415.5,-37 415.5,-56"/>
<text text-anchor="middle" x="372.5" y="-44" font-family="Helvetica,sans-Serif" font-size="10.00">Server::Server</text>
</a>
</g>
</g>
<!-- Node2&#45;&gt;Node12 -->
<g id="edge14_Node000002_Node000012" class="edge">
<title>Node2&#45;&gt;Node12</title>
<g id="a_edge14_Node000002_Node000012"><a xlink:title=" ">
<path fill="none" stroke="#63b8ff" d="M516.79,-193.84C506.45,-161.83 481.59,-98.58 438,-64.5 431.5,-59.42 423.64,-55.77 415.68,-53.15"/>
<polygon fill="#63b8ff" stroke="#63b8ff" points="513.55,-195.24 519.84,-203.77 520.24,-193.18 513.55,-195.24"/>
</a>
</g>
</g>
<!-- Node13 -->
<g id="Node000013" class="node">
<title>Node13</title>
<g id="a_Node000013"><a xlink:href="classSafeQueue.html#ab2f40bad1a39f332c1a8c7b4e858b190" target="_top" xlink:title=" ">
<polygon fill="white" stroke="#666666" points="426,-317 319,-317 319,-298 426,-298 426,-317"/>
<text text-anchor="middle" x="372.5" y="-305" font-family="Helvetica,sans-Serif" font-size="10.00">SafeQueue::tryPop</text>
</a>
</g>
</g>
<!-- Node2&#45;&gt;Node13 -->
<g id="edge15_Node000002_Node000013" class="edge">
<title>Node2&#45;&gt;Node13</title>
<g id="a_edge15_Node000002_Node000013"><a xlink:title=" ">
<path fill="none" stroke="#63b8ff" d="M507.64,-230.91C491.99,-248.19 465.79,-274.23 438,-289.5 431.89,-292.86 425.1,-295.63 418.28,-297.91"/>
<polygon fill="#63b8ff" stroke="#63b8ff" points="510.44,-233.03 514.44,-223.22 505.2,-228.39 510.44,-233.03"/>
</a>
</g>
</g>
<!-- Node16 -->
<g id="Node000016" class="node">
<title>Node16</title>
<g id="a_Node000016"><a xlink:href="classServer.html#af7b0a4370ac2c1e573f292870adfa81c" target="_top" xlink:title=" ">
<polygon fill="white" stroke="#666666" points="416.5,-19 328.5,-19 328.5,0 416.5,0 416.5,-19"/>
<text text-anchor="middle" x="372.5" y="-7" font-family="Helvetica,sans-Serif" font-size="10.00">Server::update</text>
</a>
</g>
</g>
<!-- Node2&#45;&gt;Node16 -->
<g id="edge21_Node000002_Node000016" class="edge">
<title>Node2&#45;&gt;Node16</title>
<g id="a_edge21_Node000002_Node000016"><a xlink:title=" ">
<path fill="none" stroke="#63b8ff" d="M519.12,-193.36C511.62,-155.16 490,-72.04 438,-27.5 431.91,-22.28 424.41,-18.57 416.72,-15.93"/>
<polygon fill="#63b8ff" stroke="#63b8ff" points="515.76,-194.47 521.01,-203.68 522.65,-193.21 515.76,-194.47"/>
</a>
</g>
</g>
<!-- Node17 -->
<g id="Node000017" class="node">
<title>Node17</title>
<g id="a_Node000017"><a xlink:href="classTimer.html#a5dfc60401871aa32cfe0ca0a775f31fa" target="_top" xlink:title=" ">
<polygon fill="white" stroke="#666666" points="428.5,-280 316.5,-280 316.5,-261 428.5,-261 428.5,-280"/>
<text text-anchor="middle" x="372.5" y="-268" font-family="Helvetica,sans-Serif" font-size="10.00">Timer::updateClock</text>
</a>
</g>
</g>
<!-- Node2&#45;&gt;Node17 -->
<g id="edge22_Node000002_Node000017" class="edge">
<title>Node2&#45;&gt;Node17</title>
<g id="a_edge22_Node000002_Node000017"><a xlink:title=" ">
<path fill="none" stroke="#63b8ff" d="M488.51,-226.92C473.11,-232.96 454.66,-240.15 438,-246.5 425.38,-251.31 411.34,-256.55 399.58,-260.9"/>
<polygon fill="#63b8ff" stroke="#63b8ff" points="490.11,-230.05 498.14,-223.14 487.55,-223.54 490.11,-230.05"/>
</a>
</g>
</g>
<!-- Node3&#45;&gt;Node4 -->
<g id="edge3_Node000003_Node000004" class="edge">
<title>Node3&#45;&gt;Node4</title>
<g id="a_edge3_Node000003_Node000004"><a xlink:title=" ">
<path fill="none" stroke="#63b8ff" d="M309.1,-374.11C296.65,-372.64 283.59,-371.09 271.21,-369.63"/>
<polygon fill="#63b8ff" stroke="#63b8ff" points="309.05,-377.63 319.39,-375.33 309.87,-370.68 309.05,-377.63"/>
</a>
</g>
</g>
<!-- Node7&#45;&gt;Node4 -->
<g id="edge7_Node000007_Node000004" class="edge">
<title>Node7&#45;&gt;Node4</title>
<g id="a_edge7_Node000007_Node000004"><a xlink:title=" ">
<path fill="none" stroke="#63b8ff" d="M296.69,-352.89C288.12,-353.85 279.47,-354.82 271.13,-355.76"/>
<polygon fill="#63b8ff" stroke="#63b8ff" points="297.13,-356.36 306.68,-351.77 296.35,-349.41 297.13,-356.36"/>
</a>
</g>
</g>
<!-- Node9&#45;&gt;Node5 -->
<g id="edge11_Node000009_Node000005" class="edge">
<title>Node9&#45;&gt;Node5</title>
<g id="a_edge11_Node000009_Node000005"><a xlink:title=" ">
<path fill="none" stroke="#63b8ff" d="M321.25,-206.4C298.69,-211.74 272.44,-217.95 251.21,-222.98"/>
<polygon fill="#63b8ff" stroke="#63b8ff" points="322.07,-209.8 331,-204.09 320.46,-202.99 322.07,-209.8"/>
</a>
</g>
</g>
<!-- Node10 -->
<g id="Node000010" class="node">
<title>Node10</title>
<g id="a_Node000010"><a xlink:href="classClient.html#a643ed09341f07f8c81696741f2d2ca07" target="_top" xlink:title=" ">
<polygon fill="white" stroke="#666666" points="266.5,-204 153.5,-204 153.5,-185 266.5,-185 266.5,-204"/>
<text text-anchor="middle" x="210" y="-192" font-family="Helvetica,sans-Serif" font-size="10.00">Client::processInput</text>
</a>
</g>
</g>
<!-- Node9&#45;&gt;Node10 -->
<g id="edge12_Node000009_Node000010" class="edge">
<title>Node9&#45;&gt;Node10</title>
<g id="a_edge12_Node000009_Node000010"><a xlink:title=" ">
<path fill="none" stroke="#63b8ff" d="M312.71,-194.5C297.7,-194.5 281.6,-194.5 266.74,-194.5"/>
<polygon fill="#63b8ff" stroke="#63b8ff" points="312.91,-198 322.91,-194.5 312.91,-191 312.91,-198"/>
</a>
</g>
</g>
<!-- Node13&#45;&gt;Node4 -->
<g id="edge16_Node000013_Node000004" class="edge">
<title>Node13&#45;&gt;Node4</title>
<g id="a_edge16_Node000013_Node000004"><a xlink:title=" ">
<path fill="none" stroke="#63b8ff" d="M327.58,-319.97C320.67,-322.07 313.62,-324.29 307,-326.5 282.18,-334.8 254.21,-345.43 234.89,-352.99"/>
<polygon fill="#63b8ff" stroke="#63b8ff" points="328.96,-323.21 337.55,-317 326.96,-316.51 328.96,-323.21"/>
</a>
</g>
</g>
<!-- Node14 -->
<g id="Node000014" class="node">
<title>Node14</title>
<g id="a_Node000014"><a xlink:href="classClient.html#a6e7a5e19c40bef39ae1c0f5996b8c471" target="_top" xlink:title=" ">
<polygon fill="white" stroke="#666666" points="252.5,-298 167.5,-298 167.5,-279 252.5,-279 252.5,-298"/>
<text text-anchor="middle" x="210" y="-286" font-family="Helvetica,sans-Serif" font-size="10.00">Client::update</text>
</a>
</g>
</g>
<!-- Node13&#45;&gt;Node14 -->
<g id="edge17_Node000013_Node000014" class="edge">
<title>Node13&#45;&gt;Node14</title>
<g id="a_edge17_Node000013_Node000014"><a xlink:title=" ">
<path fill="none" stroke="#63b8ff" d="M308.94,-300.09C290.1,-297.86 269.88,-295.47 252.73,-293.44"/>
<polygon fill="#63b8ff" stroke="#63b8ff" points="308.6,-303.58 318.95,-301.28 309.43,-296.63 308.6,-303.58"/>
</a>
</g>
</g>
<!-- Node14&#45;&gt;Node14 -->
<g id="edge20_Node000014_Node000014" class="edge">
<title>Node14&#45;&gt;Node14</title>
<g id="a_edge20_Node000014_Node000014"><a xlink:title=" ">
<path fill="none" stroke="#63b8ff" d="M238.37,-306.82C237.19,-312.01 227.73,-316 210,-316 182.98,-316 175.18,-306.73 186.57,-298.08"/>
<polygon fill="#63b8ff" stroke="#63b8ff" points="241.4,-305.06 233.43,-298.08 235.31,-308.51 241.4,-305.06"/>
</a>
</g>
</g>
<!-- Node15 -->
<g id="Node000015" class="node">
<title>Node15</title>
<g id="a_Node000015"><a xlink:href="classClient.html#ad361032d607e05a51b215e1300029bbc" target="_top" xlink:title=" ">
<polygon fill="white" stroke="#666666" points="113,-298 0,-298 0,-279 113,-279 113,-298"/>
<text text-anchor="middle" x="56.5" y="-286" font-family="Helvetica,sans-Serif" font-size="10.00">Client::applyUpdate</text>
</a>
</g>
</g>
<!-- Node14&#45;&gt;Node15 -->
<g id="edge18_Node000014_Node000015" class="edge">
<title>Node14&#45;&gt;Node15</title>
<g id="a_edge18_Node000014_Node000015"><a xlink:title=" ">
<path fill="none" stroke="#63b8ff" d="M157.11,-282.06C142.91,-281.68 127.46,-281.65 113.07,-281.97"/>
<polygon fill="#63b8ff" stroke="#63b8ff" points="157.09,-285.56 167.2,-282.39 157.32,-278.56 157.09,-285.56"/>
</a>
</g>
</g>
<!-- Node15&#45;&gt;Node14 -->
<g id="edge19_Node000015_Node000014" class="edge">
<title>Node15&#45;&gt;Node14</title>
<g id="a_edge19_Node000015_Node000014"><a xlink:title=" ">
<path fill="none" stroke="#63b8ff" d="M123.27,-295.2C138.18,-295.35 153.61,-295.16 167.2,-294.61"/>
<polygon fill="#63b8ff" stroke="#63b8ff" points="123.12,-291.69 113.07,-295.03 123.01,-298.69 123.12,-291.69"/>
</a>
</g>
</g>
<!-- Node17&#45;&gt;Node14 -->
<g id="edge23_Node000017_Node000014" class="edge">
<title>Node17&#45;&gt;Node14</title>
<g id="a_edge23_Node000017_Node000014"><a xlink:title=" ">
<path fill="none" stroke="#63b8ff" d="M306.08,-277.84C288.03,-279.86 268.94,-282 252.64,-283.83"/>
<polygon fill="#63b8ff" stroke="#63b8ff" points="306.72,-281.29 316.27,-276.69 305.94,-274.33 306.72,-281.29"/>
</a>
</g>
</g>
</g>
</svg>

<g id="navigator" transform="translate(0 0)" fill="#404254">
  <rect fill="#f2f5e9" fill-opacity="0.5" stroke="#606060" stroke-width=".5" x="0" y="0" width="60" height="60"/>
  <use id="zoomplus" xlink:href="#zoomPlus" x="17" y="9" onmousedown="handleZoom(evt,'in')"/>
  <use id="zoomminus" xlink:href="#zoomMin" x="42" y="9" onmousedown="handleZoom(evt,'out')"/>
  <use id="reset" xlink:href="#resetDef" x="30" y="36" onmousedown="handleReset()"/>
   <use id="arrowup" xlink:href="#arrowUp" x="0" y="0" onmousedown="handlePan(0,-1)"/>
  <use id="arrowright" xlink:href="#arrowRight" x="0" y="0" onmousedown="handlePan(1,0)"/>
  <use id="arrowdown" xlink:href="#arrowDown" x="0" y="0" onmousedown="handlePan(0,1)"/>
  <use id="arrowleft" xlink:href="#arrowLeft" x="0" y="0" onmousedown="handlePan(-1,0)"/>
</g>
<svg viewBox="0 0 15 15" width="100%" height="30px" preserveAspectRatio="xMaxYMin meet">
 <g id="arrow_out" transform="scale(0.3 0.3)">
  <a xlink:href="engine_2ecs_2ecs_8hpp_afdb02fc115de82c93e814ac1d3a64c06_icgraph_org.svg" target="_base">
   <rect id="button" ry="5" rx="5" y="6" x="6" height="38" width="38"
        fill="#f2f5e9" fill-opacity="0.5" stroke="#606060" stroke-width="1.0"/>
   <path id="arrow"
     d="M 11.500037,31.436501 C 11.940474,20.09759 22.043105,11.32322 32.158766,21.979434 L 37.068811,17.246167 C 37.068811,17.246167 37.088388,32 37.088388,32 L 22.160133,31.978069 C 22.160133,31.978069 26.997745,27.140456 26.997745,27.140456 C 18.528582,18.264221 13.291696,25.230495 11.500037,31.436501 z"
     style="fill:#404040;"/>
  </a>
 </g>
</svg>

<style type='text/css'>
<![CDATA[
[data-mouse-over-selected='false'] { opacity: 0.7; }
[data-mouse-over-selected='true']  { opacity: 1.0; }
]]>
</style>
<script type="application/ecmascript"><![CDATA[
document.addEventListener('DOMContentLoaded', (event) => {
  highlightEdges();
  highlightAdjacentNodes();
});
]]></script>
</svg>
