<?xml version="1.0" encoding="UTF-8" standalone="no"?>
<!DOCTYPE svg PUBLIC "-//W3C//DTD SVG 1.1//EN"
 "http://www.w3.org/Graphics/SVG/1.1/DTD/svg11.dtd">
<!-- Generated by graphviz version 2.43.0 (0)
 -->
<!-- Title: Légende du graphe Pages: 1 -->
<svg width="557pt" height="193pt"
 viewBox="0.00 0.00 557.00 193.00" xmlns="http://www.w3.org/2000/svg" xmlns:xlink="http://www.w3.org/1999/xlink">
<g id="graph0" class="graph" transform="scale(1 1) rotate(0) translate(4 189)">
<title>Légende du graphe</title>
<!-- Node9 -->
<g id="Node000009" class="node">
<title>Node9</title>
<g id="a_Node000009"><a xlink:title=" ">
<polygon fill="#999999" stroke="#666666" points="311,-19 251,-19 251,0 311,0 311,-19"/>
<text text-anchor="middle" x="281" y="-7" font-family="Helvetica,sans-Serif" font-size="10.00">Inherited</text>
</a>
</g>
</g>
<!-- Node10 -->
<g id="Node000010" class="node">
<title>Node10</title>
<g id="a_Node000010"><a xlink:title=" ">
<polygon fill="white" stroke="#666666" points="70,-93.5 0,-93.5 0,-74.5 70,-74.5 70,-93.5"/>
<text text-anchor="middle" x="35" y="-81.5" font-family="Helvetica,sans-Serif" font-size="10.00">PublicBase</text>
</a>
</g>
</g>
<!-- Node10&#45;&gt;Node9 -->
<g id="edge1" class="edge">
<title>Node10&#45;&gt;Node9</title>
<g id="a_edge1"><a xlink:title=" ">
<path fill="none" stroke="#63b8ff" d="M65.47,-70.77C69.98,-69.09 74.59,-67.45 79,-66 139.27,-46.13 211.23,-27.56 250.94,-17.75"/>
<polygon fill="#63b8ff" stroke="#63b8ff" points="63.97,-67.6 55.88,-74.44 66.47,-74.14 63.97,-67.6"/>
</a>
</g>
</g>
<!-- Node11 -->
<g id="Node000011" class="node">
<title>Node11</title>
<g id="a_Node000011"><a xlink:title=" ">
<polygon fill="#fff0f0" stroke="red" points="67,-176.5 3,-176.5 3,-157.5 67,-157.5 67,-176.5"/>
<text text-anchor="middle" x="35" y="-164.5" font-family="Helvetica,sans-Serif" font-size="10.00">Truncated</text>
</a>
</g>
</g>
<!-- Node11&#45;&gt;Node10 -->
<g id="edge2" class="edge">
<title>Node11&#45;&gt;Node10</title>
<g id="a_edge2"><a xlink:title=" ">
<path fill="none" stroke="#63b8ff" d="M35,-147.05C35,-130.29 35,-106.56 35,-93.85"/>
<polygon fill="#63b8ff" stroke="#63b8ff" points="31.5,-147.33 35,-157.33 38.5,-147.33 31.5,-147.33"/>
</a>
</g>
</g>
<!-- Node13 -->
<g id="node4" class="node">
<title>Node13</title>
<g id="a_node4"><a xlink:title=" ">
<polygon fill="white" stroke="#666666" points="175.5,-102 88.5,-102 88.5,-66 175.5,-66 175.5,-102"/>
<text text-anchor="middle" x="132" y="-81.5" font-family="Helvetica,sans-Serif" font-size="10.00">ProtectedBase</text>
</a>
</g>
</g>
<!-- Node13&#45;&gt;Node9 -->
<g id="edge3" class="edge">
<title>Node13&#45;&gt;Node9</title>
<g id="a_edge3"><a xlink:title=" ">
<path fill="none" stroke="darkgreen" d="M176.5,-61.35C205.7,-47.14 242.28,-29.34 263.51,-19.01"/>
<polygon fill="darkgreen" stroke="darkgreen" points="174.77,-58.3 167.31,-65.82 177.83,-64.59 174.77,-58.3"/>
</a>
</g>
</g>
<!-- Node14 -->
<g id="node5" class="node">
<title>Node14</title>
<g id="a_node5"><a xlink:title=" ">
<polygon fill="white" stroke="#666666" points="268.5,-102 193.5,-102 193.5,-66 268.5,-66 268.5,-102"/>
<text text-anchor="middle" x="231" y="-81.5" font-family="Helvetica,sans-Serif" font-size="10.00">PrivateBase</text>
</a>
</g>
</g>
<!-- Node14&#45;&gt;Node9 -->
<g id="edge4" class="edge">
<title>Node14&#45;&gt;Node9</title>
<g id="a_edge4"><a xlink:title=" ">
<path fill="none" stroke="#8b1a1a" d="M248.66,-57.39C257.92,-43.97 268.65,-28.4 275.13,-19.01"/>
<polygon fill="#8b1a1a" stroke="#8b1a1a" points="245.65,-55.6 242.85,-65.82 251.41,-59.57 245.65,-55.6"/>
</a>
</g>
</g>
<!-- Node15 -->
<g id="Node000015" class="node">
<title>Node15</title>
<g id="a_Node000015"><a xlink:title=" ">
<polygon fill="#e0e0e0" stroke="#999999" points="377.5,-93.5 286.5,-93.5 286.5,-74.5 377.5,-74.5 377.5,-93.5"/>
<text text-anchor="middle" x="332" y="-81.5" font-family="Helvetica,sans-Serif" font-size="10.00">Undocumented</text>
</a>
</g>
</g>
<!-- Node15&#45;&gt;Node9 -->
<g id="edge5" class="edge">
<title>Node15&#45;&gt;Node9</title>
<g id="a_edge5"><a xlink:title=" ">
<path fill="none" stroke="#63b8ff" d="M320.15,-66.15C309.79,-51.42 295.17,-30.64 287.04,-19.09"/>
<polygon fill="#63b8ff" stroke="#63b8ff" points="317.33,-68.23 325.95,-74.4 323.06,-64.21 317.33,-68.23"/>
</a>
</g>
</g>
<!-- Node16 -->
<g id="node7" class="node">
<title>Node16</title>
<g id="a_node7"><a xlink:title=" ">
<polygon fill="white" stroke="#666666" points="476.5,-102 395.5,-102 395.5,-66 476.5,-66 476.5,-102"/>
<text text-anchor="middle" x="436" y="-81.5" font-family="Helvetica,sans-Serif" font-size="10.00">Templ&lt; int &gt;</text>
</a>
</g>
</g>
<!-- Node16&#45;&gt;Node9 -->
<g id="edge6" class="edge">
<title>Node16&#45;&gt;Node9</title>
<g id="a_edge6"><a xlink:title=" ">
<path fill="none" stroke="#63b8ff" d="M390.1,-61.53C359.66,-47.29 321.38,-29.39 299.2,-19.01"/>
<polygon fill="#63b8ff" stroke="#63b8ff" points="388.73,-64.75 399.27,-65.82 391.69,-58.41 388.73,-64.75"/>
</a>
</g>
</g>
<!-- Node17 -->
<g id="node8" class="node">
<title>Node17</title>
<g id="a_node8"><a xlink:title=" ">
<polygon fill="white" stroke="#666666" points="473,-185 399,-185 399,-149 473,-149 473,-185"/>
<text text-anchor="middle" x="436" y="-164.5" font-family="Helvetica,sans-Serif" font-size="10.00">Templ&lt; T &gt;</text>
</a>
</g>
</g>
<!-- Node17&#45;&gt;Node16 -->
<g id="edge7" class="edge">
<title>Node17&#45;&gt;Node16</title>
<g id="a_edge7"><a xlink:title=" ">
<path fill="none" stroke="orange" stroke-dasharray="5,2" d="M436,-138.77C436,-126.66 436,-112.78 436,-102.15"/>
<polygon fill="orange" stroke="orange" points="432.5,-138.82 436,-148.82 439.5,-138.82 432.5,-138.82"/>
</a>
</g>
<text text-anchor="middle" x="454" y="-123" font-family="Helvetica,sans-Serif" font-size="10.00" fill="grey">&lt; int &gt;</text>
</g>
<!-- Node18 -->
<g id="node9" class="node">
<title>Node18</title>
<g id="a_node9"><a xlink:title=" ">
<polygon fill="white" stroke="#666666" points="549,-102 495,-102 495,-66 549,-66 549,-102"/>
<text text-anchor="middle" x="522" y="-81.5" font-family="Helvetica,sans-Serif" font-size="10.00">Used</text>
</a>
</g>
</g>
<!-- Node18&#45;&gt;Node9 -->
<g id="edge8" class="edge">
<title>Node18&#45;&gt;Node9</title>
<g id="a_edge8"><a xlink:title=" ">
<path fill="none" stroke="#9a32cd" stroke-dasharray="5,2" d="M484.91,-65.91C418.43,-41.99 349.57,-25.43 311.05,-16.88"/>
<polygon fill="#9a32cd" stroke="#9a32cd" points="484.1,-69.35 494.7,-69.5 486.51,-62.77 484.1,-69.35"/>
</a>
</g>
<text text-anchor="middle" x="462.5" y="-40" font-family="Helvetica,sans-Serif" font-size="10.00" fill="grey">m_usedClass</text>
</g>
</g>
</svg>
