<?xml version="1.0" encoding="UTF-8" standalone="no"?>
<!DOCTYPE svg PUBLIC "-//W3C//DTD SVG 1.1//EN"
 "http://www.w3.org/Graphics/SVG/1.1/DTD/svg11.dtd">
<!-- Generated by graphviz version 2.43.0 (0)
 -->
<!-- Title: src/engine/systems/InputSystem.cpp Pages: 1 -->
<svg width="1373pt" height="203pt"
 viewBox="0.00 0.00 1372.50 203.00" xmlns="http://www.w3.org/2000/svg" xmlns:xlink="http://www.w3.org/1999/xlink">
<g id="graph0" class="graph" transform="scale(1 1) rotate(0) translate(4 199)">
<title>src/engine/systems/InputSystem.cpp</title>
<!-- Node1 -->
<g id="Node000001" class="node">
<title>Node1</title>
<g id="a_Node000001"><a xlink:title=" ">
<polygon fill="#999999" stroke="#666666" points="1021,-195 910,-195 910,-165 1021,-165 1021,-195"/>
<text text-anchor="start" x="918" y="-183" font-family="Helvetica,sans-Serif" font-size="10.00">src/engine/systems</text>
<text text-anchor="middle" x="965.5" y="-172" font-family="Helvetica,sans-Serif" font-size="10.00">/InputSystem.cpp</text>
</a>
</g>
</g>
<!-- Node2 -->
<g id="Node000002" class="node">
<title>Node2</title>
<g id="a_Node000002"><a xlink:href="InputSystem_8hpp.html" target="_top" xlink:title=" ">
<polygon fill="white" stroke="#666666" points="986,-129 807,-129 807,-110 986,-110 986,-129"/>
<text text-anchor="middle" x="896.5" y="-117" font-family="Helvetica,sans-Serif" font-size="10.00">engine/systems/InputSystem.hpp</text>
</a>
</g>
</g>
<!-- Node1&#45;&gt;Node2 -->
<g id="edge1_Node000001_Node000002" class="edge">
<title>Node1&#45;&gt;Node2</title>
<g id="a_edge1_Node000001_Node000002"><a xlink:title=" ">
<path fill="none" stroke="#63b8ff" d="M948.8,-164.84C938.47,-156.09 925.22,-144.85 914.64,-135.88"/>
<polygon fill="#63b8ff" stroke="#63b8ff" points="916.73,-133.06 906.84,-129.27 912.2,-138.4 916.73,-133.06"/>
</a>
</g>
</g>
<!-- Node19 -->
<g id="Node000019" class="node">
<title>Node19</title>
<g id="a_Node000019"><a xlink:title=" ">
<polygon fill="#e0e0e0" stroke="#999999" points="1064.5,-129 1004.5,-129 1004.5,-110 1064.5,-110 1064.5,-129"/>
<text text-anchor="middle" x="1034.5" y="-117" font-family="Helvetica,sans-Serif" font-size="10.00">iostream</text>
</a>
</g>
</g>
<!-- Node1&#45;&gt;Node19 -->
<g id="edge18_Node000001_Node000019" class="edge">
<title>Node1&#45;&gt;Node19</title>
<g id="a_edge18_Node000001_Node000019"><a xlink:title=" ">
<path fill="none" stroke="#63b8ff" d="M982.2,-164.84C992.53,-156.09 1005.78,-144.85 1016.36,-135.88"/>
<polygon fill="#63b8ff" stroke="#63b8ff" points="1018.8,-138.4 1024.16,-129.27 1014.27,-133.06 1018.8,-138.4"/>
</a>
</g>
</g>
<!-- Node3 -->
<g id="Node000003" class="node">
<title>Node3</title>
<g id="a_Node000003"><a xlink:href="ecs_8hpp.html" target="_top" xlink:title=" ">
<polygon fill="white" stroke="#666666" points="314.5,-74 204.5,-74 204.5,-55 314.5,-55 314.5,-74"/>
<text text-anchor="middle" x="259.5" y="-62" font-family="Helvetica,sans-Serif" font-size="10.00">engine/ecs/ecs.hpp</text>
</a>
</g>
</g>
<!-- Node2&#45;&gt;Node3 -->
<g id="edge2_Node000002_Node000003" class="edge">
<title>Node2&#45;&gt;Node3</title>
<g id="a_edge2_Node000002_Node000003"><a xlink:title=" ">
<path fill="none" stroke="#63b8ff" d="M806.92,-111.05C677.03,-100.24 439.41,-80.47 324.78,-70.93"/>
<polygon fill="#63b8ff" stroke="#63b8ff" points="325,-67.44 314.74,-70.1 324.42,-74.41 325,-67.44"/>
</a>
</g>
</g>
<!-- Node11 -->
<g id="Node000011" class="node">
<title>Node11</title>
<g id="a_Node000011"><a xlink:href="Components_8hpp.html" target="_top" xlink:title=" ">
<polygon fill="white" stroke="#666666" points="650,-74 471,-74 471,-55 650,-55 650,-74"/>
<text text-anchor="middle" x="560.5" y="-62" font-family="Helvetica,sans-Serif" font-size="10.00">engine/systems/Components.hpp</text>
</a>
</g>
</g>
<!-- Node2&#45;&gt;Node11 -->
<g id="edge10_Node000002_Node000011" class="edge">
<title>Node2&#45;&gt;Node11</title>
<g id="a_edge10_Node000002_Node000011"><a xlink:title=" ">
<path fill="none" stroke="#63b8ff" d="M842.52,-109.98C783.21,-100.63 688.01,-85.61 624.86,-75.65"/>
<polygon fill="#63b8ff" stroke="#63b8ff" points="625.05,-72.14 614.63,-74.04 623.96,-79.05 625.05,-72.14"/>
</a>
</g>
</g>
<!-- Node14 -->
<g id="Node000014" class="node">
<title>Node14</title>
<g id="a_Node000014"><a xlink:title=" ">
<polygon fill="#e0e0e0" stroke="#999999" points="805,-74 668,-74 668,-55 805,-55 805,-74"/>
<text text-anchor="middle" x="736.5" y="-62" font-family="Helvetica,sans-Serif" font-size="10.00">SFML/Window/Event.hpp</text>
</a>
</g>
</g>
<!-- Node2&#45;&gt;Node14 -->
<g id="edge13_Node000002_Node000014" class="edge">
<title>Node2&#45;&gt;Node14</title>
<g id="a_edge13_Node000002_Node000014"><a xlink:title=" ">
<path fill="none" stroke="#63b8ff" d="M870.79,-109.98C844.05,-101.13 801.97,-87.19 772.05,-77.28"/>
<polygon fill="#63b8ff" stroke="#63b8ff" points="773,-73.9 762.41,-74.08 770.8,-80.55 773,-73.9"/>
</a>
</g>
</g>
<!-- Node15 -->
<g id="Node000015" class="node">
<title>Node15</title>
<g id="a_Node000015"><a xlink:title=" ">
<polygon fill="#e0e0e0" stroke="#999999" points="970,-74 823,-74 823,-55 970,-55 970,-74"/>
<text text-anchor="middle" x="896.5" y="-62" font-family="Helvetica,sans-Serif" font-size="10.00">SFML/Window/Window.hpp</text>
</a>
</g>
</g>
<!-- Node2&#45;&gt;Node15 -->
<g id="edge14_Node000002_Node000015" class="edge">
<title>Node2&#45;&gt;Node15</title>
<g id="a_edge14_Node000002_Node000015"><a xlink:title=" ">
<path fill="none" stroke="#63b8ff" d="M896.5,-109.75C896.5,-102.8 896.5,-92.85 896.5,-84.13"/>
<polygon fill="#63b8ff" stroke="#63b8ff" points="900,-84.09 896.5,-74.09 893,-84.09 900,-84.09"/>
</a>
</g>
</g>
<!-- Node16 -->
<g id="Node000016" class="node">
<title>Node16</title>
<g id="a_Node000016"><a xlink:title=" ">
<polygon fill="#e0e0e0" stroke="#999999" points="1143,-74 988,-74 988,-55 1143,-55 1143,-74"/>
<text text-anchor="middle" x="1065.5" y="-62" font-family="Helvetica,sans-Serif" font-size="10.00">SFML/Window/Keyboard.hpp</text>
</a>
</g>
</g>
<!-- Node2&#45;&gt;Node16 -->
<g id="edge15_Node000002_Node000016" class="edge">
<title>Node2&#45;&gt;Node16</title>
<g id="a_edge15_Node000002_Node000016"><a xlink:title=" ">
<path fill="none" stroke="#63b8ff" d="M923.65,-109.98C952.03,-101.09 996.73,-87.07 1028.36,-77.15"/>
<polygon fill="#63b8ff" stroke="#63b8ff" points="1029.64,-80.41 1038.13,-74.08 1027.55,-73.73 1029.64,-80.41"/>
</a>
</g>
</g>
<!-- Node17 -->
<g id="Node000017" class="node">
<title>Node17</title>
<g id="a_Node000017"><a xlink:title=" ">
<polygon fill="#e0e0e0" stroke="#999999" points="1308,-74 1161,-74 1161,-55 1308,-55 1308,-74"/>
<text text-anchor="middle" x="1234.5" y="-62" font-family="Helvetica,sans-Serif" font-size="10.00">SFML/Window/Joystick.hpp</text>
</a>
</g>
</g>
<!-- Node2&#45;&gt;Node17 -->
<g id="edge16_Node000002_Node000017" class="edge">
<title>Node2&#45;&gt;Node17</title>
<g id="a_edge16_Node000002_Node000017"><a xlink:title=" ">
<path fill="none" stroke="#63b8ff" d="M950.81,-109.98C1010.59,-100.61 1106.63,-85.55 1170.14,-75.59"/>
<polygon fill="#63b8ff" stroke="#63b8ff" points="1170.71,-79.05 1180.05,-74.04 1169.63,-72.13 1170.71,-79.05"/>
</a>
</g>
</g>
<!-- Node18 -->
<g id="Node000018" class="node">
<title>Node18</title>
<g id="a_Node000018"><a xlink:title=" ">
<polygon fill="#e0e0e0" stroke="#999999" points="1364.5,-74 1326.5,-74 1326.5,-55 1364.5,-55 1364.5,-74"/>
<text text-anchor="middle" x="1345.5" y="-62" font-family="Helvetica,sans-Serif" font-size="10.00">map</text>
</a>
</g>
</g>
<!-- Node2&#45;&gt;Node18 -->
<g id="edge17_Node000002_Node000018" class="edge">
<title>Node2&#45;&gt;Node18</title>
<g id="a_edge17_Node000002_Node000018"><a xlink:title=" ">
<path fill="none" stroke="#63b8ff" d="M985.83,-109.97C1092.2,-99.68 1261.49,-82.84 1316.42,-73.67"/>
<polygon fill="#63b8ff" stroke="#63b8ff" points="1317.15,-77.1 1326.34,-71.84 1315.87,-70.21 1317.15,-77.1"/>
</a>
</g>
</g>
<!-- Node4 -->
<g id="Node000004" class="node">
<title>Node4</title>
<g id="a_Node000004"><a xlink:title=" ">
<polygon fill="#e0e0e0" stroke="#999999" points="47,-19 0,-19 0,0 47,0 47,-19"/>
<text text-anchor="middle" x="23.5" y="-7" font-family="Helvetica,sans-Serif" font-size="10.00">queue</text>
</a>
</g>
</g>
<!-- Node3&#45;&gt;Node4 -->
<g id="edge3_Node000003_Node000004" class="edge">
<title>Node3&#45;&gt;Node4</title>
<g id="a_edge3_Node000003_Node000004"><a xlink:title=" ">
<path fill="none" stroke="#63b8ff" d="M218.57,-54.98C179.59,-46.77 119.02,-33.75 57.2,-19.1"/>
<polygon fill="#63b8ff" stroke="#63b8ff" points="57.81,-15.64 47.27,-16.73 56.18,-22.45 57.81,-15.64"/>
</a>
</g>
</g>
<!-- Node5 -->
<g id="Node000005" class="node">
<title>Node5</title>
<g id="a_Node000005"><a xlink:title=" ">
<polygon fill="#e0e0e0" stroke="#999999" points="115.5,-19 65.5,-19 65.5,0 115.5,0 115.5,-19"/>
<text text-anchor="middle" x="90.5" y="-7" font-family="Helvetica,sans-Serif" font-size="10.00">cstdint</text>
</a>
</g>
</g>
<!-- Node3&#45;&gt;Node5 -->
<g id="edge4_Node000003_Node000005" class="edge">
<title>Node3&#45;&gt;Node5</title>
<g id="a_edge4_Node000003_Node000005"><a xlink:title=" ">
<path fill="none" stroke="#63b8ff" d="M232.35,-54.98C203.3,-45.88 157.14,-31.4 125.41,-21.45"/>
<polygon fill="#63b8ff" stroke="#63b8ff" points="126.24,-18.04 115.65,-18.39 124.15,-24.72 126.24,-18.04"/>
</a>
</g>
</g>
<!-- Node6 -->
<g id="Node000006" class="node">
<title>Node6</title>
<g id="a_Node000006"><a xlink:title=" ">
<polygon fill="#e0e0e0" stroke="#999999" points="185.5,-19 133.5,-19 133.5,0 185.5,0 185.5,-19"/>
<text text-anchor="middle" x="159.5" y="-7" font-family="Helvetica,sans-Serif" font-size="10.00">cassert</text>
</a>
</g>
</g>
<!-- Node3&#45;&gt;Node6 -->
<g id="edge5_Node000003_Node000006" class="edge">
<title>Node3&#45;&gt;Node6</title>
<g id="a_edge5_Node000003_Node000006"><a xlink:title=" ">
<path fill="none" stroke="#63b8ff" d="M243.43,-54.98C227.64,-46.61 203.28,-33.7 184.87,-23.95"/>
<polygon fill="#63b8ff" stroke="#63b8ff" points="186.33,-20.76 175.86,-19.17 183.06,-26.95 186.33,-20.76"/>
</a>
</g>
</g>
<!-- Node7 -->
<g id="Node000007" class="node">
<title>Node7</title>
<g id="a_Node000007"><a xlink:title=" ">
<polygon fill="#e0e0e0" stroke="#999999" points="251,-19 204,-19 204,0 251,0 251,-19"/>
<text text-anchor="middle" x="227.5" y="-7" font-family="Helvetica,sans-Serif" font-size="10.00">vector</text>
</a>
</g>
</g>
<!-- Node3&#45;&gt;Node7 -->
<g id="edge6_Node000003_Node000007" class="edge">
<title>Node3&#45;&gt;Node7</title>
<g id="a_edge6_Node000003_Node000007"><a xlink:title=" ">
<path fill="none" stroke="#63b8ff" d="M254.22,-54.75C249.79,-47.42 243.34,-36.73 237.88,-27.7"/>
<polygon fill="#63b8ff" stroke="#63b8ff" points="240.85,-25.84 232.69,-19.09 234.86,-29.46 240.85,-25.84"/>
</a>
</g>
</g>
<!-- Node8 -->
<g id="Node000008" class="node">
<title>Node8</title>
<g id="a_Node000008"><a xlink:title=" ">
<polygon fill="#e0e0e0" stroke="#999999" points="313.5,-19 269.5,-19 269.5,0 313.5,0 313.5,-19"/>
<text text-anchor="middle" x="291.5" y="-7" font-family="Helvetica,sans-Serif" font-size="10.00">limits</text>
</a>
</g>
</g>
<!-- Node3&#45;&gt;Node8 -->
<g id="edge7_Node000003_Node000008" class="edge">
<title>Node3&#45;&gt;Node8</title>
<g id="a_edge7_Node000003_Node000008"><a xlink:title=" ">
<path fill="none" stroke="#63b8ff" d="M264.78,-54.75C269.21,-47.42 275.66,-36.73 281.12,-27.7"/>
<polygon fill="#63b8ff" stroke="#63b8ff" points="284.14,-29.46 286.31,-19.09 278.15,-25.84 284.14,-29.46"/>
</a>
</g>
</g>
<!-- Node9 -->
<g id="Node000009" class="node">
<title>Node9</title>
<g id="a_Node000009"><a xlink:title=" ">
<polygon fill="#e0e0e0" stroke="#999999" points="375.5,-19 331.5,-19 331.5,0 375.5,0 375.5,-19"/>
<text text-anchor="middle" x="353.5" y="-7" font-family="Helvetica,sans-Serif" font-size="10.00">bitset</text>
</a>
</g>
</g>
<!-- Node3&#45;&gt;Node9 -->
<g id="edge8_Node000003_Node000009" class="edge">
<title>Node3&#45;&gt;Node9</title>
<g id="a_edge8_Node000003_Node000009"><a xlink:title=" ">
<path fill="none" stroke="#63b8ff" d="M274.6,-54.98C289.32,-46.69 311.92,-33.94 329.17,-24.22"/>
<polygon fill="#63b8ff" stroke="#63b8ff" points="331.13,-27.13 338.12,-19.17 327.69,-21.03 331.13,-27.13"/>
</a>
</g>
</g>
<!-- Node10 -->
<g id="Node000010" class="node">
<title>Node10</title>
<g id="a_Node000010"><a xlink:title=" ">
<polygon fill="#e0e0e0" stroke="#999999" points="487,-19 394,-19 394,0 487,0 487,-19"/>
<text text-anchor="middle" x="440.5" y="-7" font-family="Helvetica,sans-Serif" font-size="10.00">unordered_map</text>
</a>
</g>
</g>
<!-- Node3&#45;&gt;Node10 -->
<g id="edge9_Node000003_Node000010" class="edge">
<title>Node3&#45;&gt;Node10</title>
<g id="a_edge9_Node000003_Node000010"><a xlink:title=" ">
<path fill="none" stroke="#63b8ff" d="M288.58,-54.98C319.1,-46.05 367.26,-31.94 401.16,-22.02"/>
<polygon fill="#63b8ff" stroke="#63b8ff" points="402.58,-25.25 411.19,-19.08 400.61,-18.53 402.58,-25.25"/>
</a>
</g>
</g>
<!-- Node12 -->
<g id="Node000012" class="node">
<title>Node12</title>
<g id="a_Node000012"><a xlink:title=" ">
<polygon fill="#e0e0e0" stroke="#999999" points="615.5,-19 505.5,-19 505.5,0 615.5,0 615.5,-19"/>
<text text-anchor="middle" x="560.5" y="-7" font-family="Helvetica,sans-Serif" font-size="10.00">SFML/Graphics.hpp</text>
</a>
</g>
</g>
<!-- Node11&#45;&gt;Node12 -->
<g id="edge11_Node000011_Node000012" class="edge">
<title>Node11&#45;&gt;Node12</title>
<g id="a_edge11_Node000011_Node000012"><a xlink:title=" ">
<path fill="none" stroke="#63b8ff" d="M560.5,-54.75C560.5,-47.8 560.5,-37.85 560.5,-29.13"/>
<polygon fill="#63b8ff" stroke="#63b8ff" points="564,-29.09 560.5,-19.09 557,-29.09 564,-29.09"/>
</a>
</g>
</g>
<!-- Node13 -->
<g id="Node000013" class="node">
<title>Node13</title>
<g id="a_Node000013"><a xlink:title=" ">
<polygon fill="#e0e0e0" stroke="#999999" points="677.5,-19 633.5,-19 633.5,0 677.5,0 677.5,-19"/>
<text text-anchor="middle" x="655.5" y="-7" font-family="Helvetica,sans-Serif" font-size="10.00">string</text>
</a>
</g>
</g>
<!-- Node11&#45;&gt;Node13 -->
<g id="edge12_Node000011_Node000013" class="edge">
<title>Node11&#45;&gt;Node13</title>
<g id="a_edge12_Node000011_Node000013"><a xlink:title=" ">
<path fill="none" stroke="#63b8ff" d="M575.76,-54.98C590.63,-46.69 613.48,-33.94 630.92,-24.22"/>
<polygon fill="#63b8ff" stroke="#63b8ff" points="632.93,-27.1 639.96,-19.17 629.52,-20.99 632.93,-27.1"/>
</a>
</g>
</g>
</g>
</svg>
