<?xml version="1.0" encoding="UTF-8" standalone="no"?>
<!DOCTYPE svg PUBLIC "-//W3C//DTD SVG 1.1//EN"
 "http://www.w3.org/Graphics/SVG/1.1/DTD/svg11.dtd">
<!-- Generated by graphviz version 2.43.0 (0)
 -->
<!-- Title: Factory::createProjectile Pages: 1 -->
<svg width="291pt" height="64pt"
 viewBox="0.00 0.00 291.00 64.00" xmlns="http://www.w3.org/2000/svg" xmlns:xlink="http://www.w3.org/1999/xlink">
<g id="graph0" class="graph" transform="scale(1 1) rotate(0) translate(4 60)">
<title>Factory::createProjectile</title>
<!-- Node1 -->
<g id="Node000001" class="node">
<title>Node1</title>
<g id="a_Node000001"><a xlink:title=" ">
<polygon fill="#999999" stroke="#666666" points="283,-37 149,-37 149,-18 283,-18 283,-37"/>
<text text-anchor="middle" x="216" y="-25" font-family="Helvetica,sans-Serif" font-size="10.00">Factory::createProjectile</text>
</a>
</g>
</g>
<!-- Node2 -->
<g id="Node000002" class="node">
<title>Node2</title>
<g id="a_Node000002"><a xlink:href="classClient.html#a643ed09341f07f8c81696741f2d2ca07" target="_top" xlink:title=" ">
<polygon fill="white" stroke="#666666" points="113,-56 0,-56 0,-37 113,-37 113,-56"/>
<text text-anchor="middle" x="56.5" y="-44" font-family="Helvetica,sans-Serif" font-size="10.00">Client::processInput</text>
</a>
</g>
</g>
<!-- Node1&#45;&gt;Node2 -->
<g id="edge1_Node000001_Node000002" class="edge">
<title>Node1&#45;&gt;Node2</title>
<g id="a_edge1_Node000001_Node000002"><a xlink:title=" ">
<path fill="none" stroke="#63b8ff" d="M138.67,-36.71C130.11,-37.74 121.53,-38.78 113.3,-39.77"/>
<polygon fill="#63b8ff" stroke="#63b8ff" points="139.15,-40.18 148.66,-35.5 138.32,-33.23 139.15,-40.18"/>
</a>
</g>
</g>
<!-- Node3 -->
<g id="Node000003" class="node">
<title>Node3</title>
<g id="a_Node000003"><a xlink:href="classServer.html#af7b0a4370ac2c1e573f292870adfa81c" target="_top" xlink:title=" ">
<polygon fill="white" stroke="#666666" points="100.5,-19 12.5,-19 12.5,0 100.5,0 100.5,-19"/>
<text text-anchor="middle" x="56.5" y="-7" font-family="Helvetica,sans-Serif" font-size="10.00">Server::update</text>
</a>
</g>
</g>
<!-- Node1&#45;&gt;Node3 -->
<g id="edge2_Node000001_Node000003" class="edge">
<title>Node1&#45;&gt;Node3</title>
<g id="a_edge2_Node000001_Node000003"><a xlink:title=" ">
<path fill="none" stroke="#63b8ff" d="M138.38,-18.74C125.5,-17.27 112.55,-15.79 100.9,-14.46"/>
<polygon fill="#63b8ff" stroke="#63b8ff" points="138.33,-22.26 148.66,-19.92 139.12,-15.31 138.33,-22.26"/>
</a>
</g>
</g>
</g>
</svg>
