<?xml version="1.0" encoding="UTF-8" standalone="no"?>
<!DOCTYPE svg PUBLIC "-//W3C//DTD SVG 1.1//EN"
 "http://www.w3.org/Graphics/SVG/1.1/DTD/svg11.dtd">
<!-- Generated by graphviz version 2.43.0 (0)
 -->
<!-- Title: src/server/NetworkManager.hpp Pages: 1 -->
<svg width="568pt" height="192pt"
 viewBox="0.00 0.00 568.00 192.00" xmlns="http://www.w3.org/2000/svg" xmlns:xlink="http://www.w3.org/1999/xlink">
<g id="graph0" class="graph" transform="scale(1 1) rotate(0) translate(4 188)">
<title>src/server/NetworkManager.hpp</title>
<!-- Node1 -->
<g id="Node000001" class="node">
<title>Node1</title>
<g id="a_Node000001"><a xlink:title=" ">
<polygon fill="#999999" stroke="#666666" points="305,-184 133,-184 133,-165 305,-165 305,-184"/>
<text text-anchor="middle" x="219" y="-172" font-family="Helvetica,sans-Serif" font-size="10.00">src/server/NetworkManager.hpp</text>
</a>
</g>
</g>
<!-- Node2 -->
<g id="Node000002" class="node">
<title>Node2</title>
<g id="a_Node000002"><a xlink:href="UdpReceiver_8hpp.html" target="_top" xlink:title=" ">
<polygon fill="white" stroke="#666666" points="217.5,-74 118.5,-74 118.5,-55 217.5,-55 217.5,-74"/>
<text text-anchor="middle" x="168" y="-62" font-family="Helvetica,sans-Serif" font-size="10.00">UdpReceiver.hpp</text>
</a>
</g>
</g>
<!-- Node1&#45;&gt;Node2 -->
<g id="edge1_Node000001_Node000002" class="edge">
<title>Node1&#45;&gt;Node2</title>
<g id="a_edge1_Node000001_Node000002"><a xlink:title=" ">
<path fill="none" stroke="#63b8ff" d="M214.83,-164.66C206.45,-146.93 187.47,-106.73 176.41,-83.32"/>
<polygon fill="#63b8ff" stroke="#63b8ff" points="179.52,-81.71 172.09,-74.16 173.19,-84.7 179.52,-81.71"/>
</a>
</g>
</g>
<!-- Node7 -->
<g id="Node000007" class="node">
<title>Node7</title>
<g id="a_Node000007"><a xlink:href="UdpSender_8hpp.html" target="_top" xlink:title=" ">
<polygon fill="white" stroke="#666666" points="122,-129 32,-129 32,-110 122,-110 122,-129"/>
<text text-anchor="middle" x="77" y="-117" font-family="Helvetica,sans-Serif" font-size="10.00">UdpSender.hpp</text>
</a>
</g>
</g>
<!-- Node1&#45;&gt;Node7 -->
<g id="edge6_Node000001_Node000007" class="edge">
<title>Node1&#45;&gt;Node7</title>
<g id="a_edge6_Node000001_Node000007"><a xlink:title=" ">
<path fill="none" stroke="#63b8ff" d="M196.19,-164.98C172.83,-156.27 136.3,-142.63 109.83,-132.75"/>
<polygon fill="#63b8ff" stroke="#63b8ff" points="110.82,-129.39 100.23,-129.17 108.37,-135.95 110.82,-129.39"/>
</a>
</g>
</g>
<!-- Node9 -->
<g id="Node000009" class="node">
<title>Node9</title>
<g id="a_Node000009"><a xlink:href="PacketInterpreter_8hpp.html" target="_top" xlink:title=" ">
<polygon fill="white" stroke="#666666" points="337,-129 217,-129 217,-110 337,-110 337,-129"/>
<text text-anchor="middle" x="277" y="-117" font-family="Helvetica,sans-Serif" font-size="10.00">PacketInterpreter.hpp</text>
</a>
</g>
</g>
<!-- Node1&#45;&gt;Node9 -->
<g id="edge9_Node000001_Node000009" class="edge">
<title>Node1&#45;&gt;Node9</title>
<g id="a_edge9_Node000001_Node000009"><a xlink:title=" ">
<path fill="none" stroke="#63b8ff" d="M228.32,-164.98C236.81,-157.23 249.56,-145.58 259.88,-136.14"/>
<polygon fill="#63b8ff" stroke="#63b8ff" points="262.49,-138.5 267.51,-129.17 257.77,-133.33 262.49,-138.5"/>
</a>
</g>
</g>
<!-- Node11 -->
<g id="Node000011" class="node">
<title>Node11</title>
<g id="a_Node000011"><a xlink:href="GameLoop_8hpp.html" target="_top" xlink:title=" ">
<polygon fill="white" stroke="#666666" points="462,-129 372,-129 372,-110 462,-110 462,-129"/>
<text text-anchor="middle" x="417" y="-117" font-family="Helvetica,sans-Serif" font-size="10.00">GameLoop.hpp</text>
</a>
</g>
</g>
<!-- Node1&#45;&gt;Node11 -->
<g id="edge15_Node000001_Node000011" class="edge">
<title>Node1&#45;&gt;Node11</title>
<g id="a_edge15_Node000001_Node000011"><a xlink:title=" ">
<path fill="none" stroke="#63b8ff" d="M250.81,-164.98C284.49,-155.97 337.8,-141.7 374.92,-131.76"/>
<polygon fill="#63b8ff" stroke="#63b8ff" points="376.18,-135.05 384.94,-129.08 374.37,-128.29 376.18,-135.05"/>
</a>
</g>
</g>
<!-- Node3 -->
<g id="Node000003" class="node">
<title>Node3</title>
<g id="a_Node000003"><a xlink:title=" ">
<polygon fill="#e0e0e0" stroke="#999999" points="108,-19 0,-19 0,0 108,0 108,-19"/>
<text text-anchor="middle" x="54" y="-7" font-family="Helvetica,sans-Serif" font-size="10.00">SFML/Network.hpp</text>
</a>
</g>
</g>
<!-- Node2&#45;&gt;Node3 -->
<g id="edge2_Node000002_Node000003" class="edge">
<title>Node2&#45;&gt;Node3</title>
<g id="a_edge2_Node000002_Node000003"><a xlink:title=" ">
<path fill="none" stroke="#63b8ff" d="M149.68,-54.98C131.34,-46.46 102.89,-33.23 81.77,-23.41"/>
<polygon fill="#63b8ff" stroke="#63b8ff" points="83.19,-20.21 72.65,-19.17 80.24,-26.56 83.19,-20.21"/>
</a>
</g>
</g>
<!-- Node4 -->
<g id="Node000004" class="node">
<title>Node4</title>
<g id="a_Node000004"><a xlink:title=" ">
<polygon fill="#e0e0e0" stroke="#999999" points="268.5,-19 221.5,-19 221.5,0 268.5,0 268.5,-19"/>
<text text-anchor="middle" x="245" y="-7" font-family="Helvetica,sans-Serif" font-size="10.00">queue</text>
</a>
</g>
</g>
<!-- Node2&#45;&gt;Node4 -->
<g id="edge3_Node000002_Node000004" class="edge">
<title>Node2&#45;&gt;Node4</title>
<g id="a_edge3_Node000002_Node000004"><a xlink:title=" ">
<path fill="none" stroke="#63b8ff" d="M180.37,-54.98C192.09,-46.92 209.92,-34.65 223.89,-25.03"/>
<polygon fill="#63b8ff" stroke="#63b8ff" points="226.15,-27.72 232.4,-19.17 222.18,-21.96 226.15,-27.72"/>
</a>
</g>
</g>
<!-- Node5 -->
<g id="Node000005" class="node">
<title>Node5</title>
<g id="a_Node000005"><a xlink:title=" ">
<polygon fill="#e0e0e0" stroke="#999999" points="346,-19 298,-19 298,0 346,0 346,-19"/>
<text text-anchor="middle" x="322" y="-7" font-family="Helvetica,sans-Serif" font-size="10.00">thread</text>
</a>
</g>
</g>
<!-- Node2&#45;&gt;Node5 -->
<g id="edge4_Node000002_Node000005" class="edge">
<title>Node2&#45;&gt;Node5</title>
<g id="a_edge4_Node000002_Node000005"><a xlink:title=" ">
<path fill="none" stroke="#63b8ff" d="M192.74,-54.98C218.6,-46.09 259.35,-32.06 288.17,-22.14"/>
<polygon fill="#63b8ff" stroke="#63b8ff" points="289.51,-25.38 297.83,-18.82 287.23,-18.76 289.51,-25.38"/>
</a>
</g>
</g>
<!-- Node6 -->
<g id="Node000006" class="node">
<title>Node6</title>
<g id="a_Node000006"><a xlink:title=" ">
<polygon fill="#e0e0e0" stroke="#999999" points="197,-19 149,-19 149,0 197,0 197,-19"/>
<text text-anchor="middle" x="173" y="-7" font-family="Helvetica,sans-Serif" font-size="10.00">mutex</text>
</a>
</g>
</g>
<!-- Node2&#45;&gt;Node6 -->
<g id="edge5_Node000002_Node000006" class="edge">
<title>Node2&#45;&gt;Node6</title>
<g id="a_edge5_Node000002_Node000006"><a xlink:title=" ">
<path fill="none" stroke="#63b8ff" d="M168.83,-54.75C169.48,-47.8 170.42,-37.85 171.24,-29.13"/>
<polygon fill="#63b8ff" stroke="#63b8ff" points="174.73,-29.37 172.19,-19.09 167.77,-28.72 174.73,-29.37"/>
</a>
</g>
</g>
<!-- Node7&#45;&gt;Node3 -->
<g id="edge7_Node000007_Node000003" class="edge">
<title>Node7&#45;&gt;Node3</title>
<g id="a_edge7_Node000007_Node000003"><a xlink:title=" ">
<path fill="none" stroke="#63b8ff" d="M67.98,-109.96C59.93,-101.66 48.71,-88.25 44,-74 39.13,-59.26 42.5,-41.8 46.6,-28.92"/>
<polygon fill="#63b8ff" stroke="#63b8ff" points="49.95,-29.93 50.05,-19.34 43.37,-27.56 49.95,-29.93"/>
</a>
</g>
</g>
<!-- Node8 -->
<g id="Node000008" class="node">
<title>Node8</title>
<g id="a_Node000008"><a xlink:title=" ">
<polygon fill="#e0e0e0" stroke="#999999" points="100.5,-74 53.5,-74 53.5,-55 100.5,-55 100.5,-74"/>
<text text-anchor="middle" x="77" y="-62" font-family="Helvetica,sans-Serif" font-size="10.00">vector</text>
</a>
</g>
</g>
<!-- Node7&#45;&gt;Node8 -->
<g id="edge8_Node000007_Node000008" class="edge">
<title>Node7&#45;&gt;Node8</title>
<g id="a_edge8_Node000007_Node000008"><a xlink:title=" ">
<path fill="none" stroke="#63b8ff" d="M77,-109.75C77,-102.8 77,-92.85 77,-84.13"/>
<polygon fill="#63b8ff" stroke="#63b8ff" points="80.5,-84.09 77,-74.09 73.5,-84.09 80.5,-84.09"/>
</a>
</g>
</g>
<!-- Node9&#45;&gt;Node2 -->
<g id="edge10_Node000009_Node000002" class="edge">
<title>Node9&#45;&gt;Node2</title>
<g id="a_edge10_Node000009_Node000002"><a xlink:title=" ">
<path fill="none" stroke="#63b8ff" d="M259.49,-109.98C242.03,-101.5 214.99,-88.35 194.83,-78.54"/>
<polygon fill="#63b8ff" stroke="#63b8ff" points="196.36,-75.4 185.83,-74.17 193.29,-81.69 196.36,-75.4"/>
</a>
</g>
</g>
<!-- Node9&#45;&gt;Node4 -->
<g id="edge13_Node000009_Node000004" class="edge">
<title>Node9&#45;&gt;Node4</title>
<g id="a_edge13_Node000009_Node000004"><a xlink:title=" ">
<path fill="none" stroke="#63b8ff" d="M274.86,-109.82C271.8,-97.55 265.87,-74.45 260,-55 257.38,-46.32 254.2,-36.78 251.45,-28.76"/>
<polygon fill="#63b8ff" stroke="#63b8ff" points="254.75,-27.6 248.15,-19.31 248.14,-29.91 254.75,-27.6"/>
</a>
</g>
</g>
<!-- Node9&#45;&gt;Node5 -->
<g id="edge11_Node000009_Node000005" class="edge">
<title>Node9&#45;&gt;Node5</title>
<g id="a_edge11_Node000009_Node000005"><a xlink:title=" ">
<path fill="none" stroke="#63b8ff" d="M280.68,-109.66C288.04,-92.01 304.67,-52.09 314.44,-28.64"/>
<polygon fill="#63b8ff" stroke="#63b8ff" points="317.78,-29.74 318.39,-19.16 311.32,-27.04 317.78,-29.74"/>
</a>
</g>
</g>
<!-- Node9&#45;&gt;Node6 -->
<g id="edge14_Node000009_Node000006" class="edge">
<title>Node9&#45;&gt;Node6</title>
<g id="a_edge14_Node000009_Node000006"><a xlink:title=" ">
<path fill="none" stroke="#63b8ff" d="M270.89,-109.84C261.78,-97.19 243.8,-73.19 226,-55 215.63,-44.4 202.94,-33.68 192.57,-25.41"/>
<polygon fill="#63b8ff" stroke="#63b8ff" points="194.55,-22.51 184.52,-19.11 190.23,-28.03 194.55,-22.51"/>
</a>
</g>
</g>
<!-- Node10 -->
<g id="Node000010" class="node">
<title>Node10</title>
<g id="a_Node000010"><a xlink:title=" ">
<polygon fill="#e0e0e0" stroke="#999999" points="400,-74 350,-74 350,-55 400,-55 400,-74"/>
<text text-anchor="middle" x="375" y="-62" font-family="Helvetica,sans-Serif" font-size="10.00">atomic</text>
</a>
</g>
</g>
<!-- Node9&#45;&gt;Node10 -->
<g id="edge12_Node000009_Node000010" class="edge">
<title>Node9&#45;&gt;Node10</title>
<g id="a_edge12_Node000009_Node000010"><a xlink:title=" ">
<path fill="none" stroke="#63b8ff" d="M292.75,-109.98C308.23,-101.61 332.09,-88.7 350.14,-78.95"/>
<polygon fill="#63b8ff" stroke="#63b8ff" points="351.84,-82.01 358.97,-74.17 348.51,-75.85 351.84,-82.01"/>
</a>
</g>
</g>
<!-- Node11&#45;&gt;Node5 -->
<g id="edge18_Node000011_Node000005" class="edge">
<title>Node11&#45;&gt;Node5</title>
<g id="a_edge18_Node000011_Node000005"><a xlink:title=" ">
<path fill="none" stroke="#63b8ff" d="M418.29,-109.8C419.76,-96.67 420.61,-71.56 409,-55 396.45,-37.1 374.49,-25.95 355.78,-19.28"/>
<polygon fill="#63b8ff" stroke="#63b8ff" points="356.67,-15.89 346.08,-16.11 354.49,-22.55 356.67,-15.89"/>
</a>
</g>
</g>
<!-- Node11&#45;&gt;Node10 -->
<g id="edge17_Node000011_Node000010" class="edge">
<title>Node11&#45;&gt;Node10</title>
<g id="a_edge17_Node000011_Node000010"><a xlink:title=" ">
<path fill="none" stroke="#63b8ff" d="M410.06,-109.75C404.13,-102.26 395.43,-91.28 388.18,-82.13"/>
<polygon fill="#63b8ff" stroke="#63b8ff" points="390.76,-79.75 381.81,-74.09 385.27,-84.1 390.76,-79.75"/>
</a>
</g>
</g>
<!-- Node12 -->
<g id="Node000012" class="node">
<title>Node12</title>
<g id="a_Node000012"><a xlink:title=" ">
<polygon fill="#e0e0e0" stroke="#999999" points="560,-74 456,-74 456,-55 560,-55 560,-74"/>
<text text-anchor="middle" x="508" y="-62" font-family="Helvetica,sans-Serif" font-size="10.00">SFML/System.hpp</text>
</a>
</g>
</g>
<!-- Node11&#45;&gt;Node12 -->
<g id="edge16_Node000011_Node000012" class="edge">
<title>Node11&#45;&gt;Node12</title>
<g id="a_edge16_Node000011_Node000012"><a xlink:title=" ">
<path fill="none" stroke="#63b8ff" d="M431.62,-109.98C445.86,-101.69 467.75,-88.94 484.45,-79.22"/>
<polygon fill="#63b8ff" stroke="#63b8ff" points="486.23,-82.23 493.11,-74.17 482.71,-76.18 486.23,-82.23"/>
</a>
</g>
</g>
</g>
</svg>
