<?xml version="1.0" encoding="UTF-8" standalone="no"?>
<!DOCTYPE svg PUBLIC "-//W3C//DTD SVG 1.1//EN"
 "http://www.w3.org/Graphics/SVG/1.1/DTD/svg11.dtd">
<!-- Generated by graphviz version 2.43.0 (0)
 -->
<!-- Title: include/network/NetworkProtocol.hpp Pages: 1 -->
<svg width="556pt" height="137pt"
 viewBox="0.00 0.00 555.50 137.00" xmlns="http://www.w3.org/2000/svg" xmlns:xlink="http://www.w3.org/1999/xlink">
<g id="graph0" class="graph" transform="scale(1 1) rotate(0) translate(4 133)">
<title>include/network/NetworkProtocol.hpp</title>
<!-- Node1 -->
<g id="Node000001" class="node">
<title>Node1</title>
<g id="a_Node000001"><a xlink:title=" ">
<polygon fill="#999999" stroke="#666666" points="399,-129 199,-129 199,-110 399,-110 399,-129"/>
<text text-anchor="middle" x="299" y="-117" font-family="Helvetica,sans-Serif" font-size="10.00">include/network/NetworkProtocol.hpp</text>
</a>
</g>
</g>
<!-- Node2 -->
<g id="Node000002" class="node">
<title>Node2</title>
<g id="a_Node000002"><a xlink:href="UdpClient_8hpp.html" target="_top" xlink:title=" ">
<polygon fill="white" stroke="#666666" points="215.5,-74 48.5,-74 48.5,-55 215.5,-55 215.5,-74"/>
<text text-anchor="middle" x="132" y="-62" font-family="Helvetica,sans-Serif" font-size="10.00">include/network/UdpClient.hpp</text>
</a>
</g>
</g>
<!-- Node1&#45;&gt;Node2 -->
<g id="edge1_Node000001_Node000002" class="edge">
<title>Node1&#45;&gt;Node2</title>
<g id="a_edge1_Node000001_Node000002"><a xlink:title=" ">
<path fill="none" stroke="#63b8ff" d="M262.54,-106.93C231.34,-97.03 187.16,-83.01 159.04,-74.08"/>
<polygon fill="#63b8ff" stroke="#63b8ff" points="261.58,-110.3 272.17,-109.98 263.7,-103.62 261.58,-110.3"/>
</a>
</g>
</g>
<!-- Node4 -->
<g id="Node000004" class="node">
<title>Node4</title>
<g id="a_Node000004"><a xlink:href="client_2main_8cpp.html" target="_top" xlink:title=" ">
<polygon fill="white" stroke="#666666" points="259.5,-19 150.5,-19 150.5,0 259.5,0 259.5,-19"/>
<text text-anchor="middle" x="205" y="-7" font-family="Helvetica,sans-Serif" font-size="10.00">src/client/main.cpp</text>
</a>
</g>
</g>
<!-- Node1&#45;&gt;Node4 -->
<g id="edge7_Node000001_Node000004" class="edge">
<title>Node1&#45;&gt;Node4</title>
<g id="a_edge7_Node000001_Node000004"><a xlink:title=" ">
<path fill="none" stroke="#63b8ff" d="M284.64,-102C264.39,-78.73 228.18,-37.13 212.54,-19.16"/>
<polygon fill="#63b8ff" stroke="#63b8ff" points="282.1,-104.42 291.31,-109.66 287.38,-99.82 282.1,-104.42"/>
</a>
</g>
</g>
<!-- Node5 -->
<g id="Node000005" class="node">
<title>Node5</title>
<g id="a_Node000005"><a xlink:href="UdpServer_8hpp.html" target="_top" xlink:title=" ">
<polygon fill="white" stroke="#666666" points="439.5,-74 270.5,-74 270.5,-55 439.5,-55 439.5,-74"/>
<text text-anchor="middle" x="355" y="-62" font-family="Helvetica,sans-Serif" font-size="10.00">include/network/UdpServer.hpp</text>
</a>
</g>
</g>
<!-- Node1&#45;&gt;Node5 -->
<g id="edge4_Node000001_Node000005" class="edge">
<title>Node1&#45;&gt;Node5</title>
<g id="a_edge4_Node000001_Node000005"><a xlink:title=" ">
<path fill="none" stroke="#63b8ff" d="M315.33,-103.04C325.26,-93.64 337.59,-81.98 345.84,-74.17"/>
<polygon fill="#63b8ff" stroke="#63b8ff" points="312.85,-100.57 308,-109.98 317.67,-105.65 312.85,-100.57"/>
</a>
</g>
</g>
<!-- Node7 -->
<g id="Node000007" class="node">
<title>Node7</title>
<g id="a_Node000007"><a xlink:href="server_2main_8cpp.html" target="_top" xlink:title=" ">
<polygon fill="white" stroke="#666666" points="547.5,-19 434.5,-19 434.5,0 547.5,0 547.5,-19"/>
<text text-anchor="middle" x="491" y="-7" font-family="Helvetica,sans-Serif" font-size="10.00">src/server/main.cpp</text>
</a>
</g>
</g>
<!-- Node1&#45;&gt;Node7 -->
<g id="edge8_Node000001_Node000007" class="edge">
<title>Node1&#45;&gt;Node7</title>
<g id="a_edge8_Node000001_Node000007"><a xlink:title=" ">
<path fill="none" stroke="#63b8ff" d="M370.12,-107.67C396.42,-101.1 425.32,-90.64 448,-74 467.75,-59.51 481.33,-33.05 487.4,-19.3"/>
<polygon fill="#63b8ff" stroke="#63b8ff" points="369.12,-104.3 360.19,-109.99 370.72,-111.12 369.12,-104.3"/>
</a>
</g>
</g>
<!-- Node3 -->
<g id="Node000003" class="node">
<title>Node3</title>
<g id="a_Node000003"><a xlink:href="UdpClient_8cpp.html" target="_top" xlink:title=" ">
<polygon fill="white" stroke="#666666" points="132,-19 0,-19 0,0 132,0 132,-19"/>
<text text-anchor="middle" x="66" y="-7" font-family="Helvetica,sans-Serif" font-size="10.00">src/client/UdpClient.cpp</text>
</a>
</g>
</g>
<!-- Node2&#45;&gt;Node3 -->
<g id="edge2_Node000002_Node000003" class="edge">
<title>Node2&#45;&gt;Node3</title>
<g id="a_edge2_Node000002_Node000003"><a xlink:title=" ">
<path fill="none" stroke="#63b8ff" d="M113.45,-48.6C101.62,-39.11 86.71,-27.13 76.8,-19.17"/>
<polygon fill="#63b8ff" stroke="#63b8ff" points="111.41,-51.45 121.4,-54.98 115.79,-45.99 111.41,-51.45"/>
</a>
</g>
</g>
<!-- Node2&#45;&gt;Node4 -->
<g id="edge3_Node000002_Node000004" class="edge">
<title>Node2&#45;&gt;Node4</title>
<g id="a_edge3_Node000002_Node000004"><a xlink:title=" ">
<path fill="none" stroke="#63b8ff" d="M152.14,-48.88C165.28,-39.34 181.98,-27.21 193.06,-19.17"/>
<polygon fill="#63b8ff" stroke="#63b8ff" points="149.76,-46.28 143.73,-54.98 153.88,-51.94 149.76,-46.28"/>
</a>
</g>
</g>
<!-- Node6 -->
<g id="Node000006" class="node">
<title>Node6</title>
<g id="a_Node000006"><a xlink:href="UdpServer_8cpp.html" target="_top" xlink:title=" ">
<polygon fill="white" stroke="#666666" points="416,-19 278,-19 278,0 416,0 416,-19"/>
<text text-anchor="middle" x="347" y="-7" font-family="Helvetica,sans-Serif" font-size="10.00">src/server/UdpServer.cpp</text>
</a>
</g>
</g>
<!-- Node5&#45;&gt;Node6 -->
<g id="edge5_Node000005_Node000006" class="edge">
<title>Node5&#45;&gt;Node6</title>
<g id="a_edge5_Node000005_Node000006"><a xlink:title=" ">
<path fill="none" stroke="#63b8ff" d="M352.16,-44.66C350.84,-35.93 349.34,-25.99 348.3,-19.09"/>
<polygon fill="#63b8ff" stroke="#63b8ff" points="348.73,-45.38 353.68,-54.75 355.65,-44.34 348.73,-45.38"/>
</a>
</g>
</g>
<!-- Node5&#45;&gt;Node7 -->
<g id="edge6_Node000005_Node000007" class="edge">
<title>Node5&#45;&gt;Node7</title>
<g id="a_edge6_Node000005_Node000007"><a xlink:title=" ">
<path fill="none" stroke="#63b8ff" d="M386.33,-51.29C411.54,-41.47 446.33,-27.91 468.75,-19.17"/>
<polygon fill="#63b8ff" stroke="#63b8ff" points="384.9,-48.09 376.85,-54.98 387.44,-54.61 384.9,-48.09"/>
</a>
</g>
</g>
</g>
</svg>
