<?xml version="1.0" encoding="UTF-8" standalone="no"?>
<!DOCTYPE svg PUBLIC "-//W3C//DTD SVG 1.1//EN"
 "http://www.w3.org/Graphics/SVG/1.1/DTD/svg11.dtd">
<!-- Generated by graphviz version 2.43.0 (0)
 -->
<!-- Title: src/server/PacketInterpreter.hpp Pages: 1 -->
<svg width="340pt" height="137pt"
 viewBox="0.00 0.00 339.50 137.00" xmlns="http://www.w3.org/2000/svg" xmlns:xlink="http://www.w3.org/1999/xlink">
<g id="graph0" class="graph" transform="scale(1 1) rotate(0) translate(4 133)">
<title>src/server/PacketInterpreter.hpp</title>
<!-- Node1 -->
<g id="Node000001" class="node">
<title>Node1</title>
<g id="a_Node000001"><a xlink:title=" ">
<polygon fill="#999999" stroke="#666666" points="301,-129 130,-129 130,-110 301,-110 301,-129"/>
<text text-anchor="middle" x="215.5" y="-117" font-family="Helvetica,sans-Serif" font-size="10.00">src/server/PacketInterpreter.hpp</text>
</a>
</g>
</g>
<!-- Node2 -->
<g id="Node000002" class="node">
<title>Node2</title>
<g id="a_Node000002"><a xlink:href="UdpReceiver_8hpp.html" target="_top" xlink:title=" ">
<polygon fill="white" stroke="#666666" points="187,-74 88,-74 88,-55 187,-55 187,-74"/>
<text text-anchor="middle" x="137.5" y="-62" font-family="Helvetica,sans-Serif" font-size="10.00">UdpReceiver.hpp</text>
</a>
</g>
</g>
<!-- Node1&#45;&gt;Node2 -->
<g id="edge1_Node000001_Node000002" class="edge">
<title>Node1&#45;&gt;Node2</title>
<g id="a_edge1_Node000001_Node000002"><a xlink:title=" ">
<path fill="none" stroke="#63b8ff" d="M202.97,-109.98C191.1,-101.92 173.04,-89.65 158.89,-80.03"/>
<polygon fill="#63b8ff" stroke="#63b8ff" points="160.5,-76.9 150.26,-74.17 156.56,-82.69 160.5,-76.9"/>
</a>
</g>
</g>
<!-- Node4 -->
<g id="Node000004" class="node">
<title>Node4</title>
<g id="a_Node000004"><a xlink:title=" ">
<polygon fill="#e0e0e0" stroke="#999999" points="47,-19 0,-19 0,0 47,0 47,-19"/>
<text text-anchor="middle" x="23.5" y="-7" font-family="Helvetica,sans-Serif" font-size="10.00">queue</text>
</a>
</g>
</g>
<!-- Node1&#45;&gt;Node4 -->
<g id="edge8_Node000001_Node000004" class="edge">
<title>Node1&#45;&gt;Node4</title>
<g id="a_edge8_Node000001_Node000004"><a xlink:title=" ">
<path fill="none" stroke="#63b8ff" d="M168.94,-109.98C141.04,-103.33 105.8,-92.1 78.5,-74 60.15,-61.83 44.32,-41.94 34.42,-27.66"/>
<polygon fill="#63b8ff" stroke="#63b8ff" points="37.25,-25.61 28.8,-19.22 31.43,-29.49 37.25,-25.61"/>
</a>
</g>
</g>
<!-- Node5 -->
<g id="Node000005" class="node">
<title>Node5</title>
<g id="a_Node000005"><a xlink:title=" ">
<polygon fill="#e0e0e0" stroke="#999999" points="239.5,-19 191.5,-19 191.5,0 239.5,0 239.5,-19"/>
<text text-anchor="middle" x="215.5" y="-7" font-family="Helvetica,sans-Serif" font-size="10.00">thread</text>
</a>
</g>
</g>
<!-- Node1&#45;&gt;Node5 -->
<g id="edge6_Node000001_Node000005" class="edge">
<title>Node1&#45;&gt;Node5</title>
<g id="a_edge6_Node000001_Node000005"><a xlink:title=" ">
<path fill="none" stroke="#63b8ff" d="M215.5,-109.66C215.5,-92.17 215.5,-52.8 215.5,-29.27"/>
<polygon fill="#63b8ff" stroke="#63b8ff" points="219,-29.16 215.5,-19.16 212,-29.16 219,-29.16"/>
</a>
</g>
</g>
<!-- Node6 -->
<g id="Node000006" class="node">
<title>Node6</title>
<g id="a_Node000006"><a xlink:title=" ">
<polygon fill="#e0e0e0" stroke="#999999" points="305.5,-19 257.5,-19 257.5,0 305.5,0 305.5,-19"/>
<text text-anchor="middle" x="281.5" y="-7" font-family="Helvetica,sans-Serif" font-size="10.00">mutex</text>
</a>
</g>
</g>
<!-- Node1&#45;&gt;Node6 -->
<g id="edge9_Node000001_Node000006" class="edge">
<title>Node1&#45;&gt;Node6</title>
<g id="a_edge9_Node000001_Node000006"><a xlink:title=" ">
<path fill="none" stroke="#63b8ff" d="M220.9,-109.66C231.83,-91.77 256.75,-51 270.99,-27.69"/>
<polygon fill="#63b8ff" stroke="#63b8ff" points="273.98,-29.52 276.21,-19.16 268.01,-25.87 273.98,-29.52"/>
</a>
</g>
</g>
<!-- Node7 -->
<g id="Node000007" class="node">
<title>Node7</title>
<g id="a_Node000007"><a xlink:title=" ">
<polygon fill="#e0e0e0" stroke="#999999" points="331.5,-74 281.5,-74 281.5,-55 331.5,-55 331.5,-74"/>
<text text-anchor="middle" x="306.5" y="-62" font-family="Helvetica,sans-Serif" font-size="10.00">atomic</text>
</a>
</g>
</g>
<!-- Node1&#45;&gt;Node7 -->
<g id="edge7_Node000001_Node000007" class="edge">
<title>Node1&#45;&gt;Node7</title>
<g id="a_edge7_Node000001_Node000007"><a xlink:title=" ">
<path fill="none" stroke="#63b8ff" d="M230.12,-109.98C244.36,-101.69 266.25,-88.94 282.95,-79.22"/>
<polygon fill="#63b8ff" stroke="#63b8ff" points="284.73,-82.23 291.61,-74.17 281.21,-76.18 284.73,-82.23"/>
</a>
</g>
</g>
<!-- Node3 -->
<g id="Node000003" class="node">
<title>Node3</title>
<g id="a_Node000003"><a xlink:title=" ">
<polygon fill="#e0e0e0" stroke="#999999" points="173.5,-19 65.5,-19 65.5,0 173.5,0 173.5,-19"/>
<text text-anchor="middle" x="119.5" y="-7" font-family="Helvetica,sans-Serif" font-size="10.00">SFML/Network.hpp</text>
</a>
</g>
</g>
<!-- Node2&#45;&gt;Node3 -->
<g id="edge2_Node000002_Node000003" class="edge">
<title>Node2&#45;&gt;Node3</title>
<g id="a_edge2_Node000002_Node000003"><a xlink:title=" ">
<path fill="none" stroke="#63b8ff" d="M134.53,-54.75C132.14,-47.72 128.71,-37.62 125.73,-28.84"/>
<polygon fill="#63b8ff" stroke="#63b8ff" points="128.95,-27.43 122.42,-19.09 122.32,-29.68 128.95,-27.43"/>
</a>
</g>
</g>
<!-- Node2&#45;&gt;Node4 -->
<g id="edge3_Node000002_Node000004" class="edge">
<title>Node2&#45;&gt;Node4</title>
<g id="a_edge3_Node000002_Node000004"><a xlink:title=" ">
<path fill="none" stroke="#63b8ff" d="M119.18,-54.98C100.84,-46.46 72.39,-33.23 51.27,-23.41"/>
<polygon fill="#63b8ff" stroke="#63b8ff" points="52.69,-20.21 42.15,-19.17 49.74,-26.56 52.69,-20.21"/>
</a>
</g>
</g>
<!-- Node2&#45;&gt;Node5 -->
<g id="edge4_Node000002_Node000005" class="edge">
<title>Node2&#45;&gt;Node5</title>
<g id="a_edge4_Node000002_Node000005"><a xlink:title=" ">
<path fill="none" stroke="#63b8ff" d="M150.03,-54.98C161.9,-46.92 179.96,-34.65 194.11,-25.03"/>
<polygon fill="#63b8ff" stroke="#63b8ff" points="196.44,-27.69 202.74,-19.17 192.5,-21.9 196.44,-27.69"/>
</a>
</g>
</g>
<!-- Node2&#45;&gt;Node6 -->
<g id="edge5_Node000002_Node000006" class="edge">
<title>Node2&#45;&gt;Node6</title>
<g id="a_edge5_Node000002_Node000006"><a xlink:title=" ">
<path fill="none" stroke="#63b8ff" d="M160.64,-54.98C184.32,-46.27 221.37,-32.63 248.21,-22.75"/>
<polygon fill="#63b8ff" stroke="#63b8ff" points="249.77,-25.91 257.94,-19.17 247.35,-19.34 249.77,-25.91"/>
</a>
</g>
</g>
</g>
</svg>
