<?xml version="1.0" encoding="UTF-8" standalone="no"?>
<!DOCTYPE svg PUBLIC "-//W3C//DTD SVG 1.1//EN"
 "http://www.w3.org/Graphics/SVG/1.1/DTD/svg11.dtd">
<!-- Generated by graphviz version 2.43.0 (0)
 -->
<!-- Title: src/server/main.cpp Pages: 1 -->
<svg width="1106pt" height="192pt"
 viewBox="0.00 0.00 1105.50 192.00" xmlns="http://www.w3.org/2000/svg" xmlns:xlink="http://www.w3.org/1999/xlink">
<g id="graph0" class="graph" transform="scale(1 1) rotate(0) translate(4 188)">
<title>src/server/main.cpp</title>
<!-- Node1 -->
<g id="Node000001" class="node">
<title>Node1</title>
<g id="a_Node000001"><a xlink:title=" ">
<polygon fill="#999999" stroke="#666666" points="837,-184 724,-184 724,-165 837,-165 837,-184"/>
<text text-anchor="middle" x="780.5" y="-172" font-family="Helvetica,sans-Serif" font-size="10.00">src/server/main.cpp</text>
</a>
</g>
</g>
<!-- Node2 -->
<g id="Node000002" class="node">
<title>Node2</title>
<g id="a_Node000002"><a xlink:href="UdpServer_8hpp.html" target="_top" xlink:title=" ">
<polygon fill="white" stroke="#666666" points="503,-129 372,-129 372,-110 503,-110 503,-129"/>
<text text-anchor="middle" x="437.5" y="-117" font-family="Helvetica,sans-Serif" font-size="10.00">network/UdpServer.hpp</text>
</a>
</g>
</g>
<!-- Node1&#45;&gt;Node2 -->
<g id="edge1_Node000001_Node000002" class="edge">
<title>Node1&#45;&gt;Node2</title>
<g id="a_edge1_Node000001_Node000002"><a xlink:title=" ">
<path fill="none" stroke="#63b8ff" d="M725.39,-164.98C664.72,-155.61 567.26,-140.55 502.81,-130.59"/>
<polygon fill="#63b8ff" stroke="#63b8ff" points="503.17,-127.11 492.76,-129.04 502.1,-134.02 503.17,-127.11"/>
</a>
</g>
</g>
<!-- Node5 -->
<g id="Node000005" class="node">
<title>Node5</title>
<g id="a_Node000005"><a xlink:title=" ">
<polygon fill="#e0e0e0" stroke="#999999" points="931.5,-19 883.5,-19 883.5,0 931.5,0 931.5,-19"/>
<text text-anchor="middle" x="907.5" y="-7" font-family="Helvetica,sans-Serif" font-size="10.00">mutex</text>
</a>
</g>
</g>
<!-- Node1&#45;&gt;Node5 -->
<g id="edge30_Node000001_Node000005" class="edge">
<title>Node1&#45;&gt;Node5</title>
<g id="a_edge30_Node000001_Node000005"><a xlink:title=" ">
<path fill="none" stroke="#63b8ff" d="M800.51,-164.9C830.07,-150.9 884.02,-120.04 903.5,-74 909.49,-59.84 910.15,-42.3 909.5,-29.25"/>
<polygon fill="#63b8ff" stroke="#63b8ff" points="912.98,-28.82 908.7,-19.13 906,-29.37 912.98,-28.82"/>
</a>
</g>
</g>
<!-- Node7 -->
<g id="Node000007" class="node">
<title>Node7</title>
<g id="a_Node000007"><a xlink:href="NetworkProtocol_8hpp.html" target="_top" xlink:title=" ">
<polygon fill="white" stroke="#666666" points="119,-74 0,-74 0,-55 119,-55 119,-74"/>
<text text-anchor="middle" x="59.5" y="-62" font-family="Helvetica,sans-Serif" font-size="10.00">NetworkProtocol.hpp</text>
</a>
</g>
</g>
<!-- Node1&#45;&gt;Node7 -->
<g id="edge26_Node000001_Node000007" class="edge">
<title>Node1&#45;&gt;Node7</title>
<g id="a_edge26_Node000001_Node000007"><a xlink:title=" ">
<path fill="none" stroke="#63b8ff" d="M723.81,-169.28C643.21,-162.88 491,-149.25 362.5,-129 270.15,-114.45 163.42,-90.35 104.48,-76.41"/>
<polygon fill="#63b8ff" stroke="#63b8ff" points="105.28,-73 94.74,-74.09 103.66,-79.81 105.28,-73"/>
</a>
</g>
</g>
<!-- Node13 -->
<g id="Node000013" class="node">
<title>Node13</title>
<g id="a_Node000013"><a xlink:title=" ">
<polygon fill="#e0e0e0" stroke="#999999" points="735.5,-74 675.5,-74 675.5,-55 735.5,-55 735.5,-74"/>
<text text-anchor="middle" x="705.5" y="-62" font-family="Helvetica,sans-Serif" font-size="10.00">iostream</text>
</a>
</g>
</g>
<!-- Node1&#45;&gt;Node13 -->
<g id="edge27_Node000001_Node000013" class="edge">
<title>Node1&#45;&gt;Node13</title>
<g id="a_edge27_Node000001_Node000013"><a xlink:title=" ">
<path fill="none" stroke="#63b8ff" d="M755.27,-164.99C738.91,-158.04 718.79,-146.47 708.5,-129 700.54,-115.48 700.49,-97.39 702.03,-83.97"/>
<polygon fill="#63b8ff" stroke="#63b8ff" points="705.5,-84.43 703.55,-74.01 698.58,-83.37 705.5,-84.43"/>
</a>
</g>
</g>
<!-- Node16 -->
<g id="Node000016" class="node">
<title>Node16</title>
<g id="a_Node000016"><a xlink:href="TcpServer_8hpp.html" target="_top" xlink:title=" ">
<polygon fill="white" stroke="#666666" points="844,-129 717,-129 717,-110 844,-110 844,-129"/>
<text text-anchor="middle" x="780.5" y="-117" font-family="Helvetica,sans-Serif" font-size="10.00">network/TcpServer.hpp</text>
</a>
</g>
</g>
<!-- Node1&#45;&gt;Node16 -->
<g id="edge17_Node000001_Node000016" class="edge">
<title>Node1&#45;&gt;Node16</title>
<g id="a_edge17_Node000001_Node000016"><a xlink:title=" ">
<path fill="none" stroke="#63b8ff" d="M780.5,-164.75C780.5,-157.8 780.5,-147.85 780.5,-139.13"/>
<polygon fill="#63b8ff" stroke="#63b8ff" points="784,-139.09 780.5,-129.09 777,-139.09 784,-139.09"/>
</a>
</g>
</g>
<!-- Node18 -->
<g id="Node000018" class="node">
<title>Node18</title>
<g id="a_Node000018"><a xlink:title=" ">
<polygon fill="#e0e0e0" stroke="#999999" points="1025,-129 974,-129 974,-110 1025,-110 1025,-129"/>
<text text-anchor="middle" x="999.5" y="-117" font-family="Helvetica,sans-Serif" font-size="10.00">csignal</text>
</a>
</g>
</g>
<!-- Node1&#45;&gt;Node18 -->
<g id="edge28_Node000001_Node000018" class="edge">
<title>Node1&#45;&gt;Node18</title>
<g id="a_edge28_Node000001_Node000018"><a xlink:title=" ">
<path fill="none" stroke="#63b8ff" d="M815.69,-164.98C856.48,-155.11 923.34,-138.93 964.19,-129.05"/>
<polygon fill="#63b8ff" stroke="#63b8ff" points="965.08,-132.43 973.98,-126.68 963.44,-125.63 965.08,-132.43"/>
</a>
</g>
</g>
<!-- Node19 -->
<g id="Node000019" class="node">
<title>Node19</title>
<g id="a_Node000019"><a xlink:title=" ">
<polygon fill="#e0e0e0" stroke="#999999" points="1097.5,-129 1043.5,-129 1043.5,-110 1097.5,-110 1097.5,-129"/>
<text text-anchor="middle" x="1070.5" y="-117" font-family="Helvetica,sans-Serif" font-size="10.00">random</text>
</a>
</g>
</g>
<!-- Node1&#45;&gt;Node19 -->
<g id="edge29_Node000001_Node000019" class="edge">
<title>Node1&#45;&gt;Node19</title>
<g id="a_edge29_Node000001_Node000019"><a xlink:title=" ">
<path fill="none" stroke="#63b8ff" d="M834.68,-164.95C884.01,-156.95 959.08,-144.25 1033.41,-129.13"/>
<polygon fill="#63b8ff" stroke="#63b8ff" points="1034.32,-132.51 1043.41,-127.08 1032.91,-125.66 1034.32,-132.51"/>
</a>
</g>
</g>
<!-- Node3 -->
<g id="Node000003" class="node">
<title>Node3</title>
<g id="a_Node000003"><a xlink:href="SafeQueue_8hpp.html" target="_top" xlink:title=" ">
<polygon fill="white" stroke="#666666" points="267,-74 176,-74 176,-55 267,-55 267,-74"/>
<text text-anchor="middle" x="221.5" y="-62" font-family="Helvetica,sans-Serif" font-size="10.00">SafeQueue.hpp</text>
</a>
</g>
</g>
<!-- Node2&#45;&gt;Node3 -->
<g id="edge2_Node000002_Node000003" class="edge">
<title>Node2&#45;&gt;Node3</title>
<g id="a_edge2_Node000002_Node000003"><a xlink:title=" ">
<path fill="none" stroke="#63b8ff" d="M402.8,-109.98C365.75,-100.89 306.91,-86.46 266.37,-76.51"/>
<polygon fill="#63b8ff" stroke="#63b8ff" points="267.02,-73.07 256.48,-74.08 265.35,-79.86 267.02,-73.07"/>
</a>
</g>
</g>
<!-- Node6 -->
<g id="Node000006" class="node">
<title>Node6</title>
<g id="a_Node000006"><a xlink:title=" ">
<polygon fill="#e0e0e0" stroke="#999999" points="201.5,-19 93.5,-19 93.5,0 201.5,0 201.5,-19"/>
<text text-anchor="middle" x="147.5" y="-7" font-family="Helvetica,sans-Serif" font-size="10.00">SFML/Network.hpp</text>
</a>
</g>
</g>
<!-- Node2&#45;&gt;Node6 -->
<g id="edge5_Node000002_Node000006" class="edge">
<title>Node2&#45;&gt;Node6</title>
<g id="a_edge5_Node000002_Node000006"><a xlink:title=" ">
<path fill="none" stroke="#63b8ff" d="M371.9,-115.58C301.66,-111.12 196.26,-100.18 166.5,-74 153.96,-62.97 149.53,-44.02 148.05,-29.69"/>
<polygon fill="#63b8ff" stroke="#63b8ff" points="151.52,-29.18 147.39,-19.43 144.54,-29.63 151.52,-29.18"/>
</a>
</g>
</g>
<!-- Node2&#45;&gt;Node7 -->
<g id="edge6_Node000002_Node000007" class="edge">
<title>Node2&#45;&gt;Node7</title>
<g id="a_edge6_Node000002_Node000007"><a xlink:title=" ">
<path fill="none" stroke="#63b8ff" d="M376.77,-109.98C309.24,-100.52 200.34,-85.25 129.34,-75.29"/>
<polygon fill="#63b8ff" stroke="#63b8ff" points="129.54,-71.79 119.15,-73.86 128.56,-78.72 129.54,-71.79"/>
</a>
</g>
</g>
<!-- Node9 -->
<g id="Node000009" class="node">
<title>Node9</title>
<g id="a_Node000009"><a xlink:title=" ">
<polygon fill="#e0e0e0" stroke="#999999" points="461,-19 414,-19 414,0 461,0 461,-19"/>
<text text-anchor="middle" x="437.5" y="-7" font-family="Helvetica,sans-Serif" font-size="10.00">vector</text>
</a>
</g>
</g>
<!-- Node2&#45;&gt;Node9 -->
<g id="edge10_Node000002_Node000009" class="edge">
<title>Node2&#45;&gt;Node9</title>
<g id="a_edge10_Node000002_Node000009"><a xlink:title=" ">
<path fill="none" stroke="#63b8ff" d="M437.5,-109.66C437.5,-92.17 437.5,-52.8 437.5,-29.27"/>
<polygon fill="#63b8ff" stroke="#63b8ff" points="441,-29.16 437.5,-19.16 434,-29.16 441,-29.16"/>
</a>
</g>
</g>
<!-- Node10 -->
<g id="Node000010" class="node">
<title>Node10</title>
<g id="a_Node000010"><a xlink:title=" ">
<polygon fill="#e0e0e0" stroke="#999999" points="523.5,-74 465.5,-74 465.5,-55 523.5,-55 523.5,-74"/>
<text text-anchor="middle" x="494.5" y="-62" font-family="Helvetica,sans-Serif" font-size="10.00">memory</text>
</a>
</g>
</g>
<!-- Node2&#45;&gt;Node10 -->
<g id="edge11_Node000002_Node000010" class="edge">
<title>Node2&#45;&gt;Node10</title>
<g id="a_edge11_Node000002_Node000010"><a xlink:title=" ">
<path fill="none" stroke="#63b8ff" d="M446.66,-109.98C455,-102.23 467.53,-90.58 477.68,-81.14"/>
<polygon fill="#63b8ff" stroke="#63b8ff" points="480.24,-83.54 485.18,-74.17 475.47,-78.42 480.24,-83.54"/>
</a>
</g>
</g>
<!-- Node11 -->
<g id="Node000011" class="node">
<title>Node11</title>
<g id="a_Node000011"><a xlink:title=" ">
<polygon fill="#e0e0e0" stroke="#999999" points="589.5,-74 541.5,-74 541.5,-55 589.5,-55 589.5,-74"/>
<text text-anchor="middle" x="565.5" y="-62" font-family="Helvetica,sans-Serif" font-size="10.00">thread</text>
</a>
</g>
</g>
<!-- Node2&#45;&gt;Node11 -->
<g id="edge12_Node000002_Node000011" class="edge">
<title>Node2&#45;&gt;Node11</title>
<g id="a_edge12_Node000002_Node000011"><a xlink:title=" ">
<path fill="none" stroke="#63b8ff" d="M458.07,-109.98C478.93,-101.34 511.47,-87.87 535.27,-78.02"/>
<polygon fill="#63b8ff" stroke="#63b8ff" points="536.66,-81.23 544.56,-74.17 533.98,-74.76 536.66,-81.23"/>
</a>
</g>
</g>
<!-- Node12 -->
<g id="Node000012" class="node">
<title>Node12</title>
<g id="a_Node000012"><a xlink:title=" ">
<polygon fill="#e0e0e0" stroke="#999999" points="657.5,-74 607.5,-74 607.5,-55 657.5,-55 657.5,-74"/>
<text text-anchor="middle" x="632.5" y="-62" font-family="Helvetica,sans-Serif" font-size="10.00">atomic</text>
</a>
</g>
</g>
<!-- Node2&#45;&gt;Node12 -->
<g id="edge13_Node000002_Node000012" class="edge">
<title>Node2&#45;&gt;Node12</title>
<g id="a_edge13_Node000002_Node000012"><a xlink:title=" ">
<path fill="none" stroke="#63b8ff" d="M468.83,-109.98C504.06,-100.41 561.11,-84.9 597.7,-74.96"/>
<polygon fill="#63b8ff" stroke="#63b8ff" points="598.71,-78.31 607.45,-72.31 596.88,-71.55 598.71,-78.31"/>
</a>
</g>
</g>
<!-- Node2&#45;&gt;Node13 -->
<g id="edge14_Node000002_Node000013" class="edge">
<title>Node2&#45;&gt;Node13</title>
<g id="a_edge14_Node000002_Node000013"><a xlink:title=" ">
<path fill="none" stroke="#63b8ff" d="M483.18,-109.94C527.28,-101.6 596.19,-88.39 665.11,-74.25"/>
<polygon fill="#63b8ff" stroke="#63b8ff" points="666.19,-77.6 675.28,-72.16 664.78,-70.75 666.19,-77.6"/>
</a>
</g>
</g>
<!-- Node14 -->
<g id="Node000014" class="node">
<title>Node14</title>
<g id="a_Node000014"><a xlink:title=" ">
<polygon fill="#e0e0e0" stroke="#999999" points="341.5,-74 285.5,-74 285.5,-55 341.5,-55 341.5,-74"/>
<text text-anchor="middle" x="313.5" y="-62" font-family="Helvetica,sans-Serif" font-size="10.00">sstream</text>
</a>
</g>
</g>
<!-- Node2&#45;&gt;Node14 -->
<g id="edge15_Node000002_Node000014" class="edge">
<title>Node2&#45;&gt;Node14</title>
<g id="a_edge15_Node000002_Node000014"><a xlink:title=" ">
<path fill="none" stroke="#63b8ff" d="M417.58,-109.98C397.45,-101.38 366.12,-87.99 343.09,-78.15"/>
<polygon fill="#63b8ff" stroke="#63b8ff" points="344.36,-74.88 333.79,-74.17 341.6,-81.32 344.36,-74.88"/>
</a>
</g>
</g>
<!-- Node15 -->
<g id="Node000015" class="node">
<title>Node15</title>
<g id="a_Node000015"><a xlink:title=" ">
<polygon fill="#e0e0e0" stroke="#999999" points="409.5,-74 359.5,-74 359.5,-55 409.5,-55 409.5,-74"/>
<text text-anchor="middle" x="384.5" y="-62" font-family="Helvetica,sans-Serif" font-size="10.00">cstring</text>
</a>
</g>
</g>
<!-- Node2&#45;&gt;Node15 -->
<g id="edge16_Node000002_Node000015" class="edge">
<title>Node2&#45;&gt;Node15</title>
<g id="a_edge16_Node000002_Node000015"><a xlink:title=" ">
<path fill="none" stroke="#63b8ff" d="M428.75,-109.75C421.03,-102.03 409.6,-90.6 400.28,-81.28"/>
<polygon fill="#63b8ff" stroke="#63b8ff" points="402.64,-78.69 393.09,-74.09 397.69,-83.64 402.64,-78.69"/>
</a>
</g>
</g>
<!-- Node4 -->
<g id="Node000004" class="node">
<title>Node4</title>
<g id="a_Node000004"><a xlink:title=" ">
<polygon fill="#e0e0e0" stroke="#999999" points="267,-19 220,-19 220,0 267,0 267,-19"/>
<text text-anchor="middle" x="243.5" y="-7" font-family="Helvetica,sans-Serif" font-size="10.00">queue</text>
</a>
</g>
</g>
<!-- Node3&#45;&gt;Node4 -->
<g id="edge3_Node000003_Node000004" class="edge">
<title>Node3&#45;&gt;Node4</title>
<g id="a_edge3_Node000003_Node000004"><a xlink:title=" ">
<path fill="none" stroke="#63b8ff" d="M225.13,-54.75C228.08,-47.65 232.33,-37.4 236.01,-28.56"/>
<polygon fill="#63b8ff" stroke="#63b8ff" points="239.33,-29.67 239.93,-19.09 232.87,-26.98 239.33,-29.67"/>
</a>
</g>
</g>
<!-- Node3&#45;&gt;Node5 -->
<g id="edge4_Node000003_Node000005" class="edge">
<title>Node3&#45;&gt;Node5</title>
<g id="a_edge4_Node000003_Node000005"><a xlink:title=" ">
<path fill="none" stroke="#63b8ff" d="M267.08,-56.16C270.26,-55.74 273.43,-55.35 276.5,-55 503.48,-29.5 778.14,-16.06 873.19,-11.92"/>
<polygon fill="#63b8ff" stroke="#63b8ff" points="873.52,-15.41 883.36,-11.48 873.22,-8.41 873.52,-15.41"/>
</a>
</g>
</g>
<!-- Node7&#45;&gt;Node6 -->
<g id="edge9_Node000007_Node000006" class="edge">
<title>Node7&#45;&gt;Node6</title>
<g id="a_edge9_Node000007_Node000006"><a xlink:title=" ">
<path fill="none" stroke="#63b8ff" d="M73.64,-54.98C87.29,-46.77 108.19,-34.18 124.28,-24.49"/>
<polygon fill="#63b8ff" stroke="#63b8ff" points="126.34,-27.33 133.1,-19.17 122.73,-21.33 126.34,-27.33"/>
</a>
</g>
</g>
<!-- Node8 -->
<g id="Node000008" class="node">
<title>Node8</title>
<g id="a_Node000008"><a xlink:title=" ">
<polygon fill="#e0e0e0" stroke="#999999" points="75.5,-19 25.5,-19 25.5,0 75.5,0 75.5,-19"/>
<text text-anchor="middle" x="50.5" y="-7" font-family="Helvetica,sans-Serif" font-size="10.00">cstdint</text>
</a>
</g>
</g>
<!-- Node7&#45;&gt;Node8 -->
<g id="edge7_Node000007_Node000008" class="edge">
<title>Node7&#45;&gt;Node8</title>
<g id="a_edge7_Node000007_Node000008"><a xlink:title=" ">
<path fill="none" stroke="#63b8ff" d="M58.01,-54.75C56.83,-47.8 55.14,-37.85 53.66,-29.13"/>
<polygon fill="#63b8ff" stroke="#63b8ff" points="57.08,-28.36 51.96,-19.09 50.18,-29.53 57.08,-28.36"/>
</a>
</g>
</g>
<!-- Node7&#45;&gt;Node9 -->
<g id="edge8_Node000007_Node000009" class="edge">
<title>Node7&#45;&gt;Node9</title>
<g id="a_edge8_Node000007_Node000009"><a xlink:title=" ">
<path fill="none" stroke="#63b8ff" d="M119.4,-55.1C199.85,-43.82 340.1,-24.16 404.03,-15.19"/>
<polygon fill="#63b8ff" stroke="#63b8ff" points="404.55,-18.65 413.97,-13.8 403.58,-11.72 404.55,-18.65"/>
</a>
</g>
</g>
<!-- Node16&#45;&gt;Node5 -->
<g id="edge22_Node000016_Node000005" class="edge">
<title>Node16&#45;&gt;Node5</title>
<g id="a_edge22_Node000016_Node000005"><a xlink:title=" ">
<path fill="none" stroke="#63b8ff" d="M818.59,-109.93C840.13,-103.33 866.15,-92.18 883.5,-74 895.31,-61.62 901.45,-42.86 904.54,-28.94"/>
<polygon fill="#63b8ff" stroke="#63b8ff" points="908,-29.5 906.43,-19.02 901.12,-28.19 908,-29.5"/>
</a>
</g>
</g>
<!-- Node16&#45;&gt;Node6 -->
<g id="edge18_Node000016_Node000006" class="edge">
<title>Node16&#45;&gt;Node6</title>
<g id="a_edge18_Node000016_Node000006"><a xlink:title=" ">
<path fill="none" stroke="#63b8ff" d="M778.37,-109.67C774.42,-95.38 764.46,-67.54 744.5,-55 696.22,-24.65 303.86,-24.9 211.87,-18.87"/>
<polygon fill="#63b8ff" stroke="#63b8ff" points="212.02,-15.37 201.77,-18.06 211.46,-22.35 212.02,-15.37"/>
</a>
</g>
</g>
<!-- Node16&#45;&gt;Node9 -->
<g id="edge19_Node000016_Node000009" class="edge">
<title>Node16&#45;&gt;Node9</title>
<g id="a_edge19_Node000016_Node000009"><a xlink:title=" ">
<path fill="none" stroke="#63b8ff" d="M802.85,-109.87C829.93,-98.19 869.69,-76.36 850.5,-55 825.3,-26.94 565.52,-15.02 471.35,-11.6"/>
<polygon fill="#63b8ff" stroke="#63b8ff" points="471.34,-8.1 461.22,-11.25 471.09,-15.1 471.34,-8.1"/>
</a>
</g>
</g>
<!-- Node16&#45;&gt;Node10 -->
<g id="edge24_Node000016_Node000010" class="edge">
<title>Node16&#45;&gt;Node10</title>
<g id="a_edge24_Node000016_Node000010"><a xlink:title=" ">
<path fill="none" stroke="#63b8ff" d="M729.08,-109.93C681,-101.77 606.95,-88.82 533.42,-74.12"/>
<polygon fill="#63b8ff" stroke="#63b8ff" points="534.01,-70.67 523.52,-72.12 532.63,-77.53 534.01,-70.67"/>
</a>
</g>
</g>
<!-- Node16&#45;&gt;Node11 -->
<g id="edge20_Node000016_Node000011" class="edge">
<title>Node16&#45;&gt;Node11</title>
<g id="a_edge20_Node000016_Node000011"><a xlink:title=" ">
<path fill="none" stroke="#63b8ff" d="M744.9,-109.93C710.19,-101.55 655.67,-88.3 599.42,-74.21"/>
<polygon fill="#63b8ff" stroke="#63b8ff" points="600.19,-70.79 589.64,-71.75 598.49,-77.58 600.19,-70.79"/>
</a>
</g>
</g>
<!-- Node16&#45;&gt;Node12 -->
<g id="edge21_Node000016_Node000012" class="edge">
<title>Node16&#45;&gt;Node12</title>
<g id="a_edge21_Node000016_Node000012"><a xlink:title=" ">
<path fill="none" stroke="#63b8ff" d="M756.72,-109.98C732.27,-101.23 693.97,-87.51 666.35,-77.62"/>
<polygon fill="#63b8ff" stroke="#63b8ff" points="667.31,-74.25 656.71,-74.17 664.95,-80.84 667.31,-74.25"/>
</a>
</g>
</g>
<!-- Node16&#45;&gt;Node13 -->
<g id="edge25_Node000016_Node000013" class="edge">
<title>Node16&#45;&gt;Node13</title>
<g id="a_edge25_Node000016_Node000013"><a xlink:title=" ">
<path fill="none" stroke="#63b8ff" d="M768.45,-109.98C757.04,-101.92 739.67,-89.65 726.07,-80.03"/>
<polygon fill="#63b8ff" stroke="#63b8ff" points="727.96,-77.08 717.77,-74.17 723.92,-82.8 727.96,-77.08"/>
</a>
</g>
</g>
<!-- Node17 -->
<g id="Node000017" class="node">
<title>Node17</title>
<g id="a_Node000017"><a xlink:title=" ">
<polygon fill="#e0e0e0" stroke="#999999" points="841.5,-74 791.5,-74 791.5,-55 841.5,-55 841.5,-74"/>
<text text-anchor="middle" x="816.5" y="-62" font-family="Helvetica,sans-Serif" font-size="10.00">chrono</text>
</a>
</g>
</g>
<!-- Node16&#45;&gt;Node17 -->
<g id="edge23_Node000016_Node000017" class="edge">
<title>Node16&#45;&gt;Node17</title>
<g id="a_edge23_Node000016_Node000017"><a xlink:title=" ">
<path fill="none" stroke="#63b8ff" d="M786.44,-109.75C791.48,-102.34 798.84,-91.5 805.01,-82.41"/>
<polygon fill="#63b8ff" stroke="#63b8ff" points="807.94,-84.33 810.67,-74.09 802.15,-80.39 807.94,-84.33"/>
</a>
</g>
</g>
</g>
</svg>
