<?xml version="1.0" encoding="UTF-8" standalone="no"?>
<!DOCTYPE svg PUBLIC "-//W3C//DTD SVG 1.1//EN"
 "http://www.w3.org/Graphics/SVG/1.1/DTD/svg11.dtd">
<!-- Generated by graphviz version 2.43.0 (0)
 -->
<!-- Title: include/server/server.hpp Pages: 1 -->
<!--zoomable 258 -->

<svg id="main" version="1.1" xmlns="http://www.w3.org/2000/svg" xmlns:xlink="http://www.w3.org/1999/xlink" xml:space="preserve" onload="init(evt)">
<style type="text/css"><![CDATA[
.node, .edge {opacity: 0.7;}
.node.selected, .edge.selected {opacity: 1;}
.edge:hover path { stroke: red; }
.edge:hover polygon { stroke: red; fill: red; }
]]></style>

<defs>
  <circle id="rim" cx="0" cy="0" r="7"/>
  <circle id="rim2" cx="0" cy="0" r="3.5"/>
  <g id="zoomPlus">
    <use xlink:href="#rim" fill="#404040"><set attributeName="fill" to="#808080" begin="zoomplus.mouseover" end="zoomplus.mouseout"/></use>
    <path d="M-4,0h8M0,-4v8" fill="none" stroke="white" stroke-width="1.5" pointer-events="none"/>
  </g>
  <g id="zoomMin">
    <use xlink:href="#rim" fill="#404040"><set attributeName="fill" to="#808080" begin="zoomminus.mouseover" end="zoomminus.mouseout"/></use>
    <path d="M-4,0h8" fill="none" stroke="white" stroke-width="1.5" pointer-events="none"/>
  </g>
  <g id="arrowUp" transform="translate(30 24)">
    <use xlink:href="#rim"/>
    <path pointer-events="none" fill="none" stroke="white" stroke-width="1.5" d="M0,-3.0v7 M-2.5,-0.5L0,-3.0L2.5,-0.5"/>
  </g>
  <g id="arrowRight" transform="rotate(90) translate(36 -43)">
    <use xlink:href="#rim"/>
    <path pointer-events="none" fill="none" stroke="white" stroke-width="1.5" d="M0,-3.0v7 M-2.5,-0.5L0,-3.0L2.5,-0.5"/>
  </g>
  <g id="arrowDown" transform="rotate(180) translate(-30 -48)">
    <use xlink:href="#rim"/>
    <path pointer-events="none" fill="none" stroke="white" stroke-width="1.5" d="M0,-3.0v7 M-2.5,-0.5L0,-3.0L2.5,-0.5"/>
  </g>
  <g id="arrowLeft" transform="rotate(270) translate(-36 17)">
    <use xlink:href="#rim"/>
    <path pointer-events="none" fill="none" stroke="white" stroke-width="1.5" d="M0,-3.0v7 M-2.5,-0.5L0,-3.0L2.5,-0.5"/>
  </g>
  <g id="resetDef">
    <use xlink:href="#rim2" fill="#404040"><set attributeName="fill" to="#808080" begin="reset.mouseover" end="reset.mouseout"/></use>
  </g>
</defs>
<script type="application/ecmascript">
var viewWidth = 1813;
var viewHeight = 258;
var sectionId = 'dynsection-0';
</script>
<script type="application/ecmascript" xlink:href="svg.min.js"/>
<svg id="graph" class="graph">
<g id="viewport">
<title>include/server/server.hpp</title>
<!-- Node1 -->
<g id="Node000001" class="node">
<title>Node1</title>
<g id="a_Node000001"><a xlink:title=" ">
<polygon fill="#999999" stroke="#666666" points="1018.5,-250 878.5,-250 878.5,-231 1018.5,-231 1018.5,-250"/>
<text text-anchor="middle" x="948.5" y="-238" font-family="Helvetica,sans-Serif" font-size="10.00">include/server/server.hpp</text>
</a>
</g>
</g>
<!-- Node2 -->
<g id="Node000002" class="node">
<title>Node2</title>
<g id="a_Node000002"><a xlink:href="UdpServer_8hpp.html" target="_top" xlink:title=" ">
<polygon fill="white" stroke="#666666" points="1145.5,-189.5 1057.5,-189.5 1057.5,-170.5 1145.5,-170.5 1145.5,-189.5"/>
<text text-anchor="middle" x="1101.5" y="-177.5" font-family="Helvetica,sans-Serif" font-size="10.00">UdpServer.hpp</text>
</a>
</g>
</g>
<!-- Node1&#45;&gt;Node2 -->
<g id="edge1_Node000001_Node000002" class="edge">
<title>Node1&#45;&gt;Node2</title>
<g id="a_edge1_Node000001_Node000002"><a xlink:title=" ">
<path fill="none" stroke="#63b8ff" d="M970.75,-230.99C996.81,-221.03 1040.18,-204.45 1069.77,-193.13"/>
<polygon fill="#63b8ff" stroke="#63b8ff" points="1071.14,-196.36 1079.23,-189.52 1068.64,-189.82 1071.14,-196.36"/>
</a>
</g>
</g>
<!-- Node10 -->
<g id="Node000010" class="node">
<title>Node10</title>
<g id="a_Node000010"><a xlink:href="Components_8hpp.html" target="_top" xlink:title=" ">
<polygon fill="white" stroke="#666666" points="770,-74 591,-74 591,-55 770,-55 770,-74"/>
<text text-anchor="middle" x="680.5" y="-62" font-family="Helvetica,sans-Serif" font-size="10.00">engine/systems/Components.hpp</text>
</a>
</g>
</g>
<!-- Node1&#45;&gt;Node10 -->
<g id="edge32_Node000001_Node000010" class="edge">
<title>Node1&#45;&gt;Node10</title>
<g id="a_edge32_Node000001_Node000010"><a xlink:title=" ">
<path fill="none" stroke="#63b8ff" d="M878.18,-236.85C767.43,-231.95 562.59,-219.63 540.5,-195 516.58,-168.33 569.05,-112.16 571.5,-110 589.04,-94.54 612.66,-84.01 633.44,-77.09"/>
<polygon fill="#63b8ff" stroke="#63b8ff" points="634.56,-80.41 643.06,-74.07 632.47,-73.73 634.56,-80.41"/>
</a>
</g>
</g>
<!-- Node19 -->
<g id="Node000019" class="node">
<title>Node19</title>
<g id="a_Node000019"><a xlink:href="Timer_8hpp.html" target="_top" xlink:title=" ">
<polygon fill="white" stroke="#666666" points="1229,-189.5 1164,-189.5 1164,-170.5 1229,-170.5 1229,-189.5"/>
<text text-anchor="middle" x="1196.5" y="-177.5" font-family="Helvetica,sans-Serif" font-size="10.00">Timer.hpp</text>
</a>
</g>
</g>
<!-- Node1&#45;&gt;Node19 -->
<g id="edge20_Node000001_Node000019" class="edge">
<title>Node1&#45;&gt;Node19</title>
<g id="a_edge20_Node000001_Node000019"><a xlink:title=" ">
<path fill="none" stroke="#63b8ff" d="M995.08,-230.94C1037.06,-222.88 1100.33,-209.83 1154.5,-195 1157.12,-194.28 1159.82,-193.5 1162.52,-192.67"/>
<polygon fill="#63b8ff" stroke="#63b8ff" points="1163.74,-195.96 1172.21,-189.6 1161.62,-189.29 1163.74,-195.96"/>
</a>
</g>
</g>
<!-- Node21 -->
<g id="Node000021" class="node">
<title>Node21</title>
<g id="a_Node000021"><a xlink:href="server_2ecs_8hpp.html" target="_top" xlink:title=" ">
<polygon fill="white" stroke="#666666" points="261.5,-129 207.5,-129 207.5,-110 261.5,-110 261.5,-129"/>
<text text-anchor="middle" x="234.5" y="-117" font-family="Helvetica,sans-Serif" font-size="10.00">ecs.hpp</text>
</a>
</g>
</g>
<!-- Node1&#45;&gt;Node21 -->
<g id="edge22_Node000001_Node000021" class="edge">
<title>Node1&#45;&gt;Node21</title>
<g id="a_edge22_Node000001_Node000021"><a xlink:title=" ">
<path fill="none" stroke="#63b8ff" d="M878.38,-238.6C716.46,-235.99 326.5,-226.47 276.5,-195 256.52,-182.42 245.16,-156.73 239.41,-139.07"/>
<polygon fill="#63b8ff" stroke="#63b8ff" points="242.72,-137.9 236.54,-129.29 236,-139.87 242.72,-137.9"/>
</a>
</g>
</g>
<!-- Node28 -->
<g id="Node000028" class="node">
<title>Node28</title>
<g id="a_Node000028"><a xlink:title=" ">
<polygon fill="#e0e0e0" stroke="#999999" points="1429.5,-189.5 1247.5,-189.5 1247.5,-170.5 1429.5,-170.5 1429.5,-189.5"/>
<text text-anchor="middle" x="1338.5" y="-177.5" font-family="Helvetica,sans-Serif" font-size="10.00">engine/systems/MoveSystem.hpp</text>
</a>
</g>
</g>
<!-- Node1&#45;&gt;Node28 -->
<g id="edge33_Node000001_Node000028" class="edge">
<title>Node1&#45;&gt;Node28</title>
<g id="a_edge33_Node000001_Node000028"><a xlink:title=" ">
<path fill="none" stroke="#63b8ff" d="M1005.21,-230.99C1075.83,-220.4 1196.3,-202.33 1271.43,-191.06"/>
<polygon fill="#63b8ff" stroke="#63b8ff" points="1272.35,-194.46 1281.72,-189.52 1271.31,-187.54 1272.35,-194.46"/>
</a>
</g>
</g>
<!-- Node29 -->
<g id="Node000029" class="node">
<title>Node29</title>
<g id="a_Node000029"><a xlink:href="MovementSystem_8hpp.html" target="_top" xlink:title=" ">
<polygon fill="white" stroke="#666666" points="493,-189.5 286,-189.5 286,-170.5 493,-170.5 493,-189.5"/>
<text text-anchor="middle" x="389.5" y="-177.5" font-family="Helvetica,sans-Serif" font-size="10.00">engine/systems/MovementSystem.hpp</text>
</a>
</g>
</g>
<!-- Node1&#45;&gt;Node29 -->
<g id="edge34_Node000001_Node000029" class="edge">
<title>Node1&#45;&gt;Node29</title>
<g id="a_edge34_Node000001_Node000029"><a xlink:title=" ">
<path fill="none" stroke="#63b8ff" d="M878.19,-232.79C791.13,-224.39 638.3,-209.36 507.5,-195 495.28,-193.66 482.36,-192.18 469.73,-190.71"/>
<polygon fill="#63b8ff" stroke="#63b8ff" points="470.01,-187.22 459.67,-189.53 469.2,-194.17 470.01,-187.22"/>
</a>
</g>
</g>
<!-- Node32 -->
<g id="Node000032" class="node">
<title>Node32</title>
<g id="a_Node000032"><a xlink:href="WaveSystem_8hpp.html" target="_top" xlink:title=" ">
<polygon fill="white" stroke="#666666" points="889.5,-189.5 707.5,-189.5 707.5,-170.5 889.5,-170.5 889.5,-189.5"/>
<text text-anchor="middle" x="798.5" y="-177.5" font-family="Helvetica,sans-Serif" font-size="10.00">engine/systems/WaveSystem.hpp</text>
</a>
</g>
</g>
<!-- Node1&#45;&gt;Node32 -->
<g id="edge45_Node000001_Node000032" class="edge">
<title>Node1&#45;&gt;Node32</title>
<g id="a_edge45_Node000001_Node000032"><a xlink:title=" ">
<path fill="none" stroke="#63b8ff" d="M926.69,-230.99C901.25,-221.07 858.99,-204.59 829.99,-193.28"/>
<polygon fill="#63b8ff" stroke="#63b8ff" points="830.93,-189.89 820.34,-189.52 828.38,-196.41 830.93,-189.89"/>
</a>
</g>
</g>
<!-- Node34 -->
<g id="Node000034" class="node">
<title>Node34</title>
<g id="a_Node000034"><a xlink:href="CollisionSystem_8hpp.html" target="_top" xlink:title=" ">
<polygon fill="white" stroke="#666666" points="689,-195 550,-195 550,-165 689,-165 689,-195"/>
<text text-anchor="start" x="558" y="-183" font-family="Helvetica,sans-Serif" font-size="10.00">engine/systems/Collision</text>
<text text-anchor="middle" x="619.5" y="-172" font-family="Helvetica,sans-Serif" font-size="10.00">System.hpp</text>
</a>
</g>
</g>
<!-- Node1&#45;&gt;Node34 -->
<g id="edge52_Node000001_Node000034" class="edge">
<title>Node1&#45;&gt;Node34</title>
<g id="a_edge52_Node000001_Node000034"><a xlink:title=" ">
<path fill="none" stroke="#63b8ff" d="M900.66,-230.99C847.88,-221.61 762.09,-206.35 699.13,-195.16"/>
<polygon fill="#63b8ff" stroke="#63b8ff" points="699.69,-191.7 689.23,-193.4 698.47,-198.6 699.69,-191.7"/>
</a>
</g>
</g>
<!-- Node35 -->
<g id="Node000035" class="node">
<title>Node35</title>
<g id="a_Node000035"><a xlink:href="serializer_8hpp.html" target="_top" xlink:title=" ">
<polygon fill="white" stroke="#666666" points="989.5,-189.5 907.5,-189.5 907.5,-170.5 989.5,-170.5 989.5,-189.5"/>
<text text-anchor="middle" x="948.5" y="-177.5" font-family="Helvetica,sans-Serif" font-size="10.00">serializer.hpp</text>
</a>
</g>
</g>
<!-- Node1&#45;&gt;Node35 -->
<g id="edge56_Node000001_Node000035" class="edge">
<title>Node1&#45;&gt;Node35</title>
<g id="a_edge56_Node000001_Node000035"><a xlink:title=" ">
<path fill="none" stroke="#63b8ff" d="M948.5,-230.87C948.5,-222.75 948.5,-210.31 948.5,-199.89"/>
<polygon fill="#63b8ff" stroke="#63b8ff" points="952,-199.67 948.5,-189.67 945,-199.67 952,-199.67"/>
</a>
</g>
</g>
<!-- Node36 -->
<g id="Node000036" class="node">
<title>Node36</title>
<g id="a_Node000036"><a xlink:title=" ">
<polygon fill="#e0e0e0" stroke="#999999" points="1583.5,-189.5 1447.5,-189.5 1447.5,-170.5 1583.5,-170.5 1583.5,-189.5"/>
<text text-anchor="middle" x="1515.5" y="-177.5" font-family="Helvetica,sans-Serif" font-size="10.00">engine/EntityFactory.hpp</text>
</a>
</g>
</g>
<!-- Node1&#45;&gt;Node36 -->
<g id="edge60_Node000001_Node000036" class="edge">
<title>Node1&#45;&gt;Node36</title>
<g id="a_edge60_Node000001_Node000036"><a xlink:title=" ">
<path fill="none" stroke="#63b8ff" d="M1018.51,-235.12C1113.79,-228.7 1289.53,-215.27 1438.5,-195 1446.26,-193.94 1454.43,-192.65 1462.44,-191.29"/>
<polygon fill="#63b8ff" stroke="#63b8ff" points="1463.2,-194.71 1472.44,-189.53 1461.98,-187.81 1463.2,-194.71"/>
</a>
</g>
</g>
<!-- Node37 -->
<g id="Node000037" class="node">
<title>Node37</title>
<g id="a_Node000037"><a xlink:title=" ">
<polygon fill="#e0e0e0" stroke="#999999" points="1737,-189.5 1602,-189.5 1602,-170.5 1737,-170.5 1737,-189.5"/>
<text text-anchor="middle" x="1669.5" y="-177.5" font-family="Helvetica,sans-Serif" font-size="10.00">engine/StageFactory.hpp</text>
</a>
</g>
</g>
<!-- Node1&#45;&gt;Node37 -->
<g id="edge61_Node000001_Node000037" class="edge">
<title>Node1&#45;&gt;Node37</title>
<g id="a_edge61_Node000001_Node000037"><a xlink:title=" ">
<path fill="none" stroke="#63b8ff" d="M1018.79,-237.19C1137.43,-232.73 1384.82,-220.97 1592.5,-195 1600.55,-193.99 1609.04,-192.69 1617.31,-191.29"/>
<polygon fill="#63b8ff" stroke="#63b8ff" points="1618.02,-194.72 1627.27,-189.55 1616.81,-187.83 1618.02,-194.72"/>
</a>
</g>
</g>
<!-- Node3 -->
<g id="Node000003" class="node">
<title>Node3</title>
<g id="a_Node000003"><a xlink:href="SafeQueue_8hpp.html" target="_top" xlink:title=" ">
<polygon fill="white" stroke="#666666" points="1270,-129 1179,-129 1179,-110 1270,-110 1270,-129"/>
<text text-anchor="middle" x="1224.5" y="-117" font-family="Helvetica,sans-Serif" font-size="10.00">SafeQueue.hpp</text>
</a>
</g>
</g>
<!-- Node2&#45;&gt;Node3 -->
<g id="edge2_Node000002_Node000003" class="edge">
<title>Node2&#45;&gt;Node3</title>
<g id="a_edge2_Node000002_Node000003"><a xlink:title=" ">
<path fill="none" stroke="#63b8ff" d="M1119.39,-170.49C1139.88,-160.75 1173.69,-144.66 1197.42,-133.38"/>
<polygon fill="#63b8ff" stroke="#63b8ff" points="1199.07,-136.47 1206.59,-129.02 1196.06,-130.15 1199.07,-136.47"/>
</a>
</g>
</g>
<!-- Node5 -->
<g id="Node000005" class="node">
<title>Node5</title>
<g id="a_Node000005"><a xlink:title=" ">
<polygon fill="#e0e0e0" stroke="#999999" points="1409.5,-74 1361.5,-74 1361.5,-55 1409.5,-55 1409.5,-74"/>
<text text-anchor="middle" x="1385.5" y="-62" font-family="Helvetica,sans-Serif" font-size="10.00">mutex</text>
</a>
</g>
</g>
<!-- Node2&#45;&gt;Node5 -->
<g id="edge19_Node000002_Node000005" class="edge">
<title>Node2&#45;&gt;Node5</title>
<g id="a_edge19_Node000002_Node000005"><a xlink:title=" ">
<path fill="none" stroke="#63b8ff" d="M1131.02,-170.45C1138.92,-168.41 1147.49,-166.42 1155.5,-165 1237.28,-150.53 1471.67,-190.49 1527.5,-129 1561.13,-91.96 1471.74,-75.28 1419.76,-68.88"/>
<polygon fill="#63b8ff" stroke="#63b8ff" points="1419.94,-65.38 1409.6,-67.71 1419.13,-72.33 1419.94,-65.38"/>
</a>
</g>
</g>
<!-- Node6 -->
<g id="Node000006" class="node">
<title>Node6</title>
<g id="a_Node000006"><a xlink:title=" ">
<polygon fill="#e0e0e0" stroke="#999999" points="1682.5,-129 1574.5,-129 1574.5,-110 1682.5,-110 1682.5,-129"/>
<text text-anchor="middle" x="1628.5" y="-117" font-family="Helvetica,sans-Serif" font-size="10.00">SFML/Network.hpp</text>
</a>
</g>
</g>
<!-- Node2&#45;&gt;Node6 -->
<g id="edge5_Node000002_Node000006" class="edge">
<title>Node2&#45;&gt;Node6</title>
<g id="a_edge5_Node000002_Node000006"><a xlink:title=" ">
<path fill="none" stroke="#63b8ff" d="M1130.74,-170.48C1138.71,-168.42 1147.39,-166.4 1155.5,-165 1333.57,-134.22 1380.81,-148.21 1560.5,-129 1561.76,-128.86 1563.04,-128.73 1564.33,-128.58"/>
<polygon fill="#63b8ff" stroke="#63b8ff" points="1564.79,-132.05 1574.33,-127.45 1564,-125.1 1564.79,-132.05"/>
</a>
</g>
</g>
<!-- Node7 -->
<g id="Node000007" class="node">
<title>Node7</title>
<g id="a_Node000007"><a xlink:href="NetworkProtocol_8hpp.html" target="_top" xlink:title=" ">
<polygon fill="white" stroke="#666666" points="1161,-129 1042,-129 1042,-110 1161,-110 1161,-129"/>
<text text-anchor="middle" x="1101.5" y="-117" font-family="Helvetica,sans-Serif" font-size="10.00">NetworkProtocol.hpp</text>
</a>
</g>
</g>
<!-- Node2&#45;&gt;Node7 -->
<g id="edge6_Node000002_Node000007" class="edge">
<title>Node2&#45;&gt;Node7</title>
<g id="a_edge6_Node000002_Node000007"><a xlink:title=" ">
<path fill="none" stroke="#63b8ff" d="M1101.5,-170.37C1101.5,-162.25 1101.5,-149.81 1101.5,-139.39"/>
<polygon fill="#63b8ff" stroke="#63b8ff" points="1105,-139.17 1101.5,-129.17 1098,-139.17 1105,-139.17"/>
</a>
</g>
</g>
<!-- Node9 -->
<g id="Node000009" class="node">
<title>Node9</title>
<g id="a_Node000009"><a xlink:title=" ">
<polygon fill="#e0e0e0" stroke="#999999" points="902,-74 855,-74 855,-55 902,-55 902,-74"/>
<text text-anchor="middle" x="878.5" y="-62" font-family="Helvetica,sans-Serif" font-size="10.00">vector</text>
</a>
</g>
</g>
<!-- Node2&#45;&gt;Node9 -->
<g id="edge12_Node000002_Node000009" class="edge">
<title>Node2&#45;&gt;Node9</title>
<g id="a_edge12_Node000002_Node000009"><a xlink:title=" ">
<path fill="none" stroke="#63b8ff" d="M1132.81,-170.45C1140.23,-168.55 1148.12,-166.62 1155.5,-165 1245.55,-145.25 1417.59,-178.15 1355.5,-110 1325.71,-77.3 1016.07,-68.22 912.23,-66.08"/>
<polygon fill="#63b8ff" stroke="#63b8ff" points="912.07,-62.58 902,-65.88 911.93,-69.58 912.07,-62.58"/>
</a>
</g>
</g>
<!-- Node13 -->
<g id="Node000013" class="node">
<title>Node13</title>
<g id="a_Node000013"><a xlink:title=" ">
<polygon fill="#e0e0e0" stroke="#999999" points="1346.5,-129 1288.5,-129 1288.5,-110 1346.5,-110 1346.5,-129"/>
<text text-anchor="middle" x="1317.5" y="-117" font-family="Helvetica,sans-Serif" font-size="10.00">memory</text>
</a>
</g>
</g>
<!-- Node2&#45;&gt;Node13 -->
<g id="edge13_Node000002_Node000013" class="edge">
<title>Node2&#45;&gt;Node13</title>
<g id="a_edge13_Node000002_Node000013"><a xlink:title=" ">
<path fill="none" stroke="#63b8ff" d="M1132.91,-170.49C1171.5,-160.04 1236.97,-142.31 1278.67,-131.02"/>
<polygon fill="#63b8ff" stroke="#63b8ff" points="1279.74,-134.35 1288.48,-128.36 1277.91,-127.6 1279.74,-134.35"/>
</a>
</g>
</g>
<!-- Node14 -->
<g id="Node000014" class="node">
<title>Node14</title>
<g id="a_Node000014"><a xlink:title=" ">
<polygon fill="#e0e0e0" stroke="#999999" points="1450.5,-129 1402.5,-129 1402.5,-110 1450.5,-110 1450.5,-129"/>
<text text-anchor="middle" x="1426.5" y="-117" font-family="Helvetica,sans-Serif" font-size="10.00">thread</text>
</a>
</g>
</g>
<!-- Node2&#45;&gt;Node14 -->
<g id="edge14_Node000002_Node000014" class="edge">
<title>Node2&#45;&gt;Node14</title>
<g id="a_edge14_Node000002_Node000014"><a xlink:title=" ">
<path fill="none" stroke="#63b8ff" d="M1132.22,-170.47C1139.79,-168.52 1147.91,-166.57 1155.5,-165 1258.12,-143.82 1285.54,-148.45 1388.5,-129 1389.77,-128.76 1391.06,-128.51 1392.37,-128.25"/>
<polygon fill="#63b8ff" stroke="#63b8ff" points="1393.36,-131.62 1402.43,-126.14 1391.92,-124.77 1393.36,-131.62"/>
</a>
</g>
</g>
<!-- Node15 -->
<g id="Node000015" class="node">
<title>Node15</title>
<g id="a_Node000015"><a xlink:title=" ">
<polygon fill="#e0e0e0" stroke="#999999" points="1518.5,-129 1468.5,-129 1468.5,-110 1518.5,-110 1518.5,-129"/>
<text text-anchor="middle" x="1493.5" y="-117" font-family="Helvetica,sans-Serif" font-size="10.00">atomic</text>
</a>
</g>
</g>
<!-- Node2&#45;&gt;Node15 -->
<g id="edge15_Node000002_Node000015" class="edge">
<title>Node2&#45;&gt;Node15</title>
<g id="a_edge15_Node000002_Node000015"><a xlink:title=" ">
<path fill="none" stroke="#63b8ff" d="M1131.33,-170.49C1139.15,-168.48 1147.6,-166.48 1155.5,-165 1286.08,-140.46 1323.92,-152.93 1458.47,-128.96"/>
<polygon fill="#63b8ff" stroke="#63b8ff" points="1459.11,-132.4 1468.33,-127.17 1457.86,-125.51 1459.11,-132.4"/>
</a>
</g>
</g>
<!-- Node16 -->
<g id="Node000016" class="node">
<title>Node16</title>
<g id="a_Node000016"><a xlink:title=" ">
<polygon fill="#e0e0e0" stroke="#999999" points="843.5,-129 783.5,-129 783.5,-110 843.5,-110 843.5,-129"/>
<text text-anchor="middle" x="813.5" y="-117" font-family="Helvetica,sans-Serif" font-size="10.00">iostream</text>
</a>
</g>
</g>
<!-- Node2&#45;&gt;Node16 -->
<g id="edge16_Node000002_Node000016" class="edge">
<title>Node2&#45;&gt;Node16</title>
<g id="a_edge16_Node000002_Node000016"><a xlink:title=" ">
<path fill="none" stroke="#63b8ff" d="M1057.82,-170.46C1010.11,-161.07 931.17,-145.4 853.66,-129.22"/>
<polygon fill="#63b8ff" stroke="#63b8ff" points="854.23,-125.76 843.72,-127.14 852.79,-132.61 854.23,-125.76"/>
</a>
</g>
</g>
<!-- Node17 -->
<g id="Node000017" class="node">
<title>Node17</title>
<g id="a_Node000017"><a xlink:title=" ">
<polygon fill="#e0e0e0" stroke="#999999" points="917.5,-129 861.5,-129 861.5,-110 917.5,-110 917.5,-129"/>
<text text-anchor="middle" x="889.5" y="-117" font-family="Helvetica,sans-Serif" font-size="10.00">sstream</text>
</a>
</g>
</g>
<!-- Node2&#45;&gt;Node17 -->
<g id="edge17_Node000002_Node000017" class="edge">
<title>Node2&#45;&gt;Node17</title>
<g id="a_edge17_Node000002_Node000017"><a xlink:title=" ">
<path fill="none" stroke="#63b8ff" d="M1070.67,-170.49C1032.77,-160.04 968.46,-142.29 927.53,-130.99"/>
<polygon fill="#63b8ff" stroke="#63b8ff" points="928.22,-127.56 917.65,-128.27 926.36,-134.3 928.22,-127.56"/>
</a>
</g>
</g>
<!-- Node18 -->
<g id="Node000018" class="node">
<title>Node18</title>
<g id="a_Node000018"><a xlink:title=" ">
<polygon fill="#e0e0e0" stroke="#999999" points="1023.5,-129 973.5,-129 973.5,-110 1023.5,-110 1023.5,-129"/>
<text text-anchor="middle" x="998.5" y="-117" font-family="Helvetica,sans-Serif" font-size="10.00">cstring</text>
</a>
</g>
</g>
<!-- Node2&#45;&gt;Node18 -->
<g id="edge18_Node000002_Node000018" class="edge">
<title>Node2&#45;&gt;Node18</title>
<g id="a_edge18_Node000002_Node000018"><a xlink:title=" ">
<path fill="none" stroke="#63b8ff" d="M1086.3,-170.37C1069.49,-160.82 1042.18,-145.31 1022.48,-134.12"/>
<polygon fill="#63b8ff" stroke="#63b8ff" points="1024.18,-131.06 1013.76,-129.17 1020.73,-137.15 1024.18,-131.06"/>
</a>
</g>
</g>
<!-- Node4 -->
<g id="Node000004" class="node">
<title>Node4</title>
<g id="a_Node000004"><a xlink:title=" ">
<polygon fill="#e0e0e0" stroke="#999999" points="504,-74 457,-74 457,-55 504,-55 504,-74"/>
<text text-anchor="middle" x="480.5" y="-62" font-family="Helvetica,sans-Serif" font-size="10.00">queue</text>
</a>
</g>
</g>
<!-- Node3&#45;&gt;Node4 -->
<g id="edge3_Node000003_Node000004" class="edge">
<title>Node3&#45;&gt;Node4</title>
<g id="a_edge3_Node000003_Node000004"><a xlink:title=" ">
<path fill="none" stroke="#63b8ff" d="M1178.88,-110.99C1176.05,-110.62 1173.24,-110.29 1170.5,-110 882.95,-79.57 804.26,-117.81 514.14,-73.73"/>
<polygon fill="#63b8ff" stroke="#63b8ff" points="514.59,-70.26 504.18,-72.19 513.53,-77.18 514.59,-70.26"/>
</a>
</g>
</g>
<!-- Node3&#45;&gt;Node5 -->
<g id="edge4_Node000003_Node000005" class="edge">
<title>Node3&#45;&gt;Node5</title>
<g id="a_edge4_Node000003_Node000005"><a xlink:title=" ">
<path fill="none" stroke="#63b8ff" d="M1250.37,-109.98C1277.84,-100.94 1321.38,-86.61 1351.59,-76.66"/>
<polygon fill="#63b8ff" stroke="#63b8ff" points="1352.87,-79.93 1361.28,-73.47 1350.68,-73.28 1352.87,-79.93"/>
</a>
</g>
</g>
<!-- Node8 -->
<g id="Node000008" class="node">
<title>Node8</title>
<g id="a_Node000008"><a xlink:title=" ">
<polygon fill="#e0e0e0" stroke="#999999" points="572.5,-74 522.5,-74 522.5,-55 572.5,-55 572.5,-74"/>
<text text-anchor="middle" x="547.5" y="-62" font-family="Helvetica,sans-Serif" font-size="10.00">cstdint</text>
</a>
</g>
</g>
<!-- Node7&#45;&gt;Node8 -->
<g id="edge7_Node000007_Node000008" class="edge">
<title>Node7&#45;&gt;Node8</title>
<g id="a_edge7_Node000007_Node000008"><a xlink:title=" ">
<path fill="none" stroke="#63b8ff" d="M1041.68,-110.97C1038.58,-110.63 1035.5,-110.3 1032.5,-110 835.67,-90.03 781.67,-105.96 582.56,-73.9"/>
<polygon fill="#63b8ff" stroke="#63b8ff" points="583.09,-70.44 572.65,-72.28 581.96,-77.34 583.09,-70.44"/>
</a>
</g>
</g>
<!-- Node7&#45;&gt;Node9 -->
<g id="edge8_Node000007_Node000009" class="edge">
<title>Node7&#45;&gt;Node9</title>
<g id="a_edge8_Node000007_Node000009"><a xlink:title=" ">
<path fill="none" stroke="#63b8ff" d="M1065.67,-109.98C1023.34,-99.92 953.44,-83.31 912.1,-73.49"/>
<polygon fill="#63b8ff" stroke="#63b8ff" points="912.78,-70.05 902.24,-71.14 911.16,-76.86 912.78,-70.05"/>
</a>
</g>
</g>
<!-- Node7&#45;&gt;Node10 -->
<g id="edge9_Node000007_Node000010" class="edge">
<title>Node7&#45;&gt;Node10</title>
<g id="a_edge9_Node000007_Node000010"><a xlink:title=" ">
<path fill="none" stroke="#63b8ff" d="M1041.63,-110.96C967.21,-101.59 840.04,-85.58 758.18,-75.28"/>
<polygon fill="#63b8ff" stroke="#63b8ff" points="758.54,-71.8 748.18,-74.02 757.66,-78.74 758.54,-71.8"/>
</a>
</g>
</g>
<!-- Node11 -->
<g id="Node000011" class="node">
<title>Node11</title>
<g id="a_Node000011"><a xlink:title=" ">
<polygon fill="#e0e0e0" stroke="#999999" points="687.5,-19 577.5,-19 577.5,0 687.5,0 687.5,-19"/>
<text text-anchor="middle" x="632.5" y="-7" font-family="Helvetica,sans-Serif" font-size="10.00">SFML/Graphics.hpp</text>
</a>
</g>
</g>
<!-- Node10&#45;&gt;Node11 -->
<g id="edge10_Node000010_Node000011" class="edge">
<title>Node10&#45;&gt;Node11</title>
<g id="a_edge10_Node000010_Node000011"><a xlink:title=" ">
<path fill="none" stroke="#63b8ff" d="M672.57,-54.75C665.65,-47.11 655.43,-35.82 647.05,-26.56"/>
<polygon fill="#63b8ff" stroke="#63b8ff" points="649.59,-24.15 640.28,-19.09 644.4,-28.85 649.59,-24.15"/>
</a>
</g>
</g>
<!-- Node12 -->
<g id="Node000012" class="node">
<title>Node12</title>
<g id="a_Node000012"><a xlink:title=" ">
<polygon fill="#e0e0e0" stroke="#999999" points="749.5,-19 705.5,-19 705.5,0 749.5,0 749.5,-19"/>
<text text-anchor="middle" x="727.5" y="-7" font-family="Helvetica,sans-Serif" font-size="10.00">string</text>
</a>
</g>
</g>
<!-- Node10&#45;&gt;Node12 -->
<g id="edge11_Node000010_Node000012" class="edge">
<title>Node10&#45;&gt;Node12</title>
<g id="a_edge11_Node000010_Node000012"><a xlink:title=" ">
<path fill="none" stroke="#63b8ff" d="M688.26,-54.75C694.97,-47.18 704.84,-36.05 713.01,-26.84"/>
<polygon fill="#63b8ff" stroke="#63b8ff" points="715.87,-28.89 719.88,-19.09 710.63,-24.25 715.87,-28.89"/>
</a>
</g>
</g>
<!-- Node20 -->
<g id="Node000020" class="node">
<title>Node20</title>
<g id="a_Node000020"><a xlink:title=" ">
<polygon fill="#e0e0e0" stroke="#999999" points="1804.5,-129 1700.5,-129 1700.5,-110 1804.5,-110 1804.5,-129"/>
<text text-anchor="middle" x="1752.5" y="-117" font-family="Helvetica,sans-Serif" font-size="10.00">SFML/System.hpp</text>
</a>
</g>
</g>
<!-- Node19&#45;&gt;Node20 -->
<g id="edge21_Node000019_Node000020" class="edge">
<title>Node19&#45;&gt;Node20</title>
<g id="a_edge21_Node000019_Node000020"><a xlink:title=" ">
<path fill="none" stroke="#63b8ff" d="M1218.9,-170.42C1225.16,-168.33 1232.02,-166.32 1238.5,-165 1433.23,-125.42 1488.94,-150.12 1690.27,-129.06"/>
<polygon fill="#63b8ff" stroke="#63b8ff" points="1690.71,-132.53 1700.28,-127.98 1689.97,-125.57 1690.71,-132.53"/>
</a>
</g>
</g>
<!-- Node21&#45;&gt;Node4 -->
<g id="edge23_Node000021_Node000004" class="edge">
<title>Node21&#45;&gt;Node4</title>
<g id="a_edge23_Node000021_Node000004"><a xlink:title=" ">
<path fill="none" stroke="#63b8ff" d="M261.61,-112C264.6,-111.31 267.61,-110.63 270.5,-110 345.84,-93.45 367.59,-92.1 446.79,-74.06"/>
<polygon fill="#63b8ff" stroke="#63b8ff" points="447.78,-77.42 456.74,-71.77 446.21,-70.6 447.78,-77.42"/>
</a>
</g>
</g>
<!-- Node21&#45;&gt;Node8 -->
<g id="edge24_Node000021_Node000008" class="edge">
<title>Node21&#45;&gt;Node8</title>
<g id="a_edge24_Node000021_Node000008"><a xlink:title=" ">
<path fill="none" stroke="#63b8ff" d="M261.57,-111.85C264.58,-111.19 267.6,-110.56 270.5,-110 377.29,-89.49 405.78,-94.85 512.5,-74 512.6,-73.98 512.7,-73.96 512.8,-73.94"/>
<polygon fill="#63b8ff" stroke="#63b8ff" points="513.28,-77.42 522.32,-71.9 511.81,-70.57 513.28,-77.42"/>
</a>
</g>
</g>
<!-- Node21&#45;&gt;Node9 -->
<g id="edge26_Node000021_Node000009" class="edge">
<title>Node21&#45;&gt;Node9</title>
<g id="a_edge26_Node000021_Node000009"><a xlink:title=" ">
<path fill="none" stroke="#63b8ff" d="M261.54,-111.62C264.55,-111 267.58,-110.45 270.5,-110 494.26,-75.88 552.84,-91.59 778.5,-74 800.49,-72.29 825.17,-70.19 844.52,-68.51"/>
<polygon fill="#63b8ff" stroke="#63b8ff" points="845.01,-71.98 854.67,-67.62 844.4,-65 845.01,-71.98"/>
</a>
</g>
</g>
<!-- Node22 -->
<g id="Node000022" class="node">
<title>Node22</title>
<g id="a_Node000022"><a xlink:title=" ">
<polygon fill="#e0e0e0" stroke="#999999" points="438.5,-74 386.5,-74 386.5,-55 438.5,-55 438.5,-74"/>
<text text-anchor="middle" x="412.5" y="-62" font-family="Helvetica,sans-Serif" font-size="10.00">cassert</text>
</a>
</g>
</g>
<!-- Node21&#45;&gt;Node22 -->
<g id="edge25_Node000021_Node000022" class="edge">
<title>Node21&#45;&gt;Node22</title>
<g id="a_edge25_Node000021_Node000022"><a xlink:title=" ">
<path fill="none" stroke="#63b8ff" d="M261.53,-110.45C292.21,-101.32 342.37,-86.38 376.38,-76.26"/>
<polygon fill="#63b8ff" stroke="#63b8ff" points="377.79,-79.49 386.37,-73.28 375.79,-72.78 377.79,-79.49"/>
</a>
</g>
</g>
<!-- Node23 -->
<g id="Node000023" class="node">
<title>Node23</title>
<g id="a_Node000023"><a xlink:title=" ">
<polygon fill="#e0e0e0" stroke="#999999" points="194.5,-74 150.5,-74 150.5,-55 194.5,-55 194.5,-74"/>
<text text-anchor="middle" x="172.5" y="-62" font-family="Helvetica,sans-Serif" font-size="10.00">limits</text>
</a>
</g>
</g>
<!-- Node21&#45;&gt;Node23 -->
<g id="edge27_Node000021_Node000023" class="edge">
<title>Node21&#45;&gt;Node23</title>
<g id="a_edge27_Node000021_Node000023"><a xlink:title=" ">
<path fill="none" stroke="#63b8ff" d="M224.54,-109.98C215.37,-102.15 201.56,-90.34 190.47,-80.86"/>
<polygon fill="#63b8ff" stroke="#63b8ff" points="192.52,-78.01 182.64,-74.17 187.97,-83.33 192.52,-78.01"/>
</a>
</g>
</g>
<!-- Node24 -->
<g id="Node000024" class="node">
<title>Node24</title>
<g id="a_Node000024"><a xlink:title=" ">
<polygon fill="#e0e0e0" stroke="#999999" points="256.5,-74 212.5,-74 212.5,-55 256.5,-55 256.5,-74"/>
<text text-anchor="middle" x="234.5" y="-62" font-family="Helvetica,sans-Serif" font-size="10.00">bitset</text>
</a>
</g>
</g>
<!-- Node21&#45;&gt;Node24 -->
<g id="edge28_Node000021_Node000024" class="edge">
<title>Node21&#45;&gt;Node24</title>
<g id="a_edge28_Node000021_Node000024"><a xlink:title=" ">
<path fill="none" stroke="#63b8ff" d="M234.5,-109.75C234.5,-102.8 234.5,-92.85 234.5,-84.13"/>
<polygon fill="#63b8ff" stroke="#63b8ff" points="238,-84.09 234.5,-74.09 231,-84.09 238,-84.09"/>
</a>
</g>
</g>
<!-- Node25 -->
<g id="Node000025" class="node">
<title>Node25</title>
<g id="a_Node000025"><a xlink:title=" ">
<polygon fill="#e0e0e0" stroke="#999999" points="69,-74 0,-74 0,-55 69,-55 69,-74"/>
<text text-anchor="middle" x="34.5" y="-62" font-family="Helvetica,sans-Serif" font-size="10.00">type_traits</text>
</a>
</g>
</g>
<!-- Node21&#45;&gt;Node25 -->
<g id="edge29_Node000021_Node000025" class="edge">
<title>Node21&#45;&gt;Node25</title>
<g id="a_edge29_Node000021_Node000025"><a xlink:title=" ">
<path fill="none" stroke="#63b8ff" d="M207.11,-111.24C173.45,-102.32 115.98,-87.09 76.68,-76.68"/>
<polygon fill="#63b8ff" stroke="#63b8ff" points="77.41,-73.25 66.85,-74.07 75.62,-80.02 77.41,-73.25"/>
</a>
</g>
</g>
<!-- Node26 -->
<g id="Node000026" class="node">
<title>Node26</title>
<g id="a_Node000026"><a xlink:title=" ">
<polygon fill="#e0e0e0" stroke="#999999" points="132,-74 87,-74 87,-55 132,-55 132,-74"/>
<text text-anchor="middle" x="109.5" y="-62" font-family="Helvetica,sans-Serif" font-size="10.00">utility</text>
</a>
</g>
</g>
<!-- Node21&#45;&gt;Node26 -->
<g id="edge30_Node000021_Node000026" class="edge">
<title>Node21&#45;&gt;Node26</title>
<g id="a_edge30_Node000021_Node000026"><a xlink:title=" ">
<path fill="none" stroke="#63b8ff" d="M214.42,-109.98C194.13,-101.38 162.54,-87.99 139.33,-78.15"/>
<polygon fill="#63b8ff" stroke="#63b8ff" points="140.52,-74.85 129.95,-74.17 137.79,-81.3 140.52,-74.85"/>
</a>
</g>
</g>
<!-- Node27 -->
<g id="Node000027" class="node">
<title>Node27</title>
<g id="a_Node000027"><a xlink:title=" ">
<polygon fill="#e0e0e0" stroke="#999999" points="368,-74 275,-74 275,-55 368,-55 368,-74"/>
<text text-anchor="middle" x="321.5" y="-62" font-family="Helvetica,sans-Serif" font-size="10.00">unordered_map</text>
</a>
</g>
</g>
<!-- Node21&#45;&gt;Node27 -->
<g id="edge31_Node000021_Node000027" class="edge">
<title>Node21&#45;&gt;Node27</title>
<g id="a_edge31_Node000021_Node000027"><a xlink:title=" ">
<path fill="none" stroke="#63b8ff" d="M248.48,-109.98C261.97,-101.77 282.63,-89.18 298.54,-79.49"/>
<polygon fill="#63b8ff" stroke="#63b8ff" points="300.55,-82.36 307.27,-74.17 296.91,-76.38 300.55,-82.36"/>
</a>
</g>
</g>
<!-- Node29&#45;&gt;Node10 -->
<g id="edge43_Node000029_Node000010" class="edge">
<title>Node29&#45;&gt;Node10</title>
<g id="a_edge43_Node000029_Node000010"><a xlink:title=" ">
<path fill="none" stroke="#63b8ff" d="M401.65,-170.35C422.42,-155.92 466.46,-126.89 507.5,-110 544.7,-94.69 588.61,-83.47 622.88,-76.13"/>
<polygon fill="#63b8ff" stroke="#63b8ff" points="623.66,-79.54 632.73,-74.07 622.23,-72.69 623.66,-79.54"/>
</a>
</g>
</g>
<!-- Node30 -->
<g id="Node000030" class="node">
<title>Node30</title>
<g id="a_Node000030"><a xlink:href="engine_2ecs_2ecs_8hpp.html" target="_top" xlink:title=" ">
<polygon fill="white" stroke="#666666" points="455.5,-129 345.5,-129 345.5,-110 455.5,-110 455.5,-129"/>
<text text-anchor="middle" x="400.5" y="-117" font-family="Helvetica,sans-Serif" font-size="10.00">engine/ecs/ecs.hpp</text>
</a>
</g>
</g>
<!-- Node29&#45;&gt;Node30 -->
<g id="edge35_Node000029_Node000030" class="edge">
<title>Node29&#45;&gt;Node30</title>
<g id="a_edge35_Node000029_Node000030"><a xlink:title=" ">
<path fill="none" stroke="#63b8ff" d="M391.12,-170.37C392.67,-162.16 395.04,-149.54 397.01,-139.05"/>
<polygon fill="#63b8ff" stroke="#63b8ff" points="400.46,-139.64 398.87,-129.17 393.58,-138.35 400.46,-139.64"/>
</a>
</g>
</g>
<!-- Node31 -->
<g id="Node000031" class="node">
<title>Node31</title>
<g id="a_Node000031"><a xlink:title=" ">
<polygon fill="#e0e0e0" stroke="#999999" points="327,-129 280,-129 280,-110 327,-110 327,-129"/>
<text text-anchor="middle" x="303.5" y="-117" font-family="Helvetica,sans-Serif" font-size="10.00">cmath</text>
</a>
</g>
</g>
<!-- Node29&#45;&gt;Node31 -->
<g id="edge44_Node000029_Node000031" class="edge">
<title>Node29&#45;&gt;Node31</title>
<g id="a_edge44_Node000029_Node000031"><a xlink:title=" ">
<path fill="none" stroke="#63b8ff" d="M376.81,-170.37C363.09,-161.04 341,-146.01 324.65,-134.88"/>
<polygon fill="#63b8ff" stroke="#63b8ff" points="326.48,-131.9 316.24,-129.17 322.54,-137.69 326.48,-131.9"/>
</a>
</g>
</g>
<!-- Node30&#45;&gt;Node4 -->
<g id="edge36_Node000030_Node000004" class="edge">
<title>Node30&#45;&gt;Node4</title>
<g id="a_edge36_Node000030_Node000004"><a xlink:title=" ">
<path fill="none" stroke="#63b8ff" d="M413.35,-109.98C425.64,-101.84 444.41,-89.41 458.98,-79.76"/>
<polygon fill="#63b8ff" stroke="#63b8ff" points="461.01,-82.61 467.41,-74.17 457.14,-76.78 461.01,-82.61"/>
</a>
</g>
</g>
<!-- Node30&#45;&gt;Node8 -->
<g id="edge37_Node000030_Node000008" class="edge">
<title>Node30&#45;&gt;Node8</title>
<g id="a_edge37_Node000030_Node000008"><a xlink:title=" ">
<path fill="none" stroke="#63b8ff" d="M424.12,-109.98C448.4,-101.23 486.45,-87.51 513.87,-77.62"/>
<polygon fill="#63b8ff" stroke="#63b8ff" points="515.23,-80.85 523.45,-74.17 512.86,-74.27 515.23,-80.85"/>
</a>
</g>
</g>
<!-- Node30&#45;&gt;Node9 -->
<g id="edge39_Node000030_Node000009" class="edge">
<title>Node30&#45;&gt;Node9</title>
<g id="a_edge39_Node000030_Node000009"><a xlink:title=" ">
<path fill="none" stroke="#63b8ff" d="M455.8,-112.37C555.64,-101.3 763.17,-78.29 844.63,-69.25"/>
<polygon fill="#63b8ff" stroke="#63b8ff" points="845.27,-72.71 854.82,-68.13 844.5,-65.75 845.27,-72.71"/>
</a>
</g>
</g>
<!-- Node30&#45;&gt;Node22 -->
<g id="edge38_Node000030_Node000022" class="edge">
<title>Node30&#45;&gt;Node22</title>
<g id="a_edge38_Node000030_Node000022"><a xlink:title=" ">
<path fill="none" stroke="#63b8ff" d="M402.48,-109.75C404.07,-102.72 406.36,-92.62 408.35,-83.84"/>
<polygon fill="#63b8ff" stroke="#63b8ff" points="411.76,-84.62 410.56,-74.09 404.93,-83.07 411.76,-84.62"/>
</a>
</g>
</g>
<!-- Node30&#45;&gt;Node23 -->
<g id="edge40_Node000030_Node000023" class="edge">
<title>Node30&#45;&gt;Node23</title>
<g id="a_edge40_Node000030_Node000023"><a xlink:title=" ">
<path fill="none" stroke="#63b8ff" d="M360.38,-110C322.59,-101.86 264.16,-88.97 204.75,-74.23"/>
<polygon fill="#63b8ff" stroke="#63b8ff" points="205.37,-70.78 194.82,-71.75 203.67,-77.57 205.37,-70.78"/>
</a>
</g>
</g>
<!-- Node30&#45;&gt;Node24 -->
<g id="edge41_Node000030_Node000024" class="edge">
<title>Node30&#45;&gt;Node24</title>
<g id="a_edge41_Node000030_Node000024"><a xlink:title=" ">
<path fill="none" stroke="#63b8ff" d="M373.83,-109.98C344.6,-100.65 297.72,-85.68 266.52,-75.72"/>
<polygon fill="#63b8ff" stroke="#63b8ff" points="267.18,-72.26 256.59,-72.55 265.05,-78.93 267.18,-72.26"/>
</a>
</g>
</g>
<!-- Node30&#45;&gt;Node27 -->
<g id="edge42_Node000030_Node000027" class="edge">
<title>Node30&#45;&gt;Node27</title>
<g id="a_edge42_Node000030_Node000027"><a xlink:title=" ">
<path fill="none" stroke="#63b8ff" d="M387.81,-109.98C375.67,-101.84 357.14,-89.41 342.75,-79.76"/>
<polygon fill="#63b8ff" stroke="#63b8ff" points="344.68,-76.84 334.42,-74.17 340.78,-82.65 344.68,-76.84"/>
</a>
</g>
</g>
<!-- Node32&#45;&gt;Node9 -->
<g id="edge48_Node000032_Node000009" class="edge">
<title>Node32&#45;&gt;Node9</title>
<g id="a_edge48_Node000032_Node000009"><a xlink:title=" ">
<path fill="none" stroke="#63b8ff" d="M790.82,-170.32C779.67,-156.6 761.65,-129.48 774.5,-110 790.02,-86.48 820.82,-75.34 844.89,-70.1"/>
<polygon fill="#63b8ff" stroke="#63b8ff" points="845.58,-73.53 854.73,-68.19 844.25,-66.66 845.58,-73.53"/>
</a>
</g>
</g>
<!-- Node32&#45;&gt;Node10 -->
<g id="edge47_Node000032_Node000010" class="edge">
<title>Node32&#45;&gt;Node10</title>
<g id="a_edge47_Node000032_Node000010"><a xlink:title=" ">
<path fill="none" stroke="#63b8ff" d="M789.63,-170.47C769.9,-151.49 722.12,-105.53 696.83,-81.21"/>
<polygon fill="#63b8ff" stroke="#63b8ff" points="699.11,-78.54 689.47,-74.13 694.25,-83.58 699.11,-78.54"/>
</a>
</g>
</g>
<!-- Node32&#45;&gt;Node16 -->
<g id="edge49_Node000032_Node000016" class="edge">
<title>Node32&#45;&gt;Node16</title>
<g id="a_edge49_Node000032_Node000016"><a xlink:title=" ">
<path fill="none" stroke="#63b8ff" d="M800.71,-170.37C802.82,-162.16 806.05,-149.54 808.74,-139.05"/>
<polygon fill="#63b8ff" stroke="#63b8ff" points="812.18,-139.72 811.28,-129.17 805.4,-137.98 812.18,-139.72"/>
</a>
</g>
</g>
<!-- Node32&#45;&gt;Node17 -->
<g id="edge50_Node000032_Node000017" class="edge">
<title>Node32&#45;&gt;Node17</title>
<g id="a_edge50_Node000032_Node000017"><a xlink:title=" ">
<path fill="none" stroke="#63b8ff" d="M811.93,-170.37C826.58,-160.95 850.26,-145.73 867.6,-134.58"/>
<polygon fill="#63b8ff" stroke="#63b8ff" points="869.5,-137.52 876.02,-129.17 865.71,-131.63 869.5,-137.52"/>
</a>
</g>
</g>
<!-- Node32&#45;&gt;Node30 -->
<g id="edge46_Node000032_Node000030" class="edge">
<title>Node32&#45;&gt;Node30</title>
<g id="a_edge46_Node000032_Node000030"><a xlink:title=" ">
<path fill="none" stroke="#63b8ff" d="M740.63,-170.49C667.48,-159.74 541.93,-141.29 465.54,-130.06"/>
<polygon fill="#63b8ff" stroke="#63b8ff" points="465.96,-126.58 455.56,-128.59 464.94,-133.51 465.96,-126.58"/>
</a>
</g>
</g>
<!-- Node33 -->
<g id="Node000033" class="node">
<title>Node33</title>
<g id="a_Node000033"><a xlink:title=" ">
<polygon fill="#e0e0e0" stroke="#999999" points="651.5,-129 587.5,-129 587.5,-110 651.5,-110 651.5,-129"/>
<text text-anchor="middle" x="619.5" y="-117" font-family="Helvetica,sans-Serif" font-size="10.00">algorithm</text>
</a>
</g>
</g>
<!-- Node32&#45;&gt;Node33 -->
<g id="edge51_Node000032_Node000033" class="edge">
<title>Node32&#45;&gt;Node33</title>
<g id="a_edge51_Node000032_Node000033"><a xlink:title=" ">
<path fill="none" stroke="#63b8ff" d="M772.47,-170.49C741.58,-160.4 689.92,-143.51 655.28,-132.19"/>
<polygon fill="#63b8ff" stroke="#63b8ff" points="656.15,-128.8 645.56,-129.02 653.98,-135.45 656.15,-128.8"/>
</a>
</g>
</g>
<!-- Node34&#45;&gt;Node10 -->
<g id="edge54_Node000034_Node000010" class="edge">
<title>Node34&#45;&gt;Node10</title>
<g id="a_edge54_Node000034_Node000010"><a xlink:title=" ">
<path fill="none" stroke="#63b8ff" d="M601.07,-164.77C585.12,-150.66 566.36,-128.54 578.5,-110 588.86,-94.18 606.21,-83.95 623.68,-77.35"/>
<polygon fill="#63b8ff" stroke="#63b8ff" points="625.03,-80.59 633.36,-74.05 622.77,-73.97 625.03,-80.59"/>
</a>
</g>
</g>
<!-- Node34&#45;&gt;Node30 -->
<g id="edge53_Node000034_Node000030" class="edge">
<title>Node34&#45;&gt;Node30</title>
<g id="a_edge53_Node000034_Node000030"><a xlink:title=" ">
<path fill="none" stroke="#63b8ff" d="M567.04,-164.99C528.92,-154.8 478,-141.2 442.54,-131.73"/>
<polygon fill="#63b8ff" stroke="#63b8ff" points="443.09,-128.25 432.52,-129.05 441.28,-135.02 443.09,-128.25"/>
</a>
</g>
</g>
<!-- Node34&#45;&gt;Node33 -->
<g id="edge55_Node000034_Node000033" class="edge">
<title>Node34&#45;&gt;Node33</title>
<g id="a_edge55_Node000034_Node000033"><a xlink:title=" ">
<path fill="none" stroke="#63b8ff" d="M619.5,-164.84C619.5,-157.21 619.5,-147.7 619.5,-139.45"/>
<polygon fill="#63b8ff" stroke="#63b8ff" points="623,-139.27 619.5,-129.27 616,-139.27 623,-139.27"/>
</a>
</g>
</g>
<!-- Node35&#45;&gt;Node8 -->
<g id="edge59_Node000035_Node000008" class="edge">
<title>Node35&#45;&gt;Node8</title>
<g id="a_edge59_Node000035_Node000008"><a xlink:title=" ">
<path fill="none" stroke="#63b8ff" d="M918.36,-170.47C845.5,-149.85 660.09,-97.37 582.49,-75.4"/>
<polygon fill="#63b8ff" stroke="#63b8ff" points="583.29,-71.99 572.71,-72.64 581.38,-78.73 583.29,-71.99"/>
</a>
</g>
</g>
<!-- Node35&#45;&gt;Node9 -->
<g id="edge57_Node000035_Node000009" class="edge">
<title>Node35&#45;&gt;Node9</title>
<g id="a_edge57_Node000035_Node000009"><a xlink:title=" ">
<path fill="none" stroke="#63b8ff" d="M947.2,-170.33C944.84,-156.63 938.91,-129.53 926.5,-110 919.24,-98.58 908.35,-88.15 898.77,-80.26"/>
<polygon fill="#63b8ff" stroke="#63b8ff" points="900.85,-77.45 890.82,-74.03 896.53,-82.95 900.85,-77.45"/>
</a>
</g>
</g>
<!-- Node35&#45;&gt;Node18 -->
<g id="edge58_Node000035_Node000018" class="edge">
<title>Node35&#45;&gt;Node18</title>
<g id="a_edge58_Node000035_Node000018"><a xlink:title=" ">
<path fill="none" stroke="#63b8ff" d="M955.88,-170.37C963.41,-161.55 975.29,-147.66 984.59,-136.77"/>
<polygon fill="#63b8ff" stroke="#63b8ff" points="987.26,-139.04 991.09,-129.17 981.93,-134.5 987.26,-139.04"/>
</a>
</g>
</g>
</g>
</svg>

<g id="navigator" transform="translate(0 0)" fill="#404254">
  <rect fill="#f2f5e9" fill-opacity="0.5" stroke="#606060" stroke-width=".5" x="0" y="0" width="60" height="60"/>
  <use id="zoomplus" xlink:href="#zoomPlus" x="17" y="9" onmousedown="handleZoom(evt,'in')"/>
  <use id="zoomminus" xlink:href="#zoomMin" x="42" y="9" onmousedown="handleZoom(evt,'out')"/>
  <use id="reset" xlink:href="#resetDef" x="30" y="36" onmousedown="handleReset()"/>
   <use id="arrowup" xlink:href="#arrowUp" x="0" y="0" onmousedown="handlePan(0,-1)"/>
  <use id="arrowright" xlink:href="#arrowRight" x="0" y="0" onmousedown="handlePan(1,0)"/>
  <use id="arrowdown" xlink:href="#arrowDown" x="0" y="0" onmousedown="handlePan(0,1)"/>
  <use id="arrowleft" xlink:href="#arrowLeft" x="0" y="0" onmousedown="handlePan(-1,0)"/>
</g>
<svg viewBox="0 0 15 15" width="100%" height="30px" preserveAspectRatio="xMaxYMin meet">
 <g id="arrow_out" transform="scale(0.3 0.3)">
  <a xlink:href="server_8hpp__incl_org.svg" target="_base">
   <rect id="button" ry="5" rx="5" y="6" x="6" height="38" width="38"
        fill="#f2f5e9" fill-opacity="0.5" stroke="#606060" stroke-width="1.0"/>
   <path id="arrow"
     d="M 11.500037,31.436501 C 11.940474,20.09759 22.043105,11.32322 32.158766,21.979434 L 37.068811,17.246167 C 37.068811,17.246167 37.088388,32 37.088388,32 L 22.160133,31.978069 C 22.160133,31.978069 26.997745,27.140456 26.997745,27.140456 C 18.528582,18.264221 13.291696,25.230495 11.500037,31.436501 z"
     style="fill:#404040;"/>
  </a>
 </g>
</svg>

<style type='text/css'>
<![CDATA[
[data-mouse-over-selected='false'] { opacity: 0.7; }
[data-mouse-over-selected='true']  { opacity: 1.0; }
]]>
</style>
<script type="application/ecmascript"><![CDATA[
document.addEventListener('DOMContentLoaded', (event) => {
  highlightEdges();
  highlightAdjacentNodes();
});
]]></script>
</svg>
