<?xml version="1.0" encoding="UTF-8" standalone="no"?>
<!DOCTYPE svg PUBLIC "-//W3C//DTD SVG 1.1//EN"
 "http://www.w3.org/Graphics/SVG/1.1/DTD/svg11.dtd">
<!-- Generated by graphviz version 2.43.0 (0)
 -->
<!-- Title: include/server/server.hpp Pages: 1 -->
<svg width="2423pt" height="258pt"
 viewBox="0.00 0.00 2422.50 258.00" xmlns="http://www.w3.org/2000/svg" xmlns:xlink="http://www.w3.org/1999/xlink">
<g id="graph0" class="graph" transform="scale(1 1) rotate(0) translate(4 254)">
<title>include/server/server.hpp</title>
<!-- Node1 -->
<g id="Node000001" class="node">
<title>Node1</title>
<g id="a_Node000001"><a xlink:title=" ">
<polygon fill="#999999" stroke="#666666" points="1699,-250 1559,-250 1559,-231 1699,-231 1699,-250"/>
<text text-anchor="middle" x="1629" y="-238" font-family="Helvetica,sans-Serif" font-size="10.00">include/server/server.hpp</text>
</a>
</g>
</g>
<!-- Node2 -->
<g id="Node000002" class="node">
<title>Node2</title>
<g id="a_Node000002"><a xlink:href="UdpServer_8hpp.html" target="_top" xlink:title=" ">
<polygon fill="white" stroke="#666666" points="886,-189.5 798,-189.5 798,-170.5 886,-170.5 886,-189.5"/>
<text text-anchor="middle" x="842" y="-177.5" font-family="Helvetica,sans-Serif" font-size="10.00">UdpServer.hpp</text>
</a>
</g>
</g>
<!-- Node1&#45;&gt;Node2 -->
<g id="edge1_Node000001_Node000002" class="edge">
<title>Node1&#45;&gt;Node2</title>
<g id="a_edge1_Node000001_Node000002"><a xlink:title=" ">
<path fill="none" stroke="#63b8ff" d="M1558.81,-234.28C1403.89,-222.77 1035.45,-195.38 896.39,-185.04"/>
<polygon fill="#63b8ff" stroke="#63b8ff" points="896.62,-181.55 886.39,-184.3 896.1,-188.53 896.62,-181.55"/>
</a>
</g>
</g>
<!-- Node10 -->
<g id="Node000010" class="node">
<title>Node10</title>
<g id="a_Node000010"><a xlink:href="Components_8hpp.html" target="_top" xlink:title=" ">
<polygon fill="white" stroke="#666666" points="1943.5,-74 1764.5,-74 1764.5,-55 1943.5,-55 1943.5,-74"/>
<text text-anchor="middle" x="1854" y="-62" font-family="Helvetica,sans-Serif" font-size="10.00">engine/systems/Components.hpp</text>
</a>
</g>
</g>
<!-- Node1&#45;&gt;Node10 -->
<g id="edge36_Node000001_Node000010" class="edge">
<title>Node1&#45;&gt;Node10</title>
<g id="a_edge36_Node000001_Node000010"><a xlink:title=" ">
<path fill="none" stroke="#63b8ff" d="M1699.23,-239.56C1850.5,-238.95 2196.39,-233.33 2232,-195 2317.56,-102.9 2092.58,-76.3 1953.83,-68.62"/>
<polygon fill="#63b8ff" stroke="#63b8ff" points="1953.75,-65.11 1943.58,-68.08 1953.38,-72.1 1953.75,-65.11"/>
</a>
</g>
</g>
<!-- Node22 -->
<g id="Node000022" class="node">
<title>Node22</title>
<g id="a_Node000022"><a xlink:href="Timer_8hpp.html" target="_top" xlink:title=" ">
<polygon fill="white" stroke="#666666" points="1400.5,-189.5 1335.5,-189.5 1335.5,-170.5 1400.5,-170.5 1400.5,-189.5"/>
<text text-anchor="middle" x="1368" y="-177.5" font-family="Helvetica,sans-Serif" font-size="10.00">Timer.hpp</text>
</a>
</g>
</g>
<!-- Node1&#45;&gt;Node22 -->
<g id="edge24_Node000001_Node000022" class="edge">
<title>Node1&#45;&gt;Node22</title>
<g id="a_edge24_Node000001_Node000022"><a xlink:title=" ">
<path fill="none" stroke="#63b8ff" d="M1578.14,-230.97C1533.5,-223.06 1466.97,-210.22 1410,-195 1407.22,-194.26 1404.35,-193.43 1401.47,-192.56"/>
<polygon fill="#63b8ff" stroke="#63b8ff" points="1402.43,-189.19 1391.84,-189.5 1400.31,-195.86 1402.43,-189.19"/>
</a>
</g>
</g>
<!-- Node24 -->
<g id="Node000024" class="node">
<title>Node24</title>
<g id="a_Node000024"><a xlink:href="server_2ecs_8hpp.html" target="_top" xlink:title=" ">
<polygon fill="white" stroke="#666666" points="363,-129 309,-129 309,-110 363,-110 363,-129"/>
<text text-anchor="middle" x="336" y="-117" font-family="Helvetica,sans-Serif" font-size="10.00">ecs.hpp</text>
</a>
</g>
</g>
<!-- Node1&#45;&gt;Node24 -->
<g id="edge26_Node000001_Node000024" class="edge">
<title>Node1&#45;&gt;Node24</title>
<g id="a_edge26_Node000001_Node000024"><a xlink:title=" ">
<path fill="none" stroke="#63b8ff" d="M1558.83,-238.31C1414.37,-235.3 1073.44,-225.34 789,-195 633.64,-178.43 450.59,-143.55 373.35,-128.12"/>
<polygon fill="#63b8ff" stroke="#63b8ff" points="373.67,-124.61 363.17,-126.08 372.29,-131.48 373.67,-124.61"/>
</a>
</g>
</g>
<!-- Node31 -->
<g id="Node000031" class="node">
<title>Node31</title>
<g id="a_Node000031"><a xlink:href="MoveSystem_8hpp.html" target="_top" xlink:title=" ">
<polygon fill="white" stroke="#666666" points="2065,-189.5 1883,-189.5 1883,-170.5 2065,-170.5 2065,-189.5"/>
<text text-anchor="middle" x="1974" y="-177.5" font-family="Helvetica,sans-Serif" font-size="10.00">engine/systems/MoveSystem.hpp</text>
</a>
</g>
</g>
<!-- Node1&#45;&gt;Node31 -->
<g id="edge37_Node000001_Node000031" class="edge">
<title>Node1&#45;&gt;Node31</title>
<g id="a_edge37_Node000001_Node000031"><a xlink:title=" ">
<path fill="none" stroke="#63b8ff" d="M1679.17,-230.99C1741.38,-220.44 1847.34,-202.48 1913.85,-191.2"/>
<polygon fill="#63b8ff" stroke="#63b8ff" points="1914.5,-194.64 1923.77,-189.52 1913.33,-187.74 1914.5,-194.64"/>
</a>
</g>
</g>
<!-- Node33 -->
<g id="Node000033" class="node">
<title>Node33</title>
<g id="a_Node000033"><a xlink:href="MovementSystem_8hpp.html" target="_top" xlink:title=" ">
<polygon fill="white" stroke="#666666" points="1864.5,-189.5 1657.5,-189.5 1657.5,-170.5 1864.5,-170.5 1864.5,-189.5"/>
<text text-anchor="middle" x="1761" y="-177.5" font-family="Helvetica,sans-Serif" font-size="10.00">engine/systems/MovementSystem.hpp</text>
</a>
</g>
</g>
<!-- Node1&#45;&gt;Node33 -->
<g id="edge40_Node000001_Node000033" class="edge">
<title>Node1&#45;&gt;Node33</title>
<g id="a_edge40_Node000001_Node000033"><a xlink:title=" ">
<path fill="none" stroke="#63b8ff" d="M1648.19,-230.99C1670.39,-221.16 1707.12,-204.88 1732.62,-193.58"/>
<polygon fill="#63b8ff" stroke="#63b8ff" points="1734.06,-196.77 1741.78,-189.52 1731.22,-190.37 1734.06,-196.77"/>
</a>
</g>
</g>
<!-- Node35 -->
<g id="Node000035" class="node">
<title>Node35</title>
<g id="a_Node000035"><a xlink:href="WaveSystem_8hpp.html" target="_top" xlink:title=" ">
<polygon fill="white" stroke="#666666" points="1601,-189.5 1419,-189.5 1419,-170.5 1601,-170.5 1601,-189.5"/>
<text text-anchor="middle" x="1510" y="-177.5" font-family="Helvetica,sans-Serif" font-size="10.00">engine/systems/WaveSystem.hpp</text>
</a>
</g>
</g>
<!-- Node1&#45;&gt;Node35 -->
<g id="edge44_Node000001_Node000035" class="edge">
<title>Node1&#45;&gt;Node35</title>
<g id="a_edge44_Node000001_Node000035"><a xlink:title=" ">
<path fill="none" stroke="#63b8ff" d="M1611.7,-230.99C1591.95,-221.29 1559.45,-205.31 1536.51,-194.03"/>
<polygon fill="#63b8ff" stroke="#63b8ff" points="1537.84,-190.79 1527.32,-189.52 1534.75,-197.07 1537.84,-190.79"/>
</a>
</g>
</g>
<!-- Node36 -->
<g id="Node000036" class="node">
<title>Node36</title>
<g id="a_Node000036"><a xlink:title=" ">
<polygon fill="#e0e0e0" stroke="#999999" points="1760,-129 1624,-129 1624,-110 1760,-110 1760,-129"/>
<text text-anchor="middle" x="1692" y="-117" font-family="Helvetica,sans-Serif" font-size="10.00">engine/EntityFactory.hpp</text>
</a>
</g>
</g>
<!-- Node1&#45;&gt;Node36 -->
<g id="edge59_Node000001_Node000036" class="edge">
<title>Node1&#45;&gt;Node36</title>
<g id="a_edge59_Node000001_Node000036"><a xlink:title=" ">
<path fill="none" stroke="#63b8ff" d="M1629.92,-230.7C1631.73,-216.18 1636.73,-186.67 1649,-165 1655.18,-154.09 1664.66,-143.88 1673.15,-136"/>
<polygon fill="#63b8ff" stroke="#63b8ff" points="1675.66,-138.45 1680.84,-129.21 1671.03,-133.2 1675.66,-138.45"/>
</a>
</g>
</g>
<!-- Node38 -->
<g id="Node000038" class="node">
<title>Node38</title>
<g id="a_Node000038"><a xlink:href="CollisionSystem_8hpp.html" target="_top" xlink:title=" ">
<polygon fill="white" stroke="#666666" points="2222.5,-195 2083.5,-195 2083.5,-165 2222.5,-165 2222.5,-195"/>
<text text-anchor="start" x="2091.5" y="-183" font-family="Helvetica,sans-Serif" font-size="10.00">engine/systems/Collision</text>
<text text-anchor="middle" x="2153" y="-172" font-family="Helvetica,sans-Serif" font-size="10.00">System.hpp</text>
</a>
</g>
</g>
<!-- Node1&#45;&gt;Node38 -->
<g id="edge52_Node000001_Node000038" class="edge">
<title>Node1&#45;&gt;Node38</title>
<g id="a_edge52_Node000001_Node000038"><a xlink:title=" ">
<path fill="none" stroke="#63b8ff" d="M1699.33,-234.12C1785.15,-227.19 1934.88,-213.9 2073.31,-195.02"/>
<polygon fill="#63b8ff" stroke="#63b8ff" points="2073.83,-198.49 2083.26,-193.65 2072.87,-191.55 2073.83,-198.49"/>
</a>
</g>
</g>
<!-- Node39 -->
<g id="Node000039" class="node">
<title>Node39</title>
<g id="a_Node000039"><a xlink:href="serializer_8hpp.html" target="_top" xlink:title=" ">
<polygon fill="white" stroke="#666666" points="1317,-189.5 1235,-189.5 1235,-170.5 1317,-170.5 1317,-189.5"/>
<text text-anchor="middle" x="1276" y="-177.5" font-family="Helvetica,sans-Serif" font-size="10.00">serializer.hpp</text>
</a>
</g>
</g>
<!-- Node1&#45;&gt;Node39 -->
<g id="edge55_Node000001_Node000039" class="edge">
<title>Node1&#45;&gt;Node39</title>
<g id="a_edge55_Node000001_Node000039"><a xlink:title=" ">
<path fill="none" stroke="#63b8ff" d="M1558.75,-231.75C1497.05,-224.34 1405.05,-211.8 1326,-195 1322.09,-194.17 1318.04,-193.21 1314.01,-192.18"/>
<polygon fill="#63b8ff" stroke="#63b8ff" points="1314.7,-188.75 1304.14,-189.55 1312.9,-195.51 1314.7,-188.75"/>
</a>
</g>
</g>
<!-- Node40 -->
<g id="Node000040" class="node">
<title>Node40</title>
<g id="a_Node000040"><a xlink:title=" ">
<polygon fill="#e0e0e0" stroke="#999999" points="2414.5,-189.5 2279.5,-189.5 2279.5,-170.5 2414.5,-170.5 2414.5,-189.5"/>
<text text-anchor="middle" x="2347" y="-177.5" font-family="Helvetica,sans-Serif" font-size="10.00">engine/StageFactory.hpp</text>
</a>
</g>
</g>
<!-- Node1&#45;&gt;Node40 -->
<g id="edge60_Node000001_Node000040" class="edge">
<title>Node1&#45;&gt;Node40</title>
<g id="a_edge60_Node000001_Node000040"><a xlink:title=" ">
<path fill="none" stroke="#63b8ff" d="M1699.33,-236.86C1816.82,-231.94 2060.32,-219.57 2265,-195 2273.75,-193.95 2282.99,-192.6 2291.99,-191.16"/>
<polygon fill="#63b8ff" stroke="#63b8ff" points="2292.71,-194.59 2302,-189.51 2291.57,-187.69 2292.71,-194.59"/>
</a>
</g>
</g>
<!-- Node3 -->
<g id="Node000003" class="node">
<title>Node3</title>
<g id="a_Node000003"><a xlink:href="SafeQueue_8hpp.html" target="_top" xlink:title=" ">
<polygon fill="white" stroke="#666666" points="547.5,-129 456.5,-129 456.5,-110 547.5,-110 547.5,-129"/>
<text text-anchor="middle" x="502" y="-117" font-family="Helvetica,sans-Serif" font-size="10.00">SafeQueue.hpp</text>
</a>
</g>
</g>
<!-- Node2&#45;&gt;Node3 -->
<g id="edge2_Node000002_Node000003" class="edge">
<title>Node2&#45;&gt;Node3</title>
<g id="a_edge2_Node000002_Node000003"><a xlink:title=" ">
<path fill="none" stroke="#63b8ff" d="M797.9,-171.41C736.37,-160.83 624.79,-141.63 557.63,-130.07"/>
<polygon fill="#63b8ff" stroke="#63b8ff" points="558.1,-126.6 547.65,-128.35 556.91,-133.5 558.1,-126.6"/>
</a>
</g>
</g>
<!-- Node5 -->
<g id="Node000005" class="node">
<title>Node5</title>
<g id="a_Node000005"><a xlink:title=" ">
<polygon fill="#e0e0e0" stroke="#999999" points="608,-74 560,-74 560,-55 608,-55 608,-74"/>
<text text-anchor="middle" x="584" y="-62" font-family="Helvetica,sans-Serif" font-size="10.00">mutex</text>
</a>
</g>
</g>
<!-- Node2&#45;&gt;Node5 -->
<g id="edge23_Node000002_Node000005" class="edge">
<title>Node2&#45;&gt;Node5</title>
<g id="a_edge23_Node000002_Node000005"><a xlink:title=" ">
<path fill="none" stroke="#63b8ff" d="M797.93,-175.95C734.65,-170.63 622.6,-157.39 595,-129 583.68,-117.35 581.66,-98.49 582.03,-84.35"/>
<polygon fill="#63b8ff" stroke="#63b8ff" points="585.53,-84.45 582.72,-74.24 578.55,-83.98 585.53,-84.45"/>
</a>
</g>
</g>
<!-- Node6 -->
<g id="Node000006" class="node">
<title>Node6</title>
<g id="a_Node000006"><a xlink:title=" ">
<polygon fill="#e0e0e0" stroke="#999999" points="712,-129 604,-129 604,-110 712,-110 712,-129"/>
<text text-anchor="middle" x="658" y="-117" font-family="Helvetica,sans-Serif" font-size="10.00">SFML/Network.hpp</text>
</a>
</g>
</g>
<!-- Node2&#45;&gt;Node6 -->
<g id="edge5_Node000002_Node000006" class="edge">
<title>Node2&#45;&gt;Node6</title>
<g id="a_edge5_Node000002_Node000006"><a xlink:title=" ">
<path fill="none" stroke="#63b8ff" d="M815.24,-170.49C783.36,-160.36 729.93,-143.37 694.32,-132.05"/>
<polygon fill="#63b8ff" stroke="#63b8ff" points="695.38,-128.71 684.79,-129.02 693.26,-135.38 695.38,-128.71"/>
</a>
</g>
</g>
<!-- Node7 -->
<g id="Node000007" class="node">
<title>Node7</title>
<g id="a_Node000007"><a xlink:href="NetworkProtocol_8hpp.html" target="_top" xlink:title=" ">
<polygon fill="white" stroke="#666666" points="1029.5,-129 910.5,-129 910.5,-110 1029.5,-110 1029.5,-129"/>
<text text-anchor="middle" x="970" y="-117" font-family="Helvetica,sans-Serif" font-size="10.00">NetworkProtocol.hpp</text>
</a>
</g>
</g>
<!-- Node2&#45;&gt;Node7 -->
<g id="edge6_Node000002_Node000007" class="edge">
<title>Node2&#45;&gt;Node7</title>
<g id="a_edge6_Node000002_Node000007"><a xlink:title=" ">
<path fill="none" stroke="#63b8ff" d="M860.61,-170.49C882.04,-160.7 917.44,-144.52 942.15,-133.23"/>
<polygon fill="#63b8ff" stroke="#63b8ff" points="943.72,-136.36 951.37,-129.02 940.82,-129.99 943.72,-136.36"/>
</a>
</g>
</g>
<!-- Node9 -->
<g id="Node000009" class="node">
<title>Node9</title>
<g id="a_Node000009"><a xlink:title=" ">
<polygon fill="#e0e0e0" stroke="#999999" points="993.5,-74 946.5,-74 946.5,-55 993.5,-55 993.5,-74"/>
<text text-anchor="middle" x="970" y="-62" font-family="Helvetica,sans-Serif" font-size="10.00">vector</text>
</a>
</g>
</g>
<!-- Node2&#45;&gt;Node9 -->
<g id="edge16_Node000002_Node000009" class="edge">
<title>Node2&#45;&gt;Node9</title>
<g id="a_edge16_Node000002_Node000009"><a xlink:title=" ">
<path fill="none" stroke="#63b8ff" d="M837.77,-170.41C831.52,-156.35 821.87,-128.15 835,-110 857.93,-78.29 904.25,-68.79 936.19,-66.15"/>
<polygon fill="#63b8ff" stroke="#63b8ff" points="936.66,-69.63 946.41,-65.5 936.21,-62.64 936.66,-69.63"/>
</a>
</g>
</g>
<!-- Node16 -->
<g id="Node000016" class="node">
<title>Node16</title>
<g id="a_Node000016"><a xlink:title=" ">
<polygon fill="#e0e0e0" stroke="#999999" points="788,-129 730,-129 730,-110 788,-110 788,-129"/>
<text text-anchor="middle" x="759" y="-117" font-family="Helvetica,sans-Serif" font-size="10.00">memory</text>
</a>
</g>
</g>
<!-- Node2&#45;&gt;Node16 -->
<g id="edge17_Node000002_Node000016" class="edge">
<title>Node2&#45;&gt;Node16</title>
<g id="a_edge17_Node000002_Node000016"><a xlink:title=" ">
<path fill="none" stroke="#63b8ff" d="M829.75,-170.37C816.64,-161.12 795.58,-146.28 779.85,-135.19"/>
<polygon fill="#63b8ff" stroke="#63b8ff" points="781.49,-132.07 771.3,-129.17 777.45,-137.79 781.49,-132.07"/>
</a>
</g>
</g>
<!-- Node17 -->
<g id="Node000017" class="node">
<title>Node17</title>
<g id="a_Node000017"><a xlink:title=" ">
<polygon fill="#e0e0e0" stroke="#999999" points="892,-129 844,-129 844,-110 892,-110 892,-129"/>
<text text-anchor="middle" x="868" y="-117" font-family="Helvetica,sans-Serif" font-size="10.00">thread</text>
</a>
</g>
</g>
<!-- Node2&#45;&gt;Node17 -->
<g id="edge18_Node000002_Node000017" class="edge">
<title>Node2&#45;&gt;Node17</title>
<g id="a_edge18_Node000002_Node000017"><a xlink:title=" ">
<path fill="none" stroke="#63b8ff" d="M845.84,-170.37C849.56,-161.99 855.33,-149.01 860.05,-138.39"/>
<polygon fill="#63b8ff" stroke="#63b8ff" points="863.28,-139.73 864.15,-129.17 856.89,-136.88 863.28,-139.73"/>
</a>
</g>
</g>
<!-- Node18 -->
<g id="Node000018" class="node">
<title>Node18</title>
<g id="a_Node000018"><a xlink:title=" ">
<polygon fill="#e0e0e0" stroke="#999999" points="438,-129 388,-129 388,-110 438,-110 438,-129"/>
<text text-anchor="middle" x="413" y="-117" font-family="Helvetica,sans-Serif" font-size="10.00">atomic</text>
</a>
</g>
</g>
<!-- Node2&#45;&gt;Node18 -->
<g id="edge19_Node000002_Node000018" class="edge">
<title>Node2&#45;&gt;Node18</title>
<g id="a_edge19_Node000002_Node000018"><a xlink:title=" ">
<path fill="none" stroke="#63b8ff" d="M797.9,-175.15C726.41,-168.52 580.7,-153.47 448.11,-129"/>
<polygon fill="#63b8ff" stroke="#63b8ff" points="448.65,-125.54 438.18,-127.15 447.36,-132.43 448.65,-125.54"/>
</a>
</g>
</g>
<!-- Node19 -->
<g id="Node000019" class="node">
<title>Node19</title>
<g id="a_Node000019"><a xlink:title=" ">
<polygon fill="#e0e0e0" stroke="#999999" points="1176,-129 1116,-129 1116,-110 1176,-110 1176,-129"/>
<text text-anchor="middle" x="1146" y="-117" font-family="Helvetica,sans-Serif" font-size="10.00">iostream</text>
</a>
</g>
</g>
<!-- Node2&#45;&gt;Node19 -->
<g id="edge20_Node000002_Node000019" class="edge">
<title>Node2&#45;&gt;Node19</title>
<g id="a_edge20_Node000002_Node000019"><a xlink:title=" ">
<path fill="none" stroke="#63b8ff" d="M886.15,-171.06C936.8,-161.87 1022.61,-146.03 1105.9,-129.18"/>
<polygon fill="#63b8ff" stroke="#63b8ff" points="1106.68,-132.59 1115.78,-127.17 1105.29,-125.73 1106.68,-132.59"/>
</a>
</g>
</g>
<!-- Node20 -->
<g id="Node000020" class="node">
<title>Node20</title>
<g id="a_Node000020"><a xlink:title=" ">
<polygon fill="#e0e0e0" stroke="#999999" points="1250,-129 1194,-129 1194,-110 1250,-110 1250,-129"/>
<text text-anchor="middle" x="1222" y="-117" font-family="Helvetica,sans-Serif" font-size="10.00">sstream</text>
</a>
</g>
</g>
<!-- Node2&#45;&gt;Node20 -->
<g id="edge21_Node000002_Node000020" class="edge">
<title>Node2&#45;&gt;Node20</title>
<g id="a_edge21_Node000002_Node000020"><a xlink:title=" ">
<path fill="none" stroke="#63b8ff" d="M886.05,-173.74C949.66,-165.89 1071.11,-149.95 1183.93,-129.07"/>
<polygon fill="#63b8ff" stroke="#63b8ff" points="1184.58,-132.51 1193.77,-127.23 1183.3,-125.63 1184.58,-132.51"/>
</a>
</g>
</g>
<!-- Node21 -->
<g id="Node000021" class="node">
<title>Node21</title>
<g id="a_Node000021"><a xlink:title=" ">
<polygon fill="#e0e0e0" stroke="#999999" points="1098,-129 1048,-129 1048,-110 1098,-110 1098,-129"/>
<text text-anchor="middle" x="1073" y="-117" font-family="Helvetica,sans-Serif" font-size="10.00">cstring</text>
</a>
</g>
</g>
<!-- Node2&#45;&gt;Node21 -->
<g id="edge22_Node000002_Node000021" class="edge">
<title>Node2&#45;&gt;Node21</title>
<g id="a_edge22_Node000002_Node000021"><a xlink:title=" ">
<path fill="none" stroke="#63b8ff" d="M875.59,-170.49C918.92,-159.52 993.92,-140.53 1037.95,-129.38"/>
<polygon fill="#63b8ff" stroke="#63b8ff" points="1039.07,-132.7 1047.91,-126.85 1037.35,-125.92 1039.07,-132.7"/>
</a>
</g>
</g>
<!-- Node4 -->
<g id="Node000004" class="node">
<title>Node4</title>
<g id="a_Node000004"><a xlink:title=" ">
<polygon fill="#e0e0e0" stroke="#999999" points="541.5,-74 494.5,-74 494.5,-55 541.5,-55 541.5,-74"/>
<text text-anchor="middle" x="518" y="-62" font-family="Helvetica,sans-Serif" font-size="10.00">queue</text>
</a>
</g>
</g>
<!-- Node3&#45;&gt;Node4 -->
<g id="edge3_Node000003_Node000004" class="edge">
<title>Node3&#45;&gt;Node4</title>
<g id="a_edge3_Node000003_Node000004"><a xlink:title=" ">
<path fill="none" stroke="#63b8ff" d="M504.64,-109.75C506.76,-102.72 509.81,-92.62 512.46,-83.84"/>
<polygon fill="#63b8ff" stroke="#63b8ff" points="515.87,-84.67 515.41,-74.09 509.17,-82.65 515.87,-84.67"/>
</a>
</g>
</g>
<!-- Node3&#45;&gt;Node5 -->
<g id="edge4_Node000003_Node000005" class="edge">
<title>Node3&#45;&gt;Node5</title>
<g id="a_edge4_Node000003_Node000005"><a xlink:title=" ">
<path fill="none" stroke="#63b8ff" d="M515.17,-109.98C527.77,-101.84 547,-89.41 561.94,-79.76"/>
<polygon fill="#63b8ff" stroke="#63b8ff" points="564.09,-82.54 570.59,-74.17 560.29,-76.66 564.09,-82.54"/>
</a>
</g>
</g>
<!-- Node8 -->
<g id="Node000008" class="node">
<title>Node8</title>
<g id="a_Node000008"><a xlink:title=" ">
<polygon fill="#e0e0e0" stroke="#999999" points="1322,-19 1272,-19 1272,0 1322,0 1322,-19"/>
<text text-anchor="middle" x="1297" y="-7" font-family="Helvetica,sans-Serif" font-size="10.00">cstdint</text>
</a>
</g>
</g>
<!-- Node7&#45;&gt;Node8 -->
<g id="edge7_Node000007_Node000008" class="edge">
<title>Node7&#45;&gt;Node8</title>
<g id="a_edge7_Node000007_Node000008"><a xlink:title=" ">
<path fill="none" stroke="#63b8ff" d="M995.93,-109.94C1054.41,-90.62 1196.58,-43.67 1262.45,-21.91"/>
<polygon fill="#63b8ff" stroke="#63b8ff" points="1263.57,-25.23 1271.96,-18.77 1261.37,-18.58 1263.57,-25.23"/>
</a>
</g>
</g>
<!-- Node7&#45;&gt;Node9 -->
<g id="edge8_Node000007_Node000009" class="edge">
<title>Node7&#45;&gt;Node9</title>
<g id="a_edge8_Node000007_Node000009"><a xlink:title=" ">
<path fill="none" stroke="#63b8ff" d="M970,-109.75C970,-102.8 970,-92.85 970,-84.13"/>
<polygon fill="#63b8ff" stroke="#63b8ff" points="973.5,-84.09 970,-74.09 966.5,-84.09 973.5,-84.09"/>
</a>
</g>
</g>
<!-- Node7&#45;&gt;Node10 -->
<g id="edge9_Node000007_Node000010" class="edge">
<title>Node7&#45;&gt;Node10</title>
<g id="a_edge9_Node000007_Node000010"><a xlink:title=" ">
<path fill="none" stroke="#63b8ff" d="M1029.81,-110.88C1032.92,-110.56 1035.99,-110.27 1039,-110 1296.16,-87.17 1600.07,-74.29 1753.95,-68.77"/>
<polygon fill="#63b8ff" stroke="#63b8ff" points="1754.44,-72.25 1764.31,-68.4 1754.2,-65.26 1754.44,-72.25"/>
</a>
</g>
</g>
<!-- Node10&#45;&gt;Node8 -->
<g id="edge15_Node000010_Node000008" class="edge">
<title>Node10&#45;&gt;Node8</title>
<g id="a_edge15_Node000010_Node000008"><a xlink:title=" ">
<path fill="none" stroke="#63b8ff" d="M1764.51,-54.98C1639.34,-43.07 1417.73,-21.99 1332.12,-13.84"/>
<polygon fill="#63b8ff" stroke="#63b8ff" points="1332.42,-10.35 1322.13,-12.89 1331.75,-17.32 1332.42,-10.35"/>
</a>
</g>
</g>
<!-- Node11 -->
<g id="Node000011" class="node">
<title>Node11</title>
<g id="a_Node000011"><a xlink:title=" ">
<polygon fill="#e0e0e0" stroke="#999999" points="1612,-19 1502,-19 1502,0 1612,0 1612,-19"/>
<text text-anchor="middle" x="1557" y="-7" font-family="Helvetica,sans-Serif" font-size="10.00">SFML/Graphics.hpp</text>
</a>
</g>
</g>
<!-- Node10&#45;&gt;Node11 -->
<g id="edge10_Node000010_Node000011" class="edge">
<title>Node10&#45;&gt;Node11</title>
<g id="a_edge10_Node000010_Node000011"><a xlink:title=" ">
<path fill="none" stroke="#63b8ff" d="M1806.28,-54.98C1754.26,-45.7 1671,-30.84 1615.18,-20.88"/>
<polygon fill="#63b8ff" stroke="#63b8ff" points="1615.55,-17.39 1605.09,-19.08 1614.32,-24.28 1615.55,-17.39"/>
</a>
</g>
</g>
<!-- Node12 -->
<g id="Node000012" class="node">
<title>Node12</title>
<g id="a_Node000012"><a xlink:title=" ">
<polygon fill="#e0e0e0" stroke="#999999" points="1785.5,-19 1630.5,-19 1630.5,0 1785.5,0 1785.5,-19"/>
<text text-anchor="middle" x="1708" y="-7" font-family="Helvetica,sans-Serif" font-size="10.00">SFML/Window/Keyboard.hpp</text>
</a>
</g>
</g>
<!-- Node10&#45;&gt;Node12 -->
<g id="edge11_Node000010_Node000012" class="edge">
<title>Node10&#45;&gt;Node12</title>
<g id="a_edge11_Node000010_Node000012"><a xlink:title=" ">
<path fill="none" stroke="#63b8ff" d="M1830.54,-54.98C1806.42,-46.23 1768.63,-32.51 1741.4,-22.62"/>
<polygon fill="#63b8ff" stroke="#63b8ff" points="1742.48,-19.29 1731.88,-19.17 1740.09,-25.87 1742.48,-19.29"/>
</a>
</g>
</g>
<!-- Node13 -->
<g id="Node000013" class="node">
<title>Node13</title>
<g id="a_Node000013"><a xlink:title=" ">
<polygon fill="#e0e0e0" stroke="#999999" points="1904.5,-19 1803.5,-19 1803.5,0 1904.5,0 1904.5,-19"/>
<text text-anchor="middle" x="1854" y="-7" font-family="Helvetica,sans-Serif" font-size="10.00">engine/Menu.hpp</text>
</a>
</g>
</g>
<!-- Node10&#45;&gt;Node13 -->
<g id="edge12_Node000010_Node000013" class="edge">
<title>Node10&#45;&gt;Node13</title>
<g id="a_edge12_Node000010_Node000013"><a xlink:title=" ">
<path fill="none" stroke="#63b8ff" d="M1854,-54.75C1854,-47.8 1854,-37.85 1854,-29.13"/>
<polygon fill="#63b8ff" stroke="#63b8ff" points="1857.5,-29.09 1854,-19.09 1850.5,-29.09 1857.5,-29.09"/>
</a>
</g>
</g>
<!-- Node14 -->
<g id="Node000014" class="node">
<title>Node14</title>
<g id="a_Node000014"><a xlink:title=" ">
<polygon fill="#e0e0e0" stroke="#999999" points="1967,-19 1923,-19 1923,0 1967,0 1967,-19"/>
<text text-anchor="middle" x="1945" y="-7" font-family="Helvetica,sans-Serif" font-size="10.00">string</text>
</a>
</g>
</g>
<!-- Node10&#45;&gt;Node14 -->
<g id="edge13_Node000010_Node000014" class="edge">
<title>Node10&#45;&gt;Node14</title>
<g id="a_edge13_Node000010_Node000014"><a xlink:title=" ">
<path fill="none" stroke="#63b8ff" d="M1868.62,-54.98C1882.86,-46.69 1904.75,-33.94 1921.45,-24.22"/>
<polygon fill="#63b8ff" stroke="#63b8ff" points="1923.23,-27.23 1930.11,-19.17 1919.71,-21.18 1923.23,-27.23"/>
</a>
</g>
</g>
<!-- Node15 -->
<g id="Node000015" class="node">
<title>Node15</title>
<g id="a_Node000015"><a xlink:title=" ">
<polygon fill="#e0e0e0" stroke="#999999" points="2050.5,-19 1985.5,-19 1985.5,0 2050.5,0 2050.5,-19"/>
<text text-anchor="middle" x="2018" y="-7" font-family="Helvetica,sans-Serif" font-size="10.00">functional</text>
</a>
</g>
</g>
<!-- Node10&#45;&gt;Node15 -->
<g id="edge14_Node000010_Node000015" class="edge">
<title>Node10&#45;&gt;Node15</title>
<g id="a_edge14_Node000010_Node000015"><a xlink:title=" ">
<path fill="none" stroke="#63b8ff" d="M1880.35,-54.98C1907.76,-46.13 1950.89,-32.19 1981.56,-22.28"/>
<polygon fill="#63b8ff" stroke="#63b8ff" points="1983,-25.49 1991.44,-19.08 1980.85,-18.83 1983,-25.49"/>
</a>
</g>
</g>
<!-- Node23 -->
<g id="Node000023" class="node">
<title>Node23</title>
<g id="a_Node000023"><a xlink:title=" ">
<polygon fill="#e0e0e0" stroke="#999999" points="1448,-129 1344,-129 1344,-110 1448,-110 1448,-129"/>
<text text-anchor="middle" x="1396" y="-117" font-family="Helvetica,sans-Serif" font-size="10.00">SFML/System.hpp</text>
</a>
</g>
</g>
<!-- Node22&#45;&gt;Node23 -->
<g id="edge25_Node000022_Node000023" class="edge">
<title>Node22&#45;&gt;Node23</title>
<g id="a_edge25_Node000022_Node000023"><a xlink:title=" ">
<path fill="none" stroke="#63b8ff" d="M1372.13,-170.37C1376.14,-161.99 1382.35,-149.01 1387.44,-138.39"/>
<polygon fill="#63b8ff" stroke="#63b8ff" points="1390.69,-139.7 1391.85,-129.17 1384.38,-136.68 1390.69,-139.7"/>
</a>
</g>
</g>
<!-- Node24&#45;&gt;Node4 -->
<g id="edge27_Node000024_Node000004" class="edge">
<title>Node24&#45;&gt;Node4</title>
<g id="a_edge27_Node000024_Node000004"><a xlink:title=" ">
<path fill="none" stroke="#63b8ff" d="M363.25,-110.57C395.65,-101.13 449.72,-85.38 484.61,-75.22"/>
<polygon fill="#63b8ff" stroke="#63b8ff" points="485.72,-78.55 494.34,-72.39 483.76,-71.83 485.72,-78.55"/>
</a>
</g>
</g>
<!-- Node24&#45;&gt;Node8 -->
<g id="edge28_Node000024_Node000008" class="edge">
<title>Node24&#45;&gt;Node8</title>
<g id="a_edge28_Node000024_Node000008"><a xlink:title=" ">
<path fill="none" stroke="#63b8ff" d="M359.19,-109.84C381.81,-101.25 417.08,-87.45 447,-74 464.22,-66.26 466.75,-59.84 485,-55 634.81,-15.28 1124.91,-10.96 1261.42,-10.53"/>
<polygon fill="#63b8ff" stroke="#63b8ff" points="1261.73,-14.03 1271.72,-10.51 1261.71,-7.03 1261.73,-14.03"/>
</a>
</g>
</g>
<!-- Node24&#45;&gt;Node9 -->
<g id="edge30_Node000024_Node000009" class="edge">
<title>Node24&#45;&gt;Node9</title>
<g id="a_edge30_Node000024_Node000009"><a xlink:title=" ">
<path fill="none" stroke="#63b8ff" d="M363.21,-112.61C368.44,-111.62 373.87,-110.7 379,-110 589.64,-81.36 845.22,-69.96 936.01,-66.63"/>
<polygon fill="#63b8ff" stroke="#63b8ff" points="936.38,-70.12 946.25,-66.26 936.13,-63.13 936.38,-70.12"/>
</a>
</g>
</g>
<!-- Node25 -->
<g id="Node000025" class="node">
<title>Node25</title>
<g id="a_Node000025"><a xlink:title=" ">
<polygon fill="#e0e0e0" stroke="#999999" points="438,-74 386,-74 386,-55 438,-55 438,-74"/>
<text text-anchor="middle" x="412" y="-62" font-family="Helvetica,sans-Serif" font-size="10.00">cassert</text>
</a>
</g>
</g>
<!-- Node24&#45;&gt;Node25 -->
<g id="edge29_Node000024_Node000025" class="edge">
<title>Node24&#45;&gt;Node25</title>
<g id="a_edge29_Node000024_Node000025"><a xlink:title=" ">
<path fill="none" stroke="#63b8ff" d="M348.21,-109.98C359.78,-101.92 377.38,-89.65 391.16,-80.03"/>
<polygon fill="#63b8ff" stroke="#63b8ff" points="393.37,-82.76 399.57,-74.17 389.36,-77.02 393.37,-82.76"/>
</a>
</g>
</g>
<!-- Node26 -->
<g id="Node000026" class="node">
<title>Node26</title>
<g id="a_Node000026"><a xlink:title=" ">
<polygon fill="#e0e0e0" stroke="#999999" points="44,-74 0,-74 0,-55 44,-55 44,-74"/>
<text text-anchor="middle" x="22" y="-62" font-family="Helvetica,sans-Serif" font-size="10.00">limits</text>
</a>
</g>
</g>
<!-- Node24&#45;&gt;Node26 -->
<g id="edge31_Node000024_Node000026" class="edge">
<title>Node24&#45;&gt;Node26</title>
<g id="a_edge31_Node000024_Node000026"><a xlink:title=" ">
<path fill="none" stroke="#63b8ff" d="M308.89,-115.26C259.91,-109.19 153.28,-94.98 54.15,-74.04"/>
<polygon fill="#63b8ff" stroke="#63b8ff" points="54.79,-70.6 44.28,-71.93 53.32,-77.44 54.79,-70.6"/>
</a>
</g>
</g>
<!-- Node27 -->
<g id="Node000027" class="node">
<title>Node27</title>
<g id="a_Node000027"><a xlink:title=" ">
<polygon fill="#e0e0e0" stroke="#999999" points="106,-74 62,-74 62,-55 106,-55 106,-74"/>
<text text-anchor="middle" x="84" y="-62" font-family="Helvetica,sans-Serif" font-size="10.00">bitset</text>
</a>
</g>
</g>
<!-- Node24&#45;&gt;Node27 -->
<g id="edge32_Node000024_Node000027" class="edge">
<title>Node24&#45;&gt;Node27</title>
<g id="a_edge32_Node000024_Node000027"><a xlink:title=" ">
<path fill="none" stroke="#63b8ff" d="M308.99,-113.68C269.02,-106.42 191.53,-91.83 116.4,-74.2"/>
<polygon fill="#63b8ff" stroke="#63b8ff" points="116.84,-70.71 106.3,-71.81 115.23,-77.52 116.84,-70.71"/>
</a>
</g>
</g>
<!-- Node28 -->
<g id="Node000028" class="node">
<title>Node28</title>
<g id="a_Node000028"><a xlink:title=" ">
<polygon fill="#e0e0e0" stroke="#999999" points="193.5,-74 124.5,-74 124.5,-55 193.5,-55 193.5,-74"/>
<text text-anchor="middle" x="159" y="-62" font-family="Helvetica,sans-Serif" font-size="10.00">type_traits</text>
</a>
</g>
</g>
<!-- Node24&#45;&gt;Node28 -->
<g id="edge33_Node000024_Node000028" class="edge">
<title>Node24&#45;&gt;Node28</title>
<g id="a_edge33_Node000024_Node000028"><a xlink:title=" ">
<path fill="none" stroke="#63b8ff" d="M308.73,-110.33C278.94,-101.41 230.99,-87.06 197.4,-77"/>
<polygon fill="#63b8ff" stroke="#63b8ff" points="198.06,-73.54 187.47,-74.03 196.05,-80.25 198.06,-73.54"/>
</a>
</g>
</g>
<!-- Node29 -->
<g id="Node000029" class="node">
<title>Node29</title>
<g id="a_Node000029"><a xlink:title=" ">
<polygon fill="#e0e0e0" stroke="#999999" points="256.5,-74 211.5,-74 211.5,-55 256.5,-55 256.5,-74"/>
<text text-anchor="middle" x="234" y="-62" font-family="Helvetica,sans-Serif" font-size="10.00">utility</text>
</a>
</g>
</g>
<!-- Node24&#45;&gt;Node29 -->
<g id="edge34_Node000024_Node000029" class="edge">
<title>Node24&#45;&gt;Node29</title>
<g id="a_edge34_Node000024_Node000029"><a xlink:title=" ">
<path fill="none" stroke="#63b8ff" d="M319.61,-109.98C303.43,-101.57 278.43,-88.59 259.62,-78.81"/>
<polygon fill="#63b8ff" stroke="#63b8ff" points="261.17,-75.68 250.69,-74.17 257.95,-81.89 261.17,-75.68"/>
</a>
</g>
</g>
<!-- Node30 -->
<g id="Node000030" class="node">
<title>Node30</title>
<g id="a_Node000030"><a xlink:title=" ">
<polygon fill="#e0e0e0" stroke="#999999" points="367.5,-74 274.5,-74 274.5,-55 367.5,-55 367.5,-74"/>
<text text-anchor="middle" x="321" y="-62" font-family="Helvetica,sans-Serif" font-size="10.00">unordered_map</text>
</a>
</g>
</g>
<!-- Node24&#45;&gt;Node30 -->
<g id="edge35_Node000024_Node000030" class="edge">
<title>Node24&#45;&gt;Node30</title>
<g id="a_edge35_Node000024_Node000030"><a xlink:title=" ">
<path fill="none" stroke="#63b8ff" d="M333.52,-109.75C331.54,-102.72 328.68,-92.62 326.19,-83.84"/>
<polygon fill="#63b8ff" stroke="#63b8ff" points="329.52,-82.76 323.43,-74.09 322.79,-84.66 329.52,-82.76"/>
</a>
</g>
</g>
<!-- Node31&#45;&gt;Node10 -->
<g id="edge39_Node000031_Node000010" class="edge">
<title>Node31&#45;&gt;Node10</title>
<g id="a_edge39_Node000031_Node000010"><a xlink:title=" ">
<path fill="none" stroke="#63b8ff" d="M1973.3,-170.27C1971.72,-155.99 1966.68,-127.48 1951,-110 1937.26,-94.69 1917.19,-84.28 1898.87,-77.41"/>
<polygon fill="#63b8ff" stroke="#63b8ff" points="1899.8,-74.03 1889.2,-74.05 1897.49,-80.64 1899.8,-74.03"/>
</a>
</g>
</g>
<!-- Node32 -->
<g id="Node000032" class="node">
<title>Node32</title>
<g id="a_Node000032"><a xlink:title=" ">
<polygon fill="#e0e0e0" stroke="#999999" points="1942,-129 1888,-129 1888,-110 1942,-110 1942,-129"/>
<text text-anchor="middle" x="1915" y="-117" font-family="Helvetica,sans-Serif" font-size="10.00">ecs.hpp</text>
</a>
</g>
</g>
<!-- Node31&#45;&gt;Node32 -->
<g id="edge38_Node000031_Node000032" class="edge">
<title>Node31&#45;&gt;Node32</title>
<g id="a_edge38_Node000031_Node000032"><a xlink:title=" ">
<path fill="none" stroke="#63b8ff" d="M1965.29,-170.37C1956.32,-161.47 1942.12,-147.39 1931.09,-136.45"/>
<polygon fill="#63b8ff" stroke="#63b8ff" points="1933.31,-133.72 1923.74,-129.17 1928.38,-138.69 1933.31,-133.72"/>
</a>
</g>
</g>
<!-- Node33&#45;&gt;Node10 -->
<g id="edge42_Node000033_Node000010" class="edge">
<title>Node33&#45;&gt;Node10</title>
<g id="a_edge42_Node000033_Node000010"><a xlink:title=" ">
<path fill="none" stroke="#63b8ff" d="M1780.81,-170.35C1797.57,-162.06 1821.05,-147.99 1835,-129 1844.69,-115.81 1849.48,-97.69 1851.82,-84.17"/>
<polygon fill="#63b8ff" stroke="#63b8ff" points="1855.3,-84.52 1853.26,-74.12 1848.38,-83.52 1855.3,-84.52"/>
</a>
</g>
</g>
<!-- Node33&#45;&gt;Node32 -->
<g id="edge41_Node000033_Node000032" class="edge">
<title>Node33&#45;&gt;Node32</title>
<g id="a_edge41_Node000033_Node000032"><a xlink:title=" ">
<path fill="none" stroke="#63b8ff" d="M1783.39,-170.49C1809.62,-160.53 1853.28,-143.95 1883.06,-132.63"/>
<polygon fill="#63b8ff" stroke="#63b8ff" points="1884.47,-135.84 1892.58,-129.02 1881.99,-129.3 1884.47,-135.84"/>
</a>
</g>
</g>
<!-- Node34 -->
<g id="Node000034" class="node">
<title>Node34</title>
<g id="a_Node000034"><a xlink:title=" ">
<polygon fill="#e0e0e0" stroke="#999999" points="1825.5,-129 1778.5,-129 1778.5,-110 1825.5,-110 1825.5,-129"/>
<text text-anchor="middle" x="1802" y="-117" font-family="Helvetica,sans-Serif" font-size="10.00">cmath</text>
</a>
</g>
</g>
<!-- Node33&#45;&gt;Node34 -->
<g id="edge43_Node000033_Node000034" class="edge">
<title>Node33&#45;&gt;Node34</title>
<g id="a_edge43_Node000033_Node000034"><a xlink:title=" ">
<path fill="none" stroke="#63b8ff" d="M1767.05,-170.37C1773.11,-161.73 1782.59,-148.2 1790.14,-137.42"/>
<polygon fill="#63b8ff" stroke="#63b8ff" points="1793.05,-139.37 1795.93,-129.17 1787.32,-135.35 1793.05,-139.37"/>
</a>
</g>
</g>
<!-- Node35&#45;&gt;Node9 -->
<g id="edge48_Node000035_Node000009" class="edge">
<title>Node35&#45;&gt;Node9</title>
<g id="a_edge48_Node000035_Node000009"><a xlink:title=" ">
<path fill="none" stroke="#63b8ff" d="M1506.26,-170.37C1499.16,-155.15 1482.14,-123.85 1457,-110 1378.87,-66.97 1100.9,-64.6 1003.79,-65.13"/>
<polygon fill="#63b8ff" stroke="#63b8ff" points="1003.62,-61.63 993.65,-65.2 1003.67,-68.63 1003.62,-61.63"/>
</a>
</g>
</g>
<!-- Node35&#45;&gt;Node10 -->
<g id="edge46_Node000035_Node000010" class="edge">
<title>Node35&#45;&gt;Node10</title>
<g id="a_edge46_Node000035_Node000010"><a xlink:title=" ">
<path fill="none" stroke="#63b8ff" d="M1519.95,-170.46C1537.75,-155.67 1576.76,-125.4 1615,-110 1658.95,-92.31 1710.31,-81.57 1754.13,-75.1"/>
<polygon fill="#63b8ff" stroke="#63b8ff" points="1754.82,-78.54 1764.23,-73.66 1753.84,-71.61 1754.82,-78.54"/>
</a>
</g>
</g>
<!-- Node35&#45;&gt;Node19 -->
<g id="edge49_Node000035_Node000019" class="edge">
<title>Node35&#45;&gt;Node19</title>
<g id="a_edge49_Node000035_Node000019"><a xlink:title=" ">
<path fill="none" stroke="#63b8ff" d="M1451.78,-170.49C1376.74,-159.44 1249.3,-140.42 1186.13,-129.09"/>
<polygon fill="#63b8ff" stroke="#63b8ff" points="1186.66,-125.63 1176.2,-127.27 1185.4,-132.52 1186.66,-125.63"/>
</a>
</g>
</g>
<!-- Node35&#45;&gt;Node20 -->
<g id="edge50_Node000035_Node000020" class="edge">
<title>Node35&#45;&gt;Node20</title>
<g id="a_edge50_Node000035_Node000020"><a xlink:title=" ">
<path fill="none" stroke="#63b8ff" d="M1468.12,-170.49C1412.14,-159.12 1313.72,-139.13 1259.85,-128.19"/>
<polygon fill="#63b8ff" stroke="#63b8ff" points="1260.51,-124.75 1250.02,-126.19 1259.12,-131.61 1260.51,-124.75"/>
</a>
</g>
</g>
<!-- Node35&#45;&gt;Node32 -->
<g id="edge45_Node000035_Node000032" class="edge">
<title>Node35&#45;&gt;Node32</title>
<g id="a_edge45_Node000035_Node000032"><a xlink:title=" ">
<path fill="none" stroke="#63b8ff" d="M1568.89,-170.49C1653.4,-158.29 1806.67,-136.15 1877.39,-125.93"/>
<polygon fill="#63b8ff" stroke="#63b8ff" points="1878.21,-129.35 1887.61,-124.46 1877.21,-122.42 1878.21,-129.35"/>
</a>
</g>
</g>
<!-- Node35&#45;&gt;Node36 -->
<g id="edge47_Node000035_Node000036" class="edge">
<title>Node35&#45;&gt;Node36</title>
<g id="a_edge47_Node000035_Node000036"><a xlink:title=" ">
<path fill="none" stroke="#63b8ff" d="M1536.46,-170.49C1567.87,-160.4 1620.4,-143.51 1655.62,-132.19"/>
<polygon fill="#63b8ff" stroke="#63b8ff" points="1657.05,-135.41 1665.5,-129.02 1654.91,-128.74 1657.05,-135.41"/>
</a>
</g>
</g>
<!-- Node37 -->
<g id="Node000037" class="node">
<title>Node37</title>
<g id="a_Node000037"><a xlink:title=" ">
<polygon fill="#e0e0e0" stroke="#999999" points="1568,-129 1504,-129 1504,-110 1568,-110 1568,-129"/>
<text text-anchor="middle" x="1536" y="-117" font-family="Helvetica,sans-Serif" font-size="10.00">algorithm</text>
</a>
</g>
</g>
<!-- Node35&#45;&gt;Node37 -->
<g id="edge51_Node000035_Node000037" class="edge">
<title>Node35&#45;&gt;Node37</title>
<g id="a_edge51_Node000035_Node000037"><a xlink:title=" ">
<path fill="none" stroke="#63b8ff" d="M1513.84,-170.37C1517.56,-161.99 1523.33,-149.01 1528.05,-138.39"/>
<polygon fill="#63b8ff" stroke="#63b8ff" points="1531.28,-139.73 1532.15,-129.17 1524.89,-136.88 1531.28,-139.73"/>
</a>
</g>
</g>
<!-- Node38&#45;&gt;Node10 -->
<g id="edge54_Node000038_Node000010" class="edge">
<title>Node38&#45;&gt;Node10</title>
<g id="a_edge54_Node000038_Node000010"><a xlink:title=" ">
<path fill="none" stroke="#63b8ff" d="M2116.04,-164.97C2056.93,-142.53 1942.12,-98.95 1886.19,-77.72"/>
<polygon fill="#63b8ff" stroke="#63b8ff" points="1887.36,-74.42 1876.77,-74.14 1884.88,-80.97 1887.36,-74.42"/>
</a>
</g>
</g>
<!-- Node38&#45;&gt;Node32 -->
<g id="edge53_Node000038_Node000032" class="edge">
<title>Node38&#45;&gt;Node32</title>
<g id="a_edge53_Node000038_Node000032"><a xlink:title=" ">
<path fill="none" stroke="#63b8ff" d="M2095.99,-164.99C2051.3,-154 1990.43,-139.04 1951.92,-129.58"/>
<polygon fill="#63b8ff" stroke="#63b8ff" points="1952.71,-126.16 1942.16,-127.18 1951.04,-132.96 1952.71,-126.16"/>
</a>
</g>
</g>
<!-- Node39&#45;&gt;Node8 -->
<g id="edge58_Node000039_Node000008" class="edge">
<title>Node39&#45;&gt;Node8</title>
<g id="a_edge58_Node000039_Node000008"><a xlink:title=" ">
<path fill="none" stroke="#63b8ff" d="M1277.07,-170.41C1280.31,-144.39 1290.09,-65.97 1294.63,-29.51"/>
<polygon fill="#63b8ff" stroke="#63b8ff" points="1298.14,-29.63 1295.91,-19.27 1291.2,-28.76 1298.14,-29.63"/>
</a>
</g>
</g>
<!-- Node39&#45;&gt;Node9 -->
<g id="edge56_Node000039_Node000009" class="edge">
<title>Node39&#45;&gt;Node9</title>
<g id="a_edge56_Node000039_Node000009"><a xlink:title=" ">
<path fill="none" stroke="#63b8ff" d="M1276.66,-170.3C1277.26,-155.53 1276.11,-125.66 1259,-110 1222.29,-76.42 1072.37,-68.17 1004.12,-66.15"/>
<polygon fill="#63b8ff" stroke="#63b8ff" points="1003.99,-62.65 993.9,-65.88 1003.8,-69.65 1003.99,-62.65"/>
</a>
</g>
</g>
<!-- Node39&#45;&gt;Node21 -->
<g id="edge57_Node000039_Node000021" class="edge">
<title>Node39&#45;&gt;Node21</title>
<g id="a_edge57_Node000039_Node000021"><a xlink:title=" ">
<path fill="none" stroke="#63b8ff" d="M1246.48,-170.49C1209.66,-159.88 1146.8,-141.77 1107.71,-130.5"/>
<polygon fill="#63b8ff" stroke="#63b8ff" points="1108.65,-127.13 1098.07,-127.73 1106.71,-133.86 1108.65,-127.13"/>
</a>
</g>
</g>
</g>
</svg>
