<?xml version="1.0" encoding="UTF-8" standalone="no"?>
<!DOCTYPE svg PUBLIC "-//W3C//DTD SVG 1.1//EN"
 "http://www.w3.org/Graphics/SVG/1.1/DTD/svg11.dtd">
<!-- Generated by graphviz version 2.43.0 (0)
 -->
<!-- Title: src/server/main.cpp Pages: 1 -->
<svg width="595pt" height="247pt"
 viewBox="0.00 0.00 595.00 247.00" xmlns="http://www.w3.org/2000/svg" xmlns:xlink="http://www.w3.org/1999/xlink">
<g id="graph0" class="graph" transform="scale(1 1) rotate(0) translate(4 243)">
<title>src/server/main.cpp</title>
<!-- Node1 -->
<g id="Node000001" class="node">
<title>Node1</title>
<g id="a_Node000001"><a xlink:title=" ">
<polygon fill="#999999" stroke="#666666" points="555.5,-239 442.5,-239 442.5,-220 555.5,-220 555.5,-239"/>
<text text-anchor="middle" x="499" y="-227" font-family="Helvetica,sans-Serif" font-size="10.00">src/server/main.cpp</text>
</a>
</g>
</g>
<!-- Node2 -->
<g id="Node000002" class="node">
<title>Node2</title>
<g id="a_Node000002"><a xlink:href="NetworkManager_8hpp.html" target="_top" xlink:title=" ">
<polygon fill="white" stroke="#666666" points="344.5,-184 223.5,-184 223.5,-165 344.5,-165 344.5,-184"/>
<text text-anchor="middle" x="284" y="-172" font-family="Helvetica,sans-Serif" font-size="10.00">NetworkManager.hpp</text>
</a>
</g>
</g>
<!-- Node1&#45;&gt;Node2 -->
<g id="edge1_Node000001_Node000002" class="edge">
<title>Node1&#45;&gt;Node2</title>
<g id="a_edge1_Node000001_Node000002"><a xlink:title=" ">
<path fill="none" stroke="#63b8ff" d="M464.46,-219.98C427.58,-210.89 369.01,-196.46 328.66,-186.51"/>
<polygon fill="#63b8ff" stroke="#63b8ff" points="329.36,-183.08 318.81,-184.08 327.69,-189.87 329.36,-183.08"/>
</a>
</g>
</g>
<!-- Node13 -->
<g id="Node000013" class="node">
<title>Node13</title>
<g id="a_Node000013"><a xlink:title=" ">
<polygon fill="#e0e0e0" stroke="#999999" points="560,-74 456,-74 456,-55 560,-55 560,-74"/>
<text text-anchor="middle" x="508" y="-62" font-family="Helvetica,sans-Serif" font-size="10.00">SFML/System.hpp</text>
</a>
</g>
</g>
<!-- Node1&#45;&gt;Node13 -->
<g id="edge21_Node000001_Node000013" class="edge">
<title>Node1&#45;&gt;Node13</title>
<g id="a_edge21_Node000001_Node000013"><a xlink:title=" ">
<path fill="none" stroke="#63b8ff" d="M499.48,-219.74C500.89,-194.31 504.99,-120.08 506.94,-84.69"/>
<polygon fill="#63b8ff" stroke="#63b8ff" points="510.46,-84.48 507.51,-74.31 503.47,-84.1 510.46,-84.48"/>
</a>
</g>
</g>
<!-- Node14 -->
<g id="Node000014" class="node">
<title>Node14</title>
<g id="a_Node000014"><a xlink:title=" ">
<polygon fill="#e0e0e0" stroke="#999999" points="587,-184 527,-184 527,-165 587,-165 587,-184"/>
<text text-anchor="middle" x="557" y="-172" font-family="Helvetica,sans-Serif" font-size="10.00">iostream</text>
</a>
</g>
</g>
<!-- Node1&#45;&gt;Node14 -->
<g id="edge20_Node000001_Node000014" class="edge">
<title>Node1&#45;&gt;Node14</title>
<g id="a_edge20_Node000001_Node000014"><a xlink:title=" ">
<path fill="none" stroke="#63b8ff" d="M508.32,-219.98C516.81,-212.23 529.56,-200.58 539.88,-191.14"/>
<polygon fill="#63b8ff" stroke="#63b8ff" points="542.49,-193.5 547.51,-184.17 537.77,-188.33 542.49,-193.5"/>
</a>
</g>
</g>
<!-- Node3 -->
<g id="Node000003" class="node">
<title>Node3</title>
<g id="a_Node000003"><a xlink:href="UdpReceiver_8hpp.html" target="_top" xlink:title=" ">
<polygon fill="white" stroke="#666666" points="217.5,-74 118.5,-74 118.5,-55 217.5,-55 217.5,-74"/>
<text text-anchor="middle" x="168" y="-62" font-family="Helvetica,sans-Serif" font-size="10.00">UdpReceiver.hpp</text>
</a>
</g>
</g>
<!-- Node2&#45;&gt;Node3 -->
<g id="edge2_Node000002_Node000003" class="edge">
<title>Node2&#45;&gt;Node3</title>
<g id="a_edge2_Node000002_Node000003"><a xlink:title=" ">
<path fill="none" stroke="#63b8ff" d="M267.21,-164.93C252.45,-156.9 230.91,-143.92 215,-129 200.35,-115.26 187.08,-96.46 178.4,-82.88"/>
<polygon fill="#63b8ff" stroke="#63b8ff" points="181.19,-80.73 172.95,-74.07 175.23,-84.41 181.19,-80.73"/>
</a>
</g>
</g>
<!-- Node8 -->
<g id="Node000008" class="node">
<title>Node8</title>
<g id="a_Node000008"><a xlink:href="UdpSender_8hpp.html" target="_top" xlink:title=" ">
<polygon fill="white" stroke="#666666" points="122,-129 32,-129 32,-110 122,-110 122,-129"/>
<text text-anchor="middle" x="77" y="-117" font-family="Helvetica,sans-Serif" font-size="10.00">UdpSender.hpp</text>
</a>
</g>
</g>
<!-- Node2&#45;&gt;Node8 -->
<g id="edge7_Node000002_Node000008" class="edge">
<title>Node2&#45;&gt;Node8</title>
<g id="a_edge7_Node000002_Node000008"><a xlink:title=" ">
<path fill="none" stroke="#63b8ff" d="M250.74,-164.98C215.39,-155.93 159.33,-141.58 120.49,-131.64"/>
<polygon fill="#63b8ff" stroke="#63b8ff" points="121.07,-128.17 110.52,-129.08 119.34,-134.95 121.07,-128.17"/>
</a>
</g>
</g>
<!-- Node10 -->
<g id="Node000010" class="node">
<title>Node10</title>
<g id="a_Node000010"><a xlink:href="PacketInterpreter_8hpp.html" target="_top" xlink:title=" ">
<polygon fill="white" stroke="#666666" points="344,-129 224,-129 224,-110 344,-110 344,-129"/>
<text text-anchor="middle" x="284" y="-117" font-family="Helvetica,sans-Serif" font-size="10.00">PacketInterpreter.hpp</text>
</a>
</g>
</g>
<!-- Node2&#45;&gt;Node10 -->
<g id="edge10_Node000002_Node000010" class="edge">
<title>Node2&#45;&gt;Node10</title>
<g id="a_edge10_Node000002_Node000010"><a xlink:title=" ">
<path fill="none" stroke="#63b8ff" d="M284,-164.75C284,-157.8 284,-147.85 284,-139.13"/>
<polygon fill="#63b8ff" stroke="#63b8ff" points="287.5,-139.09 284,-129.09 280.5,-139.09 287.5,-139.09"/>
</a>
</g>
</g>
<!-- Node12 -->
<g id="Node000012" class="node">
<title>Node12</title>
<g id="a_Node000012"><a xlink:href="GameLoop_8hpp.html" target="_top" xlink:title=" ">
<polygon fill="white" stroke="#666666" points="462,-129 372,-129 372,-110 462,-110 462,-129"/>
<text text-anchor="middle" x="417" y="-117" font-family="Helvetica,sans-Serif" font-size="10.00">GameLoop.hpp</text>
</a>
</g>
</g>
<!-- Node2&#45;&gt;Node12 -->
<g id="edge16_Node000002_Node000012" class="edge">
<title>Node2&#45;&gt;Node12</title>
<g id="a_edge16_Node000002_Node000012"><a xlink:title=" ">
<path fill="none" stroke="#63b8ff" d="M305.37,-164.98C327.15,-156.3 361.16,-142.75 385.92,-132.88"/>
<polygon fill="#63b8ff" stroke="#63b8ff" points="387.25,-136.12 395.24,-129.17 384.66,-129.62 387.25,-136.12"/>
</a>
</g>
</g>
<!-- Node4 -->
<g id="Node000004" class="node">
<title>Node4</title>
<g id="a_Node000004"><a xlink:title=" ">
<polygon fill="#e0e0e0" stroke="#999999" points="108,-19 0,-19 0,0 108,0 108,-19"/>
<text text-anchor="middle" x="54" y="-7" font-family="Helvetica,sans-Serif" font-size="10.00">SFML/Network.hpp</text>
</a>
</g>
</g>
<!-- Node3&#45;&gt;Node4 -->
<g id="edge3_Node000003_Node000004" class="edge">
<title>Node3&#45;&gt;Node4</title>
<g id="a_edge3_Node000003_Node000004"><a xlink:title=" ">
<path fill="none" stroke="#63b8ff" d="M149.68,-54.98C131.34,-46.46 102.89,-33.23 81.77,-23.41"/>
<polygon fill="#63b8ff" stroke="#63b8ff" points="83.19,-20.21 72.65,-19.17 80.24,-26.56 83.19,-20.21"/>
</a>
</g>
</g>
<!-- Node5 -->
<g id="Node000005" class="node">
<title>Node5</title>
<g id="a_Node000005"><a xlink:title=" ">
<polygon fill="#e0e0e0" stroke="#999999" points="196.5,-19 149.5,-19 149.5,0 196.5,0 196.5,-19"/>
<text text-anchor="middle" x="173" y="-7" font-family="Helvetica,sans-Serif" font-size="10.00">queue</text>
</a>
</g>
</g>
<!-- Node3&#45;&gt;Node5 -->
<g id="edge4_Node000003_Node000005" class="edge">
<title>Node3&#45;&gt;Node5</title>
<g id="a_edge4_Node000003_Node000005"><a xlink:title=" ">
<path fill="none" stroke="#63b8ff" d="M168.83,-54.75C169.48,-47.8 170.42,-37.85 171.24,-29.13"/>
<polygon fill="#63b8ff" stroke="#63b8ff" points="174.73,-29.37 172.19,-19.09 167.77,-28.72 174.73,-29.37"/>
</a>
</g>
</g>
<!-- Node6 -->
<g id="Node000006" class="node">
<title>Node6</title>
<g id="a_Node000006"><a xlink:title=" ">
<polygon fill="#e0e0e0" stroke="#999999" points="346,-19 298,-19 298,0 346,0 346,-19"/>
<text text-anchor="middle" x="322" y="-7" font-family="Helvetica,sans-Serif" font-size="10.00">thread</text>
</a>
</g>
</g>
<!-- Node3&#45;&gt;Node6 -->
<g id="edge5_Node000003_Node000006" class="edge">
<title>Node3&#45;&gt;Node6</title>
<g id="a_edge5_Node000003_Node000006"><a xlink:title=" ">
<path fill="none" stroke="#63b8ff" d="M192.74,-54.98C218.6,-46.09 259.35,-32.06 288.17,-22.14"/>
<polygon fill="#63b8ff" stroke="#63b8ff" points="289.51,-25.38 297.83,-18.82 287.23,-18.76 289.51,-25.38"/>
</a>
</g>
</g>
<!-- Node7 -->
<g id="Node000007" class="node">
<title>Node7</title>
<g id="a_Node000007"><a xlink:title=" ">
<polygon fill="#e0e0e0" stroke="#999999" points="269,-19 221,-19 221,0 269,0 269,-19"/>
<text text-anchor="middle" x="245" y="-7" font-family="Helvetica,sans-Serif" font-size="10.00">mutex</text>
</a>
</g>
</g>
<!-- Node3&#45;&gt;Node7 -->
<g id="edge6_Node000003_Node000007" class="edge">
<title>Node3&#45;&gt;Node7</title>
<g id="a_edge6_Node000003_Node000007"><a xlink:title=" ">
<path fill="none" stroke="#63b8ff" d="M180.37,-54.98C192.09,-46.92 209.92,-34.65 223.89,-25.03"/>
<polygon fill="#63b8ff" stroke="#63b8ff" points="226.15,-27.72 232.4,-19.17 222.18,-21.96 226.15,-27.72"/>
</a>
</g>
</g>
<!-- Node8&#45;&gt;Node4 -->
<g id="edge8_Node000008_Node000004" class="edge">
<title>Node8&#45;&gt;Node4</title>
<g id="a_edge8_Node000008_Node000004"><a xlink:title=" ">
<path fill="none" stroke="#63b8ff" d="M67.98,-109.96C59.93,-101.66 48.71,-88.25 44,-74 39.13,-59.26 42.5,-41.8 46.6,-28.92"/>
<polygon fill="#63b8ff" stroke="#63b8ff" points="49.95,-29.93 50.05,-19.34 43.37,-27.56 49.95,-29.93"/>
</a>
</g>
</g>
<!-- Node9 -->
<g id="Node000009" class="node">
<title>Node9</title>
<g id="a_Node000009"><a xlink:title=" ">
<polygon fill="#e0e0e0" stroke="#999999" points="100.5,-74 53.5,-74 53.5,-55 100.5,-55 100.5,-74"/>
<text text-anchor="middle" x="77" y="-62" font-family="Helvetica,sans-Serif" font-size="10.00">vector</text>
</a>
</g>
</g>
<!-- Node8&#45;&gt;Node9 -->
<g id="edge9_Node000008_Node000009" class="edge">
<title>Node8&#45;&gt;Node9</title>
<g id="a_edge9_Node000008_Node000009"><a xlink:title=" ">
<path fill="none" stroke="#63b8ff" d="M77,-109.75C77,-102.8 77,-92.85 77,-84.13"/>
<polygon fill="#63b8ff" stroke="#63b8ff" points="80.5,-84.09 77,-74.09 73.5,-84.09 80.5,-84.09"/>
</a>
</g>
</g>
<!-- Node10&#45;&gt;Node3 -->
<g id="edge11_Node000010_Node000003" class="edge">
<title>Node10&#45;&gt;Node3</title>
<g id="a_edge11_Node000010_Node000003"><a xlink:title=" ">
<path fill="none" stroke="#63b8ff" d="M265.36,-109.98C246.7,-101.46 217.75,-88.23 196.26,-78.41"/>
<polygon fill="#63b8ff" stroke="#63b8ff" points="197.53,-75.14 186.98,-74.17 194.62,-81.51 197.53,-75.14"/>
</a>
</g>
</g>
<!-- Node10&#45;&gt;Node5 -->
<g id="edge14_Node000010_Node000005" class="edge">
<title>Node10&#45;&gt;Node5</title>
<g id="a_edge14_Node000010_Node000005"><a xlink:title=" ">
<path fill="none" stroke="#63b8ff" d="M277,-109.91C266.61,-97.35 246.25,-73.45 227,-55 216.18,-44.62 203.23,-33.91 192.74,-25.59"/>
<polygon fill="#63b8ff" stroke="#63b8ff" points="194.63,-22.63 184.59,-19.23 190.32,-28.14 194.63,-22.63"/>
</a>
</g>
</g>
<!-- Node10&#45;&gt;Node6 -->
<g id="edge12_Node000010_Node000006" class="edge">
<title>Node10&#45;&gt;Node6</title>
<g id="a_edge12_Node000010_Node000006"><a xlink:title=" ">
<path fill="none" stroke="#63b8ff" d="M287.11,-109.66C293.32,-92.01 307.37,-52.09 315.62,-28.64"/>
<polygon fill="#63b8ff" stroke="#63b8ff" points="318.94,-29.75 318.95,-19.16 312.33,-27.43 318.94,-29.75"/>
</a>
</g>
</g>
<!-- Node10&#45;&gt;Node7 -->
<g id="edge15_Node000010_Node000007" class="edge">
<title>Node10&#45;&gt;Node7</title>
<g id="a_edge15_Node000010_Node000007"><a xlink:title=" ">
<path fill="none" stroke="#63b8ff" d="M280.81,-109.66C274.43,-92.01 260.02,-52.09 251.55,-28.64"/>
<polygon fill="#63b8ff" stroke="#63b8ff" points="254.82,-27.38 248.13,-19.16 248.23,-29.75 254.82,-27.38"/>
</a>
</g>
</g>
<!-- Node11 -->
<g id="Node000011" class="node">
<title>Node11</title>
<g id="a_Node000011"><a xlink:title=" ">
<polygon fill="#e0e0e0" stroke="#999999" points="400,-74 350,-74 350,-55 400,-55 400,-74"/>
<text text-anchor="middle" x="375" y="-62" font-family="Helvetica,sans-Serif" font-size="10.00">atomic</text>
</a>
</g>
</g>
<!-- Node10&#45;&gt;Node11 -->
<g id="edge13_Node000010_Node000011" class="edge">
<title>Node10&#45;&gt;Node11</title>
<g id="a_edge13_Node000010_Node000011"><a xlink:title=" ">
<path fill="none" stroke="#63b8ff" d="M298.62,-109.98C312.86,-101.69 334.75,-88.94 351.45,-79.22"/>
<polygon fill="#63b8ff" stroke="#63b8ff" points="353.23,-82.23 360.11,-74.17 349.71,-76.18 353.23,-82.23"/>
</a>
</g>
</g>
<!-- Node12&#45;&gt;Node6 -->
<g id="edge19_Node000012_Node000006" class="edge">
<title>Node12&#45;&gt;Node6</title>
<g id="a_edge19_Node000012_Node000006"><a xlink:title=" ">
<path fill="none" stroke="#63b8ff" d="M418.29,-109.8C419.76,-96.67 420.61,-71.56 409,-55 396.45,-37.1 374.49,-25.95 355.78,-19.28"/>
<polygon fill="#63b8ff" stroke="#63b8ff" points="356.67,-15.89 346.08,-16.11 354.49,-22.55 356.67,-15.89"/>
</a>
</g>
</g>
<!-- Node12&#45;&gt;Node11 -->
<g id="edge18_Node000012_Node000011" class="edge">
<title>Node12&#45;&gt;Node11</title>
<g id="a_edge18_Node000012_Node000011"><a xlink:title=" ">
<path fill="none" stroke="#63b8ff" d="M410.06,-109.75C404.13,-102.26 395.43,-91.28 388.18,-82.13"/>
<polygon fill="#63b8ff" stroke="#63b8ff" points="390.76,-79.75 381.81,-74.09 385.27,-84.1 390.76,-79.75"/>
</a>
</g>
</g>
<!-- Node12&#45;&gt;Node13 -->
<g id="edge17_Node000012_Node000013" class="edge">
<title>Node12&#45;&gt;Node13</title>
<g id="a_edge17_Node000012_Node000013"><a xlink:title=" ">
<path fill="none" stroke="#63b8ff" d="M431.62,-109.98C445.86,-101.69 467.75,-88.94 484.45,-79.22"/>
<polygon fill="#63b8ff" stroke="#63b8ff" points="486.23,-82.23 493.11,-74.17 482.71,-76.18 486.23,-82.23"/>
</a>
</g>
</g>
</g>
</svg>
