<?xml version="1.0" encoding="UTF-8" standalone="no"?>
<!DOCTYPE svg PUBLIC "-//W3C//DTD SVG 1.1//EN"
 "http://www.w3.org/Graphics/SVG/1.1/DTD/svg11.dtd">
<!-- Generated by graphviz version 2.43.0 (0)
 -->
<!-- Title: placedItem_s Pages: 1 -->
<svg width="109pt" height="228pt"
 viewBox="0.00 0.00 109.00 228.00" xmlns="http://www.w3.org/2000/svg" xmlns:xlink="http://www.w3.org/1999/xlink">

<svg id="main" version="1.1" xmlns="http://www.w3.org/2000/svg" xmlns:xlink="http://www.w3.org/1999/xlink" xml:space="preserve" onload="init(evt)">
<style type="text/css"><![CDATA[
.node, .edge {opacity: 0.7;}
.node.selected, .edge.selected {opacity: 1;}
.edge:hover path { stroke: red; }
.edge:hover polygon { stroke: red; fill: red; }
]]></style>
<script type="application/ecmascript" xlink:href="svg.min.js"/>
<svg id="graph" class="graph">
<g id="graph0" class="graph" transform="scale(1 1) rotate(0) translate(4 224)">
<title>placedItem_s</title>
<!-- Node1 -->
<g id="Node000001" class="node">
<title>Node1</title>
<g id="a_Node000001"><a xlink:title=" ">
<polygon fill="#999999" stroke="transparent" points="96.5,-79 4.5,-79 4.5,0 96.5,0 96.5,-79"/>
<text text-anchor="start" x="17.5" y="-66.5" font-family="Helvetica,sans-Serif" font-size="10.00">placedItem_s</text>
<text text-anchor="start" x="8.5" y="-51.5" font-family="Helvetica,sans-Serif" font-size="10.00">+</text>
<text text-anchor="start" x="21.5" y="-51.5" font-family="Helvetica,sans-Serif" font-size="10.00">sf::IntRect rect</text>
<text text-anchor="start" x="8.5" y="-36.5" font-family="Helvetica,sans-Serif" font-size="10.00">+</text>
<text text-anchor="start" x="21.5" y="-36.5" font-family="Helvetica,sans-Serif" font-size="10.00">int x</text>
<text text-anchor="start" x="8.5" y="-21.5" font-family="Helvetica,sans-Serif" font-size="10.00">+</text>
<text text-anchor="start" x="21.5" y="-21.5" font-family="Helvetica,sans-Serif" font-size="10.00">int y</text>
<text text-anchor="start" x="48.5" y="-6.5" font-family="Helvetica,sans-Serif" font-size="10.00"> </text>
<polygon fill="#666666" stroke="#666666" points="4.5,-61.5 4.5,-61.5 96.5,-61.5 96.5,-61.5 4.5,-61.5"/>
<polygon fill="#666666" stroke="#666666" points="4.5,-16.5 4.5,-16.5 19.5,-16.5 19.5,-16.5 4.5,-16.5"/>
<polygon fill="#666666" stroke="#666666" points="19.5,-16.5 19.5,-16.5 96.5,-16.5 96.5,-16.5 19.5,-16.5"/>
<polygon fill="none" stroke="#666666" points="4.5,0 4.5,-79 96.5,-79 96.5,0 4.5,0"/>
</a>
</g>
</g>
<!-- Node2 -->
<g id="Node000002" class="node">
<title>Node2</title>
<g id="a_Node000002"><a xlink:href="structimageItem__s.html" target="_top" xlink:title=" ">
<polygon fill="white" stroke="transparent" points="101,-220 0,-220 0,-126 101,-126 101,-220"/>
<text text-anchor="start" x="19" y="-208" font-family="Helvetica,sans-Serif" font-size="10.00">imageItem_s</text>
<text text-anchor="start" x="4.5" y="-193" font-family="Helvetica,sans-Serif" font-size="10.00">+</text>
<text text-anchor="start" x="17.5" y="-193" font-family="Helvetica,sans-Serif" font-size="10.00">std::string name</text>
<text text-anchor="start" x="4.5" y="-178" font-family="Helvetica,sans-Serif" font-size="10.00">+</text>
<text text-anchor="start" x="17.5" y="-178" font-family="Helvetica,sans-Serif" font-size="10.00">sf::Image image</text>
<text text-anchor="start" x="4.5" y="-163" font-family="Helvetica,sans-Serif" font-size="10.00">+</text>
<text text-anchor="start" x="17.5" y="-163" font-family="Helvetica,sans-Serif" font-size="10.00">int width</text>
<text text-anchor="start" x="4.5" y="-148" font-family="Helvetica,sans-Serif" font-size="10.00">+</text>
<text text-anchor="start" x="17.5" y="-148" font-family="Helvetica,sans-Serif" font-size="10.00">int height</text>
<text text-anchor="start" x="49" y="-133" font-family="Helvetica,sans-Serif" font-size="10.00"> </text>
<polygon fill="#666666" stroke="#666666" points="0.5,-203 0.5,-203 101.5,-203 101.5,-203 0.5,-203"/>
<polygon fill="#666666" stroke="#666666" points="0.5,-143 0.5,-143 15.5,-143 15.5,-143 0.5,-143"/>
<polygon fill="#666666" stroke="#666666" points="15.5,-143 15.5,-143 101.5,-143 101.5,-143 15.5,-143"/>
<polygon fill="none" stroke="#666666" points="0,-126 0,-220 101,-220 101,-126 0,-126"/>
</a>
</g>
</g>
<!-- Node2&#45;&gt;Node1 -->
<g id="edge1_Node000001_Node000002" class="edge">
<title>Node2&#45;&gt;Node1</title>
<g id="a_edge1_Node000001_Node000002"><a xlink:title=" ">
<path fill="none" stroke="#63b8ff" d="M50.5,-125.64C50.5,-114.45 50.5,-102.44 50.5,-91.07"/>
<polygon fill="none" stroke="#63b8ff" points="50.5,-91.06 46.5,-85.06 50.5,-79.06 54.5,-85.06 50.5,-91.06"/>
</a>
</g>
<text text-anchor="middle" x="67.5" y="-100" font-family="Helvetica,sans-Serif" font-size="10.00" fill="grey"> +item</text>
</g>
</g>
</svg>
</svg>

<style type='text/css'>
<![CDATA[
[data-mouse-over-selected='false'] { opacity: 0.7; }
[data-mouse-over-selected='true']  { opacity: 1.0; }
]]>
</style>
<script type="application/ecmascript"><![CDATA[
document.addEventListener('DOMContentLoaded', (event) => {
  highlightEdges();
  highlightAdjacentNodes();
});
]]></script>
</svg>
