<?xml version="1.0" encoding="UTF-8" standalone="no"?>
<!DOCTYPE svg PUBLIC "-//W3C//DTD SVG 1.1//EN"
 "http://www.w3.org/Graphics/SVG/1.1/DTD/svg11.dtd">
<!-- Generated by graphviz version 2.43.0 (0)
 -->
<!-- Title: include/engine/systems/StageFactory.hpp Pages: 1 -->
<svg width="739pt" height="148pt"
 viewBox="0.00 0.00 739.00 148.00" xmlns="http://www.w3.org/2000/svg" xmlns:xlink="http://www.w3.org/1999/xlink">
<g id="graph0" class="graph" transform="scale(1 1) rotate(0) translate(4 144)">
<title>include/engine/systems/StageFactory.hpp</title>
<!-- Node1 -->
<g id="Node000001" class="node">
<title>Node1</title>
<g id="a_Node000001"><a xlink:title=" ">
<polygon fill="#999999" stroke="#666666" points="581.5,-140 449.5,-140 449.5,-110 581.5,-110 581.5,-140"/>
<text text-anchor="start" x="457.5" y="-128" font-family="Helvetica,sans-Serif" font-size="10.00">include/engine/systems</text>
<text text-anchor="middle" x="515.5" y="-117" font-family="Helvetica,sans-Serif" font-size="10.00">/StageFactory.hpp</text>
</a>
</g>
</g>
<!-- Node2 -->
<g id="Node000002" class="node">
<title>Node2</title>
<g id="a_Node000002"><a xlink:href="ecs_8hpp.html" target="_top" xlink:title=" ">
<polygon fill="white" stroke="#666666" points="311.5,-74 201.5,-74 201.5,-55 311.5,-55 311.5,-74"/>
<text text-anchor="middle" x="256.5" y="-62" font-family="Helvetica,sans-Serif" font-size="10.00">engine/ecs/ecs.hpp</text>
</a>
</g>
</g>
<!-- Node1&#45;&gt;Node2 -->
<g id="edge1_Node000001_Node000002" class="edge">
<title>Node1&#45;&gt;Node2</title>
<g id="a_edge1_Node000001_Node000002"><a xlink:title=" ">
<path fill="none" stroke="#63b8ff" d="M453.46,-109.99C407.7,-99.65 346.34,-85.79 304.34,-76.31"/>
<polygon fill="#63b8ff" stroke="#63b8ff" points="304.9,-72.84 294.37,-74.05 303.35,-79.67 304.9,-72.84"/>
</a>
</g>
</g>
<!-- Node6 -->
<g id="Node000006" class="node">
<title>Node6</title>
<g id="a_Node000006"><a xlink:title=" ">
<polygon fill="#e0e0e0" stroke="#999999" points="486,-19 439,-19 439,0 486,0 486,-19"/>
<text text-anchor="middle" x="462.5" y="-7" font-family="Helvetica,sans-Serif" font-size="10.00">vector</text>
</a>
</g>
</g>
<!-- Node1&#45;&gt;Node6 -->
<g id="edge12_Node000001_Node000006" class="edge">
<title>Node1&#45;&gt;Node6</title>
<g id="a_edge12_Node000001_Node000006"><a xlink:title=" ">
<path fill="none" stroke="#63b8ff" d="M501.21,-109.95C492.49,-100.55 481.82,-87.49 475.5,-74 468.85,-59.81 465.59,-42.28 464,-29.23"/>
<polygon fill="#63b8ff" stroke="#63b8ff" points="467.46,-28.72 462.98,-19.12 460.5,-29.42 467.46,-28.72"/>
</a>
</g>
</g>
<!-- Node10 -->
<g id="Node000010" class="node">
<title>Node10</title>
<g id="a_Node000010"><a xlink:href="Components_8hpp.html" target="_top" xlink:title=" ">
<polygon fill="white" stroke="#666666" points="664,-74 485,-74 485,-55 664,-55 664,-74"/>
<text text-anchor="middle" x="574.5" y="-62" font-family="Helvetica,sans-Serif" font-size="10.00">engine/systems/Components.hpp</text>
</a>
</g>
</g>
<!-- Node1&#45;&gt;Node10 -->
<g id="edge9_Node000001_Node000010" class="edge">
<title>Node1&#45;&gt;Node10</title>
<g id="a_edge9_Node000001_Node000010"><a xlink:title=" ">
<path fill="none" stroke="#63b8ff" d="M529.78,-109.84C538.43,-101.26 549.49,-90.3 558.44,-81.42"/>
<polygon fill="#63b8ff" stroke="#63b8ff" points="561.02,-83.79 565.66,-74.27 556.09,-78.82 561.02,-83.79"/>
</a>
</g>
</g>
<!-- Node13 -->
<g id="Node000013" class="node">
<title>Node13</title>
<g id="a_Node000013"><a xlink:title=" ">
<polygon fill="#e0e0e0" stroke="#999999" points="731,-74 682,-74 682,-55 731,-55 731,-74"/>
<text text-anchor="middle" x="706.5" y="-62" font-family="Helvetica,sans-Serif" font-size="10.00">cstdlib</text>
</a>
</g>
</g>
<!-- Node1&#45;&gt;Node13 -->
<g id="edge13_Node000001_Node000013" class="edge">
<title>Node1&#45;&gt;Node13</title>
<g id="a_edge13_Node000001_Node000013"><a xlink:title=" ">
<path fill="none" stroke="#63b8ff" d="M561.25,-109.99C595.26,-99.57 640.95,-85.58 671.94,-76.09"/>
<polygon fill="#63b8ff" stroke="#63b8ff" points="673.31,-79.33 681.84,-73.05 671.26,-72.63 673.31,-79.33"/>
</a>
</g>
</g>
<!-- Node3 -->
<g id="Node000003" class="node">
<title>Node3</title>
<g id="a_Node000003"><a xlink:title=" ">
<polygon fill="#e0e0e0" stroke="#999999" points="47,-19 0,-19 0,0 47,0 47,-19"/>
<text text-anchor="middle" x="23.5" y="-7" font-family="Helvetica,sans-Serif" font-size="10.00">queue</text>
</a>
</g>
</g>
<!-- Node2&#45;&gt;Node3 -->
<g id="edge2_Node000002_Node000003" class="edge">
<title>Node2&#45;&gt;Node3</title>
<g id="a_edge2_Node000002_Node000003"><a xlink:title=" ">
<path fill="none" stroke="#63b8ff" d="M216.19,-54.94C177.78,-46.7 118.12,-33.65 57.07,-19.07"/>
<polygon fill="#63b8ff" stroke="#63b8ff" points="57.81,-15.65 47.27,-16.72 56.18,-22.46 57.81,-15.65"/>
</a>
</g>
</g>
<!-- Node4 -->
<g id="Node000004" class="node">
<title>Node4</title>
<g id="a_Node000004"><a xlink:title=" ">
<polygon fill="#e0e0e0" stroke="#999999" points="115.5,-19 65.5,-19 65.5,0 115.5,0 115.5,-19"/>
<text text-anchor="middle" x="90.5" y="-7" font-family="Helvetica,sans-Serif" font-size="10.00">cstdint</text>
</a>
</g>
</g>
<!-- Node2&#45;&gt;Node4 -->
<g id="edge3_Node000002_Node000004" class="edge">
<title>Node2&#45;&gt;Node4</title>
<g id="a_edge3_Node000002_Node000004"><a xlink:title=" ">
<path fill="none" stroke="#63b8ff" d="M229.83,-54.98C201.46,-45.93 156.48,-31.57 125.33,-21.62"/>
<polygon fill="#63b8ff" stroke="#63b8ff" points="126.34,-18.27 115.74,-18.56 124.21,-24.94 126.34,-18.27"/>
</a>
</g>
</g>
<!-- Node5 -->
<g id="Node000005" class="node">
<title>Node5</title>
<g id="a_Node000005"><a xlink:title=" ">
<polygon fill="#e0e0e0" stroke="#999999" points="185.5,-19 133.5,-19 133.5,0 185.5,0 185.5,-19"/>
<text text-anchor="middle" x="159.5" y="-7" font-family="Helvetica,sans-Serif" font-size="10.00">cassert</text>
</a>
</g>
</g>
<!-- Node2&#45;&gt;Node5 -->
<g id="edge4_Node000002_Node000005" class="edge">
<title>Node2&#45;&gt;Node5</title>
<g id="a_edge4_Node000002_Node000005"><a xlink:title=" ">
<path fill="none" stroke="#63b8ff" d="M240.92,-54.98C225.73,-46.69 202.4,-33.94 184.6,-24.22"/>
<polygon fill="#63b8ff" stroke="#63b8ff" points="185.82,-20.89 175.37,-19.17 182.47,-27.04 185.82,-20.89"/>
</a>
</g>
</g>
<!-- Node2&#45;&gt;Node6 -->
<g id="edge5_Node000002_Node000006" class="edge">
<title>Node2&#45;&gt;Node6</title>
<g id="a_edge5_Node000002_Node000006"><a xlink:title=" ">
<path fill="none" stroke="#63b8ff" d="M289.67,-54.97C322.52,-46.52 374.53,-33.15 428.89,-19.16"/>
<polygon fill="#63b8ff" stroke="#63b8ff" points="429.9,-22.51 438.71,-16.63 428.15,-15.73 429.9,-22.51"/>
</a>
</g>
</g>
<!-- Node7 -->
<g id="Node000007" class="node">
<title>Node7</title>
<g id="a_Node000007"><a xlink:title=" ">
<polygon fill="#e0e0e0" stroke="#999999" points="247.5,-19 203.5,-19 203.5,0 247.5,0 247.5,-19"/>
<text text-anchor="middle" x="225.5" y="-7" font-family="Helvetica,sans-Serif" font-size="10.00">limits</text>
</a>
</g>
</g>
<!-- Node2&#45;&gt;Node7 -->
<g id="edge6_Node000002_Node000007" class="edge">
<title>Node2&#45;&gt;Node7</title>
<g id="a_edge6_Node000002_Node000007"><a xlink:title=" ">
<path fill="none" stroke="#63b8ff" d="M251.38,-54.75C247.14,-47.49 240.97,-36.95 235.72,-27.98"/>
<polygon fill="#63b8ff" stroke="#63b8ff" points="238.59,-25.95 230.52,-19.09 232.55,-29.49 238.59,-25.95"/>
</a>
</g>
</g>
<!-- Node8 -->
<g id="Node000008" class="node">
<title>Node8</title>
<g id="a_Node000008"><a xlink:title=" ">
<polygon fill="#e0e0e0" stroke="#999999" points="309.5,-19 265.5,-19 265.5,0 309.5,0 309.5,-19"/>
<text text-anchor="middle" x="287.5" y="-7" font-family="Helvetica,sans-Serif" font-size="10.00">bitset</text>
</a>
</g>
</g>
<!-- Node2&#45;&gt;Node8 -->
<g id="edge7_Node000002_Node000008" class="edge">
<title>Node2&#45;&gt;Node8</title>
<g id="a_edge7_Node000002_Node000008"><a xlink:title=" ">
<path fill="none" stroke="#63b8ff" d="M261.62,-54.75C265.86,-47.49 272.03,-36.95 277.28,-27.98"/>
<polygon fill="#63b8ff" stroke="#63b8ff" points="280.45,-29.49 282.48,-19.09 274.41,-25.95 280.45,-29.49"/>
</a>
</g>
</g>
<!-- Node9 -->
<g id="Node000009" class="node">
<title>Node9</title>
<g id="a_Node000009"><a xlink:title=" ">
<polygon fill="#e0e0e0" stroke="#999999" points="421,-19 328,-19 328,0 421,0 421,-19"/>
<text text-anchor="middle" x="374.5" y="-7" font-family="Helvetica,sans-Serif" font-size="10.00">unordered_map</text>
</a>
</g>
</g>
<!-- Node2&#45;&gt;Node9 -->
<g id="edge8_Node000002_Node000009" class="edge">
<title>Node2&#45;&gt;Node9</title>
<g id="a_edge8_Node000002_Node000009"><a xlink:title=" ">
<path fill="none" stroke="#63b8ff" d="M275.46,-54.98C294.53,-46.42 324.16,-33.11 346.05,-23.28"/>
<polygon fill="#63b8ff" stroke="#63b8ff" points="347.51,-26.46 355.2,-19.17 344.64,-20.07 347.51,-26.46"/>
</a>
</g>
</g>
<!-- Node11 -->
<g id="Node000011" class="node">
<title>Node11</title>
<g id="a_Node000011"><a xlink:title=" ">
<polygon fill="#e0e0e0" stroke="#999999" points="624.5,-19 514.5,-19 514.5,0 624.5,0 624.5,-19"/>
<text text-anchor="middle" x="569.5" y="-7" font-family="Helvetica,sans-Serif" font-size="10.00">SFML/Graphics.hpp</text>
</a>
</g>
</g>
<!-- Node10&#45;&gt;Node11 -->
<g id="edge10_Node000010_Node000011" class="edge">
<title>Node10&#45;&gt;Node11</title>
<g id="a_edge10_Node000010_Node000011"><a xlink:title=" ">
<path fill="none" stroke="#63b8ff" d="M573.67,-54.75C573.02,-47.8 572.08,-37.85 571.26,-29.13"/>
<polygon fill="#63b8ff" stroke="#63b8ff" points="574.73,-28.72 570.31,-19.09 567.77,-29.37 574.73,-28.72"/>
</a>
</g>
</g>
<!-- Node12 -->
<g id="Node000012" class="node">
<title>Node12</title>
<g id="a_Node000012"><a xlink:title=" ">
<polygon fill="#e0e0e0" stroke="#999999" points="686.5,-19 642.5,-19 642.5,0 686.5,0 686.5,-19"/>
<text text-anchor="middle" x="664.5" y="-7" font-family="Helvetica,sans-Serif" font-size="10.00">string</text>
</a>
</g>
</g>
<!-- Node10&#45;&gt;Node12 -->
<g id="edge11_Node000010_Node000012" class="edge">
<title>Node10&#45;&gt;Node12</title>
<g id="a_edge11_Node000010_Node000012"><a xlink:title=" ">
<path fill="none" stroke="#63b8ff" d="M588.96,-54.98C602.92,-46.77 624.29,-34.18 640.75,-24.49"/>
<polygon fill="#63b8ff" stroke="#63b8ff" points="642.94,-27.26 649.78,-19.17 639.38,-21.23 642.94,-27.26"/>
</a>
</g>
</g>
</g>
</svg>
