<?xml version="1.0" encoding="UTF-8" standalone="no"?>
<!DOCTYPE svg PUBLIC "-//W3C//DTD SVG 1.1//EN"
 "http://www.w3.org/Graphics/SVG/1.1/DTD/svg11.dtd">
<!-- Generated by graphviz version 2.43.0 (0)
 -->
<!-- Title: WaveSystem Pages: 1 -->
<svg width="157pt" height="365pt"
 viewBox="0.00 0.00 157.00 365.00" xmlns="http://www.w3.org/2000/svg" xmlns:xlink="http://www.w3.org/1999/xlink">
<g id="graph0" class="graph" transform="scale(1 1) rotate(0) translate(4 361)">
<title>WaveSystem</title>
<!-- Node1 -->
<g id="Node000001" class="node">
<title>Node1</title>
<g id="a_Node000001"><a xlink:title=" ">
<polygon fill="#999999" stroke="transparent" points="149,-153 0,-153 0,0 149,0 149,-153"/>
<text text-anchor="start" x="43" y="-140.5" font-family="Helvetica,sans-Serif" font-size="10.00">WaveSystem</text>
<text text-anchor="start" x="7" y="-125.5" font-family="Helvetica,sans-Serif" font-size="10.00">&#45;</text>
<text text-anchor="start" x="17.5" y="-125.5" font-family="Helvetica,sans-Serif" font-size="10.00">std::vector&lt; Components</text>
<text text-anchor="start" x="17.5" y="-114.5" font-family="Helvetica,sans-Serif" font-size="10.00">::WaveData &gt; _waves</text>
<text text-anchor="start" x="7" y="-99.5" font-family="Helvetica,sans-Serif" font-size="10.00">&#45;</text>
<text text-anchor="start" x="17.5" y="-99.5" font-family="Helvetica,sans-Serif" font-size="10.00">size_t _currentWave</text>
<text text-anchor="start" x="7" y="-84.5" font-family="Helvetica,sans-Serif" font-size="10.00">&#45;</text>
<text text-anchor="start" x="17.5" y="-84.5" font-family="Helvetica,sans-Serif" font-size="10.00">float _timer</text>
<text text-anchor="start" x="4.5" y="-69.5" font-family="Helvetica,sans-Serif" font-size="10.00">+</text>
<text text-anchor="start" x="17.5" y="-69.5" font-family="Helvetica,sans-Serif" font-size="10.00">WaveSystem(ECS &amp;ecs)</text>
<text text-anchor="start" x="4.5" y="-54.5" font-family="Helvetica,sans-Serif" font-size="10.00">+</text>
<text text-anchor="start" x="17.5" y="-54.5" font-family="Helvetica,sans-Serif" font-size="10.00">void loadLevel(const</text>
<text text-anchor="start" x="17.5" y="-43.5" font-family="Helvetica,sans-Serif" font-size="10.00"> std::vector&lt; Components</text>
<text text-anchor="start" x="17.5" y="-32.5" font-family="Helvetica,sans-Serif" font-size="10.00">::WaveData &gt; &amp;waves)</text>
<text text-anchor="start" x="4.5" y="-17.5" font-family="Helvetica,sans-Serif" font-size="10.00">+</text>
<text text-anchor="start" x="17.5" y="-17.5" font-family="Helvetica,sans-Serif" font-size="10.00">void update(double</text>
<text text-anchor="start" x="17.5" y="-6.5" font-family="Helvetica,sans-Serif" font-size="10.00"> dt) override</text>
<polygon fill="#666666" stroke="#666666" points="0.5,-135.5 0.5,-135.5 149.5,-135.5 149.5,-135.5 0.5,-135.5"/>
<polygon fill="#666666" stroke="#666666" points="0.5,-79.5 0.5,-79.5 15.5,-79.5 15.5,-79.5 0.5,-79.5"/>
<polygon fill="#666666" stroke="#666666" points="15.5,-79.5 15.5,-79.5 149.5,-79.5 149.5,-79.5 15.5,-79.5"/>
<polygon fill="none" stroke="#666666" points="0,0 0,-153 149,-153 149,0 0,0"/>
</a>
</g>
</g>
<!-- Node2 -->
<g id="Node000002" class="node">
<title>Node2</title>
<g id="a_Node000002"><a xlink:href="classISystem.html" target="_top" xlink:title="Interface for systems in the ECS.">
<polygon fill="white" stroke="transparent" points="132,-357 17,-357 17,-189 132,-189 132,-357"/>
<text text-anchor="start" x="55" y="-345" font-family="Helvetica,sans-Serif" font-size="10.00">ISystem</text>
<text text-anchor="start" x="21.5" y="-330" font-family="Helvetica,sans-Serif" font-size="10.00">#</text>
<text text-anchor="start" x="34.5" y="-330" font-family="Helvetica,sans-Serif" font-size="10.00">ECS &amp; _ecs</text>
<text text-anchor="start" x="21.5" y="-315" font-family="Helvetica,sans-Serif" font-size="10.00">+</text>
<text text-anchor="start" x="34.5" y="-315" font-family="Helvetica,sans-Serif" font-size="10.00">ISystem(ECS &amp;ecs)</text>
<text text-anchor="start" x="21.5" y="-300" font-family="Helvetica,sans-Serif" font-size="10.00">+</text>
<text text-anchor="start" x="34.5" y="-300" font-family="Helvetica,sans-Serif" font-size="10.00">virtual ~ISystem()</text>
<text text-anchor="start" x="34.5" y="-289" font-family="Helvetica,sans-Serif" font-size="10.00">=default</text>
<text text-anchor="start" x="21.5" y="-274" font-family="Helvetica,sans-Serif" font-size="10.00">+</text>
<text text-anchor="start" x="34.5" y="-274" font-family="Helvetica,sans-Serif" font-size="10.00">virtual void update</text>
<text text-anchor="start" x="34.5" y="-263" font-family="Helvetica,sans-Serif" font-size="10.00">(double dt)=0</text>
<text text-anchor="start" x="21.5" y="-248" font-family="Helvetica,sans-Serif" font-size="10.00">+</text>
<text text-anchor="start" x="34.5" y="-248" font-family="Helvetica,sans-Serif" font-size="10.00">ISystem(ECS &amp;ecs)</text>
<text text-anchor="start" x="21.5" y="-233" font-family="Helvetica,sans-Serif" font-size="10.00">+</text>
<text text-anchor="start" x="34.5" y="-233" font-family="Helvetica,sans-Serif" font-size="10.00">virtual ~ISystem()</text>
<text text-anchor="start" x="34.5" y="-222" font-family="Helvetica,sans-Serif" font-size="10.00">=default</text>
<text text-anchor="start" x="21.5" y="-207" font-family="Helvetica,sans-Serif" font-size="10.00">+</text>
<text text-anchor="start" x="34.5" y="-207" font-family="Helvetica,sans-Serif" font-size="10.00">virtual void update</text>
<text text-anchor="start" x="34.5" y="-196" font-family="Helvetica,sans-Serif" font-size="10.00">(double dt)=0</text>
<polygon fill="#666666" stroke="#666666" points="17.5,-340 17.5,-340 132.5,-340 132.5,-340 17.5,-340"/>
<polygon fill="#666666" stroke="#666666" points="17.5,-325 17.5,-325 32.5,-325 32.5,-325 17.5,-325"/>
<polygon fill="#666666" stroke="#666666" points="32.5,-325 32.5,-325 132.5,-325 132.5,-325 32.5,-325"/>
<polygon fill="none" stroke="#666666" points="17,-189 17,-357 132,-357 132,-189 17,-189"/>
</a>
</g>
</g>
<!-- Node2&#45;&gt;Node1 -->
<g id="edge1_Node000001_Node000002" class="edge">
<title>Node2&#45;&gt;Node1</title>
<g id="a_edge1_Node000001_Node000002"><a xlink:title=" ">
<path fill="none" stroke="#63b8ff" d="M74.5,-178.88C74.5,-170.27 74.5,-161.62 74.5,-153.19"/>
<polygon fill="none" stroke="#63b8ff" points="71,-178.95 74.5,-188.95 78,-178.95 71,-178.95"/>
</a>
</g>
</g>
</g>
</svg>
