<?xml version="1.0" encoding="UTF-8" standalone="no"?>
<!DOCTYPE svg PUBLIC "-//W3C//DTD SVG 1.1//EN"
 "http://www.w3.org/Graphics/SVG/1.1/DTD/svg11.dtd">
<!-- Generated by graphviz version 2.43.0 (0)
 -->
<!-- Title: Server::processInputs Pages: 1 -->
<svg width="817pt" height="231pt"
 viewBox="0.00 0.00 817.00 231.00" xmlns="http://www.w3.org/2000/svg" xmlns:xlink="http://www.w3.org/1999/xlink">
<g id="graph0" class="graph" transform="scale(1 1) rotate(0) translate(4 227)">
<title>Server::processInputs</title>
<!-- Node1 -->
<g id="Node000001" class="node">
<title>Node1</title>
<g id="a_Node000001"><a xlink:title=" ">
<polygon fill="#999999" stroke="#666666" points="122,-131 0,-131 0,-112 122,-112 122,-131"/>
<text text-anchor="middle" x="61" y="-119" font-family="Helvetica,sans-Serif" font-size="10.00">Server::processInputs</text>
</a>
</g>
</g>
<!-- Node2 -->
<g id="Node000002" class="node">
<title>Node2</title>
<g id="a_Node000002"><a xlink:href="classServer.html#aac4110712ec347909be9bd4a5140ac4f" target="_top" xlink:title=" ">
<polygon fill="white" stroke="#666666" points="276.5,-169 170.5,-169 170.5,-150 276.5,-150 276.5,-169"/>
<text text-anchor="middle" x="223.5" y="-157" font-family="Helvetica,sans-Serif" font-size="10.00">Server::applyInput</text>
</a>
</g>
</g>
<!-- Node1&#45;&gt;Node2 -->
<g id="edge1_Node000001_Node000002" class="edge">
<title>Node1&#45;&gt;Node2</title>
<g id="a_edge1_Node000001_Node000002"><a xlink:title=" ">
<path fill="none" stroke="#63b8ff" d="M102.5,-131.09C123.68,-136.1 149.8,-142.29 172.26,-147.61"/>
<polygon fill="#63b8ff" stroke="#63b8ff" points="171.75,-151.08 182.29,-149.98 173.37,-144.27 171.75,-151.08"/>
</a>
</g>
</g>
<!-- Node3 -->
<g id="Node000003" class="node">
<title>Node3</title>
<g id="a_Node000003"><a xlink:href="classECS.html#aaae60c88af59dd7af9d86200eb522bbc" target="_top" xlink:title="Retrieves a mutable pointer to a component.">
<polygon fill="white" stroke="#666666" points="454.5,-188 341.5,-188 341.5,-169 454.5,-169 454.5,-188"/>
<text text-anchor="middle" x="398" y="-176" font-family="Helvetica,sans-Serif" font-size="10.00">ECS::getComponent</text>
</a>
</g>
</g>
<!-- Node1&#45;&gt;Node3 -->
<g id="edge15_Node000001_Node000003" class="edge">
<title>Node1&#45;&gt;Node3</title>
<g id="a_edge15_Node000001_Node000003"><a xlink:title=" ">
<path fill="none" stroke="#63b8ff" d="M73.46,-131.15C90.56,-144.84 124.35,-169.26 158,-178.5 214.97,-194.14 282.49,-192.38 331.21,-187.74"/>
<polygon fill="#63b8ff" stroke="#63b8ff" points="331.72,-191.21 341.31,-186.71 331.01,-184.24 331.72,-191.21"/>
</a>
</g>
</g>
<!-- Node8 -->
<g id="Node000008" class="node">
<title>Node8</title>
<g id="a_Node000008"><a xlink:href="engine_2ecs_2ecs_8hpp.html#a5a868f82168f3b251aa7ca758686125c" target="_top" xlink:title="Retrieves the unique ID for a given component type.">
<polygon fill="white" stroke="#666666" points="447.5,-130 348.5,-130 348.5,-111 447.5,-111 447.5,-130"/>
<text text-anchor="middle" x="398" y="-118" font-family="Helvetica,sans-Serif" font-size="10.00">getComponentID</text>
</a>
</g>
</g>
<!-- Node1&#45;&gt;Node8 -->
<g id="edge16_Node000001_Node000008" class="edge">
<title>Node1&#45;&gt;Node8</title>
<g id="a_edge16_Node000001_Node000008"><a xlink:title=" ">
<path fill="none" stroke="#63b8ff" d="M122.28,-121.32C183.45,-121.14 277.53,-120.86 338.17,-120.68"/>
<polygon fill="#63b8ff" stroke="#63b8ff" points="338.36,-124.18 348.35,-120.65 338.34,-117.18 338.36,-124.18"/>
</a>
</g>
</g>
<!-- Node9 -->
<g id="Node000009" class="node">
<title>Node9</title>
<g id="a_Node000009"><a xlink:href="classServer.html#a167f3f27856b0e3c707f4f98c0bb75be" target="_top" xlink:title=" ">
<polygon fill="white" stroke="#666666" points="289,-56 158,-56 158,-37 289,-37 289,-56"/>
<text text-anchor="middle" x="223.5" y="-44" font-family="Helvetica,sans-Serif" font-size="10.00">Server::entityForClients</text>
</a>
</g>
</g>
<!-- Node1&#45;&gt;Node9 -->
<g id="edge10_Node000001_Node000009" class="edge">
<title>Node1&#45;&gt;Node9</title>
<g id="a_edge10_Node000001_Node000009"><a xlink:title=" ">
<path fill="none" stroke="#63b8ff" d="M75.38,-112C93.4,-99.57 126.81,-77.83 158,-64.5 162.51,-62.57 167.28,-60.79 172.1,-59.16"/>
<polygon fill="#63b8ff" stroke="#63b8ff" points="173.54,-62.38 182.02,-56.03 171.43,-55.71 173.54,-62.38"/>
</a>
</g>
</g>
<!-- Node13 -->
<g id="Node000013" class="node">
<title>Node13</title>
<g id="a_Node000013"><a xlink:href="classSafeQueue.html#ab2f40bad1a39f332c1a8c7b4e858b190" target="_top" xlink:title=" ">
<polygon fill="white" stroke="#666666" points="277,-93 170,-93 170,-74 277,-74 277,-93"/>
<text text-anchor="middle" x="223.5" y="-81" font-family="Helvetica,sans-Serif" font-size="10.00">SafeQueue::tryPop</text>
</a>
</g>
</g>
<!-- Node1&#45;&gt;Node13 -->
<g id="edge17_Node000001_Node000013" class="edge">
<title>Node1&#45;&gt;Node13</title>
<g id="a_edge17_Node000001_Node000013"><a xlink:title=" ">
<path fill="none" stroke="#63b8ff" d="M102.5,-111.91C123.68,-106.9 149.8,-100.71 172.26,-95.39"/>
<polygon fill="#63b8ff" stroke="#63b8ff" points="173.37,-98.73 182.29,-93.02 171.75,-91.92 173.37,-98.73"/>
</a>
</g>
</g>
<!-- Node2&#45;&gt;Node3 -->
<g id="edge2_Node000002_Node000003" class="edge">
<title>Node2&#45;&gt;Node3</title>
<g id="a_edge2_Node000002_Node000003"><a xlink:title=" ">
<path fill="none" stroke="#63b8ff" d="M276.72,-165.25C293.88,-167.14 313.17,-169.27 331.2,-171.25"/>
<polygon fill="#63b8ff" stroke="#63b8ff" points="331.03,-174.76 341.36,-172.37 331.8,-167.8 331.03,-174.76"/>
</a>
</g>
</g>
<!-- Node2&#45;&gt;Node8 -->
<g id="edge8_Node000002_Node000008" class="edge">
<title>Node2&#45;&gt;Node8</title>
<g id="a_edge8_Node000002_Node000008"><a xlink:title=" ">
<path fill="none" stroke="#63b8ff" d="M266.7,-149.96C290.28,-144.63 319.87,-137.94 344.89,-132.28"/>
<polygon fill="#63b8ff" stroke="#63b8ff" points="345.96,-135.63 354.94,-130.01 344.41,-128.8 345.96,-135.63"/>
</a>
</g>
</g>
<!-- Node4 -->
<g id="Node000004" class="node">
<title>Node4</title>
<g id="a_Node000004"><a xlink:href="classStorageComponent.html#a4e0239d1d216347282d49c0bcdf0079d" target="_top" xlink:title="Retrieves a read&#45;only pointer to the component for the entity.">
<polygon fill="white" stroke="#666666" points="639,-223 507,-223 507,-204 639,-204 639,-223"/>
<text text-anchor="middle" x="573" y="-211" font-family="Helvetica,sans-Serif" font-size="10.00">StorageComponent::get</text>
</a>
</g>
</g>
<!-- Node3&#45;&gt;Node4 -->
<g id="edge3_Node000003_Node000004" class="edge">
<title>Node3&#45;&gt;Node4</title>
<g id="a_edge3_Node000003_Node000004"><a xlink:title=" ">
<path fill="none" stroke="#63b8ff" d="M446.27,-188.06C467.44,-192.35 492.59,-197.43 514.81,-201.93"/>
<polygon fill="#63b8ff" stroke="#63b8ff" points="514.29,-205.4 524.78,-203.95 515.68,-198.53 514.29,-205.4"/>
</a>
</g>
</g>
<!-- Node6 -->
<g id="Node000006" class="node">
<title>Node6</title>
<g id="a_Node000006"><a xlink:href="server_2ecs_8hpp.html#a5a868f82168f3b251aa7ca758686125c" target="_top" xlink:title=" ">
<polygon fill="white" stroke="#666666" points="622.5,-168 523.5,-168 523.5,-149 622.5,-149 622.5,-168"/>
<text text-anchor="middle" x="573" y="-156" font-family="Helvetica,sans-Serif" font-size="10.00">getComponentID</text>
</a>
</g>
</g>
<!-- Node3&#45;&gt;Node6 -->
<g id="edge5_Node000003_Node000006" class="edge">
<title>Node3&#45;&gt;Node6</title>
<g id="a_edge5_Node000003_Node000006"><a xlink:title=" ">
<path fill="none" stroke="#63b8ff" d="M454.69,-172.06C473.45,-169.89 494.42,-167.47 513.4,-165.27"/>
<polygon fill="#63b8ff" stroke="#63b8ff" points="513.88,-168.74 523.41,-164.12 513.07,-161.79 513.88,-168.74"/>
</a>
</g>
</g>
<!-- Node5 -->
<g id="Node000005" class="node">
<title>Node5</title>
<g id="a_Node000005"><a xlink:href="classStorageComponent.html#a6de145a1ea5570363f566ab9fce66578" target="_top" xlink:title="Checks if the entity has this component type.">
<polygon fill="white" stroke="#666666" points="809,-223 675,-223 675,-204 809,-204 809,-223"/>
<text text-anchor="middle" x="742" y="-211" font-family="Helvetica,sans-Serif" font-size="10.00">StorageComponent::has</text>
</a>
</g>
</g>
<!-- Node4&#45;&gt;Node5 -->
<g id="edge4_Node000004_Node000005" class="edge">
<title>Node4&#45;&gt;Node5</title>
<g id="a_edge4_Node000004_Node000005"><a xlink:title=" ">
<path fill="none" stroke="#63b8ff" d="M639.04,-213.5C647.47,-213.5 656.16,-213.5 664.75,-213.5"/>
<polygon fill="#63b8ff" stroke="#63b8ff" points="664.76,-217 674.76,-213.5 664.76,-210 664.76,-217"/>
</a>
</g>
</g>
<!-- Node6&#45;&gt;Node6 -->
<g id="edge6_Node000006_Node000006" class="edge">
<title>Node6&#45;&gt;Node6</title>
<g id="a_edge6_Node000006_Node000006"><a xlink:title=" ">
<path fill="none" stroke="#63b8ff" d="M547.11,-168.08C534.51,-176.73 543.14,-186 573,-186 593.06,-186 603.54,-181.82 604.44,-176.45"/>
<polygon fill="#63b8ff" stroke="#63b8ff" points="607.34,-174.49 598.89,-168.08 601.5,-178.35 607.34,-174.49"/>
</a>
</g>
</g>
<!-- Node7 -->
<g id="Node000007" class="node">
<title>Node7</title>
<g id="a_Node000007"><a xlink:href="engine_2ecs_2ecs_8hpp.html#afdb02fc115de82c93e814ac1d3a64c06" target="_top" xlink:title="Generates a new unique ComponentTypeID.">
<polygon fill="white" stroke="#666666" points="805,-149 679,-149 679,-130 805,-130 805,-149"/>
<text text-anchor="middle" x="742" y="-137" font-family="Helvetica,sans-Serif" font-size="10.00">newComponentTypeID</text>
</a>
</g>
</g>
<!-- Node6&#45;&gt;Node7 -->
<g id="edge7_Node000006_Node000007" class="edge">
<title>Node6&#45;&gt;Node7</title>
<g id="a_edge7_Node000006_Node000007"><a xlink:title=" ">
<path fill="none" stroke="#63b8ff" d="M622.75,-152.95C637.13,-151.32 653.17,-149.49 668.69,-147.73"/>
<polygon fill="#63b8ff" stroke="#63b8ff" points="669.25,-151.19 678.79,-146.58 668.46,-144.23 669.25,-151.19"/>
</a>
</g>
</g>
<!-- Node8&#45;&gt;Node7 -->
<g id="edge9_Node000008_Node000007" class="edge">
<title>Node8&#45;&gt;Node7</title>
<g id="a_edge9_Node000008_Node000007"><a xlink:title=" ">
<path fill="none" stroke="#63b8ff" d="M447.64,-123.2C505.43,-126.41 602.4,-131.8 668.92,-135.5"/>
<polygon fill="#63b8ff" stroke="#63b8ff" points="668.74,-138.99 678.91,-136.05 669.12,-132 668.74,-138.99"/>
</a>
</g>
</g>
<!-- Node9&#45;&gt;Node8 -->
<g id="edge14_Node000009_Node000008" class="edge">
<title>Node9&#45;&gt;Node8</title>
<g id="a_edge14_Node000009_Node000008"><a xlink:title=" ">
<path fill="none" stroke="#63b8ff" d="M270.54,-56.02C276.98,-58.29 283.32,-61.08 289,-64.5 308.93,-76.51 304.91,-90.77 325,-102.5 329.23,-104.97 333.79,-107.1 338.49,-108.94"/>
<polygon fill="#63b8ff" stroke="#63b8ff" points="337.67,-112.37 348.27,-112.33 339.96,-105.75 337.67,-112.37"/>
</a>
</g>
</g>
<!-- Node10 -->
<g id="Node000010" class="node">
<title>Node10</title>
<g id="a_Node000010"><a xlink:href="namespaceFactory.html#a676a86a062ce8ffcbe6f1fb3360f5948" target="_top" xlink:title=" ">
<polygon fill="white" stroke="#666666" points="457.5,-93 338.5,-93 338.5,-74 457.5,-74 457.5,-93"/>
<text text-anchor="middle" x="398" y="-81" font-family="Helvetica,sans-Serif" font-size="10.00">Factory::createPlayer</text>
</a>
</g>
</g>
<!-- Node9&#45;&gt;Node10 -->
<g id="edge11_Node000009_Node000010" class="edge">
<title>Node9&#45;&gt;Node10</title>
<g id="a_edge11_Node000009_Node000010"><a xlink:title=" ">
<path fill="none" stroke="#63b8ff" d="M268.92,-56.03C291.37,-60.84 318.81,-66.73 342.52,-71.81"/>
<polygon fill="#63b8ff" stroke="#63b8ff" points="341.92,-75.26 352.43,-73.94 343.38,-68.42 341.92,-75.26"/>
</a>
</g>
</g>
<!-- Node11 -->
<g id="Node000011" class="node">
<title>Node11</title>
<g id="a_Node000011"><a xlink:href="classUdpServer.html#a9bbfe357b5fd6f3eae04605bb3ebce4f" target="_top" xlink:title=" ">
<polygon fill="white" stroke="#666666" points="471,-56 325,-56 325,-37 471,-37 471,-56"/>
<text text-anchor="middle" x="398" y="-44" font-family="Helvetica,sans-Serif" font-size="10.00">UdpServer::getClientCount</text>
</a>
</g>
</g>
<!-- Node9&#45;&gt;Node11 -->
<g id="edge12_Node000009_Node000011" class="edge">
<title>Node9&#45;&gt;Node11</title>
<g id="a_edge12_Node000009_Node000011"><a xlink:title=" ">
<path fill="none" stroke="#63b8ff" d="M289.22,-46.5C297.61,-46.5 306.28,-46.5 314.9,-46.5"/>
<polygon fill="#63b8ff" stroke="#63b8ff" points="314.97,-50 324.97,-46.5 314.97,-43 314.97,-50"/>
</a>
</g>
</g>
<!-- Node12 -->
<g id="Node000012" class="node">
<title>Node12</title>
<g id="a_Node000012"><a xlink:href="classUdpServer.html#a52f6bd3ca7b3f20cddee608ee96f68bb" target="_top" xlink:title=" ">
<polygon fill="white" stroke="#666666" points="459.5,-19 336.5,-19 336.5,0 459.5,0 459.5,-19"/>
<text text-anchor="middle" x="398" y="-7" font-family="Helvetica,sans-Serif" font-size="10.00">UdpServer::getClients</text>
</a>
</g>
</g>
<!-- Node9&#45;&gt;Node12 -->
<g id="edge13_Node000009_Node000012" class="edge">
<title>Node9&#45;&gt;Node12</title>
<g id="a_edge13_Node000009_Node000012"><a xlink:title=" ">
<path fill="none" stroke="#63b8ff" d="M268.92,-36.97C291.37,-32.16 318.81,-26.27 342.52,-21.19"/>
<polygon fill="#63b8ff" stroke="#63b8ff" points="343.38,-24.58 352.43,-19.06 341.92,-17.74 343.38,-24.58"/>
</a>
</g>
</g>
<!-- Node13&#45;&gt;Node8 -->
<g id="edge18_Node000013_Node000008" class="edge">
<title>Node13&#45;&gt;Node8</title>
<g id="a_edge18_Node000013_Node000008"><a xlink:title=" ">
<path fill="none" stroke="#63b8ff" d="M268.92,-93.03C291.37,-97.84 318.81,-103.73 342.52,-108.81"/>
<polygon fill="#63b8ff" stroke="#63b8ff" points="341.92,-112.26 352.43,-110.94 343.38,-105.42 341.92,-112.26"/>
</a>
</g>
</g>
</g>
</svg>
