<?xml version="1.0" encoding="UTF-8" standalone="no"?>
<!DOCTYPE svg PUBLIC "-//W3C//DTD SVG 1.1//EN"
 "http://www.w3.org/Graphics/SVG/1.1/DTD/svg11.dtd">
<!-- Generated by graphviz version 2.43.0 (0)
 -->
<!-- Title: CameraSystem Pages: 1 -->
<svg width="210pt" height="692pt"
 viewBox="0.00 0.00 210.00 692.00" xmlns="http://www.w3.org/2000/svg" xmlns:xlink="http://www.w3.org/1999/xlink">
<g id="graph0" class="graph" transform="scale(1 1) rotate(0) translate(4 688)">
<title>CameraSystem</title>
<!-- Node1 -->
<g id="Node000001" class="node">
<title>Node1</title>
<g id="a_Node000001"><a xlink:title=" ">
<polygon fill="#999999" stroke="transparent" points="202,-480 0,-480 0,0 202,0 202,-480"/>
<text text-anchor="start" x="63" y="-468" font-family="Helvetica,sans-Serif" font-size="10.00">CameraSystem</text>
<text text-anchor="start" x="6.5" y="-453" font-family="Helvetica,sans-Serif" font-size="10.00">&#45;</text>
<text text-anchor="start" x="17" y="-453" font-family="Helvetica,sans-Serif" font-size="10.00">sf::RenderWindow &amp;</text>
<text text-anchor="start" x="17" y="-442" font-family="Helvetica,sans-Serif" font-size="10.00"> _window</text>
<text text-anchor="start" x="6.5" y="-427" font-family="Helvetica,sans-Serif" font-size="10.00">&#45;</text>
<text text-anchor="start" x="17" y="-427" font-family="Helvetica,sans-Serif" font-size="10.00">sf::View _view</text>
<text text-anchor="start" x="6.5" y="-412" font-family="Helvetica,sans-Serif" font-size="10.00">&#45;</text>
<text text-anchor="start" x="17" y="-412" font-family="Helvetica,sans-Serif" font-size="10.00">std::mt19937 _rng</text>
<text text-anchor="start" x="6.5" y="-397" font-family="Helvetica,sans-Serif" font-size="10.00">&#45;</text>
<text text-anchor="start" x="17" y="-397" font-family="Helvetica,sans-Serif" font-size="10.00">std::uniform_real_distribution</text>
<text text-anchor="start" x="17" y="-386" font-family="Helvetica,sans-Serif" font-size="10.00">&lt; float &gt; _dist</text>
<text text-anchor="start" x="4" y="-371" font-family="Helvetica,sans-Serif" font-size="10.00">+</text>
<text text-anchor="start" x="17" y="-371" font-family="Helvetica,sans-Serif" font-size="10.00">CameraSystem(ECS &amp;ecs,</text>
<text text-anchor="start" x="17" y="-360" font-family="Helvetica,sans-Serif" font-size="10.00"> sf::RenderWindow &amp;window)</text>
<text text-anchor="start" x="4" y="-345" font-family="Helvetica,sans-Serif" font-size="10.00">+</text>
<text text-anchor="start" x="17" y="-345" font-family="Helvetica,sans-Serif" font-size="10.00">void update(double</text>
<text text-anchor="start" x="17" y="-334" font-family="Helvetica,sans-Serif" font-size="10.00"> dt) override</text>
<text text-anchor="start" x="4" y="-319" font-family="Helvetica,sans-Serif" font-size="10.00">+</text>
<text text-anchor="start" x="17" y="-319" font-family="Helvetica,sans-Serif" font-size="10.00">void applyView()</text>
<text text-anchor="start" x="4" y="-304" font-family="Helvetica,sans-Serif" font-size="10.00">+</text>
<text text-anchor="start" x="17" y="-304" font-family="Helvetica,sans-Serif" font-size="10.00">const sf::View &amp; getView</text>
<text text-anchor="start" x="17" y="-293" font-family="Helvetica,sans-Serif" font-size="10.00">() const</text>
<text text-anchor="start" x="4" y="-278" font-family="Helvetica,sans-Serif" font-size="10.00">+</text>
<text text-anchor="start" x="17" y="-278" font-family="Helvetica,sans-Serif" font-size="10.00">void shake(float intensity,</text>
<text text-anchor="start" x="17" y="-267" font-family="Helvetica,sans-Serif" font-size="10.00"> float duration)</text>
<text text-anchor="start" x="4" y="-252" font-family="Helvetica,sans-Serif" font-size="10.00">+</text>
<text text-anchor="start" x="17" y="-252" font-family="Helvetica,sans-Serif" font-size="10.00">void setZoom(float</text>
<text text-anchor="start" x="17" y="-241" font-family="Helvetica,sans-Serif" font-size="10.00"> zoom)</text>
<text text-anchor="start" x="4" y="-226" font-family="Helvetica,sans-Serif" font-size="10.00">+</text>
<text text-anchor="start" x="17" y="-226" font-family="Helvetica,sans-Serif" font-size="10.00">void setTargetZoom</text>
<text text-anchor="start" x="17" y="-215" font-family="Helvetica,sans-Serif" font-size="10.00">(float zoom)</text>
<text text-anchor="start" x="4" y="-200" font-family="Helvetica,sans-Serif" font-size="10.00">+</text>
<text text-anchor="start" x="17" y="-200" font-family="Helvetica,sans-Serif" font-size="10.00">void setBounds(float</text>
<text text-anchor="start" x="17" y="-189" font-family="Helvetica,sans-Serif" font-size="10.00"> minX, float minY, float</text>
<text text-anchor="start" x="17" y="-178" font-family="Helvetica,sans-Serif" font-size="10.00"> maxX, float maxY)</text>
<text text-anchor="start" x="4" y="-163" font-family="Helvetica,sans-Serif" font-size="10.00">+</text>
<text text-anchor="start" x="17" y="-163" font-family="Helvetica,sans-Serif" font-size="10.00">void removeBounds()</text>
<text text-anchor="start" x="4" y="-148" font-family="Helvetica,sans-Serif" font-size="10.00">+</text>
<text text-anchor="start" x="17" y="-148" font-family="Helvetica,sans-Serif" font-size="10.00">sf::Vector2f screenToWorld</text>
<text text-anchor="start" x="17" y="-137" font-family="Helvetica,sans-Serif" font-size="10.00">(const sf::Vector2i &amp;screenPos) const</text>
<text text-anchor="start" x="4" y="-122" font-family="Helvetica,sans-Serif" font-size="10.00">+</text>
<text text-anchor="start" x="17" y="-122" font-family="Helvetica,sans-Serif" font-size="10.00">sf::Vector2i worldToScreen</text>
<text text-anchor="start" x="17" y="-111" font-family="Helvetica,sans-Serif" font-size="10.00">(const sf::Vector2f &amp;worldPos) const</text>
<text text-anchor="start" x="6.5" y="-96" font-family="Helvetica,sans-Serif" font-size="10.00">&#45;</text>
<text text-anchor="start" x="17" y="-96" font-family="Helvetica,sans-Serif" font-size="10.00">void updateCameraFollow</text>
<text text-anchor="start" x="17" y="-85" font-family="Helvetica,sans-Serif" font-size="10.00">(Camera_t &amp;camera, float dt)</text>
<text text-anchor="start" x="6.5" y="-70" font-family="Helvetica,sans-Serif" font-size="10.00">&#45;</text>
<text text-anchor="start" x="17" y="-70" font-family="Helvetica,sans-Serif" font-size="10.00">void updateCameraShake</text>
<text text-anchor="start" x="17" y="-59" font-family="Helvetica,sans-Serif" font-size="10.00">(Camera_t &amp;camera, float dt)</text>
<text text-anchor="start" x="6.5" y="-44" font-family="Helvetica,sans-Serif" font-size="10.00">&#45;</text>
<text text-anchor="start" x="17" y="-44" font-family="Helvetica,sans-Serif" font-size="10.00">void updateCameraZoom</text>
<text text-anchor="start" x="17" y="-33" font-family="Helvetica,sans-Serif" font-size="10.00">(Camera_t &amp;camera, float dt)</text>
<text text-anchor="start" x="6.5" y="-18" font-family="Helvetica,sans-Serif" font-size="10.00">&#45;</text>
<text text-anchor="start" x="17" y="-18" font-family="Helvetica,sans-Serif" font-size="10.00">void applyBounds(Camera</text>
<text text-anchor="start" x="17" y="-7" font-family="Helvetica,sans-Serif" font-size="10.00">_t &amp;camera)</text>
<polygon fill="#666666" stroke="#666666" points="0,-463 0,-463 202,-463 202,-463 0,-463"/>
<polygon fill="#666666" stroke="#666666" points="0,-381 0,-381 15,-381 15,-381 0,-381"/>
<polygon fill="#666666" stroke="#666666" points="15,-381 15,-381 202,-381 202,-381 15,-381"/>
<polygon fill="none" stroke="#666666" points="0,0 0,-480 202,-480 202,0 0,0"/>
</a>
</g>
</g>
<!-- Node2 -->
<g id="Node000002" class="node">
<title>Node2</title>
<g id="a_Node000002"><a xlink:href="classISystem.html" target="_top" xlink:title="Interface for systems in the ECS.">
<polygon fill="white" stroke="transparent" points="158.5,-684 43.5,-684 43.5,-516 158.5,-516 158.5,-684"/>
<text text-anchor="start" x="81.5" y="-672" font-family="Helvetica,sans-Serif" font-size="10.00">ISystem</text>
<text text-anchor="start" x="48" y="-657" font-family="Helvetica,sans-Serif" font-size="10.00">#</text>
<text text-anchor="start" x="61" y="-657" font-family="Helvetica,sans-Serif" font-size="10.00">ECS &amp; _ecs</text>
<text text-anchor="start" x="48" y="-642" font-family="Helvetica,sans-Serif" font-size="10.00">+</text>
<text text-anchor="start" x="61" y="-642" font-family="Helvetica,sans-Serif" font-size="10.00">ISystem(ECS &amp;ecs)</text>
<text text-anchor="start" x="48" y="-627" font-family="Helvetica,sans-Serif" font-size="10.00">+</text>
<text text-anchor="start" x="61" y="-627" font-family="Helvetica,sans-Serif" font-size="10.00">virtual ~ISystem()</text>
<text text-anchor="start" x="61" y="-616" font-family="Helvetica,sans-Serif" font-size="10.00">=default</text>
<text text-anchor="start" x="48" y="-601" font-family="Helvetica,sans-Serif" font-size="10.00">+</text>
<text text-anchor="start" x="61" y="-601" font-family="Helvetica,sans-Serif" font-size="10.00">virtual void update</text>
<text text-anchor="start" x="61" y="-590" font-family="Helvetica,sans-Serif" font-size="10.00">(double dt)=0</text>
<text text-anchor="start" x="48" y="-575" font-family="Helvetica,sans-Serif" font-size="10.00">+</text>
<text text-anchor="start" x="61" y="-575" font-family="Helvetica,sans-Serif" font-size="10.00">ISystem(ECS &amp;ecs)</text>
<text text-anchor="start" x="48" y="-560" font-family="Helvetica,sans-Serif" font-size="10.00">+</text>
<text text-anchor="start" x="61" y="-560" font-family="Helvetica,sans-Serif" font-size="10.00">virtual ~ISystem()</text>
<text text-anchor="start" x="61" y="-549" font-family="Helvetica,sans-Serif" font-size="10.00">=default</text>
<text text-anchor="start" x="48" y="-534" font-family="Helvetica,sans-Serif" font-size="10.00">+</text>
<text text-anchor="start" x="61" y="-534" font-family="Helvetica,sans-Serif" font-size="10.00">virtual void update</text>
<text text-anchor="start" x="61" y="-523" font-family="Helvetica,sans-Serif" font-size="10.00">(double dt)=0</text>
<polygon fill="#666666" stroke="#666666" points="44,-667 44,-667 159,-667 159,-667 44,-667"/>
<polygon fill="#666666" stroke="#666666" points="44,-652 44,-652 59,-652 59,-652 44,-652"/>
<polygon fill="#666666" stroke="#666666" points="59,-652 59,-652 159,-652 159,-652 59,-652"/>
<polygon fill="none" stroke="#666666" points="43.5,-516 43.5,-684 158.5,-684 158.5,-516 43.5,-516"/>
</a>
</g>
</g>
<!-- Node2&#45;&gt;Node1 -->
<g id="edge1_Node000001_Node000002" class="edge">
<title>Node2&#45;&gt;Node1</title>
<g id="a_edge1_Node000001_Node000002"><a xlink:title=" ">
<path fill="none" stroke="#63b8ff" d="M101,-505.76C101,-497.56 101,-489.05 101,-480.32"/>
<polygon fill="none" stroke="#63b8ff" points="97.5,-505.97 101,-515.97 104.5,-505.97 97.5,-505.97"/>
</a>
</g>
</g>
</g>
</svg>
