<?xml version="1.0" encoding="UTF-8" standalone="no"?>
<!DOCTYPE svg PUBLIC "-//W3C//DTD SVG 1.1//EN"
 "http://www.w3.org/Graphics/SVG/1.1/DTD/svg11.dtd">
<!-- Generated by graphviz version 2.43.0 (0)
 -->
<!-- Title: TexturePacker::reset Pages: 1 -->
<svg width="325pt" height="64pt"
 viewBox="0.00 0.00 325.00 64.00" xmlns="http://www.w3.org/2000/svg" xmlns:xlink="http://www.w3.org/1999/xlink">
<g id="graph0" class="graph" transform="scale(1 1) rotate(0) translate(4 60)">
<title>TexturePacker::reset</title>
<!-- Node1 -->
<g id="Node000001" class="node">
<title>Node1</title>
<g id="a_Node000001"><a xlink:title=" ">
<polygon fill="#999999" stroke="#666666" points="317,-37 202,-37 202,-18 317,-18 317,-37"/>
<text text-anchor="middle" x="259.5" y="-25" font-family="Helvetica,sans-Serif" font-size="10.00">TexturePacker::reset</text>
</a>
</g>
</g>
<!-- Node2 -->
<g id="Node000002" class="node">
<title>Node2</title>
<g id="a_Node000002"><a xlink:href="classResourceManager.html#a4af2845f8295e1a76bcd3c6169dfeafa" target="_top" xlink:title=" ">
<polygon fill="white" stroke="#666666" points="159,-56 7,-56 7,-37 159,-37 159,-56"/>
<text text-anchor="middle" x="83" y="-44" font-family="Helvetica,sans-Serif" font-size="10.00">ResourceManager::initialize</text>
</a>
</g>
</g>
<!-- Node1&#45;&gt;Node2 -->
<g id="edge1_Node000001_Node000002" class="edge">
<title>Node1&#45;&gt;Node2</title>
<g id="a_edge1_Node000001_Node000002"><a xlink:title=" ">
<path fill="none" stroke="#63b8ff" d="M191.76,-34.77C181.08,-35.93 169.97,-37.14 159.11,-38.32"/>
<polygon fill="#63b8ff" stroke="#63b8ff" points="192.28,-38.23 201.84,-33.67 191.52,-31.27 192.28,-38.23"/>
</a>
</g>
</g>
<!-- Node3 -->
<g id="Node000003" class="node">
<title>Node3</title>
<g id="a_Node000003"><a xlink:href="classTexturePacker.html#a98505b276b6760aa042ac118a5692cab" target="_top" xlink:title=" ">
<polygon fill="white" stroke="#666666" points="166,-19 0,-19 0,0 166,0 166,-19"/>
<text text-anchor="middle" x="83" y="-7" font-family="Helvetica,sans-Serif" font-size="10.00">TexturePacker::~TexturePacker</text>
</a>
</g>
</g>
<!-- Node1&#45;&gt;Node3 -->
<g id="edge2_Node000001_Node000003" class="edge">
<title>Node1&#45;&gt;Node3</title>
<g id="a_edge2_Node000001_Node000003"><a xlink:title=" ">
<path fill="none" stroke="#63b8ff" d="M191.74,-20.61C183.33,-19.75 174.65,-18.85 166.04,-17.96"/>
<polygon fill="#63b8ff" stroke="#63b8ff" points="191.54,-24.11 201.84,-21.66 192.26,-17.15 191.54,-24.11"/>
</a>
</g>
</g>
</g>
</svg>
