<?xml version="1.0" encoding="UTF-8" standalone="no"?>
<!DOCTYPE svg PUBLIC "-//W3C//DTD SVG 1.1//EN"
 "http://www.w3.org/Graphics/SVG/1.1/DTD/svg11.dtd">
<!-- Generated by graphviz version 2.43.0 (0)
 -->
<!-- Title: Nwk::UdpServer Pages: 1 -->
<svg width="318pt" height="464pt"
 viewBox="0.00 0.00 317.50 464.00" xmlns="http://www.w3.org/2000/svg" xmlns:xlink="http://www.w3.org/1999/xlink">
<g id="graph0" class="graph" transform="scale(1 1) rotate(0) translate(4 460)">
<title>Nwk::UdpServer</title>
<!-- Node1 -->
<g id="Node000001" class="node">
<title>Node1</title>
<g id="a_Node000001"><a xlink:title="Serveur UDP dédié au gameplay en temps réel.">
<polygon fill="#999999" stroke="transparent" points="216,-304 114,-304 114,0 216,0 216,-304"/>
<text text-anchor="start" x="125.5" y="-292" font-family="Helvetica,sans-Serif" font-size="10.00">Nwk::UdpServer</text>
<text text-anchor="start" x="120.5" y="-277" font-family="Helvetica,sans-Serif" font-size="10.00">&#45;</text>
<text text-anchor="start" x="131" y="-277" font-family="Helvetica,sans-Serif" font-size="10.00">m_socket</text>
<text text-anchor="start" x="120.5" y="-262" font-family="Helvetica,sans-Serif" font-size="10.00">&#45;</text>
<text text-anchor="start" x="131" y="-262" font-family="Helvetica,sans-Serif" font-size="10.00">m_port</text>
<text text-anchor="start" x="120.5" y="-247" font-family="Helvetica,sans-Serif" font-size="10.00">&#45;</text>
<text text-anchor="start" x="131" y="-247" font-family="Helvetica,sans-Serif" font-size="10.00">m_clients</text>
<text text-anchor="start" x="120.5" y="-232" font-family="Helvetica,sans-Serif" font-size="10.00">&#45;</text>
<text text-anchor="start" x="131" y="-232" font-family="Helvetica,sans-Serif" font-size="10.00">m_clientCount</text>
<text text-anchor="start" x="120.5" y="-217" font-family="Helvetica,sans-Serif" font-size="10.00">&#45;</text>
<text text-anchor="start" x="131" y="-217" font-family="Helvetica,sans-Serif" font-size="10.00">m_running</text>
<text text-anchor="start" x="120.5" y="-202" font-family="Helvetica,sans-Serif" font-size="10.00">&#45;</text>
<text text-anchor="start" x="131" y="-202" font-family="Helvetica,sans-Serif" font-size="10.00">m_recvThread</text>
<text text-anchor="start" x="120.5" y="-187" font-family="Helvetica,sans-Serif" font-size="10.00">&#45;</text>
<text text-anchor="start" x="131" y="-187" font-family="Helvetica,sans-Serif" font-size="10.00">m_sendThread</text>
<text text-anchor="start" x="118" y="-172" font-family="Helvetica,sans-Serif" font-size="10.00">+</text>
<text text-anchor="start" x="131" y="-172" font-family="Helvetica,sans-Serif" font-size="10.00">UdpServer()</text>
<text text-anchor="start" x="118" y="-157" font-family="Helvetica,sans-Serif" font-size="10.00">+</text>
<text text-anchor="start" x="131" y="-157" font-family="Helvetica,sans-Serif" font-size="10.00">~UdpServer()</text>
<text text-anchor="start" x="118" y="-142" font-family="Helvetica,sans-Serif" font-size="10.00">+</text>
<text text-anchor="start" x="131" y="-142" font-family="Helvetica,sans-Serif" font-size="10.00">start()</text>
<text text-anchor="start" x="118" y="-127" font-family="Helvetica,sans-Serif" font-size="10.00">+</text>
<text text-anchor="start" x="131" y="-127" font-family="Helvetica,sans-Serif" font-size="10.00">stop()</text>
<text text-anchor="start" x="118" y="-112" font-family="Helvetica,sans-Serif" font-size="10.00">+</text>
<text text-anchor="start" x="131" y="-112" font-family="Helvetica,sans-Serif" font-size="10.00">join()</text>
<text text-anchor="start" x="118" y="-97" font-family="Helvetica,sans-Serif" font-size="10.00">+</text>
<text text-anchor="start" x="131" y="-97" font-family="Helvetica,sans-Serif" font-size="10.00">addClient()</text>
<text text-anchor="start" x="118" y="-82" font-family="Helvetica,sans-Serif" font-size="10.00">+</text>
<text text-anchor="start" x="131" y="-82" font-family="Helvetica,sans-Serif" font-size="10.00">removeClient()</text>
<text text-anchor="start" x="118" y="-67" font-family="Helvetica,sans-Serif" font-size="10.00">+</text>
<text text-anchor="start" x="131" y="-67" font-family="Helvetica,sans-Serif" font-size="10.00">getClientCount()</text>
<text text-anchor="start" x="118" y="-52" font-family="Helvetica,sans-Serif" font-size="10.00">+</text>
<text text-anchor="start" x="131" y="-52" font-family="Helvetica,sans-Serif" font-size="10.00">getClients()</text>
<text text-anchor="start" x="120.5" y="-37" font-family="Helvetica,sans-Serif" font-size="10.00">&#45;</text>
<text text-anchor="start" x="131" y="-37" font-family="Helvetica,sans-Serif" font-size="10.00">receiveThread()</text>
<text text-anchor="start" x="120.5" y="-22" font-family="Helvetica,sans-Serif" font-size="10.00">&#45;</text>
<text text-anchor="start" x="131" y="-22" font-family="Helvetica,sans-Serif" font-size="10.00">sendThread()</text>
<text text-anchor="start" x="120.5" y="-7" font-family="Helvetica,sans-Serif" font-size="10.00">&#45;</text>
<text text-anchor="start" x="131" y="-7" font-family="Helvetica,sans-Serif" font-size="10.00">findClient()</text>
<polygon fill="#666666" stroke="#666666" points="114,-287 114,-287 216,-287 216,-287 114,-287"/>
<polygon fill="#666666" stroke="#666666" points="114,-182 114,-182 129,-182 129,-182 114,-182"/>
<polygon fill="#666666" stroke="#666666" points="129,-182 129,-182 216,-182 216,-182 129,-182"/>
<polygon fill="none" stroke="#666666" points="114,0 114,-304 216,-304 216,0 114,0"/>
</a>
</g>
</g>
<!-- Node2 -->
<g id="Node000002" class="node">
<title>Node2</title>
<g id="a_Node000002"><a xlink:href="classNwk_1_1SafeQueue.html" target="_top" xlink:title=" ">
<polygon fill="white" stroke="transparent" points="166,-456 0,-456 0,-351 166,-351 166,-456"/>
<text text-anchor="start" x="5" y="-443.5" font-family="Helvetica,sans-Serif" font-size="10.00">Nwk::SafeQueue&lt; std</text>
<text text-anchor="start" x="5" y="-432.5" font-family="Helvetica,sans-Serif" font-size="10.00">::pair&lt; int, Nwk::InputState &gt; &gt;</text>
<text text-anchor="start" x="27.5" y="-417.5" font-family="Helvetica,sans-Serif" font-size="10.00">&#45;</text>
<text text-anchor="start" x="59" y="-417.5" font-family="Helvetica,sans-Serif" font-size="10.00">queue_</text>
<text text-anchor="start" x="27.5" y="-402.5" font-family="Helvetica,sans-Serif" font-size="10.00">&#45;</text>
<text text-anchor="start" x="59" y="-402.5" font-family="Helvetica,sans-Serif" font-size="10.00">mutex_</text>
<text text-anchor="start" x="25" y="-387.5" font-family="Helvetica,sans-Serif" font-size="10.00">+</text>
<text text-anchor="start" x="59" y="-387.5" font-family="Helvetica,sans-Serif" font-size="10.00">SafeQueue()</text>
<text text-anchor="start" x="25" y="-372.5" font-family="Helvetica,sans-Serif" font-size="10.00">+</text>
<text text-anchor="start" x="59" y="-372.5" font-family="Helvetica,sans-Serif" font-size="10.00">push()</text>
<text text-anchor="start" x="25" y="-357.5" font-family="Helvetica,sans-Serif" font-size="10.00">+</text>
<text text-anchor="start" x="59" y="-357.5" font-family="Helvetica,sans-Serif" font-size="10.00">pop()</text>
<polygon fill="#666666" stroke="#666666" points="0,-427.5 0,-427.5 166,-427.5 166,-427.5 0,-427.5"/>
<polygon fill="#666666" stroke="#666666" points="0,-397.5 0,-397.5 57,-397.5 57,-397.5 0,-397.5"/>
<polygon fill="#666666" stroke="#666666" points="57,-397.5 57,-397.5 166,-397.5 166,-397.5 57,-397.5"/>
<polygon fill="none" stroke="#666666" points="0,-351 0,-456 166,-456 166,-351 0,-351"/>
</a>
</g>
</g>
<!-- Node2&#45;&gt;Node1 -->
<g id="edge1_Node000001_Node000002" class="edge">
<title>Node2&#45;&gt;Node1</title>
<g id="a_edge1_Node000001_Node000002"><a xlink:title=" ">
<path fill="none" stroke="#63b8ff" d="M99.99,-350.8C103.53,-340.04 107.43,-328.15 111.52,-315.71"/>
<polygon fill="none" stroke="#63b8ff" points="111.58,-315.55 109.65,-308.6 115.32,-304.15 117.25,-311.1 111.58,-315.55"/>
</a>
</g>
<text text-anchor="middle" x="150" y="-325" font-family="Helvetica,sans-Serif" font-size="10.00" fill="grey"> +receivedInputs</text>
</g>
<!-- Node3 -->
<g id="Node000003" class="node">
<title>Node3</title>
<g id="a_Node000003"><a xlink:href="classNwk_1_1SafeQueue.html" target="_top" xlink:title=" ">
<polygon fill="white" stroke="transparent" points="309.5,-456 184.5,-456 184.5,-351 309.5,-351 309.5,-456"/>
<text text-anchor="start" x="190" y="-443.5" font-family="Helvetica,sans-Serif" font-size="10.00">Nwk::SafeQueue&lt; Nwk</text>
<text text-anchor="start" x="205.5" y="-432.5" font-family="Helvetica,sans-Serif" font-size="10.00">::PacketToSend &gt;</text>
<text text-anchor="start" x="202" y="-417.5" font-family="Helvetica,sans-Serif" font-size="10.00">&#45;</text>
<text text-anchor="start" x="223" y="-417.5" font-family="Helvetica,sans-Serif" font-size="10.00">queue_</text>
<text text-anchor="start" x="202" y="-402.5" font-family="Helvetica,sans-Serif" font-size="10.00">&#45;</text>
<text text-anchor="start" x="223" y="-402.5" font-family="Helvetica,sans-Serif" font-size="10.00">mutex_</text>
<text text-anchor="start" x="199.5" y="-387.5" font-family="Helvetica,sans-Serif" font-size="10.00">+</text>
<text text-anchor="start" x="223" y="-387.5" font-family="Helvetica,sans-Serif" font-size="10.00">SafeQueue()</text>
<text text-anchor="start" x="199.5" y="-372.5" font-family="Helvetica,sans-Serif" font-size="10.00">+</text>
<text text-anchor="start" x="223" y="-372.5" font-family="Helvetica,sans-Serif" font-size="10.00">push()</text>
<text text-anchor="start" x="199.5" y="-357.5" font-family="Helvetica,sans-Serif" font-size="10.00">+</text>
<text text-anchor="start" x="223" y="-357.5" font-family="Helvetica,sans-Serif" font-size="10.00">pop()</text>
<polygon fill="#666666" stroke="#666666" points="185,-427.5 185,-427.5 310,-427.5 310,-427.5 185,-427.5"/>
<polygon fill="#666666" stroke="#666666" points="185,-397.5 185,-397.5 221,-397.5 221,-397.5 185,-397.5"/>
<polygon fill="#666666" stroke="#666666" points="221,-397.5 221,-397.5 310,-397.5 310,-397.5 221,-397.5"/>
<polygon fill="none" stroke="#666666" points="184.5,-351 184.5,-456 309.5,-456 309.5,-351 184.5,-351"/>
</a>
</g>
</g>
<!-- Node3&#45;&gt;Node1 -->
<g id="edge2_Node000001_Node000003" class="edge">
<title>Node3&#45;&gt;Node1</title>
<g id="a_edge2_Node000001_Node000003"><a xlink:title=" ">
<path fill="none" stroke="#63b8ff" d="M230.01,-350.8C226.47,-340.04 222.57,-328.15 218.48,-315.71"/>
<polygon fill="none" stroke="#63b8ff" points="218.42,-315.55 212.75,-311.1 214.68,-304.15 220.35,-308.6 218.42,-315.55"/>
</a>
</g>
<text text-anchor="middle" x="264" y="-325" font-family="Helvetica,sans-Serif" font-size="10.00" fill="grey"> +packetsToSend</text>
</g>
</g>
</svg>
