<?xml version="1.0" encoding="UTF-8" standalone="no"?>
<!DOCTYPE svg PUBLIC "-//W3C//DTD SVG 1.1//EN"
 "http://www.w3.org/Graphics/SVG/1.1/DTD/svg11.dtd">
<!-- Generated by graphviz version 2.43.0 (0)
 -->
<!-- Title: RenderSystem Pages: 1 -->
<svg width="172pt" height="309pt"
 viewBox="0.00 0.00 172.00 309.00" xmlns="http://www.w3.org/2000/svg" xmlns:xlink="http://www.w3.org/1999/xlink">
<g id="graph0" class="graph" transform="scale(1 1) rotate(0) translate(4 305)">
<title>RenderSystem</title>
<!-- Node1 -->
<g id="Node000001" class="node">
<title>Node1</title>
<g id="a_Node000001"><a xlink:title=" ">
<polygon fill="#999999" stroke="transparent" points="164,-97 0,-97 0,0 164,0 164,-97"/>
<text text-anchor="start" x="46" y="-84.5" font-family="Helvetica,sans-Serif" font-size="10.00">RenderSystem</text>
<text text-anchor="start" x="6.5" y="-69.5" font-family="Helvetica,sans-Serif" font-size="10.00">&#45;</text>
<text text-anchor="start" x="17" y="-69.5" font-family="Helvetica,sans-Serif" font-size="10.00">sf::RenderWindow &amp;</text>
<text text-anchor="start" x="17" y="-58.5" font-family="Helvetica,sans-Serif" font-size="10.00"> _window</text>
<text text-anchor="start" x="4" y="-43.5" font-family="Helvetica,sans-Serif" font-size="10.00">+</text>
<text text-anchor="start" x="17" y="-43.5" font-family="Helvetica,sans-Serif" font-size="10.00">RenderSystem(ECS &amp;ecs,</text>
<text text-anchor="start" x="17" y="-32.5" font-family="Helvetica,sans-Serif" font-size="10.00"> sf::RenderWindow &amp;window)</text>
<text text-anchor="start" x="4" y="-17.5" font-family="Helvetica,sans-Serif" font-size="10.00">+</text>
<text text-anchor="start" x="17" y="-17.5" font-family="Helvetica,sans-Serif" font-size="10.00">void update(double</text>
<text text-anchor="start" x="17" y="-6.5" font-family="Helvetica,sans-Serif" font-size="10.00"> dt) override</text>
<polygon fill="#666666" stroke="#666666" points="0,-79.5 0,-79.5 164,-79.5 164,-79.5 0,-79.5"/>
<polygon fill="#666666" stroke="#666666" points="0,-53.5 0,-53.5 15,-53.5 15,-53.5 0,-53.5"/>
<polygon fill="#666666" stroke="#666666" points="15,-53.5 15,-53.5 164,-53.5 164,-53.5 15,-53.5"/>
<polygon fill="none" stroke="#666666" points="0,0 0,-97 164,-97 164,0 0,0"/>
</a>
</g>
</g>
<!-- Node2 -->
<g id="Node000002" class="node">
<title>Node2</title>
<g id="a_Node000002"><a xlink:href="classISystem.html" target="_top" xlink:title="Interface for systems in the ECS.">
<polygon fill="white" stroke="transparent" points="139.5,-301 24.5,-301 24.5,-133 139.5,-133 139.5,-301"/>
<text text-anchor="start" x="62.5" y="-289" font-family="Helvetica,sans-Serif" font-size="10.00">ISystem</text>
<text text-anchor="start" x="29" y="-274" font-family="Helvetica,sans-Serif" font-size="10.00">#</text>
<text text-anchor="start" x="42" y="-274" font-family="Helvetica,sans-Serif" font-size="10.00">ECS &amp; _ecs</text>
<text text-anchor="start" x="29" y="-259" font-family="Helvetica,sans-Serif" font-size="10.00">+</text>
<text text-anchor="start" x="42" y="-259" font-family="Helvetica,sans-Serif" font-size="10.00">ISystem(ECS &amp;ecs)</text>
<text text-anchor="start" x="29" y="-244" font-family="Helvetica,sans-Serif" font-size="10.00">+</text>
<text text-anchor="start" x="42" y="-244" font-family="Helvetica,sans-Serif" font-size="10.00">virtual ~ISystem()</text>
<text text-anchor="start" x="42" y="-233" font-family="Helvetica,sans-Serif" font-size="10.00">=default</text>
<text text-anchor="start" x="29" y="-218" font-family="Helvetica,sans-Serif" font-size="10.00">+</text>
<text text-anchor="start" x="42" y="-218" font-family="Helvetica,sans-Serif" font-size="10.00">virtual void update</text>
<text text-anchor="start" x="42" y="-207" font-family="Helvetica,sans-Serif" font-size="10.00">(double dt)=0</text>
<text text-anchor="start" x="29" y="-192" font-family="Helvetica,sans-Serif" font-size="10.00">+</text>
<text text-anchor="start" x="42" y="-192" font-family="Helvetica,sans-Serif" font-size="10.00">ISystem(ECS &amp;ecs)</text>
<text text-anchor="start" x="29" y="-177" font-family="Helvetica,sans-Serif" font-size="10.00">+</text>
<text text-anchor="start" x="42" y="-177" font-family="Helvetica,sans-Serif" font-size="10.00">virtual ~ISystem()</text>
<text text-anchor="start" x="42" y="-166" font-family="Helvetica,sans-Serif" font-size="10.00">=default</text>
<text text-anchor="start" x="29" y="-151" font-family="Helvetica,sans-Serif" font-size="10.00">+</text>
<text text-anchor="start" x="42" y="-151" font-family="Helvetica,sans-Serif" font-size="10.00">virtual void update</text>
<text text-anchor="start" x="42" y="-140" font-family="Helvetica,sans-Serif" font-size="10.00">(double dt)=0</text>
<polygon fill="#666666" stroke="#666666" points="25,-284 25,-284 140,-284 140,-284 25,-284"/>
<polygon fill="#666666" stroke="#666666" points="25,-269 25,-269 40,-269 40,-269 25,-269"/>
<polygon fill="#666666" stroke="#666666" points="40,-269 40,-269 140,-269 140,-269 40,-269"/>
<polygon fill="none" stroke="#666666" points="24.5,-133 24.5,-301 139.5,-301 139.5,-133 24.5,-133"/>
</a>
</g>
</g>
<!-- Node2&#45;&gt;Node1 -->
<g id="edge1_Node000001_Node000002" class="edge">
<title>Node2&#45;&gt;Node1</title>
<g id="a_edge1_Node000001_Node000002"><a xlink:title=" ">
<path fill="none" stroke="#63b8ff" d="M82,-122.48C82,-113.78 82,-105.22 82,-97.21"/>
<polygon fill="none" stroke="#63b8ff" points="78.5,-122.75 82,-132.75 85.5,-122.75 78.5,-122.75"/>
</a>
</g>
</g>
</g>
</svg>
