<?xml version="1.0" encoding="UTF-8" standalone="no"?>
<!DOCTYPE svg PUBLIC "-//W3C//DTD SVG 1.1//EN"
 "http://www.w3.org/Graphics/SVG/1.1/DTD/svg11.dtd">
<!-- Generated by graphviz version 2.43.0 (0)
 -->
<!-- Title: InputSystem::applyInputToPlayers Pages: 1 -->
<!--zoomable 101 -->

<svg id="main" version="1.1" xmlns="http://www.w3.org/2000/svg" xmlns:xlink="http://www.w3.org/1999/xlink" xml:space="preserve" onload="init(evt)">
<style type="text/css"><![CDATA[
.node, .edge {opacity: 0.7;}
.node.selected, .edge.selected {opacity: 1;}
.edge:hover path { stroke: red; }
.edge:hover polygon { stroke: red; fill: red; }
]]></style>

<defs>
  <circle id="rim" cx="0" cy="0" r="7"/>
  <circle id="rim2" cx="0" cy="0" r="3.5"/>
  <g id="zoomPlus">
    <use xlink:href="#rim" fill="#404040"><set attributeName="fill" to="#808080" begin="zoomplus.mouseover" end="zoomplus.mouseout"/></use>
    <path d="M-4,0h8M0,-4v8" fill="none" stroke="white" stroke-width="1.5" pointer-events="none"/>
  </g>
  <g id="zoomMin">
    <use xlink:href="#rim" fill="#404040"><set attributeName="fill" to="#808080" begin="zoomminus.mouseover" end="zoomminus.mouseout"/></use>
    <path d="M-4,0h8" fill="none" stroke="white" stroke-width="1.5" pointer-events="none"/>
  </g>
  <g id="arrowUp" transform="translate(30 24)">
    <use xlink:href="#rim"/>
    <path pointer-events="none" fill="none" stroke="white" stroke-width="1.5" d="M0,-3.0v7 M-2.5,-0.5L0,-3.0L2.5,-0.5"/>
  </g>
  <g id="arrowRight" transform="rotate(90) translate(36 -43)">
    <use xlink:href="#rim"/>
    <path pointer-events="none" fill="none" stroke="white" stroke-width="1.5" d="M0,-3.0v7 M-2.5,-0.5L0,-3.0L2.5,-0.5"/>
  </g>
  <g id="arrowDown" transform="rotate(180) translate(-30 -48)">
    <use xlink:href="#rim"/>
    <path pointer-events="none" fill="none" stroke="white" stroke-width="1.5" d="M0,-3.0v7 M-2.5,-0.5L0,-3.0L2.5,-0.5"/>
  </g>
  <g id="arrowLeft" transform="rotate(270) translate(-36 17)">
    <use xlink:href="#rim"/>
    <path pointer-events="none" fill="none" stroke="white" stroke-width="1.5" d="M0,-3.0v7 M-2.5,-0.5L0,-3.0L2.5,-0.5"/>
  </g>
  <g id="resetDef">
    <use xlink:href="#rim2" fill="#404040"><set attributeName="fill" to="#808080" begin="reset.mouseover" end="reset.mouseout"/></use>
  </g>
</defs>
<script type="application/ecmascript">
var viewWidth = 696;
var viewHeight = 101;
var sectionId = 'dynsection-3';
</script>
<script type="application/ecmascript" xlink:href="svg.min.js"/>
<svg id="graph" class="graph">
<g id="viewport">
<title>InputSystem::applyInputToPlayers</title>
<!-- Node1 -->
<g id="Node000001" class="node">
<title>Node1</title>
<g id="a_Node000001"><a xlink:title=" ">
<polygon fill="#999999" stroke="#666666" points="146,-61.5 0,-61.5 0,-31.5 146,-31.5 146,-61.5"/>
<text text-anchor="start" x="8" y="-49.5" font-family="Helvetica,sans-Serif" font-size="10.00">InputSystem::applyInputTo</text>
<text text-anchor="middle" x="73" y="-38.5" font-family="Helvetica,sans-Serif" font-size="10.00">Players</text>
</a>
</g>
</g>
<!-- Node2 -->
<g id="Node000002" class="node">
<title>Node2</title>
<g id="a_Node000002"><a xlink:href="classECS.html#aaae60c88af59dd7af9d86200eb522bbc" target="_top" xlink:title="Retrieves a mutable pointer to a component.">
<polygon fill="white" stroke="#666666" points="322.5,-93 209.5,-93 209.5,-74 322.5,-74 322.5,-93"/>
<text text-anchor="middle" x="266" y="-81" font-family="Helvetica,sans-Serif" font-size="10.00">ECS::getComponent</text>
</a>
</g>
</g>
<!-- Node1&#45;&gt;Node2 -->
<g id="edge1_Node000001_Node000002" class="edge">
<title>Node1&#45;&gt;Node2</title>
<g id="a_edge1_Node000001_Node000002"><a xlink:title=" ">
<path fill="none" stroke="#63b8ff" d="M146.21,-60.49C165.91,-64.3 187.02,-68.39 205.9,-72.05"/>
<polygon fill="#63b8ff" stroke="#63b8ff" points="205.35,-75.51 215.84,-73.98 206.68,-68.64 205.35,-75.51"/>
</a>
</g>
</g>
<!-- Node5 -->
<g id="Node000005" class="node">
<title>Node5</title>
<g id="a_Node000005"><a xlink:href="classECS.html#a8d931ce389d47888768e1a5092bde26b" target="_top" xlink:title="Retrieves entities that have all specified components.">
<polygon fill="white" stroke="#666666" points="350,-56 182,-56 182,-37 350,-37 350,-56"/>
<text text-anchor="middle" x="266" y="-44" font-family="Helvetica,sans-Serif" font-size="10.00">ECS::getEntitiesByComponents</text>
</a>
</g>
</g>
<!-- Node1&#45;&gt;Node5 -->
<g id="edge4_Node000001_Node000005" class="edge">
<title>Node1&#45;&gt;Node5</title>
<g id="a_edge4_Node000001_Node000005"><a xlink:title=" ">
<path fill="none" stroke="#63b8ff" d="M146.21,-46.5C154.56,-46.5 163.17,-46.5 171.75,-46.5"/>
<polygon fill="#63b8ff" stroke="#63b8ff" points="171.79,-50 181.79,-46.5 171.79,-43 171.79,-50"/>
</a>
</g>
</g>
<!-- Node6 -->
<g id="Node000006" class="node">
<title>Node6</title>
<g id="a_Node000006"><a xlink:href="classInputSystem.html#a853a52f3d59165b69bc7303913369395" target="_top" xlink:title=" ">
<polygon fill="white" stroke="#666666" points="343,-19 189,-19 189,0 343,0 343,-19"/>
<text text-anchor="middle" x="266" y="-7" font-family="Helvetica,sans-Serif" font-size="10.00">InputSystem::isActionActive</text>
</a>
</g>
</g>
<!-- Node1&#45;&gt;Node6 -->
<g id="edge5_Node000001_Node000006" class="edge">
<title>Node1&#45;&gt;Node6</title>
<g id="a_edge5_Node000001_Node000006"><a xlink:title=" ">
<path fill="none" stroke="#63b8ff" d="M146.21,-32.51C165.91,-28.7 187.02,-24.61 205.9,-20.95"/>
<polygon fill="#63b8ff" stroke="#63b8ff" points="206.68,-24.36 215.84,-19.02 205.35,-17.49 206.68,-24.36"/>
</a>
</g>
</g>
<!-- Node3 -->
<g id="Node000003" class="node">
<title>Node3</title>
<g id="a_Node000003"><a xlink:href="classStorageComponent.html#a4e0239d1d216347282d49c0bcdf0079d" target="_top" xlink:title="Retrieves a read&#45;only pointer to the component for the entity.">
<polygon fill="white" stroke="#666666" points="518,-93 386,-93 386,-74 518,-74 518,-93"/>
<text text-anchor="middle" x="452" y="-81" font-family="Helvetica,sans-Serif" font-size="10.00">StorageComponent::get</text>
</a>
</g>
</g>
<!-- Node2&#45;&gt;Node3 -->
<g id="edge2_Node000002_Node000003" class="edge">
<title>Node2&#45;&gt;Node3</title>
<g id="a_edge2_Node000002_Node000003"><a xlink:title=" ">
<path fill="none" stroke="#63b8ff" d="M322.71,-83.5C339.33,-83.5 357.83,-83.5 375.5,-83.5"/>
<polygon fill="#63b8ff" stroke="#63b8ff" points="375.78,-87 385.78,-83.5 375.78,-80 375.78,-87"/>
</a>
</g>
</g>
<!-- Node4 -->
<g id="Node000004" class="node">
<title>Node4</title>
<g id="a_Node000004"><a xlink:href="classStorageComponent.html#a6de145a1ea5570363f566ab9fce66578" target="_top" xlink:title="Checks if the entity has this component type.">
<polygon fill="white" stroke="#666666" points="688,-93 554,-93 554,-74 688,-74 688,-93"/>
<text text-anchor="middle" x="621" y="-81" font-family="Helvetica,sans-Serif" font-size="10.00">StorageComponent::has</text>
</a>
</g>
</g>
<!-- Node3&#45;&gt;Node4 -->
<g id="edge3_Node000003_Node000004" class="edge">
<title>Node3&#45;&gt;Node4</title>
<g id="a_edge3_Node000003_Node000004"><a xlink:title=" ">
<path fill="none" stroke="#63b8ff" d="M518.04,-83.5C526.47,-83.5 535.16,-83.5 543.75,-83.5"/>
<polygon fill="#63b8ff" stroke="#63b8ff" points="543.76,-87 553.76,-83.5 543.76,-80 543.76,-87"/>
</a>
</g>
</g>
</g>
</svg>

<g id="navigator" transform="translate(0 0)" fill="#404254">
  <rect fill="#f2f5e9" fill-opacity="0.5" stroke="#606060" stroke-width=".5" x="0" y="0" width="60" height="60"/>
  <use id="zoomplus" xlink:href="#zoomPlus" x="17" y="9" onmousedown="handleZoom(evt,'in')"/>
  <use id="zoomminus" xlink:href="#zoomMin" x="42" y="9" onmousedown="handleZoom(evt,'out')"/>
  <use id="reset" xlink:href="#resetDef" x="30" y="36" onmousedown="handleReset()"/>
   <use id="arrowup" xlink:href="#arrowUp" x="0" y="0" onmousedown="handlePan(0,-1)"/>
  <use id="arrowright" xlink:href="#arrowRight" x="0" y="0" onmousedown="handlePan(1,0)"/>
  <use id="arrowdown" xlink:href="#arrowDown" x="0" y="0" onmousedown="handlePan(0,1)"/>
  <use id="arrowleft" xlink:href="#arrowLeft" x="0" y="0" onmousedown="handlePan(-1,0)"/>
</g>
<svg viewBox="0 0 15 15" width="100%" height="30px" preserveAspectRatio="xMaxYMin meet">
 <g id="arrow_out" transform="scale(0.3 0.3)">
  <a xlink:href="classInputSystem_af162c4e6c2b6f9ea270a0856b160a9b4_cgraph_org.svg" target="_base">
   <rect id="button" ry="5" rx="5" y="6" x="6" height="38" width="38"
        fill="#f2f5e9" fill-opacity="0.5" stroke="#606060" stroke-width="1.0"/>
   <path id="arrow"
     d="M 11.500037,31.436501 C 11.940474,20.09759 22.043105,11.32322 32.158766,21.979434 L 37.068811,17.246167 C 37.068811,17.246167 37.088388,32 37.088388,32 L 22.160133,31.978069 C 22.160133,31.978069 26.997745,27.140456 26.997745,27.140456 C 18.528582,18.264221 13.291696,25.230495 11.500037,31.436501 z"
     style="fill:#404040;"/>
  </a>
 </g>
</svg>

<style type='text/css'>
<![CDATA[
[data-mouse-over-selected='false'] { opacity: 0.7; }
[data-mouse-over-selected='true']  { opacity: 1.0; }
]]>
</style>
<script type="application/ecmascript"><![CDATA[
document.addEventListener('DOMContentLoaded', (event) => {
  highlightEdges();
  highlightAdjacentNodes();
});
]]></script>
</svg>
