<?xml version="1.0" encoding="UTF-8" standalone="no"?>
<!DOCTYPE svg PUBLIC "-//W3C//DTD SVG 1.1//EN"
 "http://www.w3.org/Graphics/SVG/1.1/DTD/svg11.dtd">
<!-- Generated by graphviz version 2.43.0 (0)
 -->
<!-- Title: ECS::getComponent Pages: 1 -->
<svg width="428pt" height="216pt"
 viewBox="0.00 0.00 428.00 216.00" xmlns="http://www.w3.org/2000/svg" xmlns:xlink="http://www.w3.org/1999/xlink">

<svg id="main" version="1.1" xmlns="http://www.w3.org/2000/svg" xmlns:xlink="http://www.w3.org/1999/xlink" xml:space="preserve" onload="init(evt)">
<style type="text/css"><![CDATA[
.node, .edge {opacity: 0.7;}
.node.selected, .edge.selected {opacity: 1;}
.edge:hover path { stroke: red; }
.edge:hover polygon { stroke: red; fill: red; }
]]></style>
<script type="application/ecmascript" xlink:href="svg.min.js"/>
<svg id="graph" class="graph">
<g id="graph0" class="graph" transform="scale(1 1) rotate(0) translate(4 212)">
<title>ECS::getComponent</title>
<!-- Node1 -->
<g id="Node000001" class="node">
<title>Node1</title>
<g id="a_Node000001"><a xlink:title="Retrieves a mutable pointer to a component.">
<polygon fill="#999999" stroke="#666666" points="420,-113 307,-113 307,-94 420,-94 420,-113"/>
<text text-anchor="middle" x="363.5" y="-101" font-family="Helvetica,sans-Serif" font-size="10.00">ECS::getComponent</text>
</a>
</g>
</g>
<!-- Node2 -->
<g id="Node000002" class="node">
<title>Node2</title>
<g id="a_Node000002"><a xlink:href="classServer.html#aac4110712ec347909be9bd4a5140ac4f" target="_top" xlink:title=" ">
<polygon fill="white" stroke="#666666" points="267.5,-208 161.5,-208 161.5,-189 267.5,-189 267.5,-208"/>
<text text-anchor="middle" x="214.5" y="-196" font-family="Helvetica,sans-Serif" font-size="10.00">Server::applyInput</text>
</a>
</g>
</g>
<!-- Node1&#45;&gt;Node2 -->
<g id="edge1_Node000001_Node000002" class="edge">
<title>Node1&#45;&gt;Node2</title>
<g id="a_edge1_Node000001_Node000002"><a xlink:title=" ">
<path fill="none" stroke="#63b8ff" d="M344.02,-120.11C326.22,-135.54 298.07,-158.49 271,-174.5 261.69,-180 250.89,-184.96 241.3,-188.93"/>
<polygon fill="#63b8ff" stroke="#63b8ff" points="346.68,-122.43 351.88,-113.2 342.06,-117.17 346.68,-122.43"/>
</a>
</g>
</g>
<!-- Node3 -->
<g id="Node000003" class="node">
<title>Node3</title>
<g id="a_Node000003"><a xlink:href="classServer.html#aeee363eaf9f494aa542f2e0ad1d7813b" target="_top" xlink:title=" ">
<polygon fill="white" stroke="#666666" points="122,-197 0,-197 0,-178 122,-178 122,-197"/>
<text text-anchor="middle" x="61" y="-185" font-family="Helvetica,sans-Serif" font-size="10.00">Server::processInputs</text>
</a>
</g>
</g>
<!-- Node1&#45;&gt;Node3 -->
<g id="edge8_Node000001_Node000003" class="edge">
<title>Node1&#45;&gt;Node3</title>
<g id="a_edge8_Node000001_Node000003"><a xlink:title=" ">
<path fill="none" stroke="#63b8ff" d="M333.3,-117.18C315.57,-125.1 292.32,-134.79 271,-141.5 220.15,-157.52 160.64,-170.03 118.15,-177.94"/>
<polygon fill="#63b8ff" stroke="#63b8ff" points="334.87,-120.32 342.53,-113 331.98,-113.94 334.87,-120.32"/>
</a>
</g>
</g>
<!-- Node4 -->
<g id="Node000004" class="node">
<title>Node4</title>
<g id="a_Node000004"><a xlink:href="classClient.html#ad361032d607e05a51b215e1300029bbc" target="_top" xlink:title=" ">
<polygon fill="white" stroke="#666666" points="271,-132 158,-132 158,-113 271,-113 271,-132"/>
<text text-anchor="middle" x="214.5" y="-120" font-family="Helvetica,sans-Serif" font-size="10.00">Client::applyUpdate</text>
</a>
</g>
</g>
<!-- Node1&#45;&gt;Node4 -->
<g id="edge3_Node000001_Node000004" class="edge">
<title>Node1&#45;&gt;Node4</title>
<g id="a_edge3_Node000001_Node000004"><a xlink:title=" ">
<path fill="none" stroke="#63b8ff" d="M296.92,-111.98C288.32,-113.09 279.57,-114.22 271.15,-115.31"/>
<polygon fill="#63b8ff" stroke="#63b8ff" points="297.46,-115.44 306.93,-110.68 296.56,-108.49 297.46,-115.44"/>
</a>
</g>
</g>
<!-- Node5 -->
<g id="Node000005" class="node">
<title>Node5</title>
<g id="a_Node000005"><a xlink:href="classClient.html#a6e7a5e19c40bef39ae1c0f5996b8c471" target="_top" xlink:title=" ">
<polygon fill="white" stroke="#666666" points="103.5,-132 18.5,-132 18.5,-113 103.5,-113 103.5,-132"/>
<text text-anchor="middle" x="61" y="-120" font-family="Helvetica,sans-Serif" font-size="10.00">Client::update</text>
</a>
</g>
</g>
<!-- Node1&#45;&gt;Node5 -->
<g id="edge9_Node000001_Node000005" class="edge">
<title>Node1&#45;&gt;Node5</title>
<g id="a_edge9_Node000001_Node000005"><a xlink:title=" ">
<path fill="none" stroke="#63b8ff" d="M296.61,-100.25C256.46,-99.07 204.16,-98.98 158,-103.5 139.06,-105.36 118.32,-109.22 100.98,-112.99"/>
<polygon fill="#63b8ff" stroke="#63b8ff" points="296.7,-103.75 306.81,-100.57 296.93,-96.75 296.7,-103.75"/>
</a>
</g>
</g>
<!-- Node6 -->
<g id="Node000006" class="node">
<title>Node6</title>
<g id="a_Node000006"><a xlink:href="classClient.html#a643ed09341f07f8c81696741f2d2ca07" target="_top" xlink:title=" ">
<polygon fill="white" stroke="#666666" points="271,-56 158,-56 158,-37 271,-37 271,-56"/>
<text text-anchor="middle" x="214.5" y="-44" font-family="Helvetica,sans-Serif" font-size="10.00">Client::processInput</text>
</a>
</g>
</g>
<!-- Node1&#45;&gt;Node6 -->
<g id="edge7_Node000001_Node000006" class="edge">
<title>Node1&#45;&gt;Node6</title>
<g id="a_edge7_Node000001_Node000006"><a xlink:title=" ">
<path fill="none" stroke="#63b8ff" d="M328.45,-90.3C301.46,-79.83 264.38,-65.45 240.18,-56.07"/>
<polygon fill="#63b8ff" stroke="#63b8ff" points="327.31,-93.61 337.9,-93.96 329.84,-87.08 327.31,-93.61"/>
</a>
</g>
</g>
<!-- Node7 -->
<g id="Node000007" class="node">
<title>Node7</title>
<g id="a_Node000007"><a xlink:href="classServer.html#af7b0a4370ac2c1e573f292870adfa81c" target="_top" xlink:title=" ">
<polygon fill="white" stroke="#666666" points="258.5,-19 170.5,-19 170.5,0 258.5,0 258.5,-19"/>
<text text-anchor="middle" x="214.5" y="-7" font-family="Helvetica,sans-Serif" font-size="10.00">Server::update</text>
</a>
</g>
</g>
<!-- Node1&#45;&gt;Node7 -->
<g id="edge10_Node000001_Node000007" class="edge">
<title>Node1&#45;&gt;Node7</title>
<g id="a_edge10_Node000001_Node000007"><a xlink:title=" ">
<path fill="none" stroke="#63b8ff" d="M346.46,-86.86C329.22,-69.84 300.33,-43.65 271,-27.5 265.06,-24.23 258.42,-21.43 251.86,-19.09"/>
<polygon fill="#63b8ff" stroke="#63b8ff" points="343.98,-89.34 353.51,-93.97 348.95,-84.41 343.98,-89.34"/>
</a>
</g>
</g>
<!-- Node2&#45;&gt;Node3 -->
<g id="edge2_Node000002_Node000003" class="edge">
<title>Node2&#45;&gt;Node3</title>
<g id="a_edge2_Node000002_Node000003"><a xlink:title=" ">
<path fill="none" stroke="#63b8ff" d="M151.09,-193.97C141.49,-193.27 131.59,-192.55 122.05,-191.86"/>
<polygon fill="#63b8ff" stroke="#63b8ff" points="151.14,-197.48 161.36,-194.71 151.64,-190.5 151.14,-197.48"/>
</a>
</g>
</g>
<!-- Node4&#45;&gt;Node5 -->
<g id="edge4_Node000004_Node000005" class="edge">
<title>Node4&#45;&gt;Node5</title>
<g id="a_edge4_Node000004_Node000005"><a xlink:title=" ">
<path fill="none" stroke="#63b8ff" d="M147.73,-115.8C132.82,-115.65 117.38,-115.84 103.78,-116.39"/>
<polygon fill="#63b8ff" stroke="#63b8ff" points="147.89,-119.31 157.95,-115.97 148.01,-112.31 147.89,-119.31"/>
</a>
</g>
</g>
<!-- Node5&#45;&gt;Node4 -->
<g id="edge5_Node000005_Node000004" class="edge">
<title>Node5&#45;&gt;Node4</title>
<g id="a_edge5_Node000005_Node000004"><a xlink:title=" ">
<path fill="none" stroke="#63b8ff" d="M113.87,-128.94C128.08,-129.32 143.54,-129.35 157.95,-129.03"/>
<polygon fill="#63b8ff" stroke="#63b8ff" points="113.89,-125.44 103.78,-128.61 113.66,-132.44 113.89,-125.44"/>
</a>
</g>
</g>
<!-- Node5&#45;&gt;Node5 -->
<g id="edge6_Node000005_Node000005" class="edge">
<title>Node5&#45;&gt;Node5</title>
<g id="a_edge6_Node000005_Node000005"><a xlink:title=" ">
<path fill="none" stroke="#63b8ff" d="M89.37,-140.82C88.19,-146.01 78.73,-150 61,-150 33.98,-150 26.18,-140.73 37.57,-132.08"/>
<polygon fill="#63b8ff" stroke="#63b8ff" points="92.4,-139.06 84.43,-132.08 86.31,-142.51 92.4,-139.06"/>
</a>
</g>
</g>
</g>
</svg>
</svg>

<style type='text/css'>
<![CDATA[
[data-mouse-over-selected='false'] { opacity: 0.7; }
[data-mouse-over-selected='true']  { opacity: 1.0; }
]]>
</style>
<script type="application/ecmascript"><![CDATA[
document.addEventListener('DOMContentLoaded', (event) => {
  highlightEdges();
  highlightAdjacentNodes();
});
]]></script>
</svg>
