<?xml version="1.0" encoding="UTF-8" standalone="no"?>
<!DOCTYPE svg PUBLIC "-//W3C//DTD SVG 1.1//EN"
 "http://www.w3.org/Graphics/SVG/1.1/DTD/svg11.dtd">
<!-- Generated by graphviz version 2.43.0 (0)
 -->
<!-- Title: Serializer Pages: 1 -->
<svg width="151pt" height="116pt"
 viewBox="0.00 0.00 151.00 116.00" xmlns="http://www.w3.org/2000/svg" xmlns:xlink="http://www.w3.org/1999/xlink">
<g id="graph0" class="graph" transform="scale(1 1) rotate(0) translate(4 112)">
<title>Serializer</title>
<!-- Node1 -->
<g id="Node000001" class="node">
<title>Node1</title>
<g id="a_Node000001"><a xlink:title=" ">
<polygon fill="#999999" stroke="transparent" points="143,-108 0,-108 0,0 143,0 143,-108"/>
<text text-anchor="start" x="49" y="-96" font-family="Helvetica,sans-Serif" font-size="10.00">Serializer</text>
<text text-anchor="start" x="70" y="-81" font-family="Helvetica,sans-Serif" font-size="10.00"> </text>
<text text-anchor="start" x="4.5" y="-66" font-family="Helvetica,sans-Serif" font-size="10.00">+</text>
<text text-anchor="start" x="17.5" y="-66" font-family="Helvetica,sans-Serif" font-size="10.00">static std::vector</text>
<text text-anchor="start" x="17.5" y="-55" font-family="Helvetica,sans-Serif" font-size="10.00">&lt; std::uint8_t &gt; serialize</text>
<text text-anchor="start" x="17.5" y="-44" font-family="Helvetica,sans-Serif" font-size="10.00">(const T &amp;data)</text>
<text text-anchor="start" x="4.5" y="-29" font-family="Helvetica,sans-Serif" font-size="10.00">+</text>
<text text-anchor="start" x="17.5" y="-29" font-family="Helvetica,sans-Serif" font-size="10.00">static T deserialize</text>
<text text-anchor="start" x="17.5" y="-18" font-family="Helvetica,sans-Serif" font-size="10.00">(const std::vector&lt; std</text>
<text text-anchor="start" x="17.5" y="-7" font-family="Helvetica,sans-Serif" font-size="10.00">::uint8_t &gt; &amp;data)</text>
<polygon fill="#666666" stroke="#666666" points="0.5,-91 0.5,-91 143.5,-91 143.5,-91 0.5,-91"/>
<polygon fill="#666666" stroke="#666666" points="0.5,-76 0.5,-76 143.5,-76 143.5,-76 0.5,-76"/>
<polygon fill="none" stroke="#666666" points="0,0 0,-108 143,-108 143,0 0,0"/>
</a>
</g>
</g>
</g>
</svg>
