<?xml version="1.0" encoding="UTF-8" standalone="no"?>
<!DOCTYPE svg PUBLIC "-//W3C//DTD SVG 1.1//EN"
 "http://www.w3.org/Graphics/SVG/1.1/DTD/svg11.dtd">
<!-- Generated by graphviz version 2.43.0 (0)
 -->
<!-- Title: Client::applyUpdate Pages: 1 -->
<!--zoomable 282 -->

<svg id="main" version="1.1" xmlns="http://www.w3.org/2000/svg" xmlns:xlink="http://www.w3.org/1999/xlink" xml:space="preserve" onload="init(evt)">
<style type="text/css"><![CDATA[
.node, .edge {opacity: 0.7;}
.node.selected, .edge.selected {opacity: 1;}
.edge:hover path { stroke: red; }
.edge:hover polygon { stroke: red; fill: red; }
]]></style>

<defs>
  <circle id="rim" cx="0" cy="0" r="7"/>
  <circle id="rim2" cx="0" cy="0" r="3.5"/>
  <g id="zoomPlus">
    <use xlink:href="#rim" fill="#404040"><set attributeName="fill" to="#808080" begin="zoomplus.mouseover" end="zoomplus.mouseout"/></use>
    <path d="M-4,0h8M0,-4v8" fill="none" stroke="white" stroke-width="1.5" pointer-events="none"/>
  </g>
  <g id="zoomMin">
    <use xlink:href="#rim" fill="#404040"><set attributeName="fill" to="#808080" begin="zoomminus.mouseover" end="zoomminus.mouseout"/></use>
    <path d="M-4,0h8" fill="none" stroke="white" stroke-width="1.5" pointer-events="none"/>
  </g>
  <g id="arrowUp" transform="translate(30 24)">
    <use xlink:href="#rim"/>
    <path pointer-events="none" fill="none" stroke="white" stroke-width="1.5" d="M0,-3.0v7 M-2.5,-0.5L0,-3.0L2.5,-0.5"/>
  </g>
  <g id="arrowRight" transform="rotate(90) translate(36 -43)">
    <use xlink:href="#rim"/>
    <path pointer-events="none" fill="none" stroke="white" stroke-width="1.5" d="M0,-3.0v7 M-2.5,-0.5L0,-3.0L2.5,-0.5"/>
  </g>
  <g id="arrowDown" transform="rotate(180) translate(-30 -48)">
    <use xlink:href="#rim"/>
    <path pointer-events="none" fill="none" stroke="white" stroke-width="1.5" d="M0,-3.0v7 M-2.5,-0.5L0,-3.0L2.5,-0.5"/>
  </g>
  <g id="arrowLeft" transform="rotate(270) translate(-36 17)">
    <use xlink:href="#rim"/>
    <path pointer-events="none" fill="none" stroke="white" stroke-width="1.5" d="M0,-3.0v7 M-2.5,-0.5L0,-3.0L2.5,-0.5"/>
  </g>
  <g id="resetDef">
    <use xlink:href="#rim2" fill="#404040"><set attributeName="fill" to="#808080" begin="reset.mouseover" end="reset.mouseout"/></use>
  </g>
</defs>
<script type="application/ecmascript">
var viewWidth = 976;
var viewHeight = 282;
var sectionId = 'dynsection-2';
</script>
<script type="application/ecmascript" xlink:href="svg.min.js"/>
<svg id="graph" class="graph">
<g id="viewport">
<title>Client::applyUpdate</title>
<!-- Node1 -->
<g id="Node000001" class="node">
<title>Node1</title>
<g id="a_Node000001"><a xlink:title=" ">
<polygon fill="#999999" stroke="#666666" points="113,-122.22 0,-122.22 0,-103.22 113,-103.22 113,-122.22"/>
<text text-anchor="middle" x="56.5" y="-110.22" font-family="Helvetica,sans-Serif" font-size="10.00">Client::applyUpdate</text>
</a>
</g>
</g>
<!-- Node2 -->
<g id="Node000002" class="node">
<title>Node2</title>
<g id="a_Node000002"><a xlink:href="classECS.html#a729237fc4138af4f48df163dec088efb" target="_top" xlink:title=" ">
<polygon fill="white" stroke="#666666" points="270,-214.22 149,-214.22 149,-195.22 270,-195.22 270,-214.22"/>
<text text-anchor="middle" x="209.5" y="-202.22" font-family="Helvetica,sans-Serif" font-size="10.00">ECS::addComponents</text>
</a>
</g>
</g>
<!-- Node1&#45;&gt;Node2 -->
<g id="edge1_Node000001_Node000002" class="edge">
<title>Node1&#45;&gt;Node2</title>
<g id="a_edge1_Node000001_Node000002"><a xlink:title=" ">
<path fill="none" stroke="#63b8ff" d="M66.75,-122.3C82.33,-137.93 115.42,-168.94 149,-186.72 152.44,-188.54 156.1,-190.21 159.84,-191.73"/>
<polygon fill="#63b8ff" stroke="#63b8ff" points="158.63,-195.01 169.23,-195.2 161.06,-188.45 158.63,-195.01"/>
</a>
</g>
</g>
<!-- Node3 -->
<g id="Node000003" class="node">
<title>Node3</title>
<g id="a_Node000003"><a xlink:href="classECS.html#a41b876f3725cbb04aac3f2edd95522c6" target="_top" xlink:title="Creates a new entity.">
<polygon fill="white" stroke="#666666" points="260,-177.22 159,-177.22 159,-158.22 260,-158.22 260,-177.22"/>
<text text-anchor="middle" x="209.5" y="-165.22" font-family="Helvetica,sans-Serif" font-size="10.00">ECS::createEntity</text>
</a>
</g>
</g>
<!-- Node1&#45;&gt;Node3 -->
<g id="edge2_Node000001_Node000003" class="edge">
<title>Node1&#45;&gt;Node3</title>
<g id="a_edge2_Node000001_Node000003"><a xlink:title=" ">
<path fill="none" stroke="#63b8ff" d="M79.47,-122.26C97.88,-130.09 124.92,-141.23 149,-149.72 154.22,-151.56 159.73,-153.38 165.21,-155.12"/>
<polygon fill="#63b8ff" stroke="#63b8ff" points="164.38,-158.53 174.97,-158.16 166.46,-151.85 164.38,-158.53"/>
</a>
</g>
</g>
<!-- Node4 -->
<g id="Node000004" class="node">
<title>Node4</title>
<g id="a_Node000004"><a xlink:href="classECS.html#aaae60c88af59dd7af9d86200eb522bbc" target="_top" xlink:title="Retrieves a mutable pointer to a component.">
<polygon fill="white" stroke="#666666" points="602.5,-123.22 489.5,-123.22 489.5,-104.22 602.5,-104.22 602.5,-123.22"/>
<text text-anchor="middle" x="546" y="-111.22" font-family="Helvetica,sans-Serif" font-size="10.00">ECS::getComponent</text>
</a>
</g>
</g>
<!-- Node1&#45;&gt;Node4 -->
<g id="edge3_Node000001_Node000004" class="edge">
<title>Node1&#45;&gt;Node4</title>
<g id="a_edge3_Node000001_Node000004"><a xlink:title=" ">
<path fill="none" stroke="#63b8ff" d="M70.82,-103.21C88.09,-91.27 119.5,-70.89 149,-58.72 263.99,-11.28 308.6,22.39 426,-18.72 470,-34.13 509.85,-73.39 530.39,-96.33"/>
<polygon fill="#63b8ff" stroke="#63b8ff" points="527.84,-98.73 537.05,-103.96 533.11,-94.13 527.84,-98.73"/>
</a>
</g>
</g>
<!-- Node7 -->
<g id="Node000007" class="node">
<title>Node7</title>
<g id="a_Node000007"><a xlink:href="classECS.html#a77bab58f7b7d5e53443078f60957b2d2" target="_top" xlink:title="Destroys an entity.">
<polygon fill="white" stroke="#666666" points="408.5,-47.22 323.5,-47.22 323.5,-28.22 408.5,-28.22 408.5,-47.22"/>
<text text-anchor="middle" x="366" y="-35.22" font-family="Helvetica,sans-Serif" font-size="10.00">ECS::killEntity</text>
</a>
</g>
</g>
<!-- Node1&#45;&gt;Node7 -->
<g id="edge6_Node000001_Node000007" class="edge">
<title>Node1&#45;&gt;Node7</title>
<g id="a_edge6_Node000001_Node000007"><a xlink:title=" ">
<path fill="none" stroke="#63b8ff" d="M96.76,-103.14C152.74,-89.49 255.44,-64.44 316.23,-49.62"/>
<polygon fill="#63b8ff" stroke="#63b8ff" points="317.09,-53.01 325.98,-47.24 315.43,-46.21 317.09,-53.01"/>
</a>
</g>
</g>
<!-- Node8 -->
<g id="Node000008" class="node">
<title>Node8</title>
<g id="a_Node000008"><a xlink:href="classClient.html#a6e7a5e19c40bef39ae1c0f5996b8c471" target="_top" xlink:title=" ">
<polygon fill="white" stroke="#666666" points="252,-122.22 167,-122.22 167,-103.22 252,-103.22 252,-122.22"/>
<text text-anchor="middle" x="209.5" y="-110.22" font-family="Helvetica,sans-Serif" font-size="10.00">Client::update</text>
</a>
</g>
</g>
<!-- Node1&#45;&gt;Node8 -->
<g id="edge7_Node000001_Node000008" class="edge">
<title>Node1&#45;&gt;Node8</title>
<g id="a_edge7_Node000001_Node000008"><a xlink:title=" ">
<path fill="none" stroke="#63b8ff" d="M113.3,-106.18C127.36,-105.87 142.4,-105.9 156.27,-106.26"/>
<polygon fill="#63b8ff" stroke="#63b8ff" points="156.51,-109.77 166.62,-106.6 156.74,-102.78 156.51,-109.77"/>
</a>
</g>
</g>
<!-- Node5 -->
<g id="Node000005" class="node">
<title>Node5</title>
<g id="a_Node000005"><a xlink:href="classStorageComponent.html#a4e0239d1d216347282d49c0bcdf0079d" target="_top" xlink:title="Retrieves a read&#45;only pointer to the component for the entity.">
<polygon fill="white" stroke="#666666" points="798,-141.22 666,-141.22 666,-122.22 798,-122.22 798,-141.22"/>
<text text-anchor="middle" x="732" y="-129.22" font-family="Helvetica,sans-Serif" font-size="10.00">StorageComponent::get</text>
</a>
</g>
</g>
<!-- Node4&#45;&gt;Node5 -->
<g id="edge4_Node000004_Node000005" class="edge">
<title>Node4&#45;&gt;Node5</title>
<g id="a_edge4_Node000004_Node000005"><a xlink:title=" ">
<path fill="none" stroke="#63b8ff" d="M602.71,-119.17C619.33,-120.8 637.83,-122.61 655.5,-124.33"/>
<polygon fill="#63b8ff" stroke="#63b8ff" points="655.49,-127.85 665.78,-125.34 656.17,-120.88 655.49,-127.85"/>
</a>
</g>
</g>
<!-- Node6 -->
<g id="Node000006" class="node">
<title>Node6</title>
<g id="a_Node000006"><a xlink:href="classStorageComponent.html#a6de145a1ea5570363f566ab9fce66578" target="_top" xlink:title="Checks if the entity has this component type.">
<polygon fill="white" stroke="#666666" points="968,-160.22 834,-160.22 834,-141.22 968,-141.22 968,-160.22"/>
<text text-anchor="middle" x="901" y="-148.22" font-family="Helvetica,sans-Serif" font-size="10.00">StorageComponent::has</text>
</a>
</g>
</g>
<!-- Node5&#45;&gt;Node6 -->
<g id="edge5_Node000005_Node000006" class="edge">
<title>Node5&#45;&gt;Node6</title>
<g id="a_edge5_Node000005_Node000006"><a xlink:title=" ">
<path fill="none" stroke="#63b8ff" d="M798.04,-139.12C806.47,-140.08 815.16,-141.07 823.75,-142.04"/>
<polygon fill="#63b8ff" stroke="#63b8ff" points="823.43,-145.53 833.76,-143.18 824.22,-138.57 823.43,-145.53"/>
</a>
</g>
</g>
<!-- Node8&#45;&gt;Node1 -->
<g id="edge8_Node000008_Node000001" class="edge">
<title>Node8&#45;&gt;Node1</title>
<g id="a_edge8_Node000008_Node000001"><a xlink:title=" ">
<path fill="none" stroke="#63b8ff" d="M166.62,-118.84C153.22,-119.38 138.04,-119.57 123.36,-119.42"/>
<polygon fill="#63b8ff" stroke="#63b8ff" points="123.35,-115.92 113.3,-119.26 123.24,-122.92 123.35,-115.92"/>
</a>
</g>
</g>
<!-- Node8&#45;&gt;Node4 -->
<g id="edge9_Node000008_Node000004" class="edge">
<title>Node8&#45;&gt;Node4</title>
<g id="a_edge9_Node000008_Node000004"><a xlink:title=" ">
<path fill="none" stroke="#63b8ff" d="M252.19,-112.84C309.16,-113.01 411.94,-113.32 479.32,-113.52"/>
<polygon fill="#63b8ff" stroke="#63b8ff" points="479.39,-117.02 489.4,-113.55 479.41,-110.02 479.39,-117.02"/>
</a>
</g>
</g>
<!-- Node8&#45;&gt;Node7 -->
<g id="edge13_Node000008_Node000007" class="edge">
<title>Node8&#45;&gt;Node7</title>
<g id="a_edge13_Node000008_Node000007"><a xlink:title=" ">
<path fill="none" stroke="#63b8ff" d="M224.16,-103.11C242.2,-90.77 275.28,-69.33 306,-55.72 310.13,-53.89 314.51,-52.17 318.93,-50.58"/>
<polygon fill="#63b8ff" stroke="#63b8ff" points="320.26,-53.83 328.61,-47.31 318.02,-47.19 320.26,-53.83"/>
</a>
</g>
</g>
<!-- Node8&#45;&gt;Node8 -->
<g id="edge15_Node000008_Node000008" class="edge">
<title>Node8&#45;&gt;Node8</title>
<g id="a_edge15_Node000008_Node000008"><a xlink:title=" ">
<path fill="none" stroke="#63b8ff" d="M186.07,-122.3C174.68,-130.95 182.48,-140.22 209.5,-140.22 227.23,-140.22 236.69,-136.23 237.87,-131.04"/>
<polygon fill="#63b8ff" stroke="#63b8ff" points="240.9,-129.28 232.93,-122.3 234.81,-132.73 240.9,-129.28"/>
</a>
</g>
</g>
<!-- Node9 -->
<g id="Node000009" class="node">
<title>Node9</title>
<g id="a_Node000009"><a xlink:href="classECS.html#a8d931ce389d47888768e1a5092bde26b" target="_top" xlink:title="Retrieves entities that have all specified components.">
<polygon fill="white" stroke="#666666" points="630,-160.22 462,-160.22 462,-141.22 630,-141.22 630,-160.22"/>
<text text-anchor="middle" x="546" y="-148.22" font-family="Helvetica,sans-Serif" font-size="10.00">ECS::getEntitiesByComponents</text>
</a>
</g>
</g>
<!-- Node8&#45;&gt;Node9 -->
<g id="edge10_Node000008_Node000009" class="edge">
<title>Node8&#45;&gt;Node9</title>
<g id="a_edge10_Node000008_Node000009"><a xlink:title=" ">
<path fill="none" stroke="#63b8ff" d="M226.21,-122.39C252.17,-138.34 301.63,-168.51 306,-169.72 357.41,-183.9 372.83,-173.94 426,-169.72 445.8,-168.15 467.28,-165.13 486.47,-161.95"/>
<polygon fill="#63b8ff" stroke="#63b8ff" points="487.3,-165.36 496.57,-160.23 486.13,-158.46 487.3,-165.36"/>
</a>
</g>
</g>
<!-- Node10 -->
<g id="Node000010" class="node">
<title>Node10</title>
<g id="a_Node000010"><a xlink:href="classECS.html#a33c16853296e9784dfb558f35dffbd72" target="_top" xlink:title="Checks if an entity has a specific component.">
<polygon fill="white" stroke="#666666" points="603.5,-197.22 488.5,-197.22 488.5,-178.22 603.5,-178.22 603.5,-197.22"/>
<text text-anchor="middle" x="546" y="-185.22" font-family="Helvetica,sans-Serif" font-size="10.00">ECS::hasComponent</text>
</a>
</g>
</g>
<!-- Node8&#45;&gt;Node10 -->
<g id="edge11_Node000008_Node000010" class="edge">
<title>Node8&#45;&gt;Node10</title>
<g id="a_edge11_Node000008_Node000010"><a xlink:title=" ">
<path fill="none" stroke="#63b8ff" d="M228.44,-122.35C240.65,-129.26 256.92,-139.19 270,-149.72 287.87,-164.11 284.88,-177.75 306,-186.72 365.67,-212.06 441.52,-206.84 491.59,-198.93"/>
<polygon fill="#63b8ff" stroke="#63b8ff" points="492.27,-202.36 501.55,-197.26 491.11,-195.46 492.27,-202.36"/>
</a>
</g>
</g>
<!-- Node11 -->
<g id="Node000011" class="node">
<title>Node11</title>
<g id="a_Node000011"><a xlink:href="classSafeQueue.html#ab2f40bad1a39f332c1a8c7b4e858b190" target="_top" xlink:title=" ">
<polygon fill="white" stroke="#666666" points="419.5,-84.22 312.5,-84.22 312.5,-65.22 419.5,-65.22 419.5,-84.22"/>
<text text-anchor="middle" x="366" y="-72.22" font-family="Helvetica,sans-Serif" font-size="10.00">SafeQueue::tryPop</text>
</a>
</g>
</g>
<!-- Node8&#45;&gt;Node11 -->
<g id="edge14_Node000008_Node000011" class="edge">
<title>Node8&#45;&gt;Node11</title>
<g id="a_edge14_Node000008_Node000011"><a xlink:title=" ">
<path fill="none" stroke="#63b8ff" d="M249.49,-103.13C269.78,-98.14 294.79,-91.99 316.35,-86.69"/>
<polygon fill="#63b8ff" stroke="#63b8ff" points="317.42,-90.03 326.29,-84.24 315.75,-83.23 317.42,-90.03"/>
</a>
</g>
</g>
<!-- Node12 -->
<g id="Node000012" class="node">
<title>Node12</title>
<g id="a_Node000012"><a xlink:href="classMoveSystem.html#ab6cbe4ec1efbe1f89ca22c7796d488cf" target="_top" xlink:title="Pure virtual function to update the system.">
<polygon fill="white" stroke="#666666" points="426,-160.22 306,-160.22 306,-141.22 426,-141.22 426,-160.22"/>
<text text-anchor="middle" x="366" y="-148.22" font-family="Helvetica,sans-Serif" font-size="10.00">MoveSystem::update</text>
</a>
</g>
</g>
<!-- Node8&#45;&gt;Node12 -->
<g id="edge16_Node000008_Node000012" class="edge">
<title>Node8&#45;&gt;Node12</title>
<g id="a_edge16_Node000008_Node000012"><a xlink:title=" ">
<path fill="none" stroke="#63b8ff" d="M249.49,-122.31C269.78,-127.3 294.79,-133.45 316.35,-138.75"/>
<polygon fill="#63b8ff" stroke="#63b8ff" points="315.75,-142.21 326.29,-141.2 317.42,-135.41 315.75,-142.21"/>
</a>
</g>
</g>
<!-- Node13 -->
<g id="Node000013" class="node">
<title>Node13</title>
<g id="a_Node000013"><a xlink:href="classTimer.html#a5dfc60401871aa32cfe0ca0a775f31fa" target="_top" xlink:title=" ">
<polygon fill="white" stroke="#666666" points="422,-274.22 310,-274.22 310,-255.22 422,-255.22 422,-274.22"/>
<text text-anchor="middle" x="366" y="-262.22" font-family="Helvetica,sans-Serif" font-size="10.00">Timer::updateClock</text>
</a>
</g>
</g>
<!-- Node8&#45;&gt;Node13 -->
<g id="edge20_Node000008_Node000013" class="edge">
<title>Node8&#45;&gt;Node13</title>
<g id="a_edge20_Node000008_Node000013"><a xlink:title=" ">
<path fill="none" stroke="#63b8ff" d="M232.77,-122.25C245.15,-128.52 260.02,-137.77 270,-149.72 297.87,-183.11 275.39,-209.82 306,-240.72 309.89,-244.65 314.51,-247.96 319.43,-250.74"/>
<polygon fill="#63b8ff" stroke="#63b8ff" points="317.99,-253.93 328.51,-255.2 321.08,-247.65 317.99,-253.93"/>
</a>
</g>
</g>
<!-- Node10&#45;&gt;Node6 -->
<g id="edge12_Node000010_Node000006" class="edge">
<title>Node10&#45;&gt;Node6</title>
<g id="a_edge12_Node000010_Node000006"><a xlink:title=" ">
<path fill="none" stroke="#63b8ff" d="M603.72,-181.77C663.41,-175.52 757.71,-165.63 823.85,-158.7"/>
<polygon fill="#63b8ff" stroke="#63b8ff" points="824.22,-162.18 833.8,-157.66 823.49,-155.22 824.22,-162.18"/>
</a>
</g>
</g>
<!-- Node12&#45;&gt;Node4 -->
<g id="edge17_Node000012_Node000004" class="edge">
<title>Node12&#45;&gt;Node4</title>
<g id="a_edge17_Node000012_Node000004"><a xlink:title=" ">
<path fill="none" stroke="#63b8ff" d="M412.84,-141.19C436.11,-136.35 464.57,-130.44 489.11,-125.34"/>
<polygon fill="#63b8ff" stroke="#63b8ff" points="489.93,-128.74 499.01,-123.28 488.5,-121.89 489.93,-128.74"/>
</a>
</g>
</g>
<!-- Node12&#45;&gt;Node9 -->
<g id="edge18_Node000012_Node000009" class="edge">
<title>Node12&#45;&gt;Node9</title>
<g id="a_edge18_Node000012_Node000009"><a xlink:title=" ">
<path fill="none" stroke="#63b8ff" d="M426.27,-150.72C434.49,-150.72 443.08,-150.72 451.73,-150.72"/>
<polygon fill="#63b8ff" stroke="#63b8ff" points="451.89,-154.22 461.89,-150.72 451.89,-147.22 451.89,-154.22"/>
</a>
</g>
</g>
<!-- Node12&#45;&gt;Node10 -->
<g id="edge19_Node000012_Node000010" class="edge">
<title>Node12&#45;&gt;Node10</title>
<g id="a_edge19_Node000012_Node000010"><a xlink:title=" ">
<path fill="none" stroke="#63b8ff" d="M412.84,-160.25C436.11,-165.08 464.57,-171 489.11,-176.1"/>
<polygon fill="#63b8ff" stroke="#63b8ff" points="488.5,-179.55 499.01,-178.16 489.93,-172.7 488.5,-179.55"/>
</a>
</g>
</g>
</g>
</svg>

<g id="navigator" transform="translate(0 0)" fill="#404254">
  <rect fill="#f2f5e9" fill-opacity="0.5" stroke="#606060" stroke-width=".5" x="0" y="0" width="60" height="60"/>
  <use id="zoomplus" xlink:href="#zoomPlus" x="17" y="9" onmousedown="handleZoom(evt,'in')"/>
  <use id="zoomminus" xlink:href="#zoomMin" x="42" y="9" onmousedown="handleZoom(evt,'out')"/>
  <use id="reset" xlink:href="#resetDef" x="30" y="36" onmousedown="handleReset()"/>
   <use id="arrowup" xlink:href="#arrowUp" x="0" y="0" onmousedown="handlePan(0,-1)"/>
  <use id="arrowright" xlink:href="#arrowRight" x="0" y="0" onmousedown="handlePan(1,0)"/>
  <use id="arrowdown" xlink:href="#arrowDown" x="0" y="0" onmousedown="handlePan(0,1)"/>
  <use id="arrowleft" xlink:href="#arrowLeft" x="0" y="0" onmousedown="handlePan(-1,0)"/>
</g>
<svg viewBox="0 0 15 15" width="100%" height="30px" preserveAspectRatio="xMaxYMin meet">
 <g id="arrow_out" transform="scale(0.3 0.3)">
  <a xlink:href="classClient_ad361032d607e05a51b215e1300029bbc_cgraph_org.svg" target="_base">
   <rect id="button" ry="5" rx="5" y="6" x="6" height="38" width="38"
        fill="#f2f5e9" fill-opacity="0.5" stroke="#606060" stroke-width="1.0"/>
   <path id="arrow"
     d="M 11.500037,31.436501 C 11.940474,20.09759 22.043105,11.32322 32.158766,21.979434 L 37.068811,17.246167 C 37.068811,17.246167 37.088388,32 37.088388,32 L 22.160133,31.978069 C 22.160133,31.978069 26.997745,27.140456 26.997745,27.140456 C 18.528582,18.264221 13.291696,25.230495 11.500037,31.436501 z"
     style="fill:#404040;"/>
  </a>
 </g>
</svg>

<style type='text/css'>
<![CDATA[
[data-mouse-over-selected='false'] { opacity: 0.7; }
[data-mouse-over-selected='true']  { opacity: 1.0; }
]]>
</style>
<script type="application/ecmascript"><![CDATA[
document.addEventListener('DOMContentLoaded', (event) => {
  highlightEdges();
  highlightAdjacentNodes();
});
]]></script>
</svg>
