<?xml version="1.0" encoding="UTF-8" standalone="no"?>
<!DOCTYPE svg PUBLIC "-//W3C//DTD SVG 1.1//EN"
 "http://www.w3.org/Graphics/SVG/1.1/DTD/svg11.dtd">
<!-- Generated by graphviz version 2.43.0 (0)
 -->
<!-- Title: ECS::addComponent Pages: 1 -->
<svg width="456pt" height="82pt"
 viewBox="0.00 0.00 456.00 82.00" xmlns="http://www.w3.org/2000/svg" xmlns:xlink="http://www.w3.org/1999/xlink">
<g id="graph0" class="graph" transform="scale(1 1) rotate(0) translate(4 78)">
<title>ECS::addComponent</title>
<!-- Node1 -->
<g id="Node000001" class="node">
<title>Node1</title>
<g id="a_Node000001"><a xlink:title="Adds a component to an entity.">
<polygon fill="#999999" stroke="#666666" points="116,-46 0,-46 0,-27 116,-27 116,-46"/>
<text text-anchor="middle" x="58" y="-34" font-family="Helvetica,sans-Serif" font-size="10.00">ECS::addComponent</text>
</a>
</g>
</g>
<!-- Node2 -->
<g id="Node000002" class="node">
<title>Node2</title>
<g id="a_Node000002"><a xlink:href="classStorageComponent.html#aafb0684b10615747aab071b895d97d47" target="_top" xlink:title="Adds a component to the specified entity.">
<polygon fill="white" stroke="#666666" points="286,-74 152,-74 152,-55 286,-55 286,-74"/>
<text text-anchor="middle" x="219" y="-62" font-family="Helvetica,sans-Serif" font-size="10.00">StorageComponent::add</text>
</a>
</g>
</g>
<!-- Node1&#45;&gt;Node2 -->
<g id="edge1_Node000001_Node000002" class="edge">
<title>Node1&#45;&gt;Node2</title>
<g id="a_edge1_Node000001_Node000002"><a xlink:title=" ">
<path fill="none" stroke="#63b8ff" d="M113.27,-46.06C126.32,-48.36 140.38,-50.83 153.83,-53.2"/>
<polygon fill="#63b8ff" stroke="#63b8ff" points="153.52,-56.7 163.97,-54.99 154.73,-49.8 153.52,-56.7"/>
</a>
</g>
</g>
<!-- Node3 -->
<g id="Node000003" class="node">
<title>Node3</title>
<g id="a_Node000003"><a xlink:href="server_2ecs_8hpp.html#a5a868f82168f3b251aa7ca758686125c" target="_top" xlink:title=" ">
<polygon fill="white" stroke="#666666" points="268.5,-19 169.5,-19 169.5,0 268.5,0 268.5,-19"/>
<text text-anchor="middle" x="219" y="-7" font-family="Helvetica,sans-Serif" font-size="10.00">getComponentID</text>
</a>
</g>
</g>
<!-- Node1&#45;&gt;Node3 -->
<g id="edge2_Node000001_Node000003" class="edge">
<title>Node1&#45;&gt;Node3</title>
<g id="a_edge2_Node000001_Node000003"><a xlink:title=" ">
<path fill="none" stroke="#63b8ff" d="M115.06,-26.98C129.3,-24.56 144.65,-21.96 159.04,-19.51"/>
<polygon fill="#63b8ff" stroke="#63b8ff" points="160.04,-22.89 169.31,-17.77 158.87,-15.99 160.04,-22.89"/>
</a>
</g>
</g>
<!-- Node3&#45;&gt;Node3 -->
<g id="edge3_Node000003_Node000003" class="edge">
<title>Node3&#45;&gt;Node3</title>
<g id="a_edge3_Node000003_Node000003"><a xlink:title=" ">
<path fill="none" stroke="#63b8ff" d="M194.34,-19.08C182.34,-27.73 190.56,-37 219,-37 237.66,-37 247.62,-33.01 248.87,-27.82"/>
<polygon fill="#63b8ff" stroke="#63b8ff" points="251.79,-25.88 243.66,-19.08 245.77,-29.47 251.79,-25.88"/>
</a>
</g>
</g>
<!-- Node4 -->
<g id="Node000004" class="node">
<title>Node4</title>
<g id="a_Node000004"><a xlink:href="engine_2ecs_2ecs_8hpp.html#afdb02fc115de82c93e814ac1d3a64c06" target="_top" xlink:title="Generates a new unique ComponentTypeID.">
<polygon fill="white" stroke="#666666" points="448,-19 322,-19 322,0 448,0 448,-19"/>
<text text-anchor="middle" x="385" y="-7" font-family="Helvetica,sans-Serif" font-size="10.00">newComponentTypeID</text>
</a>
</g>
</g>
<!-- Node3&#45;&gt;Node4 -->
<g id="edge4_Node000003_Node000004" class="edge">
<title>Node3&#45;&gt;Node4</title>
<g id="a_edge4_Node000003_Node000004"><a xlink:title=" ">
<path fill="none" stroke="#63b8ff" d="M268.76,-9.5C282.13,-9.5 296.93,-9.5 311.33,-9.5"/>
<polygon fill="#63b8ff" stroke="#63b8ff" points="311.72,-13 321.72,-9.5 311.72,-6 311.72,-13"/>
</a>
</g>
</g>
</g>
</svg>
