<?xml version="1.0" encoding="UTF-8" standalone="no"?>
<!DOCTYPE svg PUBLIC "-//W3C//DTD SVG 1.1//EN"
 "http://www.w3.org/Graphics/SVG/1.1/DTD/svg11.dtd">
<!-- Generated by graphviz version 2.43.0 (0)
 -->
<!-- Title: MovementSystem Pages: 1 -->
<svg width="141pt" height="298pt"
 viewBox="0.00 0.00 141.00 298.00" xmlns="http://www.w3.org/2000/svg" xmlns:xlink="http://www.w3.org/1999/xlink">

<svg id="main" version="1.1" xmlns="http://www.w3.org/2000/svg" xmlns:xlink="http://www.w3.org/1999/xlink" xml:space="preserve" onload="init(evt)">
<style type="text/css"><![CDATA[
.node, .edge {opacity: 0.7;}
.node.selected, .edge.selected {opacity: 1;}
.edge:hover path { stroke: red; }
.edge:hover polygon { stroke: red; fill: red; }
]]></style>
<script type="application/ecmascript" xlink:href="svg.min.js"/>
<svg id="graph" class="graph">
<g id="graph0" class="graph" transform="scale(1 1) rotate(0) translate(4 294)">
<title>MovementSystem</title>
<!-- Node1 -->
<g id="Node000001" class="node">
<title>Node1</title>
<g id="a_Node000001"><a xlink:title=" ">
<polygon fill="#999999" stroke="transparent" points="133,-86 0,-86 0,0 133,0 133,-86"/>
<text text-anchor="start" x="22" y="-74" font-family="Helvetica,sans-Serif" font-size="10.00">MovementSystem</text>
<text text-anchor="start" x="65" y="-59" font-family="Helvetica,sans-Serif" font-size="10.00"> </text>
<text text-anchor="start" x="4.5" y="-44" font-family="Helvetica,sans-Serif" font-size="10.00">+</text>
<text text-anchor="start" x="17.5" y="-44" font-family="Helvetica,sans-Serif" font-size="10.00">MovementSystem(ECS</text>
<text text-anchor="start" x="17.5" y="-33" font-family="Helvetica,sans-Serif" font-size="10.00"> &amp;ecs)</text>
<text text-anchor="start" x="4.5" y="-18" font-family="Helvetica,sans-Serif" font-size="10.00">+</text>
<text text-anchor="start" x="17.5" y="-18" font-family="Helvetica,sans-Serif" font-size="10.00">void update(double</text>
<text text-anchor="start" x="17.5" y="-7" font-family="Helvetica,sans-Serif" font-size="10.00"> dt) override</text>
<polygon fill="#666666" stroke="#666666" points="0.5,-69 0.5,-69 133.5,-69 133.5,-69 0.5,-69"/>
<polygon fill="#666666" stroke="#666666" points="0.5,-54 0.5,-54 133.5,-54 133.5,-54 0.5,-54"/>
<polygon fill="none" stroke="#666666" points="0,0 0,-86 133,-86 133,0 0,0"/>
</a>
</g>
</g>
<!-- Node2 -->
<g id="Node000002" class="node">
<title>Node2</title>
<g id="a_Node000002"><a xlink:href="classISystem.html" target="_top" xlink:title="Interface for systems in the ECS.">
<polygon fill="white" stroke="transparent" points="124,-290 9,-290 9,-122 124,-122 124,-290"/>
<text text-anchor="start" x="47" y="-278" font-family="Helvetica,sans-Serif" font-size="10.00">ISystem</text>
<text text-anchor="start" x="13.5" y="-263" font-family="Helvetica,sans-Serif" font-size="10.00">#</text>
<text text-anchor="start" x="26.5" y="-263" font-family="Helvetica,sans-Serif" font-size="10.00">ECS &amp; _ecs</text>
<text text-anchor="start" x="13.5" y="-248" font-family="Helvetica,sans-Serif" font-size="10.00">+</text>
<text text-anchor="start" x="26.5" y="-248" font-family="Helvetica,sans-Serif" font-size="10.00">ISystem(ECS &amp;ecs)</text>
<text text-anchor="start" x="13.5" y="-233" font-family="Helvetica,sans-Serif" font-size="10.00">+</text>
<text text-anchor="start" x="26.5" y="-233" font-family="Helvetica,sans-Serif" font-size="10.00">virtual ~ISystem()</text>
<text text-anchor="start" x="26.5" y="-222" font-family="Helvetica,sans-Serif" font-size="10.00">=default</text>
<text text-anchor="start" x="13.5" y="-207" font-family="Helvetica,sans-Serif" font-size="10.00">+</text>
<text text-anchor="start" x="26.5" y="-207" font-family="Helvetica,sans-Serif" font-size="10.00">virtual void update</text>
<text text-anchor="start" x="26.5" y="-196" font-family="Helvetica,sans-Serif" font-size="10.00">(double dt)=0</text>
<text text-anchor="start" x="13.5" y="-181" font-family="Helvetica,sans-Serif" font-size="10.00">+</text>
<text text-anchor="start" x="26.5" y="-181" font-family="Helvetica,sans-Serif" font-size="10.00">ISystem(ECS &amp;ecs)</text>
<text text-anchor="start" x="13.5" y="-166" font-family="Helvetica,sans-Serif" font-size="10.00">+</text>
<text text-anchor="start" x="26.5" y="-166" font-family="Helvetica,sans-Serif" font-size="10.00">virtual ~ISystem()</text>
<text text-anchor="start" x="26.5" y="-155" font-family="Helvetica,sans-Serif" font-size="10.00">=default</text>
<text text-anchor="start" x="13.5" y="-140" font-family="Helvetica,sans-Serif" font-size="10.00">+</text>
<text text-anchor="start" x="26.5" y="-140" font-family="Helvetica,sans-Serif" font-size="10.00">virtual void update</text>
<text text-anchor="start" x="26.5" y="-129" font-family="Helvetica,sans-Serif" font-size="10.00">(double dt)=0</text>
<polygon fill="#666666" stroke="#666666" points="9.5,-273 9.5,-273 124.5,-273 124.5,-273 9.5,-273"/>
<polygon fill="#666666" stroke="#666666" points="9.5,-258 9.5,-258 24.5,-258 24.5,-258 9.5,-258"/>
<polygon fill="#666666" stroke="#666666" points="24.5,-258 24.5,-258 124.5,-258 124.5,-258 24.5,-258"/>
<polygon fill="none" stroke="#666666" points="9,-122 9,-290 124,-290 124,-122 9,-122"/>
</a>
</g>
</g>
<!-- Node2&#45;&gt;Node1 -->
<g id="edge1_Node000001_Node000002" class="edge">
<title>Node2&#45;&gt;Node1</title>
<g id="a_edge1_Node000001_Node000002"><a xlink:title=" ">
<path fill="none" stroke="#63b8ff" d="M66.5,-111.64C66.5,-102.82 66.5,-94.21 66.5,-86.25"/>
<polygon fill="none" stroke="#63b8ff" points="63,-111.67 66.5,-121.67 70,-111.67 63,-111.67"/>
</a>
</g>
</g>
</g>
</svg>
</svg>

<style type='text/css'>
<![CDATA[
[data-mouse-over-selected='false'] { opacity: 0.7; }
[data-mouse-over-selected='true']  { opacity: 1.0; }
]]>
</style>
<script type="application/ecmascript"><![CDATA[
document.addEventListener('DOMContentLoaded', (event) => {
  highlightEdges();
  highlightAdjacentNodes();
});
]]></script>
</svg>
