<?xml version="1.0" encoding="UTF-8" standalone="no"?>
<!DOCTYPE svg PUBLIC "-//W3C//DTD SVG 1.1//EN"
 "http://www.w3.org/Graphics/SVG/1.1/DTD/svg11.dtd">
<!-- Generated by graphviz version 2.43.0 (0)
 -->
<!-- Title: Client::update Pages: 1 -->
<!--zoomable 251 -->

<svg id="main" version="1.1" xmlns="http://www.w3.org/2000/svg" xmlns:xlink="http://www.w3.org/1999/xlink" xml:space="preserve" onload="init(evt)">
<style type="text/css"><![CDATA[
.node, .edge {opacity: 0.7;}
.node.selected, .edge.selected {opacity: 1;}
.edge:hover path { stroke: red; }
.edge:hover polygon { stroke: red; fill: red; }
]]></style>

<defs>
  <circle id="rim" cx="0" cy="0" r="7"/>
  <circle id="rim2" cx="0" cy="0" r="3.5"/>
  <g id="zoomPlus">
    <use xlink:href="#rim" fill="#404040"><set attributeName="fill" to="#808080" begin="zoomplus.mouseover" end="zoomplus.mouseout"/></use>
    <path d="M-4,0h8M0,-4v8" fill="none" stroke="white" stroke-width="1.5" pointer-events="none"/>
  </g>
  <g id="zoomMin">
    <use xlink:href="#rim" fill="#404040"><set attributeName="fill" to="#808080" begin="zoomminus.mouseover" end="zoomminus.mouseout"/></use>
    <path d="M-4,0h8" fill="none" stroke="white" stroke-width="1.5" pointer-events="none"/>
  </g>
  <g id="arrowUp" transform="translate(30 24)">
    <use xlink:href="#rim"/>
    <path pointer-events="none" fill="none" stroke="white" stroke-width="1.5" d="M0,-3.0v7 M-2.5,-0.5L0,-3.0L2.5,-0.5"/>
  </g>
  <g id="arrowRight" transform="rotate(90) translate(36 -43)">
    <use xlink:href="#rim"/>
    <path pointer-events="none" fill="none" stroke="white" stroke-width="1.5" d="M0,-3.0v7 M-2.5,-0.5L0,-3.0L2.5,-0.5"/>
  </g>
  <g id="arrowDown" transform="rotate(180) translate(-30 -48)">
    <use xlink:href="#rim"/>
    <path pointer-events="none" fill="none" stroke="white" stroke-width="1.5" d="M0,-3.0v7 M-2.5,-0.5L0,-3.0L2.5,-0.5"/>
  </g>
  <g id="arrowLeft" transform="rotate(270) translate(-36 17)">
    <use xlink:href="#rim"/>
    <path pointer-events="none" fill="none" stroke="white" stroke-width="1.5" d="M0,-3.0v7 M-2.5,-0.5L0,-3.0L2.5,-0.5"/>
  </g>
  <g id="resetDef">
    <use xlink:href="#rim2" fill="#404040"><set attributeName="fill" to="#808080" begin="reset.mouseover" end="reset.mouseout"/></use>
  </g>
</defs>
<script type="application/ecmascript">
var viewWidth = 792;
var viewHeight = 251;
var sectionId = 'dynsection-6';
</script>
<script type="application/ecmascript" xlink:href="svg.min.js"/>
<svg id="graph" class="graph">
<g id="viewport">
<title>Client::update</title>
<!-- Node1 -->
<g id="Node000001" class="node">
<title>Node1</title>
<g id="a_Node000001"><a xlink:title=" ">
<polygon fill="#999999" stroke="#666666" points="85,-132 0,-132 0,-113 85,-113 85,-132"/>
<text text-anchor="middle" x="42.5" y="-120" font-family="Helvetica,sans-Serif" font-size="10.00">Client::update</text>
</a>
</g>
</g>
<!-- Node1&#45;&gt;Node1 -->
<g id="edge23_Node000001_Node000001" class="edge">
<title>Node1&#45;&gt;Node1</title>
<g id="a_edge23_Node000001_Node000001"><a xlink:title=" ">
<path fill="none" stroke="#63b8ff" d="M17.53,-132.08C5.38,-140.73 13.71,-150 42.5,-150 61.4,-150 71.48,-146.01 72.74,-140.82"/>
<polygon fill="#63b8ff" stroke="#63b8ff" points="75.63,-138.84 67.47,-132.08 69.64,-142.45 75.63,-138.84"/>
</a>
</g>
</g>
<!-- Node2 -->
<g id="Node000002" class="node">
<title>Node2</title>
<g id="a_Node000002"><a xlink:href="classClient.html#ad361032d607e05a51b215e1300029bbc" target="_top" xlink:title=" ">
<polygon fill="white" stroke="#666666" points="261.5,-132 148.5,-132 148.5,-113 261.5,-113 261.5,-132"/>
<text text-anchor="middle" x="205" y="-120" font-family="Helvetica,sans-Serif" font-size="10.00">Client::applyUpdate</text>
</a>
</g>
</g>
<!-- Node1&#45;&gt;Node2 -->
<g id="edge1_Node000001_Node000002" class="edge">
<title>Node1&#45;&gt;Node2</title>
<g id="a_edge1_Node000001_Node000002"><a xlink:title=" ">
<path fill="none" stroke="#63b8ff" d="M85.25,-116.49C101.32,-115.82 120.09,-115.6 137.91,-115.84"/>
<polygon fill="#63b8ff" stroke="#63b8ff" points="138.19,-119.35 148.25,-116.04 138.32,-112.35 138.19,-119.35"/>
</a>
</g>
</g>
<!-- Node7 -->
<g id="Node000007" class="node">
<title>Node7</title>
<g id="a_Node000007"><a xlink:href="classECS.html#aaae60c88af59dd7af9d86200eb522bbc" target="_top" xlink:title="Retrieves a mutable pointer to a component.">
<polygon fill="white" stroke="#666666" points="442,-93 329,-93 329,-74 442,-74 442,-93"/>
<text text-anchor="middle" x="385.5" y="-81" font-family="Helvetica,sans-Serif" font-size="10.00">ECS::getComponent</text>
</a>
</g>
</g>
<!-- Node1&#45;&gt;Node7 -->
<g id="edge13_Node000001_Node000007" class="edge">
<title>Node1&#45;&gt;Node7</title>
<g id="a_edge13_Node000001_Node000007"><a xlink:title=" ">
<path fill="none" stroke="#63b8ff" d="M77.21,-112.96C90.72,-109.47 106.5,-105.81 121,-103.5 187.93,-92.83 265.36,-87.81 318.89,-85.48"/>
<polygon fill="#63b8ff" stroke="#63b8ff" points="319.08,-88.98 328.93,-85.06 318.79,-81.98 319.08,-88.98"/>
</a>
</g>
</g>
<!-- Node10 -->
<g id="Node000010" class="node">
<title>Node10</title>
<g id="a_Node000010"><a xlink:href="classECS.html#a77bab58f7b7d5e53443078f60957b2d2" target="_top" xlink:title="Destroys an entity.">
<polygon fill="white" stroke="#666666" points="428,-56 343,-56 343,-37 428,-37 428,-56"/>
<text text-anchor="middle" x="385.5" y="-44" font-family="Helvetica,sans-Serif" font-size="10.00">ECS::killEntity</text>
</a>
</g>
</g>
<!-- Node1&#45;&gt;Node10 -->
<g id="edge19_Node000001_Node000010" class="edge">
<title>Node1&#45;&gt;Node10</title>
<g id="a_edge19_Node000001_Node000010"><a xlink:title=" ">
<path fill="none" stroke="#63b8ff" d="M58.89,-112.85C74.09,-103.79 98.28,-90.6 121,-83.5 192.45,-61.17 279.04,-52.29 332.96,-48.77"/>
<polygon fill="#63b8ff" stroke="#63b8ff" points="333.2,-52.26 342.96,-48.16 332.77,-45.28 333.2,-52.26"/>
</a>
</g>
</g>
<!-- Node11 -->
<g id="Node000011" class="node">
<title>Node11</title>
<g id="a_Node000011"><a xlink:href="classECS.html#a8d931ce389d47888768e1a5092bde26b" target="_top" xlink:title="Retrieves entities that have all specified components.">
<polygon fill="white" stroke="#666666" points="289,-169 121,-169 121,-150 289,-150 289,-169"/>
<text text-anchor="middle" x="205" y="-157" font-family="Helvetica,sans-Serif" font-size="10.00">ECS::getEntitiesByComponents</text>
</a>
</g>
</g>
<!-- Node1&#45;&gt;Node11 -->
<g id="edge14_Node000001_Node000011" class="edge">
<title>Node1&#45;&gt;Node11</title>
<g id="a_edge14_Node000001_Node000011"><a xlink:title=" ">
<path fill="none" stroke="#63b8ff" d="M84.52,-132.05C96.3,-134.79 109.16,-137.77 121,-140.5 131.15,-142.84 142,-145.33 152.4,-147.72"/>
<polygon fill="#63b8ff" stroke="#63b8ff" points="151.67,-151.14 162.2,-149.96 153.23,-144.31 151.67,-151.14"/>
</a>
</g>
</g>
<!-- Node12 -->
<g id="Node000012" class="node">
<title>Node12</title>
<g id="a_Node000012"><a xlink:href="classECS.html#a33c16853296e9784dfb558f35dffbd72" target="_top" xlink:title="Checks if an entity has a specific component.">
<polygon fill="white" stroke="#666666" points="443,-19 328,-19 328,0 443,0 443,-19"/>
<text text-anchor="middle" x="385.5" y="-7" font-family="Helvetica,sans-Serif" font-size="10.00">ECS::hasComponent</text>
</a>
</g>
</g>
<!-- Node1&#45;&gt;Node12 -->
<g id="edge16_Node000001_Node000012" class="edge">
<title>Node1&#45;&gt;Node12</title>
<g id="a_edge16_Node000001_Node000012"><a xlink:title=" ">
<path fill="none" stroke="#63b8ff" d="M50.35,-112.86C62.51,-96.57 89.58,-63.86 121,-48.5 183.09,-18.15 262.49,-9.95 317.83,-8.37"/>
<polygon fill="#63b8ff" stroke="#63b8ff" points="317.95,-11.87 327.87,-8.15 317.79,-4.87 317.95,-11.87"/>
</a>
</g>
</g>
<!-- Node13 -->
<g id="Node000013" class="node">
<title>Node13</title>
<g id="a_Node000013"><a xlink:href="classSafeQueue.html#ab2f40bad1a39f332c1a8c7b4e858b190" target="_top" xlink:title=" ">
<polygon fill="white" stroke="#666666" points="258.5,-206 151.5,-206 151.5,-187 258.5,-187 258.5,-206"/>
<text text-anchor="middle" x="205" y="-194" font-family="Helvetica,sans-Serif" font-size="10.00">SafeQueue::tryPop</text>
</a>
</g>
</g>
<!-- Node1&#45;&gt;Node13 -->
<g id="edge20_Node000001_Node000013" class="edge">
<title>Node1&#45;&gt;Node13</title>
<g id="a_edge20_Node000001_Node000013"><a xlink:title=" ">
<path fill="none" stroke="#63b8ff" d="M53.66,-132C67.69,-144.59 94.32,-166.6 121,-178.5 127.33,-181.33 134.14,-183.72 141.03,-185.75"/>
<polygon fill="#63b8ff" stroke="#63b8ff" points="140.59,-189.25 151.15,-188.46 142.4,-182.49 140.59,-189.25"/>
</a>
</g>
</g>
<!-- Node15 -->
<g id="Node000015" class="node">
<title>Node15</title>
<g id="a_Node000015"><a xlink:href="classTimer.html#a5dfc60401871aa32cfe0ca0a775f31fa" target="_top" xlink:title=" ">
<polygon fill="white" stroke="#666666" points="261,-243 149,-243 149,-224 261,-224 261,-243"/>
<text text-anchor="middle" x="205" y="-231" font-family="Helvetica,sans-Serif" font-size="10.00">Timer::updateClock</text>
</a>
</g>
</g>
<!-- Node1&#45;&gt;Node15 -->
<g id="edge24_Node000001_Node000015" class="edge">
<title>Node1&#45;&gt;Node15</title>
<g id="a_edge24_Node000001_Node000015"><a xlink:title=" ">
<path fill="none" stroke="#63b8ff" d="M48.63,-132.21C59.33,-151.42 85.95,-194.26 121,-215.5 126.54,-218.86 132.63,-221.6 138.91,-223.83"/>
<polygon fill="#63b8ff" stroke="#63b8ff" points="138.31,-227.3 148.89,-226.93 140.38,-220.62 138.31,-227.3"/>
</a>
</g>
</g>
<!-- Node2&#45;&gt;Node1 -->
<g id="edge12_Node000002_Node000001" class="edge">
<title>Node2&#45;&gt;Node1</title>
<g id="a_edge12_Node000002_Node000001"><a xlink:title=" ">
<path fill="none" stroke="#63b8ff" d="M148.25,-128.96C131.12,-129.38 112.34,-129.34 95.47,-128.86"/>
<polygon fill="#63b8ff" stroke="#63b8ff" points="95.37,-125.36 85.25,-128.51 95.12,-132.35 95.37,-125.36"/>
</a>
</g>
</g>
<!-- Node3 -->
<g id="Node000003" class="node">
<title>Node3</title>
<g id="a_Node000003"><a xlink:href="classECS.html#a729237fc4138af4f48df163dec088efb" target="_top" xlink:title=" ">
<polygon fill="white" stroke="#666666" points="446,-167 325,-167 325,-148 446,-148 446,-167"/>
<text text-anchor="middle" x="385.5" y="-155" font-family="Helvetica,sans-Serif" font-size="10.00">ECS::addComponents</text>
</a>
</g>
</g>
<!-- Node2&#45;&gt;Node3 -->
<g id="edge2_Node000002_Node000003" class="edge">
<title>Node2&#45;&gt;Node3</title>
<g id="a_edge2_Node000002_Node000003"><a xlink:title=" ">
<path fill="none" stroke="#63b8ff" d="M254.78,-132.06C276.72,-136.37 302.8,-141.48 325.8,-145.99"/>
<polygon fill="#63b8ff" stroke="#63b8ff" points="325.3,-149.46 335.78,-147.95 326.64,-142.59 325.3,-149.46"/>
</a>
</g>
</g>
<!-- Node6 -->
<g id="Node000006" class="node">
<title>Node6</title>
<g id="a_Node000006"><a xlink:href="classECS.html#a41b876f3725cbb04aac3f2edd95522c6" target="_top" xlink:title="Creates a new entity.">
<polygon fill="white" stroke="#666666" points="436,-130 335,-130 335,-111 436,-111 436,-130"/>
<text text-anchor="middle" x="385.5" y="-118" font-family="Helvetica,sans-Serif" font-size="10.00">ECS::createEntity</text>
</a>
</g>
</g>
<!-- Node2&#45;&gt;Node6 -->
<g id="edge6_Node000002_Node000006" class="edge">
<title>Node2&#45;&gt;Node6</title>
<g id="a_edge6_Node000002_Node000006"><a xlink:title=" ">
<path fill="none" stroke="#63b8ff" d="M261.5,-121.88C281.55,-121.65 304.26,-121.4 324.67,-121.17"/>
<polygon fill="#63b8ff" stroke="#63b8ff" points="324.83,-124.67 334.79,-121.06 324.75,-117.67 324.83,-124.67"/>
</a>
</g>
</g>
<!-- Node2&#45;&gt;Node7 -->
<g id="edge7_Node000002_Node000007" class="edge">
<title>Node2&#45;&gt;Node7</title>
<g id="a_edge7_Node000002_Node000007"><a xlink:title=" ">
<path fill="none" stroke="#63b8ff" d="M249.67,-112.96C274.18,-107.6 304.96,-100.88 330.92,-95.21"/>
<polygon fill="#63b8ff" stroke="#63b8ff" points="331.95,-98.56 340.98,-93.01 330.46,-91.72 331.95,-98.56"/>
</a>
</g>
</g>
<!-- Node2&#45;&gt;Node10 -->
<g id="edge11_Node000002_Node000010" class="edge">
<title>Node2&#45;&gt;Node10</title>
<g id="a_edge11_Node000002_Node000010"><a xlink:title=" ">
<path fill="none" stroke="#63b8ff" d="M223.35,-112.95C246.17,-100.65 287.77,-79.1 325,-64.5 329.78,-62.63 334.83,-60.83 339.89,-59.14"/>
<polygon fill="#63b8ff" stroke="#63b8ff" points="341.11,-62.43 349.57,-56.05 338.98,-55.76 341.11,-62.43"/>
</a>
</g>
</g>
<!-- Node4 -->
<g id="Node000004" class="node">
<title>Node4</title>
<g id="a_Node000004"><a xlink:href="server_2ecs_8hpp.html#a5a868f82168f3b251aa7ca758686125c" target="_top" xlink:title=" ">
<polygon fill="white" stroke="#666666" points="597.5,-167 498.5,-167 498.5,-148 597.5,-148 597.5,-167"/>
<text text-anchor="middle" x="548" y="-155" font-family="Helvetica,sans-Serif" font-size="10.00">getComponentID</text>
</a>
</g>
</g>
<!-- Node3&#45;&gt;Node4 -->
<g id="edge3_Node000003_Node000004" class="edge">
<title>Node3&#45;&gt;Node4</title>
<g id="a_edge3_Node000003_Node000004"><a xlink:title=" ">
<path fill="none" stroke="#63b8ff" d="M446.26,-157.5C459.97,-157.5 474.53,-157.5 488.2,-157.5"/>
<polygon fill="#63b8ff" stroke="#63b8ff" points="488.45,-161 498.45,-157.5 488.45,-154 488.45,-161"/>
</a>
</g>
</g>
<!-- Node4&#45;&gt;Node4 -->
<g id="edge4_Node000004_Node000004" class="edge">
<title>Node4&#45;&gt;Node4</title>
<g id="a_edge4_Node000004_Node000004"><a xlink:title=" ">
<path fill="none" stroke="#63b8ff" d="M523.03,-167.08C510.88,-175.73 519.21,-185 548,-185 566.9,-185 576.98,-181.01 578.24,-175.82"/>
<polygon fill="#63b8ff" stroke="#63b8ff" points="581.13,-173.84 572.97,-167.08 575.14,-177.45 581.13,-173.84"/>
</a>
</g>
</g>
<!-- Node5 -->
<g id="Node000005" class="node">
<title>Node5</title>
<g id="a_Node000005"><a xlink:href="engine_2ecs_2ecs_8hpp.html#afdb02fc115de82c93e814ac1d3a64c06" target="_top" xlink:title="Generates a new unique ComponentTypeID.">
<polygon fill="white" stroke="#666666" points="780,-200 654,-200 654,-181 780,-181 780,-200"/>
<text text-anchor="middle" x="717" y="-188" font-family="Helvetica,sans-Serif" font-size="10.00">newComponentTypeID</text>
</a>
</g>
</g>
<!-- Node4&#45;&gt;Node5 -->
<g id="edge5_Node000004_Node000005" class="edge">
<title>Node4&#45;&gt;Node5</title>
<g id="a_edge5_Node000004_Node000005"><a xlink:title=" ">
<path fill="none" stroke="#63b8ff" d="M597.3,-167.04C616.26,-170.79 638.17,-175.12 657.97,-179.03"/>
<polygon fill="#63b8ff" stroke="#63b8ff" points="657.32,-182.47 667.81,-180.98 658.67,-175.6 657.32,-182.47"/>
</a>
</g>
</g>
<!-- Node7&#45;&gt;Node4 -->
<g id="edge10_Node000007_Node000004" class="edge">
<title>Node7&#45;&gt;Node4</title>
<g id="a_edge10_Node000007_Node000004"><a xlink:title=" ">
<path fill="none" stroke="#63b8ff" d="M422.49,-93.04C430.35,-95.5 438.54,-98.35 446,-101.5 473.58,-113.16 503.35,-130.28 523.38,-142.51"/>
<polygon fill="#63b8ff" stroke="#63b8ff" points="521.76,-145.63 532.11,-147.92 525.45,-139.68 521.76,-145.63"/>
</a>
</g>
</g>
<!-- Node8 -->
<g id="Node000008" class="node">
<title>Node8</title>
<g id="a_Node000008"><a xlink:href="classStorageComponent.html#a4e0239d1d216347282d49c0bcdf0079d" target="_top" xlink:title="Retrieves a read&#45;only pointer to the component for the entity.">
<polygon fill="white" stroke="#666666" points="614,-75 482,-75 482,-56 614,-56 614,-75"/>
<text text-anchor="middle" x="548" y="-63" font-family="Helvetica,sans-Serif" font-size="10.00">StorageComponent::get</text>
</a>
</g>
</g>
<!-- Node7&#45;&gt;Node8 -->
<g id="edge8_Node000007_Node000008" class="edge">
<title>Node7&#45;&gt;Node8</title>
<g id="a_edge8_Node000007_Node000008"><a xlink:title=" ">
<path fill="none" stroke="#63b8ff" d="M442.18,-77.25C451.66,-76.19 461.64,-75.07 471.52,-73.96"/>
<polygon fill="#63b8ff" stroke="#63b8ff" points="472.22,-77.41 481.76,-72.82 471.43,-70.45 472.22,-77.41"/>
</a>
</g>
</g>
<!-- Node9 -->
<g id="Node000009" class="node">
<title>Node9</title>
<g id="a_Node000009"><a xlink:href="classStorageComponent.html#a6de145a1ea5570363f566ab9fce66578" target="_top" xlink:title="Checks if the entity has this component type.">
<polygon fill="white" stroke="#666666" points="784,-52 650,-52 650,-33 784,-33 784,-52"/>
<text text-anchor="middle" x="717" y="-40" font-family="Helvetica,sans-Serif" font-size="10.00">StorageComponent::has</text>
</a>
</g>
</g>
<!-- Node8&#45;&gt;Node9 -->
<g id="edge9_Node000008_Node000009" class="edge">
<title>Node8&#45;&gt;Node9</title>
<g id="a_edge9_Node000008_Node000009"><a xlink:title=" ">
<path fill="none" stroke="#63b8ff" d="M614.04,-56.54C622.47,-55.38 631.16,-54.18 639.75,-53"/>
<polygon fill="#63b8ff" stroke="#63b8ff" points="640.33,-56.45 649.76,-51.62 639.37,-49.52 640.33,-56.45"/>
</a>
</g>
</g>
<!-- Node11&#45;&gt;Node4 -->
<g id="edge15_Node000011_Node000004" class="edge">
<title>Node11&#45;&gt;Node4</title>
<g id="a_edge15_Node000011_Node000004"><a xlink:title=" ">
<path fill="none" stroke="#63b8ff" d="M260.92,-169.01C281.02,-172.04 303.97,-175.01 325,-176.5 378.64,-180.31 392.45,-181.49 446,-176.5 462.32,-174.98 479.94,-172.1 495.82,-169.04"/>
<polygon fill="#63b8ff" stroke="#63b8ff" points="496.85,-172.4 505.97,-167.01 495.48,-165.54 496.85,-172.4"/>
</a>
</g>
</g>
<!-- Node12&#45;&gt;Node4 -->
<g id="edge17_Node000012_Node000004" class="edge">
<title>Node12&#45;&gt;Node4</title>
<g id="a_edge17_Node000012_Node000004"><a xlink:title=" ">
<path fill="none" stroke="#63b8ff" d="M430.79,-19C436.21,-21.26 441.43,-24.05 446,-27.5 469.62,-45.33 464.19,-59.87 482,-83.5 497.46,-104.01 517.15,-125.92 530.79,-140.53"/>
<polygon fill="#63b8ff" stroke="#63b8ff" points="528.27,-142.97 537.68,-147.85 533.37,-138.17 528.27,-142.97"/>
</a>
</g>
</g>
<!-- Node12&#45;&gt;Node9 -->
<g id="edge18_Node000012_Node000009" class="edge">
<title>Node12&#45;&gt;Node9</title>
<g id="a_edge18_Node000012_Node000009"><a xlink:title=" ">
<path fill="none" stroke="#63b8ff" d="M443.14,-15.17C497.41,-20.61 579.7,-28.85 639.72,-34.86"/>
<polygon fill="#63b8ff" stroke="#63b8ff" points="639.6,-38.37 649.9,-35.88 640.3,-31.4 639.6,-38.37"/>
</a>
</g>
</g>
<!-- Node14 -->
<g id="Node000014" class="node">
<title>Node14</title>
<g id="a_Node000014"><a xlink:href="engine_2ecs_2ecs_8hpp.html#a5a868f82168f3b251aa7ca758686125c" target="_top" xlink:title="Retrieves the unique ID for a given component type.">
<polygon fill="white" stroke="#666666" points="435,-243 336,-243 336,-224 435,-224 435,-243"/>
<text text-anchor="middle" x="385.5" y="-231" font-family="Helvetica,sans-Serif" font-size="10.00">getComponentID</text>
</a>
</g>
</g>
<!-- Node13&#45;&gt;Node14 -->
<g id="edge21_Node000013_Node000014" class="edge">
<title>Node13&#45;&gt;Node14</title>
<g id="a_edge21_Node000013_Node000014"><a xlink:title=" ">
<path fill="none" stroke="#63b8ff" d="M251.97,-206.03C275.3,-210.86 303.84,-216.78 328.45,-221.88"/>
<polygon fill="#63b8ff" stroke="#63b8ff" points="327.88,-225.34 338.38,-223.94 329.3,-218.48 327.88,-225.34"/>
</a>
</g>
</g>
<!-- Node14&#45;&gt;Node5 -->
<g id="edge22_Node000014_Node000005" class="edge">
<title>Node14&#45;&gt;Node5</title>
<g id="a_edge22_Node000014_Node000005"><a xlink:title=" ">
<path fill="none" stroke="#63b8ff" d="M435.12,-227.16C490.26,-219.96 580.71,-208.16 644.03,-199.89"/>
<polygon fill="#63b8ff" stroke="#63b8ff" points="644.49,-203.36 653.95,-198.6 643.59,-196.42 644.49,-203.36"/>
</a>
</g>
</g>
<!-- Node15&#45;&gt;Node14 -->
<g id="edge25_Node000015_Node000014" class="edge">
<title>Node15&#45;&gt;Node14</title>
<g id="a_edge25_Node000015_Node000014"><a xlink:title=" ">
<path fill="none" stroke="#63b8ff" d="M261.01,-233.5C281.52,-233.5 304.88,-233.5 325.72,-233.5"/>
<polygon fill="#63b8ff" stroke="#63b8ff" points="325.72,-237 335.72,-233.5 325.72,-230 325.72,-237"/>
</a>
</g>
</g>
</g>
</svg>

<g id="navigator" transform="translate(0 0)" fill="#404254">
  <rect fill="#f2f5e9" fill-opacity="0.5" stroke="#606060" stroke-width=".5" x="0" y="0" width="60" height="60"/>
  <use id="zoomplus" xlink:href="#zoomPlus" x="17" y="9" onmousedown="handleZoom(evt,'in')"/>
  <use id="zoomminus" xlink:href="#zoomMin" x="42" y="9" onmousedown="handleZoom(evt,'out')"/>
  <use id="reset" xlink:href="#resetDef" x="30" y="36" onmousedown="handleReset()"/>
   <use id="arrowup" xlink:href="#arrowUp" x="0" y="0" onmousedown="handlePan(0,-1)"/>
  <use id="arrowright" xlink:href="#arrowRight" x="0" y="0" onmousedown="handlePan(1,0)"/>
  <use id="arrowdown" xlink:href="#arrowDown" x="0" y="0" onmousedown="handlePan(0,1)"/>
  <use id="arrowleft" xlink:href="#arrowLeft" x="0" y="0" onmousedown="handlePan(-1,0)"/>
</g>
<svg viewBox="0 0 15 15" width="100%" height="30px" preserveAspectRatio="xMaxYMin meet">
 <g id="arrow_out" transform="scale(0.3 0.3)">
  <a xlink:href="classClient_a6e7a5e19c40bef39ae1c0f5996b8c471_cgraph_org.svg" target="_base">
   <rect id="button" ry="5" rx="5" y="6" x="6" height="38" width="38"
        fill="#f2f5e9" fill-opacity="0.5" stroke="#606060" stroke-width="1.0"/>
   <path id="arrow"
     d="M 11.500037,31.436501 C 11.940474,20.09759 22.043105,11.32322 32.158766,21.979434 L 37.068811,17.246167 C 37.068811,17.246167 37.088388,32 37.088388,32 L 22.160133,31.978069 C 22.160133,31.978069 26.997745,27.140456 26.997745,27.140456 C 18.528582,18.264221 13.291696,25.230495 11.500037,31.436501 z"
     style="fill:#404040;"/>
  </a>
 </g>
</svg>

<style type='text/css'>
<![CDATA[
[data-mouse-over-selected='false'] { opacity: 0.7; }
[data-mouse-over-selected='true']  { opacity: 1.0; }
]]>
</style>
<script type="application/ecmascript"><![CDATA[
document.addEventListener('DOMContentLoaded', (event) => {
  highlightEdges();
  highlightAdjacentNodes();
});
]]></script>
</svg>
