<?xml version="1.0" encoding="UTF-8" standalone="no"?>
<!DOCTYPE svg PUBLIC "-//W3C//DTD SVG 1.1//EN"
 "http://www.w3.org/Graphics/SVG/1.1/DTD/svg11.dtd">
<!-- Generated by graphviz version 2.43.0 (0)
 -->
<!-- Title: ECS::getEntitiesByComponents Pages: 1 -->
<svg width="473pt" height="27pt"
 viewBox="0.00 0.00 473.00 27.00" xmlns="http://www.w3.org/2000/svg" xmlns:xlink="http://www.w3.org/1999/xlink">
<g id="graph0" class="graph" transform="scale(1 1) rotate(0) translate(4 23)">
<title>ECS::getEntitiesByComponents</title>
<!-- Node1 -->
<g id="Node000001" class="node">
<title>Node1</title>
<g id="a_Node000001"><a xlink:title="Retrieves entities that have all specified components.">
<polygon fill="#999999" stroke="#666666" points="168,-19 0,-19 0,0 168,0 168,-19"/>
<text text-anchor="middle" x="84" y="-7" font-family="Helvetica,sans-Serif" font-size="10.00">ECS::getEntitiesByComponents</text>
</a>
</g>
</g>
<!-- Node2 -->
<g id="Node000002" class="node">
<title>Node2</title>
<g id="a_Node000002"><a xlink:href="ecs_8hpp.html#a5a868f82168f3b251aa7ca758686125c" target="_top" xlink:title="Retrieves the unique ID for a given component type.">
<polygon fill="white" stroke="#666666" points="303,-19 204,-19 204,0 303,0 303,-19"/>
<text text-anchor="middle" x="253.5" y="-7" font-family="Helvetica,sans-Serif" font-size="10.00">getComponentID</text>
</a>
</g>
</g>
<!-- Node1&#45;&gt;Node2 -->
<g id="edge1_Node000001_Node000002" class="edge">
<title>Node1&#45;&gt;Node2</title>
<g id="a_edge1_Node000001_Node000002"><a xlink:title=" ">
<path fill="none" stroke="#63b8ff" d="M168.26,-9.5C176.8,-9.5 185.35,-9.5 193.56,-9.5"/>
<polygon fill="#63b8ff" stroke="#63b8ff" points="193.73,-13 203.73,-9.5 193.73,-6 193.73,-13"/>
</a>
</g>
</g>
<!-- Node3 -->
<g id="Node000003" class="node">
<title>Node3</title>
<g id="a_Node000003"><a xlink:href="ecs_8hpp.html#afdb02fc115de82c93e814ac1d3a64c06" target="_top" xlink:title="Generates a new unique ComponentTypeID.">
<polygon fill="white" stroke="#666666" points="465,-19 339,-19 339,0 465,0 465,-19"/>
<text text-anchor="middle" x="402" y="-7" font-family="Helvetica,sans-Serif" font-size="10.00">newComponentTypeID</text>
</a>
</g>
</g>
<!-- Node2&#45;&gt;Node3 -->
<g id="edge2_Node000002_Node000003" class="edge">
<title>Node2&#45;&gt;Node3</title>
<g id="a_edge2_Node000002_Node000003"><a xlink:title=" ">
<path fill="none" stroke="#63b8ff" d="M303.28,-9.5C311.48,-9.5 320.14,-9.5 328.78,-9.5"/>
<polygon fill="#63b8ff" stroke="#63b8ff" points="328.88,-13 338.88,-9.5 328.88,-6 328.88,-13"/>
</a>
</g>
</g>
</g>
</svg>
