<?xml version="1.0" encoding="UTF-8" standalone="no"?>
<!DOCTYPE svg PUBLIC "-//W3C//DTD SVG 1.1//EN"
 "http://www.w3.org/Graphics/SVG/1.1/DTD/svg11.dtd">
<!-- Generated by graphviz version 2.43.0 (0)
 -->
<!-- Title: ECS::getSignature Pages: 1 -->
<svg width="409pt" height="45pt"
 viewBox="0.00 0.00 409.00 45.00" xmlns="http://www.w3.org/2000/svg" xmlns:xlink="http://www.w3.org/1999/xlink">
<g id="graph0" class="graph" transform="scale(1 1) rotate(0) translate(4 41)">
<title>ECS::getSignature</title>
<!-- Node1 -->
<g id="Node000001" class="node">
<title>Node1</title>
<g id="a_Node000001"><a xlink:title=" ">
<polygon fill="#999999" stroke="#666666" points="104,-19 0,-19 0,0 104,0 104,-19"/>
<text text-anchor="middle" x="52" y="-7" font-family="Helvetica,sans-Serif" font-size="10.00">ECS::getSignature</text>
</a>
</g>
</g>
<!-- Node2 -->
<g id="Node000002" class="node">
<title>Node2</title>
<g id="a_Node000002"><a xlink:href="server_2ecs_8hpp.html#a5a868f82168f3b251aa7ca758686125c" target="_top" xlink:title=" ">
<polygon fill="white" stroke="#666666" points="239,-19 140,-19 140,0 239,0 239,-19"/>
<text text-anchor="middle" x="189.5" y="-7" font-family="Helvetica,sans-Serif" font-size="10.00">getComponentID</text>
</a>
</g>
</g>
<!-- Node1&#45;&gt;Node2 -->
<g id="edge1_Node000001_Node000002" class="edge">
<title>Node1&#45;&gt;Node2</title>
<g id="a_edge1_Node000001_Node000002"><a xlink:title=" ">
<path fill="none" stroke="#63b8ff" d="M104.23,-9.5C112.54,-9.5 121.2,-9.5 129.68,-9.5"/>
<polygon fill="#63b8ff" stroke="#63b8ff" points="129.89,-13 139.89,-9.5 129.89,-6 129.89,-13"/>
</a>
</g>
</g>
<!-- Node2&#45;&gt;Node2 -->
<g id="edge2_Node000002_Node000002" class="edge">
<title>Node2&#45;&gt;Node2</title>
<g id="a_edge2_Node000002_Node000002"><a xlink:title=" ">
<path fill="none" stroke="#63b8ff" d="M168.54,-19.08C158.34,-27.73 165.33,-37 189.5,-37 204.99,-37 213.42,-33.2 214.8,-28.19"/>
<polygon fill="#63b8ff" stroke="#63b8ff" points="217.92,-26.61 210.46,-19.08 211.6,-29.62 217.92,-26.61"/>
</a>
</g>
</g>
<!-- Node3 -->
<g id="Node000003" class="node">
<title>Node3</title>
<g id="a_Node000003"><a xlink:href="engine_2ecs_2ecs_8hpp.html#afdb02fc115de82c93e814ac1d3a64c06" target="_top" xlink:title="Generates a new unique ComponentTypeID.">
<polygon fill="white" stroke="#666666" points="401,-19 275,-19 275,0 401,0 401,-19"/>
<text text-anchor="middle" x="338" y="-7" font-family="Helvetica,sans-Serif" font-size="10.00">newComponentTypeID</text>
</a>
</g>
</g>
<!-- Node2&#45;&gt;Node3 -->
<g id="edge3_Node000002_Node000003" class="edge">
<title>Node2&#45;&gt;Node3</title>
<g id="a_edge3_Node000002_Node000003"><a xlink:title=" ">
<path fill="none" stroke="#63b8ff" d="M239.28,-9.5C247.48,-9.5 256.14,-9.5 264.78,-9.5"/>
<polygon fill="#63b8ff" stroke="#63b8ff" points="264.88,-13 274.88,-9.5 264.88,-6 264.88,-13"/>
</a>
</g>
</g>
</g>
</svg>
