<?xml version="1.0" encoding="UTF-8" standalone="no"?>
<!DOCTYPE svg PUBLIC "-//W3C//DTD SVG 1.1//EN"
 "http://www.w3.org/Graphics/SVG/1.1/DTD/svg11.dtd">
<!-- Generated by graphviz version 2.43.0 (0)
 -->
<!-- Title: ECS::getConstComponent Pages: 1 -->
<svg width="487pt" height="82pt"
 viewBox="0.00 0.00 487.00 82.00" xmlns="http://www.w3.org/2000/svg" xmlns:xlink="http://www.w3.org/1999/xlink">

<svg id="main" version="1.1" xmlns="http://www.w3.org/2000/svg" xmlns:xlink="http://www.w3.org/1999/xlink" xml:space="preserve" onload="init(evt)">
<style type="text/css"><![CDATA[
.node, .edge {opacity: 0.7;}
.node.selected, .edge.selected {opacity: 1;}
.edge:hover path { stroke: red; }
.edge:hover polygon { stroke: red; fill: red; }
]]></style>
<script type="application/ecmascript" xlink:href="svg.min.js"/>
<svg id="graph" class="graph">
<g id="graph0" class="graph" transform="scale(1 1) rotate(0) translate(4 78)">
<title>ECS::getConstComponent</title>
<!-- Node1 -->
<g id="Node000001" class="node">
<title>Node1</title>
<g id="a_Node000001"><a xlink:title="Retrieves a read&#45;only pointer to a component.">
<polygon fill="#999999" stroke="#666666" points="141,-46 0,-46 0,-27 141,-27 141,-46"/>
<text text-anchor="middle" x="70.5" y="-34" font-family="Helvetica,sans-Serif" font-size="10.00">ECS::getConstComponent</text>
</a>
</g>
</g>
<!-- Node2 -->
<g id="Node000002" class="node">
<title>Node2</title>
<g id="a_Node000002"><a xlink:href="classStorageComponent.html#a4e0239d1d216347282d49c0bcdf0079d" target="_top" xlink:title="Retrieves a read&#45;only pointer to the component for the entity.">
<polygon fill="white" stroke="#666666" points="309,-74 177,-74 177,-55 309,-55 309,-74"/>
<text text-anchor="middle" x="243" y="-62" font-family="Helvetica,sans-Serif" font-size="10.00">StorageComponent::get</text>
</a>
</g>
</g>
<!-- Node1&#45;&gt;Node2 -->
<g id="edge1_Node000001_Node000002" class="edge">
<title>Node1&#45;&gt;Node2</title>
<g id="a_edge1_Node000001_Node000002"><a xlink:title=" ">
<path fill="none" stroke="#63b8ff" d="M129.7,-46.06C143.97,-48.4 159.36,-50.93 174.04,-53.34"/>
<polygon fill="#63b8ff" stroke="#63b8ff" points="173.63,-56.82 184.06,-54.99 174.76,-49.91 173.63,-56.82"/>
</a>
</g>
</g>
<!-- Node4 -->
<g id="Node000004" class="node">
<title>Node4</title>
<g id="a_Node000004"><a xlink:href="server_2ecs_8hpp.html#a5a868f82168f3b251aa7ca758686125c" target="_top" xlink:title=" ">
<polygon fill="white" stroke="#666666" points="292.5,-19 193.5,-19 193.5,0 292.5,0 292.5,-19"/>
<text text-anchor="middle" x="243" y="-7" font-family="Helvetica,sans-Serif" font-size="10.00">getComponentID</text>
</a>
</g>
</g>
<!-- Node1&#45;&gt;Node4 -->
<g id="edge3_Node000001_Node000004" class="edge">
<title>Node1&#45;&gt;Node4</title>
<g id="a_edge3_Node000001_Node000004"><a xlink:title=" ">
<path fill="none" stroke="#63b8ff" d="M131.61,-26.98C148.36,-24.33 166.54,-21.45 183.21,-18.81"/>
<polygon fill="#63b8ff" stroke="#63b8ff" points="184.05,-22.22 193.38,-17.2 182.95,-15.31 184.05,-22.22"/>
</a>
</g>
</g>
<!-- Node3 -->
<g id="Node000003" class="node">
<title>Node3</title>
<g id="a_Node000003"><a xlink:href="classStorageComponent.html#a6de145a1ea5570363f566ab9fce66578" target="_top" xlink:title="Checks if the entity has this component type.">
<polygon fill="white" stroke="#666666" points="479,-74 345,-74 345,-55 479,-55 479,-74"/>
<text text-anchor="middle" x="412" y="-62" font-family="Helvetica,sans-Serif" font-size="10.00">StorageComponent::has</text>
</a>
</g>
</g>
<!-- Node2&#45;&gt;Node3 -->
<g id="edge2_Node000002_Node000003" class="edge">
<title>Node2&#45;&gt;Node3</title>
<g id="a_edge2_Node000002_Node000003"><a xlink:title=" ">
<path fill="none" stroke="#63b8ff" d="M309.04,-64.5C317.47,-64.5 326.16,-64.5 334.75,-64.5"/>
<polygon fill="#63b8ff" stroke="#63b8ff" points="334.76,-68 344.76,-64.5 334.76,-61 334.76,-68"/>
</a>
</g>
</g>
<!-- Node4&#45;&gt;Node4 -->
<g id="edge4_Node000004_Node000004" class="edge">
<title>Node4&#45;&gt;Node4</title>
<g id="a_edge4_Node000004_Node000004"><a xlink:title=" ">
<path fill="none" stroke="#63b8ff" d="M217.11,-19.08C204.51,-27.73 213.14,-37 243,-37 263.06,-37 273.54,-32.82 274.44,-27.45"/>
<polygon fill="#63b8ff" stroke="#63b8ff" points="277.34,-25.49 268.89,-19.08 271.5,-29.35 277.34,-25.49"/>
</a>
</g>
</g>
<!-- Node5 -->
<g id="Node000005" class="node">
<title>Node5</title>
<g id="a_Node000005"><a xlink:href="engine_2ecs_2ecs_8hpp.html#afdb02fc115de82c93e814ac1d3a64c06" target="_top" xlink:title="Generates a new unique ComponentTypeID.">
<polygon fill="white" stroke="#666666" points="475,-19 349,-19 349,0 475,0 475,-19"/>
<text text-anchor="middle" x="412" y="-7" font-family="Helvetica,sans-Serif" font-size="10.00">newComponentTypeID</text>
</a>
</g>
</g>
<!-- Node4&#45;&gt;Node5 -->
<g id="edge5_Node000004_Node000005" class="edge">
<title>Node4&#45;&gt;Node5</title>
<g id="a_edge5_Node000004_Node000005"><a xlink:title=" ">
<path fill="none" stroke="#63b8ff" d="M292.75,-9.5C307.13,-9.5 323.17,-9.5 338.69,-9.5"/>
<polygon fill="#63b8ff" stroke="#63b8ff" points="338.79,-13 348.79,-9.5 338.79,-6 338.79,-13"/>
</a>
</g>
</g>
</g>
</svg>
</svg>

<style type='text/css'>
<![CDATA[
[data-mouse-over-selected='false'] { opacity: 0.7; }
[data-mouse-over-selected='true']  { opacity: 1.0; }
]]>
</style>
<script type="application/ecmascript"><![CDATA[
document.addEventListener('DOMContentLoaded', (event) => {
  highlightEdges();
  highlightAdjacentNodes();
});
]]></script>
</svg>
