<?xml version="1.0" encoding="UTF-8" standalone="no"?>
<!DOCTYPE svg PUBLIC "-//W3C//DTD SVG 1.1//EN"
 "http://www.w3.org/Graphics/SVG/1.1/DTD/svg11.dtd">
<!-- Generated by graphviz version 2.43.0 (0)
 -->
<!-- Title: MovementSystem Pages: 1 -->
<!--zoomable 763 -->

<svg id="main" version="1.1" xmlns="http://www.w3.org/2000/svg" xmlns:xlink="http://www.w3.org/1999/xlink" xml:space="preserve" onload="init(evt)">
<style type="text/css"><![CDATA[
.node, .edge {opacity: 0.7;}
.node.selected, .edge.selected {opacity: 1;}
.edge:hover path { stroke: red; }
.edge:hover polygon { stroke: red; fill: red; }
]]></style>

<defs>
  <circle id="rim" cx="0" cy="0" r="7"/>
  <circle id="rim2" cx="0" cy="0" r="3.5"/>
  <g id="zoomPlus">
    <use xlink:href="#rim" fill="#404040"><set attributeName="fill" to="#808080" begin="zoomplus.mouseover" end="zoomplus.mouseout"/></use>
    <path d="M-4,0h8M0,-4v8" fill="none" stroke="white" stroke-width="1.5" pointer-events="none"/>
  </g>
  <g id="zoomMin">
    <use xlink:href="#rim" fill="#404040"><set attributeName="fill" to="#808080" begin="zoomminus.mouseover" end="zoomminus.mouseout"/></use>
    <path d="M-4,0h8" fill="none" stroke="white" stroke-width="1.5" pointer-events="none"/>
  </g>
  <g id="arrowUp" transform="translate(30 24)">
    <use xlink:href="#rim"/>
    <path pointer-events="none" fill="none" stroke="white" stroke-width="1.5" d="M0,-3.0v7 M-2.5,-0.5L0,-3.0L2.5,-0.5"/>
  </g>
  <g id="arrowRight" transform="rotate(90) translate(36 -43)">
    <use xlink:href="#rim"/>
    <path pointer-events="none" fill="none" stroke="white" stroke-width="1.5" d="M0,-3.0v7 M-2.5,-0.5L0,-3.0L2.5,-0.5"/>
  </g>
  <g id="arrowDown" transform="rotate(180) translate(-30 -48)">
    <use xlink:href="#rim"/>
    <path pointer-events="none" fill="none" stroke="white" stroke-width="1.5" d="M0,-3.0v7 M-2.5,-0.5L0,-3.0L2.5,-0.5"/>
  </g>
  <g id="arrowLeft" transform="rotate(270) translate(-36 17)">
    <use xlink:href="#rim"/>
    <path pointer-events="none" fill="none" stroke="white" stroke-width="1.5" d="M0,-3.0v7 M-2.5,-0.5L0,-3.0L2.5,-0.5"/>
  </g>
  <g id="resetDef">
    <use xlink:href="#rim2" fill="#404040"><set attributeName="fill" to="#808080" begin="reset.mouseover" end="reset.mouseout"/></use>
  </g>
</defs>
<script type="application/ecmascript">
var viewWidth = 192;
var viewHeight = 763;
var sectionId = 'dynsection-1';
</script>
<script type="application/ecmascript" xlink:href="svg.min.js"/>
<svg id="graph" class="graph">
<g id="viewport">
<title>MovementSystem</title>
<!-- Node1 -->
<g id="Node000001" class="node">
<title>Node1</title>
<g id="a_Node000001"><a xlink:title=" ">
<polygon fill="#999999" stroke="transparent" points="158.5,-86 25.5,-86 25.5,0 158.5,0 158.5,-86"/>
<text text-anchor="start" x="47.5" y="-74" font-family="Helvetica,sans-Serif" font-size="10.00">MovementSystem</text>
<text text-anchor="start" x="90.5" y="-59" font-family="Helvetica,sans-Serif" font-size="10.00"> </text>
<text text-anchor="start" x="30" y="-44" font-family="Helvetica,sans-Serif" font-size="10.00">+</text>
<text text-anchor="start" x="43" y="-44" font-family="Helvetica,sans-Serif" font-size="10.00">MovementSystem(ECS</text>
<text text-anchor="start" x="43" y="-33" font-family="Helvetica,sans-Serif" font-size="10.00"> &amp;ecs)</text>
<text text-anchor="start" x="30" y="-18" font-family="Helvetica,sans-Serif" font-size="10.00">+</text>
<text text-anchor="start" x="43" y="-18" font-family="Helvetica,sans-Serif" font-size="10.00">void update(double</text>
<text text-anchor="start" x="43" y="-7" font-family="Helvetica,sans-Serif" font-size="10.00"> dt) override</text>
<polygon fill="#666666" stroke="#666666" points="26,-69 26,-69 159,-69 159,-69 26,-69"/>
<polygon fill="#666666" stroke="#666666" points="26,-54 26,-54 159,-54 159,-54 26,-54"/>
<polygon fill="none" stroke="#666666" points="25.5,0 25.5,-86 158.5,-86 158.5,0 25.5,0"/>
</a>
</g>
</g>
<!-- Node2 -->
<g id="Node000002" class="node">
<title>Node2</title>
<g id="a_Node000002"><a xlink:href="classISystem.html" target="_top" xlink:title="Interface for systems in the ECS.">
<polygon fill="white" stroke="transparent" points="149.5,-224 34.5,-224 34.5,-123 149.5,-123 149.5,-224"/>
<text text-anchor="start" x="72.5" y="-211.5" font-family="Helvetica,sans-Serif" font-size="10.00">ISystem</text>
<text text-anchor="start" x="90.5" y="-196.5" font-family="Helvetica,sans-Serif" font-size="10.00"> </text>
<text text-anchor="start" x="39" y="-181.5" font-family="Helvetica,sans-Serif" font-size="10.00">+</text>
<text text-anchor="start" x="52" y="-181.5" font-family="Helvetica,sans-Serif" font-size="10.00">ISystem(ECS &amp;ecs)</text>
<text text-anchor="start" x="39" y="-166.5" font-family="Helvetica,sans-Serif" font-size="10.00">+</text>
<text text-anchor="start" x="52" y="-166.5" font-family="Helvetica,sans-Serif" font-size="10.00">virtual ~ISystem()</text>
<text text-anchor="start" x="52" y="-155.5" font-family="Helvetica,sans-Serif" font-size="10.00">=default</text>
<text text-anchor="start" x="39" y="-140.5" font-family="Helvetica,sans-Serif" font-size="10.00">+</text>
<text text-anchor="start" x="52" y="-140.5" font-family="Helvetica,sans-Serif" font-size="10.00">virtual void update</text>
<text text-anchor="start" x="52" y="-129.5" font-family="Helvetica,sans-Serif" font-size="10.00">(double dt)=0</text>
<polygon fill="#666666" stroke="#666666" points="35,-206.5 35,-206.5 150,-206.5 150,-206.5 35,-206.5"/>
<polygon fill="#666666" stroke="#666666" points="35,-191.5 35,-191.5 150,-191.5 150,-191.5 35,-191.5"/>
<polygon fill="none" stroke="#666666" points="34.5,-123 34.5,-224 149.5,-224 149.5,-123 34.5,-123"/>
</a>
</g>
</g>
<!-- Node2&#45;&gt;Node1 -->
<g id="edge1_Node000001_Node000002" class="edge">
<title>Node2&#45;&gt;Node1</title>
<g id="a_edge1_Node000001_Node000002"><a xlink:title=" ">
<path fill="none" stroke="#63b8ff" d="M92,-112.73C92,-103.71 92,-94.58 92,-86.04"/>
<polygon fill="none" stroke="#63b8ff" points="88.5,-112.82 92,-122.82 95.5,-112.82 88.5,-112.82"/>
</a>
</g>
</g>
<!-- Node3 -->
<g id="Node000003" class="node">
<title>Node3</title>
<g id="a_Node000003"><a xlink:href="classECS.html" target="_top" xlink:title="Entity Component System manager.">
<polygon fill="white" stroke="transparent" points="184,-755 0,-755 0,-271 184,-271 184,-755"/>
<text text-anchor="start" x="82.5" y="-743" font-family="Helvetica,sans-Serif" font-size="10.00">ECS</text>
<text text-anchor="start" x="6.5" y="-728" font-family="Helvetica,sans-Serif" font-size="10.00">&#45;</text>
<text text-anchor="start" x="17" y="-728" font-family="Helvetica,sans-Serif" font-size="10.00">double _time</text>
<text text-anchor="start" x="6.5" y="-713" font-family="Helvetica,sans-Serif" font-size="10.00">&#45;</text>
<text text-anchor="start" x="17" y="-713" font-family="Helvetica,sans-Serif" font-size="10.00">std::size_t __livingEntities</text>
<text text-anchor="start" x="6.5" y="-698" font-family="Helvetica,sans-Serif" font-size="10.00">&#45;</text>
<text text-anchor="start" x="17" y="-698" font-family="Helvetica,sans-Serif" font-size="10.00">std::queue&lt; Entity</text>
<text text-anchor="start" x="17" y="-687" font-family="Helvetica,sans-Serif" font-size="10.00"> &gt; __freeEntities</text>
<text text-anchor="start" x="6.5" y="-672" font-family="Helvetica,sans-Serif" font-size="10.00">&#45;</text>
<text text-anchor="start" x="17" y="-672" font-family="Helvetica,sans-Serif" font-size="10.00">std::unordered_map</text>
<text text-anchor="start" x="17" y="-661" font-family="Helvetica,sans-Serif" font-size="10.00">&lt; Entity, Signature</text>
<text text-anchor="start" x="17" y="-650" font-family="Helvetica,sans-Serif" font-size="10.00"> &gt; __signatures</text>
<text text-anchor="start" x="6.5" y="-635" font-family="Helvetica,sans-Serif" font-size="10.00">&#45;</text>
<text text-anchor="start" x="17" y="-635" font-family="Helvetica,sans-Serif" font-size="10.00">std::vector&lt; void *</text>
<text text-anchor="start" x="17" y="-624" font-family="Helvetica,sans-Serif" font-size="10.00"> &gt; _componentStorages</text>
<text text-anchor="start" x="4" y="-609" font-family="Helvetica,sans-Serif" font-size="10.00">+</text>
<text text-anchor="start" x="17" y="-609" font-family="Helvetica,sans-Serif" font-size="10.00">ECS()</text>
<text text-anchor="start" x="4" y="-594" font-family="Helvetica,sans-Serif" font-size="10.00">+</text>
<text text-anchor="start" x="17" y="-594" font-family="Helvetica,sans-Serif" font-size="10.00">~ECS()=default</text>
<text text-anchor="start" x="4" y="-579" font-family="Helvetica,sans-Serif" font-size="10.00">+</text>
<text text-anchor="start" x="17" y="-579" font-family="Helvetica,sans-Serif" font-size="10.00">Entity createEntity()</text>
<text text-anchor="start" x="4" y="-564" font-family="Helvetica,sans-Serif" font-size="10.00">+</text>
<text text-anchor="start" x="17" y="-564" font-family="Helvetica,sans-Serif" font-size="10.00">void killEntity(Entity e)</text>
<text text-anchor="start" x="4" y="-549" font-family="Helvetica,sans-Serif" font-size="10.00">+</text>
<text text-anchor="start" x="17" y="-549" font-family="Helvetica,sans-Serif" font-size="10.00">Signature getSignature</text>
<text text-anchor="start" x="17" y="-538" font-family="Helvetica,sans-Serif" font-size="10.00">(Entity e) const</text>
<text text-anchor="start" x="4" y="-523" font-family="Helvetica,sans-Serif" font-size="10.00">+</text>
<text text-anchor="start" x="17" y="-523" font-family="Helvetica,sans-Serif" font-size="10.00">void setSignature(Entity</text>
<text text-anchor="start" x="17" y="-512" font-family="Helvetica,sans-Serif" font-size="10.00"> e, Signature sig)</text>
<text text-anchor="start" x="4" y="-497" font-family="Helvetica,sans-Serif" font-size="10.00">+</text>
<text text-anchor="start" x="17" y="-497" font-family="Helvetica,sans-Serif" font-size="10.00">Entity addComponent</text>
<text text-anchor="start" x="17" y="-486" font-family="Helvetica,sans-Serif" font-size="10.00">(Entity e, const Component</text>
<text text-anchor="start" x="17" y="-475" font-family="Helvetica,sans-Serif" font-size="10.00">Type &amp;component)</text>
<text text-anchor="start" x="4" y="-460" font-family="Helvetica,sans-Serif" font-size="10.00">+</text>
<text text-anchor="start" x="17" y="-460" font-family="Helvetica,sans-Serif" font-size="10.00">bool hasComponent(Entity</text>
<text text-anchor="start" x="17" y="-449" font-family="Helvetica,sans-Serif" font-size="10.00"> e) const</text>
<text text-anchor="start" x="4" y="-434" font-family="Helvetica,sans-Serif" font-size="10.00">+</text>
<text text-anchor="start" x="17" y="-434" font-family="Helvetica,sans-Serif" font-size="10.00">const ComponentType</text>
<text text-anchor="start" x="17" y="-423" font-family="Helvetica,sans-Serif" font-size="10.00"> * getConstComponent</text>
<text text-anchor="start" x="17" y="-412" font-family="Helvetica,sans-Serif" font-size="10.00">(Entity e) const</text>
<text text-anchor="start" x="4" y="-397" font-family="Helvetica,sans-Serif" font-size="10.00">+</text>
<text text-anchor="start" x="17" y="-397" font-family="Helvetica,sans-Serif" font-size="10.00">ComponentType * getComponent</text>
<text text-anchor="start" x="17" y="-386" font-family="Helvetica,sans-Serif" font-size="10.00">(Entity e)</text>
<text text-anchor="start" x="4" y="-371" font-family="Helvetica,sans-Serif" font-size="10.00">+</text>
<text text-anchor="start" x="17" y="-371" font-family="Helvetica,sans-Serif" font-size="10.00">std::vector&lt; Entity</text>
<text text-anchor="start" x="17" y="-360" font-family="Helvetica,sans-Serif" font-size="10.00"> &gt; getEntitiesByComponents()</text>
<text text-anchor="start" x="4" y="-345" font-family="Helvetica,sans-Serif" font-size="10.00">+</text>
<text text-anchor="start" x="17" y="-345" font-family="Helvetica,sans-Serif" font-size="10.00">void killComponent</text>
<text text-anchor="start" x="17" y="-334" font-family="Helvetica,sans-Serif" font-size="10.00">(Entity e)</text>
<text text-anchor="start" x="4" y="-319" font-family="Helvetica,sans-Serif" font-size="10.00">+</text>
<text text-anchor="start" x="17" y="-319" font-family="Helvetica,sans-Serif" font-size="10.00">double getTime() const</text>
<text text-anchor="start" x="4" y="-304" font-family="Helvetica,sans-Serif" font-size="10.00">+</text>
<text text-anchor="start" x="17" y="-304" font-family="Helvetica,sans-Serif" font-size="10.00">void addTime(double dt)</text>
<text text-anchor="start" x="6.5" y="-289" font-family="Helvetica,sans-Serif" font-size="10.00">&#45;</text>
<text text-anchor="start" x="17" y="-289" font-family="Helvetica,sans-Serif" font-size="10.00">void verifyComponentStorage</text>
<text text-anchor="start" x="17" y="-278" font-family="Helvetica,sans-Serif" font-size="10.00">(ComponentTypeID TypeID)</text>
<polygon fill="#666666" stroke="#666666" points="0,-738 0,-738 184,-738 184,-738 0,-738"/>
<polygon fill="#666666" stroke="#666666" points="0,-619 0,-619 15,-619 15,-619 0,-619"/>
<polygon fill="#666666" stroke="#666666" points="15,-619 15,-619 184,-619 184,-619 15,-619"/>
<polygon fill="none" stroke="#666666" points="0,-271 0,-755 184,-755 184,-271 0,-271"/>
</a>
</g>
</g>
<!-- Node3&#45;&gt;Node2 -->
<g id="edge2_Node000002_Node000003" class="edge">
<title>Node3&#45;&gt;Node2</title>
<g id="a_edge2_Node000002_Node000003"><a xlink:title=" ">
<path fill="none" stroke="#63b8ff" d="M92,-270.76C92,-258.49 92,-246.84 92,-236.17"/>
<polygon fill="none" stroke="#63b8ff" points="92,-236.11 88,-230.11 92,-224.11 96,-230.11 92,-236.11"/>
</a>
</g>
<text text-anchor="middle" x="109" y="-245" font-family="Helvetica,sans-Serif" font-size="10.00" fill="grey"> #_ecs</text>
</g>
</g>
</svg>

<g id="navigator" transform="translate(0 0)" fill="#404254">
  <rect fill="#f2f5e9" fill-opacity="0.5" stroke="#606060" stroke-width=".5" x="0" y="0" width="60" height="60"/>
  <use id="zoomplus" xlink:href="#zoomPlus" x="17" y="9" onmousedown="handleZoom(evt,'in')"/>
  <use id="zoomminus" xlink:href="#zoomMin" x="42" y="9" onmousedown="handleZoom(evt,'out')"/>
  <use id="reset" xlink:href="#resetDef" x="30" y="36" onmousedown="handleReset()"/>
   <use id="arrowup" xlink:href="#arrowUp" x="0" y="0" onmousedown="handlePan(0,-1)"/>
  <use id="arrowright" xlink:href="#arrowRight" x="0" y="0" onmousedown="handlePan(1,0)"/>
  <use id="arrowdown" xlink:href="#arrowDown" x="0" y="0" onmousedown="handlePan(0,1)"/>
  <use id="arrowleft" xlink:href="#arrowLeft" x="0" y="0" onmousedown="handlePan(-1,0)"/>
</g>
<svg viewBox="0 0 15 15" width="100%" height="30px" preserveAspectRatio="xMaxYMin meet">
 <g id="arrow_out" transform="scale(0.3 0.3)">
  <a xlink:href="classMovementSystem__coll__graph_org.svg" target="_base">
   <rect id="button" ry="5" rx="5" y="6" x="6" height="38" width="38"
        fill="#f2f5e9" fill-opacity="0.5" stroke="#606060" stroke-width="1.0"/>
   <path id="arrow"
     d="M 11.500037,31.436501 C 11.940474,20.09759 22.043105,11.32322 32.158766,21.979434 L 37.068811,17.246167 C 37.068811,17.246167 37.088388,32 37.088388,32 L 22.160133,31.978069 C 22.160133,31.978069 26.997745,27.140456 26.997745,27.140456 C 18.528582,18.264221 13.291696,25.230495 11.500037,31.436501 z"
     style="fill:#404040;"/>
  </a>
 </g>
</svg>

<style type='text/css'>
<![CDATA[
[data-mouse-over-selected='false'] { opacity: 0.7; }
[data-mouse-over-selected='true']  { opacity: 1.0; }
]]>
</style>
<script type="application/ecmascript"><![CDATA[
document.addEventListener('DOMContentLoaded', (event) => {
  highlightEdges();
  highlightAdjacentNodes();
});
]]></script>
</svg>
