<?xml version="1.0" encoding="UTF-8" standalone="no"?>
<!DOCTYPE svg PUBLIC "-//W3C//DTD SVG 1.1//EN"
 "http://www.w3.org/Graphics/SVG/1.1/DTD/svg11.dtd">
<!-- Generated by graphviz version 2.43.0 (0)
 -->
<!-- Title: StorageComponent::get Pages: 1 -->
<svg width="317pt" height="64pt"
 viewBox="0.00 0.00 317.00 64.00" xmlns="http://www.w3.org/2000/svg" xmlns:xlink="http://www.w3.org/1999/xlink">
<g id="graph0" class="graph" transform="scale(1 1) rotate(0) translate(4 60)">
<title>StorageComponent::get</title>
<!-- Node1 -->
<g id="Node000001" class="node">
<title>Node1</title>
<g id="a_Node000001"><a xlink:title="Retrieves a read&#45;only pointer to the component for the entity.">
<polygon fill="#999999" stroke="#666666" points="309,-37 177,-37 177,-18 309,-18 309,-37"/>
<text text-anchor="middle" x="243" y="-25" font-family="Helvetica,sans-Serif" font-size="10.00">StorageComponent::get</text>
</a>
</g>
</g>
<!-- Node2 -->
<g id="Node000002" class="node">
<title>Node2</title>
<g id="a_Node000002"><a xlink:href="classECS.html#aaae60c88af59dd7af9d86200eb522bbc" target="_top" xlink:title="Retrieves a mutable pointer to a component.">
<polygon fill="white" stroke="#666666" points="127,-56 14,-56 14,-37 127,-37 127,-56"/>
<text text-anchor="middle" x="70.5" y="-44" font-family="Helvetica,sans-Serif" font-size="10.00">ECS::getComponent</text>
</a>
</g>
</g>
<!-- Node1&#45;&gt;Node2 -->
<g id="edge1_Node000001_Node000002" class="edge">
<title>Node1&#45;&gt;Node2</title>
<g id="a_edge1_Node000001_Node000002"><a xlink:title=" ">
<path fill="none" stroke="#63b8ff" d="M166.5,-35.91C153.24,-37.39 139.65,-38.91 127.05,-40.31"/>
<polygon fill="#63b8ff" stroke="#63b8ff" points="167.02,-39.38 176.57,-34.79 166.24,-32.42 167.02,-39.38"/>
</a>
</g>
</g>
<!-- Node3 -->
<g id="Node000003" class="node">
<title>Node3</title>
<g id="a_Node000003"><a xlink:href="classECS.html#a358206e15202fccfa73017c47af07079" target="_top" xlink:title="Retrieves a read&#45;only pointer to a component.">
<polygon fill="white" stroke="#666666" points="141,-19 0,-19 0,0 141,0 141,-19"/>
<text text-anchor="middle" x="70.5" y="-7" font-family="Helvetica,sans-Serif" font-size="10.00">ECS::getConstComponent</text>
</a>
</g>
</g>
<!-- Node1&#45;&gt;Node3 -->
<g id="edge2_Node000001_Node000003" class="edge">
<title>Node1&#45;&gt;Node3</title>
<g id="a_edge2_Node000001_Node000003"><a xlink:title=" ">
<path fill="none" stroke="#63b8ff" d="M166.36,-19.51C157.92,-18.62 149.36,-17.72 141,-16.84"/>
<polygon fill="#63b8ff" stroke="#63b8ff" points="166.26,-23.02 176.57,-20.59 166.99,-16.06 166.26,-23.02"/>
</a>
</g>
</g>
</g>
</svg>
