<?xml version="1.0" encoding="UTF-8" standalone="no"?>
<!DOCTYPE svg PUBLIC "-//W3C//DTD SVG 1.1//EN"
 "http://www.w3.org/Graphics/SVG/1.1/DTD/svg11.dtd">
<!-- Generated by graphviz version 2.43.0 (0)
 -->
<!-- Title: StorageComponent::get Pages: 1 -->
<svg width="624pt" height="253pt"
 viewBox="0.00 0.00 624.00 253.00" xmlns="http://www.w3.org/2000/svg" xmlns:xlink="http://www.w3.org/1999/xlink">
<g id="graph0" class="graph" transform="scale(1 1) rotate(0) translate(4 249)">
<title>StorageComponent::get</title>
<!-- Node1 -->
<g id="Node000001" class="node">
<title>Node1</title>
<g id="a_Node000001"><a xlink:title="Retrieves a read&#45;only pointer to the component for the entity.">
<polygon fill="#999999" stroke="#666666" points="616,-75 484,-75 484,-56 616,-56 616,-75"/>
<text text-anchor="middle" x="550" y="-63" font-family="Helvetica,sans-Serif" font-size="10.00">StorageComponent::get</text>
</a>
</g>
</g>
<!-- Node2 -->
<g id="Node000002" class="node">
<title>Node2</title>
<g id="a_Node000002"><a xlink:href="classECS.html#aaae60c88af59dd7af9d86200eb522bbc" target="_top" xlink:title="Retrieves a mutable pointer to a component.">
<polygon fill="white" stroke="#666666" points="434,-131 321,-131 321,-112 434,-112 434,-131"/>
<text text-anchor="middle" x="377.5" y="-119" font-family="Helvetica,sans-Serif" font-size="10.00">ECS::getComponent</text>
</a>
</g>
</g>
<!-- Node1&#45;&gt;Node2 -->
<g id="edge1_Node000001_Node000002" class="edge">
<title>Node1&#45;&gt;Node2</title>
<g id="a_edge1_Node000001_Node000002"><a xlink:title=" ">
<path fill="none" stroke="#63b8ff" d="M510,-78.31C478.76,-88.57 435.65,-102.73 407.43,-112"/>
<polygon fill="#63b8ff" stroke="#63b8ff" points="511.28,-81.57 519.69,-75.13 509.1,-74.92 511.28,-81.57"/>
</a>
</g>
</g>
<!-- Node9 -->
<g id="Node000009" class="node">
<title>Node9</title>
<g id="a_Node000009"><a xlink:href="classECS.html#a358206e15202fccfa73017c47af07079" target="_top" xlink:title="Retrieves a read&#45;only pointer to a component.">
<polygon fill="white" stroke="#666666" points="448,-57 307,-57 307,-38 448,-38 448,-57"/>
<text text-anchor="middle" x="377.5" y="-45" font-family="Helvetica,sans-Serif" font-size="10.00">ECS::getConstComponent</text>
</a>
</g>
</g>
<!-- Node1&#45;&gt;Node9 -->
<g id="edge12_Node000001_Node000009" class="edge">
<title>Node1&#45;&gt;Node9</title>
<g id="a_edge12_Node000001_Node000009"><a xlink:title=" ">
<path fill="none" stroke="#63b8ff" d="M473.36,-57.51C464.92,-56.62 456.36,-55.72 448,-54.84"/>
<polygon fill="#63b8ff" stroke="#63b8ff" points="473.26,-61.02 483.57,-58.59 473.99,-54.06 473.26,-61.02"/>
</a>
</g>
</g>
<!-- Node3 -->
<g id="Node000003" class="node">
<title>Node3</title>
<g id="a_Node000003"><a xlink:href="classServer.html#aac4110712ec347909be9bd4a5140ac4f" target="_top" xlink:title=" ">
<polygon fill="white" stroke="#666666" points="267.5,-245 161.5,-245 161.5,-226 267.5,-226 267.5,-245"/>
<text text-anchor="middle" x="214.5" y="-233" font-family="Helvetica,sans-Serif" font-size="10.00">Server::applyInput</text>
</a>
</g>
</g>
<!-- Node2&#45;&gt;Node3 -->
<g id="edge2_Node000002_Node000003" class="edge">
<title>Node2&#45;&gt;Node3</title>
<g id="a_edge2_Node000002_Node000003"><a xlink:title=" ">
<path fill="none" stroke="#63b8ff" d="M359.8,-138.56C339.98,-158.08 305.3,-190.13 271,-211.5 262,-217.11 251.46,-222.03 242,-225.93"/>
<polygon fill="#63b8ff" stroke="#63b8ff" points="362.5,-140.8 367.1,-131.26 357.55,-135.85 362.5,-140.8"/>
</a>
</g>
</g>
<!-- Node4 -->
<g id="Node000004" class="node">
<title>Node4</title>
<g id="a_Node000004"><a xlink:href="classServer.html#aeee363eaf9f494aa542f2e0ad1d7813b" target="_top" xlink:title=" ">
<polygon fill="white" stroke="#666666" points="122,-234 0,-234 0,-215 122,-215 122,-234"/>
<text text-anchor="middle" x="61" y="-222" font-family="Helvetica,sans-Serif" font-size="10.00">Server::processInputs</text>
</a>
</g>
</g>
<!-- Node2&#45;&gt;Node4 -->
<g id="edge9_Node000002_Node000004" class="edge">
<title>Node2&#45;&gt;Node4</title>
<g id="a_edge9_Node000002_Node000004"><a xlink:title=" ">
<path fill="none" stroke="#63b8ff" d="M353.28,-136.51C332.48,-149.34 300.75,-167.44 271,-178.5 222.42,-196.56 164.73,-208.6 122.27,-215.81"/>
<polygon fill="#63b8ff" stroke="#63b8ff" points="355.14,-139.47 361.75,-131.19 351.42,-133.54 355.14,-139.47"/>
</a>
</g>
</g>
<!-- Node5 -->
<g id="Node000005" class="node">
<title>Node5</title>
<g id="a_Node000005"><a xlink:href="classClient.html#ad361032d607e05a51b215e1300029bbc" target="_top" xlink:title=" ">
<polygon fill="white" stroke="#666666" points="271,-169 158,-169 158,-150 271,-150 271,-169"/>
<text text-anchor="middle" x="214.5" y="-157" font-family="Helvetica,sans-Serif" font-size="10.00">Client::applyUpdate</text>
</a>
</g>
</g>
<!-- Node2&#45;&gt;Node5 -->
<g id="edge4_Node000002_Node000005" class="edge">
<title>Node2&#45;&gt;Node5</title>
<g id="a_edge4_Node000002_Node000005"><a xlink:title=" ">
<path fill="none" stroke="#63b8ff" d="M326.1,-133.4C303.47,-138.74 277.13,-144.95 255.83,-149.98"/>
<polygon fill="#63b8ff" stroke="#63b8ff" points="326.94,-136.79 335.87,-131.09 325.34,-129.98 326.94,-136.79"/>
</a>
</g>
</g>
<!-- Node6 -->
<g id="Node000006" class="node">
<title>Node6</title>
<g id="a_Node000006"><a xlink:href="classClient.html#a6e7a5e19c40bef39ae1c0f5996b8c471" target="_top" xlink:title=" ">
<polygon fill="white" stroke="#666666" points="103.5,-169 18.5,-169 18.5,-150 103.5,-150 103.5,-169"/>
<text text-anchor="middle" x="61" y="-157" font-family="Helvetica,sans-Serif" font-size="10.00">Client::update</text>
</a>
</g>
</g>
<!-- Node2&#45;&gt;Node6 -->
<g id="edge10_Node000002_Node000006" class="edge">
<title>Node2&#45;&gt;Node6</title>
<g id="a_edge10_Node000002_Node000006"><a xlink:title=" ">
<path fill="none" stroke="#63b8ff" d="M310.5,-125.92C267.05,-129.22 209,-134.4 158,-141.5 140.2,-143.98 120.68,-147.49 103.92,-150.76"/>
<polygon fill="#63b8ff" stroke="#63b8ff" points="310.94,-129.39 320.65,-125.16 310.42,-122.41 310.94,-129.39"/>
</a>
</g>
</g>
<!-- Node7 -->
<g id="Node000007" class="node">
<title>Node7</title>
<g id="a_Node000007"><a xlink:href="classClient.html#a643ed09341f07f8c81696741f2d2ca07" target="_top" xlink:title=" ">
<polygon fill="white" stroke="#666666" points="271,-93 158,-93 158,-74 271,-74 271,-93"/>
<text text-anchor="middle" x="214.5" y="-81" font-family="Helvetica,sans-Serif" font-size="10.00">Client::processInput</text>
</a>
</g>
</g>
<!-- Node2&#45;&gt;Node7 -->
<g id="edge8_Node000002_Node000007" class="edge">
<title>Node2&#45;&gt;Node7</title>
<g id="a_edge8_Node000002_Node000007"><a xlink:title=" ">
<path fill="none" stroke="#63b8ff" d="M326.1,-109.6C303.47,-104.26 277.13,-98.05 255.83,-93.02"/>
<polygon fill="#63b8ff" stroke="#63b8ff" points="325.34,-113.02 335.87,-111.91 326.94,-106.21 325.34,-113.02"/>
</a>
</g>
</g>
<!-- Node8 -->
<g id="Node000008" class="node">
<title>Node8</title>
<g id="a_Node000008"><a xlink:href="classServer.html#af7b0a4370ac2c1e573f292870adfa81c" target="_top" xlink:title=" ">
<polygon fill="white" stroke="#666666" points="258.5,-56 170.5,-56 170.5,-37 258.5,-37 258.5,-56"/>
<text text-anchor="middle" x="214.5" y="-44" font-family="Helvetica,sans-Serif" font-size="10.00">Server::update</text>
</a>
</g>
</g>
<!-- Node2&#45;&gt;Node8 -->
<g id="edge11_Node000002_Node000008" class="edge">
<title>Node2&#45;&gt;Node8</title>
<g id="a_edge11_Node000002_Node000008"><a xlink:title=" ">
<path fill="none" stroke="#63b8ff" d="M351.99,-106.6C331,-94.25 299.71,-76.79 271,-64.5 263.83,-61.43 255.95,-58.58 248.44,-56.09"/>
<polygon fill="#63b8ff" stroke="#63b8ff" points="350.48,-109.77 360.86,-111.88 354.06,-103.76 350.48,-109.77"/>
</a>
</g>
</g>
<!-- Node3&#45;&gt;Node4 -->
<g id="edge3_Node000003_Node000004" class="edge">
<title>Node3&#45;&gt;Node4</title>
<g id="a_edge3_Node000003_Node000004"><a xlink:title=" ">
<path fill="none" stroke="#63b8ff" d="M151.09,-230.97C141.49,-230.27 131.59,-229.55 122.05,-228.86"/>
<polygon fill="#63b8ff" stroke="#63b8ff" points="151.14,-234.48 161.36,-231.71 151.64,-227.5 151.14,-234.48"/>
</a>
</g>
</g>
<!-- Node5&#45;&gt;Node6 -->
<g id="edge5_Node000005_Node000006" class="edge">
<title>Node5&#45;&gt;Node6</title>
<g id="a_edge5_Node000005_Node000006"><a xlink:title=" ">
<path fill="none" stroke="#63b8ff" d="M147.73,-152.8C132.82,-152.65 117.38,-152.84 103.78,-153.39"/>
<polygon fill="#63b8ff" stroke="#63b8ff" points="147.89,-156.31 157.95,-152.97 148.01,-149.31 147.89,-156.31"/>
</a>
</g>
</g>
<!-- Node6&#45;&gt;Node5 -->
<g id="edge6_Node000006_Node000005" class="edge">
<title>Node6&#45;&gt;Node5</title>
<g id="a_edge6_Node000006_Node000005"><a xlink:title=" ">
<path fill="none" stroke="#63b8ff" d="M113.87,-165.94C128.08,-166.32 143.54,-166.35 157.95,-166.03"/>
<polygon fill="#63b8ff" stroke="#63b8ff" points="113.89,-162.44 103.78,-165.61 113.66,-169.44 113.89,-162.44"/>
</a>
</g>
</g>
<!-- Node6&#45;&gt;Node6 -->
<g id="edge7_Node000006_Node000006" class="edge">
<title>Node6&#45;&gt;Node6</title>
<g id="a_edge7_Node000006_Node000006"><a xlink:title=" ">
<path fill="none" stroke="#63b8ff" d="M89.37,-177.82C88.19,-183.01 78.73,-187 61,-187 33.98,-187 26.18,-177.73 37.57,-169.08"/>
<polygon fill="#63b8ff" stroke="#63b8ff" points="92.4,-176.06 84.43,-169.08 86.31,-179.51 92.4,-176.06"/>
</a>
</g>
</g>
<!-- Node10 -->
<g id="Node000010" class="node">
<title>Node10</title>
<g id="a_Node000010"><a xlink:href="classServer.html#af36f3a832531844b5f18d40c6db22cc9" target="_top" xlink:title=" ">
<polygon fill="white" stroke="#666666" points="265.5,-19 163.5,-19 163.5,0 265.5,0 265.5,-19"/>
<text text-anchor="middle" x="214.5" y="-7" font-family="Helvetica,sans-Serif" font-size="10.00">Server::broadcast</text>
</a>
</g>
</g>
<!-- Node9&#45;&gt;Node10 -->
<g id="edge13_Node000009_Node000010" class="edge">
<title>Node9&#45;&gt;Node10</title>
<g id="a_edge13_Node000009_Node000010"><a xlink:title=" ">
<path fill="none" stroke="#63b8ff" d="M326.1,-35.6C303.47,-30.26 277.13,-24.05 255.83,-19.02"/>
<polygon fill="#63b8ff" stroke="#63b8ff" points="325.34,-39.02 335.87,-37.91 326.94,-32.21 325.34,-39.02"/>
</a>
</g>
</g>
</g>
</svg>
