<?xml version="1.0" encoding="UTF-8" standalone="no"?>
<!DOCTYPE svg PUBLIC "-//W3C//DTD SVG 1.1//EN"
 "http://www.w3.org/Graphics/SVG/1.1/DTD/svg11.dtd">
<!-- Generated by graphviz version 2.43.0 (0)
 -->
<!-- Title: Server::entityForClients Pages: 1 -->
<svg width="483pt" height="138pt"
 viewBox="0.00 0.00 483.00 138.00" xmlns="http://www.w3.org/2000/svg" xmlns:xlink="http://www.w3.org/1999/xlink">
<g id="graph0" class="graph" transform="scale(1 1) rotate(0) translate(4 134)">
<title>Server::entityForClients</title>
<!-- Node1 -->
<g id="Node000001" class="node">
<title>Node1</title>
<g id="a_Node000001"><a xlink:title=" ">
<polygon fill="#999999" stroke="#666666" points="131,-74 0,-74 0,-55 131,-55 131,-74"/>
<text text-anchor="middle" x="65.5" y="-62" font-family="Helvetica,sans-Serif" font-size="10.00">Server::entityForClients</text>
</a>
</g>
</g>
<!-- Node2 -->
<g id="Node000002" class="node">
<title>Node2</title>
<g id="a_Node000002"><a xlink:href="namespaceFactory.html#a676a86a062ce8ffcbe6f1fb3360f5948" target="_top" xlink:title=" ">
<polygon fill="white" stroke="#666666" points="299.5,-130 180.5,-130 180.5,-111 299.5,-111 299.5,-130"/>
<text text-anchor="middle" x="240" y="-118" font-family="Helvetica,sans-Serif" font-size="10.00">Factory::createPlayer</text>
</a>
</g>
</g>
<!-- Node1&#45;&gt;Node2 -->
<g id="edge1_Node000001_Node000002" class="edge">
<title>Node1&#45;&gt;Node2</title>
<g id="a_edge1_Node000001_Node000002"><a xlink:title=" ">
<path fill="none" stroke="#63b8ff" d="M89.39,-74.03C109.58,-82.22 139.94,-94.03 167,-102.5 173.53,-104.54 180.44,-106.51 187.3,-108.35"/>
<polygon fill="#63b8ff" stroke="#63b8ff" points="186.71,-111.81 197.27,-110.94 188.47,-105.04 186.71,-111.81"/>
</a>
</g>
</g>
<!-- Node3 -->
<g id="Node000003" class="node">
<title>Node3</title>
<g id="a_Node000003"><a xlink:href="classUdpServer.html#a9bbfe357b5fd6f3eae04605bb3ebce4f" target="_top" xlink:title=" ">
<polygon fill="white" stroke="#666666" points="313,-93 167,-93 167,-74 313,-74 313,-93"/>
<text text-anchor="middle" x="240" y="-81" font-family="Helvetica,sans-Serif" font-size="10.00">UdpServer::getClientCount</text>
</a>
</g>
</g>
<!-- Node1&#45;&gt;Node3 -->
<g id="edge2_Node000001_Node000003" class="edge">
<title>Node1&#45;&gt;Node3</title>
<g id="a_edge2_Node000001_Node000003"><a xlink:title=" ">
<path fill="none" stroke="#63b8ff" d="M131.22,-71.63C139.61,-72.55 148.28,-73.51 156.9,-74.46"/>
<polygon fill="#63b8ff" stroke="#63b8ff" points="156.64,-77.95 166.97,-75.57 157.41,-70.99 156.64,-77.95"/>
</a>
</g>
</g>
<!-- Node4 -->
<g id="Node000004" class="node">
<title>Node4</title>
<g id="a_Node000004"><a xlink:href="classUdpServer.html#a52f6bd3ca7b3f20cddee608ee96f68bb" target="_top" xlink:title=" ">
<polygon fill="white" stroke="#666666" points="301.5,-56 178.5,-56 178.5,-37 301.5,-37 301.5,-56"/>
<text text-anchor="middle" x="240" y="-44" font-family="Helvetica,sans-Serif" font-size="10.00">UdpServer::getClients</text>
</a>
</g>
</g>
<!-- Node1&#45;&gt;Node4 -->
<g id="edge3_Node000001_Node000004" class="edge">
<title>Node1&#45;&gt;Node4</title>
<g id="a_edge3_Node000001_Node000004"><a xlink:title=" ">
<path fill="none" stroke="#63b8ff" d="M131.22,-57.75C143.32,-56.48 156.03,-55.16 168.3,-53.88"/>
<polygon fill="#63b8ff" stroke="#63b8ff" points="168.89,-57.33 178.48,-52.82 168.17,-50.37 168.89,-57.33"/>
</a>
</g>
</g>
<!-- Node5 -->
<g id="Node000005" class="node">
<title>Node5</title>
<g id="a_Node000005"><a xlink:href="engine_2ecs_2ecs_8hpp.html#a5a868f82168f3b251aa7ca758686125c" target="_top" xlink:title="Retrieves the unique ID for a given component type.">
<polygon fill="white" stroke="#666666" points="289.5,-19 190.5,-19 190.5,0 289.5,0 289.5,-19"/>
<text text-anchor="middle" x="240" y="-7" font-family="Helvetica,sans-Serif" font-size="10.00">getComponentID</text>
</a>
</g>
</g>
<!-- Node1&#45;&gt;Node5 -->
<g id="edge4_Node000001_Node000005" class="edge">
<title>Node1&#45;&gt;Node5</title>
<g id="a_edge4_Node000001_Node000005"><a xlink:title=" ">
<path fill="none" stroke="#63b8ff" d="M91.49,-54.87C111.71,-47.25 140.98,-36.58 167,-28.5 174.55,-26.16 182.61,-23.85 190.49,-21.69"/>
<polygon fill="#63b8ff" stroke="#63b8ff" points="191.59,-25.02 200.34,-19.05 189.77,-18.26 191.59,-25.02"/>
</a>
</g>
</g>
<!-- Node6 -->
<g id="Node000006" class="node">
<title>Node6</title>
<g id="a_Node000006"><a xlink:href="engine_2ecs_2ecs_8hpp.html#afdb02fc115de82c93e814ac1d3a64c06" target="_top" xlink:title="Generates a new unique ComponentTypeID.">
<polygon fill="white" stroke="#666666" points="475,-19 349,-19 349,0 475,0 475,-19"/>
<text text-anchor="middle" x="412" y="-7" font-family="Helvetica,sans-Serif" font-size="10.00">newComponentTypeID</text>
</a>
</g>
</g>
<!-- Node5&#45;&gt;Node6 -->
<g id="edge5_Node000005_Node000006" class="edge">
<title>Node5&#45;&gt;Node6</title>
<g id="a_edge5_Node000005_Node000006"><a xlink:title=" ">
<path fill="none" stroke="#63b8ff" d="M289.72,-9.5C304.99,-9.5 322.19,-9.5 338.73,-9.5"/>
<polygon fill="#63b8ff" stroke="#63b8ff" points="338.92,-13 348.92,-9.5 338.92,-6 338.92,-13"/>
</a>
</g>
</g>
</g>
</svg>
