<?xml version="1.0" encoding="UTF-8" standalone="no"?>
<!DOCTYPE svg PUBLIC "-//W3C//DTD SVG 1.1//EN"
 "http://www.w3.org/Graphics/SVG/1.1/DTD/svg11.dtd">
<!-- Generated by graphviz version 2.43.0 (0)
 -->
<!-- Title: ClientInfo Pages: 1 -->
<svg width="143pt" height="109pt"
 viewBox="0.00 0.00 143.00 109.00" xmlns="http://www.w3.org/2000/svg" xmlns:xlink="http://www.w3.org/1999/xlink">
<g id="graph0" class="graph" transform="scale(1 1) rotate(0) translate(4 105)">
<title>ClientInfo</title>
<!-- Node1 -->
<g id="Node000001" class="node">
<title>Node1</title>
<g id="a_Node000001"><a xlink:title=" ">
<polygon fill="#999999" stroke="transparent" points="135,-101 0,-101 0,0 135,0 135,-101"/>
<text text-anchor="start" x="44" y="-88.5" font-family="Helvetica,sans-Serif" font-size="10.00">ClientInfo</text>
<text text-anchor="start" x="4.5" y="-73.5" font-family="Helvetica,sans-Serif" font-size="10.00">+</text>
<text text-anchor="start" x="17.5" y="-73.5" font-family="Helvetica,sans-Serif" font-size="10.00">sf::IpAddress address</text>
<text text-anchor="start" x="4.5" y="-58.5" font-family="Helvetica,sans-Serif" font-size="10.00">+</text>
<text text-anchor="start" x="17.5" y="-58.5" font-family="Helvetica,sans-Serif" font-size="10.00">unsigned short port</text>
<text text-anchor="start" x="4.5" y="-43.5" font-family="Helvetica,sans-Serif" font-size="10.00">+</text>
<text text-anchor="start" x="17.5" y="-43.5" font-family="Helvetica,sans-Serif" font-size="10.00">int playerId</text>
<text text-anchor="start" x="4.5" y="-28.5" font-family="Helvetica,sans-Serif" font-size="10.00">+</text>
<text text-anchor="start" x="17.5" y="-28.5" font-family="Helvetica,sans-Serif" font-size="10.00">ClientInfo(sf::IpAddress</text>
<text text-anchor="start" x="17.5" y="-17.5" font-family="Helvetica,sans-Serif" font-size="10.00"> ip, unsigned short p,</text>
<text text-anchor="start" x="17.5" y="-6.5" font-family="Helvetica,sans-Serif" font-size="10.00"> int id)</text>
<polygon fill="#666666" stroke="#666666" points="0.5,-83.5 0.5,-83.5 135.5,-83.5 135.5,-83.5 0.5,-83.5"/>
<polygon fill="#666666" stroke="#666666" points="0.5,-38.5 0.5,-38.5 15.5,-38.5 15.5,-38.5 0.5,-38.5"/>
<polygon fill="#666666" stroke="#666666" points="15.5,-38.5 15.5,-38.5 135.5,-38.5 135.5,-38.5 15.5,-38.5"/>
<polygon fill="none" stroke="#666666" points="0,0 0,-101 135,-101 135,0 0,0"/>
</a>
</g>
</g>
</g>
</svg>
