<?xml version="1.0" encoding="UTF-8" standalone="no"?>
<!DOCTYPE svg PUBLIC "-//W3C//DTD SVG 1.1//EN"
 "http://www.w3.org/Graphics/SVG/1.1/DTD/svg11.dtd">
<!-- Generated by graphviz version 2.43.0 (0)
 -->
<!-- Title: Server::Server Pages: 1 -->
<svg width="288pt" height="138pt"
 viewBox="0.00 0.00 288.00 138.00" xmlns="http://www.w3.org/2000/svg" xmlns:xlink="http://www.w3.org/1999/xlink">
<g id="graph0" class="graph" transform="scale(1 1) rotate(0) translate(4 134)">
<title>Server::Server</title>
<!-- Node1 -->
<g id="Node000001" class="node">
<title>Node1</title>
<g id="a_Node000001"><a xlink:title=" ">
<polygon fill="#999999" stroke="#666666" points="86,-74 0,-74 0,-55 86,-55 86,-74"/>
<text text-anchor="middle" x="43" y="-62" font-family="Helvetica,sans-Serif" font-size="10.00">Server::Server</text>
</a>
</g>
</g>
<!-- Node2 -->
<g id="Node000002" class="node">
<title>Node2</title>
<g id="a_Node000002"><a xlink:href="namespaceFactory.html#a46cd969803b3a2d51624f7d1a880e90c" target="_top" xlink:title=" ">
<polygon fill="white" stroke="#666666" points="280,-130 122,-130 122,-111 280,-111 280,-130"/>
<text text-anchor="middle" x="201" y="-118" font-family="Helvetica,sans-Serif" font-size="10.00">Factory::createScreenBorders</text>
</a>
</g>
</g>
<!-- Node1&#45;&gt;Node2 -->
<g id="edge1_Node000001_Node000002" class="edge">
<title>Node1&#45;&gt;Node2</title>
<g id="a_edge1_Node000001_Node000002"><a xlink:title=" ">
<path fill="none" stroke="#63b8ff" d="M60.87,-74.11C76.35,-82.58 100.13,-94.76 122,-102.5 128.02,-104.63 134.39,-106.57 140.79,-108.33"/>
<polygon fill="#63b8ff" stroke="#63b8ff" points="140.27,-111.81 150.83,-110.94 142.03,-105.04 140.27,-111.81"/>
</a>
</g>
</g>
<!-- Node3 -->
<g id="Node000003" class="node">
<title>Node3</title>
<g id="a_Node000003"><a xlink:href="namespaceFactory.html#a7e8cefb2f1094bf3a3b56575b315301b" target="_top" xlink:title=" ">
<polygon fill="white" stroke="#666666" points="264,-93 138,-93 138,-74 264,-74 264,-93"/>
<text text-anchor="middle" x="201" y="-81" font-family="Helvetica,sans-Serif" font-size="10.00">Factory::createTileGrid</text>
</a>
</g>
</g>
<!-- Node1&#45;&gt;Node3 -->
<g id="edge2_Node000001_Node000003" class="edge">
<title>Node1&#45;&gt;Node3</title>
<g id="a_edge2_Node000001_Node000003"><a xlink:title=" ">
<path fill="none" stroke="#63b8ff" d="M86.22,-69.64C99,-71.2 113.41,-72.95 127.58,-74.68"/>
<polygon fill="#63b8ff" stroke="#63b8ff" points="127.48,-78.19 137.83,-75.93 128.32,-71.24 127.48,-78.19"/>
</a>
</g>
</g>
<!-- Node4 -->
<g id="Node000004" class="node">
<title>Node4</title>
<g id="a_Node000004"><a xlink:href="classWaveSystem.html#afe7beb27d93fec01da74e11f0ca91960" target="_top" xlink:title=" ">
<polygon fill="white" stroke="#666666" points="268,-56 134,-56 134,-37 268,-37 268,-56"/>
<text text-anchor="middle" x="201" y="-44" font-family="Helvetica,sans-Serif" font-size="10.00">WaveSystem::loadLevel</text>
</a>
</g>
</g>
<!-- Node1&#45;&gt;Node4 -->
<g id="edge3_Node000001_Node000004" class="edge">
<title>Node1&#45;&gt;Node4</title>
<g id="a_edge3_Node000001_Node000004"><a xlink:title=" ">
<path fill="none" stroke="#63b8ff" d="M86.22,-59.63C97.82,-58.29 110.78,-56.79 123.67,-55.31"/>
<polygon fill="#63b8ff" stroke="#63b8ff" points="124.44,-58.74 133.97,-54.12 123.64,-51.79 124.44,-58.74"/>
</a>
</g>
</g>
<!-- Node5 -->
<g id="Node000005" class="node">
<title>Node5</title>
<g id="a_Node000005"><a xlink:href="classUdpServer.html#a2e6eba1c68cc214f6df97a5c7724697f" target="_top" xlink:title=" ">
<polygon fill="white" stroke="#666666" points="249,-19 153,-19 153,0 249,0 249,-19"/>
<text text-anchor="middle" x="201" y="-7" font-family="Helvetica,sans-Serif" font-size="10.00">UdpServer::start</text>
</a>
</g>
</g>
<!-- Node1&#45;&gt;Node5 -->
<g id="edge4_Node000001_Node000005" class="edge">
<title>Node1&#45;&gt;Node5</title>
<g id="a_edge4_Node000001_Node000005"><a xlink:title=" ">
<path fill="none" stroke="#63b8ff" d="M62.18,-54.89C77.73,-46.96 100.88,-35.87 122,-28.5 129.14,-26.01 136.75,-23.72 144.32,-21.66"/>
<polygon fill="#63b8ff" stroke="#63b8ff" points="145.4,-25 154.2,-19.09 143.64,-18.22 145.4,-25"/>
</a>
</g>
</g>
</g>
</svg>
