<?xml version="1.0" encoding="UTF-8" standalone="no"?>
<!DOCTYPE svg PUBLIC "-//W3C//DTD SVG 1.1//EN"
 "http://www.w3.org/Graphics/SVG/1.1/DTD/svg11.dtd">
<!-- Generated by graphviz version 2.43.0 (0)
 -->
<!-- Title: Server::processInputs Pages: 1 -->
<!--zoomable 166 -->

<svg id="main" version="1.1" xmlns="http://www.w3.org/2000/svg" xmlns:xlink="http://www.w3.org/1999/xlink" xml:space="preserve" onload="init(evt)">
<style type="text/css"><![CDATA[
.node, .edge {opacity: 0.7;}
.node.selected, .edge.selected {opacity: 1;}
.edge:hover path { stroke: red; }
.edge:hover polygon { stroke: red; fill: red; }
]]></style>

<defs>
  <circle id="rim" cx="0" cy="0" r="7"/>
  <circle id="rim2" cx="0" cy="0" r="3.5"/>
  <g id="zoomPlus">
    <use xlink:href="#rim" fill="#404040"><set attributeName="fill" to="#808080" begin="zoomplus.mouseover" end="zoomplus.mouseout"/></use>
    <path d="M-4,0h8M0,-4v8" fill="none" stroke="white" stroke-width="1.5" pointer-events="none"/>
  </g>
  <g id="zoomMin">
    <use xlink:href="#rim" fill="#404040"><set attributeName="fill" to="#808080" begin="zoomminus.mouseover" end="zoomminus.mouseout"/></use>
    <path d="M-4,0h8" fill="none" stroke="white" stroke-width="1.5" pointer-events="none"/>
  </g>
  <g id="arrowUp" transform="translate(30 24)">
    <use xlink:href="#rim"/>
    <path pointer-events="none" fill="none" stroke="white" stroke-width="1.5" d="M0,-3.0v7 M-2.5,-0.5L0,-3.0L2.5,-0.5"/>
  </g>
  <g id="arrowRight" transform="rotate(90) translate(36 -43)">
    <use xlink:href="#rim"/>
    <path pointer-events="none" fill="none" stroke="white" stroke-width="1.5" d="M0,-3.0v7 M-2.5,-0.5L0,-3.0L2.5,-0.5"/>
  </g>
  <g id="arrowDown" transform="rotate(180) translate(-30 -48)">
    <use xlink:href="#rim"/>
    <path pointer-events="none" fill="none" stroke="white" stroke-width="1.5" d="M0,-3.0v7 M-2.5,-0.5L0,-3.0L2.5,-0.5"/>
  </g>
  <g id="arrowLeft" transform="rotate(270) translate(-36 17)">
    <use xlink:href="#rim"/>
    <path pointer-events="none" fill="none" stroke="white" stroke-width="1.5" d="M0,-3.0v7 M-2.5,-0.5L0,-3.0L2.5,-0.5"/>
  </g>
  <g id="resetDef">
    <use xlink:href="#rim2" fill="#404040"><set attributeName="fill" to="#808080" begin="reset.mouseover" end="reset.mouseout"/></use>
  </g>
</defs>
<script type="application/ecmascript">
var viewWidth = 819;
var viewHeight = 166;
var sectionId = 'dynsection-7';
</script>
<script type="application/ecmascript" xlink:href="svg.min.js"/>
<svg id="graph" class="graph">
<g id="viewport">
<title>Server::processInputs</title>
<!-- Node1 -->
<g id="Node000001" class="node">
<title>Node1</title>
<g id="a_Node000001"><a xlink:title=" ">
<polygon fill="#999999" stroke="#666666" points="122,-92 0,-92 0,-73 122,-73 122,-92"/>
<text text-anchor="middle" x="61" y="-80" font-family="Helvetica,sans-Serif" font-size="10.00">Server::processInputs</text>
</a>
</g>
</g>
<!-- Node2 -->
<g id="Node000002" class="node">
<title>Node2</title>
<g id="a_Node000002"><a xlink:href="classServer.html#aac4110712ec347909be9bd4a5140ac4f" target="_top" xlink:title=" ">
<polygon fill="white" stroke="#666666" points="276.5,-149 170.5,-149 170.5,-130 276.5,-130 276.5,-149"/>
<text text-anchor="middle" x="223.5" y="-137" font-family="Helvetica,sans-Serif" font-size="10.00">Server::applyInput</text>
</a>
</g>
</g>
<!-- Node1&#45;&gt;Node2 -->
<g id="edge1_Node000001_Node000002" class="edge">
<title>Node1&#45;&gt;Node2</title>
<g id="a_edge1_Node000001_Node000002"><a xlink:title=" ">
<path fill="none" stroke="#63b8ff" d="M88.86,-92.04C115.48,-101.49 156.44,-116.04 186,-126.54"/>
<polygon fill="#63b8ff" stroke="#63b8ff" points="184.95,-129.88 195.55,-129.93 187.3,-123.28 184.95,-129.88"/>
</a>
</g>
</g>
<!-- Node3 -->
<g id="Node000003" class="node">
<title>Node3</title>
<g id="a_Node000003"><a xlink:href="classECS.html#aaae60c88af59dd7af9d86200eb522bbc" target="_top" xlink:title="Retrieves a mutable pointer to a component.">
<polygon fill="white" stroke="#666666" points="454.5,-149 341.5,-149 341.5,-130 454.5,-130 454.5,-149"/>
<text text-anchor="middle" x="398" y="-137" font-family="Helvetica,sans-Serif" font-size="10.00">ECS::getComponent</text>
</a>
</g>
</g>
<!-- Node1&#45;&gt;Node3 -->
<g id="edge12_Node000001_Node000003" class="edge">
<title>Node1&#45;&gt;Node3</title>
<g id="a_edge12_Node000001_Node000003"><a xlink:title=" ">
<path fill="none" stroke="#63b8ff" d="M118.07,-92.04C176.83,-102.04 269.06,-117.73 331.21,-128.31"/>
<polygon fill="#63b8ff" stroke="#63b8ff" points="330.86,-131.8 341.3,-130.02 332.03,-124.9 330.86,-131.8"/>
</a>
</g>
</g>
<!-- Node6 -->
<g id="Node000006" class="node">
<title>Node6</title>
<g id="a_Node000006"><a xlink:href="classServer.html#a167f3f27856b0e3c707f4f98c0bb75be" target="_top" xlink:title=" ">
<polygon fill="white" stroke="#666666" points="289,-73 158,-73 158,-54 289,-54 289,-73"/>
<text text-anchor="middle" x="223.5" y="-61" font-family="Helvetica,sans-Serif" font-size="10.00">Server::entityForClients</text>
</a>
</g>
</g>
<!-- Node1&#45;&gt;Node6 -->
<g id="edge5_Node000001_Node000006" class="edge">
<title>Node1&#45;&gt;Node6</title>
<g id="a_edge5_Node000001_Node000006"><a xlink:title=" ">
<path fill="none" stroke="#63b8ff" d="M122.22,-75.37C130.6,-74.38 139.28,-73.35 147.88,-72.33"/>
<polygon fill="#63b8ff" stroke="#63b8ff" points="148.39,-75.8 157.91,-71.15 147.57,-68.85 148.39,-75.8"/>
</a>
</g>
</g>
<!-- Node13 -->
<g id="Node000013" class="node">
<title>Node13</title>
<g id="a_Node000013"><a xlink:href="classSafeQueue.html#ab2f40bad1a39f332c1a8c7b4e858b190" target="_top" xlink:title=" ">
<polygon fill="white" stroke="#666666" points="277,-36 170,-36 170,-17 277,-17 277,-36"/>
<text text-anchor="middle" x="223.5" y="-24" font-family="Helvetica,sans-Serif" font-size="10.00">SafeQueue::tryPop</text>
</a>
</g>
</g>
<!-- Node1&#45;&gt;Node13 -->
<g id="edge13_Node000001_Node000013" class="edge">
<title>Node1&#45;&gt;Node13</title>
<g id="a_edge13_Node000001_Node000013"><a xlink:title=" ">
<path fill="none" stroke="#63b8ff" d="M84.25,-72.92C103.56,-64.8 132.35,-53.13 158,-44.5 163.72,-42.58 169.77,-40.69 175.78,-38.91"/>
<polygon fill="#63b8ff" stroke="#63b8ff" points="177.16,-42.16 185.8,-36.02 175.22,-35.43 177.16,-42.16"/>
</a>
</g>
</g>
<!-- Node2&#45;&gt;Node3 -->
<g id="edge2_Node000002_Node000003" class="edge">
<title>Node2&#45;&gt;Node3</title>
<g id="a_edge2_Node000002_Node000003"><a xlink:title=" ">
<path fill="none" stroke="#63b8ff" d="M276.72,-139.5C293.88,-139.5 313.17,-139.5 331.2,-139.5"/>
<polygon fill="#63b8ff" stroke="#63b8ff" points="331.36,-143 341.36,-139.5 331.36,-136 331.36,-143"/>
</a>
</g>
</g>
<!-- Node4 -->
<g id="Node000004" class="node">
<title>Node4</title>
<g id="a_Node000004"><a xlink:href="classStorageComponent.html#a4e0239d1d216347282d49c0bcdf0079d" target="_top" xlink:title="Retrieves a read&#45;only pointer to the component for the entity.">
<polygon fill="white" stroke="#666666" points="640,-158 508,-158 508,-139 640,-139 640,-158"/>
<text text-anchor="middle" x="574" y="-146" font-family="Helvetica,sans-Serif" font-size="10.00">StorageComponent::get</text>
</a>
</g>
</g>
<!-- Node3&#45;&gt;Node4 -->
<g id="edge3_Node000003_Node000004" class="edge">
<title>Node3&#45;&gt;Node4</title>
<g id="a_edge3_Node000003_Node000004"><a xlink:title=" ">
<path fill="none" stroke="#63b8ff" d="M454.53,-142.37C468.35,-143.09 483.39,-143.87 497.98,-144.62"/>
<polygon fill="#63b8ff" stroke="#63b8ff" points="497.81,-148.12 507.98,-145.14 498.18,-141.13 497.81,-148.12"/>
</a>
</g>
</g>
<!-- Node5 -->
<g id="Node000005" class="node">
<title>Node5</title>
<g id="a_Node000005"><a xlink:href="classStorageComponent.html#a6de145a1ea5570363f566ab9fce66578" target="_top" xlink:title="Checks if the entity has this component type.">
<polygon fill="white" stroke="#666666" points="811,-158 677,-158 677,-139 811,-139 811,-158"/>
<text text-anchor="middle" x="744" y="-146" font-family="Helvetica,sans-Serif" font-size="10.00">StorageComponent::has</text>
</a>
</g>
</g>
<!-- Node4&#45;&gt;Node5 -->
<g id="edge4_Node000004_Node000005" class="edge">
<title>Node4&#45;&gt;Node5</title>
<g id="a_edge4_Node000004_Node000005"><a xlink:title=" ">
<path fill="none" stroke="#63b8ff" d="M640.43,-148.5C649.04,-148.5 657.93,-148.5 666.69,-148.5"/>
<polygon fill="#63b8ff" stroke="#63b8ff" points="666.91,-152 676.91,-148.5 666.91,-145 666.91,-152"/>
</a>
</g>
</g>
<!-- Node7 -->
<g id="Node000007" class="node">
<title>Node7</title>
<g id="a_Node000007"><a xlink:href="namespaceFactory.html#a441510ad7baadbaba0db5a2b3ce212c9" target="_top" xlink:title=" ">
<polygon fill="white" stroke="#666666" points="457.5,-93 338.5,-93 338.5,-74 457.5,-74 457.5,-93"/>
<text text-anchor="middle" x="398" y="-81" font-family="Helvetica,sans-Serif" font-size="10.00">Factory::createPlayer</text>
</a>
</g>
</g>
<!-- Node6&#45;&gt;Node7 -->
<g id="edge6_Node000006_Node000007" class="edge">
<title>Node6&#45;&gt;Node7</title>
<g id="a_edge6_Node000006_Node000007"><a xlink:title=" ">
<path fill="none" stroke="#63b8ff" d="M289.22,-71C301.97,-72.48 315.39,-74.04 328.27,-75.53"/>
<polygon fill="#63b8ff" stroke="#63b8ff" points="328.12,-79.04 338.45,-76.71 328.92,-72.08 328.12,-79.04"/>
</a>
</g>
</g>
<!-- Node11 -->
<g id="Node000011" class="node">
<title>Node11</title>
<g id="a_Node000011"><a xlink:href="classUdpServer.html#a9bbfe357b5fd6f3eae04605bb3ebce4f" target="_top" xlink:title=" ">
<polygon fill="white" stroke="#666666" points="471,-56 325,-56 325,-37 471,-37 471,-56"/>
<text text-anchor="middle" x="398" y="-44" font-family="Helvetica,sans-Serif" font-size="10.00">UdpServer::getClientCount</text>
</a>
</g>
</g>
<!-- Node6&#45;&gt;Node11 -->
<g id="edge10_Node000006_Node000011" class="edge">
<title>Node6&#45;&gt;Node11</title>
<g id="a_edge10_Node000006_Node000011"><a xlink:title=" ">
<path fill="none" stroke="#63b8ff" d="M289.22,-57.12C297.61,-56.3 306.28,-55.44 314.9,-54.59"/>
<polygon fill="#63b8ff" stroke="#63b8ff" points="315.36,-58.06 324.97,-53.6 314.67,-51.1 315.36,-58.06"/>
</a>
</g>
</g>
<!-- Node12 -->
<g id="Node000012" class="node">
<title>Node12</title>
<g id="a_Node000012"><a xlink:href="classUdpServer.html#a52f6bd3ca7b3f20cddee608ee96f68bb" target="_top" xlink:title=" ">
<polygon fill="white" stroke="#666666" points="459.5,-19 336.5,-19 336.5,0 459.5,0 459.5,-19"/>
<text text-anchor="middle" x="398" y="-7" font-family="Helvetica,sans-Serif" font-size="10.00">UdpServer::getClients</text>
</a>
</g>
</g>
<!-- Node6&#45;&gt;Node12 -->
<g id="edge11_Node000006_Node000012" class="edge">
<title>Node6&#45;&gt;Node12</title>
<g id="a_edge11_Node000006_Node000012"><a xlink:title=" ">
<path fill="none" stroke="#63b8ff" d="M260.65,-53.92C269.98,-51.16 279.95,-47.95 289,-44.5 305.54,-38.2 308.34,-33.45 325,-27.5 330.81,-25.42 336.97,-23.49 343.14,-21.73"/>
<polygon fill="#63b8ff" stroke="#63b8ff" points="344.08,-25.1 352.8,-19.09 342.24,-18.35 344.08,-25.1"/>
</a>
</g>
</g>
<!-- Node8 -->
<g id="Node000008" class="node">
<title>Node8</title>
<g id="a_Node000008"><a xlink:href="classECS.html#a729237fc4138af4f48df163dec088efb" target="_top" xlink:title=" ">
<polygon fill="white" stroke="#666666" points="634.5,-121 513.5,-121 513.5,-102 634.5,-102 634.5,-121"/>
<text text-anchor="middle" x="574" y="-109" font-family="Helvetica,sans-Serif" font-size="10.00">ECS::addComponents</text>
</a>
</g>
</g>
<!-- Node7&#45;&gt;Node8 -->
<g id="edge7_Node000007_Node000008" class="edge">
<title>Node7&#45;&gt;Node8</title>
<g id="a_edge7_Node000007_Node000008"><a xlink:title=" ">
<path fill="none" stroke="#63b8ff" d="M457.91,-92.98C472.71,-95.36 488.72,-97.94 503.97,-100.39"/>
<polygon fill="#63b8ff" stroke="#63b8ff" points="503.43,-103.85 513.86,-101.98 504.54,-96.94 503.43,-103.85"/>
</a>
</g>
</g>
<!-- Node9 -->
<g id="Node000009" class="node">
<title>Node9</title>
<g id="a_Node000009"><a xlink:href="namespaceFactory.html#a72717673325d8183f30a820fc78f728e" target="_top" xlink:title=" ">
<polygon fill="white" stroke="#666666" points="641,-84 507,-84 507,-65 641,-65 641,-84"/>
<text text-anchor="middle" x="574" y="-72" font-family="Helvetica,sans-Serif" font-size="10.00">Factory::createDrawable</text>
</a>
</g>
</g>
<!-- Node7&#45;&gt;Node9 -->
<g id="edge8_Node000007_Node000009" class="edge">
<title>Node7&#45;&gt;Node9</title>
<g id="a_edge8_Node000007_Node000009"><a xlink:title=" ">
<path fill="none" stroke="#63b8ff" d="M457.91,-80.45C470.36,-79.81 483.66,-79.12 496.65,-78.45"/>
<polygon fill="#63b8ff" stroke="#63b8ff" points="497.16,-81.93 506.97,-77.92 496.8,-74.94 497.16,-81.93"/>
</a>
</g>
</g>
<!-- Node10 -->
<g id="Node000010" class="node">
<title>Node10</title>
<g id="a_Node000010"><a xlink:href="classECS.html#a41b876f3725cbb04aac3f2edd95522c6" target="_top" xlink:title="Creates a new entity.">
<polygon fill="white" stroke="#666666" points="624.5,-47 523.5,-47 523.5,-28 624.5,-28 624.5,-47"/>
<text text-anchor="middle" x="574" y="-35" font-family="Helvetica,sans-Serif" font-size="10.00">ECS::createEntity</text>
</a>
</g>
</g>
<!-- Node7&#45;&gt;Node10 -->
<g id="edge9_Node000007_Node000010" class="edge">
<title>Node7&#45;&gt;Node10</title>
<g id="a_edge9_Node000007_Node000010"><a xlink:title=" ">
<path fill="none" stroke="#63b8ff" d="M435.26,-73.94C446.7,-70.92 459.38,-67.57 471,-64.5 489.36,-59.65 509.57,-54.3 527.13,-49.65"/>
<polygon fill="#63b8ff" stroke="#63b8ff" points="528.36,-52.95 537.13,-47 526.56,-46.18 528.36,-52.95"/>
</a>
</g>
</g>
</g>
</svg>

<g id="navigator" transform="translate(0 0)" fill="#404254">
  <rect fill="#f2f5e9" fill-opacity="0.5" stroke="#606060" stroke-width=".5" x="0" y="0" width="60" height="60"/>
  <use id="zoomplus" xlink:href="#zoomPlus" x="17" y="9" onmousedown="handleZoom(evt,'in')"/>
  <use id="zoomminus" xlink:href="#zoomMin" x="42" y="9" onmousedown="handleZoom(evt,'out')"/>
  <use id="reset" xlink:href="#resetDef" x="30" y="36" onmousedown="handleReset()"/>
   <use id="arrowup" xlink:href="#arrowUp" x="0" y="0" onmousedown="handlePan(0,-1)"/>
  <use id="arrowright" xlink:href="#arrowRight" x="0" y="0" onmousedown="handlePan(1,0)"/>
  <use id="arrowdown" xlink:href="#arrowDown" x="0" y="0" onmousedown="handlePan(0,1)"/>
  <use id="arrowleft" xlink:href="#arrowLeft" x="0" y="0" onmousedown="handlePan(-1,0)"/>
</g>
<svg viewBox="0 0 15 15" width="100%" height="30px" preserveAspectRatio="xMaxYMin meet">
 <g id="arrow_out" transform="scale(0.3 0.3)">
  <a xlink:href="classServer_aeee363eaf9f494aa542f2e0ad1d7813b_cgraph_org.svg" target="_base">
   <rect id="button" ry="5" rx="5" y="6" x="6" height="38" width="38"
        fill="#f2f5e9" fill-opacity="0.5" stroke="#606060" stroke-width="1.0"/>
   <path id="arrow"
     d="M 11.500037,31.436501 C 11.940474,20.09759 22.043105,11.32322 32.158766,21.979434 L 37.068811,17.246167 C 37.068811,17.246167 37.088388,32 37.088388,32 L 22.160133,31.978069 C 22.160133,31.978069 26.997745,27.140456 26.997745,27.140456 C 18.528582,18.264221 13.291696,25.230495 11.500037,31.436501 z"
     style="fill:#404040;"/>
  </a>
 </g>
</svg>

<style type='text/css'>
<![CDATA[
[data-mouse-over-selected='false'] { opacity: 0.7; }
[data-mouse-over-selected='true']  { opacity: 1.0; }
]]>
</style>
<script type="application/ecmascript"><![CDATA[
document.addEventListener('DOMContentLoaded', (event) => {
  highlightEdges();
  highlightAdjacentNodes();
});
]]></script>
</svg>
