<?xml version="1.0" encoding="UTF-8" standalone="no"?>
<!DOCTYPE svg PUBLIC "-//W3C//DTD SVG 1.1//EN"
 "http://www.w3.org/Graphics/SVG/1.1/DTD/svg11.dtd">
<!-- Generated by graphviz version 2.43.0 (0)
 -->
<!-- Title: GameEngine Pages: 1 -->
<svg width="194pt" height="1332pt"
 viewBox="0.00 0.00 194.00 1332.00" xmlns="http://www.w3.org/2000/svg" xmlns:xlink="http://www.w3.org/1999/xlink">
<g id="graph0" class="graph" transform="scale(1 1) rotate(0) translate(4 1328)">
<title>GameEngine</title>
<!-- Node1 -->
<g id="Node000001" class="node">
<title>Node1</title>
<g id="a_Node000001"><a xlink:title=" ">
<polygon fill="#999999" stroke="transparent" points="168,-139 18,-139 18,0 168,0 168,-139"/>
<text text-anchor="start" x="61.5" y="-126.5" font-family="Helvetica,sans-Serif" font-size="10.00">GameEngine</text>
<text text-anchor="start" x="24.5" y="-111.5" font-family="Helvetica,sans-Serif" font-size="10.00">&#45;</text>
<text text-anchor="start" x="35" y="-111.5" font-family="Helvetica,sans-Serif" font-size="10.00">sf::RenderWindow window</text>
<text text-anchor="start" x="24.5" y="-96.5" font-family="Helvetica,sans-Serif" font-size="10.00">&#45;</text>
<text text-anchor="start" x="35" y="-96.5" font-family="Helvetica,sans-Serif" font-size="10.00">bool isRunning</text>
<text text-anchor="start" x="22" y="-81.5" font-family="Helvetica,sans-Serif" font-size="10.00">+</text>
<text text-anchor="start" x="35" y="-81.5" font-family="Helvetica,sans-Serif" font-size="10.00">GameEngine()</text>
<text text-anchor="start" x="22" y="-66.5" font-family="Helvetica,sans-Serif" font-size="10.00">+</text>
<text text-anchor="start" x="35" y="-66.5" font-family="Helvetica,sans-Serif" font-size="10.00">~GameEngine()</text>
<text text-anchor="start" x="22" y="-51.5" font-family="Helvetica,sans-Serif" font-size="10.00">+</text>
<text text-anchor="start" x="35" y="-51.5" font-family="Helvetica,sans-Serif" font-size="10.00">void run()</text>
<text text-anchor="start" x="24.5" y="-36.5" font-family="Helvetica,sans-Serif" font-size="10.00">&#45;</text>
<text text-anchor="start" x="35" y="-36.5" font-family="Helvetica,sans-Serif" font-size="10.00">void processInputs()</text>
<text text-anchor="start" x="24.5" y="-21.5" font-family="Helvetica,sans-Serif" font-size="10.00">&#45;</text>
<text text-anchor="start" x="35" y="-21.5" font-family="Helvetica,sans-Serif" font-size="10.00">void update()</text>
<text text-anchor="start" x="24.5" y="-6.5" font-family="Helvetica,sans-Serif" font-size="10.00">&#45;</text>
<text text-anchor="start" x="35" y="-6.5" font-family="Helvetica,sans-Serif" font-size="10.00">void render()</text>
<polygon fill="#666666" stroke="#666666" points="18,-121.5 18,-121.5 168,-121.5 168,-121.5 18,-121.5"/>
<polygon fill="#666666" stroke="#666666" points="18,-91.5 18,-91.5 33,-91.5 33,-91.5 18,-91.5"/>
<polygon fill="#666666" stroke="#666666" points="33,-91.5 33,-91.5 168,-91.5 168,-91.5 33,-91.5"/>
<polygon fill="none" stroke="#666666" points="18,0 18,-139 168,-139 168,0 18,0"/>
</a>
</g>
</g>
<!-- Node2 -->
<g id="Node000002" class="node">
<title>Node2</title>
<g id="a_Node000002"><a xlink:href="classInputSystem.html" target="_top" xlink:title=" ">
<polygon fill="white" stroke="transparent" points="186,-655 0,-655 0,-186 186,-186 186,-655"/>
<text text-anchor="start" x="62" y="-642.5" font-family="Helvetica,sans-Serif" font-size="10.00">InputSystem</text>
<text text-anchor="start" x="6.5" y="-627.5" font-family="Helvetica,sans-Serif" font-size="10.00">&#45;</text>
<text text-anchor="start" x="17" y="-627.5" font-family="Helvetica,sans-Serif" font-size="10.00">std::map&lt; sf::Keyboard</text>
<text text-anchor="start" x="17" y="-616.5" font-family="Helvetica,sans-Serif" font-size="10.00">::Key, GameAction &gt; m</text>
<text text-anchor="start" x="17" y="-605.5" font-family="Helvetica,sans-Serif" font-size="10.00">_keyMappings</text>
<text text-anchor="start" x="6.5" y="-590.5" font-family="Helvetica,sans-Serif" font-size="10.00">&#45;</text>
<text text-anchor="start" x="17" y="-590.5" font-family="Helvetica,sans-Serif" font-size="10.00">std::map&lt; unsigned</text>
<text text-anchor="start" x="17" y="-579.5" font-family="Helvetica,sans-Serif" font-size="10.00"> int, GameAction &gt; m</text>
<text text-anchor="start" x="17" y="-568.5" font-family="Helvetica,sans-Serif" font-size="10.00">_joystickButtonMappings</text>
<text text-anchor="start" x="6.5" y="-553.5" font-family="Helvetica,sans-Serif" font-size="10.00">&#45;</text>
<text text-anchor="start" x="17" y="-553.5" font-family="Helvetica,sans-Serif" font-size="10.00">std::map&lt; GameAction,</text>
<text text-anchor="start" x="17" y="-542.5" font-family="Helvetica,sans-Serif" font-size="10.00"> bool &gt; m_currentActionStates</text>
<text text-anchor="start" x="6.5" y="-527.5" font-family="Helvetica,sans-Serif" font-size="10.00">&#45;</text>
<text text-anchor="start" x="17" y="-527.5" font-family="Helvetica,sans-Serif" font-size="10.00">std::map&lt; GameAction,</text>
<text text-anchor="start" x="17" y="-516.5" font-family="Helvetica,sans-Serif" font-size="10.00"> bool &gt; m_previousActionStates</text>
<text text-anchor="start" x="6.5" y="-501.5" font-family="Helvetica,sans-Serif" font-size="10.00">&#45;</text>
<text text-anchor="start" x="17" y="-501.5" font-family="Helvetica,sans-Serif" font-size="10.00">unsigned int m_joystickId</text>
<text text-anchor="start" x="6.5" y="-486.5" font-family="Helvetica,sans-Serif" font-size="10.00">&#45;</text>
<text text-anchor="start" x="17" y="-486.5" font-family="Helvetica,sans-Serif" font-size="10.00">float m_deadzone</text>
<text text-anchor="start" x="6.5" y="-471.5" font-family="Helvetica,sans-Serif" font-size="10.00">&#45;</text>
<text text-anchor="start" x="17" y="-471.5" font-family="Helvetica,sans-Serif" font-size="10.00">float m_playerSpeed</text>
<text text-anchor="start" x="4" y="-456.5" font-family="Helvetica,sans-Serif" font-size="10.00">+</text>
<text text-anchor="start" x="17" y="-456.5" font-family="Helvetica,sans-Serif" font-size="10.00">InputSystem(ECS &amp;ecs)</text>
<text text-anchor="start" x="4" y="-441.5" font-family="Helvetica,sans-Serif" font-size="10.00">+</text>
<text text-anchor="start" x="17" y="-441.5" font-family="Helvetica,sans-Serif" font-size="10.00">~InputSystem()=default</text>
<text text-anchor="start" x="4" y="-426.5" font-family="Helvetica,sans-Serif" font-size="10.00">+</text>
<text text-anchor="start" x="17" y="-426.5" font-family="Helvetica,sans-Serif" font-size="10.00">void update(double</text>
<text text-anchor="start" x="17" y="-415.5" font-family="Helvetica,sans-Serif" font-size="10.00"> dt) override</text>
<text text-anchor="start" x="4" y="-400.5" font-family="Helvetica,sans-Serif" font-size="10.00">+</text>
<text text-anchor="start" x="17" y="-400.5" font-family="Helvetica,sans-Serif" font-size="10.00">bool isActionActive</text>
<text text-anchor="start" x="17" y="-389.5" font-family="Helvetica,sans-Serif" font-size="10.00">(GameAction action) const</text>
<text text-anchor="start" x="4" y="-374.5" font-family="Helvetica,sans-Serif" font-size="10.00">+</text>
<text text-anchor="start" x="17" y="-374.5" font-family="Helvetica,sans-Serif" font-size="10.00">bool wasActionPressed</text>
<text text-anchor="start" x="17" y="-363.5" font-family="Helvetica,sans-Serif" font-size="10.00">(GameAction action) const</text>
<text text-anchor="start" x="4" y="-348.5" font-family="Helvetica,sans-Serif" font-size="10.00">+</text>
<text text-anchor="start" x="17" y="-348.5" font-family="Helvetica,sans-Serif" font-size="10.00">bool wasActionReleased</text>
<text text-anchor="start" x="17" y="-337.5" font-family="Helvetica,sans-Serif" font-size="10.00">(GameAction action) const</text>
<text text-anchor="start" x="4" y="-322.5" font-family="Helvetica,sans-Serif" font-size="10.00">+</text>
<text text-anchor="start" x="17" y="-322.5" font-family="Helvetica,sans-Serif" font-size="10.00">void setKeyMapping</text>
<text text-anchor="start" x="17" y="-311.5" font-family="Helvetica,sans-Serif" font-size="10.00">(sf::Keyboard::Key key,</text>
<text text-anchor="start" x="17" y="-300.5" font-family="Helvetica,sans-Serif" font-size="10.00"> GameAction action)</text>
<text text-anchor="start" x="4" y="-285.5" font-family="Helvetica,sans-Serif" font-size="10.00">+</text>
<text text-anchor="start" x="17" y="-285.5" font-family="Helvetica,sans-Serif" font-size="10.00">void setJoystickButtonMapping</text>
<text text-anchor="start" x="17" y="-274.5" font-family="Helvetica,sans-Serif" font-size="10.00">(unsigned int button, GameAction</text>
<text text-anchor="start" x="17" y="-263.5" font-family="Helvetica,sans-Serif" font-size="10.00"> action)</text>
<text text-anchor="start" x="4" y="-248.5" font-family="Helvetica,sans-Serif" font-size="10.00">+</text>
<text text-anchor="start" x="17" y="-248.5" font-family="Helvetica,sans-Serif" font-size="10.00">void setDeadzone(float</text>
<text text-anchor="start" x="17" y="-237.5" font-family="Helvetica,sans-Serif" font-size="10.00"> deadzone)</text>
<text text-anchor="start" x="6.5" y="-222.5" font-family="Helvetica,sans-Serif" font-size="10.00">&#45;</text>
<text text-anchor="start" x="17" y="-222.5" font-family="Helvetica,sans-Serif" font-size="10.00">void setDefaultMappings()</text>
<text text-anchor="start" x="6.5" y="-207.5" font-family="Helvetica,sans-Serif" font-size="10.00">&#45;</text>
<text text-anchor="start" x="17" y="-207.5" font-family="Helvetica,sans-Serif" font-size="10.00">void updateJoystickInput()</text>
<text text-anchor="start" x="6.5" y="-192.5" font-family="Helvetica,sans-Serif" font-size="10.00">&#45;</text>
<text text-anchor="start" x="17" y="-192.5" font-family="Helvetica,sans-Serif" font-size="10.00">void applyInputToPlayers()</text>
<polygon fill="#666666" stroke="#666666" points="0,-637.5 0,-637.5 186,-637.5 186,-637.5 0,-637.5"/>
<polygon fill="#666666" stroke="#666666" points="0,-466.5 0,-466.5 15,-466.5 15,-466.5 0,-466.5"/>
<polygon fill="#666666" stroke="#666666" points="15,-466.5 15,-466.5 186,-466.5 186,-466.5 15,-466.5"/>
<polygon fill="none" stroke="#666666" points="0,-186 0,-655 186,-655 186,-186 0,-186"/>
</a>
</g>
</g>
<!-- Node2&#45;&gt;Node1 -->
<g id="edge1_Node000001_Node000002" class="edge">
<title>Node2&#45;&gt;Node1</title>
<g id="a_edge1_Node000001_Node000002"><a xlink:title=" ">
<path fill="none" stroke="#63b8ff" d="M93,-185.74C93,-173.87 93,-162.42 93,-151.64"/>
<polygon fill="none" stroke="#63b8ff" points="93,-151.31 89,-145.31 93,-139.31 97,-145.31 93,-151.31"/>
</a>
</g>
<text text-anchor="middle" x="127.5" y="-160" font-family="Helvetica,sans-Serif" font-size="10.00" fill="grey"> &#45;inputSystem</text>
</g>
<!-- Node3 -->
<g id="Node000003" class="node">
<title>Node3</title>
<g id="a_Node000003"><a xlink:href="classISystem.html" target="_top" xlink:title="Interface for systems in the ECS.">
<polygon fill="white" stroke="transparent" points="150.5,-793 35.5,-793 35.5,-692 150.5,-692 150.5,-793"/>
<text text-anchor="start" x="73.5" y="-780.5" font-family="Helvetica,sans-Serif" font-size="10.00">ISystem</text>
<text text-anchor="start" x="91.5" y="-765.5" font-family="Helvetica,sans-Serif" font-size="10.00"> </text>
<text text-anchor="start" x="40" y="-750.5" font-family="Helvetica,sans-Serif" font-size="10.00">+</text>
<text text-anchor="start" x="53" y="-750.5" font-family="Helvetica,sans-Serif" font-size="10.00">ISystem(ECS &amp;ecs)</text>
<text text-anchor="start" x="40" y="-735.5" font-family="Helvetica,sans-Serif" font-size="10.00">+</text>
<text text-anchor="start" x="53" y="-735.5" font-family="Helvetica,sans-Serif" font-size="10.00">virtual ~ISystem()</text>
<text text-anchor="start" x="53" y="-724.5" font-family="Helvetica,sans-Serif" font-size="10.00">=default</text>
<text text-anchor="start" x="40" y="-709.5" font-family="Helvetica,sans-Serif" font-size="10.00">+</text>
<text text-anchor="start" x="53" y="-709.5" font-family="Helvetica,sans-Serif" font-size="10.00">virtual void update</text>
<text text-anchor="start" x="53" y="-698.5" font-family="Helvetica,sans-Serif" font-size="10.00">(double dt)=0</text>
<polygon fill="#666666" stroke="#666666" points="36,-775.5 36,-775.5 151,-775.5 151,-775.5 36,-775.5"/>
<polygon fill="#666666" stroke="#666666" points="36,-760.5 36,-760.5 151,-760.5 151,-760.5 36,-760.5"/>
<polygon fill="none" stroke="#666666" points="35.5,-692 35.5,-793 150.5,-793 150.5,-692 35.5,-692"/>
</a>
</g>
</g>
<!-- Node3&#45;&gt;Node2 -->
<g id="edge2_Node000002_Node000003" class="edge">
<title>Node3&#45;&gt;Node2</title>
<g id="a_edge2_Node000002_Node000003"><a xlink:title=" ">
<path fill="none" stroke="#63b8ff" d="M93,-681.65C93,-673.33 93,-664.41 93,-655.06"/>
<polygon fill="none" stroke="#63b8ff" points="89.5,-681.85 93,-691.85 96.5,-681.85 89.5,-681.85"/>
</a>
</g>
</g>
<!-- Node4 -->
<g id="Node000004" class="node">
<title>Node4</title>
<g id="a_Node000004"><a xlink:href="classECS.html" target="_top" xlink:title="Entity Component System manager.">
<polygon fill="white" stroke="transparent" points="185,-1324 1,-1324 1,-840 185,-840 185,-1324"/>
<text text-anchor="start" x="83.5" y="-1312" font-family="Helvetica,sans-Serif" font-size="10.00">ECS</text>
<text text-anchor="start" x="7.5" y="-1297" font-family="Helvetica,sans-Serif" font-size="10.00">&#45;</text>
<text text-anchor="start" x="18" y="-1297" font-family="Helvetica,sans-Serif" font-size="10.00">double _time</text>
<text text-anchor="start" x="7.5" y="-1282" font-family="Helvetica,sans-Serif" font-size="10.00">&#45;</text>
<text text-anchor="start" x="18" y="-1282" font-family="Helvetica,sans-Serif" font-size="10.00">std::size_t __livingEntities</text>
<text text-anchor="start" x="7.5" y="-1267" font-family="Helvetica,sans-Serif" font-size="10.00">&#45;</text>
<text text-anchor="start" x="18" y="-1267" font-family="Helvetica,sans-Serif" font-size="10.00">std::queue&lt; Entity</text>
<text text-anchor="start" x="18" y="-1256" font-family="Helvetica,sans-Serif" font-size="10.00"> &gt; __freeEntities</text>
<text text-anchor="start" x="7.5" y="-1241" font-family="Helvetica,sans-Serif" font-size="10.00">&#45;</text>
<text text-anchor="start" x="18" y="-1241" font-family="Helvetica,sans-Serif" font-size="10.00">std::unordered_map</text>
<text text-anchor="start" x="18" y="-1230" font-family="Helvetica,sans-Serif" font-size="10.00">&lt; Entity, Signature</text>
<text text-anchor="start" x="18" y="-1219" font-family="Helvetica,sans-Serif" font-size="10.00"> &gt; __signatures</text>
<text text-anchor="start" x="7.5" y="-1204" font-family="Helvetica,sans-Serif" font-size="10.00">&#45;</text>
<text text-anchor="start" x="18" y="-1204" font-family="Helvetica,sans-Serif" font-size="10.00">std::vector&lt; void *</text>
<text text-anchor="start" x="18" y="-1193" font-family="Helvetica,sans-Serif" font-size="10.00"> &gt; _componentStorages</text>
<text text-anchor="start" x="5" y="-1178" font-family="Helvetica,sans-Serif" font-size="10.00">+</text>
<text text-anchor="start" x="18" y="-1178" font-family="Helvetica,sans-Serif" font-size="10.00">ECS()</text>
<text text-anchor="start" x="5" y="-1163" font-family="Helvetica,sans-Serif" font-size="10.00">+</text>
<text text-anchor="start" x="18" y="-1163" font-family="Helvetica,sans-Serif" font-size="10.00">~ECS()=default</text>
<text text-anchor="start" x="5" y="-1148" font-family="Helvetica,sans-Serif" font-size="10.00">+</text>
<text text-anchor="start" x="18" y="-1148" font-family="Helvetica,sans-Serif" font-size="10.00">Entity createEntity()</text>
<text text-anchor="start" x="5" y="-1133" font-family="Helvetica,sans-Serif" font-size="10.00">+</text>
<text text-anchor="start" x="18" y="-1133" font-family="Helvetica,sans-Serif" font-size="10.00">void killEntity(Entity e)</text>
<text text-anchor="start" x="5" y="-1118" font-family="Helvetica,sans-Serif" font-size="10.00">+</text>
<text text-anchor="start" x="18" y="-1118" font-family="Helvetica,sans-Serif" font-size="10.00">Signature getSignature</text>
<text text-anchor="start" x="18" y="-1107" font-family="Helvetica,sans-Serif" font-size="10.00">(Entity e) const</text>
<text text-anchor="start" x="5" y="-1092" font-family="Helvetica,sans-Serif" font-size="10.00">+</text>
<text text-anchor="start" x="18" y="-1092" font-family="Helvetica,sans-Serif" font-size="10.00">void setSignature(Entity</text>
<text text-anchor="start" x="18" y="-1081" font-family="Helvetica,sans-Serif" font-size="10.00"> e, Signature sig)</text>
<text text-anchor="start" x="5" y="-1066" font-family="Helvetica,sans-Serif" font-size="10.00">+</text>
<text text-anchor="start" x="18" y="-1066" font-family="Helvetica,sans-Serif" font-size="10.00">Entity addComponent</text>
<text text-anchor="start" x="18" y="-1055" font-family="Helvetica,sans-Serif" font-size="10.00">(Entity e, const Component</text>
<text text-anchor="start" x="18" y="-1044" font-family="Helvetica,sans-Serif" font-size="10.00">Type &amp;component)</text>
<text text-anchor="start" x="5" y="-1029" font-family="Helvetica,sans-Serif" font-size="10.00">+</text>
<text text-anchor="start" x="18" y="-1029" font-family="Helvetica,sans-Serif" font-size="10.00">bool hasComponent(Entity</text>
<text text-anchor="start" x="18" y="-1018" font-family="Helvetica,sans-Serif" font-size="10.00"> e) const</text>
<text text-anchor="start" x="5" y="-1003" font-family="Helvetica,sans-Serif" font-size="10.00">+</text>
<text text-anchor="start" x="18" y="-1003" font-family="Helvetica,sans-Serif" font-size="10.00">const ComponentType</text>
<text text-anchor="start" x="18" y="-992" font-family="Helvetica,sans-Serif" font-size="10.00"> * getConstComponent</text>
<text text-anchor="start" x="18" y="-981" font-family="Helvetica,sans-Serif" font-size="10.00">(Entity e) const</text>
<text text-anchor="start" x="5" y="-966" font-family="Helvetica,sans-Serif" font-size="10.00">+</text>
<text text-anchor="start" x="18" y="-966" font-family="Helvetica,sans-Serif" font-size="10.00">ComponentType * getComponent</text>
<text text-anchor="start" x="18" y="-955" font-family="Helvetica,sans-Serif" font-size="10.00">(Entity e)</text>
<text text-anchor="start" x="5" y="-940" font-family="Helvetica,sans-Serif" font-size="10.00">+</text>
<text text-anchor="start" x="18" y="-940" font-family="Helvetica,sans-Serif" font-size="10.00">std::vector&lt; Entity</text>
<text text-anchor="start" x="18" y="-929" font-family="Helvetica,sans-Serif" font-size="10.00"> &gt; getEntitiesByComponents()</text>
<text text-anchor="start" x="5" y="-914" font-family="Helvetica,sans-Serif" font-size="10.00">+</text>
<text text-anchor="start" x="18" y="-914" font-family="Helvetica,sans-Serif" font-size="10.00">void killComponent</text>
<text text-anchor="start" x="18" y="-903" font-family="Helvetica,sans-Serif" font-size="10.00">(Entity e)</text>
<text text-anchor="start" x="5" y="-888" font-family="Helvetica,sans-Serif" font-size="10.00">+</text>
<text text-anchor="start" x="18" y="-888" font-family="Helvetica,sans-Serif" font-size="10.00">double getTime() const</text>
<text text-anchor="start" x="5" y="-873" font-family="Helvetica,sans-Serif" font-size="10.00">+</text>
<text text-anchor="start" x="18" y="-873" font-family="Helvetica,sans-Serif" font-size="10.00">void addTime(double dt)</text>
<text text-anchor="start" x="7.5" y="-858" font-family="Helvetica,sans-Serif" font-size="10.00">&#45;</text>
<text text-anchor="start" x="18" y="-858" font-family="Helvetica,sans-Serif" font-size="10.00">void verifyComponentStorage</text>
<text text-anchor="start" x="18" y="-847" font-family="Helvetica,sans-Serif" font-size="10.00">(ComponentTypeID TypeID)</text>
<polygon fill="#666666" stroke="#666666" points="1,-1307 1,-1307 185,-1307 185,-1307 1,-1307"/>
<polygon fill="#666666" stroke="#666666" points="1,-1188 1,-1188 16,-1188 16,-1188 1,-1188"/>
<polygon fill="#666666" stroke="#666666" points="16,-1188 16,-1188 185,-1188 185,-1188 16,-1188"/>
<polygon fill="none" stroke="#666666" points="1,-840 1,-1324 185,-1324 185,-840 1,-840"/>
</a>
</g>
</g>
<!-- Node4&#45;&gt;Node3 -->
<g id="edge3_Node000003_Node000004" class="edge">
<title>Node4&#45;&gt;Node3</title>
<g id="a_edge3_Node000003_Node000004"><a xlink:title=" ">
<path fill="none" stroke="#63b8ff" d="M93,-839.76C93,-827.49 93,-815.84 93,-805.17"/>
<polygon fill="none" stroke="#63b8ff" points="93,-805.11 89,-799.11 93,-793.11 97,-799.11 93,-805.11"/>
</a>
</g>
<text text-anchor="middle" x="110" y="-814" font-family="Helvetica,sans-Serif" font-size="10.00" fill="grey"> #_ecs</text>
</g>
</g>
</svg>
