<?xml version="1.0" encoding="UTF-8" standalone="no"?>
<!DOCTYPE svg PUBLIC "-//W3C//DTD SVG 1.1//EN"
 "http://www.w3.org/Graphics/SVG/1.1/DTD/svg11.dtd">
<!-- Generated by graphviz version 2.43.0 (0)
 -->
<!-- Title: PowerUpSystem Pages: 1 -->
<svg width="132pt" height="231pt"
 viewBox="0.00 0.00 132.00 231.00" xmlns="http://www.w3.org/2000/svg" xmlns:xlink="http://www.w3.org/1999/xlink">
<g id="graph0" class="graph" transform="scale(1 1) rotate(0) translate(4 227)">
<title>PowerUpSystem</title>
<!-- Node1 -->
<g id="Node000001" class="node">
<title>Node1</title>
<g id="a_Node000001"><a xlink:title=" ">
<polygon fill="#999999" stroke="transparent" points="124,-86 0,-86 0,0 124,0 124,-86"/>
<text text-anchor="start" x="21.5" y="-74" font-family="Helvetica,sans-Serif" font-size="10.00">PowerUpSystem</text>
<text text-anchor="start" x="60" y="-59" font-family="Helvetica,sans-Serif" font-size="10.00"> </text>
<text text-anchor="start" x="4" y="-44" font-family="Helvetica,sans-Serif" font-size="10.00">+</text>
<text text-anchor="start" x="17" y="-44" font-family="Helvetica,sans-Serif" font-size="10.00">PowerUpSystem(ECS</text>
<text text-anchor="start" x="17" y="-33" font-family="Helvetica,sans-Serif" font-size="10.00"> &amp;ecs)</text>
<text text-anchor="start" x="4" y="-18" font-family="Helvetica,sans-Serif" font-size="10.00">+</text>
<text text-anchor="start" x="17" y="-18" font-family="Helvetica,sans-Serif" font-size="10.00">void update(double</text>
<text text-anchor="start" x="17" y="-7" font-family="Helvetica,sans-Serif" font-size="10.00"> dt) override</text>
<polygon fill="#666666" stroke="#666666" points="0,-69 0,-69 124,-69 124,-69 0,-69"/>
<polygon fill="#666666" stroke="#666666" points="0,-54 0,-54 124,-54 124,-54 0,-54"/>
<polygon fill="none" stroke="#666666" points="0,0 0,-86 124,-86 124,0 0,0"/>
</a>
</g>
</g>
<!-- Node2 -->
<g id="Node000002" class="node">
<title>Node2</title>
<g id="a_Node000002"><a xlink:href="classISystem.html" target="_top" xlink:title="Interface for systems in the ECS.">
<polygon fill="white" stroke="transparent" points="119.5,-223 4.5,-223 4.5,-122 119.5,-122 119.5,-223"/>
<text text-anchor="start" x="42.5" y="-210.5" font-family="Helvetica,sans-Serif" font-size="10.00">ISystem</text>
<text text-anchor="start" x="9" y="-195.5" font-family="Helvetica,sans-Serif" font-size="10.00">#</text>
<text text-anchor="start" x="22" y="-195.5" font-family="Helvetica,sans-Serif" font-size="10.00">ECS &amp; _ecs</text>
<text text-anchor="start" x="9" y="-180.5" font-family="Helvetica,sans-Serif" font-size="10.00">+</text>
<text text-anchor="start" x="22" y="-180.5" font-family="Helvetica,sans-Serif" font-size="10.00">ISystem(ECS &amp;ecs)</text>
<text text-anchor="start" x="9" y="-165.5" font-family="Helvetica,sans-Serif" font-size="10.00">+</text>
<text text-anchor="start" x="22" y="-165.5" font-family="Helvetica,sans-Serif" font-size="10.00">virtual ~ISystem()</text>
<text text-anchor="start" x="22" y="-154.5" font-family="Helvetica,sans-Serif" font-size="10.00">=default</text>
<text text-anchor="start" x="9" y="-139.5" font-family="Helvetica,sans-Serif" font-size="10.00">+</text>
<text text-anchor="start" x="22" y="-139.5" font-family="Helvetica,sans-Serif" font-size="10.00">virtual void update</text>
<text text-anchor="start" x="22" y="-128.5" font-family="Helvetica,sans-Serif" font-size="10.00">(double dt)=0</text>
<polygon fill="#666666" stroke="#666666" points="5,-205.5 5,-205.5 120,-205.5 120,-205.5 5,-205.5"/>
<polygon fill="#666666" stroke="#666666" points="5,-190.5 5,-190.5 20,-190.5 20,-190.5 5,-190.5"/>
<polygon fill="#666666" stroke="#666666" points="20,-190.5 20,-190.5 120,-190.5 120,-190.5 20,-190.5"/>
<polygon fill="none" stroke="#666666" points="4.5,-122 4.5,-223 119.5,-223 119.5,-122 4.5,-122"/>
</a>
</g>
</g>
<!-- Node2&#45;&gt;Node1 -->
<g id="edge1_Node000001_Node000002" class="edge">
<title>Node2&#45;&gt;Node1</title>
<g id="a_edge1_Node000001_Node000002"><a xlink:title=" ">
<path fill="none" stroke="#63b8ff" d="M62,-111.81C62,-103.19 62,-94.47 62,-86.29"/>
<polygon fill="none" stroke="#63b8ff" points="58.5,-111.84 62,-121.84 65.5,-111.84 58.5,-111.84"/>
</a>
</g>
</g>
</g>
</svg>
