<?xml version="1.0" encoding="UTF-8" standalone="no"?>
<!DOCTYPE svg PUBLIC "-//W3C//DTD SVG 1.1//EN"
 "http://www.w3.org/Graphics/SVG/1.1/DTD/svg11.dtd">
<!-- Generated by graphviz version 2.43.0 (0)
 -->
<!-- Title: ISystem Pages: 1 -->
<!--zoomable 614 -->

<svg id="main" version="1.1" xmlns="http://www.w3.org/2000/svg" xmlns:xlink="http://www.w3.org/1999/xlink" xml:space="preserve" onload="init(evt)">
<style type="text/css"><![CDATA[
.node, .edge {opacity: 0.7;}
.node.selected, .edge.selected {opacity: 1;}
.edge:hover path { stroke: red; }
.edge:hover polygon { stroke: red; fill: red; }
]]></style>

<defs>
  <circle id="rim" cx="0" cy="0" r="7"/>
  <circle id="rim2" cx="0" cy="0" r="3.5"/>
  <g id="zoomPlus">
    <use xlink:href="#rim" fill="#404040"><set attributeName="fill" to="#808080" begin="zoomplus.mouseover" end="zoomplus.mouseout"/></use>
    <path d="M-4,0h8M0,-4v8" fill="none" stroke="white" stroke-width="1.5" pointer-events="none"/>
  </g>
  <g id="zoomMin">
    <use xlink:href="#rim" fill="#404040"><set attributeName="fill" to="#808080" begin="zoomminus.mouseover" end="zoomminus.mouseout"/></use>
    <path d="M-4,0h8" fill="none" stroke="white" stroke-width="1.5" pointer-events="none"/>
  </g>
  <g id="arrowUp" transform="translate(30 24)">
    <use xlink:href="#rim"/>
    <path pointer-events="none" fill="none" stroke="white" stroke-width="1.5" d="M0,-3.0v7 M-2.5,-0.5L0,-3.0L2.5,-0.5"/>
  </g>
  <g id="arrowRight" transform="rotate(90) translate(36 -43)">
    <use xlink:href="#rim"/>
    <path pointer-events="none" fill="none" stroke="white" stroke-width="1.5" d="M0,-3.0v7 M-2.5,-0.5L0,-3.0L2.5,-0.5"/>
  </g>
  <g id="arrowDown" transform="rotate(180) translate(-30 -48)">
    <use xlink:href="#rim"/>
    <path pointer-events="none" fill="none" stroke="white" stroke-width="1.5" d="M0,-3.0v7 M-2.5,-0.5L0,-3.0L2.5,-0.5"/>
  </g>
  <g id="arrowLeft" transform="rotate(270) translate(-36 17)">
    <use xlink:href="#rim"/>
    <path pointer-events="none" fill="none" stroke="white" stroke-width="1.5" d="M0,-3.0v7 M-2.5,-0.5L0,-3.0L2.5,-0.5"/>
  </g>
  <g id="resetDef">
    <use xlink:href="#rim2" fill="#404040"><set attributeName="fill" to="#808080" begin="reset.mouseover" end="reset.mouseout"/></use>
  </g>
</defs>
<script type="application/ecmascript">
var viewWidth = 1238;
var viewHeight = 614;
var sectionId = 'dynsection-0';
</script>
<script type="application/ecmascript" xlink:href="svg.min.js"/>
<svg id="graph" class="graph">
<g id="viewport">
<title>ISystem</title>
<!-- Node1 -->
<g id="Node000001" class="node">
<title>Node1</title>
<g id="a_Node000001"><a xlink:title="Interface for systems in the ECS.">
<polygon fill="#999999" stroke="transparent" points="728.5,-606 613.5,-606 613.5,-505 728.5,-505 728.5,-606"/>
<text text-anchor="start" x="651.5" y="-593.5" font-family="Helvetica,sans-Serif" font-size="10.00">ISystem</text>
<text text-anchor="start" x="618" y="-578.5" font-family="Helvetica,sans-Serif" font-size="10.00">#</text>
<text text-anchor="start" x="631" y="-578.5" font-family="Helvetica,sans-Serif" font-size="10.00">ECS &amp; _ecs</text>
<text text-anchor="start" x="618" y="-563.5" font-family="Helvetica,sans-Serif" font-size="10.00">+</text>
<text text-anchor="start" x="631" y="-563.5" font-family="Helvetica,sans-Serif" font-size="10.00">ISystem(ECS &amp;ecs)</text>
<text text-anchor="start" x="618" y="-548.5" font-family="Helvetica,sans-Serif" font-size="10.00">+</text>
<text text-anchor="start" x="631" y="-548.5" font-family="Helvetica,sans-Serif" font-size="10.00">virtual ~ISystem()</text>
<text text-anchor="start" x="631" y="-537.5" font-family="Helvetica,sans-Serif" font-size="10.00">=default</text>
<text text-anchor="start" x="618" y="-522.5" font-family="Helvetica,sans-Serif" font-size="10.00">+</text>
<text text-anchor="start" x="631" y="-522.5" font-family="Helvetica,sans-Serif" font-size="10.00">virtual void update</text>
<text text-anchor="start" x="631" y="-511.5" font-family="Helvetica,sans-Serif" font-size="10.00">(double dt)=0</text>
<polygon fill="#666666" stroke="#666666" points="614,-588.5 614,-588.5 729,-588.5 729,-588.5 614,-588.5"/>
<polygon fill="#666666" stroke="#666666" points="614,-573.5 614,-573.5 629,-573.5 629,-573.5 614,-573.5"/>
<polygon fill="#666666" stroke="#666666" points="629,-573.5 629,-573.5 729,-573.5 729,-573.5 629,-573.5"/>
<polygon fill="none" stroke="#666666" points="613.5,-505 613.5,-606 728.5,-606 728.5,-505 613.5,-505"/>
</a>
</g>
</g>
<!-- Node2 -->
<g id="Node000002" class="node">
<title>Node2</title>
<g id="a_Node000002"><a xlink:href="classCollisionSystem.html" target="_top" xlink:title=" ">
<polygon fill="white" stroke="transparent" points="248,-353 0,-353 0,-116 248,-116 248,-353"/>
<text text-anchor="start" x="84.5" y="-340.5" font-family="Helvetica,sans-Serif" font-size="10.00">CollisionSystem</text>
<text text-anchor="start" x="122" y="-325.5" font-family="Helvetica,sans-Serif" font-size="10.00"> </text>
<text text-anchor="start" x="4" y="-310.5" font-family="Helvetica,sans-Serif" font-size="10.00">+</text>
<text text-anchor="start" x="17" y="-310.5" font-family="Helvetica,sans-Serif" font-size="10.00">CollisionSystem(ECS</text>
<text text-anchor="start" x="17" y="-299.5" font-family="Helvetica,sans-Serif" font-size="10.00"> &amp;ecs)</text>
<text text-anchor="start" x="4" y="-284.5" font-family="Helvetica,sans-Serif" font-size="10.00">+</text>
<text text-anchor="start" x="17" y="-284.5" font-family="Helvetica,sans-Serif" font-size="10.00">void update(double</text>
<text text-anchor="start" x="17" y="-273.5" font-family="Helvetica,sans-Serif" font-size="10.00"> dt) override</text>
<text text-anchor="start" x="6.5" y="-258.5" font-family="Helvetica,sans-Serif" font-size="10.00">&#45;</text>
<text text-anchor="start" x="17" y="-258.5" font-family="Helvetica,sans-Serif" font-size="10.00">bool checkAABB(const</text>
<text text-anchor="start" x="17" y="-247.5" font-family="Helvetica,sans-Serif" font-size="10.00"> Components::Position</text>
<text text-anchor="start" x="17" y="-236.5" font-family="Helvetica,sans-Serif" font-size="10.00"> &amp;pos1, const Components</text>
<text text-anchor="start" x="17" y="-225.5" font-family="Helvetica,sans-Serif" font-size="10.00">::Collider &amp;coll1, const</text>
<text text-anchor="start" x="17" y="-214.5" font-family="Helvetica,sans-Serif" font-size="10.00"> Components::Position &amp;pos2,</text>
<text text-anchor="start" x="17" y="-203.5" font-family="Helvetica,sans-Serif" font-size="10.00"> const Components::Collider</text>
<text text-anchor="start" x="17" y="-192.5" font-family="Helvetica,sans-Serif" font-size="10.00"> &amp;coll2) const</text>
<text text-anchor="start" x="6.5" y="-177.5" font-family="Helvetica,sans-Serif" font-size="10.00">&#45;</text>
<text text-anchor="start" x="17" y="-177.5" font-family="Helvetica,sans-Serif" font-size="10.00">void resolveCollision</text>
<text text-anchor="start" x="17" y="-166.5" font-family="Helvetica,sans-Serif" font-size="10.00">(Components::Position</text>
<text text-anchor="start" x="17" y="-155.5" font-family="Helvetica,sans-Serif" font-size="10.00"> &amp;mobilePos, const Components</text>
<text text-anchor="start" x="17" y="-144.5" font-family="Helvetica,sans-Serif" font-size="10.00">::Collider &amp;mobileColl, const</text>
<text text-anchor="start" x="17" y="-133.5" font-family="Helvetica,sans-Serif" font-size="10.00"> Components::Position &amp;staticPos,</text>
<text text-anchor="start" x="17" y="-122.5" font-family="Helvetica,sans-Serif" font-size="10.00"> const Components::Collider &amp;staticColl) const</text>
<polygon fill="#666666" stroke="#666666" points="0,-335.5 0,-335.5 248,-335.5 248,-335.5 0,-335.5"/>
<polygon fill="#666666" stroke="#666666" points="0,-320.5 0,-320.5 248,-320.5 248,-320.5 0,-320.5"/>
<polygon fill="none" stroke="#666666" points="0,-116 0,-353 248,-353 248,-116 0,-116"/>
</a>
</g>
</g>
<!-- Node1&#45;&gt;Node2 -->
<g id="edge1_Node000001_Node000002" class="edge">
<title>Node1&#45;&gt;Node2</title>
<g id="a_edge1_Node000001_Node000002"><a xlink:title=" ">
<path fill="none" stroke="#63b8ff" d="M603.53,-547.36C500.85,-535.39 311.52,-508.61 257,-469 217.28,-440.14 187.73,-395.54 166.72,-353.02"/>
<polygon fill="none" stroke="#63b8ff" points="603.15,-550.84 613.49,-548.51 603.96,-543.89 603.15,-550.84"/>
</a>
</g>
</g>
<!-- Node3 -->
<g id="Node000003" class="node">
<title>Node3</title>
<g id="a_Node000003"><a xlink:href="classInputSystem.html" target="_top" xlink:title=" ">
<polygon fill="white" stroke="transparent" points="452,-469 266,-469 266,0 452,0 452,-469"/>
<text text-anchor="start" x="328" y="-456.5" font-family="Helvetica,sans-Serif" font-size="10.00">InputSystem</text>
<text text-anchor="start" x="272.5" y="-441.5" font-family="Helvetica,sans-Serif" font-size="10.00">&#45;</text>
<text text-anchor="start" x="283" y="-441.5" font-family="Helvetica,sans-Serif" font-size="10.00">std::map&lt; sf::Keyboard</text>
<text text-anchor="start" x="283" y="-430.5" font-family="Helvetica,sans-Serif" font-size="10.00">::Key, GameAction &gt; m</text>
<text text-anchor="start" x="283" y="-419.5" font-family="Helvetica,sans-Serif" font-size="10.00">_keyMappings</text>
<text text-anchor="start" x="272.5" y="-404.5" font-family="Helvetica,sans-Serif" font-size="10.00">&#45;</text>
<text text-anchor="start" x="283" y="-404.5" font-family="Helvetica,sans-Serif" font-size="10.00">std::map&lt; unsigned</text>
<text text-anchor="start" x="283" y="-393.5" font-family="Helvetica,sans-Serif" font-size="10.00"> int, GameAction &gt; m</text>
<text text-anchor="start" x="283" y="-382.5" font-family="Helvetica,sans-Serif" font-size="10.00">_joystickButtonMappings</text>
<text text-anchor="start" x="272.5" y="-367.5" font-family="Helvetica,sans-Serif" font-size="10.00">&#45;</text>
<text text-anchor="start" x="283" y="-367.5" font-family="Helvetica,sans-Serif" font-size="10.00">std::map&lt; GameAction,</text>
<text text-anchor="start" x="283" y="-356.5" font-family="Helvetica,sans-Serif" font-size="10.00"> bool &gt; m_currentActionStates</text>
<text text-anchor="start" x="272.5" y="-341.5" font-family="Helvetica,sans-Serif" font-size="10.00">&#45;</text>
<text text-anchor="start" x="283" y="-341.5" font-family="Helvetica,sans-Serif" font-size="10.00">std::map&lt; GameAction,</text>
<text text-anchor="start" x="283" y="-330.5" font-family="Helvetica,sans-Serif" font-size="10.00"> bool &gt; m_previousActionStates</text>
<text text-anchor="start" x="272.5" y="-315.5" font-family="Helvetica,sans-Serif" font-size="10.00">&#45;</text>
<text text-anchor="start" x="283" y="-315.5" font-family="Helvetica,sans-Serif" font-size="10.00">unsigned int m_joystickId</text>
<text text-anchor="start" x="272.5" y="-300.5" font-family="Helvetica,sans-Serif" font-size="10.00">&#45;</text>
<text text-anchor="start" x="283" y="-300.5" font-family="Helvetica,sans-Serif" font-size="10.00">float m_deadzone</text>
<text text-anchor="start" x="272.5" y="-285.5" font-family="Helvetica,sans-Serif" font-size="10.00">&#45;</text>
<text text-anchor="start" x="283" y="-285.5" font-family="Helvetica,sans-Serif" font-size="10.00">float m_playerSpeed</text>
<text text-anchor="start" x="270" y="-270.5" font-family="Helvetica,sans-Serif" font-size="10.00">+</text>
<text text-anchor="start" x="283" y="-270.5" font-family="Helvetica,sans-Serif" font-size="10.00">InputSystem(ECS &amp;ecs)</text>
<text text-anchor="start" x="270" y="-255.5" font-family="Helvetica,sans-Serif" font-size="10.00">+</text>
<text text-anchor="start" x="283" y="-255.5" font-family="Helvetica,sans-Serif" font-size="10.00">~InputSystem()=default</text>
<text text-anchor="start" x="270" y="-240.5" font-family="Helvetica,sans-Serif" font-size="10.00">+</text>
<text text-anchor="start" x="283" y="-240.5" font-family="Helvetica,sans-Serif" font-size="10.00">void update(double</text>
<text text-anchor="start" x="283" y="-229.5" font-family="Helvetica,sans-Serif" font-size="10.00"> dt) override</text>
<text text-anchor="start" x="270" y="-214.5" font-family="Helvetica,sans-Serif" font-size="10.00">+</text>
<text text-anchor="start" x="283" y="-214.5" font-family="Helvetica,sans-Serif" font-size="10.00">bool isActionActive</text>
<text text-anchor="start" x="283" y="-203.5" font-family="Helvetica,sans-Serif" font-size="10.00">(GameAction action) const</text>
<text text-anchor="start" x="270" y="-188.5" font-family="Helvetica,sans-Serif" font-size="10.00">+</text>
<text text-anchor="start" x="283" y="-188.5" font-family="Helvetica,sans-Serif" font-size="10.00">bool wasActionPressed</text>
<text text-anchor="start" x="283" y="-177.5" font-family="Helvetica,sans-Serif" font-size="10.00">(GameAction action) const</text>
<text text-anchor="start" x="270" y="-162.5" font-family="Helvetica,sans-Serif" font-size="10.00">+</text>
<text text-anchor="start" x="283" y="-162.5" font-family="Helvetica,sans-Serif" font-size="10.00">bool wasActionReleased</text>
<text text-anchor="start" x="283" y="-151.5" font-family="Helvetica,sans-Serif" font-size="10.00">(GameAction action) const</text>
<text text-anchor="start" x="270" y="-136.5" font-family="Helvetica,sans-Serif" font-size="10.00">+</text>
<text text-anchor="start" x="283" y="-136.5" font-family="Helvetica,sans-Serif" font-size="10.00">void setKeyMapping</text>
<text text-anchor="start" x="283" y="-125.5" font-family="Helvetica,sans-Serif" font-size="10.00">(sf::Keyboard::Key key,</text>
<text text-anchor="start" x="283" y="-114.5" font-family="Helvetica,sans-Serif" font-size="10.00"> GameAction action)</text>
<text text-anchor="start" x="270" y="-99.5" font-family="Helvetica,sans-Serif" font-size="10.00">+</text>
<text text-anchor="start" x="283" y="-99.5" font-family="Helvetica,sans-Serif" font-size="10.00">void setJoystickButtonMapping</text>
<text text-anchor="start" x="283" y="-88.5" font-family="Helvetica,sans-Serif" font-size="10.00">(unsigned int button, GameAction</text>
<text text-anchor="start" x="283" y="-77.5" font-family="Helvetica,sans-Serif" font-size="10.00"> action)</text>
<text text-anchor="start" x="270" y="-62.5" font-family="Helvetica,sans-Serif" font-size="10.00">+</text>
<text text-anchor="start" x="283" y="-62.5" font-family="Helvetica,sans-Serif" font-size="10.00">void setDeadzone(float</text>
<text text-anchor="start" x="283" y="-51.5" font-family="Helvetica,sans-Serif" font-size="10.00"> deadzone)</text>
<text text-anchor="start" x="272.5" y="-36.5" font-family="Helvetica,sans-Serif" font-size="10.00">&#45;</text>
<text text-anchor="start" x="283" y="-36.5" font-family="Helvetica,sans-Serif" font-size="10.00">void setDefaultMappings()</text>
<text text-anchor="start" x="272.5" y="-21.5" font-family="Helvetica,sans-Serif" font-size="10.00">&#45;</text>
<text text-anchor="start" x="283" y="-21.5" font-family="Helvetica,sans-Serif" font-size="10.00">void updateJoystickInput()</text>
<text text-anchor="start" x="272.5" y="-6.5" font-family="Helvetica,sans-Serif" font-size="10.00">&#45;</text>
<text text-anchor="start" x="283" y="-6.5" font-family="Helvetica,sans-Serif" font-size="10.00">void applyInputToPlayers()</text>
<polygon fill="#666666" stroke="#666666" points="266,-451.5 266,-451.5 452,-451.5 452,-451.5 266,-451.5"/>
<polygon fill="#666666" stroke="#666666" points="266,-280.5 266,-280.5 281,-280.5 281,-280.5 266,-280.5"/>
<polygon fill="#666666" stroke="#666666" points="281,-280.5 281,-280.5 452,-280.5 452,-280.5 281,-280.5"/>
<polygon fill="none" stroke="#666666" points="266,0 266,-469 452,-469 452,0 266,0"/>
</a>
</g>
</g>
<!-- Node1&#45;&gt;Node3 -->
<g id="edge2_Node000001_Node000003" class="edge">
<title>Node1&#45;&gt;Node3</title>
<g id="a_edge2_Node000001_Node000003"><a xlink:title=" ">
<path fill="none" stroke="#63b8ff" d="M603.41,-541.01C558.17,-528.92 499.99,-507.02 461,-469 457.99,-466.07 455.07,-463.03 452.22,-459.9"/>
<polygon fill="none" stroke="#63b8ff" points="602.59,-544.42 613.15,-543.52 604.34,-537.64 602.59,-544.42"/>
</a>
</g>
</g>
<!-- Node4 -->
<g id="Node000004" class="node">
<title>Node4</title>
<g id="a_Node000004"><a xlink:href="classMissileSystem.html" target="_top" xlink:title=" ">
<polygon fill="white" stroke="transparent" points="586,-277.5 470,-277.5 470,-191.5 586,-191.5 586,-277.5"/>
<text text-anchor="start" x="492" y="-265.5" font-family="Helvetica,sans-Serif" font-size="10.00">MissileSystem</text>
<text text-anchor="start" x="526" y="-250.5" font-family="Helvetica,sans-Serif" font-size="10.00"> </text>
<text text-anchor="start" x="474" y="-235.5" font-family="Helvetica,sans-Serif" font-size="10.00">+</text>
<text text-anchor="start" x="487" y="-235.5" font-family="Helvetica,sans-Serif" font-size="10.00">MissileSystem(ECS</text>
<text text-anchor="start" x="487" y="-224.5" font-family="Helvetica,sans-Serif" font-size="10.00"> &amp;ecs)</text>
<text text-anchor="start" x="474" y="-209.5" font-family="Helvetica,sans-Serif" font-size="10.00">+</text>
<text text-anchor="start" x="487" y="-209.5" font-family="Helvetica,sans-Serif" font-size="10.00">void update(double</text>
<text text-anchor="start" x="487" y="-198.5" font-family="Helvetica,sans-Serif" font-size="10.00"> dt) override</text>
<polygon fill="#666666" stroke="#666666" points="470,-260.5 470,-260.5 586,-260.5 586,-260.5 470,-260.5"/>
<polygon fill="#666666" stroke="#666666" points="470,-245.5 470,-245.5 586,-245.5 586,-245.5 470,-245.5"/>
<polygon fill="none" stroke="#666666" points="470,-191.5 470,-277.5 586,-277.5 586,-191.5 470,-191.5"/>
</a>
</g>
</g>
<!-- Node1&#45;&gt;Node4 -->
<g id="edge3_Node000001_Node000004" class="edge">
<title>Node1&#45;&gt;Node4</title>
<g id="a_edge3_Node000001_Node000004"><a xlink:title=" ">
<path fill="none" stroke="#63b8ff" d="M613.8,-496.9C606.81,-488.02 600.28,-478.59 595,-469 560.94,-407.11 542.77,-326.25 534.28,-277.73"/>
<polygon fill="none" stroke="#63b8ff" points="611.3,-499.37 620.34,-504.9 616.72,-494.94 611.3,-499.37"/>
</a>
</g>
</g>
<!-- Node5 -->
<g id="Node000005" class="node">
<title>Node5</title>
<g id="a_Node000005"><a xlink:href="classMovementSystem.html" target="_top" xlink:title=" ">
<polygon fill="white" stroke="transparent" points="737.5,-277.5 604.5,-277.5 604.5,-191.5 737.5,-191.5 737.5,-277.5"/>
<text text-anchor="start" x="626.5" y="-265.5" font-family="Helvetica,sans-Serif" font-size="10.00">MovementSystem</text>
<text text-anchor="start" x="669.5" y="-250.5" font-family="Helvetica,sans-Serif" font-size="10.00"> </text>
<text text-anchor="start" x="609" y="-235.5" font-family="Helvetica,sans-Serif" font-size="10.00">+</text>
<text text-anchor="start" x="622" y="-235.5" font-family="Helvetica,sans-Serif" font-size="10.00">MovementSystem(ECS</text>
<text text-anchor="start" x="622" y="-224.5" font-family="Helvetica,sans-Serif" font-size="10.00"> &amp;ecs)</text>
<text text-anchor="start" x="609" y="-209.5" font-family="Helvetica,sans-Serif" font-size="10.00">+</text>
<text text-anchor="start" x="622" y="-209.5" font-family="Helvetica,sans-Serif" font-size="10.00">void update(double</text>
<text text-anchor="start" x="622" y="-198.5" font-family="Helvetica,sans-Serif" font-size="10.00"> dt) override</text>
<polygon fill="#666666" stroke="#666666" points="605,-260.5 605,-260.5 738,-260.5 738,-260.5 605,-260.5"/>
<polygon fill="#666666" stroke="#666666" points="605,-245.5 605,-245.5 738,-245.5 738,-245.5 605,-245.5"/>
<polygon fill="none" stroke="#666666" points="604.5,-191.5 604.5,-277.5 737.5,-277.5 737.5,-191.5 604.5,-191.5"/>
</a>
</g>
</g>
<!-- Node1&#45;&gt;Node5 -->
<g id="edge4_Node000001_Node000005" class="edge">
<title>Node1&#45;&gt;Node5</title>
<g id="a_edge4_Node000001_Node000005"><a xlink:title=" ">
<path fill="none" stroke="#63b8ff" d="M671,-494.44C671,-431.25 671,-333.42 671,-277.86"/>
<polygon fill="none" stroke="#63b8ff" points="667.5,-494.66 671,-504.66 674.5,-494.66 667.5,-494.66"/>
</a>
</g>
</g>
<!-- Node6 -->
<g id="Node000006" class="node">
<title>Node6</title>
<g id="a_Node000006"><a xlink:href="classPowerUpSystem.html" target="_top" xlink:title=" ">
<polygon fill="white" stroke="transparent" points="880,-277.5 756,-277.5 756,-191.5 880,-191.5 880,-277.5"/>
<text text-anchor="start" x="777.5" y="-265.5" font-family="Helvetica,sans-Serif" font-size="10.00">PowerUpSystem</text>
<text text-anchor="start" x="816" y="-250.5" font-family="Helvetica,sans-Serif" font-size="10.00"> </text>
<text text-anchor="start" x="760" y="-235.5" font-family="Helvetica,sans-Serif" font-size="10.00">+</text>
<text text-anchor="start" x="773" y="-235.5" font-family="Helvetica,sans-Serif" font-size="10.00">PowerUpSystem(ECS</text>
<text text-anchor="start" x="773" y="-224.5" font-family="Helvetica,sans-Serif" font-size="10.00"> &amp;ecs)</text>
<text text-anchor="start" x="760" y="-209.5" font-family="Helvetica,sans-Serif" font-size="10.00">+</text>
<text text-anchor="start" x="773" y="-209.5" font-family="Helvetica,sans-Serif" font-size="10.00">void update(double</text>
<text text-anchor="start" x="773" y="-198.5" font-family="Helvetica,sans-Serif" font-size="10.00"> dt) override</text>
<polygon fill="#666666" stroke="#666666" points="756,-260.5 756,-260.5 880,-260.5 880,-260.5 756,-260.5"/>
<polygon fill="#666666" stroke="#666666" points="756,-245.5 756,-245.5 880,-245.5 880,-245.5 756,-245.5"/>
<polygon fill="none" stroke="#666666" points="756,-191.5 756,-277.5 880,-277.5 880,-191.5 756,-191.5"/>
</a>
</g>
</g>
<!-- Node1&#45;&gt;Node6 -->
<g id="edge5_Node000001_Node000006" class="edge">
<title>Node1&#45;&gt;Node6</title>
<g id="a_edge5_Node000001_Node000006"><a xlink:title=" ">
<path fill="none" stroke="#63b8ff" d="M728.06,-496.83C735.07,-487.95 741.65,-478.55 747,-469 781.7,-407.09 801.39,-326.23 810.85,-277.73"/>
<polygon fill="none" stroke="#63b8ff" points="725.14,-494.86 721.51,-504.82 730.56,-499.3 725.14,-494.86"/>
</a>
</g>
</g>
<!-- Node7 -->
<g id="Node000007" class="node">
<title>Node7</title>
<g id="a_Node000007"><a xlink:href="classRenderSystem.html" target="_top" xlink:title=" ">
<polygon fill="white" stroke="transparent" points="1062,-283 898,-283 898,-186 1062,-186 1062,-283"/>
<text text-anchor="start" x="944" y="-270.5" font-family="Helvetica,sans-Serif" font-size="10.00">RenderSystem</text>
<text text-anchor="start" x="904.5" y="-255.5" font-family="Helvetica,sans-Serif" font-size="10.00">&#45;</text>
<text text-anchor="start" x="915" y="-255.5" font-family="Helvetica,sans-Serif" font-size="10.00">sf::RenderWindow &amp;</text>
<text text-anchor="start" x="915" y="-244.5" font-family="Helvetica,sans-Serif" font-size="10.00"> _window</text>
<text text-anchor="start" x="902" y="-229.5" font-family="Helvetica,sans-Serif" font-size="10.00">+</text>
<text text-anchor="start" x="915" y="-229.5" font-family="Helvetica,sans-Serif" font-size="10.00">RenderSystem(ECS &amp;ecs,</text>
<text text-anchor="start" x="915" y="-218.5" font-family="Helvetica,sans-Serif" font-size="10.00"> sf::RenderWindow &amp;window)</text>
<text text-anchor="start" x="902" y="-203.5" font-family="Helvetica,sans-Serif" font-size="10.00">+</text>
<text text-anchor="start" x="915" y="-203.5" font-family="Helvetica,sans-Serif" font-size="10.00">void update(double</text>
<text text-anchor="start" x="915" y="-192.5" font-family="Helvetica,sans-Serif" font-size="10.00"> dt) override</text>
<polygon fill="#666666" stroke="#666666" points="898,-265.5 898,-265.5 1062,-265.5 1062,-265.5 898,-265.5"/>
<polygon fill="#666666" stroke="#666666" points="898,-239.5 898,-239.5 913,-239.5 913,-239.5 898,-239.5"/>
<polygon fill="#666666" stroke="#666666" points="913,-239.5 913,-239.5 1062,-239.5 1062,-239.5 913,-239.5"/>
<polygon fill="none" stroke="#666666" points="898,-186 898,-283 1062,-283 1062,-186 898,-186"/>
</a>
</g>
</g>
<!-- Node1&#45;&gt;Node7 -->
<g id="edge6_Node000001_Node000007" class="edge">
<title>Node1&#45;&gt;Node7</title>
<g id="a_edge6_Node000001_Node000007"><a xlink:title=" ">
<path fill="none" stroke="#63b8ff" d="M738.5,-542.91C786.1,-531.53 848.38,-509.7 889,-469 939.86,-418.03 962.99,-335.37 972.99,-283.3"/>
<polygon fill="none" stroke="#63b8ff" points="737.54,-539.54 728.57,-545.18 739.1,-546.36 737.54,-539.54"/>
</a>
</g>
</g>
<!-- Node8 -->
<g id="Node000008" class="node">
<title>Node8</title>
<g id="a_Node000008"><a xlink:href="classWaveSystem.html" target="_top" xlink:title=" ">
<polygon fill="white" stroke="transparent" points="1229.5,-311 1080.5,-311 1080.5,-158 1229.5,-158 1229.5,-311"/>
<text text-anchor="start" x="1123.5" y="-298.5" font-family="Helvetica,sans-Serif" font-size="10.00">WaveSystem</text>
<text text-anchor="start" x="1087.5" y="-283.5" font-family="Helvetica,sans-Serif" font-size="10.00">&#45;</text>
<text text-anchor="start" x="1098" y="-283.5" font-family="Helvetica,sans-Serif" font-size="10.00">std::vector&lt; Components</text>
<text text-anchor="start" x="1098" y="-272.5" font-family="Helvetica,sans-Serif" font-size="10.00">::WaveData &gt; _waves</text>
<text text-anchor="start" x="1087.5" y="-257.5" font-family="Helvetica,sans-Serif" font-size="10.00">&#45;</text>
<text text-anchor="start" x="1098" y="-257.5" font-family="Helvetica,sans-Serif" font-size="10.00">size_t _currentWave</text>
<text text-anchor="start" x="1087.5" y="-242.5" font-family="Helvetica,sans-Serif" font-size="10.00">&#45;</text>
<text text-anchor="start" x="1098" y="-242.5" font-family="Helvetica,sans-Serif" font-size="10.00">float _timer</text>
<text text-anchor="start" x="1085" y="-227.5" font-family="Helvetica,sans-Serif" font-size="10.00">+</text>
<text text-anchor="start" x="1098" y="-227.5" font-family="Helvetica,sans-Serif" font-size="10.00">WaveSystem(ECS &amp;ecs)</text>
<text text-anchor="start" x="1085" y="-212.5" font-family="Helvetica,sans-Serif" font-size="10.00">+</text>
<text text-anchor="start" x="1098" y="-212.5" font-family="Helvetica,sans-Serif" font-size="10.00">void loadLevel(const</text>
<text text-anchor="start" x="1098" y="-201.5" font-family="Helvetica,sans-Serif" font-size="10.00"> std::vector&lt; Components</text>
<text text-anchor="start" x="1098" y="-190.5" font-family="Helvetica,sans-Serif" font-size="10.00">::WaveData &gt; &amp;waves)</text>
<text text-anchor="start" x="1085" y="-175.5" font-family="Helvetica,sans-Serif" font-size="10.00">+</text>
<text text-anchor="start" x="1098" y="-175.5" font-family="Helvetica,sans-Serif" font-size="10.00">void update(double</text>
<text text-anchor="start" x="1098" y="-164.5" font-family="Helvetica,sans-Serif" font-size="10.00"> dt) override</text>
<polygon fill="#666666" stroke="#666666" points="1081,-293.5 1081,-293.5 1230,-293.5 1230,-293.5 1081,-293.5"/>
<polygon fill="#666666" stroke="#666666" points="1081,-237.5 1081,-237.5 1096,-237.5 1096,-237.5 1081,-237.5"/>
<polygon fill="#666666" stroke="#666666" points="1096,-237.5 1096,-237.5 1230,-237.5 1230,-237.5 1096,-237.5"/>
<polygon fill="none" stroke="#666666" points="1080.5,-158 1080.5,-311 1229.5,-311 1229.5,-158 1080.5,-158"/>
</a>
</g>
</g>
<!-- Node1&#45;&gt;Node8 -->
<g id="edge7_Node000001_Node000008" class="edge">
<title>Node1&#45;&gt;Node8</title>
<g id="a_edge7_Node000001_Node000008"><a xlink:title=" ">
<path fill="none" stroke="#63b8ff" d="M738.94,-547.94C839.73,-536.93 1022.2,-511.63 1071,-469 1116.5,-429.25 1137.36,-362.97 1146.92,-311.16"/>
<polygon fill="none" stroke="#63b8ff" points="738.43,-544.48 728.86,-549.03 739.18,-551.44 738.43,-544.48"/>
</a>
</g>
</g>
</g>
</svg>

<g id="navigator" transform="translate(0 0)" fill="#404254">
  <rect fill="#f2f5e9" fill-opacity="0.5" stroke="#606060" stroke-width=".5" x="0" y="0" width="60" height="60"/>
  <use id="zoomplus" xlink:href="#zoomPlus" x="17" y="9" onmousedown="handleZoom(evt,'in')"/>
  <use id="zoomminus" xlink:href="#zoomMin" x="42" y="9" onmousedown="handleZoom(evt,'out')"/>
  <use id="reset" xlink:href="#resetDef" x="30" y="36" onmousedown="handleReset()"/>
   <use id="arrowup" xlink:href="#arrowUp" x="0" y="0" onmousedown="handlePan(0,-1)"/>
  <use id="arrowright" xlink:href="#arrowRight" x="0" y="0" onmousedown="handlePan(1,0)"/>
  <use id="arrowdown" xlink:href="#arrowDown" x="0" y="0" onmousedown="handlePan(0,1)"/>
  <use id="arrowleft" xlink:href="#arrowLeft" x="0" y="0" onmousedown="handlePan(-1,0)"/>
</g>
<svg viewBox="0 0 15 15" width="100%" height="30px" preserveAspectRatio="xMaxYMin meet">
 <g id="arrow_out" transform="scale(0.3 0.3)">
  <a xlink:href="classISystem__inherit__graph_org.svg" target="_base">
   <rect id="button" ry="5" rx="5" y="6" x="6" height="38" width="38"
        fill="#f2f5e9" fill-opacity="0.5" stroke="#606060" stroke-width="1.0"/>
   <path id="arrow"
     d="M 11.500037,31.436501 C 11.940474,20.09759 22.043105,11.32322 32.158766,21.979434 L 37.068811,17.246167 C 37.068811,17.246167 37.088388,32 37.088388,32 L 22.160133,31.978069 C 22.160133,31.978069 26.997745,27.140456 26.997745,27.140456 C 18.528582,18.264221 13.291696,25.230495 11.500037,31.436501 z"
     style="fill:#404040;"/>
  </a>
 </g>
</svg>

<style type='text/css'>
<![CDATA[
[data-mouse-over-selected='false'] { opacity: 0.7; }
[data-mouse-over-selected='true']  { opacity: 1.0; }
]]>
</style>
<script type="application/ecmascript"><![CDATA[
document.addEventListener('DOMContentLoaded', (event) => {
  highlightEdges();
  highlightAdjacentNodes();
});
]]></script>
</svg>
