<?xml version="1.0" encoding="UTF-8" standalone="no"?>
<!DOCTYPE svg PUBLIC "-//W3C//DTD SVG 1.1//EN"
 "http://www.w3.org/Graphics/SVG/1.1/DTD/svg11.dtd">
<!-- Generated by graphviz version 2.43.0 (0)
 -->
<!-- Title: include/engine/systems/Components.hpp Pages: 1 -->
<!--zoomable 225 -->

<svg id="main" version="1.1" xmlns="http://www.w3.org/2000/svg" xmlns:xlink="http://www.w3.org/1999/xlink" xml:space="preserve" onload="init(evt)">
<style type="text/css"><![CDATA[
.node, .edge {opacity: 0.7;}
.node.selected, .edge.selected {opacity: 1;}
.edge:hover path { stroke: red; }
.edge:hover polygon { stroke: red; fill: red; }
]]></style>

<defs>
  <circle id="rim" cx="0" cy="0" r="7"/>
  <circle id="rim2" cx="0" cy="0" r="3.5"/>
  <g id="zoomPlus">
    <use xlink:href="#rim" fill="#404040"><set attributeName="fill" to="#808080" begin="zoomplus.mouseover" end="zoomplus.mouseout"/></use>
    <path d="M-4,0h8M0,-4v8" fill="none" stroke="white" stroke-width="1.5" pointer-events="none"/>
  </g>
  <g id="zoomMin">
    <use xlink:href="#rim" fill="#404040"><set attributeName="fill" to="#808080" begin="zoomminus.mouseover" end="zoomminus.mouseout"/></use>
    <path d="M-4,0h8" fill="none" stroke="white" stroke-width="1.5" pointer-events="none"/>
  </g>
  <g id="arrowUp" transform="translate(30 24)">
    <use xlink:href="#rim"/>
    <path pointer-events="none" fill="none" stroke="white" stroke-width="1.5" d="M0,-3.0v7 M-2.5,-0.5L0,-3.0L2.5,-0.5"/>
  </g>
  <g id="arrowRight" transform="rotate(90) translate(36 -43)">
    <use xlink:href="#rim"/>
    <path pointer-events="none" fill="none" stroke="white" stroke-width="1.5" d="M0,-3.0v7 M-2.5,-0.5L0,-3.0L2.5,-0.5"/>
  </g>
  <g id="arrowDown" transform="rotate(180) translate(-30 -48)">
    <use xlink:href="#rim"/>
    <path pointer-events="none" fill="none" stroke="white" stroke-width="1.5" d="M0,-3.0v7 M-2.5,-0.5L0,-3.0L2.5,-0.5"/>
  </g>
  <g id="arrowLeft" transform="rotate(270) translate(-36 17)">
    <use xlink:href="#rim"/>
    <path pointer-events="none" fill="none" stroke="white" stroke-width="1.5" d="M0,-3.0v7 M-2.5,-0.5L0,-3.0L2.5,-0.5"/>
  </g>
  <g id="resetDef">
    <use xlink:href="#rim2" fill="#404040"><set attributeName="fill" to="#808080" begin="reset.mouseover" end="reset.mouseout"/></use>
  </g>
</defs>
<script type="application/ecmascript">
var viewWidth = 1639;
var viewHeight = 225;
var sectionId = 'dynsection-1';
</script>
<script type="application/ecmascript" xlink:href="svg.min.js"/>
<svg id="graph" class="graph">
<g id="viewport">
<title>include/engine/systems/Components.hpp</title>
<!-- Node1 -->
<g id="Node000001" class="node">
<title>Node1</title>
<g id="a_Node000001"><a xlink:title=" ">
<polygon fill="#999999" stroke="#666666" points="945.5,-217 813.5,-217 813.5,-187 945.5,-187 945.5,-217"/>
<text text-anchor="start" x="821.5" y="-205" font-family="Helvetica,sans-Serif" font-size="10.00">include/engine/systems</text>
<text text-anchor="middle" x="879.5" y="-194" font-family="Helvetica,sans-Serif" font-size="10.00">/Components.hpp</text>
</a>
</g>
</g>
<!-- Node2 -->
<g id="Node000002" class="node">
<title>Node2</title>
<g id="a_Node000002"><a xlink:href="CollisionSystem_8hpp.html" target="_top" xlink:title=" ">
<polygon fill="white" stroke="#666666" points="150.5,-85 18.5,-85 18.5,-55 150.5,-55 150.5,-85"/>
<text text-anchor="start" x="26.5" y="-73" font-family="Helvetica,sans-Serif" font-size="10.00">include/engine/systems</text>
<text text-anchor="middle" x="84.5" y="-62" font-family="Helvetica,sans-Serif" font-size="10.00">/CollisionSystem.hpp</text>
</a>
</g>
</g>
<!-- Node1&#45;&gt;Node2 -->
<g id="edge1_Node000001_Node000002" class="edge">
<title>Node1&#45;&gt;Node2</title>
<g id="a_edge1_Node000001_Node000002"><a xlink:title=" ">
<path fill="none" stroke="#63b8ff" d="M802.89,-196.78C706.36,-190.64 535.65,-177.01 391.5,-151 297.05,-133.96 188.95,-103.05 129.53,-85.05"/>
<polygon fill="#63b8ff" stroke="#63b8ff" points="802.95,-200.29 813.15,-197.42 803.38,-193.31 802.95,-200.29"/>
</a>
</g>
</g>
<!-- Node3 -->
<g id="Node000003" class="node">
<title>Node3</title>
<g id="a_Node000003"><a xlink:href="server_8hpp.html" target="_top" xlink:title=" ">
<polygon fill="white" stroke="#666666" points="304.5,-19 164.5,-19 164.5,0 304.5,0 304.5,-19"/>
<text text-anchor="middle" x="234.5" y="-7" font-family="Helvetica,sans-Serif" font-size="10.00">include/server/server.hpp</text>
</a>
</g>
</g>
<!-- Node1&#45;&gt;Node3 -->
<g id="edge22_Node000001_Node000003" class="edge">
<title>Node1&#45;&gt;Node3</title>
<g id="a_edge22_Node000001_Node000003"><a xlink:title=" ">
<path fill="none" stroke="#63b8ff" d="M802.74,-199.15C685.21,-195.34 453.94,-183.98 260.5,-151 146.8,-131.61 79.94,-176.35 9.5,-85 -33.84,-28.79 83.39,-14.5 164.47,-11.17"/>
<polygon fill="#63b8ff" stroke="#63b8ff" points="802.96,-202.66 813.07,-199.47 803.18,-195.66 802.96,-202.66"/>
</a>
</g>
</g>
<!-- Node4 -->
<g id="Node000004" class="node">
<title>Node4</title>
<g id="a_Node000004"><a xlink:href="systems_2EntityFactory_8hpp.html" target="_top" xlink:title=" ">
<polygon fill="white" stroke="#666666" points="1180.5,-151 1048.5,-151 1048.5,-121 1180.5,-121 1180.5,-151"/>
<text text-anchor="start" x="1056.5" y="-139" font-family="Helvetica,sans-Serif" font-size="10.00">include/engine/systems</text>
<text text-anchor="middle" x="1114.5" y="-128" font-family="Helvetica,sans-Serif" font-size="10.00">/EntityFactory.hpp</text>
</a>
</g>
</g>
<!-- Node1&#45;&gt;Node4 -->
<g id="edge3_Node000001_Node000004" class="edge">
<title>Node1&#45;&gt;Node4</title>
<g id="a_edge3_Node000001_Node000004"><a xlink:title=" ">
<path fill="none" stroke="#63b8ff" d="M940.99,-184.25C978.96,-173.91 1027.11,-160.8 1063.05,-151.01"/>
<polygon fill="#63b8ff" stroke="#63b8ff" points="939.8,-180.95 931.07,-186.95 941.64,-187.7 939.8,-180.95"/>
</a>
</g>
</g>
<!-- Node5 -->
<g id="Node000005" class="node">
<title>Node5</title>
<g id="a_Node000005"><a xlink:href="InputSystem_8hpp.html" target="_top" xlink:title=" ">
<polygon fill="white" stroke="#666666" points="992.5,-151 860.5,-151 860.5,-121 992.5,-121 992.5,-151"/>
<text text-anchor="start" x="868.5" y="-139" font-family="Helvetica,sans-Serif" font-size="10.00">include/engine/systems</text>
<text text-anchor="middle" x="926.5" y="-128" font-family="Helvetica,sans-Serif" font-size="10.00">/InputSystem.hpp</text>
</a>
</g>
</g>
<!-- Node1&#45;&gt;Node5 -->
<g id="edge4_Node000001_Node000005" class="edge">
<title>Node1&#45;&gt;Node5</title>
<g id="a_edge4_Node000001_Node000005"><a xlink:title=" ">
<path fill="none" stroke="#63b8ff" d="M896.01,-178.53C902.69,-169.43 910.2,-159.19 916.1,-151.16"/>
<polygon fill="#63b8ff" stroke="#63b8ff" points="893.03,-176.66 889.93,-186.8 898.67,-180.81 893.03,-176.66"/>
</a>
</g>
</g>
<!-- Node7 -->
<g id="Node000007" class="node">
<title>Node7</title>
<g id="a_Node000007"><a xlink:href="client_8hpp.html" target="_top" xlink:title=" ">
<polygon fill="white" stroke="#666666" points="920,-19 783,-19 783,0 920,0 920,-19"/>
<text text-anchor="middle" x="851.5" y="-7" font-family="Helvetica,sans-Serif" font-size="10.00">include/server/client.hpp</text>
</a>
</g>
</g>
<!-- Node1&#45;&gt;Node7 -->
<g id="edge21_Node000001_Node000007" class="edge">
<title>Node1&#45;&gt;Node7</title>
<g id="a_edge21_Node000001_Node000007"><a xlink:title=" ">
<path fill="none" stroke="#63b8ff" d="M863.6,-178.36C858.72,-170.13 853.98,-160.51 851.5,-151 838.88,-102.62 846.47,-41.63 850,-19.25"/>
<polygon fill="#63b8ff" stroke="#63b8ff" points="860.76,-180.4 869.07,-186.97 866.67,-176.65 860.76,-180.4"/>
</a>
</g>
</g>
<!-- Node8 -->
<g id="Node000008" class="node">
<title>Node8</title>
<g id="a_Node000008"><a xlink:href="MissileSystem_8hpp.html" target="_top" xlink:title=" ">
<polygon fill="white" stroke="#666666" points="1330.5,-151 1198.5,-151 1198.5,-121 1330.5,-121 1330.5,-151"/>
<text text-anchor="start" x="1206.5" y="-139" font-family="Helvetica,sans-Serif" font-size="10.00">include/engine/systems</text>
<text text-anchor="middle" x="1264.5" y="-128" font-family="Helvetica,sans-Serif" font-size="10.00">/MissileSystem.hpp</text>
</a>
</g>
</g>
<!-- Node1&#45;&gt;Node8 -->
<g id="edge7_Node000001_Node000008" class="edge">
<title>Node1&#45;&gt;Node8</title>
<g id="a_edge7_Node000001_Node000008"><a xlink:title=" ">
<path fill="none" stroke="#63b8ff" d="M956.02,-189.2C1018.81,-179.38 1110.01,-164.83 1189.5,-151 1192.37,-150.5 1195.31,-149.98 1198.27,-149.46"/>
<polygon fill="#63b8ff" stroke="#63b8ff" points="955.14,-185.79 945.8,-190.79 956.22,-192.71 955.14,-185.79"/>
</a>
</g>
</g>
<!-- Node9 -->
<g id="Node000009" class="node">
<title>Node9</title>
<g id="a_Node000009"><a xlink:href="MovementSystem_8hpp.html" target="_top" xlink:title=" ">
<polygon fill="white" stroke="#666666" points="300.5,-85 168.5,-85 168.5,-55 300.5,-55 300.5,-85"/>
<text text-anchor="start" x="176.5" y="-73" font-family="Helvetica,sans-Serif" font-size="10.00">include/engine/systems</text>
<text text-anchor="middle" x="234.5" y="-62" font-family="Helvetica,sans-Serif" font-size="10.00">/MovementSystem.hpp</text>
</a>
</g>
</g>
<!-- Node1&#45;&gt;Node9 -->
<g id="edge8_Node000001_Node000009" class="edge">
<title>Node1&#45;&gt;Node9</title>
<g id="a_edge8_Node000001_Node000009"><a xlink:title=" ">
<path fill="none" stroke="#63b8ff" d="M802.96,-194.07C727.54,-186.46 609.3,-172.38 508.5,-151 424.4,-133.16 328.44,-102.76 275.33,-85.01"/>
<polygon fill="#63b8ff" stroke="#63b8ff" points="803.02,-197.6 813.31,-195.11 803.71,-190.63 803.02,-197.6"/>
</a>
</g>
</g>
<!-- Node10 -->
<g id="Node000010" class="node">
<title>Node10</title>
<g id="a_Node000010"><a xlink:href="PowerUpSystem_8hpp.html" target="_top" xlink:title=" ">
<polygon fill="white" stroke="#666666" points="1480.5,-151 1348.5,-151 1348.5,-121 1480.5,-121 1480.5,-151"/>
<text text-anchor="start" x="1356.5" y="-139" font-family="Helvetica,sans-Serif" font-size="10.00">include/engine/systems</text>
<text text-anchor="middle" x="1414.5" y="-128" font-family="Helvetica,sans-Serif" font-size="10.00">/PowerUpSystem.hpp</text>
</a>
</g>
</g>
<!-- Node1&#45;&gt;Node10 -->
<g id="edge10_Node000001_Node000010" class="edge">
<title>Node1&#45;&gt;Node10</title>
<g id="a_edge10_Node000001_Node000010"><a xlink:title=" ">
<path fill="none" stroke="#63b8ff" d="M955.59,-194.52C1047,-186.32 1204.88,-170.85 1339.5,-151 1342.39,-150.57 1345.33,-150.12 1348.3,-149.64"/>
<polygon fill="#63b8ff" stroke="#63b8ff" points="955.25,-191.04 945.6,-195.41 955.87,-198.01 955.25,-191.04"/>
</a>
</g>
</g>
<!-- Node11 -->
<g id="Node000011" class="node">
<title>Node11</title>
<g id="a_Node000011"><a xlink:href="RenderSystem_8hpp.html" target="_top" xlink:title=" ">
<polygon fill="white" stroke="#666666" points="1160.5,-85 1028.5,-85 1028.5,-55 1160.5,-55 1160.5,-85"/>
<text text-anchor="start" x="1036.5" y="-73" font-family="Helvetica,sans-Serif" font-size="10.00">include/engine/systems</text>
<text text-anchor="middle" x="1094.5" y="-62" font-family="Helvetica,sans-Serif" font-size="10.00">/RenderSystem.hpp</text>
</a>
</g>
</g>
<!-- Node1&#45;&gt;Node11 -->
<g id="edge11_Node000001_Node000011" class="edge">
<title>Node1&#45;&gt;Node11</title>
<g id="a_edge11_Node000001_Node000011"><a xlink:title=" ">
<path fill="none" stroke="#63b8ff" d="M932.74,-183.44C954.8,-175.1 980.16,-164.07 1001.5,-151 1017.85,-140.99 1057.18,-105.5 1079.1,-85.32"/>
<polygon fill="#63b8ff" stroke="#63b8ff" points="931.36,-180.22 923.19,-186.97 933.79,-186.79 931.36,-180.22"/>
</a>
</g>
</g>
<!-- Node12 -->
<g id="Node000012" class="node">
<title>Node12</title>
<g id="a_Node000012"><a xlink:href="systems_2StageFactory_8hpp.html" target="_top" xlink:title=" ">
<polygon fill="white" stroke="#666666" points="1630.5,-151 1498.5,-151 1498.5,-121 1630.5,-121 1630.5,-151"/>
<text text-anchor="start" x="1506.5" y="-139" font-family="Helvetica,sans-Serif" font-size="10.00">include/engine/systems</text>
<text text-anchor="middle" x="1564.5" y="-128" font-family="Helvetica,sans-Serif" font-size="10.00">/StageFactory.hpp</text>
</a>
</g>
</g>
<!-- Node1&#45;&gt;Node12 -->
<g id="edge13_Node000001_Node000012" class="edge">
<title>Node1&#45;&gt;Node12</title>
<g id="a_edge13_Node000001_Node000012"><a xlink:title=" ">
<path fill="none" stroke="#63b8ff" d="M955.81,-197.27C1071.57,-191.04 1298.33,-176.61 1489.5,-151 1492.39,-150.61 1495.34,-150.19 1498.31,-149.74"/>
<polygon fill="#63b8ff" stroke="#63b8ff" points="955.44,-193.78 945.64,-197.81 955.81,-200.77 955.44,-193.78"/>
</a>
</g>
</g>
<!-- Node13 -->
<g id="Node000013" class="node">
<title>Node13</title>
<g id="a_Node000013"><a xlink:href="WaveSystem_8hpp.html" target="_top" xlink:title=" ">
<polygon fill="white" stroke="#666666" points="450.5,-85 318.5,-85 318.5,-55 450.5,-55 450.5,-85"/>
<text text-anchor="start" x="326.5" y="-73" font-family="Helvetica,sans-Serif" font-size="10.00">include/engine/systems</text>
<text text-anchor="middle" x="384.5" y="-62" font-family="Helvetica,sans-Serif" font-size="10.00">/WaveSystem.hpp</text>
</a>
</g>
</g>
<!-- Node1&#45;&gt;Node13 -->
<g id="edge14_Node000001_Node000013" class="edge">
<title>Node1&#45;&gt;Node13</title>
<g id="a_edge14_Node000001_Node000013"><a xlink:title=" ">
<path fill="none" stroke="#63b8ff" d="M803.1,-190.75C747.26,-182.39 669.98,-169.02 603.5,-151 536.11,-132.73 460.1,-102.76 417.69,-85.15"/>
<polygon fill="#63b8ff" stroke="#63b8ff" points="802.87,-194.25 813.27,-192.25 803.89,-187.33 802.87,-194.25"/>
</a>
</g>
</g>
<!-- Node14 -->
<g id="Node000014" class="node">
<title>Node14</title>
<g id="a_Node000014"><a xlink:href="NetworkProtocol_8hpp.html" target="_top" xlink:title=" ">
<polygon fill="white" stroke="#666666" points="804,-145.5 613,-145.5 613,-126.5 804,-126.5 804,-145.5"/>
<text text-anchor="middle" x="708.5" y="-133.5" font-family="Helvetica,sans-Serif" font-size="10.00">include/server/NetworkProtocol.hpp</text>
</a>
</g>
</g>
<!-- Node1&#45;&gt;Node14 -->
<g id="edge16_Node000001_Node000014" class="edge">
<title>Node1&#45;&gt;Node14</title>
<g id="a_edge16_Node000001_Node000014"><a xlink:title=" ">
<path fill="none" stroke="#63b8ff" d="M832.53,-183.42C799.58,-171.09 756.99,-155.15 731.26,-145.52"/>
<polygon fill="#63b8ff" stroke="#63b8ff" points="831.38,-186.73 841.98,-186.95 833.84,-180.17 831.38,-186.73"/>
</a>
</g>
</g>
<!-- Node2&#45;&gt;Node3 -->
<g id="edge2_Node000002_Node000003" class="edge">
<title>Node2&#45;&gt;Node3</title>
<g id="a_edge2_Node000002_Node000003"><a xlink:title=" ">
<path fill="none" stroke="#63b8ff" d="M129.8,-51.33C157.12,-40.68 190.71,-27.58 212.35,-19.14"/>
<polygon fill="#63b8ff" stroke="#63b8ff" points="128.48,-48.09 120.43,-54.99 131.02,-54.62 128.48,-48.09"/>
</a>
</g>
</g>
<!-- Node6 -->
<g id="Node000006" class="node">
<title>Node6</title>
<g id="a_Node000006"><a xlink:href="GameEngine_8hpp.html" target="_top" xlink:title=" ">
<polygon fill="white" stroke="#666666" points="1010.5,-85 898.5,-85 898.5,-55 1010.5,-55 1010.5,-85"/>
<text text-anchor="start" x="906.5" y="-73" font-family="Helvetica,sans-Serif" font-size="10.00">include/engine/core</text>
<text text-anchor="middle" x="954.5" y="-62" font-family="Helvetica,sans-Serif" font-size="10.00">/GameEngine.hpp</text>
</a>
</g>
</g>
<!-- Node5&#45;&gt;Node6 -->
<g id="edge5_Node000005_Node000006" class="edge">
<title>Node5&#45;&gt;Node6</title>
<g id="a_edge5_Node000005_Node000006"><a xlink:title=" ">
<path fill="none" stroke="#63b8ff" d="M936.83,-111.39C940.68,-102.59 944.94,-92.86 948.31,-85.16"/>
<polygon fill="#63b8ff" stroke="#63b8ff" points="933.52,-110.23 932.72,-120.8 939.93,-113.04 933.52,-110.23"/>
</a>
</g>
</g>
<!-- Node5&#45;&gt;Node7 -->
<g id="edge6_Node000005_Node000007" class="edge">
<title>Node5&#45;&gt;Node7</title>
<g id="a_edge6_Node000005_Node000007"><a xlink:title=" ">
<path fill="none" stroke="#63b8ff" d="M909.02,-113.03C902.56,-104.49 895.39,-94.5 889.5,-85 875.29,-62.04 861.67,-33.11 855.28,-19.01"/>
<polygon fill="#63b8ff" stroke="#63b8ff" points="906.29,-115.22 915.17,-121 911.83,-110.94 906.29,-115.22"/>
</a>
</g>
</g>
<!-- Node9&#45;&gt;Node3 -->
<g id="edge9_Node000009_Node000003" class="edge">
<title>Node9&#45;&gt;Node3</title>
<g id="a_edge9_Node000009_Node000003"><a xlink:title=" ">
<path fill="none" stroke="#63b8ff" d="M234.5,-44.75C234.5,-35.72 234.5,-26.03 234.5,-19.27"/>
<polygon fill="#63b8ff" stroke="#63b8ff" points="231,-44.84 234.5,-54.84 238,-44.84 231,-44.84"/>
</a>
</g>
</g>
<!-- Node11&#45;&gt;Node7 -->
<g id="edge12_Node000011_Node000007" class="edge">
<title>Node11&#45;&gt;Node7</title>
<g id="a_edge12_Node000011_Node000007"><a xlink:title=" ">
<path fill="none" stroke="#63b8ff" d="M1026.54,-52.64C981.24,-41.73 923.53,-27.84 887.03,-19.05"/>
<polygon fill="#63b8ff" stroke="#63b8ff" points="1025.76,-56.05 1036.3,-54.99 1027.4,-49.24 1025.76,-56.05"/>
</a>
</g>
</g>
<!-- Node13&#45;&gt;Node3 -->
<g id="edge15_Node000013_Node000003" class="edge">
<title>Node13&#45;&gt;Node3</title>
<g id="a_edge15_Node000013_Node000003"><a xlink:title=" ">
<path fill="none" stroke="#63b8ff" d="M339.2,-51.33C311.89,-40.68 278.3,-27.58 256.65,-19.14"/>
<polygon fill="#63b8ff" stroke="#63b8ff" points="337.99,-54.62 348.57,-54.99 340.53,-48.09 337.99,-54.62"/>
</a>
</g>
</g>
<!-- Node15 -->
<g id="Node000015" class="node">
<title>Node15</title>
<g id="a_Node000015"><a xlink:href="UdpClient_8hpp.html" target="_top" xlink:title=" ">
<polygon fill="white" stroke="#666666" points="804.5,-79.5 646.5,-79.5 646.5,-60.5 804.5,-60.5 804.5,-79.5"/>
<text text-anchor="middle" x="725.5" y="-67.5" font-family="Helvetica,sans-Serif" font-size="10.00">include/server/UdpClient.hpp</text>
</a>
</g>
</g>
<!-- Node14&#45;&gt;Node15 -->
<g id="edge17_Node000014_Node000015" class="edge">
<title>Node14&#45;&gt;Node15</title>
<g id="a_edge17_Node000014_Node000015"><a xlink:title=" ">
<path fill="none" stroke="#63b8ff" d="M713.43,-116.45C716.62,-104.43 720.64,-89.32 723.14,-79.91"/>
<polygon fill="#63b8ff" stroke="#63b8ff" points="709.98,-115.81 710.8,-126.37 716.75,-117.6 709.98,-115.81"/>
</a>
</g>
</g>
<!-- Node16 -->
<g id="Node000016" class="node">
<title>Node16</title>
<g id="a_Node000016"><a xlink:href="UdpServer_8hpp.html" target="_top" xlink:title=" ">
<polygon fill="white" stroke="#666666" points="628.5,-79.5 468.5,-79.5 468.5,-60.5 628.5,-60.5 628.5,-79.5"/>
<text text-anchor="middle" x="548.5" y="-67.5" font-family="Helvetica,sans-Serif" font-size="10.00">include/server/UdpServer.hpp</text>
</a>
</g>
</g>
<!-- Node14&#45;&gt;Node16 -->
<g id="edge19_Node000014_Node000016" class="edge">
<title>Node14&#45;&gt;Node16</title>
<g id="a_edge19_Node000014_Node000016"><a xlink:title=" ">
<path fill="none" stroke="#63b8ff" d="M677.28,-122.51C645.66,-109.86 597.58,-90.63 569.99,-79.6"/>
<polygon fill="#63b8ff" stroke="#63b8ff" points="676.34,-125.9 686.92,-126.37 678.94,-119.41 676.34,-125.9"/>
</a>
</g>
</g>
<!-- Node15&#45;&gt;Node7 -->
<g id="edge18_Node000015_Node000007" class="edge">
<title>Node15&#45;&gt;Node7</title>
<g id="a_edge18_Node000015_Node000007"><a xlink:title=" ">
<path fill="none" stroke="#63b8ff" d="M753.22,-56.13C777.52,-44.85 812.15,-28.77 833.16,-19.02"/>
<polygon fill="#63b8ff" stroke="#63b8ff" points="751.42,-53.11 743.82,-60.49 754.37,-59.46 751.42,-53.11"/>
</a>
</g>
</g>
<!-- Node16&#45;&gt;Node3 -->
<g id="edge20_Node000016_Node000003" class="edge">
<title>Node16&#45;&gt;Node3</title>
<g id="a_edge20_Node000016_Node000003"><a xlink:title=" ">
<path fill="none" stroke="#63b8ff" d="M492.7,-58.6C432.12,-47.32 336.52,-29.51 280.22,-19.02"/>
<polygon fill="#63b8ff" stroke="#63b8ff" points="492.37,-62.1 502.84,-60.49 493.65,-55.22 492.37,-62.1"/>
</a>
</g>
</g>
</g>
</svg>

<g id="navigator" transform="translate(0 0)" fill="#404254">
  <rect fill="#f2f5e9" fill-opacity="0.5" stroke="#606060" stroke-width=".5" x="0" y="0" width="60" height="60"/>
  <use id="zoomplus" xlink:href="#zoomPlus" x="17" y="9" onmousedown="handleZoom(evt,'in')"/>
  <use id="zoomminus" xlink:href="#zoomMin" x="42" y="9" onmousedown="handleZoom(evt,'out')"/>
  <use id="reset" xlink:href="#resetDef" x="30" y="36" onmousedown="handleReset()"/>
   <use id="arrowup" xlink:href="#arrowUp" x="0" y="0" onmousedown="handlePan(0,-1)"/>
  <use id="arrowright" xlink:href="#arrowRight" x="0" y="0" onmousedown="handlePan(1,0)"/>
  <use id="arrowdown" xlink:href="#arrowDown" x="0" y="0" onmousedown="handlePan(0,1)"/>
  <use id="arrowleft" xlink:href="#arrowLeft" x="0" y="0" onmousedown="handlePan(-1,0)"/>
</g>
<svg viewBox="0 0 15 15" width="100%" height="30px" preserveAspectRatio="xMaxYMin meet">
 <g id="arrow_out" transform="scale(0.3 0.3)">
  <a xlink:href="Components_8hpp__dep__incl_org.svg" target="_base">
   <rect id="button" ry="5" rx="5" y="6" x="6" height="38" width="38"
        fill="#f2f5e9" fill-opacity="0.5" stroke="#606060" stroke-width="1.0"/>
   <path id="arrow"
     d="M 11.500037,31.436501 C 11.940474,20.09759 22.043105,11.32322 32.158766,21.979434 L 37.068811,17.246167 C 37.068811,17.246167 37.088388,32 37.088388,32 L 22.160133,31.978069 C 22.160133,31.978069 26.997745,27.140456 26.997745,27.140456 C 18.528582,18.264221 13.291696,25.230495 11.500037,31.436501 z"
     style="fill:#404040;"/>
  </a>
 </g>
</svg>

<style type='text/css'>
<![CDATA[
[data-mouse-over-selected='false'] { opacity: 0.7; }
[data-mouse-over-selected='true']  { opacity: 1.0; }
]]>
</style>
<script type="application/ecmascript"><![CDATA[
document.addEventListener('DOMContentLoaded', (event) => {
  highlightEdges();
  highlightAdjacentNodes();
});
]]></script>
</svg>
