<?xml version="1.0" encoding="UTF-8" standalone="no"?>
<!DOCTYPE svg PUBLIC "-//W3C//DTD SVG 1.1//EN"
 "http://www.w3.org/Graphics/SVG/1.1/DTD/svg11.dtd">
<!-- Generated by graphviz version 2.43.0 (0)
 -->
<!-- Title: Graphical Class Hierarchy Pages: 1 -->
<svg width="206pt" height="249pt"
 viewBox="0.00 0.00 206.00 249.00" xmlns="http://www.w3.org/2000/svg" xmlns:xlink="http://www.w3.org/1999/xlink">
<g id="graph0" class="graph" transform="scale(1 1) rotate(0) translate(4 245)">
<title>Graphical Class Hierarchy</title>
<!-- Node0 -->
<g id="Node000000" class="node">
<title>Node0</title>
<g id="a_Node000000"><a xlink:href="classISystem.html" target="_top" xlink:title="Interface for systems in the ECS.">
<polygon fill="white" stroke="#666666" points="56,-130 0,-130 0,-111 56,-111 56,-130"/>
<text text-anchor="middle" x="28" y="-118" font-family="Helvetica,sans-Serif" font-size="10.00">ISystem</text>
</a>
</g>
</g>
<!-- Node1 -->
<g id="Node000001" class="node">
<title>Node1</title>
<g id="a_Node000001"><a xlink:href="classCollisionSystem.html" target="_top" xlink:title=" ">
<polygon fill="white" stroke="#666666" points="192.5,-241 97.5,-241 97.5,-222 192.5,-222 192.5,-241"/>
<text text-anchor="middle" x="145" y="-229" font-family="Helvetica,sans-Serif" font-size="10.00">CollisionSystem</text>
</a>
</g>
</g>
<!-- Node0&#45;&gt;Node1 -->
<g id="edge1_Node000000_Node000001" class="edge">
<title>Node0&#45;&gt;Node1</title>
<g id="a_edge1_Node000000_Node000001"><a xlink:title=" ">
<path fill="none" stroke="#63b8ff" d="M37.23,-139.32C47.29,-160.25 66.2,-193.71 92,-213.5 96.4,-216.87 101.47,-219.64 106.69,-221.91"/>
<polygon fill="#63b8ff" stroke="#63b8ff" points="40.38,-137.79 33.01,-130.17 34.02,-140.72 40.38,-137.79"/>
</a>
</g>
</g>
<!-- Node2 -->
<g id="Node000002" class="node">
<title>Node2</title>
<g id="a_Node000002"><a xlink:href="classInputSystem.html" target="_top" xlink:title=" ">
<polygon fill="white" stroke="#666666" points="184,-204 106,-204 106,-185 184,-185 184,-204"/>
<text text-anchor="middle" x="145" y="-192" font-family="Helvetica,sans-Serif" font-size="10.00">InputSystem</text>
</a>
</g>
</g>
<!-- Node0&#45;&gt;Node2 -->
<g id="edge2_Node000000_Node000002" class="edge">
<title>Node0&#45;&gt;Node2</title>
<g id="a_edge2_Node000000_Node000002"><a xlink:title=" ">
<path fill="none" stroke="#63b8ff" d="M44.5,-137.49C56.47,-149.75 73.98,-165.94 92,-176.5 97.61,-179.78 103.9,-182.59 110.13,-184.95"/>
<polygon fill="#63b8ff" stroke="#63b8ff" points="46.91,-134.94 37.49,-130.09 41.83,-139.76 46.91,-134.94"/>
</a>
</g>
</g>
<!-- Node3 -->
<g id="Node000003" class="node">
<title>Node3</title>
<g id="a_Node000003"><a xlink:href="classMissileSystem.html" target="_top" xlink:title=" ">
<polygon fill="white" stroke="#666666" points="189,-167 101,-167 101,-148 189,-148 189,-167"/>
<text text-anchor="middle" x="145" y="-155" font-family="Helvetica,sans-Serif" font-size="10.00">MissileSystem</text>
</a>
</g>
</g>
<!-- Node0&#45;&gt;Node3 -->
<g id="edge3_Node000000_Node000003" class="edge">
<title>Node0&#45;&gt;Node3</title>
<g id="a_edge3_Node000000_Node000003"><a xlink:title=" ">
<path fill="none" stroke="#63b8ff" d="M66.08,-132.43C81.62,-137.43 99.44,-143.16 114.12,-147.89"/>
<polygon fill="#63b8ff" stroke="#63b8ff" points="66.84,-129 56.25,-129.27 64.7,-135.66 66.84,-129"/>
</a>
</g>
</g>
<!-- Node4 -->
<g id="Node000004" class="node">
<title>Node4</title>
<g id="a_Node000004"><a xlink:href="classMovementSystem.html" target="_top" xlink:title=" ">
<polygon fill="white" stroke="#666666" points="198,-130 92,-130 92,-111 198,-111 198,-130"/>
<text text-anchor="middle" x="145" y="-118" font-family="Helvetica,sans-Serif" font-size="10.00">MovementSystem</text>
</a>
</g>
</g>
<!-- Node0&#45;&gt;Node4 -->
<g id="edge4_Node000000_Node000004" class="edge">
<title>Node0&#45;&gt;Node4</title>
<g id="a_edge4_Node000000_Node000004"><a xlink:title=" ">
<path fill="none" stroke="#63b8ff" d="M66.44,-120.5C74.5,-120.5 83.16,-120.5 91.67,-120.5"/>
<polygon fill="#63b8ff" stroke="#63b8ff" points="66.25,-117 56.25,-120.5 66.25,-124 66.25,-117"/>
</a>
</g>
</g>
<!-- Node5 -->
<g id="Node000005" class="node">
<title>Node5</title>
<g id="a_Node000005"><a xlink:href="classPowerUpSystem.html" target="_top" xlink:title=" ">
<polygon fill="white" stroke="#666666" points="193.5,-93 96.5,-93 96.5,-74 193.5,-74 193.5,-93"/>
<text text-anchor="middle" x="145" y="-81" font-family="Helvetica,sans-Serif" font-size="10.00">PowerUpSystem</text>
</a>
</g>
</g>
<!-- Node0&#45;&gt;Node5 -->
<g id="edge5_Node000000_Node000005" class="edge">
<title>Node0&#45;&gt;Node5</title>
<g id="a_edge5_Node000000_Node000005"><a xlink:title=" ">
<path fill="none" stroke="#63b8ff" d="M66.08,-108.57C81.62,-103.57 99.44,-97.84 114.12,-93.11"/>
<polygon fill="#63b8ff" stroke="#63b8ff" points="64.7,-105.34 56.25,-111.73 66.84,-112 64.7,-105.34"/>
</a>
</g>
</g>
<!-- Node6 -->
<g id="Node000006" class="node">
<title>Node6</title>
<g id="a_Node000006"><a xlink:href="classRenderSystem.html" target="_top" xlink:title=" ">
<polygon fill="white" stroke="#666666" points="189,-56 101,-56 101,-37 189,-37 189,-56"/>
<text text-anchor="middle" x="145" y="-44" font-family="Helvetica,sans-Serif" font-size="10.00">RenderSystem</text>
</a>
</g>
</g>
<!-- Node0&#45;&gt;Node6 -->
<g id="edge6_Node000000_Node000006" class="edge">
<title>Node0&#45;&gt;Node6</title>
<g id="a_edge6_Node000000_Node000006"><a xlink:title=" ">
<path fill="none" stroke="#63b8ff" d="M45.03,-103.51C57.03,-91.57 74.37,-75.93 92,-65.5 98.21,-61.83 105.24,-58.68 112.08,-56.06"/>
<polygon fill="#63b8ff" stroke="#63b8ff" points="42.45,-101.13 37.95,-110.73 47.45,-106.03 42.45,-101.13"/>
</a>
</g>
</g>
<!-- Node7 -->
<g id="Node000007" class="node">
<title>Node7</title>
<g id="a_Node000007"><a xlink:href="classWaveSystem.html" target="_top" xlink:title=" ">
<polygon fill="white" stroke="#666666" points="185,-19 105,-19 105,0 185,0 185,-19"/>
<text text-anchor="middle" x="145" y="-7" font-family="Helvetica,sans-Serif" font-size="10.00">WaveSystem</text>
</a>
</g>
</g>
<!-- Node0&#45;&gt;Node7 -->
<g id="edge7_Node000000_Node000007" class="edge">
<title>Node0&#45;&gt;Node7</title>
<g id="a_edge7_Node000000_Node000007"><a xlink:title=" ">
<path fill="none" stroke="#63b8ff" d="M37.48,-101.68C47.67,-81.03 66.63,-48.21 92,-28.5 96.93,-24.67 102.72,-21.56 108.59,-19.05"/>
<polygon fill="#63b8ff" stroke="#63b8ff" points="34.19,-100.44 33.08,-110.98 40.52,-103.44 34.19,-100.44"/>
</a>
</g>
</g>
</g>
</svg>
