<?xml version="1.0" encoding="UTF-8" standalone="no"?>
<!DOCTYPE svg PUBLIC "-//W3C//DTD SVG 1.1//EN"
 "http://www.w3.org/Graphics/SVG/1.1/DTD/svg11.dtd">
<!-- Generated by graphviz version 2.43.0 (0)
 -->
<!-- Title: include/engine/systems/MenuSystem.hpp Pages: 1 -->
<!--zoomable 203 -->

<svg id="main" version="1.1" xmlns="http://www.w3.org/2000/svg" xmlns:xlink="http://www.w3.org/1999/xlink" xml:space="preserve" onload="init(evt)">
<style type="text/css"><![CDATA[
.node, .edge {opacity: 0.7;}
.node.selected, .edge.selected {opacity: 1;}
.edge:hover path { stroke: red; }
.edge:hover polygon { stroke: red; fill: red; }
]]></style>

<defs>
  <circle id="rim" cx="0" cy="0" r="7"/>
  <circle id="rim2" cx="0" cy="0" r="3.5"/>
  <g id="zoomPlus">
    <use xlink:href="#rim" fill="#404040"><set attributeName="fill" to="#808080" begin="zoomplus.mouseover" end="zoomplus.mouseout"/></use>
    <path d="M-4,0h8M0,-4v8" fill="none" stroke="white" stroke-width="1.5" pointer-events="none"/>
  </g>
  <g id="zoomMin">
    <use xlink:href="#rim" fill="#404040"><set attributeName="fill" to="#808080" begin="zoomminus.mouseover" end="zoomminus.mouseout"/></use>
    <path d="M-4,0h8" fill="none" stroke="white" stroke-width="1.5" pointer-events="none"/>
  </g>
  <g id="arrowUp" transform="translate(30 24)">
    <use xlink:href="#rim"/>
    <path pointer-events="none" fill="none" stroke="white" stroke-width="1.5" d="M0,-3.0v7 M-2.5,-0.5L0,-3.0L2.5,-0.5"/>
  </g>
  <g id="arrowRight" transform="rotate(90) translate(36 -43)">
    <use xlink:href="#rim"/>
    <path pointer-events="none" fill="none" stroke="white" stroke-width="1.5" d="M0,-3.0v7 M-2.5,-0.5L0,-3.0L2.5,-0.5"/>
  </g>
  <g id="arrowDown" transform="rotate(180) translate(-30 -48)">
    <use xlink:href="#rim"/>
    <path pointer-events="none" fill="none" stroke="white" stroke-width="1.5" d="M0,-3.0v7 M-2.5,-0.5L0,-3.0L2.5,-0.5"/>
  </g>
  <g id="arrowLeft" transform="rotate(270) translate(-36 17)">
    <use xlink:href="#rim"/>
    <path pointer-events="none" fill="none" stroke="white" stroke-width="1.5" d="M0,-3.0v7 M-2.5,-0.5L0,-3.0L2.5,-0.5"/>
  </g>
  <g id="resetDef">
    <use xlink:href="#rim2" fill="#404040"><set attributeName="fill" to="#808080" begin="reset.mouseover" end="reset.mouseout"/></use>
  </g>
</defs>
<script type="application/ecmascript">
var viewWidth = 1502;
var viewHeight = 203;
var sectionId = 'dynsection-0';
</script>
<script type="application/ecmascript" xlink:href="svg.min.js"/>
<svg id="graph" class="graph">
<g id="viewport">
<title>include/engine/systems/MenuSystem.hpp</title>
<!-- Node1 -->
<g id="Node000001" class="node">
<title>Node1</title>
<g id="a_Node000001"><a xlink:title=" ">
<polygon fill="#999999" stroke="#666666" points="765.5,-195 633.5,-195 633.5,-165 765.5,-165 765.5,-195"/>
<text text-anchor="start" x="641.5" y="-183" font-family="Helvetica,sans-Serif" font-size="10.00">include/engine/systems</text>
<text text-anchor="middle" x="699.5" y="-172" font-family="Helvetica,sans-Serif" font-size="10.00">/MenuSystem.hpp</text>
</a>
</g>
</g>
<!-- Node2 -->
<g id="Node000002" class="node">
<title>Node2</title>
<g id="a_Node000002"><a xlink:title=" ">
<polygon fill="#e0e0e0" stroke="#999999" points="633.5,-74 579.5,-74 579.5,-55 633.5,-55 633.5,-74"/>
<text text-anchor="middle" x="606.5" y="-62" font-family="Helvetica,sans-Serif" font-size="10.00">ecs.hpp</text>
</a>
</g>
</g>
<!-- Node1&#45;&gt;Node2 -->
<g id="edge1_Node000001_Node000002" class="edge">
<title>Node1&#45;&gt;Node2</title>
<g id="a_edge1_Node000001_Node000002"><a xlink:title=" ">
<path fill="none" stroke="#63b8ff" d="M682.6,-164.58C671.92,-155.04 658.17,-141.95 647.5,-129 635.53,-114.47 624.1,-96.29 616.37,-83.11"/>
<polygon fill="#63b8ff" stroke="#63b8ff" points="619.24,-81.08 611.22,-74.15 613.17,-84.56 619.24,-81.08"/>
</a>
</g>
</g>
<!-- Node3 -->
<g id="Node000003" class="node">
<title>Node3</title>
<g id="a_Node000003"><a xlink:href="Components_8hpp.html" target="_top" xlink:title=" ">
<polygon fill="white" stroke="#666666" points="561,-74 382,-74 382,-55 561,-55 561,-74"/>
<text text-anchor="middle" x="471.5" y="-62" font-family="Helvetica,sans-Serif" font-size="10.00">engine/systems/Components.hpp</text>
</a>
</g>
</g>
<!-- Node1&#45;&gt;Node3 -->
<g id="edge2_Node000001_Node000003" class="edge">
<title>Node1&#45;&gt;Node3</title>
<g id="a_edge2_Node000001_Node000003"><a xlink:title=" ">
<path fill="none" stroke="#63b8ff" d="M671.08,-164.85C626.58,-142.7 541.07,-100.13 497.87,-78.63"/>
<polygon fill="#63b8ff" stroke="#63b8ff" points="499.34,-75.45 488.82,-74.12 496.22,-81.71 499.34,-75.45"/>
</a>
</g>
</g>
<!-- Node5 -->
<g id="Node000005" class="node">
<title>Node5</title>
<g id="a_Node000005"><a xlink:title=" ">
<polygon fill="#e0e0e0" stroke="#999999" points="790,-19 635,-19 635,0 790,0 790,-19"/>
<text text-anchor="middle" x="712.5" y="-7" font-family="Helvetica,sans-Serif" font-size="10.00">SFML/Window/Keyboard.hpp</text>
</a>
</g>
</g>
<!-- Node1&#45;&gt;Node5 -->
<g id="edge31_Node000001_Node000005" class="edge">
<title>Node1&#45;&gt;Node5</title>
<g id="a_edge31_Node000001_Node000005"><a xlink:title=" ">
<path fill="none" stroke="#63b8ff" d="M693.48,-164.92C684.37,-141.57 669.38,-93.6 681.5,-55 684.73,-44.71 691.28,-34.72 697.53,-26.82"/>
<polygon fill="#63b8ff" stroke="#63b8ff" points="700.23,-29.04 704.02,-19.15 694.89,-24.52 700.23,-29.04"/>
</a>
</g>
</g>
<!-- Node10 -->
<g id="Node000010" class="node">
<title>Node10</title>
<g id="a_Node000010"><a xlink:href="SceneManager_8hpp.html" target="_top" xlink:title=" ">
<polygon fill="white" stroke="#666666" points="189,-129 0,-129 0,-110 189,-110 189,-129"/>
<text text-anchor="middle" x="94.5" y="-117" font-family="Helvetica,sans-Serif" font-size="10.00">engine/systems/SceneManager.hpp</text>
</a>
</g>
</g>
<!-- Node1&#45;&gt;Node10 -->
<g id="edge9_Node000001_Node000010" class="edge">
<title>Node1&#45;&gt;Node10</title>
<g id="a_edge9_Node000001_Node000010"><a xlink:title=" ">
<path fill="none" stroke="#63b8ff" d="M633.31,-172.6C526.85,-162.31 316.96,-142.01 192.9,-130.02"/>
<polygon fill="#63b8ff" stroke="#63b8ff" points="192.94,-126.5 182.65,-129.02 192.27,-133.47 192.94,-126.5"/>
</a>
</g>
</g>
<!-- Node13 -->
<g id="Node000013" class="node">
<title>Node13</title>
<g id="a_Node000013"><a xlink:href="InputSystem_8hpp.html" target="_top" xlink:title=" ">
<polygon fill="white" stroke="#666666" points="907,-129 728,-129 728,-110 907,-110 907,-129"/>
<text text-anchor="middle" x="817.5" y="-117" font-family="Helvetica,sans-Serif" font-size="10.00">engine/systems/InputSystem.hpp</text>
</a>
</g>
</g>
<!-- Node1&#45;&gt;Node13 -->
<g id="edge13_Node000001_Node000013" class="edge">
<title>Node1&#45;&gt;Node13</title>
<g id="a_edge13_Node000001_Node000013"><a xlink:title=" ">
<path fill="none" stroke="#63b8ff" d="M727.76,-164.99C746.92,-155.49 772.08,-143.02 790.89,-133.69"/>
<polygon fill="#63b8ff" stroke="#63b8ff" points="792.67,-136.72 800.07,-129.14 789.56,-130.45 792.67,-136.72"/>
</a>
</g>
</g>
<!-- Node14 -->
<g id="Node000014" class="node">
<title>Node14</title>
<g id="a_Node000014"><a xlink:title=" ">
<polygon fill="#e0e0e0" stroke="#999999" points="827,-74 690,-74 690,-55 827,-55 827,-74"/>
<text text-anchor="middle" x="758.5" y="-62" font-family="Helvetica,sans-Serif" font-size="10.00">SFML/Window/Event.hpp</text>
</a>
</g>
</g>
<!-- Node1&#45;&gt;Node14 -->
<g id="edge32_Node000001_Node000014" class="edge">
<title>Node1&#45;&gt;Node14</title>
<g id="a_edge32_Node000001_Node000014"><a xlink:title=" ">
<path fill="none" stroke="#63b8ff" d="M701.73,-164.82C704.43,-150.36 709.86,-127.61 719.5,-110 725.27,-99.46 733.91,-89.26 741.6,-81.29"/>
<polygon fill="#63b8ff" stroke="#63b8ff" points="744.18,-83.66 748.82,-74.13 739.25,-78.68 744.18,-83.66"/>
</a>
</g>
</g>
<!-- Node19 -->
<g id="Node000019" class="node">
<title>Node19</title>
<g id="a_Node000019"><a xlink:href="SoundSystem_8hpp.html" target="_top" xlink:title=" ">
<polygon fill="white" stroke="#666666" points="409,-129 224,-129 224,-110 409,-110 409,-129"/>
<text text-anchor="middle" x="316.5" y="-117" font-family="Helvetica,sans-Serif" font-size="10.00">engine/systems/SoundSystem.hpp</text>
</a>
</g>
</g>
<!-- Node1&#45;&gt;Node19 -->
<g id="edge22_Node000001_Node000019" class="edge">
<title>Node1&#45;&gt;Node19</title>
<g id="a_edge22_Node000001_Node000019"><a xlink:title=" ">
<path fill="none" stroke="#63b8ff" d="M633.22,-168.88C562.92,-158.14 452.53,-141.28 382.38,-130.56"/>
<polygon fill="#63b8ff" stroke="#63b8ff" points="382.75,-127.08 372.33,-129.03 381.69,-134 382.75,-127.08"/>
</a>
</g>
</g>
<!-- Node21 -->
<g id="Node000021" class="node">
<title>Node21</title>
<g id="a_Node000021"><a xlink:title=" ">
<polygon fill="#e0e0e0" stroke="#999999" points="1061.5,-129 925.5,-129 925.5,-110 1061.5,-110 1061.5,-129"/>
<text text-anchor="middle" x="993.5" y="-117" font-family="Helvetica,sans-Serif" font-size="10.00">engine/EntityFactory.hpp</text>
</a>
</g>
</g>
<!-- Node1&#45;&gt;Node21 -->
<g id="edge29_Node000001_Node000021" class="edge">
<title>Node1&#45;&gt;Node21</title>
<g id="a_edge29_Node000001_Node000021"><a xlink:title=" ">
<path fill="none" stroke="#63b8ff" d="M765.85,-165.8C818.66,-155.29 891.58,-140.78 940.53,-131.04"/>
<polygon fill="#63b8ff" stroke="#63b8ff" points="941.47,-134.42 950.6,-129.04 940.11,-127.56 941.47,-134.42"/>
</a>
</g>
</g>
<!-- Node22 -->
<g id="Node000022" class="node">
<title>Node22</title>
<g id="a_Node000022"><a xlink:title=" ">
<polygon fill="#e0e0e0" stroke="#999999" points="1215,-129 1080,-129 1080,-110 1215,-110 1215,-129"/>
<text text-anchor="middle" x="1147.5" y="-117" font-family="Helvetica,sans-Serif" font-size="10.00">engine/StageFactory.hpp</text>
</a>
</g>
</g>
<!-- Node1&#45;&gt;Node22 -->
<g id="edge30_Node000001_Node000022" class="edge">
<title>Node1&#45;&gt;Node22</title>
<g id="a_edge30_Node000001_Node000022"><a xlink:title=" ">
<path fill="none" stroke="#63b8ff" d="M765.6,-170.37C847.43,-159.68 986.45,-141.53 1072.28,-130.32"/>
<polygon fill="#63b8ff" stroke="#63b8ff" points="1072.76,-133.79 1082.22,-129.02 1071.85,-126.85 1072.76,-133.79"/>
</a>
</g>
</g>
<!-- Node23 -->
<g id="Node000023" class="node">
<title>Node23</title>
<g id="a_Node000023"><a xlink:title=" ">
<polygon fill="#e0e0e0" stroke="#999999" points="1418,-129 1233,-129 1233,-110 1418,-110 1418,-129"/>
<text text-anchor="middle" x="1325.5" y="-117" font-family="Helvetica,sans-Serif" font-size="10.00">SFML/Graphics/RenderWindow.hpp</text>
</a>
</g>
</g>
<!-- Node1&#45;&gt;Node23 -->
<g id="edge33_Node000001_Node000023" class="edge">
<title>Node1&#45;&gt;Node23</title>
<g id="a_edge33_Node000001_Node000023"><a xlink:title=" ">
<path fill="none" stroke="#63b8ff" d="M765.6,-172.82C875.08,-162.59 1094.73,-142.07 1223.98,-129.99"/>
<polygon fill="#63b8ff" stroke="#63b8ff" points="1224.65,-133.44 1234.28,-129.02 1224,-126.47 1224.65,-133.44"/>
</a>
</g>
</g>
<!-- Node24 -->
<g id="Node000024" class="node">
<title>Node24</title>
<g id="a_Node000024"><a xlink:title=" ">
<polygon fill="#e0e0e0" stroke="#999999" points="1493.5,-129 1435.5,-129 1435.5,-110 1493.5,-110 1493.5,-129"/>
<text text-anchor="middle" x="1464.5" y="-117" font-family="Helvetica,sans-Serif" font-size="10.00">memory</text>
</a>
</g>
</g>
<!-- Node1&#45;&gt;Node24 -->
<g id="edge34_Node000001_Node000024" class="edge">
<title>Node1&#45;&gt;Node24</title>
<g id="a_edge34_Node000001_Node000024"><a xlink:title=" ">
<path fill="none" stroke="#63b8ff" d="M765.63,-177.93C892.24,-175.13 1177.67,-165.17 1425.58,-129.08"/>
<polygon fill="#63b8ff" stroke="#63b8ff" points="1426.11,-132.54 1435.5,-127.62 1425.09,-125.61 1426.11,-132.54"/>
</a>
</g>
</g>
<!-- Node4 -->
<g id="Node000004" class="node">
<title>Node4</title>
<g id="a_Node000004"><a xlink:title=" ">
<polygon fill="#e0e0e0" stroke="#999999" points="345.5,-19 235.5,-19 235.5,0 345.5,0 345.5,-19"/>
<text text-anchor="middle" x="290.5" y="-7" font-family="Helvetica,sans-Serif" font-size="10.00">SFML/Graphics.hpp</text>
</a>
</g>
</g>
<!-- Node3&#45;&gt;Node4 -->
<g id="edge3_Node000003_Node000004" class="edge">
<title>Node3&#45;&gt;Node4</title>
<g id="a_edge3_Node000003_Node000004"><a xlink:title=" ">
<path fill="none" stroke="#63b8ff" d="M442.42,-54.98C411.9,-46.05 363.74,-31.94 329.84,-22.02"/>
<polygon fill="#63b8ff" stroke="#63b8ff" points="330.39,-18.53 319.81,-19.08 328.42,-25.25 330.39,-18.53"/>
</a>
</g>
</g>
<!-- Node3&#45;&gt;Node5 -->
<g id="edge4_Node000003_Node000005" class="edge">
<title>Node3&#45;&gt;Node5</title>
<g id="a_edge4_Node000003_Node000005"><a xlink:title=" ">
<path fill="none" stroke="#63b8ff" d="M510.22,-54.98C551.91,-45.82 618.32,-31.21 663.59,-21.26"/>
<polygon fill="#63b8ff" stroke="#63b8ff" points="664.46,-24.65 673.48,-19.08 662.96,-17.81 664.46,-24.65"/>
</a>
</g>
</g>
<!-- Node6 -->
<g id="Node000006" class="node">
<title>Node6</title>
<g id="a_Node000006"><a xlink:title=" ">
<polygon fill="#e0e0e0" stroke="#999999" points="465,-19 364,-19 364,0 465,0 465,-19"/>
<text text-anchor="middle" x="414.5" y="-7" font-family="Helvetica,sans-Serif" font-size="10.00">engine/Menu.hpp</text>
</a>
</g>
</g>
<!-- Node3&#45;&gt;Node6 -->
<g id="edge5_Node000003_Node000006" class="edge">
<title>Node3&#45;&gt;Node6</title>
<g id="a_edge5_Node000003_Node000006"><a xlink:title=" ">
<path fill="none" stroke="#63b8ff" d="M462.34,-54.98C454,-47.23 441.47,-35.58 431.32,-26.14"/>
<polygon fill="#63b8ff" stroke="#63b8ff" points="433.53,-23.42 423.82,-19.17 428.76,-28.54 433.53,-23.42"/>
</a>
</g>
</g>
<!-- Node7 -->
<g id="Node000007" class="node">
<title>Node7</title>
<g id="a_Node000007"><a xlink:title=" ">
<polygon fill="#e0e0e0" stroke="#999999" points="217.5,-19 173.5,-19 173.5,0 217.5,0 217.5,-19"/>
<text text-anchor="middle" x="195.5" y="-7" font-family="Helvetica,sans-Serif" font-size="10.00">string</text>
</a>
</g>
</g>
<!-- Node3&#45;&gt;Node7 -->
<g id="edge6_Node000003_Node000007" class="edge">
<title>Node3&#45;&gt;Node7</title>
<g id="a_edge6_Node000003_Node000007"><a xlink:title=" ">
<path fill="none" stroke="#63b8ff" d="M416.73,-54.97C369.13,-47.23 298.15,-34.93 227.72,-19.12"/>
<polygon fill="#63b8ff" stroke="#63b8ff" points="228.32,-15.67 217.79,-16.86 226.77,-22.49 228.32,-15.67"/>
</a>
</g>
</g>
<!-- Node8 -->
<g id="Node000008" class="node">
<title>Node8</title>
<g id="a_Node000008"><a xlink:title=" ">
<polygon fill="#e0e0e0" stroke="#999999" points="548,-19 483,-19 483,0 548,0 548,-19"/>
<text text-anchor="middle" x="515.5" y="-7" font-family="Helvetica,sans-Serif" font-size="10.00">functional</text>
</a>
</g>
</g>
<!-- Node3&#45;&gt;Node8 -->
<g id="edge7_Node000003_Node000008" class="edge">
<title>Node3&#45;&gt;Node8</title>
<g id="a_edge7_Node000003_Node000008"><a xlink:title=" ">
<path fill="none" stroke="#63b8ff" d="M478.77,-54.75C485.04,-47.18 494.29,-36.05 501.93,-26.84"/>
<polygon fill="#63b8ff" stroke="#63b8ff" points="504.67,-29.02 508.37,-19.09 499.29,-24.55 504.67,-29.02"/>
</a>
</g>
</g>
<!-- Node9 -->
<g id="Node000009" class="node">
<title>Node9</title>
<g id="a_Node000009"><a xlink:title=" ">
<polygon fill="#e0e0e0" stroke="#999999" points="616.5,-19 566.5,-19 566.5,0 616.5,0 616.5,-19"/>
<text text-anchor="middle" x="591.5" y="-7" font-family="Helvetica,sans-Serif" font-size="10.00">cstdint</text>
</a>
</g>
</g>
<!-- Node3&#45;&gt;Node9 -->
<g id="edge8_Node000003_Node000009" class="edge">
<title>Node3&#45;&gt;Node9</title>
<g id="a_edge8_Node000003_Node000009"><a xlink:title=" ">
<path fill="none" stroke="#63b8ff" d="M490.78,-54.98C510.17,-46.42 540.31,-33.11 562.57,-23.28"/>
<polygon fill="#63b8ff" stroke="#63b8ff" points="564.14,-26.41 571.87,-19.17 561.31,-20.01 564.14,-26.41"/>
</a>
</g>
</g>
<!-- Node10&#45;&gt;Node7 -->
<g id="edge11_Node000010_Node000007" class="edge">
<title>Node10&#45;&gt;Node7</title>
<g id="a_edge11_Node000010_Node000007"><a xlink:title=" ">
<path fill="none" stroke="#63b8ff" d="M79.24,-109.98C59.56,-97.89 29.54,-75 44.5,-55 71.72,-18.6 127.29,-10.71 162.9,-9.66"/>
<polygon fill="#63b8ff" stroke="#63b8ff" points="163.3,-13.15 173.25,-9.52 163.21,-6.15 163.3,-13.15"/>
</a>
</g>
</g>
<!-- Node11 -->
<g id="Node000011" class="node">
<title>Node11</title>
<g id="a_Node000011"><a xlink:title=" ">
<polygon fill="#e0e0e0" stroke="#999999" points="101,-74 54,-74 54,-55 101,-55 101,-74"/>
<text text-anchor="middle" x="77.5" y="-62" font-family="Helvetica,sans-Serif" font-size="10.00">vector</text>
</a>
</g>
</g>
<!-- Node10&#45;&gt;Node11 -->
<g id="edge10_Node000010_Node000011" class="edge">
<title>Node10&#45;&gt;Node11</title>
<g id="a_edge10_Node000010_Node000011"><a xlink:title=" ">
<path fill="none" stroke="#63b8ff" d="M91.69,-109.75C89.44,-102.72 86.2,-92.62 83.38,-83.84"/>
<polygon fill="#63b8ff" stroke="#63b8ff" points="86.64,-82.54 80.25,-74.09 79.98,-84.68 86.64,-82.54"/>
</a>
</g>
</g>
<!-- Node12 -->
<g id="Node000012" class="node">
<title>Node12</title>
<g id="a_Node000012"><a xlink:title=" ">
<polygon fill="#e0e0e0" stroke="#999999" points="212,-74 119,-74 119,-55 212,-55 212,-74"/>
<text text-anchor="middle" x="165.5" y="-62" font-family="Helvetica,sans-Serif" font-size="10.00">unordered_map</text>
</a>
</g>
</g>
<!-- Node10&#45;&gt;Node12 -->
<g id="edge12_Node000010_Node000012" class="edge">
<title>Node10&#45;&gt;Node12</title>
<g id="a_edge12_Node000010_Node000012"><a xlink:title=" ">
<path fill="none" stroke="#63b8ff" d="M105.91,-109.98C116.61,-102 132.84,-89.88 145.66,-80.31"/>
<polygon fill="#63b8ff" stroke="#63b8ff" points="147.97,-82.96 153.89,-74.17 143.78,-77.35 147.97,-82.96"/>
</a>
</g>
</g>
<!-- Node13&#45;&gt;Node2 -->
<g id="edge14_Node000013_Node000002" class="edge">
<title>Node13&#45;&gt;Node2</title>
<g id="a_edge14_Node000013_Node000002"><a xlink:title=" ">
<path fill="none" stroke="#63b8ff" d="M783.6,-109.98C745.23,-100.35 682.95,-84.7 643.39,-74.77"/>
<polygon fill="#63b8ff" stroke="#63b8ff" points="644.16,-71.35 633.61,-72.31 642.45,-78.14 644.16,-71.35"/>
</a>
</g>
</g>
<!-- Node13&#45;&gt;Node3 -->
<g id="edge15_Node000013_Node000003" class="edge">
<title>Node13&#45;&gt;Node3</title>
<g id="a_edge15_Node000013_Node000003"><a xlink:title=" ">
<path fill="none" stroke="#63b8ff" d="M761.91,-109.98C700.71,-100.61 602.4,-85.55 537.38,-75.59"/>
<polygon fill="#63b8ff" stroke="#63b8ff" points="537.65,-72.09 527.24,-74.04 536.59,-79.01 537.65,-72.09"/>
</a>
</g>
</g>
<!-- Node13&#45;&gt;Node5 -->
<g id="edge18_Node000013_Node000005" class="edge">
<title>Node13&#45;&gt;Node5</title>
<g id="a_edge18_Node000013_Node000005"><a xlink:title=" ">
<path fill="none" stroke="#63b8ff" d="M888.55,-109.96C955.34,-101.2 1046.64,-87.05 1057.5,-74 1062.9,-67.51 1063.08,-61.34 1057.5,-55 1040.72,-35.92 896.9,-22.69 800.33,-15.87"/>
<polygon fill="#63b8ff" stroke="#63b8ff" points="800.48,-12.37 790.26,-15.17 799.99,-19.36 800.48,-12.37"/>
</a>
</g>
</g>
<!-- Node13&#45;&gt;Node14 -->
<g id="edge16_Node000013_Node000014" class="edge">
<title>Node13&#45;&gt;Node14</title>
<g id="a_edge16_Node000013_Node000014"><a xlink:title=" ">
<path fill="none" stroke="#63b8ff" d="M808.02,-109.98C799.3,-102.15 786.16,-90.34 775.6,-80.86"/>
<polygon fill="#63b8ff" stroke="#63b8ff" points="777.93,-78.25 768.15,-74.17 773.25,-83.46 777.93,-78.25"/>
</a>
</g>
</g>
<!-- Node15 -->
<g id="Node000015" class="node">
<title>Node15</title>
<g id="a_Node000015"><a xlink:title=" ">
<polygon fill="#e0e0e0" stroke="#999999" points="1302,-74 1155,-74 1155,-55 1302,-55 1302,-74"/>
<text text-anchor="middle" x="1228.5" y="-62" font-family="Helvetica,sans-Serif" font-size="10.00">SFML/Window/Window.hpp</text>
</a>
</g>
</g>
<!-- Node13&#45;&gt;Node15 -->
<g id="edge17_Node000013_Node000015" class="edge">
<title>Node13&#45;&gt;Node15</title>
<g id="a_edge17_Node000013_Node000015"><a xlink:title=" ">
<path fill="none" stroke="#63b8ff" d="M883.53,-109.98C956.83,-100.53 1074.93,-85.3 1152.14,-75.35"/>
<polygon fill="#63b8ff" stroke="#63b8ff" points="1152.82,-78.79 1162.29,-74.04 1151.92,-71.85 1152.82,-78.79"/>
</a>
</g>
</g>
<!-- Node16 -->
<g id="Node000016" class="node">
<title>Node16</title>
<g id="a_Node000016"><a xlink:title=" ">
<polygon fill="#e0e0e0" stroke="#999999" points="992,-74 845,-74 845,-55 992,-55 992,-74"/>
<text text-anchor="middle" x="918.5" y="-62" font-family="Helvetica,sans-Serif" font-size="10.00">SFML/Window/Joystick.hpp</text>
</a>
</g>
</g>
<!-- Node13&#45;&gt;Node16 -->
<g id="edge19_Node000013_Node000016" class="edge">
<title>Node13&#45;&gt;Node16</title>
<g id="a_edge19_Node000013_Node000016"><a xlink:title=" ">
<path fill="none" stroke="#63b8ff" d="M833.73,-109.98C849.68,-101.61 874.28,-88.7 892.88,-78.95"/>
<polygon fill="#63b8ff" stroke="#63b8ff" points="894.75,-81.92 901.98,-74.17 891.5,-75.72 894.75,-81.92"/>
</a>
</g>
</g>
<!-- Node17 -->
<g id="Node000017" class="node">
<title>Node17</title>
<g id="a_Node000017"><a xlink:title=" ">
<polygon fill="#e0e0e0" stroke="#999999" points="1048.5,-74 1010.5,-74 1010.5,-55 1048.5,-55 1048.5,-74"/>
<text text-anchor="middle" x="1029.5" y="-62" font-family="Helvetica,sans-Serif" font-size="10.00">map</text>
</a>
</g>
</g>
<!-- Node13&#45;&gt;Node17 -->
<g id="edge20_Node000013_Node000017" class="edge">
<title>Node13&#45;&gt;Node17</title>
<g id="a_edge20_Node000013_Node000017"><a xlink:title=" ">
<path fill="none" stroke="#63b8ff" d="M855.72,-109.93C891.01,-101.87 945.08,-89.14 1000.61,-74.13"/>
<polygon fill="#63b8ff" stroke="#63b8ff" points="1001.53,-77.5 1010.26,-71.5 999.69,-70.75 1001.53,-77.5"/>
</a>
</g>
</g>
<!-- Node18 -->
<g id="Node000018" class="node">
<title>Node18</title>
<g id="a_Node000018"><a xlink:title=" ">
<polygon fill="#e0e0e0" stroke="#999999" points="1136.5,-74 1104.5,-74 1104.5,-55 1136.5,-55 1136.5,-74"/>
<text text-anchor="middle" x="1120.5" y="-62" font-family="Helvetica,sans-Serif" font-size="10.00">set</text>
</a>
</g>
</g>
<!-- Node13&#45;&gt;Node18 -->
<g id="edge21_Node000013_Node000018" class="edge">
<title>Node13&#45;&gt;Node18</title>
<g id="a_edge21_Node000013_Node000018"><a xlink:title=" ">
<path fill="none" stroke="#63b8ff" d="M882.99,-109.97C938.54,-102.23 1020.19,-89.64 1090.5,-74 1091.78,-73.72 1093.08,-73.41 1094.4,-73.09"/>
<polygon fill="#63b8ff" stroke="#63b8ff" points="1095.63,-76.38 1104.39,-70.43 1093.83,-69.62 1095.63,-76.38"/>
</a>
</g>
</g>
<!-- Node19&#45;&gt;Node2 -->
<g id="edge23_Node000019_Node000002" class="edge">
<title>Node19&#45;&gt;Node2</title>
<g id="a_edge23_Node000019_Node000002"><a xlink:title=" ">
<path fill="none" stroke="#63b8ff" d="M369.96,-109.92C421.27,-101.49 500.88,-87.91 569.5,-74 569.6,-73.98 569.7,-73.96 569.8,-73.94"/>
<polygon fill="#63b8ff" stroke="#63b8ff" points="570.41,-77.39 579.46,-71.88 568.95,-70.54 570.41,-77.39"/>
</a>
</g>
</g>
<!-- Node19&#45;&gt;Node3 -->
<g id="edge24_Node000019_Node000003" class="edge">
<title>Node19&#45;&gt;Node3</title>
<g id="a_edge24_Node000019_Node000003"><a xlink:title=" ">
<path fill="none" stroke="#63b8ff" d="M341.4,-109.98C367.2,-101.16 407.72,-87.31 436.68,-77.41"/>
<polygon fill="#63b8ff" stroke="#63b8ff" points="438.07,-80.63 446.4,-74.08 435.81,-74.01 438.07,-80.63"/>
</a>
</g>
</g>
<!-- Node19&#45;&gt;Node7 -->
<g id="edge28_Node000019_Node000007" class="edge">
<title>Node19&#45;&gt;Node7</title>
<g id="a_edge28_Node000019_Node000007"><a xlink:title=" ">
<path fill="none" stroke="#63b8ff" d="M304.38,-109.69C292.61,-100.99 274.38,-87.11 259.5,-74 241.99,-58.58 223.17,-39.59 210.51,-26.41"/>
<polygon fill="#63b8ff" stroke="#63b8ff" points="212.92,-23.86 203.48,-19.04 207.85,-28.7 212.92,-23.86"/>
</a>
</g>
</g>
<!-- Node19&#45;&gt;Node11 -->
<g id="edge27_Node000019_Node000011" class="edge">
<title>Node19&#45;&gt;Node11</title>
<g id="a_edge27_Node000019_Node000011"><a xlink:title=" ">
<path fill="none" stroke="#63b8ff" d="M273.95,-109.97C234.13,-101.86 172.78,-88.99 111.13,-74.31"/>
<polygon fill="#63b8ff" stroke="#63b8ff" points="111.77,-70.87 101.23,-71.94 110.14,-77.67 111.77,-70.87"/>
</a>
</g>
</g>
<!-- Node19&#45;&gt;Node12 -->
<g id="edge26_Node000019_Node000012" class="edge">
<title>Node19&#45;&gt;Node12</title>
<g id="a_edge26_Node000019_Node000012"><a xlink:title=" ">
<path fill="none" stroke="#63b8ff" d="M292.24,-109.98C267.18,-101.19 227.87,-87.39 199.67,-77.49"/>
<polygon fill="#63b8ff" stroke="#63b8ff" points="200.8,-74.18 190.2,-74.17 198.48,-80.78 200.8,-74.18"/>
</a>
</g>
</g>
<!-- Node20 -->
<g id="Node000020" class="node">
<title>Node20</title>
<g id="a_Node000020"><a xlink:title=" ">
<polygon fill="#e0e0e0" stroke="#999999" points="364,-74 269,-74 269,-55 364,-55 364,-74"/>
<text text-anchor="middle" x="316.5" y="-62" font-family="Helvetica,sans-Serif" font-size="10.00">SFML/Audio.hpp</text>
</a>
</g>
</g>
<!-- Node19&#45;&gt;Node20 -->
<g id="edge25_Node000019_Node000020" class="edge">
<title>Node19&#45;&gt;Node20</title>
<g id="a_edge25_Node000019_Node000020"><a xlink:title=" ">
<path fill="none" stroke="#63b8ff" d="M316.5,-109.75C316.5,-102.8 316.5,-92.85 316.5,-84.13"/>
<polygon fill="#63b8ff" stroke="#63b8ff" points="320,-84.09 316.5,-74.09 313,-84.09 320,-84.09"/>
</a>
</g>
</g>
</g>
</svg>

<g id="navigator" transform="translate(0 0)" fill="#404254">
  <rect fill="#f2f5e9" fill-opacity="0.5" stroke="#606060" stroke-width=".5" x="0" y="0" width="60" height="60"/>
  <use id="zoomplus" xlink:href="#zoomPlus" x="17" y="9" onmousedown="handleZoom(evt,'in')"/>
  <use id="zoomminus" xlink:href="#zoomMin" x="42" y="9" onmousedown="handleZoom(evt,'out')"/>
  <use id="reset" xlink:href="#resetDef" x="30" y="36" onmousedown="handleReset()"/>
   <use id="arrowup" xlink:href="#arrowUp" x="0" y="0" onmousedown="handlePan(0,-1)"/>
  <use id="arrowright" xlink:href="#arrowRight" x="0" y="0" onmousedown="handlePan(1,0)"/>
  <use id="arrowdown" xlink:href="#arrowDown" x="0" y="0" onmousedown="handlePan(0,1)"/>
  <use id="arrowleft" xlink:href="#arrowLeft" x="0" y="0" onmousedown="handlePan(-1,0)"/>
</g>
<svg viewBox="0 0 15 15" width="100%" height="30px" preserveAspectRatio="xMaxYMin meet">
 <g id="arrow_out" transform="scale(0.3 0.3)">
  <a xlink:href="MenuSystem_8hpp__incl_org.svg" target="_base">
   <rect id="button" ry="5" rx="5" y="6" x="6" height="38" width="38"
        fill="#f2f5e9" fill-opacity="0.5" stroke="#606060" stroke-width="1.0"/>
   <path id="arrow"
     d="M 11.500037,31.436501 C 11.940474,20.09759 22.043105,11.32322 32.158766,21.979434 L 37.068811,17.246167 C 37.068811,17.246167 37.088388,32 37.088388,32 L 22.160133,31.978069 C 22.160133,31.978069 26.997745,27.140456 26.997745,27.140456 C 18.528582,18.264221 13.291696,25.230495 11.500037,31.436501 z"
     style="fill:#404040;"/>
  </a>
 </g>
</svg>

<style type='text/css'>
<![CDATA[
[data-mouse-over-selected='false'] { opacity: 0.7; }
[data-mouse-over-selected='true']  { opacity: 1.0; }
]]>
</style>
<script type="application/ecmascript"><![CDATA[
document.addEventListener('DOMContentLoaded', (event) => {
  highlightEdges();
  highlightAdjacentNodes();
});
]]></script>
</svg>
