<?xml version="1.0" encoding="UTF-8" standalone="no"?>
<!DOCTYPE svg PUBLIC "-//W3C//DTD SVG 1.1//EN"
 "http://www.w3.org/Graphics/SVG/1.1/DTD/svg11.dtd">
<!-- Generated by graphviz version 2.43.0 (0)
 -->
<!-- Title: getComponentID Pages: 1 -->
<svg width="618pt" height="730pt"
 viewBox="0.00 0.00 618.00 730.00" xmlns="http://www.w3.org/2000/svg" xmlns:xlink="http://www.w3.org/1999/xlink">
<g id="graph0" class="graph" transform="scale(1 1) rotate(0) translate(4 726)">
<title>getComponentID</title>
<!-- Node1 -->
<g id="Node000001" class="node">
<title>Node1</title>
<g id="a_Node000001"><a xlink:title=" ">
<polygon fill="#999999" stroke="#666666" points="610,-370 511,-370 511,-351 610,-351 610,-370"/>
<text text-anchor="middle" x="560.5" y="-358" font-family="Helvetica,sans-Serif" font-size="10.00">getComponentID</text>
</a>
</g>
</g>
<!-- Node1&#45;&gt;Node1 -->
<g id="edge21_Node000001_Node000001" class="edge">
<title>Node1&#45;&gt;Node1</title>
<g id="a_edge21_Node000001_Node000001"><a xlink:title=" ">
<path fill="none" stroke="#63b8ff" d="M591.94,-378.45C591.04,-383.82 580.56,-388 560.5,-388 530.64,-388 522.01,-378.73 534.61,-370.08"/>
<polygon fill="#63b8ff" stroke="#63b8ff" points="594.84,-376.49 586.39,-370.08 589,-380.35 594.84,-376.49"/>
</a>
</g>
</g>
<!-- Node2 -->
<g id="Node000002" class="node">
<title>Node2</title>
<g id="a_Node000002"><a xlink:href="classStorageComponent.html#aafb0684b10615747aab071b895d97d47" target="_top" xlink:title=" ">
<polygon fill="white" stroke="#666666" points="458,-722 324,-722 324,-703 458,-703 458,-722"/>
<text text-anchor="middle" x="391" y="-710" font-family="Helvetica,sans-Serif" font-size="10.00">StorageComponent::add</text>
</a>
</g>
</g>
<!-- Node1&#45;&gt;Node2 -->
<g id="edge1_Node000001_Node000002" class="edge">
<title>Node1&#45;&gt;Node2</title>
<g id="a_edge1_Node000001_Node000002"><a xlink:title=" ">
<path fill="none" stroke="#63b8ff" d="M557.21,-380.37C549.31,-445.34 521.15,-649.9 475,-694.5 470.12,-699.21 464.32,-702.81 458.08,-705.55"/>
<polygon fill="#63b8ff" stroke="#63b8ff" points="560.71,-380.58 558.41,-370.24 553.76,-379.76 560.71,-380.58"/>
</a>
</g>
</g>
<!-- Node3 -->
<g id="Node000003" class="node">
<title>Node3</title>
<g id="a_Node000003"><a xlink:href="classECS.html#ab25f63dc0523958d986069505b703c12" target="_top" xlink:title="Adds a component to an entity.">
<polygon fill="white" stroke="#666666" points="449,-685 333,-685 333,-666 449,-666 449,-685"/>
<text text-anchor="middle" x="391" y="-673" font-family="Helvetica,sans-Serif" font-size="10.00">ECS::addComponent</text>
</a>
</g>
</g>
<!-- Node1&#45;&gt;Node3 -->
<g id="edge2_Node000001_Node000003" class="edge">
<title>Node1&#45;&gt;Node3</title>
<g id="a_edge2_Node000001_Node000003"><a xlink:title=" ">
<path fill="none" stroke="#63b8ff" d="M560.29,-380.41C561.24,-433.83 556.04,-581.46 475,-657.5 467.8,-664.26 458.68,-668.71 449.14,-671.61"/>
<polygon fill="#63b8ff" stroke="#63b8ff" points="563.78,-380.13 560.01,-370.23 556.78,-380.33 563.78,-380.13"/>
</a>
</g>
</g>
<!-- Node4 -->
<g id="Node000004" class="node">
<title>Node4</title>
<g id="a_Node000004"><a xlink:href="classECS.html#a729237fc4138af4f48df163dec088efb" target="_top" xlink:title=" ">
<polygon fill="white" stroke="#666666" points="451.5,-426 330.5,-426 330.5,-407 451.5,-407 451.5,-426"/>
<text text-anchor="middle" x="391" y="-414" font-family="Helvetica,sans-Serif" font-size="10.00">ECS::addComponents</text>
</a>
</g>
</g>
<!-- Node1&#45;&gt;Node4 -->
<g id="edge3_Node000001_Node000004" class="edge">
<title>Node1&#45;&gt;Node4</title>
<g id="a_edge3_Node000001_Node000004"><a xlink:title=" ">
<path fill="none" stroke="#63b8ff" d="M531.04,-374.56C514.89,-382.13 494.14,-391.18 475,-397.5 464.05,-401.11 452.07,-404.29 440.7,-406.96"/>
<polygon fill="#63b8ff" stroke="#63b8ff" points="532.92,-377.54 540.44,-370.08 529.91,-371.22 532.92,-377.54"/>
</a>
</g>
</g>
<!-- Node7 -->
<g id="Node000007" class="node">
<title>Node7</title>
<g id="a_Node000007"><a xlink:href="classECS.html#a9e8a8388bce60d993a5ef04fd42dc0f0" target="_top" xlink:title="Adds delta time to the ECS time.">
<polygon fill="white" stroke="#666666" points="433,-611 349,-611 349,-592 433,-592 433,-611"/>
<text text-anchor="middle" x="391" y="-599" font-family="Helvetica,sans-Serif" font-size="10.00">ECS::addTime</text>
</a>
</g>
</g>
<!-- Node1&#45;&gt;Node7 -->
<g id="edge8_Node000001_Node000007" class="edge">
<title>Node1&#45;&gt;Node7</title>
<g id="a_edge8_Node000001_Node000007"><a xlink:title=" ">
<path fill="none" stroke="#63b8ff" d="M558.12,-380.33C553.96,-424.15 537.62,-529.56 475,-583.5 463.49,-593.41 447.81,-598.26 433.17,-600.52"/>
<polygon fill="#63b8ff" stroke="#63b8ff" points="561.61,-380.62 558.95,-370.37 554.63,-380.04 561.61,-380.62"/>
</a>
</g>
</g>
<!-- Node8 -->
<g id="Node000008" class="node">
<title>Node8</title>
<g id="a_Node000008"><a xlink:href="classECS.html#a41b876f3725cbb04aac3f2edd95522c6" target="_top" xlink:title=" ">
<polygon fill="white" stroke="#666666" points="441.5,-574 340.5,-574 340.5,-555 441.5,-555 441.5,-574"/>
<text text-anchor="middle" x="391" y="-562" font-family="Helvetica,sans-Serif" font-size="10.00">ECS::createEntity</text>
</a>
</g>
</g>
<!-- Node1&#45;&gt;Node8 -->
<g id="edge9_Node000001_Node000008" class="edge">
<title>Node1&#45;&gt;Node8</title>
<g id="a_edge9_Node000001_Node000008"><a xlink:title=" ">
<path fill="none" stroke="#63b8ff" d="M556.45,-380.38C549.45,-418.81 528.53,-503.3 475,-546.5 465.59,-554.09 453.69,-558.67 441.87,-561.38"/>
<polygon fill="#63b8ff" stroke="#63b8ff" points="559.98,-380.47 558.19,-370.03 553.08,-379.31 559.98,-380.47"/>
</a>
</g>
</g>
<!-- Node9 -->
<g id="Node000009" class="node">
<title>Node9</title>
<g id="a_Node000009"><a xlink:href="classECS.html#a7fba8bcfbb8d238085ab7302d96a332f" target="_top" xlink:title=" ">
<polygon fill="white" stroke="#666666" points="421,-537 361,-537 361,-518 421,-518 421,-537"/>
<text text-anchor="middle" x="391" y="-525" font-family="Helvetica,sans-Serif" font-size="10.00">ECS::ECS</text>
</a>
</g>
</g>
<!-- Node1&#45;&gt;Node9 -->
<g id="edge10_Node000001_Node000009" class="edge">
<title>Node1&#45;&gt;Node9</title>
<g id="a_edge10_Node000001_Node000009"><a xlink:title=" ">
<path fill="none" stroke="#63b8ff" d="M554.14,-380.02C544.2,-412.32 519.77,-476.57 475,-509.5 459.56,-520.86 438.4,-525.32 421.31,-526.97"/>
<polygon fill="#63b8ff" stroke="#63b8ff" points="557.51,-380.97 556.96,-370.38 550.79,-379 557.51,-380.97"/>
</a>
</g>
</g>
<!-- Node10 -->
<g id="Node000010" class="node">
<title>Node10</title>
<g id="a_Node000010"><a xlink:href="classStorageComponent.html#a9ab952a02c2b870d2b4d8c183a404a39" target="_top" xlink:title=" ">
<polygon fill="white" stroke="#666666" points="457,-500 325,-500 325,-481 457,-481 457,-500"/>
<text text-anchor="middle" x="391" y="-488" font-family="Helvetica,sans-Serif" font-size="10.00">StorageComponent::get</text>
</a>
</g>
</g>
<!-- Node1&#45;&gt;Node10 -->
<g id="edge11_Node000001_Node000010" class="edge">
<title>Node1&#45;&gt;Node10</title>
<g id="a_edge11_Node000001_Node000010"><a xlink:title=" ">
<path fill="none" stroke="#63b8ff" d="M550.63,-379.42C537.71,-404.79 511.25,-449.32 475,-472.5 469.53,-476 463.5,-478.82 457.24,-481.1"/>
<polygon fill="#63b8ff" stroke="#63b8ff" points="553.92,-380.65 555.19,-370.13 547.64,-377.57 553.92,-380.65"/>
</a>
</g>
</g>
<!-- Node11 -->
<g id="Node000011" class="node">
<title>Node11</title>
<g id="a_Node000011"><a xlink:href="classStorageComponent.html#a4e0239d1d216347282d49c0bcdf0079d" target="_top" xlink:title=" ">
<polygon fill="white" stroke="#666666" points="457,-463 325,-463 325,-444 457,-444 457,-463"/>
<text text-anchor="middle" x="391" y="-451" font-family="Helvetica,sans-Serif" font-size="10.00">StorageComponent::get</text>
</a>
</g>
</g>
<!-- Node1&#45;&gt;Node11 -->
<g id="edge12_Node000001_Node000011" class="edge">
<title>Node1&#45;&gt;Node11</title>
<g id="a_edge12_Node000001_Node000011"><a xlink:title=" ">
<path fill="none" stroke="#63b8ff" d="M544.69,-377.7C529.08,-394.73 502.91,-420.25 475,-434.5 467.36,-438.4 458.93,-441.51 450.45,-443.98"/>
<polygon fill="#63b8ff" stroke="#63b8ff" points="547.42,-379.9 551.47,-370.12 542.2,-375.24 547.42,-379.9"/>
</a>
</g>
</g>
<!-- Node12 -->
<g id="Node000012" class="node">
<title>Node12</title>
<g id="a_Node000012"><a xlink:href="classECS.html#aaae60c88af59dd7af9d86200eb522bbc" target="_top" xlink:title="Retrieves a mutable pointer to a component.">
<polygon fill="white" stroke="#666666" points="447.5,-648 334.5,-648 334.5,-629 447.5,-629 447.5,-648"/>
<text text-anchor="middle" x="391" y="-636" font-family="Helvetica,sans-Serif" font-size="10.00">ECS::getComponent</text>
</a>
</g>
</g>
<!-- Node1&#45;&gt;Node12 -->
<g id="edge13_Node000001_Node000012" class="edge">
<title>Node1&#45;&gt;Node12</title>
<g id="a_edge13_Node000001_Node000012"><a xlink:title=" ">
<path fill="none" stroke="#63b8ff" d="M559.35,-380.19C557.85,-428.85 546.87,-555.52 475,-620.5 467.34,-627.42 457.67,-631.9 447.65,-634.76"/>
<polygon fill="#63b8ff" stroke="#63b8ff" points="562.85,-380.13 559.55,-370.06 555.85,-379.99 562.85,-380.13"/>
</a>
</g>
</g>
<!-- Node17 -->
<g id="Node000017" class="node">
<title>Node17</title>
<g id="a_Node000017"><a xlink:href="classECS.html#a358206e15202fccfa73017c47af07079" target="_top" xlink:title="Retrieves a read&#45;only pointer to a component.">
<polygon fill="white" stroke="#666666" points="461.5,-241 320.5,-241 320.5,-222 461.5,-222 461.5,-241"/>
<text text-anchor="middle" x="391" y="-229" font-family="Helvetica,sans-Serif" font-size="10.00">ECS::getConstComponent</text>
</a>
</g>
</g>
<!-- Node1&#45;&gt;Node17 -->
<g id="edge22_Node000001_Node000017" class="edge">
<title>Node1&#45;&gt;Node17</title>
<g id="a_edge22_Node000001_Node000017"><a xlink:title=" ">
<path fill="none" stroke="#63b8ff" d="M550.58,-341.74C537.61,-316.6 511.09,-272.47 475,-249.5 469.65,-246.1 463.76,-243.33 457.65,-241.08"/>
<polygon fill="#63b8ff" stroke="#63b8ff" points="547.57,-343.56 555.16,-350.95 553.84,-340.44 547.57,-343.56"/>
</a>
</g>
</g>
<!-- Node19 -->
<g id="Node000019" class="node">
<title>Node19</title>
<g id="a_Node000019"><a xlink:href="classECS.html#a8d931ce389d47888768e1a5092bde26b" target="_top" xlink:title="Retrieves entities that have all specified components.">
<polygon fill="white" stroke="#666666" points="475,-352 307,-352 307,-333 475,-333 475,-352"/>
<text text-anchor="middle" x="391" y="-340" font-family="Helvetica,sans-Serif" font-size="10.00">ECS::getEntitiesByComponents</text>
</a>
</g>
</g>
<!-- Node1&#45;&gt;Node19 -->
<g id="edge24_Node000001_Node000019" class="edge">
<title>Node1&#45;&gt;Node19</title>
<g id="a_edge24_Node000001_Node000019"><a xlink:title=" ">
<path fill="none" stroke="#63b8ff" d="M500.47,-354.16C492.31,-353.28 483.81,-352.37 475.31,-351.45"/>
<polygon fill="#63b8ff" stroke="#63b8ff" points="500.29,-357.66 510.6,-355.25 501.03,-350.7 500.29,-357.66"/>
</a>
</g>
</g>
<!-- Node20 -->
<g id="Node000020" class="node">
<title>Node20</title>
<g id="a_Node000020"><a xlink:href="classECS.html#a11aacce5459a5ce429ea8d181bb4ddc3" target="_top" xlink:title=" ">
<polygon fill="white" stroke="#666666" points="443,-315 339,-315 339,-296 443,-296 443,-315"/>
<text text-anchor="middle" x="391" y="-303" font-family="Helvetica,sans-Serif" font-size="10.00">ECS::getSignature</text>
</a>
</g>
</g>
<!-- Node1&#45;&gt;Node20 -->
<g id="edge28_Node000001_Node000020" class="edge">
<title>Node1&#45;&gt;Node20</title>
<g id="a_edge28_Node000001_Node000020"><a xlink:title=" ">
<path fill="none" stroke="#63b8ff" d="M531.06,-346.35C514.93,-338.76 494.18,-329.71 475,-323.5 464.9,-320.23 453.92,-317.38 443.34,-314.96"/>
<polygon fill="#63b8ff" stroke="#63b8ff" points="529.93,-349.69 540.46,-350.85 532.95,-343.38 529.93,-349.69"/>
</a>
</g>
</g>
<!-- Node21 -->
<g id="Node000021" class="node">
<title>Node21</title>
<g id="a_Node000021"><a xlink:href="classStorageComponent.html#a6de145a1ea5570363f566ab9fce66578" target="_top" xlink:title=" ">
<polygon fill="white" stroke="#666666" points="458,-278 324,-278 324,-259 458,-259 458,-278"/>
<text text-anchor="middle" x="391" y="-266" font-family="Helvetica,sans-Serif" font-size="10.00">StorageComponent::has</text>
</a>
</g>
</g>
<!-- Node1&#45;&gt;Node21 -->
<g id="edge29_Node000001_Node000021" class="edge">
<title>Node1&#45;&gt;Node21</title>
<g id="a_edge29_Node000001_Node000021"><a xlink:title=" ">
<path fill="none" stroke="#63b8ff" d="M544.73,-343.23C529.14,-326.15 502.99,-300.59 475,-286.5 468.15,-283.05 460.66,-280.26 453.07,-278.01"/>
<polygon fill="#63b8ff" stroke="#63b8ff" points="542.23,-345.69 551.49,-350.84 547.47,-341.04 542.23,-345.69"/>
</a>
</g>
</g>
<!-- Node22 -->
<g id="Node000022" class="node">
<title>Node22</title>
<g id="a_Node000022"><a xlink:href="classECS.html#a33c16853296e9784dfb558f35dffbd72" target="_top" xlink:title="Checks if an entity has a specific component.">
<polygon fill="white" stroke="#666666" points="448.5,-389 333.5,-389 333.5,-370 448.5,-370 448.5,-389"/>
<text text-anchor="middle" x="391" y="-377" font-family="Helvetica,sans-Serif" font-size="10.00">ECS::hasComponent</text>
</a>
</g>
</g>
<!-- Node1&#45;&gt;Node22 -->
<g id="edge30_Node000001_Node000022" class="edge">
<title>Node1&#45;&gt;Node22</title>
<g id="a_edge30_Node000001_Node000022"><a xlink:title=" ">
<path fill="none" stroke="#63b8ff" d="M500.35,-367.21C483.55,-369.12 465.29,-371.19 448.63,-373.08"/>
<polygon fill="#63b8ff" stroke="#63b8ff" points="501.06,-370.65 510.6,-366.05 500.27,-363.7 501.06,-370.65"/>
</a>
</g>
</g>
<!-- Node23 -->
<g id="Node000023" class="node">
<title>Node23</title>
<g id="a_Node000023"><a xlink:href="classStorageComponent.html#a9584f43386171c9196aa127830fbbf5a" target="_top" xlink:title=" ">
<polygon fill="white" stroke="#666666" points="456.5,-204 325.5,-204 325.5,-185 456.5,-185 456.5,-204"/>
<text text-anchor="middle" x="391" y="-192" font-family="Helvetica,sans-Serif" font-size="10.00">StorageComponent::kill</text>
</a>
</g>
</g>
<!-- Node1&#45;&gt;Node23 -->
<g id="edge33_Node000001_Node000023" class="edge">
<title>Node1&#45;&gt;Node23</title>
<g id="a_edge33_Node000001_Node000023"><a xlink:title=" ">
<path fill="none" stroke="#63b8ff" d="M553.97,-340.69C543.89,-308.47 519.39,-245.06 475,-212.5 469.53,-208.49 463.35,-205.34 456.88,-202.87"/>
<polygon fill="#63b8ff" stroke="#63b8ff" points="550.73,-342.09 556.94,-350.68 557.44,-340.1 550.73,-342.09"/>
</a>
</g>
</g>
<!-- Node24 -->
<g id="Node000024" class="node">
<title>Node24</title>
<g id="a_Node000024"><a xlink:href="classECS.html#aa790d7ea384b5aad8a2dbe0d2cee1661" target="_top" xlink:title="Removes a specific component from an entity.">
<polygon fill="white" stroke="#666666" points="447.5,-167 334.5,-167 334.5,-148 447.5,-148 447.5,-167"/>
<text text-anchor="middle" x="391" y="-155" font-family="Helvetica,sans-Serif" font-size="10.00">ECS::killComponent</text>
</a>
</g>
</g>
<!-- Node1&#45;&gt;Node24 -->
<g id="edge34_Node000001_Node000024" class="edge">
<title>Node1&#45;&gt;Node24</title>
<g id="a_edge34_Node000001_Node000024"><a xlink:title=" ">
<path fill="none" stroke="#63b8ff" d="M556.4,-340.68C549.34,-302.43 528.32,-218.43 475,-175.5 467.19,-169.21 457.67,-164.99 447.91,-162.19"/>
<polygon fill="#63b8ff" stroke="#63b8ff" points="552.96,-341.32 558.11,-350.59 559.86,-340.14 552.96,-341.32"/>
</a>
</g>
</g>
<!-- Node25 -->
<g id="Node000025" class="node">
<title>Node25</title>
<g id="a_Node000025"><a xlink:href="classECS.html#a77bab58f7b7d5e53443078f60957b2d2" target="_top" xlink:title=" ">
<polygon fill="white" stroke="#666666" points="433.5,-130 348.5,-130 348.5,-111 433.5,-111 433.5,-130"/>
<text text-anchor="middle" x="391" y="-118" font-family="Helvetica,sans-Serif" font-size="10.00">ECS::killEntity</text>
</a>
</g>
</g>
<!-- Node1&#45;&gt;Node25 -->
<g id="edge35_Node000001_Node000025" class="edge">
<title>Node1&#45;&gt;Node25</title>
<g id="a_edge35_Node000001_Node000025"><a xlink:title=" ">
<path fill="none" stroke="#63b8ff" d="M558.06,-340.47C553.8,-296.69 537.28,-192.07 475,-138.5 463.6,-128.69 448.11,-123.84 433.59,-121.56"/>
<polygon fill="#63b8ff" stroke="#63b8ff" points="554.6,-341.01 558.94,-350.68 561.57,-340.41 554.6,-341.01"/>
</a>
</g>
</g>
<!-- Node26 -->
<g id="Node000026" class="node">
<title>Node26</title>
<g id="a_Node000026"><a xlink:href="server_2ecs_8hpp.html#afdb02fc115de82c93e814ac1d3a64c06" target="_top" xlink:title=" ">
<polygon fill="white" stroke="#666666" points="454,-93 328,-93 328,-74 454,-74 454,-93"/>
<text text-anchor="middle" x="391" y="-81" font-family="Helvetica,sans-Serif" font-size="10.00">newComponentTypeID</text>
</a>
</g>
</g>
<!-- Node1&#45;&gt;Node26 -->
<g id="edge36_Node000001_Node000026" class="edge">
<title>Node1&#45;&gt;Node26</title>
<g id="a_edge36_Node000001_Node000026"><a xlink:title=" ">
<path fill="none" stroke="#63b8ff" d="M559.32,-340.88C557.76,-292.41 546.66,-166.21 475,-101.5 468.98,-96.06 461.72,-92.13 454.02,-89.31"/>
<polygon fill="#63b8ff" stroke="#63b8ff" points="555.83,-341.05 559.54,-350.97 562.83,-340.9 555.83,-341.05"/>
</a>
</g>
</g>
<!-- Node27 -->
<g id="Node000027" class="node">
<title>Node27</title>
<g id="a_Node000027"><a xlink:href="classECS.html#a2d9a9caa600c1982410d33ce3a88eeef" target="_top" xlink:title=" ">
<polygon fill="white" stroke="#666666" points="442.5,-56 339.5,-56 339.5,-37 442.5,-37 442.5,-56"/>
<text text-anchor="middle" x="391" y="-44" font-family="Helvetica,sans-Serif" font-size="10.00">ECS::setSignature</text>
</a>
</g>
</g>
<!-- Node1&#45;&gt;Node27 -->
<g id="edge37_Node000001_Node000027" class="edge">
<title>Node1&#45;&gt;Node27</title>
<g id="a_edge37_Node000001_Node000027"><a xlink:title=" ">
<path fill="none" stroke="#63b8ff" d="M560.26,-340.66C561.16,-287.41 555.82,-140.27 475,-64.5 466.18,-56.23 454.49,-51.41 442.68,-48.68"/>
<polygon fill="#63b8ff" stroke="#63b8ff" points="556.76,-340.71 559.99,-350.8 563.76,-340.89 556.76,-340.71"/>
</a>
</g>
</g>
<!-- Node28 -->
<g id="Node000028" class="node">
<title>Node28</title>
<g id="a_Node000028"><a xlink:href="classECS.html#a0d360a43bc140d37953297708afb8b86" target="_top" xlink:title="Verifies and initializes storage for a component type if needed.">
<polygon fill="white" stroke="#666666" points="472.5,-19 309.5,-19 309.5,0 472.5,0 472.5,-19"/>
<text text-anchor="middle" x="391" y="-7" font-family="Helvetica,sans-Serif" font-size="10.00">ECS::verifyComponentStorage</text>
</a>
</g>
</g>
<!-- Node1&#45;&gt;Node28 -->
<g id="edge38_Node000001_Node000028" class="edge">
<title>Node1&#45;&gt;Node28</title>
<g id="a_edge38_Node000001_Node000028"><a xlink:title=" ">
<path fill="none" stroke="#63b8ff" d="M557.2,-340.69C549.27,-275.91 521.04,-71.96 475,-27.5 471.61,-24.22 467.76,-21.48 463.64,-19.2"/>
<polygon fill="#63b8ff" stroke="#63b8ff" points="553.74,-341.28 558.41,-350.79 560.69,-340.44 553.74,-341.28"/>
</a>
</g>
</g>
<!-- Node5 -->
<g id="Node000005" class="node">
<title>Node5</title>
<g id="a_Node000005"><a xlink:href="classClient.html#ad361032d607e05a51b215e1300029bbc" target="_top" xlink:title=" ">
<polygon fill="white" stroke="#666666" points="271,-465 158,-465 158,-446 271,-446 271,-465"/>
<text text-anchor="middle" x="214.5" y="-453" font-family="Helvetica,sans-Serif" font-size="10.00">Client::applyUpdate</text>
</a>
</g>
</g>
<!-- Node4&#45;&gt;Node5 -->
<g id="edge4_Node000004_Node000005" class="edge">
<title>Node4&#45;&gt;Node5</title>
<g id="a_edge4_Node000004_Node000005"><a xlink:title=" ">
<path fill="none" stroke="#63b8ff" d="M335.76,-428.16C326.18,-430.25 316.29,-432.43 307,-434.5 290.46,-438.19 272.25,-442.35 256.47,-445.99"/>
<polygon fill="#63b8ff" stroke="#63b8ff" points="336.58,-431.57 345.61,-426.02 335.1,-424.73 336.58,-431.57"/>
</a>
</g>
</g>
<!-- Node6 -->
<g id="Node000006" class="node">
<title>Node6</title>
<g id="a_Node000006"><a xlink:href="classClient.html#a6e7a5e19c40bef39ae1c0f5996b8c471" target="_top" xlink:title=" ">
<polygon fill="white" stroke="#666666" points="103.5,-465 18.5,-465 18.5,-446 103.5,-446 103.5,-465"/>
<text text-anchor="middle" x="61" y="-453" font-family="Helvetica,sans-Serif" font-size="10.00">Client::update</text>
</a>
</g>
</g>
<!-- Node5&#45;&gt;Node6 -->
<g id="edge5_Node000005_Node000006" class="edge">
<title>Node5&#45;&gt;Node6</title>
<g id="a_edge5_Node000005_Node000006"><a xlink:title=" ">
<path fill="none" stroke="#63b8ff" d="M147.73,-448.8C132.82,-448.65 117.38,-448.84 103.78,-449.39"/>
<polygon fill="#63b8ff" stroke="#63b8ff" points="147.89,-452.31 157.95,-448.97 148.01,-445.31 147.89,-452.31"/>
</a>
</g>
</g>
<!-- Node6&#45;&gt;Node5 -->
<g id="edge6_Node000006_Node000005" class="edge">
<title>Node6&#45;&gt;Node5</title>
<g id="a_edge6_Node000006_Node000005"><a xlink:title=" ">
<path fill="none" stroke="#63b8ff" d="M113.87,-461.94C128.08,-462.32 143.54,-462.35 157.95,-462.03"/>
<polygon fill="#63b8ff" stroke="#63b8ff" points="113.89,-458.44 103.78,-461.61 113.66,-465.44 113.89,-458.44"/>
</a>
</g>
</g>
<!-- Node6&#45;&gt;Node6 -->
<g id="edge7_Node000006_Node000006" class="edge">
<title>Node6&#45;&gt;Node6</title>
<g id="a_edge7_Node000006_Node000006"><a xlink:title=" ">
<path fill="none" stroke="#63b8ff" d="M89.37,-473.82C88.19,-479.01 78.73,-483 61,-483 33.98,-483 26.18,-473.73 37.57,-465.08"/>
<polygon fill="#63b8ff" stroke="#63b8ff" points="92.4,-472.06 84.43,-465.08 86.31,-475.51 92.4,-472.06"/>
</a>
</g>
</g>
<!-- Node12&#45;&gt;Node5 -->
<g id="edge16_Node000012_Node000005" class="edge">
<title>Node12&#45;&gt;Node5</title>
<g id="a_edge16_Node000012_Node000005"><a xlink:title=" ">
<path fill="none" stroke="#63b8ff" d="M324.72,-631.33C318.25,-628.64 312.17,-625.12 307,-620.5 269.87,-587.38 296.63,-557.15 271,-514.5 259.12,-494.73 239.68,-476.08 227.25,-465.22"/>
<polygon fill="#63b8ff" stroke="#63b8ff" points="323.83,-634.72 334.42,-634.68 326.11,-628.11 323.83,-634.72"/>
</a>
</g>
</g>
<!-- Node12&#45;&gt;Node6 -->
<g id="edge19_Node000012_Node000006" class="edge">
<title>Node12&#45;&gt;Node6</title>
<g id="a_edge19_Node000012_Node000006"><a xlink:title=" ">
<path fill="none" stroke="#63b8ff" d="M324.56,-628.26C318.44,-626.14 312.48,-623.59 307,-620.5 286.73,-609.08 289.1,-597.11 271,-582.5 206.91,-530.76 119.93,-484.5 81.56,-465.13"/>
<polygon fill="#63b8ff" stroke="#63b8ff" points="323.69,-631.66 334.28,-631.25 325.75,-624.97 323.69,-631.66"/>
</a>
</g>
</g>
<!-- Node13 -->
<g id="Node000013" class="node">
<title>Node13</title>
<g id="a_Node000013"><a xlink:href="classServer.html#aac4110712ec347909be9bd4a5140ac4f" target="_top" xlink:title=" ">
<polygon fill="white" stroke="#666666" points="267.5,-686 161.5,-686 161.5,-667 267.5,-667 267.5,-686"/>
<text text-anchor="middle" x="214.5" y="-674" font-family="Helvetica,sans-Serif" font-size="10.00">Server::applyInput</text>
</a>
</g>
</g>
<!-- Node12&#45;&gt;Node13 -->
<g id="edge14_Node000012_Node000013" class="edge">
<title>Node12&#45;&gt;Node13</title>
<g id="a_edge14_Node000012_Node000013"><a xlink:title=" ">
<path fill="none" stroke="#63b8ff" d="M336.03,-650.25C311.36,-655.63 282.51,-661.91 259.22,-666.98"/>
<polygon fill="#63b8ff" stroke="#63b8ff" points="336.94,-653.64 345.97,-648.09 335.45,-646.8 336.94,-653.64"/>
</a>
</g>
</g>
<!-- Node14 -->
<g id="Node000014" class="node">
<title>Node14</title>
<g id="a_Node000014"><a xlink:href="classServer.html#aeee363eaf9f494aa542f2e0ad1d7813b" target="_top" xlink:title=" ">
<polygon fill="white" stroke="#666666" points="122,-667 0,-667 0,-648 122,-648 122,-667"/>
<text text-anchor="middle" x="61" y="-655" font-family="Helvetica,sans-Serif" font-size="10.00">Server::processInputs</text>
</a>
</g>
</g>
<!-- Node12&#45;&gt;Node14 -->
<g id="edge18_Node000012_Node000014" class="edge">
<title>Node12&#45;&gt;Node14</title>
<g id="a_edge18_Node000012_Node000014"><a xlink:title=" ">
<path fill="none" stroke="#63b8ff" d="M324.03,-642.32C265.01,-645.74 179.24,-650.71 122.09,-654.02"/>
<polygon fill="#63b8ff" stroke="#63b8ff" points="324.58,-645.8 334.36,-641.72 324.17,-638.81 324.58,-645.8"/>
</a>
</g>
</g>
<!-- Node15 -->
<g id="Node000015" class="node">
<title>Node15</title>
<g id="a_Node000015"><a xlink:href="classClient.html#a643ed09341f07f8c81696741f2d2ca07" target="_top" xlink:title=" ">
<polygon fill="white" stroke="#666666" points="271,-610 158,-610 158,-591 271,-591 271,-610"/>
<text text-anchor="middle" x="214.5" y="-598" font-family="Helvetica,sans-Serif" font-size="10.00">Client::processInput</text>
</a>
</g>
</g>
<!-- Node12&#45;&gt;Node15 -->
<g id="edge17_Node000012_Node000015" class="edge">
<title>Node12&#45;&gt;Node15</title>
<g id="a_edge17_Node000012_Node000015"><a xlink:title=" ">
<path fill="none" stroke="#63b8ff" d="M336.11,-626.83C326.42,-624.72 316.41,-622.55 307,-620.5 291.43,-617.11 274.37,-613.38 259.25,-610.08"/>
<polygon fill="#63b8ff" stroke="#63b8ff" points="335.55,-630.29 346.06,-628.98 337.03,-623.44 335.55,-630.29"/>
</a>
</g>
</g>
<!-- Node16 -->
<g id="Node000016" class="node">
<title>Node16</title>
<g id="a_Node000016"><a xlink:href="classServer.html#af7b0a4370ac2c1e573f292870adfa81c" target="_top" xlink:title=" ">
<polygon fill="white" stroke="#666666" points="258.5,-428 170.5,-428 170.5,-409 258.5,-409 258.5,-428"/>
<text text-anchor="middle" x="214.5" y="-416" font-family="Helvetica,sans-Serif" font-size="10.00">Server::update</text>
</a>
</g>
</g>
<!-- Node12&#45;&gt;Node16 -->
<g id="edge20_Node000012_Node000016" class="edge">
<title>Node12&#45;&gt;Node16</title>
<g id="a_edge20_Node000012_Node000016"><a xlink:title=" ">
<path fill="none" stroke="#63b8ff" d="M324.35,-632.12C317.89,-629.3 311.92,-625.52 307,-620.5 248.68,-560.98 326.27,-498.86 271,-436.5 267.57,-432.63 263.31,-429.59 258.68,-427.2"/>
<polygon fill="#63b8ff" stroke="#63b8ff" points="323.5,-635.53 334.09,-635.6 325.85,-628.94 323.5,-635.53"/>
</a>
</g>
</g>
<!-- Node13&#45;&gt;Node14 -->
<g id="edge15_Node000013_Node000014" class="edge">
<title>Node13&#45;&gt;Node14</title>
<g id="a_edge15_Node000013_Node000014"><a xlink:title=" ">
<path fill="none" stroke="#63b8ff" d="M151.4,-668.71C141.7,-667.5 131.7,-666.24 122.05,-665.03"/>
<polygon fill="#63b8ff" stroke="#63b8ff" points="151,-672.19 161.36,-669.96 151.88,-665.24 151,-672.19"/>
</a>
</g>
</g>
<!-- Node18 -->
<g id="Node000018" class="node">
<title>Node18</title>
<g id="a_Node000018"><a xlink:href="classServer.html#af36f3a832531844b5f18d40c6db22cc9" target="_top" xlink:title=" ">
<polygon fill="white" stroke="#666666" points="265.5,-278 163.5,-278 163.5,-259 265.5,-259 265.5,-278"/>
<text text-anchor="middle" x="214.5" y="-266" font-family="Helvetica,sans-Serif" font-size="10.00">Server::broadcast</text>
</a>
</g>
</g>
<!-- Node17&#45;&gt;Node18 -->
<g id="edge23_Node000017_Node000018" class="edge">
<title>Node17&#45;&gt;Node18</title>
<g id="a_edge23_Node000017_Node000018"><a xlink:title=" ">
<path fill="none" stroke="#63b8ff" d="M335.05,-243.15C311.08,-248.23 283.32,-254.12 260.59,-258.94"/>
<polygon fill="#63b8ff" stroke="#63b8ff" points="336.01,-246.53 345.06,-241.03 334.55,-239.68 336.01,-246.53"/>
</a>
</g>
</g>
<!-- Node19&#45;&gt;Node6 -->
<g id="edge26_Node000019_Node000006" class="edge">
<title>Node19&#45;&gt;Node6</title>
<g id="a_edge26_Node000019_Node000006"><a xlink:title=" ">
<path fill="none" stroke="#63b8ff" d="M296.7,-344.7C253.03,-348.57 201.25,-357.34 158,-376.5 120.5,-393.11 85.79,-428.58 70.38,-445.77"/>
<polygon fill="#63b8ff" stroke="#63b8ff" points="297.06,-348.18 306.74,-343.89 296.49,-341.21 297.06,-348.18"/>
</a>
</g>
</g>
<!-- Node19&#45;&gt;Node16 -->
<g id="edge27_Node000019_Node000016" class="edge">
<title>Node19&#45;&gt;Node16</title>
<g id="a_edge27_Node000019_Node000016"><a xlink:title=" ">
<path fill="none" stroke="#63b8ff" d="M323,-354.87C317.51,-356.53 312.12,-358.4 307,-360.5 276.2,-373.13 244.25,-396.02 227.46,-408.95"/>
<polygon fill="#63b8ff" stroke="#63b8ff" points="324.25,-358.16 332.93,-352.09 322.36,-351.41 324.25,-358.16"/>
</a>
</g>
</g>
<!-- Node19&#45;&gt;Node18 -->
<g id="edge25_Node000019_Node000018" class="edge">
<title>Node19&#45;&gt;Node18</title>
<g id="a_edge25_Node000019_Node000018"><a xlink:title=" ">
<path fill="none" stroke="#63b8ff" d="M326.67,-330.21C319.94,-328.25 313.26,-326.02 307,-323.5 277.09,-311.44 245.57,-290.37 228.44,-278.1"/>
<polygon fill="#63b8ff" stroke="#63b8ff" points="325.97,-333.65 336.54,-332.89 327.81,-326.89 325.97,-333.65"/>
</a>
</g>
</g>
<!-- Node22&#45;&gt;Node6 -->
<g id="edge31_Node000022_Node000006" class="edge">
<title>Node22&#45;&gt;Node6</title>
<g id="a_edge31_Node000022_Node000006"><a xlink:title=" ">
<path fill="none" stroke="#63b8ff" d="M323.24,-377.56C276.04,-378.03 211.85,-382.43 158,-399.5 125.26,-409.88 91.64,-432.9 74.19,-445.96"/>
<polygon fill="#63b8ff" stroke="#63b8ff" points="323.36,-381.06 333.34,-377.52 323.33,-374.06 323.36,-381.06"/>
</a>
</g>
</g>
<!-- Node22&#45;&gt;Node16 -->
<g id="edge32_Node000022_Node000016" class="edge">
<title>Node22&#45;&gt;Node16</title>
<g id="a_edge32_Node000022_Node000016"><a xlink:title=" ">
<path fill="none" stroke="#63b8ff" d="M335.76,-391.16C326.18,-393.25 316.29,-395.43 307,-397.5 290.46,-401.19 272.25,-405.35 256.47,-408.99"/>
<polygon fill="#63b8ff" stroke="#63b8ff" points="336.58,-394.57 345.61,-389.02 335.1,-387.73 336.58,-394.57"/>
</a>
</g>
</g>
</g>
</svg>
