<?xml version="1.0" encoding="UTF-8" standalone="no"?>
<!DOCTYPE svg PUBLIC "-//W3C//DTD SVG 1.1//EN"
 "http://www.w3.org/Graphics/SVG/1.1/DTD/svg11.dtd">
<!-- Generated by graphviz version 2.43.0 (0)
 -->
<!-- Title: Components::WaveData Pages: 1 -->
<svg width="138pt" height="117pt"
 viewBox="0.00 0.00 138.00 117.00" xmlns="http://www.w3.org/2000/svg" xmlns:xlink="http://www.w3.org/1999/xlink">
<g id="graph0" class="graph" transform="scale(1 1) rotate(0) translate(4 113)">
<title>Components::WaveData</title>
<!-- Node1 -->
<g id="Node000001" class="node">
<title>Node1</title>
<g id="a_Node000001"><a xlink:title="Data for a specific wave.">
<polygon fill="#999999" stroke="transparent" points="130,-109 0,-109 0,0 130,0 130,-109"/>
<text text-anchor="start" x="6" y="-96.5" font-family="Helvetica,sans-Serif" font-size="10.00">Components::WaveData</text>
<text text-anchor="start" x="4" y="-81.5" font-family="Helvetica,sans-Serif" font-size="10.00">+</text>
<text text-anchor="start" x="17" y="-81.5" font-family="Helvetica,sans-Serif" font-size="10.00">float delay</text>
<text text-anchor="start" x="4" y="-66.5" font-family="Helvetica,sans-Serif" font-size="10.00">+</text>
<text text-anchor="start" x="17" y="-66.5" font-family="Helvetica,sans-Serif" font-size="10.00">std::string enemyType</text>
<text text-anchor="start" x="4" y="-51.5" font-family="Helvetica,sans-Serif" font-size="10.00">+</text>
<text text-anchor="start" x="17" y="-51.5" font-family="Helvetica,sans-Serif" font-size="10.00">int count</text>
<text text-anchor="start" x="4" y="-36.5" font-family="Helvetica,sans-Serif" font-size="10.00">+</text>
<text text-anchor="start" x="17" y="-36.5" font-family="Helvetica,sans-Serif" font-size="10.00">float x</text>
<text text-anchor="start" x="4" y="-21.5" font-family="Helvetica,sans-Serif" font-size="10.00">+</text>
<text text-anchor="start" x="17" y="-21.5" font-family="Helvetica,sans-Serif" font-size="10.00">float y</text>
<text text-anchor="start" x="63" y="-6.5" font-family="Helvetica,sans-Serif" font-size="10.00"> </text>
<polygon fill="#666666" stroke="#666666" points="0,-91.5 0,-91.5 130,-91.5 130,-91.5 0,-91.5"/>
<polygon fill="#666666" stroke="#666666" points="0,-16.5 0,-16.5 15,-16.5 15,-16.5 0,-16.5"/>
<polygon fill="#666666" stroke="#666666" points="15,-16.5 15,-16.5 130,-16.5 130,-16.5 15,-16.5"/>
<polygon fill="none" stroke="#666666" points="0,0 0,-109 130,-109 130,0 0,0"/>
</a>
</g>
</g>
</g>
</svg>
