<?xml version="1.0" encoding="UTF-8" standalone="no"?>
<!DOCTYPE svg PUBLIC "-//W3C//DTD SVG 1.1//EN"
 "http://www.w3.org/Graphics/SVG/1.1/DTD/svg11.dtd">
<!-- Generated by graphviz version 2.43.0 (0)
 -->
<!-- Title: EntityUpdate Pages: 1 -->
<svg width="127pt" height="224pt"
 viewBox="0.00 0.00 127.00 224.00" xmlns="http://www.w3.org/2000/svg" xmlns:xlink="http://www.w3.org/1999/xlink">
<g id="graph0" class="graph" transform="scale(1 1) rotate(0) translate(4 220)">
<title>EntityUpdate</title>
<!-- Node1 -->
<g id="Node000001" class="node">
<title>Node1</title>
<g id="a_Node000001"><a xlink:title=" ">
<polygon fill="#999999" stroke="transparent" points="110.5,-64 8.5,-64 8.5,0 110.5,0 110.5,-64"/>
<text text-anchor="start" x="27.5" y="-52" font-family="Helvetica,sans-Serif" font-size="10.00">EntityUpdate</text>
<text text-anchor="start" x="12.5" y="-37" font-family="Helvetica,sans-Serif" font-size="10.00">+</text>
<text text-anchor="start" x="25.5" y="-37" font-family="Helvetica,sans-Serif" font-size="10.00">uint32_t entityId</text>
<text text-anchor="start" x="12.5" y="-22" font-family="Helvetica,sans-Serif" font-size="10.00">+</text>
<text text-anchor="start" x="25.5" y="-22" font-family="Helvetica,sans-Serif" font-size="10.00">uint16_t tick</text>
<text text-anchor="start" x="57.5" y="-7" font-family="Helvetica,sans-Serif" font-size="10.00"> </text>
<polygon fill="#666666" stroke="#666666" points="8.5,-47 8.5,-47 110.5,-47 110.5,-47 8.5,-47"/>
<polygon fill="#666666" stroke="#666666" points="8.5,-17 8.5,-17 23.5,-17 23.5,-17 8.5,-17"/>
<polygon fill="#666666" stroke="#666666" points="23.5,-17 23.5,-17 110.5,-17 110.5,-17 23.5,-17"/>
<polygon fill="none" stroke="#666666" points="8.5,0 8.5,-64 110.5,-64 110.5,0 8.5,0"/>
</a>
</g>
</g>
<!-- Node2 -->
<g id="Node000002" class="node">
<title>Node2</title>
<g id="a_Node000002"><a xlink:href="structEntityUpdate_1_1PACKED.html" target="_top" xlink:title=" ">
<polygon fill="white" stroke="transparent" points="119,-216 0,-216 0,-122 119,-122 119,-216"/>
<text text-anchor="start" x="5.5" y="-204" font-family="Helvetica,sans-Serif" font-size="10.00">EntityUpdate::PACKED</text>
<text text-anchor="start" x="16" y="-189" font-family="Helvetica,sans-Serif" font-size="10.00">+</text>
<text text-anchor="start" x="40.5" y="-189" font-family="Helvetica,sans-Serif" font-size="10.00">float x</text>
<text text-anchor="start" x="16" y="-174" font-family="Helvetica,sans-Serif" font-size="10.00">+</text>
<text text-anchor="start" x="40.5" y="-174" font-family="Helvetica,sans-Serif" font-size="10.00">float y</text>
<text text-anchor="start" x="16" y="-159" font-family="Helvetica,sans-Serif" font-size="10.00">+</text>
<text text-anchor="start" x="40.5" y="-159" font-family="Helvetica,sans-Serif" font-size="10.00">int current</text>
<text text-anchor="start" x="16" y="-144" font-family="Helvetica,sans-Serif" font-size="10.00">+</text>
<text text-anchor="start" x="40.5" y="-144" font-family="Helvetica,sans-Serif" font-size="10.00">int max</text>
<text text-anchor="start" x="58" y="-129" font-family="Helvetica,sans-Serif" font-size="10.00"> </text>
<polygon fill="#666666" stroke="#666666" points="0.5,-199 0.5,-199 119.5,-199 119.5,-199 0.5,-199"/>
<polygon fill="#666666" stroke="#666666" points="0.5,-139 0.5,-139 38.5,-139 38.5,-139 0.5,-139"/>
<polygon fill="#666666" stroke="#666666" points="38.5,-139 38.5,-139 119.5,-139 119.5,-139 38.5,-139"/>
<polygon fill="none" stroke="#666666" points="0,-122 0,-216 119,-216 119,-122 0,-122"/>
</a>
</g>
</g>
<!-- Node2&#45;&gt;Node1 -->
<g id="edge1_Node000001_Node000002" class="edge">
<title>Node2&#45;&gt;Node1</title>
<g id="a_edge1_Node000001_Node000002"><a xlink:title=" ">
<path fill="none" stroke="#63b8ff" d="M59.5,-121.92C59.5,-107.15 59.5,-90.85 59.5,-76.29"/>
<polygon fill="none" stroke="#63b8ff" points="59.5,-76.02 55.5,-70.02 59.5,-64.02 63.5,-70.02 59.5,-76.02"/>
</a>
</g>
<text text-anchor="middle" x="83.5" y="-96" font-family="Helvetica,sans-Serif" font-size="10.00" fill="grey"> +health</text>
<text text-anchor="middle" x="83.5" y="-85" font-family="Helvetica,sans-Serif" font-size="10.00" fill="grey">+position</text>
</g>
</g>
</svg>
