<?xml version="1.0" encoding="UTF-8" standalone="no"?>
<!DOCTYPE svg PUBLIC "-//W3C//DTD SVG 1.1//EN"
 "http://www.w3.org/Graphics/SVG/1.1/DTD/svg11.dtd">
<!-- Generated by graphviz version 2.43.0 (0)
 -->
<!-- Title: include/server/UdpServer.hpp Pages: 1 -->
<svg width="870pt" height="192pt"
 viewBox="0.00 0.00 869.50 192.00" xmlns="http://www.w3.org/2000/svg" xmlns:xlink="http://www.w3.org/1999/xlink">
<g id="graph0" class="graph" transform="scale(1 1) rotate(0) translate(4 188)">
<title>include/server/UdpServer.hpp</title>
<!-- Node1 -->
<g id="Node000001" class="node">
<title>Node1</title>
<g id="a_Node000001"><a xlink:title=" ">
<polygon fill="#999999" stroke="#666666" points="558.5,-184 398.5,-184 398.5,-165 558.5,-165 558.5,-184"/>
<text text-anchor="middle" x="478.5" y="-172" font-family="Helvetica,sans-Serif" font-size="10.00">include/server/UdpServer.hpp</text>
</a>
</g>
</g>
<!-- Node2 -->
<g id="Node000002" class="node">
<title>Node2</title>
<g id="a_Node000002"><a xlink:href="SafeQueue_8hpp.html" target="_top" xlink:title=" ">
<polygon fill="white" stroke="#666666" points="91,-129 0,-129 0,-110 91,-110 91,-129"/>
<text text-anchor="middle" x="45.5" y="-117" font-family="Helvetica,sans-Serif" font-size="10.00">SafeQueue.hpp</text>
</a>
</g>
</g>
<!-- Node1&#45;&gt;Node2 -->
<g id="edge1_Node000001_Node000002" class="edge">
<title>Node1&#45;&gt;Node2</title>
<g id="a_edge1_Node000001_Node000002"><a xlink:title=" ">
<path fill="none" stroke="#63b8ff" d="M403.07,-164.99C327.68,-156.38 208.48,-142.44 105.5,-129 104.03,-128.81 102.55,-128.61 101.05,-128.41"/>
<polygon fill="#63b8ff" stroke="#63b8ff" points="101.4,-124.93 91.02,-127.06 100.46,-131.87 101.4,-124.93"/>
</a>
</g>
</g>
<!-- Node4 -->
<g id="Node000004" class="node">
<title>Node4</title>
<g id="a_Node000004"><a xlink:title=" ">
<polygon fill="#e0e0e0" stroke="#999999" points="139.5,-74 91.5,-74 91.5,-55 139.5,-55 139.5,-74"/>
<text text-anchor="middle" x="115.5" y="-62" font-family="Helvetica,sans-Serif" font-size="10.00">mutex</text>
</a>
</g>
</g>
<!-- Node1&#45;&gt;Node4 -->
<g id="edge18_Node000001_Node000004" class="edge">
<title>Node1&#45;&gt;Node4</title>
<g id="a_edge18_Node000001_Node000004"><a xlink:title=" ">
<path fill="none" stroke="#63b8ff" d="M398.24,-172.4C310.53,-169.61 177.31,-160.18 138.5,-129 125.08,-118.22 119.49,-98.93 117.16,-84.43"/>
<polygon fill="#63b8ff" stroke="#63b8ff" points="120.58,-83.59 115.9,-74.08 113.64,-84.43 120.58,-83.59"/>
</a>
</g>
</g>
<!-- Node5 -->
<g id="Node000005" class="node">
<title>Node5</title>
<g id="a_Node000005"><a xlink:title=" ">
<polygon fill="#e0e0e0" stroke="#999999" points="255.5,-129 147.5,-129 147.5,-110 255.5,-110 255.5,-129"/>
<text text-anchor="middle" x="201.5" y="-117" font-family="Helvetica,sans-Serif" font-size="10.00">SFML/Network.hpp</text>
</a>
</g>
</g>
<!-- Node1&#45;&gt;Node5 -->
<g id="edge4_Node000001_Node000005" class="edge">
<title>Node1&#45;&gt;Node5</title>
<g id="a_edge4_Node000001_Node000005"><a xlink:title=" ">
<path fill="none" stroke="#63b8ff" d="M434,-164.98C385.68,-155.74 308.46,-140.97 256.41,-131.01"/>
<polygon fill="#63b8ff" stroke="#63b8ff" points="256.83,-127.52 246.35,-129.08 255.52,-134.4 256.83,-127.52"/>
</a>
</g>
</g>
<!-- Node6 -->
<g id="Node000006" class="node">
<title>Node6</title>
<g id="a_Node000006"><a xlink:href="NetworkProtocol_8hpp.html" target="_top" xlink:title=" ">
<polygon fill="white" stroke="#666666" points="393,-129 274,-129 274,-110 393,-110 393,-129"/>
<text text-anchor="middle" x="333.5" y="-117" font-family="Helvetica,sans-Serif" font-size="10.00">NetworkProtocol.hpp</text>
</a>
</g>
</g>
<!-- Node1&#45;&gt;Node6 -->
<g id="edge5_Node000001_Node000006" class="edge">
<title>Node1&#45;&gt;Node6</title>
<g id="a_edge5_Node000001_Node000006"><a xlink:title=" ">
<path fill="none" stroke="#63b8ff" d="M455.2,-164.98C431.25,-156.23 393.72,-142.51 366.67,-132.62"/>
<polygon fill="#63b8ff" stroke="#63b8ff" points="367.81,-129.32 357.22,-129.17 365.41,-135.89 367.81,-129.32"/>
</a>
</g>
</g>
<!-- Node8 -->
<g id="Node000008" class="node">
<title>Node8</title>
<g id="a_Node000008"><a xlink:title=" ">
<polygon fill="#e0e0e0" stroke="#999999" points="479,-74 432,-74 432,-55 479,-55 479,-74"/>
<text text-anchor="middle" x="455.5" y="-62" font-family="Helvetica,sans-Serif" font-size="10.00">vector</text>
</a>
</g>
</g>
<!-- Node1&#45;&gt;Node8 -->
<g id="edge11_Node000001_Node000008" class="edge">
<title>Node1&#45;&gt;Node8</title>
<g id="a_edge11_Node000001_Node000008"><a xlink:title=" ">
<path fill="none" stroke="#63b8ff" d="M467.79,-164.93C458.57,-156.8 445.91,-143.68 440.5,-129 434.99,-114.07 440.04,-96.41 445.73,-83.51"/>
<polygon fill="#63b8ff" stroke="#63b8ff" points="448.97,-84.84 450.23,-74.32 442.68,-81.76 448.97,-84.84"/>
</a>
</g>
</g>
<!-- Node12 -->
<g id="Node000012" class="node">
<title>Node12</title>
<g id="a_Node000012"><a xlink:title=" ">
<polygon fill="#e0e0e0" stroke="#999999" points="507.5,-129 449.5,-129 449.5,-110 507.5,-110 507.5,-129"/>
<text text-anchor="middle" x="478.5" y="-117" font-family="Helvetica,sans-Serif" font-size="10.00">memory</text>
</a>
</g>
</g>
<!-- Node1&#45;&gt;Node12 -->
<g id="edge12_Node000001_Node000012" class="edge">
<title>Node1&#45;&gt;Node12</title>
<g id="a_edge12_Node000001_Node000012"><a xlink:title=" ">
<path fill="none" stroke="#63b8ff" d="M478.5,-164.75C478.5,-157.8 478.5,-147.85 478.5,-139.13"/>
<polygon fill="#63b8ff" stroke="#63b8ff" points="482,-139.09 478.5,-129.09 475,-139.09 482,-139.09"/>
</a>
</g>
</g>
<!-- Node13 -->
<g id="Node000013" class="node">
<title>Node13</title>
<g id="a_Node000013"><a xlink:title=" ">
<polygon fill="#e0e0e0" stroke="#999999" points="573.5,-129 525.5,-129 525.5,-110 573.5,-110 573.5,-129"/>
<text text-anchor="middle" x="549.5" y="-117" font-family="Helvetica,sans-Serif" font-size="10.00">thread</text>
</a>
</g>
</g>
<!-- Node1&#45;&gt;Node13 -->
<g id="edge13_Node000001_Node000013" class="edge">
<title>Node1&#45;&gt;Node13</title>
<g id="a_edge13_Node000001_Node000013"><a xlink:title=" ">
<path fill="none" stroke="#63b8ff" d="M489.91,-164.98C500.61,-157 516.84,-144.88 529.66,-135.31"/>
<polygon fill="#63b8ff" stroke="#63b8ff" points="531.97,-137.96 537.89,-129.17 527.78,-132.35 531.97,-137.96"/>
</a>
</g>
</g>
<!-- Node14 -->
<g id="Node000014" class="node">
<title>Node14</title>
<g id="a_Node000014"><a xlink:title=" ">
<polygon fill="#e0e0e0" stroke="#999999" points="641.5,-129 591.5,-129 591.5,-110 641.5,-110 641.5,-129"/>
<text text-anchor="middle" x="616.5" y="-117" font-family="Helvetica,sans-Serif" font-size="10.00">atomic</text>
</a>
</g>
</g>
<!-- Node1&#45;&gt;Node14 -->
<g id="edge14_Node000001_Node000014" class="edge">
<title>Node1&#45;&gt;Node14</title>
<g id="a_edge14_Node000001_Node000014"><a xlink:title=" ">
<path fill="none" stroke="#63b8ff" d="M500.67,-164.98C523.27,-156.3 558.56,-142.75 584.25,-132.88"/>
<polygon fill="#63b8ff" stroke="#63b8ff" points="585.84,-136.02 593.92,-129.17 583.33,-129.49 585.84,-136.02"/>
</a>
</g>
</g>
<!-- Node15 -->
<g id="Node000015" class="node">
<title>Node15</title>
<g id="a_Node000015"><a xlink:title=" ">
<polygon fill="#e0e0e0" stroke="#999999" points="719.5,-129 659.5,-129 659.5,-110 719.5,-110 719.5,-129"/>
<text text-anchor="middle" x="689.5" y="-117" font-family="Helvetica,sans-Serif" font-size="10.00">iostream</text>
</a>
</g>
</g>
<!-- Node1&#45;&gt;Node15 -->
<g id="edge15_Node000001_Node000015" class="edge">
<title>Node1&#45;&gt;Node15</title>
<g id="a_edge15_Node000001_Node000015"><a xlink:title=" ">
<path fill="none" stroke="#63b8ff" d="M512.4,-164.98C549.8,-155.59 609.93,-140.49 649.58,-130.53"/>
<polygon fill="#63b8ff" stroke="#63b8ff" points="650.6,-133.88 659.44,-128.05 648.89,-127.09 650.6,-133.88"/>
</a>
</g>
</g>
<!-- Node16 -->
<g id="Node000016" class="node">
<title>Node16</title>
<g id="a_Node000016"><a xlink:title=" ">
<polygon fill="#e0e0e0" stroke="#999999" points="793.5,-129 737.5,-129 737.5,-110 793.5,-110 793.5,-129"/>
<text text-anchor="middle" x="765.5" y="-117" font-family="Helvetica,sans-Serif" font-size="10.00">sstream</text>
</a>
</g>
</g>
<!-- Node1&#45;&gt;Node16 -->
<g id="edge16_Node000001_Node000016" class="edge">
<title>Node1&#45;&gt;Node16</title>
<g id="a_edge16_Node000001_Node000016"><a xlink:title=" ">
<path fill="none" stroke="#63b8ff" d="M530.84,-164.96C579.34,-156.87 653.73,-144.02 727.34,-129.16"/>
<polygon fill="#63b8ff" stroke="#63b8ff" points="728.15,-132.56 737.25,-127.14 726.75,-125.7 728.15,-132.56"/>
</a>
</g>
</g>
<!-- Node17 -->
<g id="Node000017" class="node">
<title>Node17</title>
<g id="a_Node000017"><a xlink:title=" ">
<polygon fill="#e0e0e0" stroke="#999999" points="861.5,-129 811.5,-129 811.5,-110 861.5,-110 861.5,-129"/>
<text text-anchor="middle" x="836.5" y="-117" font-family="Helvetica,sans-Serif" font-size="10.00">cstring</text>
</a>
</g>
</g>
<!-- Node1&#45;&gt;Node17 -->
<g id="edge17_Node000001_Node000017" class="edge">
<title>Node1&#45;&gt;Node17</title>
<g id="a_edge17_Node000001_Node000017"><a xlink:title=" ">
<path fill="none" stroke="#63b8ff" d="M558.45,-164.97C621.89,-157.63 712.98,-145.85 801.39,-129.03"/>
<polygon fill="#63b8ff" stroke="#63b8ff" points="802.16,-132.45 811.32,-127.12 800.84,-125.57 802.16,-132.45"/>
</a>
</g>
</g>
<!-- Node3 -->
<g id="Node000003" class="node">
<title>Node3</title>
<g id="a_Node000003"><a xlink:title=" ">
<polygon fill="#e0e0e0" stroke="#999999" points="69,-74 22,-74 22,-55 69,-55 69,-74"/>
<text text-anchor="middle" x="45.5" y="-62" font-family="Helvetica,sans-Serif" font-size="10.00">queue</text>
</a>
</g>
</g>
<!-- Node2&#45;&gt;Node3 -->
<g id="edge2_Node000002_Node000003" class="edge">
<title>Node2&#45;&gt;Node3</title>
<g id="a_edge2_Node000002_Node000003"><a xlink:title=" ">
<path fill="none" stroke="#63b8ff" d="M45.5,-109.75C45.5,-102.8 45.5,-92.85 45.5,-84.13"/>
<polygon fill="#63b8ff" stroke="#63b8ff" points="49,-84.09 45.5,-74.09 42,-84.09 49,-84.09"/>
</a>
</g>
</g>
<!-- Node2&#45;&gt;Node4 -->
<g id="edge3_Node000002_Node000004" class="edge">
<title>Node2&#45;&gt;Node4</title>
<g id="a_edge3_Node000002_Node000004"><a xlink:title=" ">
<path fill="none" stroke="#63b8ff" d="M56.75,-109.98C67.3,-102 83.3,-89.88 95.94,-80.31"/>
<polygon fill="#63b8ff" stroke="#63b8ff" points="98.19,-83 104.05,-74.17 93.96,-77.42 98.19,-83"/>
</a>
</g>
</g>
<!-- Node7 -->
<g id="Node000007" class="node">
<title>Node7</title>
<g id="a_Node000007"><a xlink:title=" ">
<polygon fill="#e0e0e0" stroke="#999999" points="216.5,-74 166.5,-74 166.5,-55 216.5,-55 216.5,-74"/>
<text text-anchor="middle" x="191.5" y="-62" font-family="Helvetica,sans-Serif" font-size="10.00">cstdint</text>
</a>
</g>
</g>
<!-- Node6&#45;&gt;Node7 -->
<g id="edge6_Node000006_Node000007" class="edge">
<title>Node6&#45;&gt;Node7</title>
<g id="a_edge6_Node000006_Node000007"><a xlink:title=" ">
<path fill="none" stroke="#63b8ff" d="M310.69,-109.98C287.33,-101.27 250.8,-87.63 224.33,-77.75"/>
<polygon fill="#63b8ff" stroke="#63b8ff" points="225.32,-74.39 214.73,-74.17 222.87,-80.95 225.32,-74.39"/>
</a>
</g>
</g>
<!-- Node6&#45;&gt;Node8 -->
<g id="edge7_Node000006_Node000008" class="edge">
<title>Node6&#45;&gt;Node8</title>
<g id="a_edge7_Node000006_Node000008"><a xlink:title=" ">
<path fill="none" stroke="#63b8ff" d="M353.1,-109.98C372.82,-101.42 403.45,-88.11 426.08,-78.28"/>
<polygon fill="#63b8ff" stroke="#63b8ff" points="427.76,-81.37 435.54,-74.17 424.98,-74.94 427.76,-81.37"/>
</a>
</g>
</g>
<!-- Node9 -->
<g id="Node000009" class="node">
<title>Node9</title>
<g id="a_Node000009"><a xlink:href="Components_8hpp.html" target="_top" xlink:title=" ">
<polygon fill="white" stroke="#666666" points="414,-74 235,-74 235,-55 414,-55 414,-74"/>
<text text-anchor="middle" x="324.5" y="-62" font-family="Helvetica,sans-Serif" font-size="10.00">engine/systems/Components.hpp</text>
</a>
</g>
</g>
<!-- Node6&#45;&gt;Node9 -->
<g id="edge8_Node000006_Node000009" class="edge">
<title>Node6&#45;&gt;Node9</title>
<g id="a_edge8_Node000006_Node000009"><a xlink:title=" ">
<path fill="none" stroke="#63b8ff" d="M332.01,-109.75C330.83,-102.8 329.14,-92.85 327.66,-84.13"/>
<polygon fill="#63b8ff" stroke="#63b8ff" points="331.08,-83.36 325.96,-74.09 324.18,-84.53 331.08,-83.36"/>
</a>
</g>
</g>
<!-- Node10 -->
<g id="Node000010" class="node">
<title>Node10</title>
<g id="a_Node000010"><a xlink:title=" ">
<polygon fill="#e0e0e0" stroke="#999999" points="331.5,-19 221.5,-19 221.5,0 331.5,0 331.5,-19"/>
<text text-anchor="middle" x="276.5" y="-7" font-family="Helvetica,sans-Serif" font-size="10.00">SFML/Graphics.hpp</text>
</a>
</g>
</g>
<!-- Node9&#45;&gt;Node10 -->
<g id="edge9_Node000009_Node000010" class="edge">
<title>Node9&#45;&gt;Node10</title>
<g id="a_edge9_Node000009_Node000010"><a xlink:title=" ">
<path fill="none" stroke="#63b8ff" d="M316.57,-54.75C309.65,-47.11 299.43,-35.82 291.05,-26.56"/>
<polygon fill="#63b8ff" stroke="#63b8ff" points="293.59,-24.15 284.28,-19.09 288.4,-28.85 293.59,-24.15"/>
</a>
</g>
</g>
<!-- Node11 -->
<g id="Node000011" class="node">
<title>Node11</title>
<g id="a_Node000011"><a xlink:title=" ">
<polygon fill="#e0e0e0" stroke="#999999" points="393.5,-19 349.5,-19 349.5,0 393.5,0 393.5,-19"/>
<text text-anchor="middle" x="371.5" y="-7" font-family="Helvetica,sans-Serif" font-size="10.00">string</text>
</a>
</g>
</g>
<!-- Node9&#45;&gt;Node11 -->
<g id="edge10_Node000009_Node000011" class="edge">
<title>Node9&#45;&gt;Node11</title>
<g id="a_edge10_Node000009_Node000011"><a xlink:title=" ">
<path fill="none" stroke="#63b8ff" d="M332.26,-54.75C338.97,-47.18 348.84,-36.05 357.01,-26.84"/>
<polygon fill="#63b8ff" stroke="#63b8ff" points="359.87,-28.89 363.88,-19.09 354.63,-24.25 359.87,-28.89"/>
</a>
</g>
</g>
</g>
</svg>
